<?xml version="1.0" standalone="no"?>
<!DOCTYPE svg PUBLIC "-//W3C//DTD SVG 20010904//EN"
 "http://www.w3.org/TR/2001/REC-SVG-20010904/DTD/svg10.dtd">
<svg version="1.0" xmlns="http://www.w3.org/2000/svg"
 width="250.000000pt" height="250.000000pt" viewBox="0 0 250.000000 250.000000"
 preserveAspectRatio="xMidYMid meet">
<metadata>
Created by potrace 1.11, written by Peter Selinger 2001-2013
</metadata>
<g transform="translate(0.000000,250.000000) scale(0.100000,-0.100000)"
fill="#000000" stroke="none">
<path d="M115 2440 c-40 -15 -60 -49 -60 -100 0 -40 5 -54 30 -80 l30 -31 1
-577 c0 -317 4 -597 8 -622 15 -98 30 -158 56 -230 134 -360 437 -616 820
-690 115 -23 344 -25 468 -5 457 74 823 443 892 899 12 79 15 250 5 296 -2 13
-7 42 -11 65 -8 58 -58 204 -95 277 -163 323 -492 548 -854 585 -129 14 -349
5 -422 -16 -18 -5 -33 -8 -33 -6 0 2 -37 -9 -82 -24 -173 -58 -311 -144 -439
-271 -47 -47 -94 -100 -104 -118 -11 -17 -22 -32 -25 -32 -3 0 -5 106 -5 236
1 226 2 237 21 253 56 45 60 117 11 166 -32 32 -36 33 -113 33 -43 0 -88 -4
-99 -8z"/>
</g>
</svg>
