<svg width="360" height="95.5" viewBox="0 0 490 130" fill="none" xmlns="http://www.w3.org/2000/svg">
<path d="M110.92 89.59V40.41C110.92 38.57 110.44 36.8 109.57 35.25C108.65 33.62 107.31 32.22 105.63 31.25L63.0299 6.65001C61.3899 5.70001 59.57 5.23001 57.7399 5.23001C55.9099 5.23001 54.0899 5.70001 52.4499 6.65001L9.85995 31.25C8.21995 32.2 6.89995 33.54 5.98995 35.12C5.07995 36.7 4.56995 38.52 4.56995 40.41V89.59C4.56995 91.25 4.95995 92.85 5.66995 94.29C6.57995 96.13 8.01995 97.69 9.84995 98.75L52.4399 123.34C54.0799 124.29 55.8999 124.76 57.7299 124.76C59.5599 124.76 61.3799 124.29 63.0199 123.34L105.61 98.75C107.25 97.8 108.57 96.46 109.48 94.88C110.39 93.3 110.9 91.48 110.9 89.59H110.92Z" fill="#42239A"/>
<path d="M44.3099 46.97C42.4899 47.28 41.2599 49.01 41.5699 50.82C41.8799 52.63 43.6099 53.87 45.4199 53.56C47.2399 53.25 48.4699 51.52 48.1599 49.71C47.8499 47.89 46.1199 46.66 44.3099 46.97Z" fill="#FFFBFF"/>
<path d="M94.5299 86.74C93.3399 86.74 92.3699 87.71 92.3699 88.9C92.3699 90.09 93.3399 91.06 94.5299 91.06C95.7199 91.06 96.6899 90.09 96.6899 88.9C96.6899 87.71 95.7199 86.74 94.5299 86.74Z" fill="#6C52DC"/>
<path d="M57.7699 101.63C56.5799 101.63 55.6099 102.6 55.6099 103.79C55.6099 104.98 56.5799 105.95 57.7699 105.95C58.9599 105.95 59.9299 104.98 59.9299 103.79C59.9299 102.6 58.9599 101.63 57.7699 101.63Z" fill="#6C52DC"/>
<path d="M71.0898 26.47C69.8998 26.47 68.9298 27.44 68.9298 28.63C68.9298 29.82 69.8998 30.79 71.0898 30.79C72.2798 30.79 73.2498 29.82 73.2498 28.63C73.2498 27.44 72.2798 26.47 71.0898 26.47Z" fill="#6C52DC"/>
<path d="M43.8999 26.47C42.7099 26.47 41.7399 27.44 41.7399 28.63C41.7399 29.82 42.7099 30.79 43.8999 30.79C45.0899 30.79 46.0599 29.82 46.0599 28.63C46.0599 27.44 45.0899 26.47 43.8999 26.47Z" fill="#6C52DC"/>
<path d="M94.5199 73.97C96.3599 73.97 97.8599 72.47 97.8599 70.63C97.8599 68.79 96.3599 67.29 94.5199 67.29C92.6799 67.29 91.1799 68.79 91.1799 70.63C91.1799 72.47 92.6799 73.97 94.5199 73.97Z" fill="#6C52DC"/>
<path d="M75.3699 89.69C73.5299 89.69 72.0299 91.19 72.0299 93.03C72.0299 94.87 73.5299 96.37 75.3699 96.37C77.2099 96.37 78.7099 94.87 78.7099 93.03C78.7099 91.19 77.2099 89.69 75.3699 89.69Z" fill="#FFFBFF"/>
<path d="M35.9799 97.51C37.8245 97.51 39.3199 96.0146 39.3199 94.17C39.3199 92.3254 37.8245 90.83 35.9799 90.83C34.1353 90.83 32.6399 92.3254 32.6399 94.17C32.6399 96.0146 34.1353 97.51 35.9799 97.51Z" fill="#FFFBFF"/>
<path d="M35.9799 57.84C33.7499 57.84 31.9299 59.66 31.9299 61.89C31.9299 64.12 33.7499 65.94 35.9799 65.94C38.2099 65.94 40.0299 64.12 40.0299 61.89C40.0299 59.66 38.2099 57.84 35.9799 57.84Z" fill="#FFFBFF"/>
<path d="M57.77 79.13C55.54 79.13 53.72 80.95 53.72 83.18C53.72 85.41 55.54 87.23 57.77 87.23C60 87.23 61.82 85.41 61.82 83.18C61.82 80.95 60 79.13 57.77 79.13Z" fill="#6C52DC"/>
<path d="M57.77 38.29C55.54 38.29 53.72 40.11 53.72 42.34C53.72 44.57 55.54 46.39 57.77 46.39C60 46.39 61.82 44.57 61.82 42.34C61.82 40.11 60 38.29 57.77 38.29Z" fill="#6C52DC"/>
<path d="M74.5899 67.72C72.3899 68.09 70.8999 70.19 71.2699 72.39C71.6399 74.59 73.7399 76.08 75.9399 75.71C78.1399 75.34 79.6299 73.24 79.2599 71.04C78.8899 68.84 76.7899 67.35 74.5899 67.72Z" fill="#FFFBFF"/>
<path d="M30.83 36.48C30.46 34.28 28.36 32.79 26.16 33.16C23.96 33.53 22.47 35.63 22.84 37.83C23.21 40.03 25.31 41.52 27.51 41.15C29.71 40.78 31.2 38.68 30.83 36.48Z" fill="#FFFBFF"/>
<path d="M76.03 45.49H74.58V95.14H76.03V45.49Z" fill="#FFFBFF"/>
<path d="M36.7099 60.92H35.2599V96.61H36.7099V60.92Z" fill="#FFFBFF"/>
<path d="M27.3899 36.74L27.0799 36.51L26.2399 37.69L75.1199 72.44L75.4399 72.67L76.2799 71.49L27.3899 36.74Z" fill="#FFFBFF"/>
<path d="M45.2099 48.96L32.9999 63.35L34.0999 64.29L46.0599 50.19L46.3199 49.89L45.2099 48.96Z" fill="#FFFBFF"/>
<path d="M75.3699 51.69C77.2099 51.69 78.7099 50.19 78.7099 48.35C78.7099 46.51 77.2099 45.01 75.3699 45.01C73.5299 45.01 72.0299 46.51 72.0299 48.35C72.0299 50.19 73.5299 51.69 75.3699 51.69Z" fill="#FFFBFF"/>
<path d="M84.0199 36.66C82.1799 36.66 80.6799 38.16 80.6799 40C80.6799 41.84 82.1799 43.34 84.0199 43.34C85.8599 43.34 87.3599 41.84 87.3599 40C87.3599 38.16 85.8599 36.66 84.0199 36.66Z" fill="#FFFBFF"/>
<path d="M94.01 48.02C91.78 48.02 89.96 49.84 89.96 52.07C89.96 54.3 91.78 56.12 94.01 56.12C96.24 56.12 98.06 54.3 98.06 52.07C98.06 49.84 96.24 48.02 94.01 48.02Z" fill="#FFFBFF"/>
<path d="M81.8859 40.8361L74.5731 48.1463L75.5982 49.1718L82.911 41.8616L81.8859 40.8361Z" fill="#FFFBFF"/>
<path d="M74.8399 47.22L74.6199 48.66L93.4399 51.57L93.6599 50.14L74.8399 47.22Z" fill="#FFFBFF"/>
<path d="M83.4299 38.53L82.2799 39.42L91.7299 51.62L92.8699 50.74L83.4299 38.53Z" fill="#FFFBFF"/>
<path d="M20.5 57.42C21.69 57.42 22.66 56.45 22.66 55.26C22.66 54.07 21.69 53.1 20.5 53.1C19.31 53.1 18.34 54.07 18.34 55.26C18.34 56.45 19.31 57.42 20.5 57.42Z" fill="#6C52DC"/>
<path d="M20.4999 70.19C18.6599 70.19 17.1599 71.69 17.1599 73.53C17.1599 75.37 18.6599 76.87 20.4999 76.87C22.3399 76.87 23.8399 75.37 23.8399 73.53C23.8399 71.69 22.3399 70.19 20.4999 70.19Z" fill="#6C52DC"/>
<path d="M190.94 94.9L159.56 53.58L159.52 94.9H147.19V33.02H158.72L190.15 74.35V33.02H202.52V94.9H190.94Z" fill="white"/>
<path d="M243.85 94.88V90.15C241.02 93.64 236.91 95.99 231.03 95.99C219.18 95.99 210.3 86.31 210.3 73.45C210.3 60.59 219.18 50.91 231.03 50.91C236.91 50.91 241.02 53.25 243.85 56.79V52.06H255.12V94.89H243.85V94.88ZM222.1 73.45C222.1 79.99 226.39 85.25 233.15 85.25C239.91 85.25 244.2 80.21 244.2 73.45C244.2 66.69 239.73 61.65 233.15 61.65C226.57 61.65 222.1 66.91 222.1 73.45Z" fill="white"/>
<path d="M280.96 67.3L293.03 52.05H307.17L290.29 72.21L307.31 94.88H293.12L280.79 77.56H276.9V94.88H265.37V31.24H276.9V67.3H280.97H280.96Z" fill="white"/>
<path d="M342.5 94.88V90.15C339.67 93.64 335.56 95.99 329.68 95.99C317.83 95.99 308.95 86.31 308.95 73.45C308.95 60.59 317.83 50.91 329.68 50.91C335.56 50.91 339.67 53.25 342.5 56.79V52.06H353.77V94.89H342.5V94.88ZM320.76 73.45C320.76 79.99 325.05 85.25 331.81 85.25C338.57 85.25 342.86 80.21 342.86 73.45C342.86 66.69 338.39 61.65 331.81 61.65C325.23 61.65 320.76 66.91 320.76 73.45Z" fill="white"/>
<path d="M434.02 67.61V94.88H422.53V71.32C422.53 65.09 419.44 61.73 414.18 61.73C409.23 61.73 405.12 64.91 405.12 71.41V94.88H393.58V71.32C393.58 65.09 390.53 61.73 385.23 61.73C380.28 61.73 376.17 64.91 376.17 71.41V94.88H364.64V52.05H375.86V57.09C378.91 52.54 383.55 50.9 388.46 50.9C394.69 50.9 399.73 53.64 402.6 58.24C405.92 52.76 411.53 50.9 417.14 50.9C427.22 50.9 434.02 57.66 434.02 67.6V67.61Z" fill="white"/>
<path d="M474.16 94.88V90.15C471.33 93.64 467.22 95.99 461.34 95.99C449.49 95.99 440.61 86.31 440.61 73.45C440.61 60.59 449.49 50.91 461.34 50.91C467.22 50.91 471.33 53.25 474.16 56.79V52.06H485.43V94.89H474.16V94.88ZM452.42 73.45C452.42 79.99 456.71 85.25 463.47 85.25C470.23 85.25 474.52 80.21 474.52 73.45C474.52 66.69 470.05 61.65 463.47 61.65C456.89 61.65 452.42 66.91 452.42 73.45Z" fill="white"/>
</svg>
