<?xml version="1.0" encoding="utf-8"?>
<!-- Generator: Adobe Illustrator 24.0.0, SVG Export Plug-In . SVG Version: 6.00 Build 0)  -->
<!DOCTYPE svg PUBLIC "-//W3C//DTD SVG 1.1//EN" "http://www.w3.org/Graphics/SVG/1.1/DTD/svg11.dtd" [
	<!ENTITY ns_extend "http://ns.adobe.com/Extensibility/1.0/">
	<!ENTITY ns_ai "http://ns.adobe.com/AdobeIllustrator/10.0/">
	<!ENTITY ns_graphs "http://ns.adobe.com/Graphs/1.0/">
	<!ENTITY ns_vars "http://ns.adobe.com/Variables/1.0/">
	<!ENTITY ns_imrep "http://ns.adobe.com/ImageReplacement/1.0/">
	<!ENTITY ns_sfw "http://ns.adobe.com/SaveForWeb/1.0/">
	<!ENTITY ns_custom "http://ns.adobe.com/GenericCustomNamespace/1.0/">
	<!ENTITY ns_adobe_xpath "http://ns.adobe.com/XPath/1.0/">
]>
<svg version="1.1" id="Layer_1" xmlns:x="&ns_extend;" xmlns:i="&ns_ai;" xmlns:graph="&ns_graphs;"
	 xmlns="http://www.w3.org/2000/svg" xmlns:xlink="http://www.w3.org/1999/xlink" x="0px" y="0px" width="175px" height="51.2px"
	 viewBox="0 0 175 51.2" style="enable-background:new 0 0 175 51.2;" xml:space="preserve">
<style type="text/css">
	.st0{fill-rule:evenodd;clip-rule:evenodd;fill:#7668ED;}
	.st1{fill:#7668ED;}
</style>
<metadata>
	<sfw  xmlns="&ns_sfw;">
		<slices></slices>
		<sliceSourceBounds  bottomLeftOrigin="true" height="51.2" width="175" x="353.4" y="313"></sliceSourceBounds>
	</sfw>
</metadata>
<g>
	<g>
		<g>
			<path class="st0" d="M11.3,29.7c-1.2,0-1.8-1.5-2.1-2.5c0.3,0,0.6,0,0.9,0.1c0.6,0.1,1.3,0.3,1.7,0.8
				C12.3,28.8,11.8,29.7,11.3,29.7 M20.3,29.7c1.2,0,1.8-1.5,2.1-2.5c-0.3,0-0.6,0-0.9,0.1c-0.6,0.1-1.3,0.3-1.7,0.8
				C19.3,28.8,19.8,29.7,20.3,29.7z M15.7,47.1L15.7,47.1h0.1c1.3-1.8,1.6-5.2-0.1-6.9C14.2,42,14.4,45.3,15.7,47.1z M15.7,0.1
				L15.7,0.1h0.1c1.7,1.2,3,2.4,4.2,4.2c4,5.5,6.5,14.4,5.7,21c1.9,0.8,3.4,2.2,4.3,3.8h0c1.6,2.7,2.2,8.1,0,10.9
				c-2.9-1.6-7-2.8-11.2-1.7l-0.8,0.4c2.2,3,2.2,6.9,0.2,9.9c-0.9,1.3-1.5,1.7-2.5,2.6c-1-0.9-1.7-1.5-2.5-2.6c-2-3-2-6.9,0.2-9.9
				l-0.8-0.4c-4.1-1.2-8.3,0.1-11.2,1.7c-2.3-2.8-1.6-8.2,0-10.9h0c1-1.7,2.5-3,4.3-3.8C5,18.6,7.5,9.7,11.5,4.2
				C12.8,2.5,14,1.2,15.7,0.1z M28.6,36.2c0.4-2,0.1-4.1-0.9-5.7c-0.6-1-1.4-1.8-2.5-2.4c-0.3,0.9-0.6,1.7-1.1,2.4
				c-1.3,2.1-4.3,3-6.2,1.1c-2.6-2.5-0.7-7.4,4.5-7.2l0.6,0.1c0.7-6.6-2.4-16.3-7.2-20.7c-4.9,4.4-7.9,14.1-7.2,20.7l0.6-0.1
				c5.2-0.2,7.1,4.7,4.5,7.2c-1.9,1.8-4.9,1-6.2-1.1c-0.4-0.7-0.8-1.5-1.1-2.4c-1.1,0.6-1.9,1.4-2.5,2.4c-1,1.6-1.3,3.7-0.9,5.7
				c4.6-1.7,8.3-1.6,12.8,0.3C20.3,34.5,24,34.5,28.6,36.2z"/>
		</g>
	</g>
	<g>
		<path class="st1" d="M45.3,24.9h9v-7h2.7v16.7h-2.7v-7.1h-9v7.1h-2.7V17.9h2.7V24.9z"/>
		<path class="st1" d="M71.3,28.9c0,0.3,0,0.6,0,0.9h-8.5c0.3,2.1,1.8,2.9,3.4,2.9c1.1,0,2.4-0.5,3.3-1.2l1.2,1.8
			c-1.4,1.2-3,1.6-4.7,1.6c-3.4,0-5.9-2.4-5.9-6c0-3.6,2.3-6,5.7-6C69.1,22.9,71.3,25.3,71.3,28.9z M62.8,27.9h5.9
			c-0.3-1.8-1.3-2.8-2.9-2.8C64.1,25.1,63.1,26.2,62.8,27.9z"/>
		<path class="st1" d="M81.8,23.2l-0.6,2.5c-0.5-0.3-1.3-0.4-1.9-0.4c-1.6,0-2.7,1.1-2.7,3.1v6.3h-2.5V23.2h2.5v1.3
			c0.8-1.1,1.9-1.6,3.3-1.6C80.7,22.9,81.3,23,81.8,23.2z"/>
		<path class="st1" d="M95.1,28.9c0,3.4-2.6,6-6.2,6s-6.2-2.6-6.2-6c0-3.4,2.6-6,6.2-6S95.1,25.5,95.1,28.9z M85.3,28.9
			c0,2.2,1.5,3.7,3.6,3.7s3.6-1.5,3.6-3.7c0-2.2-1.6-3.7-3.6-3.7S85.3,26.7,85.3,28.9z"/>
		<path class="st1" d="M100.9,19.2c0,1-0.8,1.7-1.8,1.7c-1,0-1.7-0.8-1.7-1.7c0-1,0.8-1.8,1.7-1.8C100.1,17.4,100.9,18.2,100.9,19.2
			z M100.4,34.6h-2.5V23.2h2.5V34.6z"/>
		<path class="st1" d="M113.5,24.7l-1.6,1.7c-0.8-0.8-1.6-1.2-2.7-1.2c-1.9,0-3.4,1.5-3.4,3.7c0,2.2,1.5,3.7,3.4,3.7
			c1.1,0,2.1-0.5,2.8-1.2l1.5,1.7c-1,1.2-2.6,1.8-4.3,1.8c-3.6,0-6-2.6-6-6c0-3.4,2.4-6,6-6C111,22.9,112.5,23.5,113.5,24.7z"/>
		<path class="st1" d="M134.5,34.6h-12V17.9h2.7v14.2h9.3V34.6z"/>
		<path class="st1" d="M147.6,34.6h-2.5v-1.4c-0.8,1-2,1.7-3.6,1.7c-3.2,0-5.7-2.5-5.7-6s2.5-6,5.7-6c1.6,0,2.8,0.7,3.6,1.7v-1.4
			h2.5V34.6z M138.4,28.9c0,2,1.3,3.7,3.5,3.7c2.1,0,3.5-1.6,3.5-3.7s-1.4-3.7-3.5-3.7C139.7,25.2,138.4,26.9,138.4,28.9z"/>
		<path class="st1" d="M163,28.9c0,3.5-2.5,6-5.7,6c-1.6,0-2.8-0.7-3.6-1.7v1.4h-2.5V17.4h2.5v7.1c0.8-1,2-1.7,3.6-1.7
			C160.5,22.9,163,25.4,163,28.9z M153.6,28.9c0,2.1,1.4,3.7,3.5,3.7c2.2,0,3.5-1.7,3.5-3.7c0-2-1.3-3.7-3.5-3.7
			C155,25.2,153.6,26.8,153.6,28.9z"/>
		<path class="st1" d="M173.6,26c-0.7-0.4-2.1-1-3.5-1c-1.4,0-2.2,0.5-2.2,1.4c0,0.8,0.8,1,1.9,1.2l1.2,0.2c2.5,0.4,4,1.4,4,3.4
			c0,2.2-1.9,3.7-5.2,3.7c-1.2,0-3.2-0.2-4.9-1.5l1.2-1.9c0.8,0.6,1.9,1.2,3.8,1.2c1.7,0,2.6-0.5,2.6-1.4c0-0.6-0.6-1.1-2-1.3
			l-1.2-0.2c-2.5-0.3-3.9-1.5-3.9-3.4c0-2.3,1.8-3.7,4.7-3.7c1.8,0,3.5,0.4,4.6,1.2L173.6,26z"/>
	</g>
</g>
</svg>
