<svg width="134" height="50" viewBox="0 0 134 50" fill="none" xmlns="http://www.w3.org/2000/svg">
<path d="M42.9616 34.6765V15.3088C42.9616 14.5882 42.7705 13.8823 42.4325 13.2794C42.065 12.6323 41.5359 12.0882 40.8745 11.7059L24.1337 2.0294C23.487 1.66176 22.7668 1.47058 22.0466 1.47058C21.3264 1.47058 20.6062 1.66176 19.9595 2.0294L3.20403 11.7059C2.55733 12.0735 2.0429 12.6029 1.67546 13.2353C1.30801 13.8676 1.11694 14.5735 1.11694 15.3235V34.6912C1.11694 35.3382 1.26392 35.9706 1.54318 36.5441C1.89593 37.2647 2.46914 37.8824 3.18933 38.2941L19.9448 47.9706C20.5915 48.3382 21.3117 48.5294 22.0319 48.5294C22.7521 48.5294 23.4723 48.3382 24.119 47.9706L40.8745 38.2941C41.5212 37.9265 42.0356 37.3971 42.4031 36.7647C42.7705 36.1323 42.9616 35.4265 42.9616 34.6765Z" fill="#42239B"/>
<path d="M120.845 26.5588V35.0147H117.053V20.75H120.845V22.5C121.757 21.2941 123.021 20.4265 124.652 20.4265C125.137 20.4265 125.622 20.5441 125.945 20.7353V24.6029C125.446 24.4265 122.624 23.2647 120.845 26.5588Z" fill="#0A0435"/>
<path d="M22.223 43.6765C23.2519 43.6765 24.0749 42.8382 24.0749 41.8235C24.0749 40.8088 23.2372 39.9706 22.223 39.9706C21.2089 39.9706 20.3711 40.8088 20.3711 41.8235C20.3711 42.8382 21.2089 43.6765 22.223 43.6765Z" fill="#6C52DD"/>
<path d="M29.1015 37.3088C29.4587 37.3088 29.7482 37.0191 29.7482 36.6618C29.7482 36.3044 29.4587 36.0147 29.1015 36.0147C28.7444 36.0147 28.4548 36.3044 28.4548 36.6618C28.4548 37.0191 28.7444 37.3088 29.1015 37.3088Z" fill="#6C52DD"/>
<path d="M37.9204 28.9118C38.2775 28.9118 38.5671 28.6221 38.5671 28.2647C38.5671 27.9074 38.2775 27.6177 37.9204 27.6177C37.5632 27.6177 37.2737 27.9074 37.2737 28.2647C37.2737 28.6221 37.5632 28.9118 37.9204 28.9118Z" fill="#6C52DD"/>
<path d="M37.9204 20.0441C38.2775 20.0441 38.5671 19.7544 38.5671 19.3971C38.5671 19.0397 38.2775 18.75 37.9204 18.75C37.5632 18.75 37.2737 19.0397 37.2737 19.3971C37.2737 19.7544 37.5632 20.0441 37.9204 20.0441Z" fill="#6C52DD"/>
<path d="M36.671 35.7206C37.3691 35.7206 37.935 35.1544 37.935 34.4559C37.935 33.7575 37.3691 33.1912 36.671 33.1912C35.9729 33.1912 35.407 33.7575 35.407 34.4559C35.407 35.1544 35.9729 35.7206 36.671 35.7206Z" fill="#6C52DD"/>
<path d="M12.3314 39.0735C13.0295 39.0735 13.5954 38.5073 13.5954 37.8088C13.5954 37.1104 13.0295 36.5441 12.3314 36.5441C11.6333 36.5441 11.0674 37.1104 11.0674 37.8088C11.0674 38.5073 11.6333 39.0735 12.3314 39.0735Z" fill="#6C52DD"/>
<path d="M21.8702 6.32355C20.8414 6.32355 20.0183 7.16178 20.0183 8.17649C20.0183 9.19119 20.8561 10.0294 21.8702 10.0294C22.8844 10.0294 23.7222 9.19119 23.7222 8.17649C23.7222 7.16178 22.8844 6.32355 21.8702 6.32355Z" fill="#6C52DD"/>
<path d="M14.977 13.9853C15.3342 13.9853 15.6237 13.6956 15.6237 13.3383C15.6237 12.9809 15.3342 12.6912 14.977 12.6912C14.6199 12.6912 14.3303 12.9809 14.3303 13.3383C14.3303 13.6956 14.6199 13.9853 14.977 13.9853Z" fill="#6C52DD"/>
<path d="M6.17307 22.3824C6.53023 22.3824 6.81977 22.0927 6.81977 21.7353C6.81977 21.378 6.53023 21.0883 6.17307 21.0883C5.81591 21.0883 5.52637 21.378 5.52637 21.7353C5.52637 22.0927 5.81591 22.3824 6.17307 22.3824Z" fill="#6C52DD"/>
<path d="M6.17307 31.25C6.53023 31.25 6.81977 30.9603 6.81977 30.6029C6.81977 30.2456 6.53023 29.9559 6.17307 29.9559C5.81591 29.9559 5.52637 30.2456 5.52637 30.6029C5.52637 30.9603 5.81591 31.25 6.17307 31.25Z" fill="#6C52DD"/>
<path d="M7.42246 16.8088C8.12055 16.8088 8.68647 16.2426 8.68647 15.5441C8.68647 14.8456 8.12055 14.2794 7.42246 14.2794C6.72436 14.2794 6.15845 14.8456 6.15845 15.5441C6.15845 16.2426 6.72436 16.8088 7.42246 16.8088Z" fill="#6C52DD"/>
<path d="M31.7621 13.4559C32.4602 13.4559 33.0261 12.8897 33.0261 12.1912C33.0261 11.4927 32.4602 10.9265 31.7621 10.9265C31.064 10.9265 30.498 11.4927 30.498 12.1912C30.498 12.8897 31.064 13.4559 31.7621 13.4559Z" fill="#6C52DD"/>
<path d="M59.3056 29.6176C60.5696 30.9706 62.2892 32 64.0824 32C65.8755 32 67.2865 31.0735 67.2865 29.647C67.2865 28.3676 66.4781 27.3235 63.3769 26.6617C59.5261 25.8529 57.4684 23.8529 57.4684 20.9706C57.4684 17.7059 60.1287 15.4117 63.8766 15.4117C66.4781 15.4117 68.6681 16.3529 70.2408 17.8676L68.1243 20.6029C66.9191 19.5441 65.5816 18.7353 64.053 18.7353C62.5244 18.7353 61.4221 19.5147 61.4221 20.6912C61.4221 22 62.3921 22.897 65.0965 23.5147C69.403 24.5 71.2402 26.5147 71.2402 29.5441C71.2402 32.9117 68.5505 35.3529 64.1706 35.3529C61.3633 35.3529 58.7471 34.1912 57.0715 32.25L59.3203 29.6176H59.3056Z" fill="#0A0435"/>
<path d="M84.9238 22.1764V20.75H88.6718V35.0147H84.9238V33.5882C83.7333 34.75 82.1459 35.3529 80.4116 35.3529C76.3109 35.3529 73.2979 31.9853 73.2979 27.8823C73.2979 23.7794 76.3109 20.4117 80.4116 20.4117C82.1459 20.4117 83.748 21.0147 84.9238 22.1764ZM84.9238 29.7206V26.0294C84.2771 24.6617 82.8661 23.75 81.2053 23.75C78.883 23.75 77.0899 25.5441 77.0899 27.8676C77.0899 30.1912 78.883 31.9853 81.2053 31.9853C82.8514 31.9853 84.2771 31.0735 84.9238 29.7059V29.7206Z" fill="#0A0435"/>
<path d="M107.441 20.4117C111.762 20.4117 114.966 23.7059 114.966 27.8823C114.966 32.0588 111.762 35.3529 107.441 35.3529C103.12 35.3529 99.9158 32.0588 99.9158 27.8823C99.9158 23.7059 103.135 20.4117 107.441 20.4117ZM107.441 32C109.66 32 111.365 30.2059 111.365 27.8823C111.365 25.5588 109.66 23.7647 107.441 23.7647C105.222 23.7647 103.531 25.5735 103.531 27.8823C103.531 30.1912 105.236 32 107.441 32Z" fill="#0A0435"/>
<path d="M130.384 14.7647C131.648 14.7647 132.633 15.7206 132.633 16.9559C132.633 18.1912 131.663 19.1471 130.384 19.1471C129.106 19.1471 128.135 18.1912 128.135 16.9559C128.135 15.7206 129.106 14.7647 130.384 14.7647ZM128.488 20.75H132.28V35.0147H128.488V20.75Z" fill="#0A0435"/>
<path d="M94.7862 30.0736V24.0441H98.1373V20.75H94.7862V17.103H90.9941V30.3089C90.9941 33.6618 92.802 35.353 96.3294 35.353C97.0496 35.353 97.7845 35.2647 98.2989 35.1618V32C97.9315 32.0441 97.373 32.0736 96.9467 32.0736C95.3594 32.0736 94.7715 31.4559 94.7715 30.0883L94.7862 30.0736Z" fill="#0A0435"/>
<path d="M35.4952 24.8382C35.4952 23.9706 34.7309 23.2206 33.173 22.5882C32.6879 22.397 32.1147 22.2059 31.468 22.0441C31.4092 21.8088 31.3504 21.5882 31.277 21.3676L31.615 21.0294C31.8502 20.7941 32.0265 20.4853 32.1 20.1617C32.3205 19.0735 31.7032 17.5882 30.4245 16.3088C28.94 14.8235 27.1616 14.2647 26.0739 14.8382C25.971 14.897 25.8829 14.9706 25.7947 15.0441L25.4272 15.3823C24.516 15.0588 23.5459 14.8823 22.5758 14.8676C22.4877 14.8676 22.4142 14.8676 22.326 14.8676C18.0342 14.8676 14.3598 17.7794 13.2574 21.7647C10.4208 22.4117 8.98038 23.3235 8.96568 24.5C8.95099 25.7059 10.4502 26.6912 13.4338 27.4117C13.6396 28 13.9188 28.5441 14.2422 29.0882C14.5655 29.6323 14.2569 29.1176 14.2716 29.1323C14.3451 29.2647 14.4333 29.397 14.5215 29.5147L12.2433 31.7941C11.7142 32.3235 11.9199 33.3088 12.6989 34.0882C13.184 34.5735 13.7278 34.8235 14.1981 34.8235C14.4921 34.8235 14.7566 34.7206 14.9624 34.5147L17.2405 32.2353C18.6809 33.1617 20.3418 33.6764 22.0908 33.7206H22.3407C26.3532 33.7206 29.8219 31.1764 31.1594 27.5882C34.0254 26.9412 35.4952 26.0147 35.5099 24.8382H35.4952ZM15.3592 28.7059L19.8862 24.1764C20.1654 24.6912 20.5623 25.2059 21.0473 25.6912C21.5323 26.1764 22.0614 26.5735 22.5758 26.8529L18.0636 31.3529C16.9907 30.7059 16.05 29.7941 15.3592 28.6912V28.7059ZM21.8704 24.8676C20.5476 23.5441 20.283 22.1764 20.6798 21.7941L25.2949 17.1764C25.3096 17.25 25.339 17.3235 25.3537 17.397C25.6036 18.2206 26.1621 19.0882 26.897 19.8382C27.7495 20.6912 28.7048 21.25 29.5573 21.4559L24.9569 26.0588C24.5601 26.4559 23.2079 26.1912 21.8851 24.8676H21.8704ZM27.6319 15.8823C28.2639 16.0735 28.9841 16.5441 29.5867 17.147C30.1893 17.75 30.6596 18.4706 30.8507 19.1029C31.0124 19.6029 30.983 20.0294 30.7919 20.2206C30.6009 20.4117 30.1746 20.4412 29.6749 20.2794C29.0429 20.0882 28.3227 19.6176 27.7201 19.0147C27.1175 18.4117 26.6471 17.6912 26.4561 17.0588C26.2944 16.5588 26.3238 16.1323 26.5149 15.9412C26.6324 15.8235 26.8088 15.7794 27.0293 15.7794C27.2057 15.7794 27.4114 15.8088 27.6319 15.8823ZM22.5318 16.0294C23.2079 16.0441 23.8546 16.147 24.4866 16.3235L19.8421 20.9706C19.357 21.4559 19.2248 22.1912 19.4158 23L14.786 27.6323C14.2863 26.5147 14.0217 25.2941 14.0511 24.0588C14.1834 19.5147 17.9754 15.897 22.5318 16.0294ZM10.1121 24.5147C10.1121 24.1912 10.9058 23.5588 12.9929 23.0147C12.9488 23.3529 12.9194 23.6912 12.9047 24.0441C12.89 24.75 12.9488 25.4412 13.0811 26.1176C10.6706 25.4559 10.1121 24.75 10.1121 24.5147ZM14.1687 33.647C14.0658 33.647 13.8013 33.5588 13.5073 33.25C13.1986 32.9412 13.1105 32.6617 13.0958 32.5441L15.2123 30.4264C15.5503 30.8235 15.9177 31.1764 16.2999 31.5L14.1687 33.6323V33.647ZM30.5862 24.5147C30.4686 29.0588 26.7059 32.6912 22.1496 32.5735C21.1061 32.5441 20.0919 32.3088 19.166 31.9264L23.7664 27.3235C24.0015 27.3823 24.222 27.397 24.4278 27.397C24.9569 27.397 25.4272 27.2353 25.7653 26.8823L30.3363 22.3088C30.5127 23.0294 30.6008 23.7647 30.5715 24.5147H30.5862ZM31.5268 26.3088C31.6444 25.7353 31.7326 25.147 31.7473 24.5441C31.7473 24.1323 31.7473 23.7206 31.7032 23.3235C32.0853 23.4412 32.4381 23.5588 32.7614 23.6912C34.0254 24.1912 34.3488 24.647 34.3488 24.8382C34.3488 25.1617 33.5698 25.7794 31.5415 26.3235L31.5268 26.3088Z" fill="white"/>
</svg>
