<svg width="25" height="25" viewBox="0 0 25 25" fill="none" xmlns="http://www.w3.org/2000/svg"><path d="M15.1042 18.75C14.375 18.75 13.7587 18.4982 13.2552 17.9948C12.7517 17.4913 12.5 16.875 12.5 16.1458C12.5 15.4166 12.7517 14.8003 13.2552 14.2969C13.7587 13.7934 14.375 13.5416 15.1042 13.5416C15.8333 13.5416 16.4497 13.7934 16.9531 14.2969C17.4566 14.8003 17.7083 15.4166 17.7083 16.1458C17.7083 16.875 17.4566 17.4913 16.9531 17.9948C16.4497 18.4982 15.8333 18.75 15.1042 18.75ZM5.20833 22.9166C4.63542 22.9166 4.14497 22.7127 3.73698 22.3047C3.32899 21.8967 3.125 21.4062 3.125 20.8333V6.24998C3.125 5.67706 3.32899 5.18661 3.73698 4.77863C4.14497 4.37064 4.63542 4.16665 5.20833 4.16665H6.25V2.08331H8.33333V4.16665H16.6667V2.08331H18.75V4.16665H19.7917C20.3646 4.16665 20.855 4.37064 21.263 4.77863C21.671 5.18661 21.875 5.67706 21.875 6.24998V20.8333C21.875 21.4062 21.671 21.8967 21.263 22.3047C20.855 22.7127 20.3646 22.9166 19.7917 22.9166H5.20833ZM5.20833 20.8333H19.7917V10.4166H5.20833V20.8333ZM5.20833 8.33331H19.7917V6.24998H5.20833V8.33331Z" fill="#B421B4"/></svg>
