<?xml version="1.0" encoding="utf-8"?>
<!-- Generator: Adobe Illustrator 24.2.1, SVG Export Plug-In . SVG Version: 6.00 Build 0)  -->
<svg version="1.1" id="Layer_1" xmlns="http://www.w3.org/2000/svg" xmlns:xlink="http://www.w3.org/1999/xlink" x="0px" y="0px"
	 viewBox="0 0 18.9 16.9" style="enable-background:new 0 0 18.9 16.9;" xml:space="preserve">
<style type="text/css">
	.st0{fill:none;stroke:#FFFFFF;stroke-linejoin:round;}
	.st1{fill:none;stroke:#FFFFFF;stroke-width:0.75;stroke-linejoin:round;}
</style>
<g>
	<path id="Path_237" class="st0" d="M15.7,9.3V7.6l-1.5-0.5c-0.1-0.4-0.3-0.7-0.5-1.1l0.7-1.4l-1.2-1.2l-1.4,0.7
		c-0.3-0.2-0.7-0.3-1.1-0.4l-0.5-1.5H8.6L8.1,3.7C7.7,3.8,7.4,4,7,4.1L5.6,3.5L4.5,4.6L5.1,6C4.9,6.4,4.8,6.7,4.7,7.1L3.2,7.6v1.6
		l1.4,0.5c0.1,0.4,0.3,0.8,0.5,1.1l-0.7,1.4l1.2,1.2L7,12.8c0.4,0.2,0.7,0.4,1.1,0.5l0.5,1.4h1.6l0.5-1.4c0.4-0.1,0.8-0.3,1.1-0.5
		l1.4,0.6l1.2-1.2l-0.7-1.4c0.2-0.4,0.4-0.7,0.5-1.1L15.7,9.3z"/>
	<circle id="Ellipse_79" class="st1" cx="9.4" cy="8.5" r="1.7"/>
</g>
</svg>
