<?xml version="1.0" encoding="utf-8"?>
<!-- Generator: Adobe Illustrator 24.0.0, SVG Export Plug-In . SVG Version: 6.00 Build 0)  -->
<!DOCTYPE svg PUBLIC "-//W3C//DTD SVG 1.1//EN" "http://www.w3.org/Graphics/SVG/1.1/DTD/svg11.dtd" [
	<!ENTITY ns_extend "http://ns.adobe.com/Extensibility/1.0/">
	<!ENTITY ns_ai "http://ns.adobe.com/AdobeIllustrator/10.0/">
	<!ENTITY ns_graphs "http://ns.adobe.com/Graphs/1.0/">
	<!ENTITY ns_vars "http://ns.adobe.com/Variables/1.0/">
	<!ENTITY ns_imrep "http://ns.adobe.com/ImageReplacement/1.0/">
	<!ENTITY ns_sfw "http://ns.adobe.com/SaveForWeb/1.0/">
	<!ENTITY ns_custom "http://ns.adobe.com/GenericCustomNamespace/1.0/">
	<!ENTITY ns_adobe_xpath "http://ns.adobe.com/XPath/1.0/">
]>
<svg version="1.1" id="Layer_1" xmlns:x="&ns_extend;" xmlns:i="&ns_ai;" xmlns:graph="&ns_graphs;"
	 xmlns="http://www.w3.org/2000/svg" xmlns:xlink="http://www.w3.org/1999/xlink" x="0px" y="0px" width="18px" height="18px"
	 viewBox="0 0 18 18" style="enable-background:new 0 0 18 18;" xml:space="preserve">
<style type="text/css">
	.st0{fill:#DAD5FF;}
	.st1{enable-background:new    ;}
	.st2{fill:#333564;}
</style>
<metadata>
	<sfw  xmlns="&ns_sfw;">
		<slices></slices>
		<sliceSourceBounds  bottomLeftOrigin="true" height="17" width="17" x="996.5" y="-574.5"></sliceSourceBounds>
	</sfw>
</metadata>
<circle id="Ellipse_15" class="st0" cx="9" cy="9" r="8.5"/>
<g class="st1">
	<path class="st2" d="M9.6,10.4H8.4V9.8c0-0.3,0-0.5,0.1-0.6C8.6,9,8.7,8.9,8.9,8.7l0.7-0.7c0.2-0.2,0.2-0.4,0.2-0.6
		c0-0.2-0.1-0.5-0.2-0.6C9.5,6.5,9.3,6.4,9,6.4S8.6,6.5,8.4,6.7C8.2,6.8,8.1,7,8.1,7.3H6.9C7,6.7,7.2,6.2,7.6,5.9
		C8,5.6,8.5,5.4,9.1,5.4s1.1,0.2,1.5,0.5c0.4,0.3,0.6,0.8,0.6,1.4c0,0.4-0.1,0.7-0.3,1c-0.1,0.2-0.2,0.3-0.3,0.3
		c-0.1,0.1-0.2,0.2-0.3,0.3S10,9,9.9,9.1C9.9,9.2,9.8,9.3,9.7,9.3C9.6,9.5,9.6,9.7,9.6,9.9V10.4z M9,12.6c-0.2,0-0.4-0.1-0.5-0.2
		c-0.2-0.1-0.2-0.3-0.2-0.5c0-0.2,0.1-0.4,0.2-0.5s0.3-0.2,0.5-0.2s0.4,0.1,0.5,0.2s0.2,0.3,0.2,0.5c0,0.2-0.1,0.4-0.2,0.5
		C9.4,12.5,9.2,12.6,9,12.6z"/>
</g>
</svg>
