<svg fill="none" height="50" viewBox="0 0 50 50" width="50" xmlns="http://www.w3.org/2000/svg"><path d="m39.82065 27.704149c-3.523245 0-6.467318 2.63754-6.901697 6.145977v.04837h-3.282034v-6.387847h.02419c1.351349-.387157 2.292504-1.621189 2.292504-3.000509 0-.387157-.07239-.774314-.21719-1.161307-.144793-.387157 2.75107-2.782661 2.75107-2.782661h.02419c1.351349 1.040372 2.968261 1.572816 4.681591 1.572816 2.075314 0 4.054209-.822689 5.526328-2.298756l.554979-.556463-4.753987-4.766821 2.075313-2.080909-1.110135-1.113096-2.075314 2.080907-5.188367-5.2021869-.55515.556466c-1.471955 1.4760679-2.292504 3.4358759-2.292504 5.5411359 0 1.911434.675756 3.726284 1.930521 5.153814h.02419l-2.558066 2.613187h-.02403c-.55515-.459718-1.206719-.677402-1.882311-.677402-1.713495 0-3.113053 1.403343-3.113053 3.12128 0 1.403507.941156 2.63754 2.292503 3.000509h.02419v6.412034h-3.451014v-3.823033c0-1.306594-1.061762-2.395505-2.389087-2.395505h-3.306056c-1.061762 0-1.93052-.871062-1.93052-1.935785v-4.597348c0-1.306593-1.061926-2.395504-2.389088-2.395504h-3.330239c-1.303138 0-2.389087 1.064724-2.389087 2.395504v6.654069h-.04837c-1.6167474.266222-3.0888497 1.088911-4.1506772 2.34713-1.0859488 1.25822-1.6892427 2.87941-1.6892427 4.524787 0 3.84722 3.1130531 6.968664 6.9500559 6.968664 3.523246 0 6.467483-2.637374 6.901862-6.145976v-.04838h16.047854v.04838c.410193 3.508602 3.378453 6.145976 6.901862 6.145976 3.83702 0 6.950073-3.121444 6.950073-6.968664 0-3.847221-3.113053-6.968665-6.950073-6.968665zm-5.598559-17.228082v-.04837l.07239.04837 8.7358 8.759328h-.04821c-1.085949.871063-2.413275 1.330781-3.812996 1.330781-1.665122 0-3.233659-.653379-4.440215-1.839038-2.220263-2.22603-2.437452-5.758819-.555141-8.251071zm-24.228833 29.592596c-2.9682598 0-5.3814189-2.419691-5.3814189-5.395849 0-2.976157 2.4131591-5.395849 5.3814189-5.395849 2.968261 0 5.381535 2.419692 5.381535 5.395849 0 2.976158-2.413274 5.395849-5.381535 5.395849zm13.103781-6.170163h-6.201918v-.04837c-.386169-3.290757-3.064844-5.855571-6.346713-6.121793h-.04837v-6.605695c0-.459718.361984-.822688.82055-.822688h3.330243c.458567 0 .820549.36297.820549.822688v4.597347c0 1.935787 1.568539 3.484415 3.475036 3.484415h3.306055c.458567 0 .82055.362971.82055.822689v3.823033zm4.488589-9.388356c0-.701589.579173-1.282407 1.279115-1.282407.699779 0 1.278952.580818 1.278952 1.282407 0 .701753-.579173 1.282406-1.278952 1.282406-.699942 0-1.279115-.580653-1.279115-1.282406zm12.235022 15.582707c-2.968259 0-5.381369-2.419692-5.381369-5.395849 0-2.976158 2.41311-5.395849 5.381369-5.395849 2.968261 0 5.381534 2.419691 5.381534 5.395849 0 2.976157-2.413273 5.395849-5.381534 5.395849z" fill="#fff" stroke-width="2.777953"/></svg>