<?xml version="1.0" encoding="utf-8"?>
<!-- Generator: Adobe Illustrator 24.2.1, SVG Export Plug-In . SVG Version: 6.00 Build 0)  -->
<svg version="1.1" id="Layer_1" xmlns="http://www.w3.org/2000/svg" xmlns:xlink="http://www.w3.org/1999/xlink" x="0px" y="0px"
	 viewBox="0 0 18.9 16.9" style="enable-background:new 0 0 18.9 16.9;" xml:space="preserve">
<style type="text/css">
	.st0{fill:none;stroke:#FFFFFF;stroke-linecap:round;stroke-miterlimit:10;}
	.st1{fill:none;stroke:#FFFFFF;stroke-linecap:round;stroke-linejoin:round;}
	.st2{fill:none;stroke:#FFFFFF;stroke-miterlimit:10;}
</style>
<g>
	<path id="Rectangle_364" class="st0" d="M6.4,3.3h6.2l0,0v4c0,1.7-1.4,3.1-3.1,3.1l0,0c-1.7,0-3.1-1.4-3.1-3.1V3.3L6.4,3.3z"/>
	<path id="Path_241" class="st1" d="M12.5,7.9L12.5,7.9V4.7h3.2l-0.4,1.2C14.9,7.1,13.8,7.9,12.5,7.9z"/>
	<path id="Path_242" class="st1" d="M6.4,7.9L6.4,7.9V4.7H3.1l0.4,1.2C4,7.1,5.1,7.9,6.4,7.9z"/>
	<line id="Line_504" class="st0" x1="6.4" y1="13.6" x2="12.5" y2="13.6"/>
	<line id="Line_505" class="st2" x1="9.4" y1="10.5" x2="9.4" y2="13.6"/>
</g>
</svg>
