<?xml version="1.0" encoding="utf-8"?>
<!-- Generator: Adobe Illustrator 26.3.1, SVG Export Plug-In . SVG Version: 6.00 Build 0)  -->
<svg version="1.1" id="Layer_1" xmlns="http://www.w3.org/2000/svg" xmlns:xlink="http://www.w3.org/1999/xlink" x="0px" y="0px"
	 viewBox="0 0 180 200" style="enable-background:new 0 0 180 200;" xml:space="preserve">
<style type="text/css">
	.st0{fill:#42239B;}
	.st1{fill:#FFFCFF;}
	.st2{fill:#6C52DD;}
</style>
<g>
	<g>
		<path class="st0" d="M176.1,139.6V60.4c0-6.2-3.3-12-8.7-15.1L98.8,5.7c-5.4-3.1-12.1-3.1-17.5,0L12.6,45.3
			c-5.4,3.1-8.7,8.9-8.7,15.1v79.2c0,6.2,3.3,12,8.7,15.1l68.6,39.6c5.4,3.1,12.1,3.1,17.5,0l68.6-39.6
			C172.8,151.6,176.1,145.8,176.1,139.6z"/>
		<ellipse class="st1" cx="69.1" cy="76" rx="5.4" ry="5.4"/>
		<circle class="st2" cx="149.4" cy="138.5" r="3.5"/>
		<circle class="st2" cx="89.9" cy="162.6" r="3.5"/>
		<g>
			<circle class="st2" cx="111.5" cy="40.9" r="3.5"/>
			<circle class="st2" cx="67.5" cy="40.9" r="3.5"/>
		</g>
		<circle class="st2" cx="149.4" cy="108.9" r="5.4"/>
		<circle class="st1" cx="118.4" cy="145.2" r="5.4"/>
		<circle class="st1" cx="54.7" cy="147" r="5.4"/>
		<circle class="st1" cx="54.7" cy="94.8" r="6.6"/>
		<circle class="st2" cx="89.9" cy="129.2" r="6.6"/>
		<circle class="st2" cx="89.9" cy="63.1" r="6.6"/>
		<ellipse class="st1" cx="118.3" cy="110.7" rx="6.6" ry="6.6"/>
		<ellipse class="st1" cx="39.9" cy="54.7" rx="6.6" ry="6.6"/>
		<rect x="117.1" y="68.2" class="st1" width="2.3" height="80.4"/>
		<rect x="53.5" y="93.2" class="st1" width="2.3" height="57.8"/>
		<polygon class="st1" points="40.8,54.1 40.3,53.7 38.9,55.6 118,111.8 118.5,112.2 119.9,110.3 		"/>
		<polygon class="st1" points="69.6,73.8 49.8,97.1 51.6,98.7 71,75.8 71.4,75.4 		"/>
		<circle class="st1" cx="118.4" cy="72.9" r="5.4"/>
		<circle class="st1" cx="132.4" cy="59.4" r="5.4"/>
		<circle class="st1" cx="148.6" cy="78.9" r="6.6"/>
		
			<rect x="115.6" y="66.3" transform="matrix(0.7073 -0.707 0.707 0.7073 -11.3888 107.3851)" class="st1" width="16.7" height="2.3"/>
		<polygon class="st1" points="117.6,71 117.2,73.4 147.8,78.1 148.1,75.8 		"/>
		<polygon class="st1" points="131.5,57 129.6,58.4 144.9,78.1 146.8,76.7 		"/>
		<circle class="st2" cx="29.6" cy="84" r="3.5"/>
		<circle class="st2" cx="29.6" cy="113.6" r="5.4"/>
	</g>
</g>
</svg>
