<?xml version="1.0" encoding="utf-8"?>
<!-- Generator: Adobe Illustrator 24.2.1, SVG Export Plug-In . SVG Version: 6.00 Build 0)  -->
<svg version="1.1" id="Layer_1" xmlns="http://www.w3.org/2000/svg" xmlns:xlink="http://www.w3.org/1999/xlink" x="0px" y="0px"
	 viewBox="0 0 15 15" style="enable-background:new 0 0 15 15;" xml:space="preserve">
<style type="text/css">
	.st0{fill:none;stroke:#7668ED;stroke-width:1.0451;stroke-linejoin:round;stroke-miterlimit:10;}
	.st1{fill:none;stroke:#7668ED;stroke-width:0.7838;stroke-linejoin:round;stroke-miterlimit:10;}
</style>
<g>
	<path class="st0" d="M14,8.4V6.6l-1.5-0.5C12.4,5.7,12.2,5.3,12,5l0.7-1.5l-1.2-1.2L10,3C9.7,2.8,9.3,2.7,8.9,2.6L8.4,1H6.6
		L6.1,2.6C5.7,2.7,5.3,2.8,5,3L3.5,2.3L2.3,3.5L3,5C2.8,5.3,2.6,5.7,2.5,6.1L1,6.6v1.7l1.5,0.5C2.6,9.3,2.8,9.7,3,10.1l-0.7,1.4
		l1.2,1.2L4.9,12c0.4,0.2,0.8,0.4,1.2,0.5L6.6,14h1.7l0.5-1.5c0.4-0.1,0.8-0.3,1.2-0.5l1.4,0.7l1.2-1.2L12,10.1
		c0.2-0.4,0.4-0.8,0.5-1.2L14,8.4z"/>
	<circle class="st1" cx="7.5" cy="7.5" r="1.8"/>
</g>
</svg>
