<?xml version="1.0" encoding="utf-8"?>
<!-- Generator: Adobe Illustrator 24.2.1, SVG Export Plug-In . SVG Version: 6.00 Build 0)  -->
<svg version="1.1" id="Layer_1" xmlns="http://www.w3.org/2000/svg" xmlns:xlink="http://www.w3.org/1999/xlink" x="0px" y="0px"
	 viewBox="0 0 18.9 16.9" style="enable-background:new 0 0 18.9 16.9;" xml:space="preserve">
<style type="text/css">
	.st0{fill:none;stroke:#FFFFFF;stroke-linecap:round;stroke-miterlimit:10;}
</style>
<g>
	<path id="Path_243" class="st0" d="M-43.1,197l-2.8-2.8l2.6-2.6"/>
	<line id="Line_506" class="st0" x1="-45.9" y1="194.2" x2="-38.1" y2="194.2"/>
	<path id="Path_244" class="st0" d="M-42.6,188.3h8c1.1,0,2,0.9,2,2v8c0,1.1-0.9,2-2,2h-8"/>
</g>
<g>
	<path id="Path_237-2" class="st0" d="M13.4,13.6H5.5v-0.3c0-2.2,1.8-4,4-4l0,0l0,0c2.2,0,4,1.8,4,4l0,0L13.4,13.6z M9.4,3.3
		c-1.4,0-2.5,1.1-2.5,2.5c0,0,0,0,0,0c0,1.4,1.1,2.5,2.5,2.5l0,0c1.4,0,2.5-1.1,2.5-2.5c0,0,0,0,0,0C12,4.4,10.8,3.3,9.4,3.3
		L9.4,3.3z"/>
</g>
</svg>
