<?xml version="1.0" encoding="utf-8"?>
<!-- Generator: Adobe Illustrator 24.0.0, SVG Export Plug-In . SVG Version: 6.00 Build 0)  -->
<!DOCTYPE svg PUBLIC "-//W3C//DTD SVG 1.1//EN" "http://www.w3.org/Graphics/SVG/1.1/DTD/svg11.dtd" [
	<!ENTITY ns_extend "http://ns.adobe.com/Extensibility/1.0/">
	<!ENTITY ns_ai "http://ns.adobe.com/AdobeIllustrator/10.0/">
	<!ENTITY ns_graphs "http://ns.adobe.com/Graphs/1.0/">
	<!ENTITY ns_vars "http://ns.adobe.com/Variables/1.0/">
	<!ENTITY ns_imrep "http://ns.adobe.com/ImageReplacement/1.0/">
	<!ENTITY ns_sfw "http://ns.adobe.com/SaveForWeb/1.0/">
	<!ENTITY ns_custom "http://ns.adobe.com/GenericCustomNamespace/1.0/">
	<!ENTITY ns_adobe_xpath "http://ns.adobe.com/XPath/1.0/">
]>
<svg version="1.1" id="Layer_1" xmlns:x="&ns_extend;" xmlns:i="&ns_ai;" xmlns:graph="&ns_graphs;"
	 xmlns="http://www.w3.org/2000/svg" xmlns:xlink="http://www.w3.org/1999/xlink" x="0px" y="0px" width="106px" height="126px"
	 viewBox="0 0 106 126" style="enable-background:new 0 0 106 126;" xml:space="preserve">
<style type="text/css">
	.st0{fill:url(#SVGID_1_);}
	.st1{enable-background:new    ;}
	.st2{fill:url(#SVGID_2_);}
	.st3{fill:#2A3363;}
	.st4{fill:url(#SVGID_3_);}
	.st5{fill:none;stroke:#10DAD3;stroke-width:2;stroke-linecap:round;stroke-miterlimit:10;}
	.st6{fill:none;stroke:#FC55F8;stroke-width:2;stroke-linecap:round;stroke-miterlimit:10;}
	.st7{fill:none;stroke:#756ED1;stroke-width:2;stroke-linecap:round;stroke-miterlimit:10;}
	.st8{fill:none;stroke:#FFA27D;stroke-width:2;stroke-linecap:round;stroke-miterlimit:10;}
	.st9{fill:none;stroke:#7C71D5;stroke-width:2;stroke-linecap:round;stroke-miterlimit:10;}
	.st10{fill:none;stroke:#FF797D;stroke-width:2;stroke-linecap:round;stroke-miterlimit:10;}
	.st11{fill:#7C71D5;}
</style>
<metadata>
	<sfw  xmlns="&ns_sfw;">
		<slices></slices>
		<sliceSourceBounds  bottomLeftOrigin="true" height="339.8" width="477.1" x="6945" y="-4178.8"></sliceSourceBounds>
	</sfw>
</metadata>
<linearGradient id="SVGID_1_" gradientUnits="userSpaceOnUse" x1="480.0518" y1="346.6755" x2="480.0518" y2="346.6755">
	<stop  offset="0" style="stop-color:#4C60B9"/>
	<stop  offset="0.1462" style="stop-color:#5563BF"/>
	<stop  offset="0.6923" style="stop-color:#746ED1"/>
	<stop  offset="1" style="stop-color:#7F72D8"/>
</linearGradient>
<path class="st0" d="M480.1,346.7"/>
<g>
	<g>
		<g class="st1">
			<g>
				<linearGradient id="SVGID_2_" gradientUnits="userSpaceOnUse" x1="3" y1="94.2215" x2="103" y2="94.2215">
					<stop  offset="0" style="stop-color:#4B5FB8"/>
					<stop  offset="1" style="stop-color:#8CE0EE"/>
				</linearGradient>
				<path class="st2" d="M88.2,73.7c19.6,11.3,19.7,29.6,0.2,41C69,126,37.4,126,17.8,114.7c-19.6-11.3-19.7-29.6-0.2-41
					C37,62.4,68.7,62.4,88.2,73.7z"/>
			</g>
		</g>
	</g>
	<g>
		<path class="st3" d="M20.8,16.6l64.3,36.6l-0.8,62.2L21.2,78.2L20.8,16.6z"/>
		<linearGradient id="SVGID_3_" gradientUnits="userSpaceOnUse" x1="20.7678" y1="30.019" x2="85.2322" y2="30.019">
			<stop  offset="0" style="stop-color:#FCFAFC"/>
			<stop  offset="0.3247" style="stop-color:#FAF7FA"/>
			<stop  offset="0.6032" style="stop-color:#F4ECF4"/>
			<stop  offset="0.864" style="stop-color:#EADAEB"/>
			<stop  offset="1" style="stop-color:#E3CEE4"/>
		</linearGradient>
		<path class="st4" d="M81.2,39.3c0.6,0.3,1.1,0.8,1.6,1.3c0.5,0.5,0.9,1.1,1.3,1.7c0.4,0.6,0.7,1.3,0.9,2c0.2,0.7,0.3,1.4,0.3,2
			l-0.1,6.8L20.8,16.6l0-6.7c0-0.6,0.1-1.2,0.3-1.6c0.2-0.4,0.5-0.8,0.8-1c0.4-0.2,0.8-0.3,1.3-0.3c0.5,0,1,0.2,1.5,0.5L81.2,39.3z"
			/>
		<line class="st5" x1="30.2" y1="56.1" x2="47.7" y2="66.2"/>
		<path class="st6" d="M38.4,53.1c0.1,0,0.2,0,0.3,0.1l17.6,10.2"/>
		<path class="st5" d="M29.8,32.3c0.1,0,0.2,0,0.3,0.1l26.3,15"/>
		<path class="st7" d="M30.2,63.9l4.7,2.7c0.1,0.1,0.2,0.1,0.3,0.2"/>
		<line class="st6" x1="30.2" y1="71.6" x2="51.9" y2="84.3"/>
		<line class="st8" x1="42.9" y1="71.3" x2="56.2" y2="79"/>
		<path class="st9" d="M59.8,89c0.1,0,0.2,0,0.3,0.1l9.1,5.3"/>
		<path class="st10" d="M38.4,45.2c0.1,0,0.2,0,0.3,0.1l9,5.2c0.1,0.1,0.2,0.1,0.3,0.2"/>
		<path class="st11" d="M32.9,16.7c0.2,0.1,0.4,0.3,0.6,0.4c0.2,0.2,0.3,0.4,0.5,0.6s0.2,0.5,0.3,0.7c0.1,0.2,0.1,0.5,0.1,0.7
			c0,0.2,0,0.4-0.1,0.6c-0.1,0.2-0.2,0.3-0.3,0.4c-0.1,0.1-0.3,0.1-0.5,0.1c-0.2,0-0.4-0.1-0.6-0.2c-0.2-0.1-0.4-0.3-0.6-0.4
			c-0.2-0.2-0.3-0.4-0.5-0.6c-0.1-0.2-0.2-0.5-0.3-0.7c-0.1-0.2-0.1-0.5-0.1-0.7c0-0.2,0-0.4,0.1-0.6c0.1-0.2,0.2-0.3,0.3-0.4
			c0.1-0.1,0.3-0.1,0.5-0.1C32.5,16.5,32.7,16.5,32.9,16.7z"/>
		<path class="st11" d="M27.2,13.4c0.2,0.1,0.4,0.3,0.6,0.4c0.2,0.2,0.3,0.4,0.5,0.6c0.1,0.2,0.2,0.5,0.3,0.7
			c0.1,0.2,0.1,0.5,0.1,0.7c0,0.2,0,0.4-0.1,0.6c-0.1,0.2-0.2,0.3-0.3,0.4c-0.1,0.1-0.3,0.1-0.5,0.1c-0.2,0-0.4-0.1-0.6-0.2
			c-0.2-0.1-0.4-0.3-0.6-0.4c-0.2-0.2-0.3-0.4-0.5-0.6c-0.1-0.2-0.2-0.5-0.3-0.7c-0.1-0.2-0.1-0.5-0.1-0.7c0-0.2,0-0.4,0.1-0.6
			c0.1-0.2,0.2-0.3,0.3-0.4c0.1-0.1,0.3-0.1,0.5-0.1C26.8,13.2,27,13.3,27.2,13.4z"/>
		<path class="st11" d="M38.7,19.9c0.2,0.1,0.4,0.3,0.6,0.4c0.2,0.2,0.3,0.4,0.5,0.6c0.1,0.2,0.2,0.5,0.3,0.7
			c0.1,0.2,0.1,0.5,0.1,0.7c0,0.2,0,0.4-0.1,0.6c-0.1,0.2-0.2,0.3-0.3,0.4c-0.1,0.1-0.3,0.1-0.5,0.1c-0.2,0-0.4-0.1-0.6-0.2
			c-0.2-0.1-0.4-0.3-0.6-0.4c-0.2-0.2-0.3-0.4-0.5-0.6c-0.1-0.2-0.2-0.5-0.3-0.7c-0.1-0.2-0.1-0.5-0.1-0.7c0-0.2,0-0.4,0.1-0.6
			c0.1-0.2,0.2-0.3,0.3-0.4c0.1-0.1,0.3-0.1,0.5-0.1C38.3,19.7,38.5,19.8,38.7,19.9z"/>
		<path class="st8" d="M55.6,55.1c0.1,0,0.2,0,0.3,0.1l17.9,10.3"/>
	</g>
</g>
</svg>
