<?xml version="1.0" encoding="utf-8"?>
<!-- Generator: Adobe Illustrator 24.0.0, SVG Export Plug-In . SVG Version: 6.00 Build 0)  -->
<!DOCTYPE svg PUBLIC "-//W3C//DTD SVG 1.1//EN" "http://www.w3.org/Graphics/SVG/1.1/DTD/svg11.dtd" [
	<!ENTITY ns_extend "http://ns.adobe.com/Extensibility/1.0/">
	<!ENTITY ns_ai "http://ns.adobe.com/AdobeIllustrator/10.0/">
	<!ENTITY ns_graphs "http://ns.adobe.com/Graphs/1.0/">
	<!ENTITY ns_vars "http://ns.adobe.com/Variables/1.0/">
	<!ENTITY ns_imrep "http://ns.adobe.com/ImageReplacement/1.0/">
	<!ENTITY ns_sfw "http://ns.adobe.com/SaveForWeb/1.0/">
	<!ENTITY ns_custom "http://ns.adobe.com/GenericCustomNamespace/1.0/">
	<!ENTITY ns_adobe_xpath "http://ns.adobe.com/XPath/1.0/">
]>
<svg version="1.1" id="Layer_1" xmlns:x="&ns_extend;" xmlns:i="&ns_ai;" xmlns:graph="&ns_graphs;"
	 xmlns="http://www.w3.org/2000/svg" xmlns:xlink="http://www.w3.org/1999/xlink" x="0px" y="0px" width="285.6px" height="288.6px"
	 viewBox="0 0 285.6 288.6" style="enable-background:new 0 0 285.6 288.6;" xml:space="preserve">
<style type="text/css">
	.st0{enable-background:new    ;}
	.st1{fill:#7061EB;}
	.st2{fill:#AF9BFC;}
	.st3{fill:#5B56D6;}
</style>
<metadata>
	<sfw  xmlns="&ns_sfw;">
		<slices></slices>
		<sliceSourceBounds  bottomLeftOrigin="true" height="288.6" width="285.6" x="11.2" y="26.9"></sliceSourceBounds>
	</sfw>
</metadata>
<g>
	<g class="st0">
		<g>
			<polygon class="st1" points="83.5,148.7 120.9,140.1 98.5,168 87.7,190.5 62,189.7 			"/>
		</g>
		<g>
			<polygon class="st2" points="83.5,148.7 52.5,131 90.1,123.3 120.9,140.1 			"/>
		</g>
		<g>
			<polygon class="st3" points="62,189.7 31.6,171.1 52.5,131 83.5,148.7 			"/>
		</g>
	</g>
</g>
<polygon class="st1" points="202.2,275.2 190,253.7 190,288.6 "/>
<polygon class="st1" points="12.2,95 0,73.5 0,108.4 "/>
<polygon class="st1" points="163.9,103.5 144.1,103.5 144.1,92.4 "/>
<polygon class="st2" points="285.6,182.6 285.6,164.6 271.7,156.9 225.4,166.6 262.3,188 "/>
<polygon class="st1" points="262.3,188 223.9,219.2 285.6,188.6 285.6,182.6 "/>
<polygon class="st3" points="225.4,166.6 187.1,196.6 223.9,219.2 262.3,188 "/>
<polygon class="st1" points="199.8,34.9 258,39.8 270.5,0 259.2,0 "/>
<polygon class="st2" points="140.3,0 199.8,34.9 259.2,0 "/>
</svg>
