<?xml version="1.0" encoding="utf-8"?>
<!-- Generator: Adobe Illustrator 24.0.0, SVG Export Plug-In . SVG Version: 6.00 Build 0)  -->
<!DOCTYPE svg PUBLIC "-//W3C//DTD SVG 1.1//EN" "http://www.w3.org/Graphics/SVG/1.1/DTD/svg11.dtd" [
	<!ENTITY ns_extend "http://ns.adobe.com/Extensibility/1.0/">
	<!ENTITY ns_ai "http://ns.adobe.com/AdobeIllustrator/10.0/">
	<!ENTITY ns_graphs "http://ns.adobe.com/Graphs/1.0/">
	<!ENTITY ns_vars "http://ns.adobe.com/Variables/1.0/">
	<!ENTITY ns_imrep "http://ns.adobe.com/ImageReplacement/1.0/">
	<!ENTITY ns_sfw "http://ns.adobe.com/SaveForWeb/1.0/">
	<!ENTITY ns_custom "http://ns.adobe.com/GenericCustomNamespace/1.0/">
	<!ENTITY ns_adobe_xpath "http://ns.adobe.com/XPath/1.0/">
]>
<svg version="1.1" id="Layer_1" xmlns:x="&ns_extend;" xmlns:i="&ns_ai;" xmlns:graph="&ns_graphs;"
	 xmlns="http://www.w3.org/2000/svg" xmlns:xlink="http://www.w3.org/1999/xlink" x="0px" y="0px" width="106px" height="126px"
	 viewBox="0 0 106 126" style="enable-background:new 0 0 106 126;" xml:space="preserve">
<style type="text/css">
	.st0{fill:url(#SVGID_1_);}
	.st1{enable-background:new    ;}
	.st2{fill:url(#SVGID_2_);}
	.st3{fill:#2A3363;}
	.st4{fill:url(#SVGID_3_);}
	.st5{fill:url(#SVGID_4_);}
	.st6{fill:#FF797D;}
	.st7{fill:url(#SVGID_5_);}
	.st8{fill:url(#SVGID_6_);}
	.st9{fill:url(#SVGID_7_);}
	.st10{fill:url(#SVGID_8_);}
	.st11{fill-rule:evenodd;clip-rule:evenodd;fill:url(#SVGID_9_);}
</style>
<metadata>
	<sfw  xmlns="&ns_sfw;">
		<slices></slices>
		<sliceSourceBounds  bottomLeftOrigin="true" height="332.5" width="477.1" x="6945" y="-4178.8"></sliceSourceBounds>
	</sfw>
</metadata>
<linearGradient id="SVGID_1_" gradientUnits="userSpaceOnUse" x1="480.0518" y1="346.6755" x2="480.0518" y2="346.6755">
	<stop  offset="0" style="stop-color:#4C60B9"/>
	<stop  offset="0.1462" style="stop-color:#5563BF"/>
	<stop  offset="0.6923" style="stop-color:#746ED1"/>
	<stop  offset="1" style="stop-color:#7F72D8"/>
</linearGradient>
<path class="st0" d="M480.1,346.7"/>
<g>
	<g>
		<g class="st1">
			<g>
				<linearGradient id="SVGID_2_" gradientUnits="userSpaceOnUse" x1="3" y1="94.2215" x2="103" y2="94.2215">
					<stop  offset="0" style="stop-color:#4B5FB8"/>
					<stop  offset="1" style="stop-color:#8CE0EE"/>
				</linearGradient>
				<path class="st2" d="M88.2,73.7c19.6,11.3,19.7,29.6,0.2,41C69,126,37.4,126,17.8,114.7c-19.6-11.3-19.7-29.6-0.2-41
					C37,62.4,68.7,62.4,88.2,73.7z"/>
			</g>
		</g>
	</g>
	<g>
		<path class="st3" d="M79.3,31.8c0,0.1,0,0.2,0,0.3c0,0.1,0,0.2-0.1,0.3c0,0.1-0.1,0.2-0.1,0.3c0,0.1-0.1,0.2-0.1,0.3
			c0,0.1-0.1,0.2-0.2,0.3c0,0.1-0.1,0.2-0.1,0.2c-0.1,0.1-0.2,0.2-0.2,0.4c-0.1,0.1-0.1,0.1-0.2,0.2c-0.1,0.2-0.3,0.3-0.4,0.5
			c-0.1,0.1-0.1,0.1-0.2,0.2c-0.1,0.1-0.2,0.2-0.3,0.3c-0.1,0.1-0.2,0.2-0.3,0.2c-0.1,0.1-0.2,0.2-0.4,0.2c-0.1,0.1-0.3,0.2-0.4,0.3
			l-12.3,7.1c-0.3,0.2-0.6,0.3-1,0.5c-0.1,0-0.2,0.1-0.3,0.1c-0.3,0.1-0.5,0.2-0.8,0.3c-0.1,0-0.2,0.1-0.3,0.1
			c-0.2,0.1-0.4,0.1-0.5,0.2c-0.1,0-0.3,0.1-0.4,0.1c-0.2,0-0.4,0.1-0.6,0.1c-0.1,0-0.3,0.1-0.4,0.1c-0.4,0.1-0.8,0.1-1.2,0.2
			c-0.1,0-0.2,0-0.4,0c-0.2,0-0.5,0-0.7,0c-0.1,0-0.3,0-0.4,0c-0.2,0-0.4,0-0.6,0c-0.2,0-0.3,0-0.5,0c-0.2,0-0.4,0-0.5,0
			c-0.2,0-0.3,0-0.5,0c-0.2,0-0.3,0-0.5-0.1c-0.2,0-0.3,0-0.5-0.1c-0.2,0-0.4-0.1-0.5-0.1c-0.1,0-0.3-0.1-0.4-0.1
			c-0.2,0-0.4-0.1-0.6-0.2c-0.1,0-0.2-0.1-0.4-0.1c-0.4-0.1-0.8-0.2-1.1-0.4c0,0-0.1,0-0.1-0.1c-0.5-0.2-1-0.4-1.4-0.7L29.9,31.5
			c-2-1.2-3.1-2.7-3-4.3l-0.2,63.7c0,1.5,1,3.1,3,4.3l19.6,11.3c0.4,0.3,0.9,0.5,1.4,0.7c0,0,0.1,0,0.1,0c0,0,0,0,0.1,0
			c0.4,0.1,0.7,0.3,1.1,0.4c0,0,0.1,0,0.1,0c0.1,0,0.2,0,0.3,0.1c0.2,0.1,0.4,0.1,0.6,0.2c0.1,0,0.1,0,0.2,0c0.1,0,0.2,0,0.3,0
			c0.2,0,0.4,0.1,0.5,0.1c0.1,0,0.1,0,0.2,0c0.1,0,0.2,0,0.2,0c0.2,0,0.3,0,0.5,0.1c0.1,0,0.2,0,0.2,0c0.1,0,0.2,0,0.2,0
			c0.2,0,0.3,0,0.5,0c0.1,0,0.2,0,0.3,0c0.1,0,0.1,0,0.2,0c0.2,0,0.4,0,0.6,0c0.1,0,0.2,0,0.3,0c0.1,0,0.1,0,0.2,0
			c0.2,0,0.5,0,0.7,0c0.1,0,0.2,0,0.3,0c0,0,0.1,0,0.1,0c0.4,0,0.8-0.1,1.2-0.2c0,0,0,0,0.1,0c0.1,0,0.2,0,0.3-0.1
			c0.2,0,0.4-0.1,0.6-0.1c0.1,0,0.3-0.1,0.4-0.1c0.2,0,0.4-0.1,0.5-0.2c0,0,0.1,0,0.1,0c0.1,0,0.1,0,0.2-0.1
			c0.3-0.1,0.5-0.2,0.8-0.3c0.1,0,0.2-0.1,0.3-0.1c0.3-0.2,0.7-0.3,1-0.5l12.3-7.1c0,0,0.1,0,0.1-0.1c0.1-0.1,0.2-0.1,0.3-0.2
			c0.1-0.1,0.3-0.2,0.4-0.2c0.1-0.1,0.2-0.2,0.3-0.2c0.1-0.1,0.2-0.2,0.3-0.3c0,0,0,0,0.1-0.1c0,0,0.1-0.1,0.1-0.1
			c0.2-0.2,0.3-0.3,0.4-0.5c0,0,0.1-0.1,0.1-0.1c0,0,0-0.1,0.1-0.1c0.1-0.1,0.2-0.2,0.2-0.4c0-0.1,0.1-0.1,0.1-0.2c0,0,0-0.1,0-0.1
			c0.1-0.1,0.1-0.2,0.2-0.3c0-0.1,0.1-0.1,0.1-0.2c0,0,0,0,0-0.1c0-0.1,0.1-0.2,0.1-0.3c0-0.1,0-0.1,0.1-0.2c0,0,0,0,0-0.1
			c0-0.1,0-0.2,0-0.3c0-0.1,0-0.1,0-0.2c0,0,0-0.1,0-0.1l0.2-63.7C79.4,31.6,79.4,31.7,79.3,31.8z"/>
		<linearGradient id="SVGID_3_" gradientUnits="userSpaceOnUse" x1="26.8364" y1="40.1868" x2="79.3725" y2="40.1868">
			<stop  offset="0" style="stop-color:#FF797D"/>
			<stop  offset="0.2981" style="stop-color:#FF7E7D"/>
			<stop  offset="0.6476" style="stop-color:#FF8C7D"/>
			<stop  offset="1" style="stop-color:#FFA27D"/>
		</linearGradient>
		<path class="st4" d="M26.8,48.7c-0.1,1.6,0.9,3.2,3,4.4l19.6,11.3c4,2.3,10.6,2.3,14.6,0l12.3-7.1c2.1-1.2,3.1-2.9,3-4.5l0-21.3
			c0.1-1.6-1-3.2-3-4.4L56.7,15.9c-4-2.3-10.6-2.3-14.6,0L29.8,23c-2,1.2-3,2.7-3,4.2L26.8,48.7z"/>
		<g>
			<g>
				<linearGradient id="SVGID_4_" gradientUnits="userSpaceOnUse" x1="27.8359" y1="29.3507" x2="78.3721" y2="29.3507">
					<stop  offset="0" style="stop-color:#2A3363"/>
					<stop  offset="0.3864" style="stop-color:#2C3463"/>
					<stop  offset="0.5255" style="stop-color:#333664"/>
					<stop  offset="0.6248" style="stop-color:#3E3A66"/>
					<stop  offset="0.705" style="stop-color:#4F3F68"/>
					<stop  offset="0.7737" style="stop-color:#65476A"/>
					<stop  offset="0.8345" style="stop-color:#814F6E"/>
					<stop  offset="0.8896" style="stop-color:#A15A72"/>
					<stop  offset="0.9402" style="stop-color:#C76776"/>
					<stop  offset="0.9853" style="stop-color:#F0747B"/>
					<stop  offset="1" style="stop-color:#FF797D"/>
				</linearGradient>
				<path class="st5" d="M56.8,43.6c-2.6,0-5-0.6-6.8-1.6L30.4,30.6c-1.6-0.9-2.5-2.1-2.5-3.4c0-1.2,0.9-2.4,2.5-3.3l12.3-7.1
					c1.8-1,4.2-1.6,6.8-1.6c2.6,0,5,0.6,6.8,1.6l19.6,11.3c1.6,0.9,2.5,2.1,2.5,3.4c0,1.2-0.9,2.4-2.5,3.4l-12.3,7.1
					C61.8,43,59.4,43.6,56.8,43.6z"/>
				<path class="st6" d="M49.4,16.1L49.4,16.1c2.4,0,4.7,0.5,6.3,1.5l19.6,11.3c1.3,0.8,2,1.7,2,2.5c0,0.8-0.7,1.7-2,2.5l-12.3,7.1
					c-1.6,0.9-3.9,1.5-6.3,1.5c-2.4,0-4.7-0.5-6.3-1.5L30.9,29.8c-1.3-0.8-2-1.7-2-2.5c0-0.8,0.7-1.7,2-2.5l12.3-7.1
					C44.8,16.7,47,16.1,49.4,16.1 M49.4,14.1c-2.6,0-5.3,0.6-7.3,1.8L29.8,23c-4,2.3-4,6.1,0,8.5l19.6,11.3c2,1.2,4.7,1.8,7.3,1.8
					c2.6,0,5.3-0.6,7.3-1.8l12.3-7.1c4-2.3,4-6.1,0-8.5L56.7,15.9C54.7,14.7,52.1,14.1,49.4,14.1L49.4,14.1z"/>
			</g>
		</g>
		<g>
			<g class="st1">
				<g>
					<linearGradient id="SVGID_5_" gradientUnits="userSpaceOnUse" x1="60.3712" y1="35.525" x2="60.3712" y2="26.3376">
						<stop  offset="0" style="stop-color:#FF797D"/>
						<stop  offset="1.965255e-02" style="stop-color:#FF7D7D"/>
						<stop  offset="0.1306" style="stop-color:#FF8E7D"/>
						<stop  offset="0.2683" style="stop-color:#FF997D"/>
						<stop  offset="0.4621" style="stop-color:#FFA07D"/>
						<stop  offset="1" style="stop-color:#FFA27D"/>
					</linearGradient>
					<path class="st7" d="M65.9,26.4l0,6c0,0.8-0.5,1.6-1.6,2.2c-2.1,1.2-5.6,1.2-7.8,0c-1.1-0.6-1.6-1.4-1.6-2.3l0-6
						c0,0.8,0.5,1.6,1.6,2.3c2.1,1.2,5.6,1.2,7.8,0C65.3,28,65.9,27.2,65.9,26.4z"/>
				</g>
				<g>
					<linearGradient id="SVGID_6_" gradientUnits="userSpaceOnUse" x1="60.3847" y1="29.5312" x2="60.3847" y2="23.1752">
						<stop  offset="0" style="stop-color:#FF797D"/>
						<stop  offset="0.2981" style="stop-color:#FF7E7D"/>
						<stop  offset="0.6476" style="stop-color:#FF8C7D"/>
						<stop  offset="1" style="stop-color:#FFA27D"/>
					</linearGradient>
					<path class="st8" d="M64.3,24.1c2.1,1.2,2.2,3.3,0,4.5c-2.1,1.2-5.6,1.2-7.8,0c-2.1-1.2-2.2-3.3,0-4.5
						C58.6,22.9,62.1,22.9,64.3,24.1z"/>
				</g>
			</g>
		</g>
		<g>
			<g class="st1">
				<g>
					<linearGradient id="SVGID_7_" gradientUnits="userSpaceOnUse" x1="45.608" y1="26.7636" x2="45.608" y2="17.5762">
						<stop  offset="0" style="stop-color:#FF797D"/>
						<stop  offset="1.965255e-02" style="stop-color:#FF7D7D"/>
						<stop  offset="0.1306" style="stop-color:#FF8E7D"/>
						<stop  offset="0.2683" style="stop-color:#FF997D"/>
						<stop  offset="0.4621" style="stop-color:#FFA07D"/>
						<stop  offset="1" style="stop-color:#FFA27D"/>
					</linearGradient>
					<path class="st9" d="M51.1,17.6l0,6c0,0.8-0.5,1.6-1.6,2.2c-2.1,1.2-5.6,1.2-7.8,0c-1.1-0.6-1.6-1.4-1.6-2.3l0-6
						c0,0.8,0.5,1.6,1.6,2.3c2.1,1.2,5.6,1.2,7.8,0C50.6,19.2,51.1,18.4,51.1,17.6z"/>
				</g>
				<g>
					<linearGradient id="SVGID_8_" gradientUnits="userSpaceOnUse" x1="45.6214" y1="20.7699" x2="45.6214" y2="14.4139">
						<stop  offset="0" style="stop-color:#FF797D"/>
						<stop  offset="0.2981" style="stop-color:#FF7E7D"/>
						<stop  offset="0.6476" style="stop-color:#FF8C7D"/>
						<stop  offset="1" style="stop-color:#FFA27D"/>
					</linearGradient>
					<path class="st10" d="M49.5,15.3c2.1,1.2,2.2,3.3,0,4.5c-2.1,1.2-5.6,1.2-7.8,0s-2.2-3.3,0-4.5C43.9,14.1,47.3,14.1,49.5,15.3z
						"/>
				</g>
			</g>
		</g>
		<linearGradient id="SVGID_9_" gradientUnits="userSpaceOnUse" x1="33.2341" y1="79.2219" x2="49.2341" y2="79.2219">
			<stop  offset="0" style="stop-color:#FF797D"/>
			<stop  offset="0.2981" style="stop-color:#FF7E7D"/>
			<stop  offset="0.6476" style="stop-color:#FF8C7D"/>
			<stop  offset="1" style="stop-color:#FFA27D"/>
		</linearGradient>
		<path class="st11" d="M38.9,80c-0.6-0.3-0.9-1.3-1.1-1.9c0.1,0.1,0.3,0.2,0.4,0.3c0.3,0.2,0.6,0.5,0.9,0.9
			C39.5,79.8,39.2,80.1,38.9,80 M43.5,82.6c0.6,0.4,0.9-0.2,1.1-0.6c-0.1-0.1-0.3-0.2-0.4-0.2c-0.3-0.2-0.6-0.2-0.9-0.1
			C43,81.9,43.3,82.5,43.5,82.6z M41.2,90.1L41.2,90.1L41.2,90.1c0.7-0.5,0.9-2.1,0-3.5C40.4,87,40.5,88.8,41.2,90.1z M41.2,66.3
			L41.2,66.3L41.2,66.3c0.9,1.2,1.6,2.2,2.2,3.4c2,4,3.3,9.2,2.9,12.3c1,1,1.7,2.1,2.2,3.2l0,0c0.8,1.8,1.1,4.8,0,5.5
			c-1.5-1.6-3.6-3.5-5.7-4.1l-0.4-0.1c1.1,2.2,1.1,4.2,0.1,5.1c-0.4,0.4-0.8,0.4-1.3,0.6c-0.5-0.8-0.9-1.3-1.3-2.1
			c-1-2.1-1-4.1,0.1-5l-0.4-0.4c-2.1-1.8-4.2-2.4-5.7-2.4c-1.1-2.1-0.8-4.6,0-5.5l0,0c0.5-0.6,1.2-0.8,2.2-0.7
			c-0.4-3.6,0.9-7.3,2.9-8.9C39.7,66.6,40.3,66.4,41.2,66.3z M47.7,88.3c0.2-0.9,0-2-0.4-3.1c-0.3-0.7-0.7-1.3-1.3-1.9
			c-0.1,0.4-0.3,0.7-0.5,0.9c-0.7,0.7-2.2,0.2-3.1-1.2c-1.3-2.1-0.4-3.9,2.3-2.3l0.3,0.2c0.3-3.1-1.2-8.9-3.7-12.6
			c-2.5,0.8-4,4.9-3.7,8.4l0.3,0.2c2.6,1.4,3.6,4.4,2.3,5c-0.9,0.4-2.5-0.9-3.1-2.4c-0.2-0.5-0.4-1-0.5-1.5c-0.5,0-1,0.2-1.3,0.5
			c-0.5,0.5-0.6,1.5-0.4,2.6c2.3,0.5,4.2,1.6,6.5,3.9C43.5,85,45.4,86.1,47.7,88.3z"/>
	</g>
</g>
</svg>
