<?xml version="1.0" encoding="utf-8"?>
<!-- Generator: Adobe Illustrator 24.0.0, SVG Export Plug-In . SVG Version: 6.00 Build 0)  -->
<!DOCTYPE svg PUBLIC "-//W3C//DTD SVG 1.1//EN" "http://www.w3.org/Graphics/SVG/1.1/DTD/svg11.dtd" [
	<!ENTITY ns_extend "http://ns.adobe.com/Extensibility/1.0/">
	<!ENTITY ns_ai "http://ns.adobe.com/AdobeIllustrator/10.0/">
	<!ENTITY ns_graphs "http://ns.adobe.com/Graphs/1.0/">
	<!ENTITY ns_vars "http://ns.adobe.com/Variables/1.0/">
	<!ENTITY ns_imrep "http://ns.adobe.com/ImageReplacement/1.0/">
	<!ENTITY ns_sfw "http://ns.adobe.com/SaveForWeb/1.0/">
	<!ENTITY ns_custom "http://ns.adobe.com/GenericCustomNamespace/1.0/">
	<!ENTITY ns_adobe_xpath "http://ns.adobe.com/XPath/1.0/">
]>
<svg version="1.1" id="Layer_1" xmlns:x="&ns_extend;" xmlns:i="&ns_ai;" xmlns:graph="&ns_graphs;"
	 xmlns="http://www.w3.org/2000/svg" xmlns:xlink="http://www.w3.org/1999/xlink" x="0px" y="0px" width="116px" height="113px"
	 viewBox="0 0 116 113" style="enable-background:new 0 0 116 113;" xml:space="preserve">
<style type="text/css">
	.st0{fill:#333564;enable-background:new    ;}
</style>
<metadata>
	<sfw  xmlns="&ns_sfw;">
		<slices></slices>
		<sliceSourceBounds  bottomLeftOrigin="true" height="102.9" width="114" x="1" y="5.1"></sliceSourceBounds>
	</sfw>
</metadata>
<path id="Path_66" class="st0" d="M111.9,5.1c-0.2,0-0.4-0.1-0.6,0L4.7,5C2.7,5,1,6.6,1,8.6l0,0C1,8.8,1,9,1,9.2l15.5,94.5
	c0.4,2.4,2.4,4.1,4.9,4.2h74.4c1.8,0,3.4-1.3,3.7-3.1L115,9.3C115.3,7.3,113.9,5.4,111.9,5.1z M70,73.3H46.2l-6.4-33.7h35.9L70,73.3
	z"/>
</svg>
