<?xml version="1.0" encoding="utf-8"?>
<!-- Generator: Adobe Illustrator 24.0.0, SVG Export Plug-In . SVG Version: 6.00 Build 0)  -->
<!DOCTYPE svg PUBLIC "-//W3C//DTD SVG 1.1//EN" "http://www.w3.org/Graphics/SVG/1.1/DTD/svg11.dtd" [
	<!ENTITY ns_extend "http://ns.adobe.com/Extensibility/1.0/">
	<!ENTITY ns_ai "http://ns.adobe.com/AdobeIllustrator/10.0/">
	<!ENTITY ns_graphs "http://ns.adobe.com/Graphs/1.0/">
	<!ENTITY ns_vars "http://ns.adobe.com/Variables/1.0/">
	<!ENTITY ns_imrep "http://ns.adobe.com/ImageReplacement/1.0/">
	<!ENTITY ns_sfw "http://ns.adobe.com/SaveForWeb/1.0/">
	<!ENTITY ns_custom "http://ns.adobe.com/GenericCustomNamespace/1.0/">
	<!ENTITY ns_adobe_xpath "http://ns.adobe.com/XPath/1.0/">
]>
<svg version="1.1" id="Layer_1" xmlns:x="&ns_extend;" xmlns:i="&ns_ai;" xmlns:graph="&ns_graphs;"
	 xmlns="http://www.w3.org/2000/svg" xmlns:xlink="http://www.w3.org/1999/xlink" x="0px" y="0px" width="106px" height="126px"
	 viewBox="0 0 106 126" style="enable-background:new 0 0 106 126;" xml:space="preserve">
<style type="text/css">
	.st0{fill:url(#SVGID_1_);}
	.st1{enable-background:new    ;}
	.st2{fill:url(#SVGID_2_);}
	.st3{fill:#2A3363;}
	.st4{fill:url(#SVGID_3_);}
	.st5{fill:none;stroke:#2A3363;stroke-linecap:round;stroke-miterlimit:10;}
	.st6{fill:#10DAD3;}
	.st7{fill:none;stroke:#FC55F8;stroke-width:2;stroke-linecap:round;stroke-miterlimit:10;stroke-dasharray:1,4;}
</style>
<metadata>
	<sfw  xmlns="&ns_sfw;">
		<slices></slices>
		<sliceSourceBounds  bottomLeftOrigin="true" height="329.4" width="477.1" x="6945" y="-4178.8"></sliceSourceBounds>
	</sfw>
</metadata>
<linearGradient id="SVGID_1_" gradientUnits="userSpaceOnUse" x1="480.0518" y1="346.6755" x2="480.0518" y2="346.6755">
	<stop  offset="0" style="stop-color:#4C60B9"/>
	<stop  offset="0.1462" style="stop-color:#5563BF"/>
	<stop  offset="0.6923" style="stop-color:#746ED1"/>
	<stop  offset="1" style="stop-color:#7F72D8"/>
</linearGradient>
<path class="st0" d="M480.1,346.7"/>
<g>
	<g>
		<g class="st1">
			<g>
				<linearGradient id="SVGID_2_" gradientUnits="userSpaceOnUse" x1="3" y1="94.2215" x2="103" y2="94.2215">
					<stop  offset="0" style="stop-color:#4B5FB8"/>
					<stop  offset="1" style="stop-color:#8CE0EE"/>
				</linearGradient>
				<path class="st2" d="M88.2,73.7c19.6,11.3,19.7,29.6,0.2,41C69,126,37.4,126,17.8,114.7c-19.6-11.3-19.7-29.6-0.2-41
					C37,62.4,68.7,62.4,88.2,73.7z"/>
			</g>
		</g>
	</g>
	<g>
		<g>
			<g>
				<g class="st1">
					<path class="st3" d="M87.2,71.3L61.5,56.5c-1.8-1-3.4-1.1-4.5-0.4L18,78.6c1.2-0.7,2.8-0.6,4.5,0.4l25.7,14.8
						c3.5,2,6.4,7,6.4,11c0,2-0.7,3.4-1.9,4.1l38.9-22.6c1.1-0.7,1.9-2.1,1.9-4.1C93.5,78.2,90.7,73.3,87.2,71.3z"/>
					<g>
						<linearGradient id="SVGID_3_" gradientUnits="userSpaceOnUse" x1="16.1664" y1="93.8341" x2="54.5893" y2="93.8341">
							<stop  offset="0" style="stop-color:#FF797D"/>
							<stop  offset="0.2981" style="stop-color:#FF7E7D"/>
							<stop  offset="0.6476" style="stop-color:#FF8C7D"/>
							<stop  offset="1" style="stop-color:#FFA27D"/>
						</linearGradient>
						<path class="st4" d="M48.2,93.9c3.5,2,6.4,7,6.4,11c0,4.1-2.9,5.7-6.4,3.7L22.5,93.8c-3.5-2-6.4-7-6.4-11c0-4,2.9-5.7,6.4-3.7
							L48.2,93.9z"/>
					</g>
				</g>
			</g>
			<g>
				<ellipse transform="matrix(0.8646 -0.5025 0.5025 0.8646 -43.9262 35.83)" class="st3" cx="44.5" cy="99.4" rx="2.4" ry="4.2"/>
			</g>
			<line class="st5" x1="21.8" y1="85.5" x2="37.8" y2="94.8"/>
			<line class="st5" x1="22.8" y1="89.8" x2="30.8" y2="94.5"/>
		</g>
		<g>
			<g>
				<g class="st1">
					<path class="st3" d="M74.8,33L49.1,18.2c-1.8-1-3.4-1.1-4.5-0.4L5.6,40.4c1.2-0.7,2.8-0.6,4.5,0.4l25.7,14.8
						c3.5,2,6.4,7,6.4,11c0,2-0.7,3.4-1.9,4.1l38.9-22.6c1.1-0.7,1.9-2.1,1.9-4.1C81.1,40,78.3,35,74.8,33z"/>
					<g>
						<path class="st6" d="M35.8,55.6c3.5,2,6.4,7,6.4,11c0,4.1-2.9,5.7-6.4,3.7L10.1,55.5c-3.5-2-6.4-7-6.4-11c0-4,2.9-5.7,6.4-3.7
							L35.8,55.6z"/>
					</g>
				</g>
			</g>
			<g>
				
					<ellipse transform="matrix(0.8646 -0.5025 0.5025 0.8646 -26.3726 24.4187)" class="st3" cx="32.1" cy="61.1" rx="2.4" ry="4.2"/>
			</g>
			<line class="st5" x1="9.4" y1="47.3" x2="25.4" y2="56.5"/>
			<line class="st5" x1="10.4" y1="51.6" x2="18.4" y2="56.2"/>
		</g>
		<g>
			<path class="st7" d="M51.8,79.5l0-5.1c0-2,2.2-3.3,4-2.3l20.5,11.9c2.9,1.7,6.5-0.4,6.5-3.7l0.1-18.1c0-1.6-0.8-3-2.2-3.8
				l-8.5-4.9c-2.2-1.3-3.6-3.7-3.6-6.2l0-18.6c0-1.1-0.6-2.1-1.5-2.6L58.6,21c-2-1.2-4.5,0.3-4.5,2.6l0,9.8"/>
		</g>
	</g>
</g>
</svg>
