<?xml version="1.0" encoding="utf-8"?>
<!-- Generator: Adobe Illustrator 24.0.0, SVG Export Plug-In . SVG Version: 6.00 Build 0)  -->
<!DOCTYPE svg PUBLIC "-//W3C//DTD SVG 1.1//EN" "http://www.w3.org/Graphics/SVG/1.1/DTD/svg11.dtd" [
	<!ENTITY ns_extend "http://ns.adobe.com/Extensibility/1.0/">
	<!ENTITY ns_ai "http://ns.adobe.com/AdobeIllustrator/10.0/">
	<!ENTITY ns_graphs "http://ns.adobe.com/Graphs/1.0/">
	<!ENTITY ns_vars "http://ns.adobe.com/Variables/1.0/">
	<!ENTITY ns_imrep "http://ns.adobe.com/ImageReplacement/1.0/">
	<!ENTITY ns_sfw "http://ns.adobe.com/SaveForWeb/1.0/">
	<!ENTITY ns_custom "http://ns.adobe.com/GenericCustomNamespace/1.0/">
	<!ENTITY ns_adobe_xpath "http://ns.adobe.com/XPath/1.0/">
]>
<svg version="1.1" id="Layer_1" xmlns:x="&ns_extend;" xmlns:i="&ns_ai;" xmlns:graph="&ns_graphs;"
	 xmlns="http://www.w3.org/2000/svg" xmlns:xlink="http://www.w3.org/1999/xlink" x="0px" y="0px" width="19px" height="19px"
	 viewBox="0 0 19 19" style="enable-background:new 0 0 19 19;" xml:space="preserve">
<style type="text/css">
	.st0{fill:#B0AACC;}
	.st1{fill:#FFFFFF;}
</style>
<metadata>
	<sfw  xmlns="&ns_sfw;">
		<slices></slices>
		<sliceSourceBounds  bottomLeftOrigin="true" height="18" width="18" x="674.6" y="-392.7"></sliceSourceBounds>
	</sfw>
</metadata>
<circle id="Ellipse_2_1_" class="st0" cx="9.6" cy="9.5" r="9"/>
<path id="Path_129" class="st1" d="M12.3,11.1v0.2C12.2,12,12,12,11.7,12c-0.1,0-0.2,0-0.5-0.3c-0.3-0.5-0.4-1-0.5-1.5l-0.5-2
	L9.6,5.4C9.6,4.9,9.4,4.5,9,4.2C8.8,4,8.5,3.9,8.1,3.9C7.6,3.9,7.2,4.1,7,4.6C6.7,5.1,6.6,5.6,6.6,6.2v0.3h0.8V6.2
	c0-0.3,0.1-0.5,0.2-0.7c0.1-0.1,0.3-0.2,0.5-0.2c0.1,0,0.2,0,0.5,0.3C8.8,6.1,9,6.6,9,7.1l-2.9,6.2H8l1.6-3.4l0.3,1.5
	c0.2,0.9,0.5,1.5,0.8,1.7c0.3,0.2,0.6,0.3,0.9,0.3c0.4,0,0.8-0.2,1-0.6c0.3-0.5,0.4-1.1,0.3-1.6v-0.2H12.3z"/>
</svg>
