<?xml version="1.0" encoding="utf-8"?>
<!-- Generator: Adobe Illustrator 24.0.0, SVG Export Plug-In . SVG Version: 6.00 Build 0)  -->
<!DOCTYPE svg PUBLIC "-//W3C//DTD SVG 1.1//EN" "http://www.w3.org/Graphics/SVG/1.1/DTD/svg11.dtd" [
	<!ENTITY ns_extend "http://ns.adobe.com/Extensibility/1.0/">
	<!ENTITY ns_ai "http://ns.adobe.com/AdobeIllustrator/10.0/">
	<!ENTITY ns_graphs "http://ns.adobe.com/Graphs/1.0/">
	<!ENTITY ns_vars "http://ns.adobe.com/Variables/1.0/">
	<!ENTITY ns_imrep "http://ns.adobe.com/ImageReplacement/1.0/">
	<!ENTITY ns_sfw "http://ns.adobe.com/SaveForWeb/1.0/">
	<!ENTITY ns_custom "http://ns.adobe.com/GenericCustomNamespace/1.0/">
	<!ENTITY ns_adobe_xpath "http://ns.adobe.com/XPath/1.0/">
]>
<svg version="1.1" id="Layer_1" xmlns:x="&ns_extend;" xmlns:i="&ns_ai;" xmlns:graph="&ns_graphs;"
	 xmlns="http://www.w3.org/2000/svg" xmlns:xlink="http://www.w3.org/1999/xlink" x="0px" y="0px" width="106px" height="126px"
	 viewBox="0 0 106 126" style="enable-background:new 0 0 106 126;" xml:space="preserve">
<style type="text/css">
	.st0{fill:url(#SVGID_1_);}
	.st1{enable-background:new    ;}
	.st2{fill:url(#SVGID_2_);}
	.st3{fill:#2A3363;}
	.st4{fill:url(#SVGID_3_);}
	.st5{fill:#7C71D5;}
	.st6{fill:url(#SVGID_4_);}
	.st7{fill:url(#SVGID_5_);}
	.st8{fill:url(#SVGID_6_);}
	.st9{fill:url(#SVGID_7_);}
	.st10{fill:#10DAD3;}
	.st11{fill:#89DFEE;}
	.st12{fill:#FF797D;}
	.st13{fill:#FC55F8;}
</style>
<metadata>
	<sfw  xmlns="&ns_sfw;">
		<slices></slices>
		<sliceSourceBounds  bottomLeftOrigin="true" height="343.9" width="477.1" x="6945" y="-4178.8"></sliceSourceBounds>
	</sfw>
</metadata>
<linearGradient id="SVGID_1_" gradientUnits="userSpaceOnUse" x1="480.0518" y1="346.6755" x2="480.0518" y2="346.6755">
	<stop  offset="0" style="stop-color:#4C60B9"/>
	<stop  offset="0.1462" style="stop-color:#5563BF"/>
	<stop  offset="0.6923" style="stop-color:#746ED1"/>
	<stop  offset="1" style="stop-color:#7F72D8"/>
</linearGradient>
<path class="st0" d="M480.1,346.7"/>
<g>
	<g>
		<g class="st1">
			<g>
				<linearGradient id="SVGID_2_" gradientUnits="userSpaceOnUse" x1="3" y1="94.2215" x2="103" y2="94.2215">
					<stop  offset="0" style="stop-color:#4B5FB8"/>
					<stop  offset="1" style="stop-color:#8CE0EE"/>
				</linearGradient>
				<path class="st2" d="M88.2,73.7c19.6,11.3,19.7,29.6,0.2,41C69,126,37.4,126,17.8,114.7c-19.6-11.3-19.7-29.6-0.2-41
					C37,62.4,68.7,62.4,88.2,73.7z"/>
			</g>
		</g>
	</g>
	<g>
		<g>
			<path class="st3" d="M20.8,12.5l64.3,36.6l-0.8,62.2L21.2,74.1L20.8,12.5z"/>
			<linearGradient id="SVGID_3_" gradientUnits="userSpaceOnUse" x1="20.7678" y1="25.9432" x2="85.2322" y2="25.9432">
				<stop  offset="0" style="stop-color:#FCFAFC"/>
				<stop  offset="0.3247" style="stop-color:#FAF7FA"/>
				<stop  offset="0.6032" style="stop-color:#F4ECF4"/>
				<stop  offset="0.864" style="stop-color:#EADAEB"/>
				<stop  offset="1" style="stop-color:#E3CEE4"/>
			</linearGradient>
			<path class="st4" d="M81.2,35.2c0.6,0.3,1.1,0.8,1.6,1.3c0.5,0.5,0.9,1.1,1.3,1.7c0.4,0.6,0.7,1.3,0.9,2c0.2,0.7,0.3,1.4,0.3,2
				l-0.1,6.8L20.8,12.5l0-6.7c0-0.6,0.1-1.2,0.3-1.6c0.2-0.4,0.5-0.8,0.8-1c0.4-0.2,0.8-0.3,1.3-0.3c0.5,0,1,0.2,1.5,0.5L81.2,35.2z
				"/>
			<path class="st5" d="M32.9,12.6c0.2,0.1,0.4,0.3,0.6,0.4c0.2,0.2,0.3,0.4,0.5,0.6c0.1,0.2,0.2,0.5,0.3,0.7
				c0.1,0.2,0.1,0.5,0.1,0.7c0,0.2,0,0.4-0.1,0.6c-0.1,0.2-0.2,0.3-0.3,0.4c-0.1,0.1-0.3,0.1-0.5,0.1c-0.2,0-0.4-0.1-0.6-0.2
				c-0.2-0.1-0.4-0.3-0.6-0.4c-0.2-0.2-0.3-0.4-0.5-0.6c-0.1-0.2-0.2-0.5-0.3-0.7c-0.1-0.2-0.1-0.5-0.1-0.7c0-0.2,0-0.4,0.1-0.6
				c0.1-0.2,0.2-0.3,0.3-0.4c0.1-0.1,0.3-0.1,0.5-0.1C32.5,12.4,32.7,12.5,32.9,12.6z"/>
			<path class="st5" d="M27.2,9.3c0.2,0.1,0.4,0.3,0.6,0.4c0.2,0.2,0.3,0.4,0.5,0.6s0.2,0.5,0.3,0.7c0.1,0.2,0.1,0.5,0.1,0.7
				c0,0.2,0,0.4-0.1,0.6c-0.1,0.2-0.2,0.3-0.3,0.4c-0.1,0.1-0.3,0.1-0.5,0.1c-0.2,0-0.4-0.1-0.6-0.2c-0.2-0.1-0.4-0.3-0.6-0.4
				c-0.2-0.2-0.3-0.4-0.5-0.6c-0.1-0.2-0.2-0.5-0.3-0.7c-0.1-0.2-0.1-0.5-0.1-0.7c0-0.2,0-0.4,0.1-0.6c0.1-0.2,0.2-0.3,0.3-0.4
				c0.1-0.1,0.3-0.1,0.5-0.1C26.8,9.2,27,9.2,27.2,9.3z"/>
			<path class="st5" d="M38.7,15.8c0.2,0.1,0.4,0.3,0.6,0.4c0.2,0.2,0.3,0.4,0.5,0.6c0.1,0.2,0.2,0.5,0.3,0.7
				c0.1,0.2,0.1,0.5,0.1,0.7c0,0.2,0,0.4-0.1,0.6c-0.1,0.2-0.2,0.3-0.3,0.4c-0.1,0.1-0.3,0.1-0.5,0.1c-0.2,0-0.4-0.1-0.6-0.2
				c-0.2-0.1-0.4-0.3-0.6-0.4c-0.2-0.2-0.3-0.4-0.5-0.6c-0.1-0.2-0.2-0.5-0.3-0.7c-0.1-0.2-0.1-0.5-0.1-0.7c0-0.2,0-0.4,0.1-0.6
				c0.1-0.2,0.2-0.3,0.3-0.4c0.1-0.1,0.3-0.1,0.5-0.1C38.3,15.7,38.5,15.7,38.7,15.8z"/>
		</g>
		<g>
			<linearGradient id="SVGID_4_" gradientUnits="userSpaceOnUse" x1="27.0549" y1="64.0677" x2="59.1826" y2="64.0677">
				<stop  offset="0" style="stop-color:#FF797D"/>
				<stop  offset="0.2981" style="stop-color:#FF7E7D"/>
				<stop  offset="0.6476" style="stop-color:#FF8C7D"/>
				<stop  offset="1" style="stop-color:#FFA27D"/>
			</linearGradient>
			<path class="st6" d="M29.9,52.6c-1.6-0.9-2.8-0.2-2.8,1.6c0,1.8,1.3,4,2.8,4.9L59.2,76v-6.5L29.9,52.6z"/>
			<linearGradient id="SVGID_5_" gradientUnits="userSpaceOnUse" x1="59.1826" y1="77.0532" x2="76.3497" y2="77.0532">
				<stop  offset="0" style="stop-color:#FFFFFF"/>
				<stop  offset="0.3097" style="stop-color:#FDFCFD"/>
				<stop  offset="0.5754" style="stop-color:#F7F1F7"/>
				<stop  offset="0.8241" style="stop-color:#EDDFEE"/>
				<stop  offset="1" style="stop-color:#E3CEE4"/>
			</linearGradient>
			<path class="st7" d="M76.3,82.6c0-1.8-1.3-4-2.8-4.9l-14.4-8.3V76l14.3,8.3C75.1,85.1,76.3,84.4,76.3,82.6z"/>
			<g>
				<g>
					<linearGradient id="SVGID_6_" gradientUnits="userSpaceOnUse" x1="53.1854" y1="73.4698" x2="66.2757" y2="73.4698">
						<stop  offset="0" style="stop-color:#FFFFFF"/>
						<stop  offset="0.3097" style="stop-color:#FDFCFD"/>
						<stop  offset="0.5754" style="stop-color:#F7F1F7"/>
						<stop  offset="0.8241" style="stop-color:#EDDFEE"/>
						<stop  offset="1" style="stop-color:#E3CEE4"/>
					</linearGradient>
					<path class="st8" d="M59.8,65.9c3.6,2.1,6.5,7.1,6.5,11.3c0,4.2-3,5.8-6.6,3.7c-3.6-2.1-6.5-7.1-6.5-11.3
						C53.2,65.5,56.1,63.9,59.8,65.9z"/>
				</g>
				<g>
					<linearGradient id="SVGID_7_" gradientUnits="userSpaceOnUse" x1="56.6027" y1="73.4698" x2="61.7625" y2="73.4698">
						<stop  offset="0" style="stop-color:#FF797D"/>
						<stop  offset="0.2981" style="stop-color:#FF7E7D"/>
						<stop  offset="0.6476" style="stop-color:#FF8C7D"/>
						<stop  offset="1" style="stop-color:#FFA27D"/>
					</linearGradient>
					<path class="st9" d="M59.2,70.5c1.4,0.8,2.6,2.8,2.6,4.5s-1.2,2.3-2.6,1.5c-1.4-0.8-2.6-2.8-2.6-4.5
						C56.6,70.3,57.8,69.7,59.2,70.5z"/>
				</g>
			</g>
		</g>
		<g>
			<polygon class="st10" points="54.3,74.9 51.8,100.5 46.4,97.5 40.1,109.6 37.3,108 34.4,106.4 40.6,94.3 35.2,91.3 			"/>
		</g>
		<g>
			<polygon class="st10" points="32.9,42.4 32.8,47.7 28.2,45 28.2,39.7 			"/>
		</g>
		<g>
			<g>
				<polygon class="st11" points="70.9,53.4 70.9,58.7 66.3,56.1 66.3,50.8 				"/>
			</g>
			<g>
				<polygon class="st10" points="77.4,57.2 77.4,62.5 72.8,59.8 72.8,54.5 				"/>
			</g>
			<g>
				<polygon class="st12" points="70.9,61.1 70.9,66.4 66.3,63.7 66.3,58.4 				"/>
			</g>
			<g>
				<polygon class="st13" points="77.4,64.8 77.4,70.1 72.8,67.5 72.8,62.1 				"/>
			</g>
		</g>
	</g>
</g>
</svg>
