<?xml version="1.0" encoding="utf-8"?>
<!-- Generator: Adobe Illustrator 24.0.0, SVG Export Plug-In . SVG Version: 6.00 Build 0)  -->
<!DOCTYPE svg PUBLIC "-//W3C//DTD SVG 1.1//EN" "http://www.w3.org/Graphics/SVG/1.1/DTD/svg11.dtd" [
	<!ENTITY ns_extend "http://ns.adobe.com/Extensibility/1.0/">
	<!ENTITY ns_ai "http://ns.adobe.com/AdobeIllustrator/10.0/">
	<!ENTITY ns_graphs "http://ns.adobe.com/Graphs/1.0/">
	<!ENTITY ns_vars "http://ns.adobe.com/Variables/1.0/">
	<!ENTITY ns_imrep "http://ns.adobe.com/ImageReplacement/1.0/">
	<!ENTITY ns_sfw "http://ns.adobe.com/SaveForWeb/1.0/">
	<!ENTITY ns_custom "http://ns.adobe.com/GenericCustomNamespace/1.0/">
	<!ENTITY ns_adobe_xpath "http://ns.adobe.com/XPath/1.0/">
]>
<svg version="1.1" id="Layer_1" xmlns:x="&ns_extend;" xmlns:i="&ns_ai;" xmlns:graph="&ns_graphs;"
	 xmlns="http://www.w3.org/2000/svg" xmlns:xlink="http://www.w3.org/1999/xlink" x="0px" y="0px" width="15.4px" height="16px"
	 viewBox="0 0 15.4 16" style="enable-background:new 0 0 15.4 16;" xml:space="preserve">
<style type="text/css">
	.st0{fill:#7668ED;}
</style>
<metadata>
	<sfw  xmlns="&ns_sfw;">
		<slices></slices>
		<sliceSourceBounds  bottomLeftOrigin="true" height="13.5" width="13" x="676.8" y="-390.5"></sliceSourceBounds>
	</sfw>
</metadata>
<path id="Path_175" class="st0" d="M13.7,2.5l-0.1-0.2c-0.6-0.6-1.7-0.6-2.3,0l-1,0.9L8.8,1.9L8,1.2L7.5,1.9L4.1,5.9l0.6,0.6
	l3.4-2.8l0.8,0.9l-1,1l-4.7,4.7l2.5,2.5l4.6-4.6l1.1-1.1l2.3-2.3C14.4,4.2,14.4,3.2,13.7,2.5C13.8,2.5,13.7,2.5,13.7,2.5z"/>
<path id="Path_176" class="st0" d="M1.2,14.8l3.4-0.9l-2.4-2.5L1.2,14.8z"/>
</svg>
