<?xml version="1.0" encoding="utf-8"?>
<!-- Generator: Adobe Illustrator 24.0.0, SVG Export Plug-In . SVG Version: 6.00 Build 0)  -->
<!DOCTYPE svg PUBLIC "-//W3C//DTD SVG 1.1//EN" "http://www.w3.org/Graphics/SVG/1.1/DTD/svg11.dtd" [
	<!ENTITY ns_extend "http://ns.adobe.com/Extensibility/1.0/">
	<!ENTITY ns_ai "http://ns.adobe.com/AdobeIllustrator/10.0/">
	<!ENTITY ns_graphs "http://ns.adobe.com/Graphs/1.0/">
	<!ENTITY ns_vars "http://ns.adobe.com/Variables/1.0/">
	<!ENTITY ns_imrep "http://ns.adobe.com/ImageReplacement/1.0/">
	<!ENTITY ns_sfw "http://ns.adobe.com/SaveForWeb/1.0/">
	<!ENTITY ns_custom "http://ns.adobe.com/GenericCustomNamespace/1.0/">
	<!ENTITY ns_adobe_xpath "http://ns.adobe.com/XPath/1.0/">
]>
<svg version="1.1" id="Layer_1" xmlns:x="&ns_extend;" xmlns:i="&ns_ai;" xmlns:graph="&ns_graphs;"
	 xmlns="http://www.w3.org/2000/svg" xmlns:xlink="http://www.w3.org/1999/xlink" x="0px" y="0px" width="116px" height="113px"
	 viewBox="0 0 116 113" style="enable-background:new 0 0 116 113;" xml:space="preserve">
<style type="text/css">
	.st0{fill-rule:evenodd;clip-rule:evenodd;fill:#333564;enable-background:new    ;}
</style>
<metadata>
	<sfw  xmlns="&ns_sfw;">
		<slices></slices>
		<sliceSourceBounds  bottomLeftOrigin="true" height="111.2" width="114.2" x="1" y="0.9"></sliceSourceBounds>
	</sfw>
</metadata>
<path id="Path_64" class="st0" d="M58,0.9c-31.5,0-57,25.5-57,57c0,24.6,15.7,46.4,39,54.1c2.8,0.5,3.9-1.2,3.9-2.7
	c0-1.4,0-4.9-0.1-9.7C27.9,103,24.6,92,24.6,92c-2.6-6.6-6.3-8.3-6.3-8.3c-5.2-3.5,0.4-3.5,0.4-3.5c5.7,0.4,8.7,5.9,8.7,5.9
	c5.1,8.7,13.3,6.2,16.6,4.7c0.3-2.9,1.5-5.6,3.6-7.6c-12.7-1.4-26-6.3-26-28.2c-0.1-5.7,2-11.1,5.9-15.3c-0.6-1.4-2.5-7.2,0.6-15.1
	c0,0,4.8-1.5,15.7,5.8c9.3-2.6,19.2-2.6,28.5,0C83.2,23,88,24.6,88,24.6c3.1,7.8,1.2,13.6,0.6,15.1c3.8,4.2,5.9,9.6,5.9,15.3
	c0,21.9-13.3,26.7-26,28.1c2,1.8,3.9,5.2,3.9,10.6c0,7.6-0.1,13.8-0.1,15.6c0,1.5,1,3.3,3.9,2.7c29.9-10,46-42.3,36-72.1
	C104.3,16.6,82.5,0.9,58,0.9z"/>
</svg>
