<?xml version="1.0" encoding="utf-8"?>
<!-- Generator: Adobe Illustrator 24.0.0, SVG Export Plug-In . SVG Version: 6.00 Build 0)  -->
<!DOCTYPE svg PUBLIC "-//W3C//DTD SVG 1.1//EN" "http://www.w3.org/Graphics/SVG/1.1/DTD/svg11.dtd" [
	<!ENTITY ns_extend "http://ns.adobe.com/Extensibility/1.0/">
	<!ENTITY ns_ai "http://ns.adobe.com/AdobeIllustrator/10.0/">
	<!ENTITY ns_graphs "http://ns.adobe.com/Graphs/1.0/">
	<!ENTITY ns_vars "http://ns.adobe.com/Variables/1.0/">
	<!ENTITY ns_imrep "http://ns.adobe.com/ImageReplacement/1.0/">
	<!ENTITY ns_sfw "http://ns.adobe.com/SaveForWeb/1.0/">
	<!ENTITY ns_custom "http://ns.adobe.com/GenericCustomNamespace/1.0/">
	<!ENTITY ns_adobe_xpath "http://ns.adobe.com/XPath/1.0/">
]>
<svg version="1.1" id="Layer_1" xmlns:x="&ns_extend;" xmlns:i="&ns_ai;" xmlns:graph="&ns_graphs;"
	 xmlns="http://www.w3.org/2000/svg" xmlns:xlink="http://www.w3.org/1999/xlink" x="0px" y="0px" width="116px" height="113px"
	 viewBox="0 0 116 113" style="enable-background:new 0 0 116 113;" xml:space="preserve">
<style type="text/css">
	.st0{opacity:3.600000e-02;fill:#333564;enable-background:new    ;}
</style>
<metadata>
	<sfw  xmlns="&ns_sfw;">
		<slices></slices>
		<sliceSourceBounds  bottomLeftOrigin="true" height="105.4" width="114" x="899.8" y="-592.5"></sliceSourceBounds>
	</sfw>
</metadata>
<path id="Path_44" class="st0" d="M114.7,62.8l-6-18.4c0-0.2-0.1-0.3-0.1-0.5L96.5,7c-0.7-2-2.5-3.3-4.6-3.3c-2.1,0-3.9,1.3-4.5,3.3
	L76.1,42.3H40L28.5,7.1c-0.6-2-2.4-3.3-4.5-3.3h0c-2.1,0-3.9,1.3-4.5,3.3l-12,37c0,0,0,0.1,0,0.1L1.3,62.8c-0.9,2.8,0.1,5.9,2.5,7.6
	l52.6,38.2c1,0.7,2.2,0.7,3.2,0l0,0l52.6-38.2C114.6,68.7,115.6,65.7,114.7,62.8z M36,47.7l14.7,45.1L15.5,47.7H36z M65.3,92.8
	l14.1-43.3l0.6-1.9h20.5L68.7,88.4L65.3,92.8z M92,10.5l10.3,31.7H81.7L92,10.5z M74.3,47.6L64.1,79.1L58,97.8L41.7,47.6L74.3,47.6z
	 M24,10.5l10.3,31.7H13.7L24,10.5z M7,66.1c-0.5-0.4-0.7-1-0.5-1.6L11,50.6l33.1,42.5L7,66.1z M109,66.1l-37.1,27l0.1-0.2l33-42.3
	l4.5,13.9C109.7,65.1,109.5,65.8,109,66.1L109,66.1z"/>
</svg>
