<?xml version="1.0" encoding="utf-8"?>
<!-- Generator: Adobe Illustrator 24.0.0, SVG Export Plug-In . SVG Version: 6.00 Build 0)  -->
<!DOCTYPE svg PUBLIC "-//W3C//DTD SVG 1.1//EN" "http://www.w3.org/Graphics/SVG/1.1/DTD/svg11.dtd" [
	<!ENTITY ns_extend "http://ns.adobe.com/Extensibility/1.0/">
	<!ENTITY ns_ai "http://ns.adobe.com/AdobeIllustrator/10.0/">
	<!ENTITY ns_graphs "http://ns.adobe.com/Graphs/1.0/">
	<!ENTITY ns_vars "http://ns.adobe.com/Variables/1.0/">
	<!ENTITY ns_imrep "http://ns.adobe.com/ImageReplacement/1.0/">
	<!ENTITY ns_sfw "http://ns.adobe.com/SaveForWeb/1.0/">
	<!ENTITY ns_custom "http://ns.adobe.com/GenericCustomNamespace/1.0/">
	<!ENTITY ns_adobe_xpath "http://ns.adobe.com/XPath/1.0/">
]>
<svg version="1.1" id="svg2" xmlns:x="&ns_extend;" xmlns:i="&ns_ai;" xmlns:graph="&ns_graphs;"
	 xmlns="http://www.w3.org/2000/svg" xmlns:xlink="http://www.w3.org/1999/xlink" x="0px" y="0px" width="337px" height="318px"
	 viewBox="0 0 337 318" style="enable-background:new 0 0 337 318;" xml:space="preserve">
<style type="text/css">
	.st0{fill:#FFFFFF;}
</style>
<metadata>
	<sfw  xmlns="&ns_sfw;">
		<slices></slices>
		<sliceSourceBounds  bottomLeftOrigin="true" height="315" width="334" x="49.1" y="49"></sliceSourceBounds>
	</sfw>
</metadata>
<g>
	<g id="g86" transform="matrix(1.1310535,0,0,1.1310535,311.40329,266.88437)">
		<path id="path88" class="st0" d="M-39.8-30.4l-1.5,21.3c-0.2,2.6-2.2,4.6-4.8,4.8l-51.1,3.6c-0.1,0-0.2,0-0.4,0
			c-2.5,0-4.7-1.9-5.1-4.4l-2.9-19.9h-41.7l-2.9,19.9c-0.4,2.7-2.8,4.6-5.5,4.4l-51.1-3.6c-2.6-0.2-4.6-2.2-4.8-4.8l-1.5-21.3
			l-43.1-4.2c0,4.6,0.1,9.7,0.1,10.7c0,45.5,57.8,67.4,129.5,67.7h0.1h0.1C-54.5,43.6,3.2,21.7,3.2-23.8c0-1,0.1-6.1,0.1-10.7
			L-39.8-30.4z"/>
	</g>
	<path class="st0" d="M305.6,59.3c-10.3,5.2-20.3,11-29.7,17.3c-4.7-4.7-10-8.5-15.3-12.5c-5.1-4.1-10.9-7.1-16.4-10.7
		c1.6-12.2,2.4-24.1,2.8-36.6c-14.2-7.1-29.2-11.8-44.5-15.2c-6.1,10.2-11.7,21.3-16.5,32.2c-5.8-1-11.5-1.3-17.3-1.4v0
		c0,0-0.1,0-0.1,0c0,0-0.1,0-0.1,0v0c-5.8,0.1-11.6,0.4-17.3,1.4c-4.9-10.8-10.4-21.9-16.5-32.2C119.3,4.9,104.2,9.6,90,16.8
		c0.3,12.5,1.1,24.5,2.8,36.6c-5.5,3.5-11.3,6.5-16.4,10.7c-5.2,4-10.5,7.9-15.3,12.5c-9.4-6.2-19.4-12.1-29.7-17.3
		C20.3,71.2,10,84.1,1.5,98.5c6.4,10.3,13,20,20.2,29.1h0.2v71.2v9v8.2c0.2,0,0.3,0,0.5,0l54.2,5.2c2.8,0.3,5.1,2.6,5.3,5.4
		l1.7,23.9l47.3,3.4l3.3-22.1c0.4-2.9,2.9-5,5.8-5h57.2c2.9,0,5.4,2.1,5.8,5l3.3,22.1l47.3-3.4l1.7-23.9c0.2-2.8,2.4-5.1,5.3-5.4
		l54.2-5.2c0.2,0,0.3,0,0.5,0v-7.1l0,0v-81.4h0.2c7.2-9.2,13.8-18.8,20.2-29.1C327,84.1,316.7,71.2,305.6,59.3z M91.6,196.3
		c-18,0-32.7-14.6-32.7-32.7c0-18,14.6-32.7,32.7-32.7c18.1,0,32.7,14.6,32.7,32.7C124.3,181.6,109.7,196.3,91.6,196.3z M179,189.7
		c0,5.3-4.7,9.6-10.5,9.6c-5.8,0-10.5-4.3-10.5-9.6v-30.1c0-5.3,4.7-9.6,10.5-9.6c5.8,0,10.5,4.3,10.5,9.6V189.7z M245.4,196.3
		c-18.1,0-32.7-14.6-32.7-32.7c0-18,14.6-32.7,32.7-32.7c18,0,32.7,14.6,32.7,32.7C278,181.6,263.4,196.3,245.4,196.3z"/>
	<g id="g94" transform="matrix(1.1310535,0,0,1.1310535,198.17748,317.47435)">
		<path id="path96" class="st0" d="M-72.3-134.4c0,10.6-8.6,19.2-19.2,19.2c-10.6,0-19.2-8.6-19.2-19.2c0-10.6,8.6-19.2,19.2-19.2
			C-80.8-153.5-72.3-144.9-72.3-134.4"/>
	</g>
	<g id="g106" transform="matrix(1.1310535,0,0,1.1310535,276.77813,317.47435)">
		<path id="path108" class="st0" d="M-49.7-134.4c0,10.6,8.6,19.2,19.2,19.2c10.6,0,19.2-8.6,19.2-19.2c0-10.6-8.6-19.2-19.2-19.2
			C-41.1-153.5-49.7-144.9-49.7-134.4"/>
	</g>
</g>
</svg>
