<?xml version="1.0" encoding="utf-8"?>
<!-- Generator: Adobe Illustrator 24.0.0, SVG Export Plug-In . SVG Version: 6.00 Build 0)  -->
<!DOCTYPE svg PUBLIC "-//W3C//DTD SVG 1.1//EN" "http://www.w3.org/Graphics/SVG/1.1/DTD/svg11.dtd" [
	<!ENTITY ns_extend "http://ns.adobe.com/Extensibility/1.0/">
	<!ENTITY ns_ai "http://ns.adobe.com/AdobeIllustrator/10.0/">
	<!ENTITY ns_graphs "http://ns.adobe.com/Graphs/1.0/">
	<!ENTITY ns_vars "http://ns.adobe.com/Variables/1.0/">
	<!ENTITY ns_imrep "http://ns.adobe.com/ImageReplacement/1.0/">
	<!ENTITY ns_sfw "http://ns.adobe.com/SaveForWeb/1.0/">
	<!ENTITY ns_custom "http://ns.adobe.com/GenericCustomNamespace/1.0/">
	<!ENTITY ns_adobe_xpath "http://ns.adobe.com/XPath/1.0/">
]>
<svg version="1.1" id="Layer_1" xmlns:x="&ns_extend;" xmlns:i="&ns_ai;" xmlns:graph="&ns_graphs;"
	 xmlns="http://www.w3.org/2000/svg" xmlns:xlink="http://www.w3.org/1999/xlink" x="0px" y="0px" width="1086px" height="444px"
	 viewBox="0 0 1086 444" style="enable-background:new 0 0 1086 444;" xml:space="preserve">
<style type="text/css">
	.st0{enable-background:new    ;}
	.st1{fill:#333564;}
	.st2{fill:none;stroke:#F0EFF5;}
	.st3{fill:none;stroke:#7668ED;stroke-width:2;}
	.st4{fill:none;stroke:#F853F7;stroke-width:2;}
	.st5{opacity:0.501;}
	.st6{opacity:0.21;}
	.st7{opacity:0.235;fill:#7668ED;enable-background:new    ;}
	.st8{fill:#F853F7;}
	.st9{fill:#FFE8E6;}
	.st10{fill:#FE756A;}
	.st11{fill:#27FEFE;}
	.st12{fill:#F1EFFE;}
	.st13{fill:#7668ED;}
	.st14{fill:none;stroke:#27FEFE;stroke-width:2;}
</style>
<metadata>
	<sfw  xmlns="&ns_sfw;">
		<slices></slices>
		<sliceSourceBounds  bottomLeftOrigin="true" height="368.1" width="1008.6" x="178.4" y="-565.2"></sliceSourceBounds>
	</sfw>
</metadata>
<g class="st0">
	<path class="st1" d="M41.2,99.2h1.8v-5.6h-1.4v-0.6c0.4-0.1,0.7-0.1,0.9-0.2c0.3-0.1,0.5-0.2,0.7-0.3h0.8v6.8h1.6v0.8h-4.3V99.2z"
		/>
	<path class="st1" d="M49.2,100.1c-0.8,0-1.4-0.3-1.8-1c-0.4-0.7-0.6-1.7-0.6-3s0.2-2.3,0.6-2.9c0.4-0.7,1-1,1.8-1
		c0.8,0,1.4,0.3,1.8,1s0.6,1.7,0.6,2.9s-0.2,2.3-0.6,3C50.5,99.8,49.9,100.1,49.2,100.1z M49.2,99.4c0.2,0,0.4-0.1,0.6-0.2
		c0.2-0.1,0.3-0.3,0.5-0.6s0.2-0.6,0.3-1c0.1-0.4,0.1-0.9,0.1-1.4c0-0.6,0-1-0.1-1.4c-0.1-0.4-0.2-0.7-0.3-1
		c-0.1-0.3-0.3-0.4-0.5-0.6c-0.2-0.1-0.4-0.2-0.6-0.2c-0.2,0-0.4,0.1-0.6,0.2s-0.3,0.3-0.5,0.6c-0.1,0.3-0.2,0.6-0.3,1
		c-0.1,0.4-0.1,0.9-0.1,1.4c0,1.1,0.1,1.9,0.4,2.4C48.4,99.1,48.7,99.4,49.2,99.4z"/>
	<path class="st1" d="M55.1,100.1c-0.8,0-1.4-0.3-1.8-1c-0.4-0.7-0.6-1.7-0.6-3s0.2-2.3,0.6-2.9c0.4-0.7,1-1,1.8-1
		c0.8,0,1.4,0.3,1.8,1s0.6,1.7,0.6,2.9s-0.2,2.3-0.6,3C56.5,99.8,55.9,100.1,55.1,100.1z M55.1,99.4c0.2,0,0.4-0.1,0.6-0.2
		c0.2-0.1,0.3-0.3,0.5-0.6s0.2-0.6,0.3-1c0.1-0.4,0.1-0.9,0.1-1.4c0-0.6,0-1-0.1-1.4c-0.1-0.4-0.2-0.7-0.3-1
		c-0.1-0.3-0.3-0.4-0.5-0.6c-0.2-0.1-0.4-0.2-0.6-0.2c-0.2,0-0.4,0.1-0.6,0.2s-0.3,0.3-0.5,0.6c-0.1,0.3-0.2,0.6-0.3,1
		c-0.1,0.4-0.1,0.9-0.1,1.4c0,1.1,0.1,1.9,0.4,2.4C54.3,99.1,54.7,99.4,55.1,99.4z"/>
	<path class="st1" d="M60.3,97c-0.5,0-1-0.2-1.3-0.6c-0.3-0.4-0.5-1-0.5-1.8c0-0.8,0.2-1.4,0.5-1.8c0.3-0.4,0.8-0.6,1.3-0.6
		c0.5,0,1,0.2,1.3,0.6s0.5,1,0.5,1.8c0,0.8-0.2,1.4-0.5,1.8C61.3,96.7,60.9,97,60.3,97z M60.3,96.3c0.3,0,0.6-0.2,0.7-0.5
		c0.2-0.3,0.3-0.8,0.3-1.4s-0.1-1.1-0.3-1.4c-0.2-0.3-0.4-0.5-0.7-0.5c-0.3,0-0.6,0.2-0.8,0.5c-0.2,0.3-0.3,0.8-0.3,1.4
		s0.1,1.1,0.3,1.4C59.8,96.2,60,96.3,60.3,96.3z M60.5,100.1l4.3-8.2h0.7l-4.3,8.2H60.5z M65.8,100.1c-0.5,0-1-0.2-1.3-0.6
		c-0.3-0.4-0.5-1-0.5-1.8c0-0.8,0.2-1.4,0.5-1.8c0.3-0.4,0.8-0.6,1.3-0.6c0.5,0,1,0.2,1.3,0.6c0.3,0.4,0.5,1,0.5,1.8
		c0,0.8-0.2,1.4-0.5,1.8S66.3,100.1,65.8,100.1z M65.8,99.5c0.3,0,0.6-0.2,0.7-0.5c0.2-0.3,0.3-0.8,0.3-1.4s-0.1-1.1-0.3-1.4
		s-0.4-0.5-0.7-0.5c-0.3,0-0.6,0.2-0.8,0.5s-0.3,0.8-0.3,1.4s0.1,1.1,0.3,1.4C65.2,99.4,65.5,99.5,65.8,99.5z"/>
</g>
<g class="st0">
	<path class="st1" d="M46.7,153c0-0.2,0-0.5,0.1-0.7c0.1-0.2,0.2-0.4,0.3-0.6c0.1-0.2,0.3-0.3,0.5-0.5s0.4-0.2,0.5-0.3v0
		c-0.3-0.2-0.5-0.4-0.7-0.7s-0.3-0.6-0.3-1c0-0.3,0.1-0.6,0.2-0.8c0.1-0.2,0.3-0.4,0.5-0.6c0.2-0.2,0.4-0.3,0.7-0.4
		c0.3-0.1,0.6-0.1,0.9-0.1c0.3,0,0.6,0,0.9,0.1c0.3,0.1,0.5,0.2,0.7,0.4c0.2,0.2,0.3,0.4,0.4,0.6s0.1,0.5,0.1,0.8
		c0,0.2,0,0.4-0.1,0.6c-0.1,0.2-0.2,0.4-0.3,0.5s-0.2,0.3-0.3,0.4s-0.2,0.2-0.4,0.3v0c0.2,0.1,0.3,0.2,0.5,0.3s0.3,0.3,0.4,0.4
		c0.1,0.2,0.2,0.3,0.3,0.5s0.1,0.4,0.1,0.7c0,0.3-0.1,0.6-0.2,0.8s-0.3,0.5-0.5,0.6c-0.2,0.2-0.5,0.3-0.8,0.4
		c-0.3,0.1-0.6,0.2-1,0.2c-0.4,0-0.7-0.1-1-0.2c-0.3-0.1-0.6-0.2-0.8-0.4c-0.2-0.2-0.4-0.4-0.5-0.7S46.7,153.3,46.7,153z
		 M47.6,152.9c0,0.2,0,0.4,0.1,0.6s0.2,0.3,0.3,0.5s0.3,0.2,0.5,0.3c0.2,0.1,0.4,0.1,0.6,0.1c0.4,0,0.8-0.1,1.1-0.4
		c0.3-0.2,0.4-0.6,0.4-1c0-0.2-0.1-0.5-0.2-0.6c-0.1-0.2-0.3-0.3-0.5-0.5s-0.4-0.3-0.7-0.4c-0.3-0.1-0.5-0.2-0.8-0.3
		c-0.3,0.2-0.6,0.5-0.8,0.7C47.7,152.3,47.6,152.6,47.6,152.9z M49.7,150.8c0.3-0.2,0.5-0.5,0.6-0.7c0.1-0.3,0.2-0.5,0.2-0.8
		c0-0.4-0.1-0.7-0.3-1c-0.2-0.3-0.6-0.4-1-0.4c-0.4,0-0.7,0.1-0.9,0.3c-0.2,0.2-0.3,0.5-0.3,0.9c0,0.2,0,0.4,0.1,0.6
		c0.1,0.2,0.2,0.3,0.4,0.4c0.2,0.1,0.4,0.2,0.6,0.3C49.3,150.6,49.5,150.7,49.7,150.8z"/>
	<path class="st1" d="M55.1,155.1c-0.8,0-1.4-0.3-1.8-1c-0.4-0.7-0.6-1.7-0.6-3s0.2-2.3,0.6-2.9c0.4-0.7,1-1,1.8-1
		c0.8,0,1.4,0.3,1.8,1s0.6,1.7,0.6,2.9s-0.2,2.3-0.6,3C56.5,154.8,55.9,155.1,55.1,155.1z M55.1,154.4c0.2,0,0.4-0.1,0.6-0.2
		c0.2-0.1,0.3-0.3,0.5-0.6s0.2-0.6,0.3-1c0.1-0.4,0.1-0.9,0.1-1.4c0-0.6,0-1-0.1-1.4c-0.1-0.4-0.2-0.7-0.3-1
		c-0.1-0.3-0.3-0.4-0.5-0.6c-0.2-0.1-0.4-0.2-0.6-0.2c-0.2,0-0.4,0.1-0.6,0.2s-0.3,0.3-0.5,0.6c-0.1,0.3-0.2,0.6-0.3,1
		c-0.1,0.4-0.1,0.9-0.1,1.4c0,1.1,0.1,1.9,0.4,2.4C54.3,154.1,54.7,154.4,55.1,154.4z"/>
	<path class="st1" d="M60.3,152c-0.5,0-1-0.2-1.3-0.6c-0.3-0.4-0.5-1-0.5-1.8c0-0.8,0.2-1.4,0.5-1.8c0.3-0.4,0.8-0.6,1.3-0.6
		c0.5,0,1,0.2,1.3,0.6s0.5,1,0.5,1.8c0,0.8-0.2,1.4-0.5,1.8C61.3,151.7,60.9,152,60.3,152z M60.3,151.3c0.3,0,0.6-0.2,0.7-0.5
		c0.2-0.3,0.3-0.8,0.3-1.4s-0.1-1.1-0.3-1.4c-0.2-0.3-0.4-0.5-0.7-0.5c-0.3,0-0.6,0.2-0.8,0.5c-0.2,0.3-0.3,0.8-0.3,1.4
		s0.1,1.1,0.3,1.4C59.8,151.2,60,151.3,60.3,151.3z M60.5,155.1l4.3-8.2h0.7l-4.3,8.2H60.5z M65.8,155.1c-0.5,0-1-0.2-1.3-0.6
		c-0.3-0.4-0.5-1-0.5-1.8c0-0.8,0.2-1.4,0.5-1.8c0.3-0.4,0.8-0.6,1.3-0.6c0.5,0,1,0.2,1.3,0.6c0.3,0.4,0.5,1,0.5,1.8
		c0,0.8-0.2,1.4-0.5,1.8S66.3,155.1,65.8,155.1z M65.8,154.5c0.3,0,0.6-0.2,0.7-0.5c0.2-0.3,0.3-0.8,0.3-1.4s-0.1-1.1-0.3-1.4
		s-0.4-0.5-0.7-0.5c-0.3,0-0.6,0.2-0.8,0.5s-0.3,0.8-0.3,1.4s0.1,1.1,0.3,1.4C65.2,154.4,65.5,154.5,65.8,154.5z"/>
</g>
<g class="st0">
	<path class="st1" d="M51,203.6c-0.2-0.2-0.4-0.3-0.6-0.4c-0.2-0.1-0.4-0.2-0.7-0.2c-0.3,0-0.5,0.1-0.8,0.2
		c-0.2,0.1-0.5,0.3-0.6,0.6c-0.2,0.3-0.3,0.6-0.4,1s-0.2,0.9-0.2,1.5c0.2-0.3,0.5-0.5,0.8-0.7c0.3-0.2,0.6-0.3,0.9-0.3
		c0.7,0,1.2,0.2,1.6,0.6s0.6,1,0.6,1.8c0,0.4-0.1,0.7-0.2,1c-0.1,0.3-0.3,0.6-0.5,0.8s-0.4,0.4-0.7,0.5s-0.6,0.2-0.9,0.2
		c-0.4,0-0.7-0.1-1-0.2s-0.6-0.4-0.8-0.7c-0.2-0.3-0.4-0.7-0.6-1.2c-0.1-0.5-0.2-1-0.2-1.6c0-0.8,0.1-1.4,0.2-2s0.4-1,0.6-1.3
		c0.3-0.3,0.6-0.6,0.9-0.7c0.3-0.2,0.7-0.2,1.1-0.2c0.4,0,0.8,0.1,1.1,0.2c0.3,0.2,0.6,0.4,0.8,0.6L51,203.6z M49.4,209.4
		c0.2,0,0.4,0,0.5-0.1c0.2-0.1,0.3-0.2,0.4-0.3c0.1-0.1,0.2-0.3,0.3-0.5s0.1-0.4,0.1-0.7c0-0.5-0.1-0.9-0.3-1.2
		c-0.2-0.3-0.6-0.4-1.1-0.4c-0.2,0-0.5,0.1-0.8,0.2c-0.3,0.2-0.6,0.4-0.8,0.8c0.1,0.8,0.2,1.3,0.5,1.7
		C48.5,209.2,48.9,209.4,49.4,209.4z"/>
	<path class="st1" d="M55.1,210.1c-0.8,0-1.4-0.3-1.8-1c-0.4-0.7-0.6-1.7-0.6-3s0.2-2.3,0.6-2.9c0.4-0.7,1-1,1.8-1
		c0.8,0,1.4,0.3,1.8,1s0.6,1.7,0.6,2.9s-0.2,2.3-0.6,3C56.5,209.8,55.9,210.1,55.1,210.1z M55.1,209.4c0.2,0,0.4-0.1,0.6-0.2
		c0.2-0.1,0.3-0.3,0.5-0.6s0.2-0.6,0.3-1c0.1-0.4,0.1-0.9,0.1-1.4c0-0.6,0-1-0.1-1.4c-0.1-0.4-0.2-0.7-0.3-1
		c-0.1-0.3-0.3-0.4-0.5-0.6c-0.2-0.1-0.4-0.2-0.6-0.2c-0.2,0-0.4,0.1-0.6,0.2s-0.3,0.3-0.5,0.6c-0.1,0.3-0.2,0.6-0.3,1
		c-0.1,0.4-0.1,0.9-0.1,1.4c0,1.1,0.1,1.9,0.4,2.4C54.3,209.1,54.7,209.4,55.1,209.4z"/>
	<path class="st1" d="M60.3,207c-0.5,0-1-0.2-1.3-0.6c-0.3-0.4-0.5-1-0.5-1.8c0-0.8,0.2-1.4,0.5-1.8c0.3-0.4,0.8-0.6,1.3-0.6
		c0.5,0,1,0.2,1.3,0.6s0.5,1,0.5,1.8c0,0.8-0.2,1.4-0.5,1.8C61.3,206.7,60.9,207,60.3,207z M60.3,206.3c0.3,0,0.6-0.2,0.7-0.5
		c0.2-0.3,0.3-0.8,0.3-1.4s-0.1-1.1-0.3-1.4c-0.2-0.3-0.4-0.5-0.7-0.5c-0.3,0-0.6,0.2-0.8,0.5c-0.2,0.3-0.3,0.8-0.3,1.4
		s0.1,1.1,0.3,1.4C59.8,206.2,60,206.3,60.3,206.3z M60.5,210.1l4.3-8.2h0.7l-4.3,8.2H60.5z M65.8,210.1c-0.5,0-1-0.2-1.3-0.6
		c-0.3-0.4-0.5-1-0.5-1.8c0-0.8,0.2-1.4,0.5-1.8c0.3-0.4,0.8-0.6,1.3-0.6c0.5,0,1,0.2,1.3,0.6c0.3,0.4,0.5,1,0.5,1.8
		c0,0.8-0.2,1.4-0.5,1.8S66.3,210.1,65.8,210.1z M65.8,209.5c0.3,0,0.6-0.2,0.7-0.5c0.2-0.3,0.3-0.8,0.3-1.4s-0.1-1.1-0.3-1.4
		s-0.4-0.5-0.7-0.5c-0.3,0-0.6,0.2-0.8,0.5s-0.3,0.8-0.3,1.4s0.1,1.1,0.3,1.4C65.2,209.4,65.5,209.5,65.8,209.5z"/>
</g>
<g class="st0">
	<path class="st1" d="M51.8,262.9h-1v2.1h-0.9v-2.1h-3.4v-0.6l3.3-4.9h1.1v4.8h1V262.9z M49.8,262.1v-2.2c0-0.2,0-0.5,0-0.7
		c0-0.3,0-0.5,0-0.7h0c-0.1,0.2-0.2,0.4-0.3,0.5c-0.1,0.2-0.2,0.4-0.3,0.5l-1.8,2.6H49.8z"/>
	<path class="st1" d="M55.1,265.1c-0.8,0-1.4-0.3-1.8-1c-0.4-0.7-0.6-1.7-0.6-3s0.2-2.3,0.6-2.9c0.4-0.7,1-1,1.8-1
		c0.8,0,1.4,0.3,1.8,1s0.6,1.7,0.6,2.9s-0.2,2.3-0.6,3C56.5,264.8,55.9,265.1,55.1,265.1z M55.1,264.4c0.2,0,0.4-0.1,0.6-0.2
		c0.2-0.1,0.3-0.3,0.5-0.6s0.2-0.6,0.3-1c0.1-0.4,0.1-0.9,0.1-1.4c0-0.6,0-1-0.1-1.4c-0.1-0.4-0.2-0.7-0.3-1
		c-0.1-0.3-0.3-0.4-0.5-0.6c-0.2-0.1-0.4-0.2-0.6-0.2c-0.2,0-0.4,0.1-0.6,0.2s-0.3,0.3-0.5,0.6c-0.1,0.3-0.2,0.6-0.3,1
		c-0.1,0.4-0.1,0.9-0.1,1.4c0,1.1,0.1,1.9,0.4,2.4C54.3,264.1,54.7,264.4,55.1,264.4z"/>
	<path class="st1" d="M60.3,262c-0.5,0-1-0.2-1.3-0.6c-0.3-0.4-0.5-1-0.5-1.8c0-0.8,0.2-1.4,0.5-1.8c0.3-0.4,0.8-0.6,1.3-0.6
		c0.5,0,1,0.2,1.3,0.6s0.5,1,0.5,1.8c0,0.8-0.2,1.4-0.5,1.8C61.3,261.7,60.9,262,60.3,262z M60.3,261.3c0.3,0,0.6-0.2,0.7-0.5
		c0.2-0.3,0.3-0.8,0.3-1.4s-0.1-1.1-0.3-1.4c-0.2-0.3-0.4-0.5-0.7-0.5c-0.3,0-0.6,0.2-0.8,0.5c-0.2,0.3-0.3,0.8-0.3,1.4
		s0.1,1.1,0.3,1.4C59.8,261.2,60,261.3,60.3,261.3z M60.5,265.1l4.3-8.2h0.7l-4.3,8.2H60.5z M65.8,265.1c-0.5,0-1-0.2-1.3-0.6
		c-0.3-0.4-0.5-1-0.5-1.8c0-0.8,0.2-1.4,0.5-1.8c0.3-0.4,0.8-0.6,1.3-0.6c0.5,0,1,0.2,1.3,0.6c0.3,0.4,0.5,1,0.5,1.8
		c0,0.8-0.2,1.4-0.5,1.8S66.3,265.1,65.8,265.1z M65.8,264.5c0.3,0,0.6-0.2,0.7-0.5c0.2-0.3,0.3-0.8,0.3-1.4s-0.1-1.1-0.3-1.4
		s-0.4-0.5-0.7-0.5c-0.3,0-0.6,0.2-0.8,0.5s-0.3,0.8-0.3,1.4s0.1,1.1,0.3,1.4C65.2,264.4,65.5,264.5,65.8,264.5z"/>
</g>
<g class="st0">
	<path class="st1" d="M46.7,319.4c0.6-0.6,1.1-1.1,1.5-1.6c0.4-0.5,0.8-0.9,1.1-1.3c0.3-0.4,0.5-0.8,0.7-1.1s0.2-0.7,0.2-1
		c0-0.4-0.1-0.8-0.4-1.1c-0.2-0.3-0.6-0.4-1.1-0.4c-0.3,0-0.6,0.1-0.9,0.3c-0.3,0.2-0.5,0.4-0.7,0.7l-0.6-0.6c0.3-0.4,0.7-0.6,1-0.8
		c0.4-0.2,0.8-0.3,1.3-0.3c0.7,0,1.3,0.2,1.7,0.6c0.4,0.4,0.6,1,0.6,1.6c0,0.4-0.1,0.7-0.2,1.1c-0.2,0.4-0.4,0.7-0.6,1.1
		c-0.3,0.4-0.6,0.8-1,1.2s-0.8,0.9-1.3,1.3c0.2,0,0.4,0,0.6,0c0.2,0,0.4,0,0.6,0h2.2v0.9h-4.9V319.4z"/>
	<path class="st1" d="M55.1,320.1c-0.8,0-1.4-0.3-1.8-1c-0.4-0.7-0.6-1.7-0.6-3s0.2-2.3,0.6-2.9c0.4-0.7,1-1,1.8-1
		c0.8,0,1.4,0.3,1.8,1s0.6,1.7,0.6,2.9s-0.2,2.3-0.6,3C56.5,319.8,55.9,320.1,55.1,320.1z M55.1,319.4c0.2,0,0.4-0.1,0.6-0.2
		c0.2-0.1,0.3-0.3,0.5-0.6s0.2-0.6,0.3-1c0.1-0.4,0.1-0.9,0.1-1.4c0-0.6,0-1-0.1-1.4c-0.1-0.4-0.2-0.7-0.3-1
		c-0.1-0.3-0.3-0.4-0.5-0.6c-0.2-0.1-0.4-0.2-0.6-0.2c-0.2,0-0.4,0.1-0.6,0.2s-0.3,0.3-0.5,0.6c-0.1,0.3-0.2,0.6-0.3,1
		c-0.1,0.4-0.1,0.9-0.1,1.4c0,1.1,0.1,1.9,0.4,2.4C54.3,319.1,54.7,319.4,55.1,319.4z"/>
	<path class="st1" d="M60.3,317c-0.5,0-1-0.2-1.3-0.6c-0.3-0.4-0.5-1-0.5-1.8c0-0.8,0.2-1.4,0.5-1.8c0.3-0.4,0.8-0.6,1.3-0.6
		c0.5,0,1,0.2,1.3,0.6s0.5,1,0.5,1.8c0,0.8-0.2,1.4-0.5,1.8C61.3,316.7,60.9,317,60.3,317z M60.3,316.3c0.3,0,0.6-0.2,0.7-0.5
		c0.2-0.3,0.3-0.8,0.3-1.4s-0.1-1.1-0.3-1.4c-0.2-0.3-0.4-0.5-0.7-0.5c-0.3,0-0.6,0.2-0.8,0.5c-0.2,0.3-0.3,0.8-0.3,1.4
		s0.1,1.1,0.3,1.4C59.8,316.2,60,316.3,60.3,316.3z M60.5,320.1l4.3-8.2h0.7l-4.3,8.2H60.5z M65.8,320.1c-0.5,0-1-0.2-1.3-0.6
		c-0.3-0.4-0.5-1-0.5-1.8c0-0.8,0.2-1.4,0.5-1.8c0.3-0.4,0.8-0.6,1.3-0.6c0.5,0,1,0.2,1.3,0.6c0.3,0.4,0.5,1,0.5,1.8
		c0,0.8-0.2,1.4-0.5,1.8S66.3,320.1,65.8,320.1z M65.8,319.5c0.3,0,0.6-0.2,0.7-0.5c0.2-0.3,0.3-0.8,0.3-1.4s-0.1-1.1-0.3-1.4
		s-0.4-0.5-0.7-0.5c-0.3,0-0.6,0.2-0.8,0.5s-0.3,0.8-0.3,1.4s0.1,1.1,0.3,1.4C65.2,319.4,65.5,319.5,65.8,319.5z"/>
</g>
<g class="st0">
	<path class="st1" d="M55.1,375.1c-0.8,0-1.4-0.3-1.8-1c-0.4-0.7-0.6-1.7-0.6-3s0.2-2.3,0.6-2.9c0.4-0.7,1-1,1.8-1
		c0.8,0,1.4,0.3,1.8,1s0.6,1.7,0.6,2.9s-0.2,2.3-0.6,3C56.5,374.8,55.9,375.1,55.1,375.1z M55.1,374.4c0.2,0,0.4-0.1,0.6-0.2
		c0.2-0.1,0.3-0.3,0.5-0.6s0.2-0.6,0.3-1c0.1-0.4,0.1-0.9,0.1-1.4c0-0.6,0-1-0.1-1.4c-0.1-0.4-0.2-0.7-0.3-1
		c-0.1-0.3-0.3-0.4-0.5-0.6c-0.2-0.1-0.4-0.2-0.6-0.2c-0.2,0-0.4,0.1-0.6,0.2s-0.3,0.3-0.5,0.6c-0.1,0.3-0.2,0.6-0.3,1
		c-0.1,0.4-0.1,0.9-0.1,1.4c0,1.1,0.1,1.9,0.4,2.4C54.3,374.1,54.7,374.4,55.1,374.4z"/>
	<path class="st1" d="M60.3,372c-0.5,0-1-0.2-1.3-0.6c-0.3-0.4-0.5-1-0.5-1.8c0-0.8,0.2-1.4,0.5-1.8c0.3-0.4,0.8-0.6,1.3-0.6
		c0.5,0,1,0.2,1.3,0.6s0.5,1,0.5,1.8c0,0.8-0.2,1.4-0.5,1.8C61.3,371.7,60.9,372,60.3,372z M60.3,371.3c0.3,0,0.6-0.2,0.7-0.5
		c0.2-0.3,0.3-0.8,0.3-1.4s-0.1-1.1-0.3-1.4c-0.2-0.3-0.4-0.5-0.7-0.5c-0.3,0-0.6,0.2-0.8,0.5c-0.2,0.3-0.3,0.8-0.3,1.4
		s0.1,1.1,0.3,1.4C59.8,371.2,60,371.3,60.3,371.3z M60.5,375.1l4.3-8.2h0.7l-4.3,8.2H60.5z M65.8,375.1c-0.5,0-1-0.2-1.3-0.6
		c-0.3-0.4-0.5-1-0.5-1.8c0-0.8,0.2-1.4,0.5-1.8c0.3-0.4,0.8-0.6,1.3-0.6c0.5,0,1,0.2,1.3,0.6c0.3,0.4,0.5,1,0.5,1.8
		c0,0.8-0.2,1.4-0.5,1.8S66.3,375.1,65.8,375.1z M65.8,374.5c0.3,0,0.6-0.2,0.7-0.5c0.2-0.3,0.3-0.8,0.3-1.4s-0.1-1.1-0.3-1.4
		s-0.4-0.5-0.7-0.5c-0.3,0-0.6,0.2-0.8,0.5s-0.3,0.8-0.3,1.4s0.1,1.1,0.3,1.4C65.2,374.4,65.5,374.5,65.8,374.5z"/>
</g>
<g class="st0">
	<path class="st1" d="M248.5,402.2h1.8v-5.6h-1.4v-0.6c0.4-0.1,0.7-0.1,0.9-0.2c0.3-0.1,0.5-0.2,0.7-0.3h0.8v6.8h1.6v0.8h-4.3V402.2
		z"/>
	<path class="st1" d="M256.5,403.1c-0.8,0-1.4-0.3-1.8-1c-0.4-0.7-0.6-1.7-0.6-3s0.2-2.3,0.6-2.9c0.4-0.7,1-1,1.8-1
		c0.8,0,1.4,0.3,1.8,1s0.6,1.7,0.6,2.9s-0.2,2.3-0.6,3C257.9,402.8,257.3,403.1,256.5,403.1z M256.5,402.4c0.2,0,0.4-0.1,0.6-0.2
		c0.2-0.1,0.3-0.3,0.5-0.6s0.2-0.6,0.3-1c0.1-0.4,0.1-0.9,0.1-1.4c0-0.6,0-1-0.1-1.4c-0.1-0.4-0.2-0.7-0.3-1
		c-0.1-0.3-0.3-0.4-0.5-0.6c-0.2-0.1-0.4-0.2-0.6-0.2c-0.2,0-0.4,0.1-0.6,0.2c-0.2,0.1-0.3,0.3-0.5,0.6c-0.1,0.3-0.2,0.6-0.3,1
		c-0.1,0.4-0.1,0.9-0.1,1.4c0,1.1,0.1,1.9,0.4,2.4C255.7,402.1,256,402.4,256.5,402.4z"/>
	<path class="st1" d="M260.2,398.1c0-0.2,0.1-0.4,0.2-0.6c0.1-0.1,0.3-0.2,0.5-0.2c0.2,0,0.4,0.1,0.5,0.2c0.1,0.1,0.2,0.3,0.2,0.6
		c0,0.2-0.1,0.4-0.2,0.5c-0.1,0.1-0.3,0.2-0.5,0.2c-0.2,0-0.4-0.1-0.5-0.2C260.3,398.5,260.2,398.3,260.2,398.1z M260.2,402.4
		c0-0.2,0.1-0.4,0.2-0.6c0.1-0.1,0.3-0.2,0.5-0.2c0.2,0,0.4,0.1,0.5,0.2c0.1,0.1,0.2,0.3,0.2,0.6c0,0.2-0.1,0.4-0.2,0.5
		c-0.1,0.1-0.3,0.2-0.5,0.2c-0.2,0-0.4-0.1-0.5-0.2C260.3,402.8,260.2,402.6,260.2,402.4z"/>
	<path class="st1" d="M263.4,402.2h1.8v-5.6h-1.4v-0.6c0.4-0.1,0.7-0.1,0.9-0.2c0.3-0.1,0.5-0.2,0.7-0.3h0.8v6.8h1.6v0.8h-4.3V402.2
		z"/>
	<path class="st1" d="M268.9,401c0-0.2,0-0.5,0.1-0.7c0.1-0.2,0.2-0.4,0.3-0.6c0.1-0.2,0.3-0.3,0.5-0.5s0.4-0.2,0.5-0.3v0
		c-0.3-0.2-0.5-0.4-0.7-0.7s-0.3-0.6-0.3-1c0-0.3,0.1-0.6,0.2-0.8c0.1-0.2,0.3-0.4,0.5-0.6c0.2-0.2,0.4-0.3,0.7-0.4
		c0.3-0.1,0.6-0.1,0.9-0.1c0.3,0,0.6,0,0.9,0.1c0.3,0.1,0.5,0.2,0.7,0.4c0.2,0.2,0.3,0.4,0.4,0.6s0.1,0.5,0.1,0.8
		c0,0.2,0,0.4-0.1,0.6c-0.1,0.2-0.2,0.4-0.3,0.5s-0.2,0.3-0.3,0.4s-0.2,0.2-0.4,0.3v0c0.2,0.1,0.3,0.2,0.5,0.3s0.3,0.3,0.4,0.4
		c0.1,0.2,0.2,0.3,0.3,0.5s0.1,0.4,0.1,0.7c0,0.3-0.1,0.6-0.2,0.8s-0.3,0.5-0.5,0.6c-0.2,0.2-0.5,0.3-0.8,0.4
		c-0.3,0.1-0.6,0.2-1,0.2c-0.4,0-0.7-0.1-1-0.2c-0.3-0.1-0.6-0.2-0.8-0.4c-0.2-0.2-0.4-0.4-0.5-0.7S268.9,401.3,268.9,401z
		 M269.8,400.9c0,0.2,0,0.4,0.1,0.6s0.2,0.3,0.3,0.5s0.3,0.2,0.5,0.3c0.2,0.1,0.4,0.1,0.6,0.1c0.4,0,0.8-0.1,1.1-0.4
		c0.3-0.2,0.4-0.6,0.4-1c0-0.2-0.1-0.5-0.2-0.6c-0.1-0.2-0.3-0.3-0.5-0.5s-0.4-0.3-0.7-0.4c-0.3-0.1-0.5-0.2-0.8-0.3
		c-0.3,0.2-0.6,0.5-0.8,0.7C269.9,400.3,269.8,400.6,269.8,400.9z M272,398.8c0.3-0.2,0.5-0.5,0.6-0.7c0.1-0.3,0.2-0.5,0.2-0.8
		c0-0.4-0.1-0.7-0.3-1c-0.2-0.3-0.6-0.4-1-0.4c-0.4,0-0.7,0.1-0.9,0.3c-0.2,0.2-0.3,0.5-0.3,0.9c0,0.2,0,0.4,0.1,0.6
		c0.1,0.2,0.2,0.3,0.4,0.4c0.2,0.1,0.4,0.2,0.6,0.3C271.5,398.6,271.7,398.7,272,398.8z"/>
	<path class="st1" d="M275.1,401.5c0-0.6,0.3-1.1,0.9-1.5c0.6-0.3,1.5-0.6,2.7-0.7c0-0.2,0-0.4-0.1-0.5c0-0.2-0.1-0.3-0.2-0.5
		c-0.1-0.1-0.2-0.2-0.4-0.3s-0.3-0.1-0.6-0.1c-0.3,0-0.7,0.1-1,0.2s-0.6,0.3-0.8,0.4l-0.4-0.7c0.3-0.2,0.6-0.3,1-0.5
		c0.4-0.2,0.8-0.2,1.3-0.2c0.7,0,1.2,0.2,1.5,0.7c0.3,0.4,0.5,1,0.5,1.7v3.6h-0.8l-0.1-0.7h0c-0.3,0.2-0.6,0.4-0.9,0.6
		c-0.3,0.2-0.7,0.2-1,0.2c-0.5,0-0.9-0.1-1.2-0.4C275.2,402.4,275.1,402,275.1,401.5z M276,401.4c0,0.3,0.1,0.6,0.3,0.7
		c0.2,0.1,0.4,0.2,0.7,0.2c0.3,0,0.5-0.1,0.8-0.2s0.5-0.3,0.8-0.6V400c-0.5,0.1-0.9,0.1-1.2,0.2c-0.3,0.1-0.6,0.2-0.8,0.3
		c-0.2,0.1-0.4,0.3-0.4,0.4C276.1,401.1,276,401.2,276,401.4z"/>
	<path class="st1" d="M281.5,397.2h0.8l0.1,0.8h0c0.3-0.3,0.5-0.5,0.8-0.7c0.3-0.2,0.6-0.3,1-0.3c0.4,0,0.8,0.1,1.1,0.3
		c0.3,0.2,0.4,0.5,0.6,0.8c0.3-0.3,0.6-0.6,0.9-0.8s0.6-0.3,1-0.3c0.6,0,1,0.2,1.3,0.6c0.3,0.4,0.4,1,0.4,1.7v3.7h-1v-3.6
		c0-0.6-0.1-0.9-0.3-1.2c-0.2-0.2-0.4-0.4-0.8-0.4c-0.4,0-0.9,0.3-1.5,0.9v4.2h-1v-3.6c0-0.6-0.1-0.9-0.3-1.2
		c-0.2-0.2-0.5-0.4-0.8-0.4c-0.4,0-0.9,0.3-1.5,0.9v4.2h-1V397.2z"/>
</g>
<g class="st0">
	<path class="st1" d="M567.5,402.2h1.8v-5.6h-1.4v-0.6c0.4-0.1,0.7-0.1,0.9-0.2c0.3-0.1,0.5-0.2,0.7-0.3h0.8v6.8h1.6v0.8h-4.3V402.2
		z"/>
	<path class="st1" d="M575.5,403.1c-0.8,0-1.4-0.3-1.8-1c-0.4-0.7-0.6-1.7-0.6-3s0.2-2.3,0.6-2.9c0.4-0.7,1-1,1.8-1
		c0.8,0,1.4,0.3,1.8,1c0.4,0.7,0.6,1.7,0.6,2.9s-0.2,2.3-0.6,3C576.9,402.8,576.3,403.1,575.5,403.1z M575.5,402.4
		c0.2,0,0.4-0.1,0.6-0.2c0.2-0.1,0.3-0.3,0.5-0.6s0.2-0.6,0.3-1c0.1-0.4,0.1-0.9,0.1-1.4c0-0.6,0-1-0.1-1.4s-0.2-0.7-0.3-1
		c-0.1-0.3-0.3-0.4-0.5-0.6c-0.2-0.1-0.4-0.2-0.6-0.2s-0.4,0.1-0.6,0.2c-0.2,0.1-0.3,0.3-0.5,0.6c-0.1,0.3-0.2,0.6-0.3,1
		c-0.1,0.4-0.1,0.9-0.1,1.4c0,1.1,0.1,1.9,0.4,2.4S575,402.4,575.5,402.4z"/>
	<path class="st1" d="M579.2,398.1c0-0.2,0.1-0.4,0.2-0.6c0.1-0.1,0.3-0.2,0.5-0.2c0.2,0,0.4,0.1,0.5,0.2c0.1,0.1,0.2,0.3,0.2,0.6
		c0,0.2-0.1,0.4-0.2,0.5c-0.1,0.1-0.3,0.2-0.5,0.2c-0.2,0-0.4-0.1-0.5-0.2C579.3,398.5,579.2,398.3,579.2,398.1z M579.2,402.4
		c0-0.2,0.1-0.4,0.2-0.6c0.1-0.1,0.3-0.2,0.5-0.2c0.2,0,0.4,0.1,0.5,0.2c0.1,0.1,0.2,0.3,0.2,0.6c0,0.2-0.1,0.4-0.2,0.5
		c-0.1,0.1-0.3,0.2-0.5,0.2c-0.2,0-0.4-0.1-0.5-0.2C579.3,402.8,579.2,402.6,579.2,402.4z"/>
	<path class="st1" d="M581.9,402.4c0.6-0.6,1.1-1.1,1.5-1.6c0.4-0.5,0.8-0.9,1.1-1.3c0.3-0.4,0.5-0.8,0.7-1.1s0.2-0.7,0.2-1
		c0-0.4-0.1-0.8-0.4-1.1c-0.2-0.3-0.6-0.4-1.1-0.4c-0.3,0-0.6,0.1-0.9,0.3c-0.3,0.2-0.5,0.4-0.7,0.7l-0.6-0.6c0.3-0.4,0.7-0.6,1-0.8
		c0.4-0.2,0.8-0.3,1.3-0.3c0.7,0,1.3,0.2,1.7,0.6c0.4,0.4,0.6,1,0.6,1.6c0,0.4-0.1,0.7-0.2,1.1c-0.2,0.4-0.4,0.7-0.6,1.1
		c-0.3,0.4-0.6,0.8-1,1.2s-0.8,0.9-1.3,1.3c0.2,0,0.4,0,0.6,0c0.2,0,0.4,0,0.6,0h2.2v0.9h-4.9V402.4z"/>
	<path class="st1" d="M588.2,401.4c0.2,0.2,0.5,0.5,0.8,0.6c0.3,0.2,0.7,0.3,1.1,0.3c0.5,0,0.8-0.1,1.1-0.4s0.4-0.6,0.4-1
		c0-0.2,0-0.4-0.1-0.6c-0.1-0.2-0.2-0.3-0.4-0.5c-0.2-0.1-0.4-0.2-0.8-0.3c-0.3-0.1-0.7-0.1-1.2-0.1v-0.8c0.4,0,0.8,0,1-0.1
		c0.3-0.1,0.5-0.2,0.7-0.3s0.3-0.3,0.4-0.5c0.1-0.2,0.1-0.4,0.1-0.6c0-0.4-0.1-0.7-0.4-0.9c-0.2-0.2-0.6-0.3-1-0.3
		c-0.3,0-0.6,0.1-0.9,0.2c-0.3,0.1-0.5,0.3-0.8,0.6l-0.5-0.6c0.3-0.3,0.6-0.5,1-0.7c0.4-0.2,0.8-0.3,1.2-0.3c0.3,0,0.6,0,0.9,0.1
		c0.3,0.1,0.5,0.2,0.7,0.4s0.4,0.4,0.5,0.6c0.1,0.2,0.2,0.5,0.2,0.8c0,0.5-0.1,0.8-0.4,1.1s-0.6,0.5-1,0.7v0
		c0.2,0.1,0.4,0.1,0.6,0.2c0.2,0.1,0.4,0.2,0.5,0.4s0.3,0.4,0.4,0.6s0.1,0.5,0.1,0.7c0,0.3-0.1,0.6-0.2,0.9
		c-0.1,0.3-0.3,0.5-0.5,0.7c-0.2,0.2-0.5,0.3-0.8,0.4c-0.3,0.1-0.6,0.1-1,0.1c-0.3,0-0.6,0-0.8-0.1c-0.3-0.1-0.5-0.1-0.7-0.2
		c-0.2-0.1-0.4-0.2-0.6-0.3s-0.3-0.3-0.4-0.4L588.2,401.4z"/>
	<path class="st1" d="M594.1,401.5c0-0.6,0.3-1.1,0.9-1.5c0.6-0.3,1.5-0.6,2.7-0.7c0-0.2,0-0.4-0.1-0.5c0-0.2-0.1-0.3-0.2-0.5
		s-0.2-0.2-0.4-0.3c-0.2-0.1-0.3-0.1-0.6-0.1c-0.3,0-0.7,0.1-1,0.2s-0.6,0.3-0.8,0.4l-0.4-0.7c0.3-0.2,0.6-0.3,1-0.5
		c0.4-0.2,0.8-0.2,1.3-0.2c0.7,0,1.2,0.2,1.5,0.7c0.3,0.4,0.5,1,0.5,1.7v3.6h-0.8l-0.1-0.7h0c-0.3,0.2-0.6,0.4-0.9,0.6
		c-0.3,0.2-0.7,0.2-1,0.2c-0.5,0-0.9-0.1-1.2-0.4C594.2,402.4,594.1,402,594.1,401.5z M595,401.4c0,0.3,0.1,0.6,0.3,0.7
		c0.2,0.1,0.4,0.2,0.7,0.2c0.3,0,0.5-0.1,0.8-0.2s0.5-0.3,0.8-0.6V400c-0.5,0.1-0.9,0.1-1.2,0.2c-0.3,0.1-0.6,0.2-0.8,0.3
		s-0.4,0.3-0.4,0.4C595.1,401.1,595,401.2,595,401.4z"/>
	<path class="st1" d="M600.5,397.2h0.8l0.1,0.8h0c0.3-0.3,0.5-0.5,0.8-0.7c0.3-0.2,0.6-0.3,1-0.3c0.4,0,0.8,0.1,1,0.3
		c0.3,0.2,0.4,0.5,0.6,0.8c0.3-0.3,0.6-0.6,0.9-0.8c0.3-0.2,0.6-0.3,1-0.3c0.6,0,1,0.2,1.3,0.6c0.3,0.4,0.4,1,0.4,1.7v3.7h-1v-3.6
		c0-0.6-0.1-0.9-0.3-1.2s-0.4-0.4-0.8-0.4c-0.4,0-0.9,0.3-1.5,0.9v4.2h-1v-3.6c0-0.6-0.1-0.9-0.3-1.2c-0.2-0.2-0.5-0.4-0.8-0.4
		c-0.4,0-0.9,0.3-1.5,0.9v4.2h-1V397.2z"/>
</g>
<g class="st0">
	<path class="st1" d="M970.5,402.2h1.8v-5.6h-1.4v-0.6c0.4-0.1,0.7-0.1,0.9-0.2c0.3-0.1,0.5-0.2,0.7-0.3h0.8v6.8h1.6v0.8h-4.3V402.2
		z"/>
	<path class="st1" d="M978.5,403.1c-0.8,0-1.4-0.3-1.8-1c-0.4-0.7-0.6-1.7-0.6-3s0.2-2.3,0.6-2.9c0.4-0.7,1-1,1.8-1
		c0.8,0,1.4,0.3,1.8,1c0.4,0.7,0.6,1.7,0.6,2.9s-0.2,2.3-0.6,3C979.9,402.8,979.3,403.1,978.5,403.1z M978.5,402.4
		c0.2,0,0.4-0.1,0.6-0.2c0.2-0.1,0.3-0.3,0.5-0.6s0.2-0.6,0.3-1c0.1-0.4,0.1-0.9,0.1-1.4c0-0.6,0-1-0.1-1.4s-0.2-0.7-0.3-1
		c-0.1-0.3-0.3-0.4-0.5-0.6c-0.2-0.1-0.4-0.2-0.6-0.2s-0.4,0.1-0.6,0.2c-0.2,0.1-0.3,0.3-0.5,0.6c-0.1,0.3-0.2,0.6-0.3,1
		c-0.1,0.4-0.1,0.9-0.1,1.4c0,1.1,0.1,1.9,0.4,2.4S978,402.4,978.5,402.4z"/>
	<path class="st1" d="M982.2,398.1c0-0.2,0.1-0.4,0.2-0.6c0.1-0.1,0.3-0.2,0.5-0.2c0.2,0,0.4,0.1,0.5,0.2c0.1,0.1,0.2,0.3,0.2,0.6
		c0,0.2-0.1,0.4-0.2,0.5c-0.1,0.1-0.3,0.2-0.5,0.2c-0.2,0-0.4-0.1-0.5-0.2C982.3,398.5,982.2,398.3,982.2,398.1z M982.2,402.4
		c0-0.2,0.1-0.4,0.2-0.6c0.1-0.1,0.3-0.2,0.5-0.2c0.2,0,0.4,0.1,0.5,0.2c0.1,0.1,0.2,0.3,0.2,0.6c0,0.2-0.1,0.4-0.2,0.5
		c-0.1,0.1-0.3,0.2-0.5,0.2c-0.2,0-0.4-0.1-0.5-0.2C982.3,402.8,982.2,402.6,982.2,402.4z"/>
	<path class="st1" d="M984.9,402.4c0.6-0.6,1.1-1.1,1.5-1.6c0.4-0.5,0.8-0.9,1.1-1.3c0.3-0.4,0.5-0.8,0.7-1.1s0.2-0.7,0.2-1
		c0-0.4-0.1-0.8-0.4-1.1c-0.2-0.3-0.6-0.4-1.1-0.4c-0.3,0-0.6,0.1-0.9,0.3c-0.3,0.2-0.5,0.4-0.7,0.7l-0.6-0.6c0.3-0.4,0.7-0.6,1-0.8
		c0.4-0.2,0.8-0.3,1.3-0.3c0.7,0,1.3,0.2,1.7,0.6c0.4,0.4,0.6,1,0.6,1.6c0,0.4-0.1,0.7-0.2,1.1c-0.2,0.4-0.4,0.7-0.6,1.1
		c-0.3,0.4-0.6,0.8-1,1.2s-0.8,0.9-1.3,1.3c0.2,0,0.4,0,0.6,0c0.2,0,0.4,0,0.6,0h2.2v0.9h-4.9V402.4z"/>
	<path class="st1" d="M990.9,401c0-0.2,0-0.5,0.1-0.7c0.1-0.2,0.2-0.4,0.3-0.6s0.3-0.3,0.5-0.5s0.3-0.2,0.5-0.3v0
		c-0.3-0.2-0.5-0.4-0.7-0.7s-0.3-0.6-0.3-1c0-0.3,0.1-0.6,0.2-0.8c0.1-0.2,0.3-0.4,0.5-0.6s0.4-0.3,0.7-0.4c0.3-0.1,0.6-0.1,0.9-0.1
		c0.3,0,0.6,0,0.9,0.1c0.3,0.1,0.5,0.2,0.7,0.4c0.2,0.2,0.3,0.4,0.4,0.6c0.1,0.3,0.2,0.5,0.2,0.8c0,0.2,0,0.4-0.1,0.6
		c-0.1,0.2-0.2,0.4-0.3,0.5c-0.1,0.2-0.2,0.3-0.3,0.4s-0.2,0.2-0.4,0.3v0c0.2,0.1,0.3,0.2,0.5,0.3s0.3,0.3,0.4,0.4
		c0.1,0.2,0.2,0.3,0.3,0.5s0.1,0.4,0.1,0.7c0,0.3-0.1,0.6-0.2,0.8s-0.3,0.5-0.5,0.6c-0.2,0.2-0.5,0.3-0.8,0.4
		c-0.3,0.1-0.6,0.2-1,0.2c-0.4,0-0.7-0.1-1-0.2c-0.3-0.1-0.6-0.2-0.8-0.4c-0.2-0.2-0.4-0.4-0.5-0.7S990.9,401.3,990.9,401z
		 M991.8,400.9c0,0.2,0,0.4,0.1,0.6s0.2,0.3,0.3,0.5c0.1,0.1,0.3,0.2,0.5,0.3c0.2,0.1,0.4,0.1,0.6,0.1c0.4,0,0.8-0.1,1.1-0.4
		s0.4-0.6,0.4-1c0-0.2-0.1-0.5-0.2-0.6c-0.1-0.2-0.3-0.3-0.5-0.5c-0.2-0.1-0.4-0.3-0.7-0.4c-0.3-0.1-0.5-0.2-0.8-0.3
		c-0.3,0.2-0.6,0.5-0.8,0.7C991.9,400.3,991.8,400.6,991.8,400.9z M994,398.8c0.3-0.2,0.5-0.5,0.6-0.7c0.1-0.3,0.2-0.5,0.2-0.8
		c0-0.4-0.1-0.7-0.3-1s-0.6-0.4-1-0.4c-0.4,0-0.7,0.1-0.9,0.3c-0.2,0.2-0.3,0.5-0.3,0.9c0,0.2,0,0.4,0.1,0.6
		c0.1,0.2,0.2,0.3,0.4,0.4c0.2,0.1,0.4,0.2,0.6,0.3C993.5,398.6,993.7,398.7,994,398.8z"/>
	<path class="st1" d="M997.1,401.5c0-0.6,0.3-1.1,0.9-1.5c0.6-0.3,1.5-0.6,2.7-0.7c0-0.2,0-0.4-0.1-0.5c0-0.2-0.1-0.3-0.2-0.5
		s-0.2-0.2-0.4-0.3c-0.2-0.1-0.3-0.1-0.6-0.1c-0.3,0-0.7,0.1-1,0.2s-0.6,0.3-0.8,0.4l-0.4-0.7c0.3-0.2,0.6-0.3,1-0.5
		c0.4-0.2,0.8-0.2,1.3-0.2c0.7,0,1.2,0.2,1.5,0.7c0.3,0.4,0.5,1,0.5,1.7v3.6h-0.8l-0.1-0.7h0c-0.3,0.2-0.6,0.4-0.9,0.6
		c-0.3,0.2-0.7,0.2-1,0.2c-0.5,0-0.9-0.1-1.2-0.4C997.2,402.4,997.1,402,997.1,401.5z M998,401.4c0,0.3,0.1,0.6,0.3,0.7
		c0.2,0.1,0.4,0.2,0.7,0.2c0.3,0,0.5-0.1,0.8-0.2s0.5-0.3,0.8-0.6V400c-0.5,0.1-0.9,0.1-1.2,0.2c-0.3,0.1-0.6,0.2-0.8,0.3
		s-0.4,0.3-0.4,0.4C998.1,401.1,998,401.2,998,401.4z"/>
	<path class="st1" d="M1003.5,397.2h0.8l0.1,0.8h0c0.3-0.3,0.5-0.5,0.8-0.7c0.3-0.2,0.6-0.3,1-0.3c0.4,0,0.8,0.1,1,0.3
		c0.3,0.2,0.4,0.5,0.6,0.8c0.3-0.3,0.6-0.6,0.9-0.8c0.3-0.2,0.6-0.3,1-0.3c0.6,0,1,0.2,1.3,0.6c0.3,0.4,0.4,1,0.4,1.7v3.7h-1v-3.6
		c0-0.6-0.1-0.9-0.3-1.2s-0.4-0.4-0.8-0.4c-0.4,0-0.9,0.3-1.5,0.9v4.2h-1v-3.6c0-0.6-0.1-0.9-0.3-1.2c-0.2-0.2-0.5-0.4-0.8-0.4
		c-0.4,0-0.9,0.3-1.5,0.9v4.2h-1V397.2z"/>
</g>
<line id="Line_23" class="st2" x1="86" y1="96.5" x2="1042.2" y2="96.5"/>
<line id="Line_24" class="st2" x1="86" y1="151.5" x2="1042.2" y2="151.5"/>
<line id="Line_25" class="st2" x1="86" y1="207.5" x2="1042.2" y2="207.5"/>
<line id="Line_26" class="st2" x1="86" y1="263.5" x2="1042.2" y2="263.5"/>
<line id="Line_27" class="st2" x1="86" y1="318.5" x2="1042.2" y2="318.5"/>
<line id="Line_28" class="st2" x1="86" y1="374.5" x2="1042.2" y2="374.5"/>
<line id="Line_29" class="st2" x1="279.2" y1="374.2" x2="279.2" y2="382.6"/>
<line id="Line_30" class="st2" x1="584.6" y1="374.2" x2="584.6" y2="382.6"/>
<line id="Line_31" class="st2" x1="991.1" y1="374.2" x2="991.1" y2="382.6"/>
<path id="Path_73" class="st3" d="M86,254.1l86.5-31.1l30.4,19.6L320.6,223l26.7,19.6L471,172.3l90.4,60.6l43.8-9.9l34.7,19.6
	l141.8-70.3l86.4,60.6l36.2-22.3l41.7,22.3l69.4-22.3l27.6,12.4"/>
<path id="Path_73-2" class="st4" d="M87.4,285.9l88.7,21.4l50.3-48.9l63.3,48.9l35.8-21.4l40.2,10.8l25.6-24.3h101l96.6,24.3
	l97.5-38.4l62.9,38.4l43.8-24.3l64.3,34.8h50.4l62.4-65l75.9,43.7"/>
<g id="Group_109" transform="translate(987 37)">
	<g id="Group_10" class="st5">
		<g class="st0">
			<path class="st1" d="M5.8,13L3.8,9.4H2.2V13H1.2V4.5h2.7c0.4,0,0.8,0,1.2,0.1C5.4,4.7,5.7,4.8,6,5c0.3,0.2,0.5,0.4,0.6,0.7
				s0.2,0.7,0.2,1.1c0,0.7-0.2,1.2-0.5,1.6C6,8.9,5.5,9.1,4.9,9.3L7.1,13H5.8z M2.2,8.5h1.4c0.7,0,1.2-0.1,1.5-0.4
				c0.4-0.3,0.5-0.7,0.5-1.2c0-0.6-0.2-1-0.5-1.2C4.8,5.5,4.3,5.3,3.7,5.3H2.2V8.5z"/>
			<path class="st1" d="M8.2,11.4c0-0.7,0.3-1.2,0.9-1.6c0.6-0.4,1.6-0.6,3-0.8c0-0.2,0-0.4-0.1-0.6s-0.1-0.4-0.2-0.5
				c-0.1-0.1-0.2-0.3-0.4-0.4c-0.2-0.1-0.4-0.1-0.6-0.1c-0.4,0-0.7,0.1-1,0.2S9.1,7.9,8.9,8.1L8.4,7.3C8.7,7.2,9.1,7,9.5,6.8
				s0.9-0.3,1.4-0.3c0.8,0,1.3,0.2,1.7,0.7c0.3,0.5,0.5,1.1,0.5,1.9V13h-0.9l-0.1-0.8h0c-0.3,0.3-0.6,0.5-1,0.6
				c-0.4,0.2-0.7,0.3-1.1,0.3c-0.5,0-1-0.2-1.3-0.5C8.3,12.4,8.2,11.9,8.2,11.4z M9.2,11.3c0,0.4,0.1,0.6,0.3,0.8
				c0.2,0.2,0.5,0.2,0.8,0.2c0.3,0,0.6-0.1,0.9-0.2c0.3-0.1,0.6-0.4,0.9-0.6V9.7c-0.5,0.1-1,0.2-1.3,0.2c-0.4,0.1-0.7,0.2-0.9,0.3
				s-0.4,0.3-0.5,0.4S9.2,11.1,9.2,11.3z"/>
			<path class="st1" d="M15.1,6.7H16l0.1,0.9h0c0.3-0.3,0.6-0.6,1-0.8c0.3-0.2,0.7-0.3,1.2-0.3c0.7,0,1.2,0.2,1.5,0.6s0.5,1,0.5,1.8
				v4h-1.1V9.1c0-0.6-0.1-1-0.3-1.3c-0.2-0.3-0.5-0.4-0.9-0.4c-0.3,0-0.6,0.1-0.9,0.2c-0.3,0.2-0.5,0.4-0.9,0.7V13h-1.1V6.7z"/>
			<path class="st1" d="M21.8,14.2c0-0.3,0.1-0.5,0.2-0.8c0.2-0.2,0.4-0.5,0.7-0.7v-0.1c-0.2-0.1-0.3-0.2-0.4-0.4s-0.2-0.4-0.2-0.6
				c0-0.3,0.1-0.5,0.2-0.7s0.3-0.4,0.5-0.5v-0.1c-0.2-0.2-0.4-0.4-0.6-0.7c-0.2-0.3-0.3-0.6-0.3-1c0-0.3,0.1-0.7,0.2-0.9
				c0.1-0.3,0.3-0.5,0.5-0.7c0.2-0.2,0.5-0.3,0.8-0.4c0.3-0.1,0.6-0.2,0.9-0.2c0.2,0,0.3,0,0.5,0c0.2,0,0.3,0.1,0.4,0.1h2.2v0.8
				h-1.3c0.1,0.1,0.3,0.3,0.4,0.6c0.1,0.2,0.1,0.5,0.1,0.7c0,0.3-0.1,0.6-0.2,0.9c-0.1,0.3-0.3,0.5-0.5,0.7
				c-0.2,0.2-0.5,0.3-0.7,0.4C25,10.9,24.7,11,24.4,11c-0.2,0-0.3,0-0.5-0.1c-0.2,0-0.3-0.1-0.5-0.2c-0.1,0.1-0.2,0.2-0.3,0.3
				S23,11.4,23,11.5c0,0.2,0.1,0.4,0.2,0.5c0.2,0.1,0.5,0.2,0.9,0.2h1.2c0.7,0,1.3,0.1,1.7,0.4c0.4,0.2,0.6,0.6,0.6,1.2
				c0,0.3-0.1,0.6-0.2,0.8s-0.4,0.5-0.6,0.7s-0.6,0.4-1,0.5s-0.8,0.2-1.3,0.2c-0.4,0-0.7,0-1.1-0.1c-0.3-0.1-0.6-0.2-0.8-0.3
				c-0.2-0.1-0.4-0.3-0.5-0.5C21.8,14.7,21.8,14.5,21.8,14.2z M22.7,14.1c0,0.3,0.2,0.6,0.5,0.8c0.3,0.2,0.8,0.3,1.3,0.3
				c0.3,0,0.6,0,0.8-0.1c0.2-0.1,0.5-0.2,0.6-0.3c0.2-0.1,0.3-0.3,0.4-0.4c0.1-0.2,0.1-0.3,0.1-0.5c0-0.3-0.1-0.5-0.3-0.6
				c-0.2-0.1-0.5-0.2-0.9-0.2h-1.1c-0.1,0-0.3,0-0.4,0c-0.1,0-0.3,0-0.4-0.1c-0.2,0.2-0.4,0.3-0.5,0.5
				C22.8,13.7,22.7,13.9,22.7,14.1z M24.4,10.3c0.2,0,0.4,0,0.5-0.1s0.3-0.2,0.4-0.3c0.1-0.1,0.2-0.3,0.3-0.5s0.1-0.4,0.1-0.6
				c0-0.5-0.1-0.8-0.4-1.1c-0.3-0.3-0.6-0.4-0.9-0.4c-0.4,0-0.7,0.1-0.9,0.4C23.2,7.9,23,8.3,23,8.8c0,0.2,0,0.4,0.1,0.6
				s0.2,0.3,0.3,0.5c0.1,0.1,0.3,0.2,0.4,0.3C24,10.2,24.2,10.3,24.4,10.3z"/>
			<path class="st1" d="M28.1,9.9c0-0.5,0.1-1,0.2-1.4c0.2-0.4,0.4-0.8,0.6-1c0.3-0.3,0.6-0.5,0.9-0.7c0.3-0.2,0.7-0.2,1.1-0.2
				c0.4,0,0.8,0.1,1.1,0.2s0.6,0.3,0.8,0.6c0.2,0.3,0.4,0.6,0.5,0.9c0.1,0.4,0.2,0.8,0.2,1.2c0,0.2,0,0.4,0,0.6h-4.3
				c0,0.7,0.3,1.2,0.6,1.6s0.9,0.6,1.5,0.6c0.3,0,0.6,0,0.8-0.1c0.3-0.1,0.5-0.2,0.7-0.4l0.4,0.7c-0.3,0.2-0.6,0.3-0.9,0.5
				c-0.3,0.1-0.7,0.2-1.2,0.2c-0.4,0-0.8-0.1-1.2-0.2c-0.4-0.2-0.7-0.4-1-0.7c-0.3-0.3-0.5-0.6-0.6-1C28.2,10.8,28.1,10.4,28.1,9.9z
				 M32.6,9.4c0-0.7-0.1-1.1-0.4-1.5c-0.3-0.3-0.7-0.5-1.2-0.5c-0.2,0-0.4,0-0.6,0.1c-0.2,0.1-0.4,0.2-0.6,0.4
				c-0.2,0.2-0.3,0.4-0.4,0.6s-0.2,0.5-0.2,0.9H32.6z"/>
		</g>
	</g>
	<g id="Group_71" transform="translate(56 14.414) rotate(180)" class="st6">
		<path id="Path_15" class="st1" d="M11,7.4c-0.3,0-0.5-0.1-0.7-0.3L6,2.8L1.7,7.1c-0.4,0.4-1,0.4-1.4,0c-0.4-0.4-0.4-1,0-1.4L6,0
			l5.7,5.7c0.4,0.4,0.4,1,0,1.4C11.5,7.3,11.3,7.4,11,7.4z"/>
	</g>
</g>
<rect id="Rectangle_86" x="780" y="97" class="st7" width="7" height="281"/>
<g id="Group_135" transform="translate(-258 -311)">
	<g class="st0">
		<path class="st1" d="M594.2,351.5h1.1l3.1,5.4l0.9,1.8h0.1c0-0.4-0.1-0.9-0.1-1.3c0-0.5,0-0.9,0-1.4v-4.4h1v8.5h-1.1l-3.1-5.4
			l-0.9-1.8h-0.1c0,0.4,0.1,0.9,0.1,1.3s0,0.9,0,1.3v4.5h-1V351.5z"/>
		<path class="st1" d="M602.2,358.4c0-0.7,0.3-1.2,0.9-1.6s1.6-0.6,3-0.8c0-0.2,0-0.4-0.1-0.6s-0.1-0.4-0.2-0.5s-0.2-0.3-0.4-0.4
			c-0.2-0.1-0.4-0.1-0.6-0.1c-0.4,0-0.7,0.1-1,0.2c-0.3,0.1-0.6,0.3-0.9,0.5l-0.4-0.7c0.3-0.2,0.7-0.4,1.1-0.6s0.9-0.3,1.4-0.3
			c0.8,0,1.3,0.2,1.7,0.7c0.3,0.5,0.5,1.1,0.5,1.9v3.9h-0.9l-0.1-0.8h0c-0.3,0.3-0.6,0.5-1,0.6s-0.7,0.3-1.1,0.3
			c-0.5,0-1-0.2-1.3-0.5C602.3,359.4,602.2,358.9,602.2,358.4z M603.2,358.3c0,0.4,0.1,0.6,0.3,0.8c0.2,0.2,0.5,0.2,0.8,0.2
			c0.3,0,0.6-0.1,0.9-0.2c0.3-0.1,0.6-0.4,0.9-0.6v-1.8c-0.5,0.1-1,0.2-1.3,0.2c-0.4,0.1-0.7,0.2-0.9,0.3c-0.2,0.1-0.4,0.3-0.5,0.4
			C603.3,357.9,603.2,358.1,603.2,358.3z"/>
		<path class="st1" d="M609.1,350.7h1.1v6.3h0l2.7-3.3h1.2l-2.1,2.5l2.4,3.8h-1.2l-1.8-3l-1.2,1.4v1.7h-1.1V350.7z"/>
		<path class="st1" d="M615.1,358.4c0-0.7,0.3-1.2,0.9-1.6s1.6-0.6,3-0.8c0-0.2,0-0.4-0.1-0.6s-0.1-0.4-0.2-0.5s-0.2-0.3-0.4-0.4
			c-0.2-0.1-0.4-0.1-0.6-0.1c-0.4,0-0.7,0.1-1,0.2c-0.3,0.1-0.6,0.3-0.9,0.5l-0.4-0.7c0.3-0.2,0.7-0.4,1.1-0.6s0.9-0.3,1.4-0.3
			c0.8,0,1.3,0.2,1.7,0.7c0.3,0.5,0.5,1.1,0.5,1.9v3.9h-0.9l-0.1-0.8h0c-0.3,0.3-0.6,0.5-1,0.6s-0.7,0.3-1.1,0.3
			c-0.5,0-1-0.2-1.3-0.5C615.3,359.4,615.1,358.9,615.1,358.4z M616.2,358.3c0,0.4,0.1,0.6,0.3,0.8c0.2,0.2,0.5,0.2,0.8,0.2
			c0.3,0,0.6-0.1,0.9-0.2c0.3-0.1,0.6-0.4,0.9-0.6v-1.8c-0.5,0.1-1,0.2-1.3,0.2c-0.4,0.1-0.7,0.2-0.9,0.3c-0.2,0.1-0.4,0.3-0.5,0.4
			C616.2,357.9,616.2,358.1,616.2,358.3z"/>
		<path class="st1" d="M622.1,353.7h0.9l0.1,0.9h0c0.3-0.3,0.6-0.6,0.9-0.8c0.3-0.2,0.7-0.3,1.1-0.3c0.5,0,0.9,0.1,1.1,0.3
			c0.3,0.2,0.5,0.5,0.6,0.9c0.3-0.4,0.7-0.7,1-0.9s0.7-0.3,1.1-0.3c0.6,0,1.1,0.2,1.4,0.6s0.5,1,0.5,1.8v4h-1.1v-3.9
			c0-0.6-0.1-1-0.3-1.3c-0.2-0.3-0.5-0.4-0.9-0.4c-0.5,0-1,0.3-1.6,1v4.6h-1.1v-3.9c0-0.6-0.1-1-0.3-1.3c-0.2-0.3-0.5-0.4-0.9-0.4
			c-0.5,0-1,0.3-1.6,1v4.6h-1.1V353.7z"/>
		<path class="st1" d="M632.6,358.4c0-0.7,0.3-1.2,0.9-1.6s1.6-0.6,3-0.8c0-0.2,0-0.4-0.1-0.6s-0.1-0.4-0.2-0.5s-0.2-0.3-0.4-0.4
			c-0.2-0.1-0.4-0.1-0.6-0.1c-0.4,0-0.7,0.1-1,0.2c-0.3,0.1-0.6,0.3-0.9,0.5l-0.4-0.7c0.3-0.2,0.7-0.4,1.1-0.6s0.9-0.3,1.4-0.3
			c0.8,0,1.3,0.2,1.7,0.7c0.3,0.5,0.5,1.1,0.5,1.9v3.9h-0.9l-0.1-0.8h0c-0.3,0.3-0.6,0.5-1,0.6s-0.7,0.3-1.1,0.3
			c-0.5,0-1-0.2-1.3-0.5C632.7,359.4,632.6,358.9,632.6,358.4z M633.6,358.3c0,0.4,0.1,0.6,0.3,0.8c0.2,0.2,0.5,0.2,0.8,0.2
			c0.3,0,0.6-0.1,0.9-0.2c0.3-0.1,0.6-0.4,0.9-0.6v-1.8c-0.5,0.1-1,0.2-1.3,0.2c-0.4,0.1-0.7,0.2-0.9,0.3c-0.2,0.1-0.4,0.3-0.5,0.4
			C633.7,357.9,633.6,358.1,633.6,358.3z"/>
		<path class="st1" d="M642.1,359.1h1.9V353h-1.5v-0.7c0.4-0.1,0.7-0.2,1-0.3c0.3-0.1,0.5-0.2,0.8-0.4h0.8v7.4h1.7v0.9h-4.7V359.1z"
			/>
	</g>
	<circle id="Ellipse_13" class="st8" cx="580" cy="356" r="4"/>
	<g id="Path_76" transform="translate(658 346)">
		<path class="st9" d="M26.5,18h-17C4.8,18,1,14.2,1,9.5S4.8,1,9.5,1h17C31.2,1,35,4.8,35,9.5S31.2,18,26.5,18z"/>
		<path class="st9" d="M9.5,2C5.4,2,2,5.4,2,9.5S5.4,17,9.5,17h17c4.1,0,7.5-3.4,7.5-7.5S30.6,2,26.5,2H9.5 M9.5,0h17
			C31.7,0,36,4.3,36,9.5S31.7,19,26.5,19h-17C4.3,19,0,14.7,0,9.5S4.3,0,9.5,0z"/>
	</g>
	<g class="st0">
		<path class="st10" d="M666.3,358.6c0.2,0.2,0.4,0.4,0.6,0.5c0.2,0.1,0.5,0.2,0.7,0.2c0.3,0,0.6-0.1,0.8-0.2
			c0.3-0.1,0.5-0.3,0.7-0.6c0.2-0.3,0.4-0.6,0.5-1.1c0.1-0.5,0.2-1,0.2-1.7c-0.3,0.3-0.6,0.6-0.9,0.8s-0.7,0.3-1,0.3
			c-0.7,0-1.3-0.2-1.7-0.6c-0.4-0.4-0.6-1.1-0.6-1.9c0-0.4,0.1-0.8,0.2-1.1c0.1-0.3,0.3-0.6,0.5-0.8c0.2-0.2,0.5-0.4,0.8-0.5
			s0.6-0.2,0.9-0.2c0.4,0,0.8,0.1,1.1,0.2c0.4,0.2,0.7,0.4,0.9,0.7c0.3,0.3,0.5,0.7,0.6,1.2c0.1,0.5,0.2,1.1,0.2,1.7
			c0,0.8-0.1,1.5-0.3,2.1c-0.2,0.6-0.4,1.1-0.7,1.4c-0.3,0.4-0.6,0.6-1,0.8s-0.8,0.3-1.2,0.3c-0.4,0-0.8-0.1-1.2-0.2
			c-0.3-0.2-0.6-0.4-0.8-0.6L666.3,358.6z M668.1,356c0.3,0,0.6-0.1,0.9-0.3s0.6-0.5,0.9-0.9c-0.1-0.8-0.3-1.4-0.6-1.8
			s-0.7-0.6-1.3-0.6c-0.2,0-0.4,0-0.6,0.1c-0.2,0.1-0.3,0.2-0.5,0.4s-0.2,0.4-0.3,0.6c-0.1,0.2-0.1,0.5-0.1,0.7c0,0.5,0.1,1,0.4,1.3
			C667.1,355.8,667.5,356,668.1,356z"/>
		<path class="st10" d="M674.7,360.2c-0.8,0-1.5-0.4-2-1.1c-0.5-0.7-0.7-1.8-0.7-3.2s0.2-2.5,0.7-3.2c0.5-0.7,1.1-1.1,2-1.1
			c0.8,0,1.5,0.4,2,1.1c0.5,0.7,0.7,1.8,0.7,3.2s-0.2,2.5-0.7,3.2S675.5,360.2,674.7,360.2z M674.7,359.3c0.2,0,0.5-0.1,0.7-0.2
			s0.4-0.3,0.5-0.6s0.3-0.6,0.3-1.1s0.1-1,0.1-1.6s0-1.1-0.1-1.6c-0.1-0.4-0.2-0.8-0.3-1.1c-0.1-0.3-0.3-0.5-0.5-0.6
			c-0.2-0.1-0.4-0.2-0.7-0.2s-0.5,0.1-0.7,0.2c-0.2,0.1-0.4,0.3-0.5,0.6c-0.1,0.3-0.3,0.6-0.3,1.1c-0.1,0.4-0.1,1-0.1,1.6
			c0,1.2,0.1,2.1,0.4,2.6S674.2,359.3,674.7,359.3z"/>
		<path class="st10" d="M680.3,356.7c-0.6,0-1.1-0.2-1.4-0.7s-0.5-1.1-0.5-2c0-0.9,0.2-1.5,0.5-2s0.8-0.7,1.4-0.7
			c0.6,0,1,0.2,1.4,0.7s0.5,1.1,0.5,2c0,0.9-0.2,1.5-0.5,2S680.9,356.7,680.3,356.7z M680.3,356c0.3,0,0.6-0.2,0.8-0.5
			c0.2-0.3,0.3-0.9,0.3-1.5s-0.1-1.2-0.3-1.5c-0.2-0.3-0.5-0.5-0.8-0.5c-0.3,0-0.6,0.2-0.8,0.5c-0.2,0.3-0.3,0.8-0.3,1.5
			s0.1,1.2,0.3,1.5C679.7,355.9,680,356,680.3,356z M680.5,360.2l4.7-8.8h0.7l-4.7,8.8H680.5z M686.3,360.2c-0.6,0-1.1-0.2-1.4-0.7
			s-0.5-1.1-0.5-2c0-0.9,0.2-1.5,0.5-2s0.8-0.7,1.4-0.7c0.6,0,1,0.2,1.4,0.7s0.5,1.1,0.5,2c0,0.9-0.2,1.5-0.5,2
			S686.8,360.2,686.3,360.2z M686.3,359.5c0.3,0,0.6-0.2,0.8-0.5c0.2-0.3,0.3-0.9,0.3-1.5s-0.1-1.2-0.3-1.5s-0.5-0.5-0.8-0.5
			c-0.3,0-0.6,0.2-0.8,0.5s-0.3,0.8-0.3,1.5s0.1,1.2,0.3,1.5C685.6,359.3,685.9,359.5,686.3,359.5z"/>
	</g>
</g>
<g id="Group_136" transform="translate(-240 -311)">
	<g class="st0">
		<path class="st1" d="M436.2,351.5h1.1l3.1,5.4l0.9,1.8h0.1c0-0.4-0.1-0.9-0.1-1.3c0-0.5,0-0.9,0-1.4v-4.4h1v8.5h-1.1l-3.1-5.4
			l-0.9-1.8h-0.1c0,0.4,0.1,0.9,0.1,1.3s0,0.9,0,1.3v4.5h-1V351.5z"/>
		<path class="st1" d="M444.2,358.4c0-0.7,0.3-1.2,0.9-1.6s1.6-0.6,3-0.8c0-0.2,0-0.4-0.1-0.6s-0.1-0.4-0.2-0.5s-0.2-0.3-0.4-0.4
			c-0.2-0.1-0.4-0.1-0.6-0.1c-0.4,0-0.7,0.1-1,0.2c-0.3,0.1-0.6,0.3-0.9,0.5l-0.4-0.7c0.3-0.2,0.7-0.4,1.1-0.6s0.9-0.3,1.4-0.3
			c0.8,0,1.3,0.2,1.7,0.7c0.3,0.5,0.5,1.1,0.5,1.9v3.9h-0.9l-0.1-0.8h0c-0.3,0.3-0.6,0.5-1,0.6s-0.7,0.3-1.1,0.3
			c-0.5,0-1-0.2-1.3-0.5C444.3,359.4,444.2,358.9,444.2,358.4z M445.2,358.3c0,0.4,0.1,0.6,0.3,0.8c0.2,0.2,0.5,0.2,0.8,0.2
			c0.3,0,0.6-0.1,0.9-0.2c0.3-0.1,0.6-0.4,0.9-0.6v-1.8c-0.5,0.1-1,0.2-1.3,0.2c-0.4,0.1-0.7,0.2-0.9,0.3c-0.2,0.1-0.4,0.3-0.5,0.4
			C445.3,357.9,445.2,358.1,445.2,358.3z"/>
		<path class="st1" d="M451.1,350.7h1.1v6.3h0l2.7-3.3h1.2l-2.1,2.5l2.4,3.8h-1.2l-1.8-3l-1.2,1.4v1.7h-1.1V350.7z"/>
		<path class="st1" d="M457.1,358.4c0-0.7,0.3-1.2,0.9-1.6s1.6-0.6,3-0.8c0-0.2,0-0.4-0.1-0.6s-0.1-0.4-0.2-0.5s-0.2-0.3-0.4-0.4
			c-0.2-0.1-0.4-0.1-0.6-0.1c-0.4,0-0.7,0.1-1,0.2c-0.3,0.1-0.6,0.3-0.9,0.5l-0.4-0.7c0.3-0.2,0.7-0.4,1.1-0.6s0.9-0.3,1.4-0.3
			c0.8,0,1.3,0.2,1.7,0.7c0.3,0.5,0.5,1.1,0.5,1.9v3.9h-0.9l-0.1-0.8h0c-0.3,0.3-0.6,0.5-1,0.6s-0.7,0.3-1.1,0.3
			c-0.5,0-1-0.2-1.3-0.5C457.3,359.4,457.1,358.9,457.1,358.4z M458.2,358.3c0,0.4,0.1,0.6,0.3,0.8c0.2,0.2,0.5,0.2,0.8,0.2
			c0.3,0,0.6-0.1,0.9-0.2c0.3-0.1,0.6-0.4,0.9-0.6v-1.8c-0.5,0.1-1,0.2-1.3,0.2c-0.4,0.1-0.7,0.2-0.9,0.3c-0.2,0.1-0.4,0.3-0.5,0.4
			C458.2,357.9,458.2,358.1,458.2,358.3z"/>
		<path class="st1" d="M464.1,353.7h0.9l0.1,0.9h0c0.3-0.3,0.6-0.6,0.9-0.8c0.3-0.2,0.7-0.3,1.1-0.3c0.5,0,0.9,0.1,1.1,0.3
			c0.3,0.2,0.5,0.5,0.6,0.9c0.3-0.4,0.7-0.7,1-0.9s0.7-0.3,1.1-0.3c0.6,0,1.1,0.2,1.4,0.6s0.5,1,0.5,1.8v4h-1.1v-3.9
			c0-0.6-0.1-1-0.3-1.3c-0.2-0.3-0.5-0.4-0.9-0.4c-0.5,0-1,0.3-1.6,1v4.6h-1.1v-3.9c0-0.6-0.1-1-0.3-1.3c-0.2-0.3-0.5-0.4-0.9-0.4
			c-0.5,0-1,0.3-1.6,1v4.6h-1.1V353.7z"/>
		<path class="st1" d="M474.6,358.4c0-0.7,0.3-1.2,0.9-1.6s1.6-0.6,3-0.8c0-0.2,0-0.4-0.1-0.6s-0.1-0.4-0.2-0.5s-0.2-0.3-0.4-0.4
			c-0.2-0.1-0.4-0.1-0.6-0.1c-0.4,0-0.7,0.1-1,0.2c-0.3,0.1-0.6,0.3-0.9,0.5l-0.4-0.7c0.3-0.2,0.7-0.4,1.1-0.6s0.9-0.3,1.4-0.3
			c0.8,0,1.3,0.2,1.7,0.7c0.3,0.5,0.5,1.1,0.5,1.9v3.9h-0.9l-0.1-0.8h0c-0.3,0.3-0.6,0.5-1,0.6s-0.7,0.3-1.1,0.3
			c-0.5,0-1-0.2-1.3-0.5C474.7,359.4,474.6,358.9,474.6,358.4z M475.6,358.3c0,0.4,0.1,0.6,0.3,0.8c0.2,0.2,0.5,0.2,0.8,0.2
			c0.3,0,0.6-0.1,0.9-0.2c0.3-0.1,0.6-0.4,0.9-0.6v-1.8c-0.5,0.1-1,0.2-1.3,0.2c-0.4,0.1-0.7,0.2-0.9,0.3c-0.2,0.1-0.4,0.3-0.5,0.4
			C475.7,357.9,475.6,358.1,475.6,358.3z"/>
		<path class="st1" d="M484.1,359.1h1.9V353h-1.5v-0.7c0.4-0.1,0.7-0.2,1-0.3c0.3-0.1,0.5-0.2,0.8-0.4h0.8v7.4h1.7v0.9h-4.7V359.1z"
			/>
	</g>
	<circle id="Ellipse_14" class="st11" cx="422" cy="356" r="4"/>
	<path id="Rectangle_89" class="st12" d="M509.5,346h17c5.2,0,9.5,4.3,9.5,9.5l0,0c0,5.2-4.3,9.5-9.5,9.5h-17
		c-5.2,0-9.5-4.3-9.5-9.5l0,0C500,350.3,504.3,346,509.5,346z"/>
	<g class="st0">
		<path class="st1" d="M508,359.1h1.9V353h-1.5v-0.7c0.4-0.1,0.7-0.2,1-0.3c0.3-0.1,0.5-0.2,0.8-0.4h0.8v7.4h1.7v0.9H508V359.1z"/>
		<path class="st1" d="M514,359.4c0.6-0.6,1.2-1.2,1.7-1.7c0.5-0.5,0.9-1,1.2-1.4c0.3-0.4,0.6-0.8,0.8-1.2c0.2-0.4,0.3-0.7,0.3-1
			c0-0.5-0.1-0.9-0.4-1.2c-0.3-0.3-0.7-0.5-1.2-0.5c-0.3,0-0.7,0.1-1,0.3c-0.3,0.2-0.6,0.4-0.8,0.7l-0.6-0.6
			c0.3-0.4,0.7-0.7,1.1-0.9c0.4-0.2,0.9-0.3,1.4-0.3c0.8,0,1.4,0.2,1.8,0.7s0.7,1,0.7,1.8c0,0.4-0.1,0.8-0.3,1.2s-0.4,0.8-0.7,1.2
			c-0.3,0.4-0.7,0.9-1.1,1.3c-0.4,0.5-0.9,0.9-1.4,1.5c0.2,0,0.5,0,0.7-0.1c0.2,0,0.5,0,0.7,0h2.4v0.9H514V359.4z"/>
		<path class="st1" d="M522.3,356.7c-0.6,0-1.1-0.2-1.4-0.7s-0.5-1.1-0.5-2c0-0.9,0.2-1.5,0.5-2s0.8-0.7,1.4-0.7
			c0.6,0,1,0.2,1.4,0.7s0.5,1.1,0.5,2c0,0.9-0.2,1.5-0.5,2S522.9,356.7,522.3,356.7z M522.3,356c0.3,0,0.6-0.2,0.8-0.5
			c0.2-0.3,0.3-0.9,0.3-1.5s-0.1-1.2-0.3-1.5c-0.2-0.3-0.5-0.5-0.8-0.5c-0.3,0-0.6,0.2-0.8,0.5c-0.2,0.3-0.3,0.8-0.3,1.5
			s0.1,1.2,0.3,1.5C521.7,355.9,522,356,522.3,356z M522.5,360.2l4.7-8.8h0.7l-4.7,8.8H522.5z M528.3,360.2c-0.6,0-1.1-0.2-1.4-0.7
			s-0.5-1.1-0.5-2c0-0.9,0.2-1.5,0.5-2s0.8-0.7,1.4-0.7c0.6,0,1,0.2,1.4,0.7s0.5,1.1,0.5,2c0,0.9-0.2,1.5-0.5,2
			S528.8,360.2,528.3,360.2z M528.3,359.5c0.3,0,0.6-0.2,0.8-0.5c0.2-0.3,0.3-0.9,0.3-1.5s-0.1-1.2-0.3-1.5s-0.5-0.5-0.8-0.5
			c-0.3,0-0.6,0.2-0.8,0.5s-0.3,0.8-0.3,1.5s0.1,1.2,0.3,1.5C527.6,359.3,527.9,359.5,528.3,359.5z"/>
	</g>
</g>
<g id="Group_137" transform="translate(-240 -311)">
	<g class="st0">
		<path class="st1" d="M296.2,351.5h1.1l3.1,5.4l0.9,1.8h0.1c0-0.4-0.1-0.9-0.1-1.3c0-0.5,0-0.9,0-1.4v-4.4h1v8.5h-1.1l-3.1-5.4
			l-0.9-1.8h-0.1c0,0.4,0.1,0.9,0.1,1.3s0,0.9,0,1.3v4.5h-1V351.5z"/>
		<path class="st1" d="M304.2,358.4c0-0.7,0.3-1.2,0.9-1.6s1.6-0.6,3-0.8c0-0.2,0-0.4-0.1-0.6s-0.1-0.4-0.2-0.5s-0.2-0.3-0.4-0.4
			c-0.2-0.1-0.4-0.1-0.6-0.1c-0.4,0-0.7,0.1-1,0.2c-0.3,0.1-0.6,0.3-0.9,0.5l-0.4-0.7c0.3-0.2,0.7-0.4,1.1-0.6s0.9-0.3,1.4-0.3
			c0.8,0,1.3,0.2,1.7,0.7c0.3,0.5,0.5,1.1,0.5,1.9v3.9h-0.9l-0.1-0.8h0c-0.3,0.3-0.6,0.5-1,0.6s-0.7,0.3-1.1,0.3
			c-0.5,0-1-0.2-1.3-0.5C304.3,359.4,304.2,358.9,304.2,358.4z M305.2,358.3c0,0.4,0.1,0.6,0.3,0.8c0.2,0.2,0.5,0.2,0.8,0.2
			c0.3,0,0.6-0.1,0.9-0.2c0.3-0.1,0.6-0.4,0.9-0.6v-1.8c-0.5,0.1-1,0.2-1.3,0.2c-0.4,0.1-0.7,0.2-0.9,0.3c-0.2,0.1-0.4,0.3-0.5,0.4
			C305.3,357.9,305.2,358.1,305.2,358.3z"/>
		<path class="st1" d="M311.1,350.7h1.1v6.3h0l2.7-3.3h1.2l-2.1,2.5l2.4,3.8h-1.2l-1.8-3l-1.2,1.4v1.7h-1.1V350.7z"/>
		<path class="st1" d="M317.1,358.4c0-0.7,0.3-1.2,0.9-1.6s1.6-0.6,3-0.8c0-0.2,0-0.4-0.1-0.6s-0.1-0.4-0.2-0.5s-0.2-0.3-0.4-0.4
			c-0.2-0.1-0.4-0.1-0.6-0.1c-0.4,0-0.7,0.1-1,0.2c-0.3,0.1-0.6,0.3-0.9,0.5l-0.4-0.7c0.3-0.2,0.7-0.4,1.1-0.6s0.9-0.3,1.4-0.3
			c0.8,0,1.3,0.2,1.7,0.7c0.3,0.5,0.5,1.1,0.5,1.9v3.9h-0.9l-0.1-0.8h0c-0.3,0.3-0.6,0.5-1,0.6s-0.7,0.3-1.1,0.3
			c-0.5,0-1-0.2-1.3-0.5C317.3,359.4,317.1,358.9,317.1,358.4z M318.2,358.3c0,0.4,0.1,0.6,0.3,0.8c0.2,0.2,0.5,0.2,0.8,0.2
			c0.3,0,0.6-0.1,0.9-0.2c0.3-0.1,0.6-0.4,0.9-0.6v-1.8c-0.5,0.1-1,0.2-1.3,0.2c-0.4,0.1-0.7,0.2-0.9,0.3c-0.2,0.1-0.4,0.3-0.5,0.4
			C318.2,357.9,318.2,358.1,318.2,358.3z"/>
		<path class="st1" d="M324.1,353.7h0.9l0.1,0.9h0c0.3-0.3,0.6-0.6,0.9-0.8c0.3-0.2,0.7-0.3,1.1-0.3c0.5,0,0.9,0.1,1.1,0.3
			c0.3,0.2,0.5,0.5,0.6,0.9c0.3-0.4,0.7-0.7,1-0.9s0.7-0.3,1.1-0.3c0.6,0,1.1,0.2,1.4,0.6s0.5,1,0.5,1.8v4h-1.1v-3.9
			c0-0.6-0.1-1-0.3-1.3c-0.2-0.3-0.5-0.4-0.9-0.4c-0.5,0-1,0.3-1.6,1v4.6h-1.1v-3.9c0-0.6-0.1-1-0.3-1.3c-0.2-0.3-0.5-0.4-0.9-0.4
			c-0.5,0-1,0.3-1.6,1v4.6h-1.1V353.7z"/>
		<path class="st1" d="M334.6,358.4c0-0.7,0.3-1.2,0.9-1.6s1.6-0.6,3-0.8c0-0.2,0-0.4-0.1-0.6s-0.1-0.4-0.2-0.5s-0.2-0.3-0.4-0.4
			c-0.2-0.1-0.4-0.1-0.6-0.1c-0.4,0-0.7,0.1-1,0.2c-0.3,0.1-0.6,0.3-0.9,0.5l-0.4-0.7c0.3-0.2,0.7-0.4,1.1-0.6s0.9-0.3,1.4-0.3
			c0.8,0,1.3,0.2,1.7,0.7c0.3,0.5,0.5,1.1,0.5,1.9v3.9h-0.9l-0.1-0.8h0c-0.3,0.3-0.6,0.5-1,0.6s-0.7,0.3-1.1,0.3
			c-0.5,0-1-0.2-1.3-0.5C334.7,359.4,334.6,358.9,334.6,358.4z M335.6,358.3c0,0.4,0.1,0.6,0.3,0.8c0.2,0.2,0.5,0.2,0.8,0.2
			c0.3,0,0.6-0.1,0.9-0.2c0.3-0.1,0.6-0.4,0.9-0.6v-1.8c-0.5,0.1-1,0.2-1.3,0.2c-0.4,0.1-0.7,0.2-0.9,0.3c-0.2,0.1-0.4,0.3-0.5,0.4
			C335.7,357.9,335.6,358.1,335.6,358.3z"/>
		<path class="st1" d="M344.1,359.1h1.9V353h-1.5v-0.7c0.4-0.1,0.7-0.2,1-0.3c0.3-0.1,0.5-0.2,0.8-0.4h0.8v7.4h1.7v0.9h-4.7V359.1z"
			/>
	</g>
	<circle id="Ellipse_14-2" class="st13" cx="282" cy="356" r="4"/>
	<path id="Rectangle_89-2" class="st12" d="M369.5,346h17c5.2,0,9.5,4.3,9.5,9.5l0,0c0,5.2-4.3,9.5-9.5,9.5h-17
		c-5.2,0-9.5-4.3-9.5-9.5l0,0C360,350.3,364.3,346,369.5,346z"/>
	<g class="st0">
		<path class="st1" d="M368,359.1h1.9V353h-1.5v-0.7c0.4-0.1,0.7-0.2,1-0.3c0.3-0.1,0.5-0.2,0.8-0.4h0.8v7.4h1.7v0.9H368V359.1z"/>
		<path class="st1" d="M374,359.4c0.6-0.6,1.2-1.2,1.7-1.7c0.5-0.5,0.9-1,1.2-1.4c0.3-0.4,0.6-0.8,0.8-1.2c0.2-0.4,0.3-0.7,0.3-1
			c0-0.5-0.1-0.9-0.4-1.2c-0.3-0.3-0.7-0.5-1.2-0.5c-0.3,0-0.7,0.1-1,0.3c-0.3,0.2-0.6,0.4-0.8,0.7l-0.6-0.6
			c0.3-0.4,0.7-0.7,1.1-0.9c0.4-0.2,0.9-0.3,1.4-0.3c0.8,0,1.4,0.2,1.8,0.7s0.7,1,0.7,1.8c0,0.4-0.1,0.8-0.3,1.2s-0.4,0.8-0.7,1.2
			c-0.3,0.4-0.7,0.9-1.1,1.3c-0.4,0.5-0.9,0.9-1.4,1.5c0.2,0,0.5,0,0.7-0.1c0.2,0,0.5,0,0.7,0h2.4v0.9H374V359.4z"/>
		<path class="st1" d="M382.3,356.7c-0.6,0-1.1-0.2-1.4-0.7s-0.5-1.1-0.5-2c0-0.9,0.2-1.5,0.5-2s0.8-0.7,1.4-0.7
			c0.6,0,1,0.2,1.4,0.7s0.5,1.1,0.5,2c0,0.9-0.2,1.5-0.5,2S382.9,356.7,382.3,356.7z M382.3,356c0.3,0,0.6-0.2,0.8-0.5
			c0.2-0.3,0.3-0.9,0.3-1.5s-0.1-1.2-0.3-1.5c-0.2-0.3-0.5-0.5-0.8-0.5c-0.3,0-0.6,0.2-0.8,0.5c-0.2,0.3-0.3,0.8-0.3,1.5
			s0.1,1.2,0.3,1.5C381.7,355.9,382,356,382.3,356z M382.5,360.2l4.7-8.8h0.7l-4.7,8.8H382.5z M388.3,360.2c-0.6,0-1.1-0.2-1.4-0.7
			s-0.5-1.1-0.5-2c0-0.9,0.2-1.5,0.5-2s0.8-0.7,1.4-0.7c0.6,0,1,0.2,1.4,0.7s0.5,1.1,0.5,2c0,0.9-0.2,1.5-0.5,2
			S388.8,360.2,388.3,360.2z M388.3,359.5c0.3,0,0.6-0.2,0.8-0.5c0.2-0.3,0.3-0.9,0.3-1.5s-0.1-1.2-0.3-1.5s-0.5-0.5-0.8-0.5
			c-0.3,0-0.6,0.2-0.8,0.5s-0.3,0.8-0.3,1.5s0.1,1.2,0.3,1.5C387.6,359.3,387.9,359.5,388.3,359.5z"/>
	</g>
</g>
<path id="Path_77" class="st14" d="M87.4,265.9h63.5l67.2-43.7l57.2-12.9l42.7,48.1l65.7-4.6l99.1-8.5l112.5-60.2l81.2,108.2
	l56.6-53.9l0,0l91.8,6l60.9,8.5l22.1,34.4h65.5l72.8-21.4"/>
</svg>
