<?xml version="1.0" encoding="utf-8"?>
<!-- Generator: Adobe Illustrator 24.0.0, SVG Export Plug-In . SVG Version: 6.00 Build 0)  -->
<!DOCTYPE svg PUBLIC "-//W3C//DTD SVG 1.1//EN" "http://www.w3.org/Graphics/SVG/1.1/DTD/svg11.dtd" [
	<!ENTITY ns_extend "http://ns.adobe.com/Extensibility/1.0/">
	<!ENTITY ns_ai "http://ns.adobe.com/AdobeIllustrator/10.0/">
	<!ENTITY ns_graphs "http://ns.adobe.com/Graphs/1.0/">
	<!ENTITY ns_vars "http://ns.adobe.com/Variables/1.0/">
	<!ENTITY ns_imrep "http://ns.adobe.com/ImageReplacement/1.0/">
	<!ENTITY ns_sfw "http://ns.adobe.com/SaveForWeb/1.0/">
	<!ENTITY ns_custom "http://ns.adobe.com/GenericCustomNamespace/1.0/">
	<!ENTITY ns_adobe_xpath "http://ns.adobe.com/XPath/1.0/">
]>
<svg version="1.1" id="svg2" xmlns:x="&ns_extend;" xmlns:i="&ns_ai;" xmlns:graph="&ns_graphs;"
	 xmlns="http://www.w3.org/2000/svg" xmlns:xlink="http://www.w3.org/1999/xlink" x="0px" y="0px" width="337px" height="318px"
	 viewBox="0 0 337 318" style="enable-background:new 0 0 337 318;" xml:space="preserve">
<style type="text/css">
	.st0{fill-rule:evenodd;clip-rule:evenodd;fill:#FFFFFF;}
</style>
<metadata>
	<sfw  xmlns="&ns_sfw;">
		<slices></slices>
		<sliceSourceBounds  bottomLeftOrigin="true" height="305.2" width="225.6" x="103.3" y="53.9"></sliceSourceBounds>
	</sfw>
</metadata>
<g>
	<path class="st0" d="M128.5,242.9c0,0-11.5,6.9,8.3,9.2c23.9,2.3,36.4,2.3,63-2.3c0,0,6.9,4.6,17,7.8
		C157,283,81.6,255.8,128.5,242.9L128.5,242.9z"/>
	<path class="st0" d="M121.1,209.3c0,0-12.9,9.7,6.9,11.5c26.2,2.3,46,3.2,81.5-4.1c0,0,5.1,5.1,12.4,7.4
		C150.1,245.7,69.6,226.4,121.1,209.3L121.1,209.3z"/>
	<path class="st0" d="M182.3,152.7c14.7,17-4.1,32.2-4.1,32.2s37.7-19.3,19.8-43.7c-16.1-22.6-28.5-33.6,38.2-72.7
		C237.1,69,133.1,95.2,182.3,152.7L182.3,152.7z"/>
	<path class="st0" d="M261.5,267.3c0,0,8.3,6.9-9.7,12.4c-34.5,10.6-143.6,13.3-174,0.5c-11-4.6,9.7-11.5,16.1-12.4
		c6.4-1.4,10.6-0.9,10.6-0.9c-12-8.3-78.2,16.6-33.6,23.9C192.9,310.1,293.7,281.6,261.5,267.3L261.5,267.3z"/>
	<path class="st0" d="M134,174.8c0,0-55.7,12.9-19.3,17.9c15.2,1.8,45.6,1.4,73.6-0.9c23-1.8,46-6,46-6s-7.8,3.7-13.8,7.4
		c-56.6,15.2-165.2,7.8-133.9-6.9C112.4,173,134,174.8,134,174.8L134,174.8z"/>
	<path class="st0" d="M233.4,230.1c57.5-29.9,30.8-58.4,12.4-54.8c-4.6,0.9-6.4,1.8-6.4,1.8s1.4-2.3,5.1-4.1
		c36.4-12.9,64.4,38.2-12,58C232.5,231.9,233.4,230.5,233.4,230.1L233.4,230.1z"/>
	<path class="st0" d="M198.9,6.4c0,0,31.8,31.8-29.9,80.5c-49.7,39.1-11.5,61.7,0,87c-29-26.2-50.2-49.2-35.9-70.4
		C153.8,72.2,212.3,57,198.9,6.4L198.9,6.4z"/>
	<path class="st0" d="M139.5,310.6c55.2,3.7,139.4-1.8,141.7-28.1c0,0-4.1,10.1-45.6,17.5c-46.9,9.2-104.5,7.8-139,2.3
		C96.3,302.8,103.7,308.7,139.5,310.6L139.5,310.6z"/>
</g>
</svg>
