<?xml version="1.0" encoding="utf-8"?>
<!-- Generator: Adobe Illustrator 24.0.0, SVG Export Plug-In . SVG Version: 6.00 Build 0)  -->
<!DOCTYPE svg PUBLIC "-//W3C//DTD SVG 1.1//EN" "http://www.w3.org/Graphics/SVG/1.1/DTD/svg11.dtd" [
	<!ENTITY ns_extend "http://ns.adobe.com/Extensibility/1.0/">
	<!ENTITY ns_ai "http://ns.adobe.com/AdobeIllustrator/10.0/">
	<!ENTITY ns_graphs "http://ns.adobe.com/Graphs/1.0/">
	<!ENTITY ns_vars "http://ns.adobe.com/Variables/1.0/">
	<!ENTITY ns_imrep "http://ns.adobe.com/ImageReplacement/1.0/">
	<!ENTITY ns_sfw "http://ns.adobe.com/SaveForWeb/1.0/">
	<!ENTITY ns_custom "http://ns.adobe.com/GenericCustomNamespace/1.0/">
	<!ENTITY ns_adobe_xpath "http://ns.adobe.com/XPath/1.0/">
]>
<svg version="1.1" id="Layer_1" xmlns:x="&ns_extend;" xmlns:i="&ns_ai;" xmlns:graph="&ns_graphs;"
	 xmlns="http://www.w3.org/2000/svg" xmlns:xlink="http://www.w3.org/1999/xlink" x="0px" y="0px" width="106px" height="126px"
	 viewBox="0 0 106 126" style="enable-background:new 0 0 106 126;" xml:space="preserve">
<style type="text/css">
	.st0{fill:url(#SVGID_1_);}
	.st1{enable-background:new    ;}
	.st2{fill:url(#SVGID_2_);}
	.st3{fill:url(#SVGID_3_);}
	.st4{fill:url(#SVGID_4_);}
	.st5{fill:url(#SVGID_5_);}
	.st6{fill:url(#SVGID_6_);}
	.st7{fill:#FF797D;}
	.st8{fill:#2A3363;}
	.st9{fill:#FFFFFF;}
	.st10{fill:#FC55F8;}
</style>
<metadata>
	<sfw  xmlns="&ns_sfw;">
		<slices></slices>
		<sliceSourceBounds  bottomLeftOrigin="true" height="328" width="477.1" x="3" y="-220.7"></sliceSourceBounds>
	</sfw>
</metadata>
<linearGradient id="SVGID_1_" gradientUnits="userSpaceOnUse" x1="480.1" y1="-218.7" x2="480.1" y2="-218.7" gradientTransform="matrix(1 0 0 -1 0 128)">
	<stop  offset="0" style="stop-color:#4C60B9"/>
	<stop  offset="0.1462" style="stop-color:#5563BF"/>
	<stop  offset="0.6923" style="stop-color:#746ED1"/>
	<stop  offset="1" style="stop-color:#7F72D8"/>
</linearGradient>
<path class="st0" d="M480.1,346.7"/>
<g>
	<g class="st1">
		<g>
			
				<linearGradient id="SVGID_2_" gradientUnits="userSpaceOnUse" x1="3.0373" y1="33.8" x2="102.9627" y2="33.8" gradientTransform="matrix(1 0 0 -1 0 128)">
				<stop  offset="0" style="stop-color:#4B5FB8"/>
				<stop  offset="1" style="stop-color:#8CE0EE"/>
			</linearGradient>
			<path class="st2" d="M88.2,73.7c19.6,11.3,19.7,29.6,0.2,41c-19.4,11.3-51,11.3-70.6,0s-19.7-29.6-0.2-41
				C37,62.4,68.7,62.4,88.2,73.7z"/>
		</g>
	</g>
</g>
<g>
	
		<radialGradient id="SVGID_3_" cx="-166.921" cy="-69.2964" r="48.309" gradientTransform="matrix(0.8564 0 0 0.8564 202.8911 110.6823)" gradientUnits="userSpaceOnUse">
		<stop  offset="0.1333" style="stop-color:#7F72D8"/>
		<stop  offset="0.302" style="stop-color:#6D65BF"/>
		<stop  offset="0.6582" style="stop-color:#3F4380"/>
		<stop  offset="0.811" style="stop-color:#2A3363"/>
	</radialGradient>
	<circle class="st3" cx="53.5" cy="66" r="40"/>
	<g>
		<linearGradient id="SVGID_4_" gradientUnits="userSpaceOnUse" x1="62.5012" y1="65.197" x2="93.3167" y2="65.197">
			<stop  offset="0" style="stop-color:#10DAD3"/>
			<stop  offset="1" style="stop-color:#22A4CB"/>
		</linearGradient>
		<path class="st4" d="M78.4,35.8l-1.2,1.4c-0.2,0.3-0.6,0.4-1,0.2l-4.7-2c-0.4-0.2-1,0-1.1,0.5l-1.7,4.3c-0.1,0.3,0,0.7,0.2,0.9
			l2.5,2.4c0.4,0.4,1.1,0.3,1.3-0.2l0.4-0.7c0.3-0.6,1.1-0.6,1.5,0l0.6,1c0.2,0.4,0.1,0.8-0.2,1.1L72,47.2L69,49.8
			c-0.2,0.2-0.3,0.4-0.3,0.7l0,1.9c0,0.5-0.4,0.9-0.9,0.9h-1.8c-0.5,0-0.9,0.5-0.8,1l0.3,2.1c0.1,0.4,0.3,0.6,0.7,0.7l2.1,0.5
			c0.3,0.1,0.7-0.1,0.9-0.3l1.9-2.7c0.1-0.1,0.2-0.2,0.4-0.3l2.2-0.9c0.3-0.1,0.6-0.1,0.8,0.1l2.4,1.8c0.1,0.1,0.2,0.1,0.3,0.1l4,1
			c0.6,0.1,0.8,0.8,0.5,1.3l-0.5,0.8c-0.2,0.3-0.5,0.5-0.9,0.4L77,58c-0.1,0-0.2,0-0.3,0l-4.1,0.8c0,0,0,0-0.1,0l-5.3,0.6
			c-0.3,0-0.5,0.2-0.6,0.4l-4,6c-0.1,0.1-0.1,0.3-0.1,0.5v6.5c0,0.2,0.1,0.4,0.2,0.5l3.2,4.3c0.2,0.2,0.5,0.4,0.8,0.3l6.1-0.5
			c0.1,0,0.1,0,0.2,0l2.3,0.4c0.5,0.1,0.8,0.5,0.7,1l-0.8,3.8c0,0.2,0,0.3,0.1,0.5l1.5,3.5c0.1,0.1,0.1,0.3,0.1,0.5l-1.2,7
			c0,0.1,0,0.3,0,0.4l0,0c0.1,0.5,0.7,0.7,1.1,0.6l3.9-1.5c0.2-0.1,0.3-0.2,0.4-0.3l4.2-5.7c0.1-0.1,0.1-0.2,0.1-0.2l3.3-10.6
			c0,0,0,0,0-0.1l2.9-7.4c0-0.1,0.1-0.2,0.1-0.3v-3.5c0-0.1,0-0.1,0-0.2l0.7-3.3c0.1-0.5,0.8-0.5,0.9-0.1v0
			c-1.1-10.4-6.2-19.7-13.7-26.2C79.3,35.4,78.7,35.4,78.4,35.8z"/>
		<linearGradient id="SVGID_5_" gradientUnits="userSpaceOnUse" x1="17.0394" y1="64.9857" x2="51.9489" y2="64.9857">
			<stop  offset="0" style="stop-color:#22A4CB"/>
			<stop  offset="1" style="stop-color:#10DAD3"/>
		</linearGradient>
		<path class="st5" d="M42.6,95.2l4.3-2.1c0.5-0.3,1-0.8,1.1-1.3l1.8-5.8c0.3-1.1-0.2-2.2-1.2-2.7l-4.6-2.1
			c-0.2-0.1-0.5-0.3-0.7-0.5l-7.6-7.6c-0.4-0.4-1-0.7-1.6-0.7h-4.9c-0.6,0-1.2-0.2-1.6-0.7l-4.3-4.3c-0.4-0.4-0.7-1-0.7-1.6v-3.6
			c0-1.1,0.8-2,1.8-2.2l4.5-0.9c0.5-0.1,0.9-0.4,1.3-0.7l6.5-7.5c0.1-0.1,0.2-0.2,0.3-0.3l3.3-2.6c0.9-0.7,1.1-2.1,0.5-3l-1.5-2.2
			c-0.8-1.2-2.4-1.3-3.4-0.3l-1.8,1.8c-1.2,1.2-3.2,0.7-3.7-0.9l-0.1-0.4c-0.3-1,0.1-2.1,1-2.6l5.3-3.2c0.2-0.1,0.4-0.3,0.6-0.5
			l2.7-3.1c0.3-0.4,0.8-0.6,1.2-0.7l1.2-0.3c0.1,0,0.3,0,0.4,0l1.1,0c0.3,0,0.5,0.1,0.6,0.3c1.2,1.3,3,1.8,4.7,1.2
			c0.7-0.3,1.5-0.6,2.2-1.1l0.3-1c0.6-2.4-0.8-4.8-3.2-5.3c-0.2,0-0.3-0.1-0.4-0.1c0,0-5.3,1.1-5.4,1.1l-4.5,1.7
			c-0.2,0-0.3,0-0.4,0.1l-0.5,0.1c-0.1,0-0.2,0.1-0.3,0.1c-8.5,3.8-15.4,10.6-19.5,18.9c-0.1,0.3-0.2,0.6-0.2,0.9L17,55.4
			c0,0.2,0,0.4,0.1,0.6l2.2,9.3c0.1,0.4,0.3,0.8,0.6,1l7,7.2c0.5,0.6,0.8,1.4,0.6,2.1l-0.7,2.8c-0.2,0.6-0.1,1.3,0.3,1.8l5.7,8.7
			c0.1,0.2,0.2,0.4,0.3,0.7l2.7,10.3c0.1,0.5,0.4,0.9,0.8,1.2l2.6,2.1c0.2,0.2,0.4,0.3,0.6,0.4c0.1,0.1,0.3,0.1,0.4,0.2l-1.1-3
			c-0.3-0.8-0.1-1.7,0.5-2.4l2.7-2.7C42.2,95.5,42.4,95.3,42.6,95.2z"/>
		<linearGradient id="SVGID_6_" gradientUnits="userSpaceOnUse" x1="65.145" y1="45.722" x2="68.2333" y2="45.722">
			<stop  offset="0" style="stop-color:#10DAD3"/>
			<stop  offset="1" style="stop-color:#22A4CB"/>
		</linearGradient>
		<polygon class="st6" points="68.2,48 67.3,45.9 65.6,42.9 65.1,45 65.8,47.4 65.1,48.5 		"/>
	</g>
	<g>
		<path class="st7" d="M29.5,44.4l-7.5,13.7l-7.5-13.7c-1.8-3.3-1.2-7.4,1.5-10.1l0,0c3.3-3.3,8.7-3.3,12,0l0,0
			C30.7,37,31.3,41.1,29.5,44.4z"/>
		<circle class="st8" cx="22.1" cy="40.4" r="3.7"/>
	</g>
	<g>
		<path class="st9" d="M51.3,72l-7.5,13.7L36.4,72c-1.8-3.3-1.2-7.4,1.5-10.1l0,0c3.3-3.3,8.7-3.3,12,0l0,0
			C52.5,64.5,53.1,68.6,51.3,72z"/>
		<circle class="st8" cx="43.9" cy="68" r="3.7"/>
	</g>
	<g>
		<path class="st10" d="M75.7,31.3L68.2,45l-7.5-13.7c-1.8-3.3-1.2-7.4,1.5-10.1l0,0c3.3-3.3,8.7-3.3,12,0l0,0
			C76.9,23.8,77.5,27.9,75.7,31.3z"/>
		<circle class="st8" cx="68.2" cy="27.3" r="3.7"/>
	</g>
</g>
</svg>
