<?xml version="1.0" encoding="utf-8"?>
<!-- Generator: Adobe Illustrator 24.0.0, SVG Export Plug-In . SVG Version: 6.00 Build 0)  -->
<!DOCTYPE svg PUBLIC "-//W3C//DTD SVG 1.1//EN" "http://www.w3.org/Graphics/SVG/1.1/DTD/svg11.dtd" [
	<!ENTITY ns_extend "http://ns.adobe.com/Extensibility/1.0/">
	<!ENTITY ns_ai "http://ns.adobe.com/AdobeIllustrator/10.0/">
	<!ENTITY ns_graphs "http://ns.adobe.com/Graphs/1.0/">
	<!ENTITY ns_vars "http://ns.adobe.com/Variables/1.0/">
	<!ENTITY ns_imrep "http://ns.adobe.com/ImageReplacement/1.0/">
	<!ENTITY ns_sfw "http://ns.adobe.com/SaveForWeb/1.0/">
	<!ENTITY ns_custom "http://ns.adobe.com/GenericCustomNamespace/1.0/">
	<!ENTITY ns_adobe_xpath "http://ns.adobe.com/XPath/1.0/">
]>
<svg version="1.1" id="Layer_1" xmlns:x="&ns_extend;" xmlns:i="&ns_ai;" xmlns:graph="&ns_graphs;"
	 xmlns="http://www.w3.org/2000/svg" xmlns:xlink="http://www.w3.org/1999/xlink" x="0px" y="0px" width="106px" height="126px"
	 viewBox="0 0 106 126" style="enable-background:new 0 0 106 126;" xml:space="preserve">
<style type="text/css">
	.st0{fill:url(#SVGID_1_);}
	.st1{enable-background:new    ;}
	.st2{fill:url(#SVGID_2_);}
	.st3{fill:#10DAD3;}
	.st4{fill:#2A3363;}
	.st5{fill:none;stroke:#2A3363;stroke-linecap:round;stroke-miterlimit:10;}
	
		.st6{fill:none;stroke:#FC55F8;stroke-width:2;stroke-linecap:round;stroke-linejoin:round;stroke-miterlimit:10;stroke-dasharray:1,4;}
	.st7{fill:none;stroke:#FC55F8;stroke-width:2;stroke-linecap:round;stroke-miterlimit:10;stroke-dasharray:1,4;}
	.st8{fill:url(#SVGID_3_);}
	.st9{fill:#756ED1;}
</style>
<metadata>
	<sfw  xmlns="&ns_sfw;">
		<slices></slices>
		<sliceSourceBounds  bottomLeftOrigin="true" height="326.6" width="477.1" x="6945" y="-4178.8"></sliceSourceBounds>
	</sfw>
</metadata>
<linearGradient id="SVGID_1_" gradientUnits="userSpaceOnUse" x1="480.0518" y1="346.6755" x2="480.0518" y2="346.6755">
	<stop  offset="0" style="stop-color:#4C60B9"/>
	<stop  offset="0.1462" style="stop-color:#5563BF"/>
	<stop  offset="0.6923" style="stop-color:#746ED1"/>
	<stop  offset="1" style="stop-color:#7F72D8"/>
</linearGradient>
<path class="st0" d="M480.1,346.7"/>
<g>
	<g>
		<g class="st1">
			<g>
				<linearGradient id="SVGID_2_" gradientUnits="userSpaceOnUse" x1="3" y1="94.2215" x2="103" y2="94.2215">
					<stop  offset="0" style="stop-color:#4B5FB8"/>
					<stop  offset="1" style="stop-color:#8CE0EE"/>
				</linearGradient>
				<path class="st2" d="M88.2,73.7c19.6,11.3,19.7,29.6,0.2,41C69,126,37.4,126,17.8,114.7c-19.6-11.3-19.7-29.6-0.2-41
					C37,62.4,68.7,62.4,88.2,73.7z"/>
			</g>
		</g>
	</g>
	<g>
		<g>
			<g>
				<g class="st1">
					<g>
						<polygon class="st3" points="31.2,71.5 31.2,80.7 3.3,64.6 3.4,55.5 						"/>
					</g>
					<g>
						<path class="st4" d="M31.2,71.5l20.7-12l0,5.2c0,2.4-1.3,4.7-3.4,5.9l-17.3,10L31.2,71.5z"/>
					</g>
					<g>
						<path class="st4" d="M3.4,55.5l17.2-10c2.1-1.2,4.7-1.2,6.8,0l24.4,14.1l-20.7,12L3.4,55.5z"/>
					</g>
				</g>
			</g>
			<g>
				<g>
					<polygon class="st4" points="16.1,65.9 16.1,69.4 5.4,63.2 5.4,59.7 					"/>
				</g>
				<g>
					<path class="st4" d="M28,73.1c0.7,0.4,1.2,1.3,1.2,2.1c0,0.8-0.6,1.1-1.2,0.7c-0.7-0.4-1.2-1.3-1.2-2.1
						C26.8,73.1,27.3,72.7,28,73.1z"/>
				</g>
				<g>
					<line class="st5" x1="18.5" y1="70" x2="24.4" y2="73.4"/>
				</g>
				<g>
					<line class="st5" x1="18.5" y1="67.8" x2="24.4" y2="71.2"/>
				</g>
			</g>
		</g>
		<g>
			<path class="st6" d="M53,84.2l-6.7-3.9c-1.1-0.6-1.1-2.2,0-2.8l2.8-1.7c1.1-0.6,1.1-2.2,0-2.8l-6.3-3.6"/>
		</g>
		<g>
			<path class="st7" d="M58.9,31.7l-8.4-4.9c-2.2-1.3-5,0.3-5.1,2.9l0,12.3c0,4.3-2.3,8.2-6,10.3l0,0"/>
		</g>
		<g>
			<g>
				<g class="st1">
					<g>
						<linearGradient id="SVGID_3_" gradientUnits="userSpaceOnUse" x1="45.5654" y1="100.7535" x2="73.4613" y2="100.7535">
							<stop  offset="0" style="stop-color:#FF797D"/>
							<stop  offset="0.2981" style="stop-color:#FF7E7D"/>
							<stop  offset="0.6476" style="stop-color:#FF8C7D"/>
							<stop  offset="1" style="stop-color:#FFA27D"/>
						</linearGradient>
						<polygon class="st8" points="73.5,104.2 73.4,113.4 45.6,97.3 45.6,88.2 						"/>
					</g>
					<g>
						<path class="st4" d="M73.5,104.2l20.7-12l0,5.2c0,2.4-1.3,4.7-3.4,5.9l-17.3,10L73.5,104.2z"/>
					</g>
					<g>
						<path class="st4" d="M45.6,88.2l17.2-10c2.1-1.2,4.7-1.2,6.8,0l24.4,14.1l-20.7,12L45.6,88.2z"/>
					</g>
				</g>
			</g>
			<g>
				<g>
					<polygon class="st4" points="58.3,98.6 58.3,102.1 47.6,95.9 47.6,92.4 					"/>
				</g>
				<g>
					<path class="st4" d="M70.2,105.8c0.7,0.4,1.2,1.3,1.2,2.1c0,0.8-0.6,1.1-1.2,0.7c-0.7-0.4-1.2-1.3-1.2-2.1
						C69,105.8,69.5,105.4,70.2,105.8z"/>
				</g>
				<g>
					<line class="st5" x1="60.7" y1="102.7" x2="66.6" y2="106.1"/>
				</g>
				<g>
					<line class="st5" x1="60.7" y1="100.5" x2="66.6" y2="103.9"/>
				</g>
			</g>
		</g>
		<g>
			<path class="st7" d="M94.4,47.6l0,9.8c0,3.2-1.7,6.2-4.5,7.9l-13.6,7.9c-2.8,1.6-4.5,4.6-4.5,7.9l0,10.4"/>
		</g>
		<g>
			<g>
				<g class="st1">
					<g>
						<polygon class="st9" points="82,48.2 82,57.3 54.1,41.2 54.1,32.1 						"/>
					</g>
					<g>
						<path class="st4" d="M82,48.2l20.7-12l0,5.2c0,2.4-1.3,4.7-3.4,5.9L82,57.3L82,48.2z"/>
					</g>
					<g>
						<polygon class="st4" points="54.1,32.1 74.8,20.1 102.7,36.1 82,48.2 						"/>
					</g>
				</g>
			</g>
			<g>
				<g>
					<polygon class="st4" points="66.9,42.5 66.9,46.1 56.1,39.9 56.1,36.3 					"/>
				</g>
				<g>
					<path class="st4" d="M78.7,49.7c0.7,0.4,1.2,1.3,1.2,2.1c0,0.8-0.6,1.1-1.2,0.7c-0.7-0.4-1.2-1.3-1.2-2.1
						C77.5,49.7,78.1,49.4,78.7,49.7z"/>
				</g>
				<g>
					<line class="st5" x1="69.2" y1="46.6" x2="75.2" y2="50.1"/>
				</g>
				<g>
					<line class="st5" x1="69.2" y1="44.4" x2="75.2" y2="47.9"/>
				</g>
			</g>
		</g>
	</g>
</g>
</svg>
