<?xml version="1.0" encoding="utf-8"?>
<!-- Generator: Adobe Illustrator 24.0.0, SVG Export Plug-In . SVG Version: 6.00 Build 0)  -->
<!DOCTYPE svg PUBLIC "-//W3C//DTD SVG 1.1//EN" "http://www.w3.org/Graphics/SVG/1.1/DTD/svg11.dtd" [
	<!ENTITY ns_extend "http://ns.adobe.com/Extensibility/1.0/">
	<!ENTITY ns_ai "http://ns.adobe.com/AdobeIllustrator/10.0/">
	<!ENTITY ns_graphs "http://ns.adobe.com/Graphs/1.0/">
	<!ENTITY ns_vars "http://ns.adobe.com/Variables/1.0/">
	<!ENTITY ns_imrep "http://ns.adobe.com/ImageReplacement/1.0/">
	<!ENTITY ns_sfw "http://ns.adobe.com/SaveForWeb/1.0/">
	<!ENTITY ns_custom "http://ns.adobe.com/GenericCustomNamespace/1.0/">
	<!ENTITY ns_adobe_xpath "http://ns.adobe.com/XPath/1.0/">
]>
<svg version="1.1" id="Layer_1" xmlns:x="&ns_extend;" xmlns:i="&ns_ai;" xmlns:graph="&ns_graphs;"
	 xmlns="http://www.w3.org/2000/svg" xmlns:xlink="http://www.w3.org/1999/xlink" x="0px" y="0px" width="106px" height="126px"
	 viewBox="0 0 106 126" style="enable-background:new 0 0 106 126;" xml:space="preserve">
<style type="text/css">
	.st0{fill:url(#SVGID_1_);}
	.st1{enable-background:new    ;}
	.st2{fill:url(#SVGID_2_);}
	.st3{fill:#2A3363;}
	.st4{opacity:0.25;fill:url(#SVGID_3_);}
	.st5{opacity:0.5;fill:url(#SVGID_4_);}
	.st6{fill:url(#SVGID_5_);}
	.st7{fill:#10DAD3;}
	.st8{fill:none;stroke:#2A3363;stroke-linecap:round;stroke-miterlimit:10;}
</style>
<metadata>
	<sfw  xmlns="&ns_sfw;">
		<slices></slices>
		<sliceSourceBounds  bottomLeftOrigin="true" height="331.2" width="477.1" x="6945" y="-4178.8"></sliceSourceBounds>
	</sfw>
</metadata>
<linearGradient id="SVGID_1_" gradientUnits="userSpaceOnUse" x1="480.0518" y1="346.6755" x2="480.0518" y2="346.6755">
	<stop  offset="0" style="stop-color:#4C60B9"/>
	<stop  offset="0.1462" style="stop-color:#5563BF"/>
	<stop  offset="0.6923" style="stop-color:#746ED1"/>
	<stop  offset="1" style="stop-color:#7F72D8"/>
</linearGradient>
<path class="st0" d="M480.1,346.7"/>
<g>
	<g>
		<g class="st1">
			<g>
				<linearGradient id="SVGID_2_" gradientUnits="userSpaceOnUse" x1="3" y1="94.2215" x2="103" y2="94.2215">
					<stop  offset="0" style="stop-color:#4B5FB8"/>
					<stop  offset="1" style="stop-color:#8CE0EE"/>
				</linearGradient>
				<path class="st2" d="M88.2,73.7c19.6,11.3,19.7,29.6,0.2,41C69,126,37.4,126,17.8,114.7c-19.6-11.3-19.7-29.6-0.2-41
					C37,62.4,68.7,62.4,88.2,73.7z"/>
			</g>
		</g>
	</g>
	<g>
		<g>
			<path class="st3" d="M92.8,80.1c0.4,0.1,0.8,0.3,1.2,0.5c1.4,0.5,2.5,1.2,2.8,2.1c0,0.1,0.1,0.2,0.1,0.3l1.6,9l0.1,0.3l0,0.2
				c0,0.1,0,0.2,0,0.3c0,0.4,0,0.7-0.1,1.1c-0.1,0.4-0.3,0.7-0.6,1.1c-0.1,0.2-0.3,0.3-0.5,0.5l-0.1,0.1L97,95.6l-2.3,1.8l-4.6,3.7
				l-0.2,0.2l-5.6,3.7c-1.1,0.7-3.1,0.8-4.6,0.3c-0.1,0-0.2-0.1-0.4-0.1c-1.4-0.6-1.8-1.7-0.9-2.5l4.8-4l-0.2,0.2l1.3-1.3l-9.2,6
				l-18.1,12.1c-0.9,0.6-2.5,0.7-3.7,0.3c-0.1,0-0.2-0.1-0.3-0.1c-1.2-0.5-1.5-1.3-0.8-2l14.9-12.8L46,116.5
				c-0.9,0.6-2.5,0.8-3.8,0.3c-0.1,0-0.1,0-0.2-0.1c-1.2-0.5-1.6-1.3-0.9-2l18.3-16.4l-17.6,13.6c-0.8,0.6-2.5,0.8-3.8,0.4
				c-1.3-0.5-1.7-1.3-1.1-2l15.9-15.5l-0.2-0.1L42,103.8c-0.7,0.6-2.3,0.8-3.6,0.4c-1.2-0.4-1.6-1.1-1.1-1.8l9.4-11.1
				c0.3-0.7,1-1.7,2.3-3l10.1-8.7c4.9-4.3,15.8-5.4,24.2-2.6L92.8,80.1z"/>
		</g>
		<g>
			<path class="st3" d="M55.2,66c5.1,5.5,5.2,12.5,0.3,15.5l-10,6.1c-1.6,0.8-2.7,1.2-3.6,1.4l-13.3,5.6c-0.7,0.3-1.8,0-2.5-0.8
				c-0.8-0.8-0.8-1.8-0.1-2.3L36.4,85l-0.2-0.2l-18.1,9.6c-0.8,0.4-2,0.1-2.8-0.7c-0.9-0.9-0.9-2-0.2-2.5l15.3-10.7l-19,11.1
				c-0.7,0.4-1.9,0.2-2.8-0.6c0,0-0.1-0.1-0.1-0.1c-0.8-0.8-0.8-1.9-0.2-2.4l17.2-13L11,84.3c-0.7,0.4-1.9,0.2-2.7-0.6
				c-0.1-0.1-0.1-0.1-0.2-0.2c-0.7-0.8-0.8-1.8-0.2-2.4l13.2-11.1l6.5-5.6L26,65.2l0.2-0.1l-4.5,3c-0.9,0.6-2.4,0.3-3.4-0.6
				c-0.1-0.1-0.2-0.2-0.2-0.2c-0.9-1-1-2.2-0.3-2.9l4-3.5l0.2-0.1l4.1-2.8l2.1-1.4l0.1-0.1l0.2-0.1c0.2-0.1,0.4-0.2,0.6-0.3
				c0.4-0.2,0.8-0.3,1.3-0.3c0.5-0.1,1-0.1,1.5,0c0.1,0,0.3,0,0.4,0l0.2,0l0.4,0L45,57.1c0.1,0,0.3,0,0.4,0.1
				c1.2,0.2,2.4,0.9,3.2,1.8c0.3,0.3,0.6,0.5,0.9,0.8L55.2,66z"/>
		</g>
		<linearGradient id="SVGID_3_" gradientUnits="userSpaceOnUse" x1="53.0274" y1="93.2452" x2="68.5133" y2="50.698">
			<stop  offset="2.141730e-03" style="stop-color:#FA4FF4;stop-opacity:0.8"/>
			<stop  offset="1" style="stop-color:#FC51F6;stop-opacity:0.2"/>
		</linearGradient>
		<path class="st4" d="M72.7,81.2c-0.1-1.3-0.6-2.5-1.6-3.7c-0.7-0.8-1.7-1.6-2.9-2.4c-6-3.5-15.7-3.5-21.7,0
			c-6,3.5-5.9,9.1,0.1,12.6c0.7,0.4,1.6,0.8,2.4,1.1c2.7,1,5.9,1.5,9,1.5c3.7-0.1,7.4-0.9,10.3-2.6c1.9-1.1,3.2-2.4,3.9-3.8
			c0-0.1,0.1-0.2,0.1-0.3C72.5,82.8,72.7,82,72.7,81.2z"/>
		<g>
			<linearGradient id="SVGID_4_" gradientUnits="userSpaceOnUse" x1="49.1372" y1="88.2901" x2="75.6626" y2="15.4119">
				<stop  offset="2.141730e-03" style="stop-color:#FA4FF4;stop-opacity:0.8"/>
				<stop  offset="1" style="stop-color:#FC51F6;stop-opacity:0.2"/>
			</linearGradient>
			<path class="st5" d="M82.8,67.6c-0.1-2.2-1-4.3-2.7-6.3c-1.2-1.5-2.9-2.8-5-4c-10.3-5.9-26.9-5.9-37.1,0
				c-10.2,5.9-10.2,15.6,0.1,21.5c1.3,0.7,2.7,1.4,4.1,1.9c4.6,1.8,10,2.6,15.4,2.5c6.4-0.1,12.8-1.6,17.6-4.4
				c3.3-1.9,5.5-4.2,6.6-6.6c0.1-0.1,0.1-0.3,0.2-0.4C82.6,70.3,82.8,69,82.8,67.6z"/>
			<linearGradient id="SVGID_5_" gradientUnits="userSpaceOnUse" x1="44.9576" y1="79.455" x2="81.4584" y2="-20.8301">
				<stop  offset="2.141730e-03" style="stop-color:#FA4FF4;stop-opacity:0.8"/>
				<stop  offset="1" style="stop-color:#FC51F6;stop-opacity:0.2"/>
			</linearGradient>
			<path class="st6" d="M91.2,51c-0.1-3-1.4-6-3.7-8.7c-1.7-2-4-3.9-6.9-5.5c-14.1-8.2-37-8.2-51.1,0c-14.1,8.2-14,21.4,0.2,29.6
				c1.8,1,3.7,1.9,5.6,2.7c6.4,2.4,13.8,3.6,21.2,3.4c8.8-0.2,17.5-2.2,24.3-6.1c4.5-2.6,7.5-5.7,9.1-9c0.1-0.2,0.2-0.4,0.3-0.6
				C91,54.8,91.3,52.9,91.2,51z"/>
		</g>
		<g>
			<g>
				<g class="st1">
					<path class="st3" d="M85.8,29.5L62.9,16.2c-1.6-0.9-3-1-4.1-0.4L24.1,36.1c1-0.6,2.5-0.5,4.1,0.4l22.9,13.2
						c3.2,1.8,5.7,6.2,5.7,9.8c0,1.8-0.6,3.1-1.7,3.7L89.8,43c1-0.6,1.7-1.9,1.7-3.7C91.5,35.7,89,31.3,85.8,29.5z"/>
					<g>
						<path class="st7" d="M51.1,49.7c3.2,1.8,5.7,6.2,5.7,9.8c0,3.6-2.6,5.1-5.7,3.3L28.1,49.6c-3.1-1.8-5.7-6.2-5.7-9.8
							c0-3.6,2.6-5.1,5.7-3.3L51.1,49.7z"/>
					</g>
				</g>
			</g>
			<g>
				
					<ellipse transform="matrix(0.8646 -0.5025 0.5025 0.8646 -20.9688 31.3837)" class="st3" cx="47.7" cy="54.6" rx="2.2" ry="3.8"/>
			</g>
			<line class="st8" x1="27.4" y1="42.2" x2="41.7" y2="50.5"/>
			<line class="st8" x1="28.3" y1="46.1" x2="35.5" y2="50.2"/>
		</g>
	</g>
</g>
</svg>
