<?xml version="1.0" encoding="utf-8"?>
<!-- Generator: Adobe Illustrator 24.0.0, SVG Export Plug-In . SVG Version: 6.00 Build 0)  -->
<!DOCTYPE svg PUBLIC "-//W3C//DTD SVG 1.1//EN" "http://www.w3.org/Graphics/SVG/1.1/DTD/svg11.dtd" [
	<!ENTITY ns_extend "http://ns.adobe.com/Extensibility/1.0/">
	<!ENTITY ns_ai "http://ns.adobe.com/AdobeIllustrator/10.0/">
	<!ENTITY ns_graphs "http://ns.adobe.com/Graphs/1.0/">
	<!ENTITY ns_vars "http://ns.adobe.com/Variables/1.0/">
	<!ENTITY ns_imrep "http://ns.adobe.com/ImageReplacement/1.0/">
	<!ENTITY ns_sfw "http://ns.adobe.com/SaveForWeb/1.0/">
	<!ENTITY ns_custom "http://ns.adobe.com/GenericCustomNamespace/1.0/">
	<!ENTITY ns_adobe_xpath "http://ns.adobe.com/XPath/1.0/">
]>
<svg version="1.1" id="Layer_1" xmlns:x="&ns_extend;" xmlns:i="&ns_ai;" xmlns:graph="&ns_graphs;"
	 xmlns="http://www.w3.org/2000/svg" xmlns:xlink="http://www.w3.org/1999/xlink" x="0px" y="0px" width="17px" height="17px"
	 viewBox="0 0 17 17" style="enable-background:new 0 0 17 17;" xml:space="preserve">
<style type="text/css">
	.st0{fill-rule:evenodd;clip-rule:evenodd;fill:#DAD5FF;}
</style>
<metadata>
	<sfw  xmlns="&ns_sfw;">
		<slices></slices>
		<sliceSourceBounds  bottomLeftOrigin="true" height="16" width="16" x="952" y="-548"></sliceSourceBounds>
	</sfw>
</metadata>
<path id="Path_32" class="st0" d="M8.1,11.3l3.6,3.6l-0.2-2.6c-0.1-1.3,0.4-2.6,1.3-3.6l1.8-1.8l0,0c0.3,0.3,0.8,0.3,1.1,0
	c0,0,0,0,0,0l0.6-0.6c0.3-0.3,0.3-0.8,0-1.1l0,0l-4.5-4.5c-0.3-0.3-0.8-0.3-1.1,0l0,0l-0.6,0.6c-0.3,0.3-0.3,0.8,0,1.1l0,0L8.3,4.2
	C7.3,5.2,6,5.6,4.7,5.5L2.1,5.3l3.6,3.6l-5.2,7.6L8.1,11.3z"/>
</svg>
