<?xml version="1.0" encoding="utf-8"?>
<!-- Generator: Adobe Illustrator 24.0.0, SVG Export Plug-In . SVG Version: 6.00 Build 0)  -->
<!DOCTYPE svg PUBLIC "-//W3C//DTD SVG 1.1//EN" "http://www.w3.org/Graphics/SVG/1.1/DTD/svg11.dtd" [
	<!ENTITY ns_extend "http://ns.adobe.com/Extensibility/1.0/">
	<!ENTITY ns_ai "http://ns.adobe.com/AdobeIllustrator/10.0/">
	<!ENTITY ns_graphs "http://ns.adobe.com/Graphs/1.0/">
	<!ENTITY ns_vars "http://ns.adobe.com/Variables/1.0/">
	<!ENTITY ns_imrep "http://ns.adobe.com/ImageReplacement/1.0/">
	<!ENTITY ns_sfw "http://ns.adobe.com/SaveForWeb/1.0/">
	<!ENTITY ns_custom "http://ns.adobe.com/GenericCustomNamespace/1.0/">
	<!ENTITY ns_adobe_xpath "http://ns.adobe.com/XPath/1.0/">
]>
<svg version="1.1" id="Layer_1" xmlns:x="&ns_extend;" xmlns:i="&ns_ai;" xmlns:graph="&ns_graphs;"
	 xmlns="http://www.w3.org/2000/svg" xmlns:xlink="http://www.w3.org/1999/xlink" x="0px" y="0px" width="22px" height="22px"
	 viewBox="0 0 22 22" style="enable-background:new 0 0 22 22;" xml:space="preserve">
<style type="text/css">
	.st0{fill:#7668ED;}
	.st1{fill:#FFFFFF;}
</style>
<metadata>
	<sfw  xmlns="&ns_sfw;">
		<slices></slices>
		<sliceSourceBounds  bottomLeftOrigin="true" height="21" width="21" x="0.5" y="0.5"></sliceSourceBounds>
	</sfw>
</metadata>
<g>
	<circle id="Ellipse_2_4_" class="st0" cx="11" cy="11" r="10.5"/>
	<path class="st1" d="M14.5,13.1l0,0.3c-0.1,0.9-0.4,0.9-0.6,0.9c-0.1,0-0.3,0-0.6-0.4c-0.1-0.2-0.4-0.7-0.6-1.9l-0.5-2.4
		c-0.4-1.7-0.7-2.9-0.9-3.4c-0.2-0.6-0.4-1-0.7-1.3c-0.3-0.3-0.7-0.4-1-0.4c-0.4,0-0.9,0.1-1.4,0.8c-0.3,0.5-0.5,1.2-0.5,2l0,0.4h1
		l0-0.4c0-0.4,0.1-0.6,0.3-0.8C9,6.4,9.2,6.3,9.4,6.3c0.1,0,0.3,0,0.6,0.5c0.2,0.4,0.4,1,0.6,1.8L7.1,16h2.3l1.9-4.3l0.4,1.8
		c0.3,1.2,0.5,1.8,0.9,2.1c0.4,0.3,0.8,0.4,1.2,0.4c0.5,0,1-0.2,1.3-0.7c0.3-0.4,0.5-1.1,0.5-2v-0.4H14.5z"/>
</g>
</svg>
