<?xml version="1.0" encoding="utf-8"?>
<!-- Generator: Adobe Illustrator 24.0.0, SVG Export Plug-In . SVG Version: 6.00 Build 0)  -->
<!DOCTYPE svg PUBLIC "-//W3C//DTD SVG 1.1//EN" "http://www.w3.org/Graphics/SVG/1.1/DTD/svg11.dtd" [
	<!ENTITY ns_extend "http://ns.adobe.com/Extensibility/1.0/">
	<!ENTITY ns_ai "http://ns.adobe.com/AdobeIllustrator/10.0/">
	<!ENTITY ns_graphs "http://ns.adobe.com/Graphs/1.0/">
	<!ENTITY ns_vars "http://ns.adobe.com/Variables/1.0/">
	<!ENTITY ns_imrep "http://ns.adobe.com/ImageReplacement/1.0/">
	<!ENTITY ns_sfw "http://ns.adobe.com/SaveForWeb/1.0/">
	<!ENTITY ns_custom "http://ns.adobe.com/GenericCustomNamespace/1.0/">
	<!ENTITY ns_adobe_xpath "http://ns.adobe.com/XPath/1.0/">
]>
<svg version="1.1" id="Layer_1" xmlns:x="&ns_extend;" xmlns:i="&ns_ai;" xmlns:graph="&ns_graphs;"
	 xmlns="http://www.w3.org/2000/svg" xmlns:xlink="http://www.w3.org/1999/xlink" x="0px" y="0px" width="254.7px" height="264.2px"
	 viewBox="0 0 254.7 264.2" style="enable-background:new 0 0 254.7 264.2;" xml:space="preserve">
<style type="text/css">
	.st0{fill:#FFFFFF;}
	.st1{enable-background:new    ;}
	.st2{fill:url(#SVGID_1_);}
	.st3{fill:url(#SVGID_2_);}
	.st4{fill:#FAF0FA;}
	.st5{fill:url(#SVGID_3_);}
	.st6{fill:url(#SVGID_4_);}
	.st7{fill:url(#SVGID_5_);}
	.st8{fill:#CFBFE9;}
	.st9{fill:url(#SVGID_6_);}
	.st10{fill:#F1DDF1;}
	.st11{fill:url(#SVGID_7_);}
	.st12{fill:#353481;}
	.st13{fill:#12D8D3;}
	.st14{fill:url(#SVGID_8_);}
	.st15{fill:url(#SVGID_9_);}
	.st16{fill:url(#SVGID_10_);}
</style>
<metadata>
	<sfw  xmlns="&ns_sfw;">
		<slices></slices>
		<sliceSourceBounds  bottomLeftOrigin="true" height="264.2" width="254.7" x="-361.2" y="156.4"></sliceSourceBounds>
	</sfw>
</metadata>
<path class="st0" d="M101.5,150.2c-5.3-3.5-8.2-4.9-10.6-6c-0.4-0.2-0.8-0.2-1.3-0.2c-0.4-0.2-0.9-0.4-1.2-0.5
	c-0.4-0.1-0.9-0.4-1.3-0.5c0,0-1.2-0.5-2.5-0.9c-0.4-0.1-0.9-0.3-1.3-0.4c-0.8-0.3-1.7-0.6-2.5-0.7c-0.5-0.1-1.8-0.4-2.5-0.5
	c-0.7-0.1-1.7-0.3-2.4-0.4c-0.3,0-0.8-0.1-1.2-0.1c-0.3,0-1.5-0.1-2.4-0.1c-0.4,0-0.8,0-1.2,0c-0.8,0-1.7,0.1-2.4,0.1
	c-0.4,0-0.9,0.1-1.3,0.1s-0.8,0.1-1.2,0.1c-0.4,0-0.7,0.1-1.1,0.4c-0.1,0-0.2,0-0.2,0l-1.6,1.2c0,0,0,0,0,0c-0.8,0.6-1.1,1.5-1,2.8
	l-0.2-0.1c0.3,2.5,0.8,9,1.1,11.5c0.1,1.3,0.3,2.5,0.4,3.9c0.3,2.5,0.4,4.9,0.7,7.5c0,0,0.2,0.2,0.5,0.5l-0.8,0.5
	c0.3-0.2,0.6-0.3,0.9-0.4c0,0,0,0,0,0c-0.4,0.1-0.7,0.3-1.1,0.5c-0.8,0.6-2.4,1.5-3.9,2.7c-0.5,0.4-2.1,1.7-3.2,3.3
	c-0.6,0.9-2.3,3.5-2.3,7.2c0,0.5,0.1,2.4,0.8,4.8c0.7,2.2,1.5,3.9,2,4.7c1.2,2,2.4,3.3,3.1,4c1.7,1.9,2.8,2.5,3.9,3.2l0.1,0
	c0.1,0,0.2,0,0.3,0c15.7,5.3,32,11,47.7,16.4c0,0,0,0,0,0c2.3,0.8,5.9,0.2,9.5-1.8v-0.1l2-1.1c3.7-2.2,6-5.1,6-7.5
	c0-1.9,0-3.6,0-5.5c0-1.9,0-3.7,0-5.6c0.1-0.1,0.2-0.1,0.2-0.1c-1.4-0.8-2.8-1.6-4.1-2.4l0-4.1c0.3-0.7,0.3-1.5,0.3-2.5
	c0-0.4-0.1-0.8-0.1-1.2c-0.2-0.5-0.2-1.2-0.3-1.6c-0.3-1-0.6-2.2-0.7-2.5c-0.1-0.4-0.3-0.8-0.4-1.2c-0.1-0.5-0.4-1.2-0.5-1.6
	c-0.1-0.3-0.4-0.8-0.5-1.1c-0.7-1.5-0.8-1.8-1.1-2.3c-0.3-0.3-0.6-0.8-0.7-1.1c-0.2-0.3-0.4-0.7-0.7-1.1c-0.2-0.3-0.4-0.8-0.7-1.1
	c-1.1-1.6-1.9-2.6-2.4-3.3c-0.6-0.6-0.6-0.6-1.9-2.1c-0.2-0.4-0.6-0.8-0.9-1.1c-0.5-0.5-0.9-0.8-1.9-1.8l-0.2-0.3
	c-2.7-2.5-5.9-5.3-5.9-5.3c-0.8-0.7-1.5-1.3-2.3-2c-1.1-0.8-2-1.8-3-2.7l0,0L101.5,150.2"/>
<g>
	<g>
		<path class="st0" d="M120.1,151.6c4.8,2.8,6,7,3.1,10.4L110,177.6c-4.8,2.8-12.6,2.8-17.4,0l-8.7-5.1L120.1,151.6z"/>
	</g>
	<g>
		<g class="st1">
			<g>
				
					<linearGradient id="SVGID_1_" gradientUnits="userSpaceOnUse" x1="17.5472" y1="1277.2151" x2="38.5775" y2="1219.8146" gradientTransform="matrix(1 0 0 -1 0 1396.8)">
					<stop  offset="0" style="stop-color:#4E60B9"/>
					<stop  offset="0.1757" style="stop-color:#4C64BA"/>
					<stop  offset="0.3602" style="stop-color:#4671BD"/>
					<stop  offset="0.5486" style="stop-color:#3B86C1"/>
					<stop  offset="0.7398" style="stop-color:#2CA3C8"/>
					<stop  offset="0.9313" style="stop-color:#1AC9D0"/>
					<stop  offset="1" style="stop-color:#12D8D3"/>
				</linearGradient>
				<path class="st2" d="M0,136l51.2,20.2c4.8,1.9,7.2,7.5,5.3,12.3s-7.5,7.2-12.3,5.3c-1.1-0.4-2-0.9-2.8-1.7L0,136z"/>
			</g>
		</g>
	</g>
	
		<linearGradient id="SVGID_2_" gradientUnits="userSpaceOnUse" x1="3165.4827" y1="-2107.2266" x2="3194.7454" y2="-2072.501" gradientTransform="matrix(0.344 0.939 0.939 -0.344 914.5627 -3541.0984)">
		<stop  offset="0" style="stop-color:#22A4CB;stop-opacity:0"/>
		<stop  offset="0.2591" style="stop-color:#20A9CC;stop-opacity:0.2591"/>
		<stop  offset="0.5487" style="stop-color:#1CB6CE;stop-opacity:0.5487"/>
		<stop  offset="0.8519" style="stop-color:#15CCD1;stop-opacity:0.8519"/>
		<stop  offset="1" style="stop-color:#10DAD3"/>
	</linearGradient>
	<circle class="st3" cx="46.3" cy="164" r="22.7"/>
	<g>
		<g class="st1">
			<g>
				<path class="st0" d="M66.2,167.2c0.8-0.5,2.4-1.3,4.3-2c2.3-0.8,3.9-1.1,4.3-1.1c2.1-0.3,4.4-0.3,7.6,1.5
					c-1.1-0.7-4.3,0.3-7.9,2.4C71.1,166.2,68.2,166,66.2,167.2z"/>
			</g>
			<g>
				<path class="st0" d="M64,168.4l2.1-1.2c2.1-1.2,5.1-1.1,8.3,0.8l-2.1,1.2C69,167.4,66.2,167.2,64,168.4z"/>
			</g>
			<g>
				<path class="st0" d="M112.4,214.8c-15.9-5.5-31.8-11-47.7-16.4c-0.5-0.1-0.8-0.5-0.9-1.1l46.8,16.2
					C111.1,214.2,111.6,214.6,112.4,214.8z"/>
			</g>
			<g>
				<path class="st0" d="M82.4,165.6c15.9,9.2,31.8,18.3,47.7,27.5c0,0-2.3,1.3-6,3.5L74.5,168C78.1,165.9,81.1,165.1,82.4,165.6z"
					/>
			</g>
			<g>
				<path class="st0" d="M129.9,193.2c0,1.9,0,3.7,0,5.6c0,1.9,0,3.6,0,5.5c0,2.4-2.3,5.3-6,7.5v-15.1
					C127.7,194.7,129.9,193.2,129.9,193.2z"/>
			</g>
			<g>
				<polygon class="st4" points="121.9,198 123.9,196.8 123.9,211.8 121.8,213 				"/>
			</g>
			<g>
				<polygon class="st0" points="72.3,169.2 74.3,168 123.9,196.8 121.9,198 				"/>
			</g>
			<path class="st4" d="M110.7,204.4c0,3.1,0,6.1,0,9.1c-15.6-5.3-31.1-10.7-46.8-16.2c-4.8-2.8-8.7-9.5-8.7-15.1
				c0-5.5,3.9-7.8,8.7-4.9C79.4,186.5,95.1,195.5,110.7,204.4z"/>
			<g>
				<path class="st0" d="M110.7,204.4c1.6-0.9,6.6-3.7,11.2-6.6V213c-4.7,2.7-9.6,2.9-11.2,0.5V204.4z"/>
			</g>
		</g>
	</g>
	<g>
		<path class="st0" d="M66.2,140.2c0.4,0,0.8-0.1,1.2-0.1c0.4,0,0.9-0.1,1.3-0.1c0.7,0,1.6-0.1,2.4-0.1c0.4,0,0.8,0,1.2,0
			c0.9,0,2.1,0.1,2.4,0.1c0.4,0,0.9,0.1,1.2,0.1c0.7,0.1,1.7,0.3,2.4,0.4c0.7,0.1,2,0.4,2.5,0.5c0.8,0.1,1.7,0.4,2.5,0.7
			c0.4,0.1,0.9,0.3,1.3,0.4c1.3,0.4,2.5,0.9,2.5,0.9c0.4,0.1,0.9,0.4,1.3,0.5c0.7,0.3,1.7,0.7,2.4,1.1c-0.8-0.4-1.7-0.3-2.7,0.4
			c-8.4-3.9-16.4-5.2-23.4-4C65.2,140.4,65.6,140.2,66.2,140.2z"/>
		
			<linearGradient id="SVGID_3_" gradientUnits="userSpaceOnUse" x1="88.294" y1="1249.504" x2="101.4588" y2="1249.504" gradientTransform="matrix(1 0 0 -1 0 1396.8)">
			<stop  offset="0" style="stop-color:#E3CEE4"/>
			<stop  offset="0.3749" style="stop-color:#E0CCE5"/>
			<stop  offset="0.632" style="stop-color:#D7C5E7"/>
			<stop  offset="0.8531" style="stop-color:#C8B9EA"/>
			<stop  offset="1" style="stop-color:#B9AEEE"/>
		</linearGradient>
		<path class="st5" d="M90.9,144.2c2.4,1.1,5.3,2.5,10.6,6c-0.7-0.4-1.6-0.4-2.7,0.4c-3.5-2.4-7.1-4.4-10.6-6
			C89.2,144,90.1,143.8,90.9,144.2z"/>
		<path class="st0" d="M101.7,150.5c1.1,0.9,2.1,2,3.3,2.9c0.8,0.7,1.5,1.3,2.3,2c0,0,3.2,2.8,5.9,5.3c-0.5-0.4-1.3-0.3-2.4,0.5
			l-12-10.7C100,149.9,100.9,149.9,101.7,150.5z"/>
		<path class="st0" d="M125.9,183l-22.4-13.5c2-3.2,4.2-5.7,5.8-7l-12-10.7c-2.2,1.6-4.3,5.6-5.9,10.4l-8.9-5.4
			c0.7-5.2,2.3-9.5,4.4-11c-8.4-3.9-16.4-5.3-23.4-4c-0.8,0.6-1.1,1.6-1.1,2.8l-0.2-0.1c0.3,2.5,0.8,9,1.1,11.5
			c0.1,1.3,0.3,2.5,0.4,3.9c0.3,2.5,0.4,4.9,0.7,7.5c0,0,0.2,0.3,0.7,0.6c-0.4,0.1-0.7,0.3-1.1,0.5c-0.8,0.6-2.4,1.5-3.9,2.7
			c-0.5,0.4-2.1,1.7-3.2,3.3c-0.6,0.9-2.3,3.5-2.3,7.2c0,0.5,0.1,2.4,0.8,4.8c0.7,2.2,1.5,3.9,2,4.7c1.2,2,2.4,3.3,3.1,4
			c1.7,1.9,2.9,2.5,4,3.2c-0.4-0.3-0.5-0.5-0.6-0.9c-4.8-2.8-8.7-9.6-8.7-15.1c0-5.4,3.9-7.7,8.7-4.9c0-1,0.9-2.3,2.5-3.8
			c-1.5,1.4-2.4,2.8-2.4,3.7l46.8,27c1.2-0.7,4.2-2.6,7.6-4.5c2.4,0.2,4.9-0.3,7.2-1.5c0.3-0.1,0.5-0.3,0.5-0.3L125.9,183z"/>
		
			<linearGradient id="SVGID_4_" gradientUnits="userSpaceOnUse" x1="96.9235" y1="1593.3395" x2="121.1981" y2="1593.3395" gradientTransform="matrix(0.9954 -9.530380e-02 -9.530380e-02 -0.9954 153.483 1772.756)">
			<stop  offset="0" style="stop-color:#322E7A"/>
			<stop  offset="0.2606" style="stop-color:#373785"/>
			<stop  offset="0.7229" style="stop-color:#434FA4"/>
			<stop  offset="1" style="stop-color:#4C60B9"/>
		</linearGradient>
		<path class="st6" d="M111.1,183.3c-0.1-0.1-0.4-0.4-0.7-0.5c-0.1-0.1-0.4-0.3-0.7-0.4c-0.3-0.1-0.5-0.3-0.8-0.4
			c-0.5-0.3-1.1-0.5-1.6-0.7c-0.4-0.1-0.8-0.3-1.2-0.3c-0.9-0.3-1.7-0.3-3.1-0.3c-0.4,0-0.9,0-1.3,0.1c-0.4,0-0.9,0.1-1.3,0.3
			c-0.5,0.1-1.2-0.8-2.1-1.6c2.7-7,7.6-14.6,11-17.1c7.9,7.1,13.5,17.4,14.3,26.3C121.5,190.4,116.7,188.1,111.1,183.3z"/>
		
			<linearGradient id="SVGID_5_" gradientUnits="userSpaceOnUse" x1="111.1019" y1="1594.762" x2="124.2372" y2="1594.762" gradientTransform="matrix(0.9954 -9.530380e-02 -9.530380e-02 -0.9954 153.483 1772.756)">
			<stop  offset="0" style="stop-color:#322E7A"/>
			<stop  offset="0.2606" style="stop-color:#373785"/>
			<stop  offset="0.7229" style="stop-color:#434FA4"/>
			<stop  offset="1" style="stop-color:#4C60B9"/>
		</linearGradient>
		<path class="st7" d="M113.2,160.8c1.2,1.2,1.6,1.5,2.1,2c0.3,0.3,0.7,0.7,0.9,1.1c1.3,1.5,1.3,1.5,1.9,2.1
			c0.5,0.7,1.3,1.7,2.4,3.3c0.3,0.3,0.5,0.8,0.7,1.1c0.3,0.4,0.5,0.8,0.7,1.1c0.1,0.3,0.4,0.8,0.7,1.1c0.3,0.5,0.4,0.8,1.1,2.3
			c0.1,0.3,0.4,0.8,0.5,1.1c0.1,0.4,0.4,1.1,0.5,1.6c0.1,0.4,0.3,0.8,0.4,1.2c0.1,0.3,0.4,1.5,0.7,2.5c0.1,0.4,0.1,1.1,0.3,1.6
			c0,0.4,0.1,0.8,0.1,1.2c0.1,1.6-0.1,2.9-1.1,3.5c-0.8-9-6.4-19.3-14.3-26.3C111.9,160.6,112.7,160.4,113.2,160.8z"/>
		<path class="st8" d="M109.2,162.4l1.5-1.1c7.9,7.1,13.5,17.4,14.3,26.3l-1.5,1.1C122.7,179.8,117.1,169.5,109.2,162.4z"/>
		<path class="st4" d="M63.4,141.7l1.5-1.1c7-1.3,15,0.1,23.4,4l-1.5,1.1C78.3,141.8,70.3,140.5,63.4,141.7z"/>
		<path class="st4" d="M86.8,145.7l1.5-1.1c3.5,1.6,7.1,3.6,10.6,6l-1.5,1.1C93.7,149.3,90.2,147.3,86.8,145.7z"/>
		<polygon class="st4" points="97.3,151.7 98.8,150.7 110.8,161.4 109.2,162.4 		"/>
		
			<linearGradient id="SVGID_6_" gradientUnits="userSpaceOnUse" x1="81.9865" y1="1238.3488" x2="97.3106" y2="1238.3488" gradientTransform="matrix(1 0 0 -1 0 1396.8)">
			<stop  offset="0" style="stop-color:#E3CEE4"/>
			<stop  offset="0.3749" style="stop-color:#E0CCE5"/>
			<stop  offset="0.632" style="stop-color:#D7C5E7"/>
			<stop  offset="0.8531" style="stop-color:#C8B9EA"/>
			<stop  offset="1" style="stop-color:#B9AEEE"/>
		</linearGradient>
		<path class="st9" d="M82.2,167.1c-0.8-9.4,1.2-18.9,4.5-21.4c3.5,1.6,7.1,3.6,10.6,6c-3.3,2.4-7,11.1-8,19.5
			C88.1,171.3,84.5,168.2,82.2,167.1z"/>
	</g>
	<g>
		<path class="st0" d="M74.7,192c4.8,2.8,4.8,7.4,0,10l-27.1,7.8c-6,1.7-13.2,1.1-18-1.7L66,187L74.7,192z"/>
	</g>
	<polygon class="st10" points="82,192.5 82,199.5 106.7,208 106.7,206.8 	"/>
</g>
<g>
	<g>
		
			<linearGradient id="SVGID_7_" gradientUnits="userSpaceOnUse" x1="82.1" y1="1364.55" x2="138.4" y2="1364.55" gradientTransform="matrix(1 0 0 -1 0 1396.8)">
			<stop  offset="0" style="stop-color:#10DAD3"/>
			<stop  offset="0.2072" style="stop-color:#17C4D0;stop-opacity:0.8135"/>
			<stop  offset="0.4506" style="stop-color:#1DB2CD;stop-opacity:0.5945"/>
			<stop  offset="0.7078" style="stop-color:#21A7CC;stop-opacity:0.3629"/>
			<stop  offset="1" style="stop-color:#22A4CB;stop-opacity:0.1"/>
		</linearGradient>
		<path class="st11" d="M138.4,16l-28.1,48.5l-28.2-16L110.2,0L138.4,16z"/>
	</g>
	<g>
		<path class="st0" d="M101.1,27l18-10.4v16.2l-9,15.5l-9.1-5.1L101.1,27L101.1,27z"/>
	</g>
	<g>
		<path class="st12" d="M110.6,140.2c-0.3-6.3-0.4-12.6-0.5-18.9s-0.1-12.6-0.3-18.9c0-6.3,0-12.6,0.1-18.9L110,74
			c0.1-3.2,0.1-6.3,0.3-9.5c0.1,3.2,0.3,6.3,0.4,9.5l0.3,9.5c0.1,6.3,0.1,12.6,0.3,18.9c0,6.3,0,12.6-0.1,18.9
			C110.8,127.7,110.8,134,110.6,140.2z"/>
	</g>
	<g>
		<path class="st13" d="M104,36.2l12.3-7.1v4l-6.1,10.6l-6.3-3.5L104,36.2z"/>
	</g>
</g>
<linearGradient id="SVGID_8_" gradientUnits="userSpaceOnUse" x1="140.9362" y1="1215.6117" x2="192.9263" y2="1215.6117" gradientTransform="matrix(1 0 0 -1 0 1396.8)">
	<stop  offset="0" style="stop-color:#4E60B9"/>
	<stop  offset="0.1757" style="stop-color:#4C64BA"/>
	<stop  offset="0.3602" style="stop-color:#4671BD"/>
	<stop  offset="0.5486" style="stop-color:#3B86C1"/>
	<stop  offset="0.7398" style="stop-color:#2CA3C8"/>
	<stop  offset="0.9313" style="stop-color:#1AC9D0"/>
	<stop  offset="1" style="stop-color:#12D8D3"/>
</linearGradient>
<path class="st14" d="M143.6,168.3l47.9,20.7c1.3,0.5,2,2.1,1.3,3.5c-0.5,1.3-2.1,2-3.5,1.3c-0.1,0-0.1-0.1-0.3-0.1L143.6,168.3z"/>
<linearGradient id="SVGID_9_" gradientUnits="userSpaceOnUse" x1="202.5417" y1="1145.5117" x2="254.5316" y2="1145.5117" gradientTransform="matrix(1 0 0 -1 0 1396.8)">
	<stop  offset="0" style="stop-color:#4E60B9"/>
	<stop  offset="0.1757" style="stop-color:#4C64BA"/>
	<stop  offset="0.3602" style="stop-color:#4671BD"/>
	<stop  offset="0.5486" style="stop-color:#3B86C1"/>
	<stop  offset="0.7398" style="stop-color:#2CA3C8"/>
	<stop  offset="0.9313" style="stop-color:#1AC9D0"/>
	<stop  offset="1" style="stop-color:#12D8D3"/>
</linearGradient>
<path class="st15" d="M205.2,238.4l47.9,20.7c1.3,0.5,2,2.1,1.3,3.5c-0.5,1.3-2.1,2-3.5,1.3c-0.1,0-0.1-0.1-0.3-0.1L205.2,238.4z"/>
<linearGradient id="SVGID_10_" gradientUnits="userSpaceOnUse" x1="87.2588" y1="1145.5117" x2="139.2487" y2="1145.5117" gradientTransform="matrix(1 0 0 -1 0 1396.8)">
	<stop  offset="0" style="stop-color:#4E60B9"/>
	<stop  offset="0.1757" style="stop-color:#4C64BA"/>
	<stop  offset="0.3602" style="stop-color:#4671BD"/>
	<stop  offset="0.5486" style="stop-color:#3B86C1"/>
	<stop  offset="0.7398" style="stop-color:#2CA3C8"/>
	<stop  offset="0.9313" style="stop-color:#1AC9D0"/>
	<stop  offset="1" style="stop-color:#12D8D3"/>
</linearGradient>
<path class="st16" d="M90,238.4l47.9,20.7c1.3,0.5,2,2.1,1.3,3.5c-0.5,1.3-2.1,2-3.5,1.3c-0.1,0-0.1-0.1-0.3-0.1L90,238.4z"/>
</svg>
