<?xml version="1.0" encoding="utf-8"?>
<!-- Generator: Adobe Illustrator 24.0.0, SVG Export Plug-In . SVG Version: 6.00 Build 0)  -->
<!DOCTYPE svg PUBLIC "-//W3C//DTD SVG 1.1//EN" "http://www.w3.org/Graphics/SVG/1.1/DTD/svg11.dtd" [
	<!ENTITY ns_extend "http://ns.adobe.com/Extensibility/1.0/">
	<!ENTITY ns_ai "http://ns.adobe.com/AdobeIllustrator/10.0/">
	<!ENTITY ns_graphs "http://ns.adobe.com/Graphs/1.0/">
	<!ENTITY ns_vars "http://ns.adobe.com/Variables/1.0/">
	<!ENTITY ns_imrep "http://ns.adobe.com/ImageReplacement/1.0/">
	<!ENTITY ns_sfw "http://ns.adobe.com/SaveForWeb/1.0/">
	<!ENTITY ns_custom "http://ns.adobe.com/GenericCustomNamespace/1.0/">
	<!ENTITY ns_adobe_xpath "http://ns.adobe.com/XPath/1.0/">
]>
<svg version="1.1" id="Layer_1" xmlns:x="&ns_extend;" xmlns:i="&ns_ai;" xmlns:graph="&ns_graphs;"
	 xmlns="http://www.w3.org/2000/svg" xmlns:xlink="http://www.w3.org/1999/xlink" x="0px" y="0px" width="314.2px" height="167.1px"
	 viewBox="0 0 314.2 167.1" style="enable-background:new 0 0 314.2 167.1;" xml:space="preserve">
<style type="text/css">
	.st0{fill:#FFFFFF;}
	.st1{enable-background:new    ;}
	.st2{fill:url(#SVGID_1_);}
	.st3{fill:url(#SVGID_2_);}
	.st4{fill:#D7C4E7;}
	.st5{fill:url(#SVGID_3_);}
	.st6{fill:url(#SVGID_4_);}
	.st7{fill:#FAF0FA;}
	.st8{fill:url(#SVGID_5_);}
	.st9{fill:url(#SVGID_6_);}
	.st10{fill:url(#SVGID_7_);}
	.st11{fill:url(#SVGID_8_);}
	.st12{fill:url(#SVGID_9_);}
	.st13{fill:#AF9BFC;}
	.st14{fill:#7061EB;}
	.st15{fill:#5B56D6;}
</style>
<metadata>
	<sfw  xmlns="&ns_sfw;">
		<slices></slices>
		<sliceSourceBounds  bottomLeftOrigin="true" height="167.1" width="314.2" x="50.1" y="280.1"></sliceSourceBounds>
	</sfw>
</metadata>
<path class="st0" d="M225.5,51.4c-2.1-3.5-4.3-5.9-4.9-6.6c-1.4-1.4-2-2-3.6-3.3c-0.7-0.6-1.2-0.9-2.8-1.9c-1-0.5-2.4-0.7-4.2-0.5
	c1.9-0.3,3.4-0.1,4.4,0.5c-2.5-1.5-5.2-2.4-8-2.8c0,0,0,0,0-0.1c-0.4-0.9-1-1.5-1.5-2c-0.4-0.4-0.8-0.6-1.7-1.2
	c-0.1-0.1-0.2-0.1-0.4-0.2c0.7-0.3,1.4-0.7,1.9-1.2c1.3-1.1,2.1-2.4,2.5-3.8c-0.2-1.3-0.4-2.8-1-3.8c-0.2-0.4-0.6-1.1-1.3-1.8
	c-0.7-0.7-1.1-1-2-1.5c-2.9-1.7-6.6-2.1-10.2-1.3c-1.5,0.3-3.2,1.1-4.4,1.9c-0.8,0.6-1.3,1.1-1.5,1.4c-0.6,0.7-0.7,1-1.1,1.8
	c-0.1,0.2-0.2,0.5-0.3,0.7c-0.1,0.2-0.2,0.4-0.2,0.5c-0.1,0.3-0.3,0.7-0.4,1s-0.3,0.7-0.4,1c-0.1,0.2-0.2,0.4-0.2,0.5
	c-0.1,0.3-0.3,0.7-0.4,1c-0.1,0.3-0.3,0.7-0.4,1c-0.1,0.1-0.1,0.3-0.2,0.5c-0.1,0.3-0.3,0.7-0.4,1c-0.1,0.1-0.1,0.3-0.2,0.5
	s-0.2,0.5-0.3,0.8c-0.1,0.1-0.1,0.3-0.2,0.5c-0.1,0.3-0.3,0.7-0.4,0.9c0,0,0,0,0-0.1c-0.3,0.6-0.3,1-0.1,1.3
	c0.4,0.6,1.2,0.7,2.3,0.6c0.6-0.1,1.2-0.2,1.8-0.3c-0.1,0.2-0.2,0.3-0.3,0.6c-0.1,0.3-0.3,0.7-0.4,1c-0.1,0.2-0.2,0.4-0.2,0.5
	c-0.1,0.3-0.3,0.7-0.4,1s-0.3,0.7-0.4,1c-0.1,0.2-0.2,0.4-0.2,0.5c-0.1,0.3-0.3,0.7-0.4,1s-0.3,0.7-0.4,1c0,0,0,0,0,0.1l-1.2,0.7
	c-0.2,0.1-0.5,0.2-0.7,0.4c-2,1.2-3.2,1.9-5.9,4.1c-1.3,1-2.9,2.6-4.1,4c-1.6,1.8-2.8,3.6-3.8,5.5c-4.8,1.8-8.5,7.7-9.5,13.2
	c-3.1,2.2-4.2,5-3.5,7.7v9.1c0,2.2,1.3,4.5,3.9,6.3c0.3,1.6,1.6,3.1,3.7,4.3c5.2,3,13.4,3,18.5,0c0-0.1,0-0.1,0-0.2l2.3-1.3
	c0.7,0.3,1.5,0.6,2.1,0.8c1.8,0.6,3,0.7,4.1,0.9c1.4,0.2,2.7,0.2,3.7,0.2s2.8-0.2,3.6-0.3c1.8-0.3,2.8-0.5,5.2-1.2
	c0,0,2.2-0.7,3.5-1.3c2.2-1,2.4-1.1,4.7-2.4l4-2.3c0.6-0.3,1.1-0.7,1.5-1.1c1.2-0.7,2-1.3,2-1.3c2.3-1.6,2.7-2,4.3-3.5
	c0,0,1.3-1.2,2.5-2.7c1-1.2,1.2-1.6,2.2-3c0.9-1.2,1.5-2.7,1.9-3.5c0.4-0.7,0.7-1.9,1-2.7c0.4-1.3,0.9-3.4,0.9-6.3
	C230.1,60.4,227.2,54.4,225.5,51.4z"/>
<g>
	<g>
		<g class="st1">
			<g>
				<g>
					
						<linearGradient id="SVGID_1_" gradientUnits="userSpaceOnUse" x1="219.8019" y1="417.5815" x2="201.5073" y2="462.9397" gradientTransform="matrix(1 0 0 1 0 -430.7032)">
						<stop  offset="0" style="stop-color:#FFA27D"/>
						<stop  offset="0.3649" style="stop-color:#FF977D"/>
						<stop  offset="1" style="stop-color:#FF797D"/>
					</linearGradient>
					<path class="st2" d="M233.7,0l-35.4,28.1c-3.1,2.4-7.5,1.9-10-1.1c-2.4-3.1-1.9-7.5,1.1-10c0.6-0.5,1.2-0.8,1.9-1.1L233.7,0z"
						/>
				</g>
			</g>
		</g>
	</g>
	
		<linearGradient id="SVGID_2_" gradientUnits="userSpaceOnUse" x1="2388.9709" y1="-1017.355" x2="2412.9836" y2="-1045.972" gradientTransform="matrix(-0.3741 0.9274 0.9274 0.3741 2049.7542 -1818.7832)">
		<stop  offset="0" style="stop-color:#FFA27D;stop-opacity:0"/>
		<stop  offset="0.3649" style="stop-color:#FF977D;stop-opacity:0.2919"/>
		<stop  offset="1" style="stop-color:#FF797D;stop-opacity:0.8"/>
	</linearGradient>
	<circle class="st3" cx="194.9" cy="21.9" r="18.7"/>
	<g>
		<g>
			<path class="st4" d="M168,60.3l-0.3-0.2l-0.4-0.2l-0.3-0.2l-0.6-0.5c-0.2-0.1-0.5-0.4-0.7-0.6c-0.3-0.2-0.4-0.3-0.6-0.5l-0.7-0.6
				l-0.8-0.7c-0.6-0.5-0.8-0.8-1.4-1.5c-1-1.1-1.7-2.3-2.4-3.6c-0.7-1.4-1.2-2.9-1.4-4.6c-0.2-1.6-0.1-3.3,0.4-4.9
				c0.4-1.5,1.1-2.9,2-4.1c0.4-0.6,0.9-1.1,1.3-1.6c0.5-0.5,0.9-0.9,1.5-1.4c0.5-0.4,1-0.8,1.6-1.1l1.3-0.8l0.2-0.2l1.1-0.5
				c0.3-0.1,0.9-0.4,1.3-0.6l2.2-0.9l4.5-1.8l9-3.6c1.1-0.5,2.4,0.1,2.9,1.2c0.4,1,0,2.1-0.8,2.7l-8.1,5.3l-4,2.7l-2,1.3
				c-0.4,0.2-0.4,0.3-0.8,0.6l-0.9,0.7l0.2-0.2l-1,0.9l-0.6,0.8c-0.1,0.2-0.3,0.5-0.5,0.7c-0.1,0.3-0.3,0.5-0.3,0.7
				c-0.4,1-0.2,1.7,0.1,2.1c0.2,0.4,0.9,1.2,1.7,1.7c0.1,0,0.6,0.4,0.8,0.5l0.3,0.2l0.4,0.3c0.2,0.1,0.5,0.3,0.6,0.4
				c0.2,0.1,0.3,0.1,0.5,0.2l0.6,0.3l0.3,0.2c0,0,0,0-0.1-0.1l0,0c3.2,1.7,4.4,5.6,2.7,8.8C175.1,60.8,171.2,62,168,60.3z"/>
		</g>
	</g>
	<g>
		<g class="st1">
			<g>
				<g>
					
						<linearGradient id="SVGID_3_" gradientUnits="userSpaceOnUse" x1="296.7859" y1="455.2947" x2="281.7763" y2="508.1316" gradientTransform="matrix(1 0 0 1 0 -430.7032)">
						<stop  offset="0" style="stop-color:#FFA27D"/>
						<stop  offset="0.3649" style="stop-color:#FF977D"/>
						<stop  offset="1" style="stop-color:#FF797D"/>
					</linearGradient>
					<path class="st5" d="M314.2,36.8L275.8,73c-2.8,2.7-7.3,2.5-10-0.3s-2.5-7.3,0.3-10c0.5-0.4,1-0.8,1.5-1.1L314.2,36.8z"/>
				</g>
			</g>
		</g>
	</g>
	
		<linearGradient id="SVGID_4_" gradientUnits="userSpaceOnUse" x1="2207.2517" y1="-951.6962" x2="2235.4136" y2="-985.2582" gradientTransform="matrix(-0.2733 0.9619 0.9619 0.2733 1810.3684 -1804.9149)">
		<stop  offset="0" style="stop-color:#FFA27D;stop-opacity:0"/>
		<stop  offset="0.3649" style="stop-color:#FF977D;stop-opacity:0.2919"/>
		<stop  offset="1" style="stop-color:#FF797D;stop-opacity:0.8"/>
	</linearGradient>
	<circle class="st6" cx="271.7" cy="67.1" r="21.9"/>
	<g>
		<g>
			<g class="st1">
				<g>
					<path class="st7" d="M185.1,41.8c1.8-1,2.5-1.4,3.5-1.8c2.6-1.2,3-1.3,5.2-2c0.3-0.1,3.4-1.1,7.1-1.4c4.9-0.4,9.4,0.6,13.5,3
						c-2.5-1.5-8.2-0.2-14.7,3.6C193.8,40,188.7,39.7,185.1,41.8z"/>
				</g>
				<g>
					
						<linearGradient id="SVGID_5_" gradientUnits="userSpaceOnUse" x1="180.9641" y1="473.7838" x2="199.4146" y2="473.7838" gradientTransform="matrix(1 0 0 1 0 -430.7032)">
						<stop  offset="0" style="stop-color:#E3CEE4"/>
						<stop  offset="0.3749" style="stop-color:#E0CCE5"/>
						<stop  offset="0.632" style="stop-color:#D7C5E7"/>
						<stop  offset="0.8531" style="stop-color:#C8B9EA"/>
						<stop  offset="1" style="stop-color:#B9AEEE"/>
					</linearGradient>
					<path class="st8" d="M181,44.2l4-2.3c3.7-2.1,8.8-1.8,14.4,1.4l-4,2.3C189.8,42.3,184.7,42,181,44.2z"/>
				</g>
				<g>
					<path class="st7" d="M214.2,39.6c1.6,1,2.1,1.3,2.8,1.9c1.6,1.3,2.2,1.9,3.6,3.3c0.6,0.7,2.8,3.1,4.9,6.6c1.7,3,4.6,9,4.5,15.7
						c0,2.9-0.5,5-0.9,6.3c-0.3,0.8-0.6,2-1,2.7c-0.4,0.8-1,2.3-1.9,3.5c-1,1.4-1.2,1.8-2.2,3c-1.2,1.5-2.5,2.7-2.5,2.7
						c-1.6,1.5-2,1.9-4.3,3.5c0,0-1.4,1-3.5,2.2c3.6-2.1,5.9-6.6,5.9-13c0-12.9-9-28.5-20.2-35C206,39.4,211.7,38.2,214.2,39.6z"/>
				</g>
				<g>
					
						<linearGradient id="SVGID_6_" gradientUnits="userSpaceOnUse" x1="195.364" y1="499.0532" x2="219.5909" y2="499.0532" gradientTransform="matrix(1 0 0 1 0 -430.7032)">
						<stop  offset="0" style="stop-color:#E3CEE4"/>
						<stop  offset="0.3749" style="stop-color:#E0CCE5"/>
						<stop  offset="0.632" style="stop-color:#D7C5E7"/>
						<stop  offset="0.8531" style="stop-color:#C8B9EA"/>
						<stop  offset="1" style="stop-color:#B9AEEE"/>
					</linearGradient>
					<path class="st9" d="M213.7,91.2l-4,2.3c3.6-2.1,5.9-6.6,5.9-13c0-12.9-9-28.5-20.2-35l4-2.3c11.2,6.5,20.2,22.1,20.2,35
						C219.6,84.6,217.4,89.1,213.7,91.2z"/>
				</g>
				<g>
					<path class="st0" d="M179.2,63.4c7.1,4.1,12.9,14.1,12.9,22.3s-5.8,11.5-13,7.4C172,89,166.2,79,166.2,70.8
						C166.3,62.6,172.1,59.3,179.2,63.4z"/>
				</g>
				<g>
					<path class="st0" d="M209.7,93.5c-2.3,1.3-2.5,1.4-4.7,2.4c-1.3,0.6-3.5,1.3-3.5,1.3c-2.4,0.7-3.4,0.9-5.2,1.2
						c-0.8,0.1-2.6,0.3-3.6,0.3s-2.3,0-3.7-0.2c-1.1-0.2-2.3-0.3-4.1-0.9c-0.9-0.3-2.1-0.8-2.9-1.2c-2-1.1-2.1-1.1-4.1-2.6
						c-1.6-1.1-4.2-3.6-5.9-5.9c-0.6-0.8-1.6-2.2-2.7-4.1c-1-1.7-1.9-3.6-2.2-4.4c-0.6-1.5-1.1-2.8-1.5-4.7
						c-0.5-2.3-0.7-3.8-0.8-4.9c-0.1-0.9-0.3-4.3,0.8-7.9c1-3.4,2.8-6.6,5.5-9.7c1.2-1.4,2.8-3,4.1-4c2.7-2.2,3.9-2.9,5.9-4.1
						c3.7-2.1,8.8-1.8,14.4,1.4c-8.9,5.2-16.2,13.2-16.2,17.8c-7.1-4.1-13-0.8-13,7.4s5.8,18.2,12.9,22.3c7.1,4.1,13,0.8,13-7.4
						s-5.8-18.2-12.9-22.3c0-4.6,7.3-12.6,16.2-17.8c11.2,6.5,20.2,22.1,20.2,35C215.6,86.9,213.3,91.4,209.7,93.5z"/>
				</g>
			</g>
		</g>
	</g>
	<g>
		<path class="st0" d="M171.1,63.3c-3.7,2.2-7.4,4.3-11.1,6.5c-0.4,0.2-0.8,0.3-0.8,0.3L171.1,63.3
			C171.1,63.2,171.1,63.3,171.1,63.3z"/>
	</g>
	<g>
		<path class="st0" d="M182.3,95.1c3.7-2.2,7.4-4.3,11.1-6.5c-1.4,0.8-3.2,2.2-3.9,4.3l-9.2,5.3C180.7,96.3,181.7,95.5,182.3,95.1z"
			/>
	</g>
	<g>
		<path class="st0" d="M160,95.1c2.9,1.6,6.9,2.6,11.2,2.6c1.2,0,3.6-0.1,6.1-0.7c2.8-0.6,4.3-1.5,5.1-1.9c-0.7,0.4-1.6,1.3-2,3.2
			c-5.1,3-13.3,3-18.5,0c-2.1-1.2-3.4-2.8-3.7-4.4c0-0.1-0.1-0.3-0.1-0.4C158.3,93.9,159,94.5,160,95.1z"/>
	</g>
	
		<linearGradient id="SVGID_7_" gradientUnits="userSpaceOnUse" x1="154.1827" y1="517.9282" x2="195.071" y2="517.9282" gradientTransform="matrix(1 0 0 1 0 -430.7032)">
		<stop  offset="0" style="stop-color:#E3CEE4"/>
		<stop  offset="0.3749" style="stop-color:#E0CCE5"/>
		<stop  offset="0.632" style="stop-color:#D7C5E7"/>
		<stop  offset="0.8531" style="stop-color:#C8B9EA"/>
		<stop  offset="1" style="stop-color:#B9AEEE"/>
	</linearGradient>
	<path class="st10" d="M183.2,83.9c-6.6,3.8-17.3,3.8-23.9,0c-3.3-1.9-5-4.5-5-7v10.8c0,2.5,1.7,5.1,5,7c6.6,3.8,17.3,3.8,23.9,0
		l9.6-5.6c1.4-0.8,2.3-2.4,2.3-4V77L183.2,83.9z"/>
	<path class="st0" d="M194.2,76.6c-4.2-2.1-9.2-2-13.3,0.4l-0.5,0.3c-5.1,3-13.3,3-18.5,0c-2.9-1.7-4.1-3.9-3.8-6.1
		c0.4-0.6,1.4-1.1,1.7-1.4c-0.4,0.2-0.8,0.3-0.8,0.3c-6.6,3.8-6.6,10,0.1,13.9c6.6,3.8,17.3,3.8,23.9,0l12.1-7
		C195,77,194.7,76.8,194.2,76.6z"/>
	<g>
		<g>
			<path class="st4" d="M265.2,74.8l-10,7.8l-2.5,1.9l-0.3,0.2L252,85l-0.8,0.5c-0.5,0.3-1,0.7-1.5,0.9c-1,0.6-2.1,1.1-3.3,1.6
				s-2.3,0.9-3.4,1.2c-4.6,1.4-9.3,1.9-14.2,1.7c-2.4-0.1-4.8-0.5-7.3-1.1c-0.7-0.2-1.2-0.3-1.8-0.5l-2-0.7l-0.7-0.3l-0.9-0.3
				l-0.8-0.3l-0.4-0.2l-0.2-0.1l-0.4-0.2c-3.1-1.8-4.2-5.8-2.4-8.9s5.8-4.2,8.9-2.4h-0.1l0.2,0.1l0.3,0.2l0.6,0.4l0.6,0.4l0.7,0.4
				l1,0.5c0.3,0.2,0.8,0.4,1.1,0.6c1.5,0.7,3.2,1.2,5,1.7c3.5,0.8,7.3,1,10.9,0.6c0.9-0.1,1.8-0.3,2.7-0.5c0.8-0.2,1.6-0.4,2.6-0.8
				c0.5-0.2,0.9-0.3,1.3-0.5l0.6-0.3l0.3-0.1l0.3-0.2l2.8-1.5l11.2-5.9c1.1-0.6,2.4-0.2,3,0.9C266.4,73,266.1,74.2,265.2,74.8z"/>
		</g>
	</g>
	<g>
		<g class="st1">
			<g>
				<path class="st0" d="M185.9,36L185.9,36L185.9,36z"/>
				
					<linearGradient id="SVGID_8_" gradientUnits="userSpaceOnUse" x1="194.2501" y1="480.358" x2="194.2501" y2="462.3629" gradientTransform="matrix(1 0 0 1 0 -430.7032)">
					<stop  offset="0" style="stop-color:#FAF0FA"/>
					<stop  offset="0.3184" style="stop-color:#F7EDF9"/>
					<stop  offset="0.5367" style="stop-color:#EEE4F8"/>
					<stop  offset="0.7251" style="stop-color:#DFD5F5"/>
					<stop  offset="0.8954" style="stop-color:#CABFF1"/>
					<stop  offset="1" style="stop-color:#B9AEEE"/>
				</linearGradient>
				<path class="st11" d="M206.9,38.4c0-0.3-0.1-0.9-0.5-1.7c-0.4-0.9-1-1.5-1.5-2c-0.4-0.4-0.8-0.6-1.7-1.2l0,0
					c-0.7-0.4-2.5-1.3-4.9-1.6c-2.8-0.4-4.5,0-5.9,0.2c-0.2,0-2.5,0.5-4.5,1.9c-0.8,0.6-1.4,1.2-1.4,1.3c-0.5,0.6-0.5,0.7-1.1,1.7
					l0,0c-0.1,0.3-0.3,0.7-0.4,1c-0.1,0.2-0.2,0.4-0.2,0.5c-0.1,0.3-0.3,0.7-0.4,1s-0.3,0.7-0.4,1c-0.1,0.2-0.2,0.4-0.2,0.5
					c-0.1,0.3-0.3,0.7-0.4,1s-0.3,0.7-0.4,1c-0.1,0.2-0.2,0.4-0.2,0.5c-0.1,0.3-0.3,0.7-0.4,1c-0.1,0.2-0.1,0.4-0.2,0.5
					c-0.1,0.2-0.2,0.4-0.2,0.6c-0.1,0.2-0.1,0.4-0.2,0.5c-0.1,0.3-0.3,0.7-0.4,0.9c0-0.1,0.1-0.2,0.2-0.3c-0.2,0.4-0.3,0.8-0.3,1.1
					c0.1,1.2,0.5,1.9,2.3,1.7c1.7-0.2,3.3-0.5,5-0.7c3.4-0.5,6.7-1,10.1-1.5c0.5-0.1,1.1-0.2,1.5-0.3c2.2-0.5,6-2.1,7-6.1
					C207,39.8,206.9,38.8,206.9,38.4z"/>
				<path class="st0" d="M185.9,36L185.9,36L185.9,36z"/>
			</g>
			<path class="st0" d="M206.2,24.5c-0.2-0.4-0.6-1.1-1.3-1.8c-0.7-0.7-1.1-1-2-1.5l0,0l0,0c-2.9-1.7-6.6-2.1-10.2-1.3
				c-1.5,0.3-3.2,1.1-4.4,1.9c-0.8,0.6-1.3,1.1-1.5,1.4c-0.6,0.7-0.7,1-1.1,1.8l0,0l0,0c-0.1,0.2-0.2,0.5-0.3,0.7s-0.2,0.4-0.2,0.5
				c-0.1,0.3-0.3,0.7-0.4,1s-0.3,0.7-0.4,1c-0.1,0.2-0.2,0.4-0.2,0.5c-0.1,0.3-0.3,0.7-0.4,1s-0.3,0.7-0.4,1
				c-0.1,0.1-0.1,0.3-0.2,0.5c-0.1,0.3-0.3,0.7-0.4,1c-0.1,0.1-0.1,0.3-0.2,0.5s-0.2,0.5-0.3,0.8c-0.1,0.1-0.1,0.3-0.2,0.5
				c-0.1,0.3-0.3,0.7-0.4,0.9c0,0,0,0,0-0.1c-0.3,0.6-0.3,1-0.1,1.3c0.4,0.6,1.2,0.7,2.3,0.6c4.9-0.7,9.8-1.4,14.7-2.1
				c0.4-0.1,1-0.2,1.4-0.3c1.7-0.4,3.5-1.2,4.7-2.2c1.3-1.1,2.1-2.4,2.5-3.8C207,27,206.8,25.5,206.2,24.5z"/>
			<path class="st7" d="M193.1,24.3l0.7-1.8c0.4-0.9,2.5-1.3,3.7-0.6c1.2,0.7,0.6,1.9-1,2.1c-0.9,0.1-2,0.3-3.1,0.5
				c-0.1,0-0.3,0-0.4,0.1L193.1,24.3z"/>
		</g>
	</g>
	
		<linearGradient id="SVGID_9_" gradientUnits="userSpaceOnUse" x1="157.425" y1="498.8157" x2="183.025" y2="498.8157" gradientTransform="matrix(1 0 0 1 0 -430.7032)">
		<stop  offset="0" style="stop-color:#322E7A"/>
		<stop  offset="0.2606" style="stop-color:#373785"/>
		<stop  offset="0.7229" style="stop-color:#434FA4"/>
		<stop  offset="1" style="stop-color:#4C60B9"/>
	</linearGradient>
	<path class="st12" d="M183.1,73.8c0,7.1-25.6,7.1-25.6,0s5.7-16.7,12.8-16.7C177.4,57.1,183.1,66.7,183.1,73.8z"/>
	<path class="st7" d="M199.5,89.7c0.2-1.3,0.4-2.6,0.4-4c0-6.5-2.5-13.5-6.5-19.3c-2.6-3.7-1.8-8.8,1.8-11.4l0.1-0.1
		c7.1,6.1,12.6,17,12.6,25.6c0,3.7-1.1,5.7-2,6.3c-2.1,1.1-2.1,1.2-4,2C201.3,89.1,200.3,89.5,199.5,89.7z"/>
</g>
<polygon class="st13" points="288.9,143.2 276.5,136.6 249.1,142.9 261.7,150.1 "/>
<polygon class="st14" points="254.7,163.3 252,167.1 264.7,167.1 288.9,143.2 261.7,150.1 "/>
<polygon class="st15" points="254.7,163.3 261.7,150.1 249.1,142.9 242.3,155.8 234.3,167.1 252,167.1 "/>
<polygon class="st14" points="42.2,167.1 90.9,167.1 107.3,129.3 56.8,125.1 "/>
<polygon class="st13" points="107.3,129.3 72.2,108.6 21.6,104.7 56.8,125.1 "/>
<polygon class="st15" points="56.8,125.1 21.6,104.7 0,167.1 42.2,167.1 "/>
</svg>
