<?xml version="1.0" encoding="utf-8"?>
<!-- Generator: Adobe Illustrator 24.0.0, SVG Export Plug-In . SVG Version: 6.00 Build 0)  -->
<!DOCTYPE svg PUBLIC "-//W3C//DTD SVG 1.1//EN" "http://www.w3.org/Graphics/SVG/1.1/DTD/svg11.dtd" [
	<!ENTITY ns_extend "http://ns.adobe.com/Extensibility/1.0/">
	<!ENTITY ns_ai "http://ns.adobe.com/AdobeIllustrator/10.0/">
	<!ENTITY ns_graphs "http://ns.adobe.com/Graphs/1.0/">
	<!ENTITY ns_vars "http://ns.adobe.com/Variables/1.0/">
	<!ENTITY ns_imrep "http://ns.adobe.com/ImageReplacement/1.0/">
	<!ENTITY ns_sfw "http://ns.adobe.com/SaveForWeb/1.0/">
	<!ENTITY ns_custom "http://ns.adobe.com/GenericCustomNamespace/1.0/">
	<!ENTITY ns_adobe_xpath "http://ns.adobe.com/XPath/1.0/">
]>
<svg version="1.1" id="Layer_1" xmlns:x="&ns_extend;" xmlns:i="&ns_ai;" xmlns:graph="&ns_graphs;"
	 xmlns="http://www.w3.org/2000/svg" xmlns:xlink="http://www.w3.org/1999/xlink" x="0px" y="0px" width="106px" height="126px"
	 viewBox="0 0 106 126" style="enable-background:new 0 0 106 126;" xml:space="preserve">
<style type="text/css">
	.st0{fill:url(#SVGID_1_);}
	.st1{enable-background:new    ;}
	.st2{fill:url(#SVGID_2_);}
	.st3{fill:url(#SVGID_3_);}
	.st4{fill:#2A3363;}
	.st5{fill:url(#SVGID_4_);}
	.st6{fill:url(#SVGID_5_);}
	.st7{fill:url(#SVGID_6_);}
	.st8{fill:#FFFFFF;}
</style>
<metadata>
	<sfw  xmlns="&ns_sfw;">
		<slices></slices>
		<sliceSourceBounds  bottomLeftOrigin="true" height="332.1" width="477.1" x="6945" y="-4178.8"></sliceSourceBounds>
	</sfw>
</metadata>
<linearGradient id="SVGID_1_" gradientUnits="userSpaceOnUse" x1="480.0518" y1="346.6755" x2="480.0518" y2="346.6755">
	<stop  offset="0" style="stop-color:#4C60B9"/>
	<stop  offset="0.1462" style="stop-color:#5563BF"/>
	<stop  offset="0.6923" style="stop-color:#746ED1"/>
	<stop  offset="1" style="stop-color:#7F72D8"/>
</linearGradient>
<path class="st0" d="M480.1,346.7"/>
<g>
	<g>
		<g class="st1">
			<g>
				<linearGradient id="SVGID_2_" gradientUnits="userSpaceOnUse" x1="3" y1="94.2215" x2="103" y2="94.2215">
					<stop  offset="0" style="stop-color:#4B5FB8"/>
					<stop  offset="1" style="stop-color:#8CE0EE"/>
				</linearGradient>
				<path class="st2" d="M88.2,73.7c19.6,11.3,19.7,29.6,0.2,41C69,126,37.4,126,17.8,114.7c-19.6-11.3-19.7-29.6-0.2-41
					C37,62.4,68.7,62.4,88.2,73.7z"/>
			</g>
		</g>
	</g>
	<g>
		<g>
			<g class="st1">
				<g>
					<linearGradient id="SVGID_3_" gradientUnits="userSpaceOnUse" x1="19.098" y1="21.7757" x2="60.1782" y2="21.7757">
						<stop  offset="0" style="stop-color:#FFFFFF"/>
						<stop  offset="0.3097" style="stop-color:#FDFCFD"/>
						<stop  offset="0.5754" style="stop-color:#F7F1F7"/>
						<stop  offset="0.8241" style="stop-color:#EDDFEE"/>
						<stop  offset="1" style="stop-color:#E3CEE4"/>
					</linearGradient>
					<path class="st3" d="M19.1,22.8l14.1-8.2c0.3,0.2,0.7,0.4,1,0.6c13.8,8,25.4,5.2,26,5l-14.1,8.2c-0.6,0.1-12.2,2.9-26-5
						C19.8,23.2,19.4,23,19.1,22.8z"/>
				</g>
				<g>
					<path class="st4" d="M46.1,28.4c0.6,0.9,12.1,17,25.9,25c0.3,0.2,0.7,0.4,1,0.6c0,2.9-0.1,33.2-0.1,34.8
						c0,15.9-13.5,15.9-27,19C32.4,89.1,19,73.5,19,57.6c0-1.6,0.1-31.9,0.1-34.8c0.3,0.2,0.7,0.4,1,0.6
						C33.9,31.3,45.5,28.5,46.1,28.4z"/>
				</g>
				<g>
					<linearGradient id="SVGID_4_" gradientUnits="userSpaceOnUse" x1="46.0823" y1="37.0438" x2="87.1124" y2="37.0438">
						<stop  offset="0" style="stop-color:#FFFFFF"/>
						<stop  offset="0.3097" style="stop-color:#FDFCFD"/>
						<stop  offset="0.5754" style="stop-color:#F7F1F7"/>
						<stop  offset="0.8241" style="stop-color:#EDDFEE"/>
						<stop  offset="1" style="stop-color:#E3CEE4"/>
					</linearGradient>
					<path class="st5" d="M46.1,28.4l14.1-8.2c0.6,0.9,12.1,17,25.9,25c0.3,0.2,0.7,0.4,1,0.6L73,53.9c-0.3-0.2-0.7-0.4-1-0.6
						C58.2,45.4,46.7,29.2,46.1,28.4z"/>
				</g>
				<g>
					<linearGradient id="SVGID_5_" gradientUnits="userSpaceOnUse" x1="65.9612" y1="73.9848" x2="87.1124" y2="73.9848">
						<stop  offset="0" style="stop-color:#FFFFFF"/>
						<stop  offset="0.3097" style="stop-color:#FDFCFD"/>
						<stop  offset="0.5754" style="stop-color:#F7F1F7"/>
						<stop  offset="0.8241" style="stop-color:#EDDFEE"/>
						<stop  offset="1" style="stop-color:#E3CEE4"/>
					</linearGradient>
					<path class="st6" d="M80.1,94.1L66,102.3c4.2-2.4,6.9-6.4,7-13.5c0-1.6,0.1-31.9,0.1-34.8l14.1-8.2c0,2.9-0.1,33.2-0.1,34.8
						C87,87.7,84.3,91.6,80.1,94.1z"/>
				</g>
			</g>
		</g>
		<g>
			<linearGradient id="SVGID_6_" gradientUnits="userSpaceOnUse" x1="18.8876" y1="64.1072" x2="73.0446" y2="64.1072">
				<stop  offset="0" style="stop-color:#FF797D"/>
				<stop  offset="0.2981" style="stop-color:#FF7E7D"/>
				<stop  offset="0.6476" style="stop-color:#FF8C7D"/>
				<stop  offset="1" style="stop-color:#FFA27D"/>
			</linearGradient>
			<path class="st7" d="M73,64.3l-0.3,24.8c0,0.6,0,1.1-0.1,1.6c0,0.5-0.1,1-0.2,1.5c-0.1,0.5-0.2,1-0.3,1.4
				c-0.1,0.4-0.2,0.9-0.4,1.3L19.8,64.5c-0.1-0.6-0.2-1.1-0.3-1.7c-0.1-0.6-0.2-1.1-0.2-1.7c-0.1-0.6-0.1-1.1-0.2-1.7
				c0-0.6-0.1-1.1-0.1-1.7l-0.1-24.6L73,64.3z"/>
		</g>
		<g>
			<g>
				<path class="st8" d="M33.6,47.5c0.8,0.4,1.5,1,2.2,1.6c0.7,0.6,1.2,1.3,1.7,2.1c0.5,0.8,0.9,1.6,1.1,2.4
					c0.3,0.9,0.4,1.7,0.4,2.6l-3.4-2c0-0.3,0-0.6-0.1-0.9c-0.1-0.3-0.2-0.6-0.4-0.9c-0.2-0.3-0.4-0.6-0.6-0.8
					c-0.3-0.2-0.6-0.5-0.9-0.7c-0.3-0.2-0.6-0.3-0.8-0.3c-0.2-0.1-0.5-0.1-0.7,0c-0.2,0.1-0.3,0.2-0.4,0.3c-0.1,0.2-0.2,0.4-0.2,0.7
					c0,0.1,0,0.3,0.1,0.5c0,0.2,0.1,0.4,0.2,0.6c0.1,0.2,0.3,0.5,0.5,0.8c0.2,0.3,0.5,0.6,0.9,1l1.9,1.8c1,0.9,1.7,1.7,2.3,2.5
					c0.6,0.8,1,1.5,1.3,2.2c0.3,0.7,0.5,1.3,0.6,1.9c0.1,0.6,0.1,1.1,0.1,1.5c0,0.9-0.2,1.6-0.5,2.1c-0.3,0.5-0.8,0.8-1.3,0.9
					c-0.5,0.1-1.2,0.1-1.8-0.1c-0.7-0.2-1.4-0.5-2.1-0.9c-0.9-0.5-1.7-1.1-2.4-1.8c-0.7-0.7-1.3-1.4-1.8-2.2
					c-0.5-0.8-0.9-1.6-1.2-2.5c-0.3-0.8-0.4-1.7-0.4-2.5l3.4,2c0,0.3,0.1,0.6,0.2,0.9c0.1,0.3,0.3,0.7,0.5,1
					c0.2,0.3,0.4,0.6,0.7,0.9c0.3,0.3,0.6,0.5,1,0.8c0.3,0.2,0.7,0.3,0.9,0.4c0.3,0.1,0.5,0.1,0.7,0c0.2,0,0.4-0.2,0.5-0.3
					c0.1-0.2,0.2-0.4,0.2-0.7c0-0.2,0-0.4-0.1-0.6c-0.1-0.2-0.1-0.5-0.3-0.7c-0.1-0.3-0.3-0.5-0.6-0.8c-0.3-0.3-0.6-0.6-1-1
					l-1.9-1.7c-0.9-0.8-1.6-1.6-2.1-2.4c-0.6-0.7-1-1.4-1.3-2.1c-0.3-0.7-0.5-1.3-0.6-1.8c-0.1-0.5-0.2-1-0.2-1.4
					c0-0.8,0.1-1.5,0.4-2c0.3-0.5,0.7-0.9,1.2-1.1c0.5-0.2,1.1-0.2,1.7-0.1C32.1,46.8,32.9,47.1,33.6,47.5z"/>
			</g>
			<g>
				<polygon class="st8" points="59.6,62.6 59.5,77.7 65.5,81.2 65.5,84.7 56,79.2 56.1,60.6 				"/>
			</g>
			<g>
				<path class="st8" d="M47.2,55.3c0.8,0.4,1.5,1,2.2,1.6c0.7,0.6,1.2,1.4,1.7,2.1c0.5,0.8,0.9,1.6,1.1,2.5
					c0.3,0.9,0.4,1.7,0.4,2.6l-3.4-2c0-0.3,0-0.6-0.1-0.9c-0.1-0.3-0.2-0.6-0.4-0.9c-0.2-0.3-0.4-0.6-0.7-0.8
					c-0.3-0.2-0.6-0.5-0.9-0.7c-0.3-0.2-0.6-0.3-0.8-0.3c-0.3-0.1-0.5-0.1-0.7,0c-0.2,0.1-0.3,0.2-0.4,0.3c-0.1,0.2-0.2,0.4-0.2,0.7
					c0,0.1,0,0.3,0,0.5c0,0.2,0.1,0.4,0.2,0.6c0.1,0.2,0.3,0.5,0.5,0.8c0.2,0.3,0.5,0.6,0.9,1l1.9,1.8c1,0.9,1.7,1.7,2.4,2.5
					c0.6,0.8,1,1.5,1.3,2.2c0.3,0.7,0.5,1.3,0.6,1.9c0.1,0.6,0.1,1.1,0.1,1.5c0,0.9-0.2,1.6-0.5,2.1c-0.3,0.5-0.8,0.8-1.3,0.9
					c-0.5,0.1-1.2,0.1-1.9-0.1c-0.7-0.2-1.4-0.5-2.1-0.9c-0.9-0.5-1.7-1.1-2.4-1.8c-0.7-0.7-1.3-1.4-1.8-2.2
					c-0.5-0.8-0.9-1.6-1.2-2.5c-0.3-0.8-0.4-1.7-0.4-2.5l3.4,2c0,0.3,0.1,0.6,0.2,0.9c0.1,0.3,0.3,0.7,0.5,1
					c0.2,0.3,0.4,0.6,0.7,0.9c0.3,0.3,0.6,0.5,1,0.8c0.3,0.2,0.7,0.3,0.9,0.4c0.3,0.1,0.5,0.1,0.7,0c0.2,0,0.4-0.2,0.5-0.3
					c0.1-0.2,0.2-0.4,0.2-0.7c0-0.2,0-0.4-0.1-0.6c-0.1-0.2-0.1-0.5-0.3-0.7c-0.1-0.3-0.3-0.5-0.6-0.8c-0.3-0.3-0.6-0.6-1-1
					l-1.9-1.7c-0.9-0.8-1.6-1.6-2.1-2.4c-0.6-0.7-1-1.5-1.3-2.1c-0.3-0.7-0.5-1.3-0.6-1.8c-0.1-0.5-0.1-1-0.1-1.4
					c0-0.8,0.2-1.5,0.4-2c0.3-0.5,0.7-0.9,1.2-1.1c0.5-0.2,1.1-0.2,1.8-0.1C45.7,54.6,46.5,54.9,47.2,55.3z"/>
			</g>
		</g>
	</g>
</g>
</svg>
