<?xml version="1.0" encoding="utf-8"?>
<!-- Generator: Adobe Illustrator 24.0.0, SVG Export Plug-In . SVG Version: 6.00 Build 0)  -->
<!DOCTYPE svg PUBLIC "-//W3C//DTD SVG 1.1//EN" "http://www.w3.org/Graphics/SVG/1.1/DTD/svg11.dtd" [
	<!ENTITY ns_extend "http://ns.adobe.com/Extensibility/1.0/">
	<!ENTITY ns_ai "http://ns.adobe.com/AdobeIllustrator/10.0/">
	<!ENTITY ns_graphs "http://ns.adobe.com/Graphs/1.0/">
	<!ENTITY ns_vars "http://ns.adobe.com/Variables/1.0/">
	<!ENTITY ns_imrep "http://ns.adobe.com/ImageReplacement/1.0/">
	<!ENTITY ns_sfw "http://ns.adobe.com/SaveForWeb/1.0/">
	<!ENTITY ns_custom "http://ns.adobe.com/GenericCustomNamespace/1.0/">
	<!ENTITY ns_adobe_xpath "http://ns.adobe.com/XPath/1.0/">
]>
<svg version="1.1" id="Layer_1" xmlns:x="&ns_extend;" xmlns:i="&ns_ai;" xmlns:graph="&ns_graphs;"
	 xmlns="http://www.w3.org/2000/svg" xmlns:xlink="http://www.w3.org/1999/xlink" x="0px" y="0px" width="106px" height="126px"
	 viewBox="0 0 106 126" style="enable-background:new 0 0 106 126;" xml:space="preserve">
<style type="text/css">
	.st0{fill:url(#SVGID_1_);}
	.st1{enable-background:new    ;}
	.st2{fill:url(#SVGID_2_);}
	.st3{fill:url(#SVGID_3_);}
	.st4{fill:url(#SVGID_4_);}
	.st5{fill:url(#SVGID_5_);}
	.st6{fill:url(#SVGID_6_);}
	.st7{fill:url(#SVGID_7_);}
	.st8{fill:url(#SVGID_8_);}
	.st9{fill:url(#SVGID_9_);}
	.st10{fill:url(#SVGID_10_);}
	.st11{fill:url(#SVGID_11_);}
	.st12{fill:url(#SVGID_12_);}
	.st13{fill:url(#SVGID_13_);}
	.st14{fill:url(#SVGID_14_);}
	.st15{fill:url(#SVGID_15_);}
	.st16{fill:url(#SVGID_16_);}
	.st17{fill:url(#SVGID_17_);}
	.st18{fill:url(#SVGID_18_);}
	.st19{fill:url(#SVGID_19_);}
	.st20{fill:url(#SVGID_20_);}
	.st21{fill:url(#SVGID_21_);}
	.st22{fill:url(#SVGID_22_);}
</style>
<metadata>
	<sfw  xmlns="&ns_sfw;">
		<slices></slices>
		<sliceSourceBounds  bottomLeftOrigin="true" height="331.5" width="477.1" x="3" y="-220.7"></sliceSourceBounds>
	</sfw>
</metadata>
<linearGradient id="SVGID_1_" gradientUnits="userSpaceOnUse" x1="480.1" y1="234.7" x2="480.1" y2="234.7" gradientTransform="matrix(1 0 0 1 0 112)">
	<stop  offset="0" style="stop-color:#4C60B9"/>
	<stop  offset="0.1462" style="stop-color:#5563BF"/>
	<stop  offset="0.6923" style="stop-color:#746ED1"/>
	<stop  offset="1" style="stop-color:#7F72D8"/>
</linearGradient>
<path class="st0" d="M480.1,346.7"/>
<g>
	<g class="st1">
		<g>
			
				<linearGradient id="SVGID_2_" gradientUnits="userSpaceOnUse" x1="3.0373" y1="-17.8" x2="102.9627" y2="-17.8" gradientTransform="matrix(1 0 0 1 0 112)">
				<stop  offset="0" style="stop-color:#4B5FB8"/>
				<stop  offset="1" style="stop-color:#8CE0EE"/>
			</linearGradient>
			<path class="st2" d="M88.2,73.7c19.6,11.3,19.7,29.6,0.2,41c-19.4,11.3-51,11.3-70.6,0s-19.7-29.6-0.2-41
				C37,62.4,68.7,62.4,88.2,73.7z"/>
		</g>
	</g>
</g>
<g>
	<linearGradient id="SVGID_3_" gradientUnits="userSpaceOnUse" x1="14.7132" y1="76.9551" x2="35.5479" y2="76.9551">
		<stop  offset="0" style="stop-color:#FF797D"/>
		<stop  offset="0.2981" style="stop-color:#FF7E7D"/>
		<stop  offset="0.6476" style="stop-color:#FF8C7D"/>
		<stop  offset="1" style="stop-color:#FFA27D"/>
	</linearGradient>
	<path class="st3" d="M33.9,82.8c-3.8-3.7-9-12.7-10.3-17.8c-1.8-0.3-6.3-1.1-8-1.4c-0.4-0.5-0.7-1-0.8-1.6c1.6,6.3,4.6,12.2,6.8,16
		c1.5,2.7,3.2,5.2,4.9,7.5c1.3,1.8,2,2.6,3.2,4c0.6,0.7,1,1.1,2.3,2.4c-0.4-0.4-0.7-0.9-0.9-1.5C31.7,88.7,38.6,89.7,33.9,82.8z"/>
	<linearGradient id="SVGID_4_" gradientUnits="userSpaceOnUse" x1="31.0814" y1="84.0515" x2="49.6994" y2="84.0515">
		<stop  offset="0" style="stop-color:#FF797D"/>
		<stop  offset="0.2981" style="stop-color:#FF7E7D"/>
		<stop  offset="0.6476" style="stop-color:#FF8C7D"/>
		<stop  offset="1" style="stop-color:#FFA27D"/>
	</linearGradient>
	<path class="st4" d="M49.7,77.6c-0.1-0.8-0.4-1.8-0.7-2.6c0.2,0.6-1.1,1.9-3.6,3.3l-1.6,0.9c-3.5,2-7.9,3.6-9.9,3.6l-2.8,7.6
		c1,2.8,4.5,3.5,8,1.5l1.6-0.9c2.1-1.2,3.6-3.1,4.3-5c0.2-0.4,0.7-1.4,1.5-2.6c0.8-1.1,1.5-2,2.1-2.8c0.5-0.6,0.8-1,0.9-1.3
		C49.6,78.9,49.8,78.6,49.7,77.6z"/>
	<linearGradient id="SVGID_5_" gradientUnits="userSpaceOnUse" x1="14.5967" y1="59.2467" x2="37.5399" y2="59.2467">
		<stop  offset="0" style="stop-color:#FF797D"/>
		<stop  offset="0.2981" style="stop-color:#FF7E7D"/>
		<stop  offset="0.6476" style="stop-color:#FF8C7D"/>
		<stop  offset="1" style="stop-color:#FFA27D"/>
	</linearGradient>
	<path class="st5" d="M26.3,53.6c-2-0.4-4.5,0-6.6,1.3h0l-1.6,0.9c-3.5,2-4.6,5.5-2.7,7.7l8,1.4c1-1.7,4.6-4.8,8-6.8l1.6-0.9
		c2.1-1.2,3.6-1.8,4.3-1.6C33.8,55,30.1,54.3,26.3,53.6z"/>
	<linearGradient id="SVGID_6_" gradientUnits="userSpaceOnUse" x1="23.6077" y1="69.2082" x2="48.9746" y2="69.2082">
		<stop  offset="0" style="stop-color:#FFA27D"/>
		<stop  offset="1" style="stop-color:#FF797D"/>
	</linearGradient>
	<path class="st6" d="M48.9,74.9c-1.1-1.1-2.2-2.4-3.4-3.9c-0.2-0.3-0.5-0.6-0.7-0.9c-0.2-0.3-0.5-0.7-0.7-1c-0.2-0.3-0.4-0.7-0.6-1
		c-0.4-0.7-1.2-2-1.2-2c-1-1.7-1.9-3.6-2.6-5.2c-1-2.4-1.4-3.8-1.7-4.9c-0.2-0.7-2-0.2-4.7,1.3l-1.6,0.9c-3.5,2-7.1,5-8,6.8
		c1.3,5.1,6.5,14.1,10.3,17.8c2,0,6.4-1.6,9.9-3.6c0,0,0,0,0,0l1.6-0.9C48.1,76.8,49.4,75.4,48.9,74.9z"/>
</g>
<g>
	<linearGradient id="SVGID_7_" gradientUnits="userSpaceOnUse" x1="48.8335" y1="95.2382" x2="66.6735" y2="95.2382">
		<stop  offset="0" style="stop-color:#FCFAFC"/>
		<stop  offset="0.3247" style="stop-color:#FAF7FA"/>
		<stop  offset="0.6032" style="stop-color:#F4ECF4"/>
		<stop  offset="0.864" style="stop-color:#EADAEB"/>
		<stop  offset="1" style="stop-color:#E3CEE4"/>
	</linearGradient>
	<path class="st7" d="M66.6,97.8c-0.1-0.3-0.2-0.8-0.3-1.2c0-0.2-0.1-0.4-0.2-0.6c-0.1-0.4-0.2-0.9-0.3-1.3c-0.1-0.4-0.2-1-0.4-1.4
		c-0.1-0.2-0.1-0.5-0.2-0.7c-0.1-0.4-0.3-1-0.4-1.4c-0.1-0.4-0.3-1-0.4-1.4c-0.1-0.2-0.1-0.5-0.2-0.7c-0.1-0.4-0.2-1-0.4-1.4
		c-0.1-0.4-0.2-0.9-0.3-1.3c0-0.2-0.1-0.4-0.2-0.6c-0.1-0.3-0.2-0.8-0.3-1.2c-0.2-0.7-2-0.2-4.7,1.3l-1.6,0.9c-3.5,2-7.1,5-8,6.8
		l2.8,10.9c2,2.2,6.2,2.4,9.7,0.5l0,0l0.1-0.1c0,0,0,0,0.1,0l0,0l1.6-0.9C65.8,102.4,67.1,99.9,66.6,97.8z"/>
	<linearGradient id="SVGID_8_" gradientUnits="userSpaceOnUse" x1="33.9023" y1="84.2895" x2="62.7647" y2="84.2895">
		<stop  offset="0" style="stop-color:#EADAEB"/>
		<stop  offset="1" style="stop-color:#E3CEE4"/>
	</linearGradient>
	<path class="st8" d="M59.6,83c-0.6-0.3-2.5-1.2-4.9-2.9c-0.1-0.1-0.2-0.2-0.3-0.2c0,0-1.3-1-2-1.6c0,0-3.5-3.3-3.5-3.3
		c-1.5,2-0.9,1.8-3.6,3.3l-1.6,0.9c-3.2,1.9-6.6,3.4-9.9,3.6c-0.2,0,4.4,4.5,5.3,5.2c-0.1,0,2.4,1.8,4.8,3.2
		c2.4,1.4,4.8,2.3,4.8,2.4c0.1-0.1,0.2-0.3,0.2-0.4c1.2-1.8,4.7-4.6,8-6.5l1.4-0.8c2.1-1.2,3.6-1.8,4.3-1.6
		C61.7,84,60.1,83.3,59.6,83z"/>
	<linearGradient id="SVGID_9_" gradientUnits="userSpaceOnUse" x1="30.9149" y1="94.432" x2="54.9592" y2="94.432">
		<stop  offset="0" style="stop-color:#FCFAFC"/>
		<stop  offset="0.3247" style="stop-color:#FAF7FA"/>
		<stop  offset="0.6032" style="stop-color:#F4ECF4"/>
		<stop  offset="0.864" style="stop-color:#EADAEB"/>
		<stop  offset="1" style="stop-color:#E3CEE4"/>
	</linearGradient>
	<path class="st9" d="M52,104.4v-0.6c-0.6-2.4-2.5-7.8-3.1-10.3c0,0,0,0,0,0c-0.2-0.1-2.5-1.1-4.8-2.4c-2.3-1.3-4.6-3.1-4.8-3.2
		c-1.2-0.9-2.2-2.2-3.4-3.2c-0.9-0.8-1.1-1-2-2c-0.2,0.6-2.9,7.7-3,8c-0.1,0.2,4.6,4.5,4.7,4.6c0,0,0,0,0,0c1.8,1.8,5.9,4.9,9.5,6.9
		c5.4,3,8.6,3.6,9.8,3.8C53.6,105.9,52.7,105.3,52,104.4z"/>
</g>
<linearGradient id="SVGID_10_" gradientUnits="userSpaceOnUse" x1="48.8532" y1="89.4371" x2="66.2914" y2="89.4371">
	<stop  offset="0" style="stop-color:#FFA27D"/>
	<stop  offset="1" style="stop-color:#FF797D"/>
</linearGradient>
<path class="st10" d="M66,84.7c0.1-0.1,0.2-0.1,0.3-0.1c0,0-0.5,0.2-1.3,0c-3.5-0.8-3.9-0.3-6.6,1.3l-1.6,0.9
	c-2.3,1.3-6.1,4.3-8,6.7c0,0.9,4.3,1.1,5.3,1c0.3,0.1,0.6,0.1,1,0.1c0.1,0,0.2,0,0.2,0c0.3,0,0.6,0,1-0.1c0,0,0,0,0,0
	c0.4,0,0.7-0.1,1.1-0.2c0,0,0.1,0,0.1,0c0.4-0.1,0.7-0.2,1.1-0.3c2.4-0.9,4.7-2.7,5.7-4.8c0.1-0.2,0.2-0.3,0.2-0.5
	c-0.3-0.9-0.3-2,0-3L66,84.7z"/>
<g>
	<linearGradient id="SVGID_11_" gradientUnits="userSpaceOnUse" x1="12.3171" y1="50.0208" x2="23.6077" y2="50.0208">
		<stop  offset="0" style="stop-color:#FCFAFC"/>
		<stop  offset="0.3247" style="stop-color:#FAF7FA"/>
		<stop  offset="0.6032" style="stop-color:#F4ECF4"/>
		<stop  offset="0.864" style="stop-color:#EADAEB"/>
		<stop  offset="1" style="stop-color:#E3CEE4"/>
	</linearGradient>
	<path class="st11" d="M21.8,57.7c0-0.2-0.3-3-0.3-5.7c0-2.9,0.4-5.6,0.3-5.3c-1.8-1.7-6.2-6.1-8-7.9c-0.4-1.2-0.3-2.5,0.2-3.8
		c-1,2.7-1.5,6.2-1.6,10.4c-0.1,3.2,0.3,8.2,1.2,11.7c0,0,0,0,0,0c0,0.2,1.4,6.1,1.6,6.1c3.8,1,4.3,1,8.5,1.7
		C22.3,64.7,22.6,58.6,21.8,57.7z"/>
	<linearGradient id="SVGID_12_" gradientUnits="userSpaceOnUse" x1="21.4442" y1="52.1459" x2="38.5931" y2="52.1459">
		<stop  offset="0" style="stop-color:#EADAEB"/>
		<stop  offset="1" style="stop-color:#E3CEE4"/>
	</linearGradient>
	<path class="st12" d="M36.4,50.9c-0.1-0.7-0.3-3.4-0.2-6.3c0-1.8,0.2-4.2,0.7-5.3c-0.3,0.7-1.5,1.8-3.6,3l-1.6,0.9
		c-3.2,1.9-7.3,3.4-9.4,3.5c-0.1,0-0.3,0-0.5,0c0,0-0.3,2.5-0.4,5.3c0,2.8,0.7,8.8,0.7,8.8c0.7,3.8,1.2,4.3,1.3,4.2
		c2.5-2.4,4.5-3.3,7.9-4.6c0,0,4.4-2.1,7.3-2.6C37.5,55.6,36.4,50.9,36.4,50.9z"/>
</g>
<g>
	<linearGradient id="SVGID_13_" gradientUnits="userSpaceOnUse" x1="48.8335" y1="92.1709" x2="87.6643" y2="92.1709">
		<stop  offset="0" style="stop-color:#FF797D"/>
		<stop  offset="0.2981" style="stop-color:#FF7E7D"/>
		<stop  offset="0.6476" style="stop-color:#FF8C7D"/>
		<stop  offset="1" style="stop-color:#FFA27D"/>
	</linearGradient>
	<path class="st13" d="M87.5,88.5c-3.3-3.2-6.5-6.4-9.8-9.6c-1.5-1.5-4.3-1.6-7.1,0l-1.6,0.9c-0.6,0.3-1.1,0.7-1.6,1.2
		c-0.3-0.1-0.5-0.2-0.8-0.1c-0.6,0.4-0.9,1.4-1.2,2.5c-1,1.7-1.4,3.7-0.9,5.2c-1.3,3.6-6.6,6.6-10.4,5.9c-0.8,0.1-5.2-0.4-5.4-0.9
		c0.4,1.6,1.3,5,1.6,6.3c0.2,0.8,0.2,2.2,2,5.6c-0.1-0.2,2.3,0.8,4.5,1c6.2,1.1,13.5-4.1,15.7-10c2,0,6.4-1.5,9.9-3.6L84,92
		C86.8,90.4,88.1,89.1,87.5,88.5z"/>
	<linearGradient id="SVGID_14_" gradientUnits="userSpaceOnUse" x1="56.7331" y1="97.9426" x2="87.6163" y2="97.9426">
		<stop  offset="0" style="stop-color:#FF797D"/>
		<stop  offset="0.2981" style="stop-color:#FF7E7D"/>
		<stop  offset="0.6476" style="stop-color:#FF8C7D"/>
		<stop  offset="1" style="stop-color:#FFA27D"/>
	</linearGradient>
	<path class="st14" d="M84,92l-1.6,0.9c-3.5,2-7.9,3.6-9.9,3.6c-2.2,5.9-9.4,10-15.6,8.9c-0.4,0.7-0.3,1.1,0.2,1.2
		c0.7,0.1,1.5,0.2,2.2,0.3c0.7,0,1.7,0,2.4,0c0.9,0,2.7-0.2,3.6-0.4c0.9-0.2,2.5-0.5,4.6-1.3c2.1-0.8,3.3-1.5,4.5-2.2L76,102
		c2.8-1.6,5.2-3.6,7.1-5.7c1.3-1.5,2.2-2.7,2.5-3.3c1-1.7,1.4-2.5,1.9-3.9C87.4,89.7,86.1,90.8,84,92z"/>
</g>
<g>
	<linearGradient id="SVGID_15_" gradientUnits="userSpaceOnUse" x1="13.5133" y1="30.9809" x2="49.1026" y2="30.9809">
		<stop  offset="0" style="stop-color:#FF797D"/>
		<stop  offset="0.2981" style="stop-color:#FF7E7D"/>
		<stop  offset="0.6476" style="stop-color:#FF8C7D"/>
		<stop  offset="1" style="stop-color:#FFA27D"/>
	</linearGradient>
	<path class="st15" d="M49,29.1c-0.1-0.3-0.2-0.8-0.3-1.2c0-0.2-0.1-0.4-0.2-0.6c-0.1-0.4-0.2-0.9-0.3-1.3c-0.1-0.4-0.2-1-0.4-1.4
		c-0.1-0.2-0.1-0.5-0.2-0.7c-0.1-0.4-0.3-1-0.4-1.4c-0.1-0.4-0.3-1-0.4-1.4c-0.1-0.2-0.1-0.5-0.2-0.7c-0.1-0.4-0.2-1-0.4-1.4
		c-0.1-0.4-0.2-0.9-0.3-1.3c0-0.2-0.1-0.4-0.2-0.6c-0.1-0.3-0.2-0.8-0.3-1.2c0-0.2-0.2-0.3-0.4-0.3c0,0,0,0,0,0c0,0,0,0,0,0
		c0,0,0,0,0,0c-0.7-0.1-1.5-0.2-2.2-0.3c-0.4,0-0.8,0-1.2,0c-0.6,0-1.4,0-2.1,0.1c-0.4,0-1.7,0.2-2.8,0.4c-1,0.2-2.5,0.5-4.6,1.3
		c-2,0.8-3.3,1.5-4.5,2.1l-1.6,0.9c0,0,0,0,0,0c-3.5,2-5.7,4.2-7,5.6c-1,1.2-1.9,2.3-2.5,3.3c-1.1,1.8-1.4,2.5-2,4
		c-0.1,0.2-1.8,3.6-1,5.8l8,7.9c2,0,6.4-1.5,9.9-3.6l1.6-0.9c2.7-1.6,4-3,3.5-3.5c-1-1-2.1-2.1-3.1-3.1c0.2,0,0.3,0,0.5,0.1
		c1.3,0.3,3.3,0.9,5.3,2l4.6-1.5l0,0h0l1.5-0.9C48.2,33.7,49.5,31.2,49,29.1z M39.1,18.2C39.1,18.2,39.1,18.2,39.1,18.2l0.1-0.1
		C39.2,18.2,39.2,18.2,39.1,18.2z"/>
	<linearGradient id="SVGID_16_" gradientUnits="userSpaceOnUse" x1="21.7865" y1="41.194" x2="37.5487" y2="41.194">
		<stop  offset="0" style="stop-color:#FFA27D"/>
		<stop  offset="1" style="stop-color:#FF797D"/>
	</linearGradient>
	<path class="st16" d="M37.5,36.9c0,0-2.8-1.5-3.5-1.1c-3.8-0.7-9,2.3-10.4,5.9c-0.6,1-0.9,0.6-1.9,5.1c1.4,0.2,8.3-2.6,9.9-3.6
		l1.6-0.9c2.1-1.2,2.8-1.6,3.5-3.5C37,38.1,37.6,36.8,37.5,36.9z"/>
</g>
<g>
	<linearGradient id="SVGID_17_" gradientUnits="userSpaceOnUse" x1="63.9654" y1="78.5095" x2="75.5766" y2="78.5095">
		<stop  offset="0" style="stop-color:#FCFAFC"/>
		<stop  offset="0.3247" style="stop-color:#FAF7FA"/>
		<stop  offset="0.6032" style="stop-color:#F4ECF4"/>
		<stop  offset="0.864" style="stop-color:#EADAEB"/>
		<stop  offset="1" style="stop-color:#E3CEE4"/>
	</linearGradient>
	<path class="st17" d="M75.4,92.9c-0.4-0.4-0.7-0.9-0.9-1.5c0.2-0.6,0.8-4.2,0.8-8.3c0-4-0.6-8.3-0.8-9.2c0.9-1.9,1.8-9.2,0-9.5
		c0,0-5.2,0.5-5.2,0.5c0,0-3.1-0.8-3.1-0.8c-0.1-0.1-2.2,0.2-2.3,0c-0.2-0.3,1.7,6.8,1.6,6.8c0.2,0.7,0.6,3.6,0.6,6.5
		c0,1.8-0.2,4.2-0.7,5.3c-0.1,0.2,0,0.4,0.1,0.6c0,0,0,0-0.1,0C68.9,86.5,72.1,89.7,75.4,92.9z M66.4,83.5L66.4,83.5
		C66.4,83.5,66.4,83.5,66.4,83.5C66.4,83.5,66.4,83.5,66.4,83.5z"/>
	<linearGradient id="SVGID_18_" gradientUnits="userSpaceOnUse" x1="72.1374" y1="75.1016" x2="90.0238" y2="75.1016">
		<stop  offset="0" style="stop-color:#EADAEB"/>
		<stop  offset="1" style="stop-color:#E3CEE4"/>
	</linearGradient>
	<path class="st18" d="M88.9,64.9c-0.2-0.7-1.8-10.2-4.6-8.6l-11,3.3c-3.5,2,2.2,12.7,1.3,14.4c0.2,0.9,0.8,5.2,0.8,9.2
		c0,4-0.6,7.7-0.8,8.3c1,2.9,4.5,3.5,8,1.5L84,92c2.1-1.2,3.6-3.1,4.3-5c1-2.7,1.5-6.2,1.6-10.4C90.1,72.9,89.6,68,88.9,64.9z"/>
</g>
<g>
	<linearGradient id="SVGID_19_" gradientUnits="userSpaceOnUse" x1="35.7837" y1="35.7431" x2="56.7995" y2="35.7431">
		<stop  offset="0" style="stop-color:#FCFAFC"/>
		<stop  offset="0.3247" style="stop-color:#FAF7FA"/>
		<stop  offset="0.6032" style="stop-color:#F4ECF4"/>
		<stop  offset="0.864" style="stop-color:#EADAEB"/>
		<stop  offset="1" style="stop-color:#E3CEE4"/>
	</linearGradient>
	<path class="st19" d="M53.5,47.2c0.6-1.7,2.7-7,3.3-8.7c-0.8-1.1-9.1-7.2-12.6-9.2c-3.5-2-7-3.4-7.6-3.5c0.1,0.3,0,0,0,0
		c-0.4-0.5-0.7-1-0.8-1.6c1.1,4.4,2.3,8.9,3.4,13.3c0,0,0,0,0-0.1c0,0.2,0.2,0.3,0.4,0.4c0.9,0.2,2.8,0.9,5.2,2.3
		c0.3,0.2,1,0.6,1.6,1c0.5,0.3,0.5,0.3,1.6,1.1C48.1,42.3,51,44.3,53.5,47.2z"/>
	<linearGradient id="SVGID_20_" gradientUnits="userSpaceOnUse" x1="35.6671" y1="27.8237" x2="73.2649" y2="27.8237">
		<stop  offset="0" style="stop-color:#EADAEB"/>
		<stop  offset="1" style="stop-color:#E3CEE4"/>
	</linearGradient>
	<path class="st20" d="M66.8,26.6c-0.1-0.1-3.3-3.2-9-6.5c-2.5-1.5-4.6-2.3-5.4-2.7c-2.4-1-3.7-1.3-5-1.5c-2-0.4-4.5,0-6.6,1.3
		l-1.6,0.9c-3.5,2-4.6,5.5-2.7,7.7c0.6,0.1,4.1,1.5,7.6,3.5c3.5,2,11.6,7.8,12.9,10.5c2,0,1.1-6.8,4.5-8.8l11,4.7
		C75.4,34.2,67.3,27.2,66.8,26.6z"/>
</g>
<g>
	<linearGradient id="SVGID_21_" gradientUnits="userSpaceOnUse" x1="53.3615" y1="52.2392" x2="76" y2="52.2392">
		<stop  offset="0" style="stop-color:#FF797D"/>
		<stop  offset="0.2981" style="stop-color:#FF7E7D"/>
		<stop  offset="0.6476" style="stop-color:#FF8C7D"/>
		<stop  offset="1" style="stop-color:#FFA27D"/>
	</linearGradient>
	<path class="st21" d="M72.7,66.7C72.7,66.7,72.6,66.7,72.7,66.7c-2.1-8.4-9.3-20.8-15.5-26.9c-0.4-1.2-0.3-2.5,0.2-3.8
		c-0.1,0.3-0.3,0.7-0.4,1c-0.1,0.2-0.1,0.4-0.2,0.5c-0.1,0.3-0.3,0.7-0.4,1.1c-0.1,0.3-0.3,0.8-0.4,1.1c-0.1,0.2-0.1,0.4-0.2,0.6
		c-0.1,0.3-0.3,0.8-0.4,1.1c-0.1,0.3-0.3,0.8-0.4,1.1c-0.1,0.2-0.1,0.4-0.2,0.6c-0.1,0.3-0.3,0.8-0.4,1.1c-0.1,0.3-0.8,2.3-1,2.6
		c-0.1,0.2-0.1,0.4,0.1,0.5c0,0,0,0,0,0c1.3,1.3,2.6,2.9,3.4,3.9c1.1,1.5,2.2,3.1,3.2,4.9c1,1.7,1.9,3.6,2.6,5.2
		c1,2.4,1.4,3.8,1.7,4.9c0,0,0,0,0,0c0,0.2,0.2,0.3,0.4,0.3c3.7,0.7,7.5,1.3,11.2,2C74.7,68.2,73.5,67.6,72.7,66.7z"/>
	<linearGradient id="SVGID_22_" gradientUnits="userSpaceOnUse" x1="56.9251" y1="48.764" x2="87.743" y2="48.764">
		<stop  offset="0" style="stop-color:#FF797D"/>
		<stop  offset="0.2981" style="stop-color:#FF7E7D"/>
		<stop  offset="0.6476" style="stop-color:#FF8C7D"/>
		<stop  offset="1" style="stop-color:#FFA27D"/>
	</linearGradient>
	<path class="st22" d="M87.6,60.1c-0.7-2.5-1.6-5.2-2.8-8c-1.4-3.3-3-6.2-4-8c-1.5-2.6-3.3-5.4-4.9-7.5c-1.4-1.9-1.9-2.5-3.2-4
		c-0.6-0.7-1-1.1-2.3-2.4c-1.5-1.5-4.3-1.6-7.1,0L61.7,31c-3.5,2-5.5,6-4.5,8.8c6.2,6.1,13.4,18.5,15.5,26.9c2,2.3,6.4,2.5,9.9,0.5
		l1.6-0.9C86.8,64.7,88.2,62.2,87.6,60.1z"/>
</g>
</svg>
