<?xml version="1.0" encoding="utf-8"?>
<!-- Generator: Adobe Illustrator 24.0.0, SVG Export Plug-In . SVG Version: 6.00 Build 0)  -->
<!DOCTYPE svg PUBLIC "-//W3C//DTD SVG 1.1//EN" "http://www.w3.org/Graphics/SVG/1.1/DTD/svg11.dtd" [
	<!ENTITY ns_extend "http://ns.adobe.com/Extensibility/1.0/">
	<!ENTITY ns_ai "http://ns.adobe.com/AdobeIllustrator/10.0/">
	<!ENTITY ns_graphs "http://ns.adobe.com/Graphs/1.0/">
	<!ENTITY ns_vars "http://ns.adobe.com/Variables/1.0/">
	<!ENTITY ns_imrep "http://ns.adobe.com/ImageReplacement/1.0/">
	<!ENTITY ns_sfw "http://ns.adobe.com/SaveForWeb/1.0/">
	<!ENTITY ns_custom "http://ns.adobe.com/GenericCustomNamespace/1.0/">
	<!ENTITY ns_adobe_xpath "http://ns.adobe.com/XPath/1.0/">
]>
<svg version="1.1" id="svg2" xmlns:x="&ns_extend;" xmlns:i="&ns_ai;" xmlns:graph="&ns_graphs;"
	 xmlns="http://www.w3.org/2000/svg" xmlns:xlink="http://www.w3.org/1999/xlink" x="0px" y="0px" width="337px" height="318px"
	 viewBox="0 0 337 318" style="enable-background:new 0 0 337 318;" xml:space="preserve">
<style type="text/css">
	.st0{fill:#FFFFFF;}
</style>
<metadata>
	<sfw  xmlns="&ns_sfw;">
		<slices></slices>
		<sliceSourceBounds  bottomLeftOrigin="true" height="305.4" width="305" x="13" y="6.3"></sliceSourceBounds>
	</sfw>
</metadata>
<path class="st0" d="M285.4,6.3c2.5,9.6,5,19.1,7.6,28.6c8.2,30.1,16.6,60.1,24.7,90.2c0.4,1.6,0.1,3.7-0.7,5.1
	c-5.1,9-10.4,17.8-15.9,26.6c-1.2,1.9-1.1,3.2,0.1,5c5.5,8.9,10.8,17.9,16,26.8c0.7,1.2,1,3,0.7,4.2
	c-10.6,38.9-21.4,77.7-32.1,116.5c-0.2,0.7-0.5,1.5-0.9,2.4c-7.8-2-15.6-4-23.3-6.1c-32.7-8.6-65.4-17.1-98.1-25.7
	c-2.3-0.6-3.8-1.7-4.9-3.8c-5-8.8-10.2-17.4-15.2-26.3c-1.1-2-2.4-2.6-4.7-2.6c-10.4,0.2-20.6,0.1-31,0.3c-2.4,0.1-4.1-0.6-5.8-2.3
	c-28.8-28-57.8-56.2-86.9-84.3c-0.6-0.6-1.3-1.1-2-1.6c0-0.2,0-0.5,0-0.7c0.7-0.6,1.5-1.2,2.2-1.8c29-28.2,58-56.3,87-84.6
	c1.5-1.5,3-2.1,5.2-2.1c10.7,0.1,21.3,0.1,32,0.2c1.9,0,2.9-0.6,3.9-2.2c5.3-9.2,10.6-18.3,16-27.3c0.7-1.2,2-2.4,3.3-2.7
	c32.3-8.4,64.8-16.8,97.1-25.2c8.2-2.1,16.2-4.4,24.4-6.6C284.6,6.3,285,6.3,285.4,6.3z M266.9,250.5c0.3-0.4,0.5-0.5,0.5-0.7
	c8.5-29.7,17.1-59.4,25.5-89.2c0.3-1.3,0.1-2.8-0.2-4.2c-5.8-20.6-11.7-41.1-17.6-61.7c-2.6-9.1-5.2-18.2-8-27.8
	c-0.7,0.9-1.1,1.4-1.5,1.9c-17.5,29.4-34.9,58.7-52.4,88c-1.1,1.8-0.7,2.9,0.2,4.4c17.3,29,34.5,57.9,51.7,86.8
	C265.8,248.9,266.4,249.7,266.9,250.5z M76.3,173.8c0.9,1,1.2,1.4,1.5,1.8c21.9,21.7,43.9,43.5,65.8,65.2c1,1,2.6,1.7,4,2
	c25.6,6.5,51.3,12.9,76.9,19.3c5.1,1.3,10.2,2.4,16,3.9c-1-1.8-1.5-2.8-2.1-3.8c-17-28.5-33.9-56.9-50.8-85.5
	c-1.3-2.2-2.7-2.9-5.2-2.9c-34,0.1-68.1,0.1-102.2,0.1C79.2,173.8,78.1,173.8,76.3,173.8z M77,143.6c0.3,0.1,0.8,0.1,1.3,0.1
	c35,0,69.9,0.1,104.8-0.1c1.3,0,3-1.2,3.7-2.4c17.4-29,34.6-58.1,51.9-87.1c0.4-0.7,0.7-1.4,1.1-2.4c-0.9,0.1-1.3,0.2-1.7,0.3
	c-29.9,7.5-59.8,15-89.7,22.6c-2.2,0.5-4.5,1.8-6.1,3.4c-14.7,14.3-29.4,28.8-43.9,43.3C91.3,128.6,84.2,136.1,77,143.6z"/>
</svg>
