<?xml version="1.0" encoding="utf-8"?>
<!-- Generator: Adobe Illustrator 24.0.0, SVG Export Plug-In . SVG Version: 6.00 Build 0)  -->
<!DOCTYPE svg PUBLIC "-//W3C//DTD SVG 1.1//EN" "http://www.w3.org/Graphics/SVG/1.1/DTD/svg11.dtd" [
	<!ENTITY ns_extend "http://ns.adobe.com/Extensibility/1.0/">
	<!ENTITY ns_ai "http://ns.adobe.com/AdobeIllustrator/10.0/">
	<!ENTITY ns_graphs "http://ns.adobe.com/Graphs/1.0/">
	<!ENTITY ns_vars "http://ns.adobe.com/Variables/1.0/">
	<!ENTITY ns_imrep "http://ns.adobe.com/ImageReplacement/1.0/">
	<!ENTITY ns_sfw "http://ns.adobe.com/SaveForWeb/1.0/">
	<!ENTITY ns_custom "http://ns.adobe.com/GenericCustomNamespace/1.0/">
	<!ENTITY ns_adobe_xpath "http://ns.adobe.com/XPath/1.0/">
]>
<svg version="1.1" id="svg2" xmlns:x="&ns_extend;" xmlns:i="&ns_ai;" xmlns:graph="&ns_graphs;"
	 xmlns="http://www.w3.org/2000/svg" xmlns:xlink="http://www.w3.org/1999/xlink" x="0px" y="0px" width="337px" height="318px"
	 viewBox="0 0 337 318" style="enable-background:new 0 0 337 318;" xml:space="preserve">
<style type="text/css">
	.st0{fill:#FFFFFF;}
</style>
<metadata>
	<sfw  xmlns="&ns_sfw;">
		<slices></slices>
		<sliceSourceBounds  bottomLeftOrigin="true" height="307.8" width="305" x="63.6" y="52.6"></sliceSourceBounds>
	</sfw>
</metadata>
<g>
	<path class="st0" d="M168.6,5.1c70.4,0.2,131.9,49,148.1,117.5c15.9,67.4-13.5,136.2-73.1,170.3c-27,15.5-56.3,22-87.3,19.4
		c-69-5.7-125.3-56.8-137.7-124.8C7.3,125.7,33.3,64.6,85.7,30c19.9-13.1,41.8-21,65.5-23.6C157,5.8,162.8,5.5,168.6,5.1z
		 M166.1,306.6c21.6-0.1,40.3-3.6,58.1-11.1c71.1-29.9,107.2-109.1,83.2-182.4C285.8,47.4,222.5,6,153.8,12.8
		c-20.9,2.1-40.4,8.3-58.4,19c-55.2,32.9-82.6,95.4-69.6,158.3C39.7,257.6,99.8,306.6,166.1,306.6z"/>
	<path class="st0" d="M159.2,67c-3.2,3-6.6,5.8-9.6,9.1c-6.9,7.5-9.7,16.3-7.4,26.5c0.3,1.4,0.8,2.8,1.5,4c1.8,3.2,4.7,4.1,8.1,2.7
		c0.5-0.2,0.9-0.3,1.7-0.7c0,1,0,1.9,0,2.7c0,29,0,58,0,87.1c0,6.3,4.2,11.3,10.5,12.5c3.8,0.7,7.4,0.1,10.7-1.7
		c4.7-2.5,9.1-5.5,13.5-8.4c0.6-0.4,1.1-1.6,1.1-2.3c0-24.9,0.2-49.8,0-74.7c-0.1-8.2-4.3-14.6-11-20c6.5,0,12.4,0.5,17.9,3.9
		c15.9-16.5,35.2-27.2,58.2-32.1c-1.9,2.4-3.6,4.2-5.1,6.3c-6.7,9.1-13.6,18.2-20.1,27.5c-1.2,1.7-1.9,4.3-1.9,6.4
		c-0.2,20.5-0.3,41-0.3,61.6c0,7.4,0.4,14.8,0.5,22.3c0,2.1,1,3.2,2.6,4.1c3.4,1.8,7,1.6,10.5,0.5c6.8-2,12.3-6.2,17.6-10.7
		c3.3-2.8,6.4-5.8,9.7-8.6c-12.6,24.7-29.4,45.8-53.4,60.6c-6.9-5.8-13.7-11.6-20.7-17.5c-0.5,0.5-1,0.9-1.4,1.3
		c-6.5,6.9-13,13.9-19.5,20.8c-0.6,0.6-1.9,1.3-2.7,1.2c-16-2.2-31.4-6.4-45.7-14.1c-8.7-4.7-16.4-10.7-22.4-18.6
		c-0.3-0.3-0.4-0.7-0.7-1.1c2.4,0.3,4.7,0.7,7,0.7c5.1,0,8-2.9,8-7.9c0-24,0-48,0-71.9c0-5.4-4.3-8.7-9.6-7.7
		c-6.3,1.2-11.2,4.8-15.7,8.9c-13.3,12.2-23.8,26.5-31.9,42.6c-0.3,0.6-0.6,1.3-1.4,1.9c0-0.6-0.1-1.3-0.2-1.9
		c-0.7-15.6,4.2-29.6,11.8-42.9c6.4-11,14.8-20.4,23.5-29.5c11.9-12.5,24.8-23.8,40.1-32.2c8-4.5,16.5-7.9,25.3-10.4
		C158.5,67.1,158.9,67,159.2,67z"/>
</g>
</svg>
