<?xml version="1.0" encoding="utf-8"?>
<!-- Generator: Adobe Illustrator 24.0.0, SVG Export Plug-In . SVG Version: 6.00 Build 0)  -->
<!DOCTYPE svg PUBLIC "-//W3C//DTD SVG 1.1//EN" "http://www.w3.org/Graphics/SVG/1.1/DTD/svg11.dtd" [
	<!ENTITY ns_extend "http://ns.adobe.com/Extensibility/1.0/">
	<!ENTITY ns_ai "http://ns.adobe.com/AdobeIllustrator/10.0/">
	<!ENTITY ns_graphs "http://ns.adobe.com/Graphs/1.0/">
	<!ENTITY ns_vars "http://ns.adobe.com/Variables/1.0/">
	<!ENTITY ns_imrep "http://ns.adobe.com/ImageReplacement/1.0/">
	<!ENTITY ns_sfw "http://ns.adobe.com/SaveForWeb/1.0/">
	<!ENTITY ns_custom "http://ns.adobe.com/GenericCustomNamespace/1.0/">
	<!ENTITY ns_adobe_xpath "http://ns.adobe.com/XPath/1.0/">
]>
<svg version="1.1" id="Layer_1" xmlns:x="&ns_extend;" xmlns:i="&ns_ai;" xmlns:graph="&ns_graphs;"
	 xmlns="http://www.w3.org/2000/svg" xmlns:xlink="http://www.w3.org/1999/xlink" x="0px" y="0px" width="308.8px" height="201.7px"
	 viewBox="0 0 308.8 201.7" style="enable-background:new 0 0 308.8 201.7;" xml:space="preserve">
<style type="text/css">
	.st0{enable-background:new    ;}
	.st1{fill:#AF9BFC;}
	.st2{fill:#7061EB;}
	.st3{fill:#5B56D6;}
	.st4{fill:#FFFFFF;}
	.st5{fill:url(#SVGID_1_);}
	.st6{fill:url(#SVGID_2_);}
	.st7{fill:#FAF0FA;}
	.st8{fill:url(#SVGID_3_);}
	.st9{fill:url(#SVGID_4_);}
	.st10{fill:url(#SVGID_5_);}
	.st11{fill:#CFBFE9;}
	.st12{fill:url(#SVGID_6_);}
	.st13{fill:#F1DDF1;}
	.st14{fill:url(#SVGID_7_);}
	.st15{fill:#353481;}
	.st16{fill:#12D8D3;}
	.st17{fill:url(#SVGID_8_);}
	.st18{fill:url(#SVGID_9_);}
	.st19{fill:url(#SVGID_10_);}
</style>
<metadata>
	<sfw  xmlns="&ns_sfw;">
		<slices></slices>
		<sliceSourceBounds  bottomLeftOrigin="true" height="201.7" width="308.8" x="-146.4" y="-108.5"></sliceSourceBounds>
	</sfw>
</metadata>
<g>
	<g class="st0">
		<g>
			<polygon class="st1" points="179,10.2 172.9,6.7 186.1,3.6 192.1,6.8 			"/>
		</g>
		<g>
			<polygon class="st2" points="179,10.2 192.1,6.8 177.6,21.2 171.4,22.6 175.6,16.6 			"/>
		</g>
		<polygon class="st3" points="172.9,6.7 169.6,12.9 165.4,18.8 171.4,22.6 175.6,16.6 179,10.2 		"/>
	</g>
</g>
<g>
	<g class="st0">
		<g>
			<polygon class="st3" points="205.1,118.8 195.4,113.2 192.1,108.7 201.7,114.3 			"/>
		</g>
		<g>
			<polygon class="st2" points="206.5,99.3 216.7,94.2 223.2,97.9 217.2,109.4 205.1,118.8 201.7,114.3 			"/>
		</g>
		<polygon class="st1" points="213.6,92.3 207,88.6 196.9,93.7 192.1,108.7 201.7,114.3 206.5,99.3 216.7,94.2 223.2,97.9 		"/>
	</g>
</g>
<polygon class="st2" points="254.2,46.2 248.7,55.6 234.9,52.7 "/>
<polygon class="st2" points="277.8,40.3 266,43.4 261.3,33.4 "/>
<g>
	<path class="st4" d="M91.6,98.8c-4.8-3.2-7.4-4.4-9.6-5.4c-0.4-0.2-0.7-0.2-1.2-0.2c-0.4-0.2-0.8-0.4-1.1-0.5
		c-0.4-0.1-0.8-0.4-1.2-0.5c0,0-1.1-0.5-2.3-0.8c-0.4-0.1-0.8-0.3-1.2-0.4c-0.7-0.3-1.5-0.5-2.3-0.6c-0.5-0.1-1.6-0.4-2.3-0.5
		c-0.6-0.1-1.5-0.3-2.2-0.4c-0.3,0-0.7-0.1-1.1-0.1c-0.3,0-1.4-0.1-2.2-0.1c-0.4,0-0.7,0-1.1,0c-0.7,0-1.5,0.1-2.2,0.1
		c-0.4,0-0.8,0.1-1.2,0.1s-0.7,0.1-1.1,0.1c-0.4,0-0.6,0.1-1,0.4c-0.1,0-0.2,0-0.2,0l-1.4,1.1l0,0c-0.7,0.5-1,1.4-0.9,2.5l-0.2-0.1
		c0.3,2.3,0.7,8.1,1,10.4c0.1,1.2,0.3,2.3,0.4,3.5c0.3,2.3,0.4,4.4,0.6,6.8c0,0,0.2,0.2,0.5,0.5l-0.7,0.5c0.3-0.2,0.5-0.3,0.8-0.4
		l0,0c-0.4,0.1-0.6,0.3-1,0.5c-0.7,0.5-2.2,1.4-3.5,2.4c-0.5,0.4-1.9,1.5-2.9,3c-0.5,0.8-2.1,3.2-2.1,6.5c0,0.5,0.1,2.2,0.7,4.3
		c0.6,2,1.4,3.5,1.8,4.2c1.1,1.8,2.2,3,2.8,3.6c1.5,1.7,2.5,2.3,3.5,2.9h0.1c0.1,0,0.2,0,0.3,0c14.2,4.8,28.9,9.9,43.1,14.8l0,0
		c2.1,0.7,5.3,0.2,8.6-1.6v-0.1l1.8-1c3.3-2,5.4-4.6,5.4-6.8c0-1.7,0-3.3,0-5s0-3.3,0-5.1c0.1-0.1,0.2-0.1,0.2-0.1
		c-1.3-0.7-2.5-1.4-3.7-2.2v-3.7c0.3-0.6,0.3-1.4,0.3-2.3c0-0.4-0.1-0.7-0.1-1.1c-0.2-0.5-0.2-1.1-0.3-1.4c-0.3-0.9-0.5-2-0.6-2.3
		c-0.1-0.4-0.3-0.7-0.4-1.1c-0.1-0.5-0.4-1.1-0.5-1.4c-0.1-0.3-0.4-0.7-0.5-1c-0.6-1.4-0.7-1.6-1-2.1c-0.3-0.3-0.5-0.7-0.6-1
		c-0.2-0.3-0.4-0.6-0.6-1c-0.2-0.3-0.4-0.7-0.6-1c-1-1.4-1.7-2.3-2.2-3c-0.5-0.5-0.5-0.5-1.7-1.9c-0.2-0.4-0.5-0.7-0.8-1
		c-0.5-0.5-0.8-0.7-1.7-1.6l-0.2-0.3c-2.4-2.3-5.3-4.8-5.3-4.8c-0.7-0.6-1.4-1.2-2.1-1.8c-1-0.7-1.8-1.6-2.7-2.4l0,0L91.6,98.8"/>
	<g>
		<g>
			<path class="st4" d="M108.4,100c4.3,2.5,5.4,6.3,2.8,9.4l-11.9,14.1c-4.3,2.5-11.4,2.5-15.7,0l-7.9-4.6L108.4,100z"/>
		</g>
		<g>
			<g class="st0">
				<g>
					
						<linearGradient id="SVGID_1_" gradientUnits="userSpaceOnUse" x1="15.8428" y1="-1309.6597" x2="34.8303" y2="-1257.8347" gradientTransform="matrix(1 0 0 1 0 1380.8)">
						<stop  offset="0" style="stop-color:#4E60B9"/>
						<stop  offset="0.1757" style="stop-color:#4C64BA"/>
						<stop  offset="0.3602" style="stop-color:#4671BD"/>
						<stop  offset="0.5486" style="stop-color:#3B86C1"/>
						<stop  offset="0.7398" style="stop-color:#2CA3C8"/>
						<stop  offset="0.9313" style="stop-color:#1AC9D0"/>
						<stop  offset="1" style="stop-color:#12D8D3"/>
					</linearGradient>
					<path class="st5" d="M0,86l46.2,18.2c4.3,1.7,6.5,6.8,4.8,11.1c-1.7,4.3-6.8,6.5-11.1,4.8c-1-0.4-1.8-0.8-2.5-1.5L0,86z"/>
				</g>
			</g>
		</g>
		
			<linearGradient id="SVGID_2_" gradientUnits="userSpaceOnUse" x1="3124.1211" y1="2307.8108" x2="3150.5415" y2="2276.4583" gradientTransform="matrix(0.344 0.939 -0.939 0.344 1114.7305 -3623.2598)">
			<stop  offset="0" style="stop-color:#22A4CB;stop-opacity:0"/>
			<stop  offset="0.2591" style="stop-color:#20A9CC;stop-opacity:0.2591"/>
			<stop  offset="0.5487" style="stop-color:#1CB6CE;stop-opacity:0.5487"/>
			<stop  offset="0.8519" style="stop-color:#15CCD1;stop-opacity:0.8519"/>
			<stop  offset="1" style="stop-color:#10DAD3"/>
		</linearGradient>
		<circle class="st6" cx="41.8" cy="111.2" r="20.5"/>
		<g>
			<g class="st0">
				<g>
					<path class="st4" d="M59.8,114.1c0.7-0.5,2.2-1.2,3.9-1.8c2.1-0.7,3.5-1,3.9-1c1.9-0.3,4-0.3,6.9,1.4c-1-0.6-3.9,0.3-7.1,2.2
						C64.2,113.2,61.6,113,59.8,114.1z"/>
				</g>
				<g>
					<path class="st4" d="M57.8,115.2l1.9-1.1c1.9-1.1,4.6-1,7.5,0.7l-1.9,1.1C62.3,114.3,59.8,114.1,57.8,115.2z"/>
				</g>
				<g>
					<path class="st4" d="M101.5,157.1c-14.4-5-28.7-9.9-43.1-14.8c-0.5-0.1-0.7-0.5-0.8-1l42.3,14.6
						C100.3,156.6,100.8,156.9,101.5,157.1z"/>
				</g>
				<g>
					<path class="st4" d="M74.4,112.7c14.4,8.3,28.7,16.5,43.1,24.8c0,0-2.1,1.2-5.4,3.2l-44.8-25.8C70.5,113,73.2,112.2,74.4,112.7
						z"/>
				</g>
				<g>
					<path class="st4" d="M117.3,137.6c0,1.7,0,3.3,0,5.1c0,1.7,0,3.3,0,5c0,2.2-2.1,4.8-5.4,6.8v-13.6
						C115.3,139,117.3,137.6,117.3,137.6z"/>
				</g>
				<g>
					<polygon class="st7" points="110.1,141.9 111.9,140.9 111.9,154.4 110,155.5 					"/>
				</g>
				<g>
					<polygon class="st4" points="65.3,115.9 67.1,114.9 111.9,140.9 110.1,141.9 					"/>
				</g>
				<path class="st7" d="M99.9,147.7c0,2.8,0,5.5,0,8.2c-14.1-4.8-28.1-9.7-42.3-14.6c-4.3-2.5-7.9-8.6-7.9-13.6c0-5,3.5-7,7.9-4.4
					C71.7,131.6,85.9,139.7,99.9,147.7z"/>
				<g>
					<path class="st4" d="M99.9,147.7c1.4-0.8,6-3.3,10.1-6v13.7c-4.2,2.4-8.7,2.6-10.1,0.5V147.7z"/>
				</g>
			</g>
		</g>
		<g>
			<path class="st4" d="M59.8,89.8c0.4,0,0.7-0.1,1.1-0.1c0.4,0,0.8-0.1,1.2-0.1c0.6,0,1.4-0.1,2.2-0.1c0.4,0,0.7,0,1.1,0
				c0.8,0,1.9,0.1,2.2,0.1c0.4,0,0.8,0.1,1.1,0.1c0.6,0.1,1.5,0.3,2.2,0.4c0.6,0.1,1.8,0.4,2.3,0.5c0.7,0.1,1.5,0.4,2.3,0.6
				c0.4,0.1,0.8,0.3,1.2,0.4c1.2,0.4,2.3,0.8,2.3,0.8c0.4,0.1,0.8,0.4,1.2,0.5c0.6,0.3,1.5,0.6,2.2,1c-0.7-0.4-1.5-0.3-2.4,0.4
				c-7.6-3.5-14.8-4.7-21.1-3.6C58.9,89.9,59.2,89.8,59.8,89.8z"/>
			
				<linearGradient id="SVGID_3_" gradientUnits="userSpaceOnUse" x1="79.7177" y1="-1284.6404" x2="91.6038" y2="-1284.6404" gradientTransform="matrix(1 0 0 1 0 1380.8)">
				<stop  offset="0" style="stop-color:#E3CEE4"/>
				<stop  offset="0.3749" style="stop-color:#E0CCE5"/>
				<stop  offset="0.632" style="stop-color:#D7C5E7"/>
				<stop  offset="0.8531" style="stop-color:#C8B9EA"/>
				<stop  offset="1" style="stop-color:#B9AEEE"/>
			</linearGradient>
			<path class="st8" d="M82.1,93.4c2.2,1,4.8,2.3,9.6,5.4c-0.6-0.4-1.4-0.4-2.4,0.4c-3.2-2.2-6.4-4-9.6-5.4
				C80.5,93.2,81.3,93,82.1,93.4z"/>
			<path class="st4" d="M91.8,99.1c1,0.8,1.9,1.8,3,2.6c0.7,0.6,1.4,1.2,2.1,1.8c0,0,2.9,2.5,5.3,4.8c-0.5-0.4-1.2-0.3-2.2,0.5
				l-10.8-9.7C90.3,98.5,91.1,98.5,91.8,99.1z"/>
			<path class="st4" d="M113.7,128.4l-20.2-12.2c1.8-2.9,3.8-5.1,5.2-6.3l-10.8-9.7c-2,1.4-3.9,5.1-5.3,9.4l-8-4.9
				c0.6-4.7,2.1-8.6,4-9.9c-7.6-3.5-14.8-4.8-21.1-3.6c-0.7,0.5-1,1.4-1,2.5l-0.2-0.1c0.3,2.3,0.7,8.1,1,10.4
				c0.1,1.2,0.3,2.3,0.4,3.5c0.3,2.3,0.4,4.4,0.6,6.8c0,0,0.2,0.3,0.6,0.5c-0.4,0.1-0.6,0.3-1,0.5c-0.7,0.5-2.2,1.4-3.5,2.4
				c-0.5,0.4-1.9,1.5-2.9,3c-0.5,0.8-2.1,3.2-2.1,6.5c0,0.5,0.1,2.2,0.7,4.3c0.6,2,1.4,3.5,1.8,4.2c1.1,1.8,2.2,3,2.8,3.6
				c1.5,1.7,2.6,2.3,3.6,2.9c-0.4-0.3-0.5-0.5-0.5-0.8c-4.3-2.5-7.9-8.7-7.9-13.6c0-4.9,3.5-7,7.9-4.4c0-0.9,0.8-2.1,2.3-3.4
				c-1.4,1.3-2.2,2.5-2.2,3.3l42.3,24.4c1.1-0.6,3.8-2.3,6.9-4.1c2.2,0.2,4.4-0.3,6.5-1.4c0.3-0.1,0.5-0.3,0.5-0.3L113.7,128.4z"/>
			
				<linearGradient id="SVGID_4_" gradientUnits="userSpaceOnUse" x1="102.2306" y1="-1645.7028" x2="124.1473" y2="-1645.7028" gradientTransform="matrix(0.9954 -9.530380e-02 9.530380e-02 0.9954 143.6611 1771.3134)">
				<stop  offset="0" style="stop-color:#322E7A"/>
				<stop  offset="0.2606" style="stop-color:#373785"/>
				<stop  offset="0.7229" style="stop-color:#434FA4"/>
				<stop  offset="1" style="stop-color:#4C60B9"/>
			</linearGradient>
			<path class="st9" d="M100.3,128.7c-0.1-0.1-0.4-0.4-0.6-0.5c-0.1-0.1-0.4-0.3-0.6-0.4c-0.3-0.1-0.5-0.3-0.7-0.4
				c-0.5-0.3-1-0.5-1.4-0.6c-0.4-0.1-0.7-0.3-1.1-0.3c-0.8-0.3-1.5-0.3-2.8-0.3c-0.4,0-0.8,0-1.2,0.1c-0.4,0-0.8,0.1-1.2,0.3
				c-0.5,0.1-1.1-0.7-1.9-1.4c2.4-6.3,6.9-13.2,9.9-15.4c7.1,6.4,12.2,15.7,12.9,23.7C109.7,135.1,105.4,133,100.3,128.7z"/>
			
				<linearGradient id="SVGID_5_" gradientUnits="userSpaceOnUse" x1="115.0317" y1="-1646.9872" x2="126.8912" y2="-1646.9872" gradientTransform="matrix(0.9954 -9.530380e-02 9.530380e-02 0.9954 143.6611 1771.3134)">
				<stop  offset="0" style="stop-color:#322E7A"/>
				<stop  offset="0.2606" style="stop-color:#373785"/>
				<stop  offset="0.7229" style="stop-color:#434FA4"/>
				<stop  offset="1" style="stop-color:#4C60B9"/>
			</linearGradient>
			<path class="st10" d="M102.2,108.4c1.1,1.1,1.4,1.4,1.9,1.8c0.3,0.3,0.6,0.6,0.8,1c1.2,1.4,1.2,1.4,1.7,1.9
				c0.5,0.6,1.2,1.5,2.2,3c0.3,0.3,0.5,0.7,0.6,1c0.3,0.4,0.5,0.7,0.6,1c0.1,0.3,0.4,0.7,0.6,1c0.3,0.5,0.4,0.7,1,2.1
				c0.1,0.3,0.4,0.7,0.5,1c0.1,0.4,0.4,1,0.5,1.4c0.1,0.4,0.3,0.7,0.4,1.1c0.1,0.3,0.4,1.4,0.6,2.3c0.1,0.4,0.1,1,0.3,1.4
				c0,0.4,0.1,0.7,0.1,1.1c0.1,1.4-0.1,2.6-1,3.2c-0.7-8.1-5.8-17.4-12.9-23.7C101,108.2,101.8,108,102.2,108.4z"/>
			<path class="st11" d="M98.6,109.8l1.4-1c7.1,6.4,12.2,15.7,12.9,23.7l-1.4,1C110.8,125.5,105.7,116.2,98.6,109.8z"/>
			<path class="st7" d="M57.2,91.1l1.4-1c6.3-1.2,13.5,0.1,21.1,3.6l-1.4,1C70.7,91.2,63.5,90,57.2,91.1z"/>
			<path class="st7" d="M78.4,94.7l1.4-1c3.2,1.4,6.4,3.3,9.6,5.4l-1.4,1C84.6,98,81.4,96.2,78.4,94.7z"/>
			<polygon class="st7" points="87.8,100.1 89.2,99.2 100,108.9 98.6,109.8 			"/>
			
				<linearGradient id="SVGID_6_" gradientUnits="userSpaceOnUse" x1="74.0229" y1="-1274.5686" x2="87.8585" y2="-1274.5686" gradientTransform="matrix(1 0 0 1 0 1380.8)">
				<stop  offset="0" style="stop-color:#E3CEE4"/>
				<stop  offset="0.3749" style="stop-color:#E0CCE5"/>
				<stop  offset="0.632" style="stop-color:#D7C5E7"/>
				<stop  offset="0.8531" style="stop-color:#C8B9EA"/>
				<stop  offset="1" style="stop-color:#B9AEEE"/>
			</linearGradient>
			<path class="st12" d="M74.2,114c-0.7-8.5,1.1-17.1,4.1-19.3c3.2,1.4,6.4,3.3,9.6,5.4c-3,2.2-6.3,10-7.2,17.6
				C79.5,117.8,76.3,115,74.2,114z"/>
		</g>
		<g>
			<path class="st4" d="M67.4,136.5c4.3,2.5,4.3,6.7,0,9l-24.5,7c-5.4,1.5-11.9,1-16.3-1.5L59.6,132L67.4,136.5z"/>
		</g>
		<polygon class="st13" points="74,137 74,143.3 96.3,151 96.3,149.9 		"/>
	</g>
	<g>
		<g>
			
				<linearGradient id="SVGID_7_" gradientUnits="userSpaceOnUse" x1="81.52" y1="-1360.1543" x2="117.5621" y2="-1360.1543" gradientTransform="matrix(1 0 0 1 0 1380.8)">
				<stop  offset="0" style="stop-color:#10DAD3"/>
				<stop  offset="0.2072" style="stop-color:#17C4D0;stop-opacity:0.8135"/>
				<stop  offset="0.4506" style="stop-color:#1DB2CD;stop-opacity:0.5945"/>
				<stop  offset="0.7078" style="stop-color:#21A7CC;stop-opacity:0.3629"/>
				<stop  offset="1" style="stop-color:#22A4CB;stop-opacity:0.1"/>
			</linearGradient>
			<path class="st14" d="M117.6,10.2l-18,31L81.5,31l18-31L117.6,10.2z"/>
		</g>
		<g>
			<path class="st4" d="M93.7,17.3l11.5-6.7V21l-5.8,9.9l-5.8-3.3L93.7,17.3L93.7,17.3z"/>
		</g>
		<g>
			<path class="st15" d="M99.8,89.8c-0.2-4-0.3-8.1-0.3-12.1c-0.1-4-0.1-8.1-0.2-12.1c0-4,0-8.1,0.1-12.1l0.1-6.1
				c0.1-2,0.1-4,0.2-6.1c0.1,2,0.2,4,0.3,6.1l0.2,6.1c0.1,4,0.1,8.1,0.2,12.1c0,4,0,8.1-0.1,12.1C99.9,81.8,99.9,85.8,99.8,89.8z"/>
		</g>
		<g>
			<path class="st16" d="M95.5,23.2l7.9-4.5v2.6L99.5,28l-4-2.2L95.5,23.2z"/>
		</g>
	</g>
	
		<linearGradient id="SVGID_8_" gradientUnits="userSpaceOnUse" x1="127.2466" y1="-1254.04" x2="174.1867" y2="-1254.04" gradientTransform="matrix(1 0 0 1 0 1380.8)">
		<stop  offset="0" style="stop-color:#4E60B9"/>
		<stop  offset="0.1757" style="stop-color:#4C64BA"/>
		<stop  offset="0.3602" style="stop-color:#4671BD"/>
		<stop  offset="0.5486" style="stop-color:#3B86C1"/>
		<stop  offset="0.7398" style="stop-color:#2CA3C8"/>
		<stop  offset="0.9313" style="stop-color:#1AC9D0"/>
		<stop  offset="1" style="stop-color:#12D8D3"/>
	</linearGradient>
	<path class="st17" d="M129.7,115.1l43.2,18.7c1.2,0.5,1.8,1.9,1.2,3.2c-0.5,1.2-1.9,1.8-3.2,1.2c-0.1,0-0.1-0.1-0.3-0.1
		L129.7,115.1z"/>
	
		<linearGradient id="SVGID_9_" gradientUnits="userSpaceOnUse" x1="182.8682" y1="-1190.7491" x2="229.8081" y2="-1190.7491" gradientTransform="matrix(1 0 0 1 0 1380.8)">
		<stop  offset="0" style="stop-color:#4E60B9"/>
		<stop  offset="0.1757" style="stop-color:#4C64BA"/>
		<stop  offset="0.3602" style="stop-color:#4671BD"/>
		<stop  offset="0.5486" style="stop-color:#3B86C1"/>
		<stop  offset="0.7398" style="stop-color:#2CA3C8"/>
		<stop  offset="0.9313" style="stop-color:#1AC9D0"/>
		<stop  offset="1" style="stop-color:#12D8D3"/>
	</linearGradient>
	<path class="st18" d="M185.3,178.4l43.2,18.7c1.2,0.5,1.8,1.9,1.2,3.2c-0.5,1.2-1.9,1.8-3.2,1.2c-0.1,0-0.1-0.1-0.3-0.1
		L185.3,178.4z"/>
	
		<linearGradient id="SVGID_10_" gradientUnits="userSpaceOnUse" x1="78.7831" y1="-1190.7491" x2="125.723" y2="-1190.7491" gradientTransform="matrix(1 0 0 1 0 1380.8)">
		<stop  offset="0" style="stop-color:#4E60B9"/>
		<stop  offset="0.1757" style="stop-color:#4C64BA"/>
		<stop  offset="0.3602" style="stop-color:#4671BD"/>
		<stop  offset="0.5486" style="stop-color:#3B86C1"/>
		<stop  offset="0.7398" style="stop-color:#2CA3C8"/>
		<stop  offset="0.9313" style="stop-color:#1AC9D0"/>
		<stop  offset="1" style="stop-color:#12D8D3"/>
	</linearGradient>
	<path class="st19" d="M81.3,178.4l43.2,18.7c1.2,0.5,1.8,1.9,1.2,3.2c-0.5,1.2-1.9,1.8-3.2,1.2c-0.1,0-0.1-0.1-0.3-0.1L81.3,178.4z
		"/>
</g>
<polygon class="st2" points="303.7,65.4 293.2,86.9 308.8,72 308.8,60.3 "/>
<polygon class="st3" points="291.2,57.9 281,79 293.2,86.9 303.7,65.4 "/>
<polygon class="st1" points="308.8,60.3 308.8,41.8 307.4,41.9 291.2,57.9 303.7,65.4 "/>
</svg>
