<?xml version="1.0" encoding="utf-8"?>
<!-- Generator: Adobe Illustrator 24.0.0, SVG Export Plug-In . SVG Version: 6.00 Build 0)  -->
<!DOCTYPE svg PUBLIC "-//W3C//DTD SVG 1.1//EN" "http://www.w3.org/Graphics/SVG/1.1/DTD/svg11.dtd" [
	<!ENTITY ns_extend "http://ns.adobe.com/Extensibility/1.0/">
	<!ENTITY ns_ai "http://ns.adobe.com/AdobeIllustrator/10.0/">
	<!ENTITY ns_graphs "http://ns.adobe.com/Graphs/1.0/">
	<!ENTITY ns_vars "http://ns.adobe.com/Variables/1.0/">
	<!ENTITY ns_imrep "http://ns.adobe.com/ImageReplacement/1.0/">
	<!ENTITY ns_sfw "http://ns.adobe.com/SaveForWeb/1.0/">
	<!ENTITY ns_custom "http://ns.adobe.com/GenericCustomNamespace/1.0/">
	<!ENTITY ns_adobe_xpath "http://ns.adobe.com/XPath/1.0/">
]>
<svg version="1.1" id="Layer_1" xmlns:x="&ns_extend;" xmlns:i="&ns_ai;" xmlns:graph="&ns_graphs;"
	 xmlns="http://www.w3.org/2000/svg" xmlns:xlink="http://www.w3.org/1999/xlink" x="0px" y="0px" width="506.8px" height="153.7px"
	 viewBox="0 0 506.8 153.7" style="enable-background:new 0 0 506.8 153.7;" xml:space="preserve">
<style type="text/css">
	.st0{enable-background:new    ;}
	.st1{fill:#7061EB;}
	.st2{fill:#5B56D6;}
	.st3{fill:#AF9BFC;}
	.st4{fill:#FFFFFF;}
	.st5{fill:url(#SVGID_1_);}
	.st6{fill:url(#SVGID_2_);}
	.st7{fill:#FAF0FA;}
	.st8{fill:url(#SVGID_3_);}
	.st9{fill:url(#SVGID_4_);}
	.st10{fill:url(#SVGID_5_);}
	.st11{fill:url(#SVGID_6_);}
	.st12{fill:#CFBFE9;}
	.st13{fill:#F1DDF1;}
	.st14{fill:url(#SVGID_7_);}
	.st15{fill:url(#SVGID_8_);}
	.st16{fill:url(#SVGID_9_);}
</style>
<metadata>
	<sfw  xmlns="&ns_sfw;">
		<slices></slices>
		<sliceSourceBounds  bottomLeftOrigin="true" height="153.7" width="506.8" x="-248.7" y="161.2"></sliceSourceBounds>
	</sfw>
</metadata>
<g>
	<g class="st0">
		<g>
			<polygon class="st1" points="474.9,86.2 489.1,84.8 448.1,124.2 458.6,102.7 			"/>
		</g>
		<g>
			<polygon class="st2" points="448.1,124.2 435.9,116.3 446.1,95.2 458.6,102.7 			"/>
		</g>
		<polygon class="st3" points="476.7,78.2 462.3,79.2 446.1,95.2 458.6,102.7 474.9,86.2 489.1,84.8 		"/>
	</g>
</g>
<g>
	<g class="st0">
		<g>
			<polygon class="st3" points="0,40.8 6.4,37.4 20.7,40.7 14.1,44.4 			"/>
		</g>
		<g>
			<polygon class="st1" points="17.8,51.3 22.4,57.9 15.7,56.4 0,40.8 14.1,44.4 			"/>
		</g>
		<polygon class="st2" points="14.1,44.4 17.8,51.3 22.4,57.9 28.8,53.8 24.3,47.4 20.7,40.7 		"/>
	</g>
</g>
<g>
	<g class="st0">
		<g>
			<polygon class="st3" points="331.8,45.5 325.7,42 338.9,38.9 344.9,42.1 			"/>
		</g>
		<g>
			<polygon class="st1" points="331.8,45.5 344.9,42.1 330.4,56.5 324.2,57.9 328.4,51.9 			"/>
		</g>
		<polygon class="st2" points="325.7,42 322.4,48.2 318.2,54.1 324.2,57.9 328.4,51.9 331.8,45.5 		"/>
	</g>
</g>
<g>
	<g>
		<g>
			<g>
				<path class="st4" d="M245.2,64l-6.5,3.8c-3.6,2.1-9.4,2.1-13,0l-9.9-11.7c-2.2-2.6-1.3-5.7,2.3-7.8L245.2,64z"/>
			</g>
			<g>
				<g class="st0">
					<g>
						
							<linearGradient id="SVGID_1_" gradientUnits="userSpaceOnUse" x1="588.1617" y1="-1363.6321" x2="603.8925" y2="-1320.696" gradientTransform="matrix(-1 0 0 1 882.8753 1388)">
							<stop  offset="0" style="stop-color:#4E60B9"/>
							<stop  offset="0.1757" style="stop-color:#4C64BA"/>
							<stop  offset="0.3602" style="stop-color:#4671BD"/>
							<stop  offset="0.5486" style="stop-color:#3B86C1"/>
							<stop  offset="0.7398" style="stop-color:#2CA3C8"/>
							<stop  offset="0.9313" style="stop-color:#1AC9D0"/>
							<stop  offset="1" style="stop-color:#12D8D3"/>
						</linearGradient>
						<path class="st5" d="M276.9,63.6c-0.6,0.6-1.3,1-2.1,1.3c-3.6,1.4-7.8-0.4-9.2-4c-1.4-3.6,0.4-7.8,4-9.2l38.3-15.1L276.9,63.6
							z"/>
					</g>
				</g>
			</g>
			
				<linearGradient id="SVGID_2_" gradientUnits="userSpaceOnUse" x1="2985.8706" y1="2069.1575" x2="2997.5537" y2="2037.2699" gradientTransform="matrix(-0.344 0.939 0.939 0.344 -625.4547 -3457.8982)">
				<stop  offset="0" style="stop-color:#22A4CB;stop-opacity:0"/>
				<stop  offset="0.2922" style="stop-color:#21A7CC;stop-opacity:0.2922"/>
				<stop  offset="0.5494" style="stop-color:#1DB2CD;stop-opacity:0.5494"/>
				<stop  offset="0.7928" style="stop-color:#17C4D0;stop-opacity:0.7928"/>
				<stop  offset="1" style="stop-color:#10DAD3"/>
			</linearGradient>
			<circle class="st6" cx="273.3" cy="57.6" r="17"/>
			<g>
				<g class="st0">
					<g>
						<path class="st4" d="M252.2,60.6c-2.7-1.6-5.1-2.3-5.9-1.8c2.4-1.3,4.1-1.3,5.7-1.1c0.3,0,1.5,0.2,3.2,0.8
							c1.4,0.5,2.6,1.1,3.2,1.5C256.9,59.1,254.7,59.2,252.2,60.6z"/>
					</g>
					<g>
						<path class="st4" d="M253.8,61.5l-1.6-0.9c2.4-1.4,4.6-1.5,6.2-0.6l1.6,0.9C258.4,60,256.3,60.1,253.8,61.5z"/>
					</g>
					<g>
						<path class="st4" d="M260.2,82.6c3.6-2.1,6.5-7.2,6.5-11.3c0-4.1-2.9-5.8-6.5-3.7c0-1.4-2.8-4.1-6.3-6.1
							c2.4-1.4,4.6-1.5,6.2-0.6c0.6,0.4,1.8,1.1,2.9,2c0.4,0.3,1.6,1.3,2.4,2.5c0.4,0.7,1.7,2.6,1.7,5.4c0,0.4-0.1,1.8-0.6,3.6
							c-0.5,1.6-1.1,2.9-1.5,3.5c-0.9,1.5-1.8,2.5-2.3,3c-1.3,1.4-2.2,1.9-3,2.4C260,83.1,260.1,82.9,260.2,82.6z"/>
					</g>
					<g>
						<path class="st4" d="M225.2,94.6l35-12.1c-0.1,0.4-0.3,0.7-0.7,0.8c-11.9,4.1-23.8,8.2-35.7,12.3
							C224.4,95.4,224.8,95.1,225.2,94.6z"/>
					</g>
					<g>
						<path class="st4" d="M252.2,60.6L215.1,82c-2.8-1.6-4.5-2.6-4.5-2.6c11.9-6.9,23.8-13.7,35.7-20.6
							C247.2,58.4,249.5,59,252.2,60.6z"/>
					</g>
					<g>
						<path class="st4" d="M215.2,82v11.3c-2.8-1.6-4.5-3.8-4.5-5.6c0-1.4,0-2.7,0-4.1s0-2.8,0-4.2C210.7,79.4,212.4,80.5,215.2,82z
							"/>
					</g>
					<g>
						<polygon class="st7" points="216.8,94.2 215.2,93.3 215.2,82.1 216.7,83 						"/>
					</g>
					<g>
						<polygon class="st4" points="216.7,83 215.2,82.1 252.3,60.6 253.8,61.5 						"/>
					</g>
					<path class="st7" d="M260.1,67.5c3.6-2.1,6.5-0.4,6.5,3.7c0,4.2-2.9,9.2-6.5,11.3c-11.7,4.1-23.3,8.1-35,12.1
						c0-2.2,0-4.5,0-6.8C236.8,81.1,248.5,74.4,260.1,67.5z"/>
					<g>
						<path class="st4" d="M225.1,87.8c-1.2-0.7-4.9-2.9-8.4-4.9l37.1-21.4c3.5,2,6.3,4.7,6.3,6.1L225.1,87.8z"/>
					</g>
					<g>
						<path class="st4" d="M225.1,94.6c-1.2,1.8-4.9,1.6-8.4-0.4V82.9c3.5,2.1,7.2,4.2,8.4,4.9V94.6z"/>
					</g>
				</g>
			</g>
			<g>
				<path class="st4" d="M223.1,83.3l30.3-17.4c1.3-1,6.4-5.7,6.4-5.8c0.2-1.9,0.3-3.7,0.5-5.6c0.1-1,0.2-1.9,0.3-2.9
					c0.2-1.9,0.6-6.7,0.8-8.6l-47.7,28.8l-0.1,11.3c0,0,0.2,0.1,0.4,0.2C216.9,84.8,220.3,84.8,223.1,83.3z"/>
				<path class="st4" d="M246.4,59.9c0.7-7-0.9-14.2-3.4-16c6.3-2.9,12.3-4,17.5-3c2.1,1.5,0.1,6.6-4.5,12.3
					c-1.1,1.5-1.8,2.6-2.7,3.9C253,57.6,249.8,58.3,246.4,59.9z"/>
				<path class="st4" d="M259.3,40.4c-5.2-0.9-11.2,0.1-17.5,3c-0.7-0.5-1.4-0.6-2-0.3c0.5-0.3,1.3-0.6,1.8-0.8
					c0.3-0.1,0.7-0.3,1-0.4c0,0,0.9-0.4,1.9-0.7c0.3-0.1,0.7-0.2,1-0.3c0.6-0.2,1.3-0.4,1.9-0.5c0.4-0.1,1.4-0.3,1.9-0.4
					c0.5-0.1,1.3-0.2,1.8-0.3c0.2,0,0.6-0.1,0.9-0.1c0.2,0,1.1-0.1,1.8-0.1c0.3,0,0.6,0,0.9,0c0.6,0,1.3,0.1,1.8,0.1
					c0.3,0,0.7,0.1,1,0.1s0.6,0.1,0.9,0.1C258.8,39.8,259.1,39.9,259.3,40.4z"/>
				
					<linearGradient id="SVGID_3_" gradientUnits="userSpaceOnUse" x1="641.0607" y1="-1342.8594" x2="650.9081" y2="-1342.8594" gradientTransform="matrix(-1 0 0 1 882.8753 1388)">
					<stop  offset="0" style="stop-color:#E3CEE4"/>
					<stop  offset="0.3749" style="stop-color:#E0CCE5"/>
					<stop  offset="0.632" style="stop-color:#D7C5E7"/>
					<stop  offset="0.8531" style="stop-color:#C8B9EA"/>
					<stop  offset="1" style="stop-color:#B9AEEE"/>
				</linearGradient>
				<path class="st8" d="M241.9,43.1c-2.6,1.2-5.3,2.7-7.9,4.5c-0.8-0.6-1.5-0.6-2-0.3c3.9-2.6,6.1-3.7,7.9-4.5
					C240.5,42.5,241.2,42.6,241.9,43.1z"/>
				
					<linearGradient id="SVGID_4_" gradientUnits="userSpaceOnUse" x1="636.3427" y1="-1334.525" x2="647.8052" y2="-1334.525" gradientTransform="matrix(-1 0 0 1 882.8753 1388)">
					<stop  offset="0" style="stop-color:#E3CEE4"/>
					<stop  offset="0.3749" style="stop-color:#E0CCE5"/>
					<stop  offset="0.632" style="stop-color:#D7C5E7"/>
					<stop  offset="0.8531" style="stop-color:#C8B9EA"/>
					<stop  offset="1" style="stop-color:#B9AEEE"/>
				</linearGradient>
				<path class="st9" d="M241.1,63c-0.8-6.3-3.5-12.8-6-14.6c2.6-1.8,5.3-3.3,7.9-4.5c2.5,1.9,4,9,3.4,16
					C244.7,60.7,242,63,241.1,63z"/>
				<path class="st4" d="M234,47.6l-9,8c-0.8-0.6-1.4-0.7-1.8-0.4c2-1.9,4.4-4,4.4-4c0.6-0.5,1.1-1,1.7-1.5c0.9-0.7,1.7-1.5,2.5-2.2
					C232.4,47,233.1,47,234,47.6z"/>
				<path class="st4" d="M234.3,69.2c-2-5.3-5.7-11-8.2-12.8l9-8c2.6,1.9,5.2,8.4,6,14.6L234.3,69.2z"/>
				
					<linearGradient id="SVGID_5_" gradientUnits="userSpaceOnUse" x1="700.2961" y1="-1661.3208" x2="718.4537" y2="-1661.3208" gradientTransform="matrix(-0.9954 -9.530380e-02 -9.530380e-02 0.9954 773.2119 1788.1403)">
					<stop  offset="0" style="stop-color:#322E7A"/>
					<stop  offset="0.2606" style="stop-color:#373785"/>
					<stop  offset="0.7229" style="stop-color:#434FA4"/>
					<stop  offset="1" style="stop-color:#4C60B9"/>
				</linearGradient>
				<path class="st10" d="M215.5,76.1c0.6-6.7,4.8-14.4,10.7-19.7c2.5,1.9,6.2,7.6,8.2,12.8c-0.7,0.6-1.2,1.3-1.6,1.2
					c-0.3-0.1-0.7-0.2-1-0.2c-0.3-0.1-0.7-0.1-1-0.1c-1,0-1.6,0-2.3,0.2c-0.3,0-0.6,0.1-0.9,0.2c-0.4,0.1-0.8,0.3-1.2,0.5
					c-0.2,0.1-0.4,0.2-0.6,0.3s-0.4,0.2-0.5,0.3c-0.2,0.1-0.4,0.3-0.5,0.4C220.6,75.6,217,77.3,215.5,76.1z"/>
				
					<linearGradient id="SVGID_6_" gradientUnits="userSpaceOnUse" x1="710.8966" y1="-1662.4154" x2="720.7219" y2="-1662.4154" gradientTransform="matrix(-0.9954 -9.530380e-02 -9.530380e-02 0.9954 773.2119 1788.1403)">
					<stop  offset="0" style="stop-color:#322E7A"/>
					<stop  offset="0.2606" style="stop-color:#373785"/>
					<stop  offset="0.7229" style="stop-color:#434FA4"/>
					<stop  offset="1" style="stop-color:#4C60B9"/>
				</linearGradient>
				<path class="st11" d="M225,55.5c-5.9,5.3-10.1,13-10.7,19.7c-0.7-0.4-0.9-1.4-0.8-2.6c0-0.3,0.1-0.6,0.1-0.9
					c0.1-0.4,0.1-0.9,0.2-1.2c0.2-0.8,0.4-1.7,0.5-1.9c0.1-0.3,0.2-0.6,0.3-0.9c0.1-0.4,0.3-0.9,0.4-1.2c0.1-0.2,0.3-0.6,0.4-0.8
					c0.5-1.1,0.6-1.3,0.8-1.7c0.2-0.2,0.4-0.6,0.5-0.8s0.3-0.5,0.5-0.8c0.1-0.2,0.3-0.6,0.5-0.8c0.8-1.2,1.4-2,1.8-2.5
					s0.4-0.5,1.4-1.6c0.2-0.3,0.5-0.6,0.7-0.8c0.4-0.4,0.7-0.6,1.6-1.5C223.6,54.9,224.2,55,225,55.5z"/>
				<path class="st12" d="M215.5,76.1l-1.1-0.8c0.6-6.7,4.8-14.4,10.7-19.7l1.1,0.8C220.3,61.7,216.1,69.4,215.5,76.1z"/>
				<path class="st7" d="M243,43.9l-1.1-0.8c6.3-2.9,12.3-4,17.5-3l1.1,0.8C255.3,40,249.3,41,243,43.9z"/>
				<path class="st7" d="M235.1,48.4l-1.1-0.8c2.6-1.8,5.3-3.3,7.9-4.5l1.1,0.8C240.4,45.1,237.8,46.6,235.1,48.4z"/>
				<polygon class="st7" points="226.2,56.4 225,55.6 234,47.6 235.1,48.4 				"/>
			</g>
			<g>
				<path class="st4" d="M258.6,74.7l27.2,15.8c-3.6,2.1-9,2.6-13.5,1.3L252,86c-3.6-2-3.6-5.4,0-7.5L258.6,74.7z"/>
			</g>
			<polygon class="st13" points="228.1,89.6 228.1,90.5 246.6,84.1 246.6,78.9 			"/>
		</g>
	</g>
	
		<linearGradient id="SVGID_7_" gradientUnits="userSpaceOnUse" x1="680.4375" y1="-1317.527" x2="719.3264" y2="-1317.527" gradientTransform="matrix(-1 0 0 1 882.8753 1388)">
		<stop  offset="0" style="stop-color:#4E60B9"/>
		<stop  offset="0.1757" style="stop-color:#4C64BA"/>
		<stop  offset="0.3602" style="stop-color:#4671BD"/>
		<stop  offset="0.5486" style="stop-color:#3B86C1"/>
		<stop  offset="0.7398" style="stop-color:#2CA3C8"/>
		<stop  offset="0.9313" style="stop-color:#1AC9D0"/>
		<stop  offset="1" style="stop-color:#12D8D3"/>
	</linearGradient>
	<path class="st14" d="M166.5,79.8c-0.1,0-0.1,0.1-0.2,0.1c-1,0.5-2.2,0-2.6-1c-0.5-1,0-2.2,1-2.6l35.8-15.5L166.5,79.8z"/>
	
		<linearGradient id="SVGID_8_" gradientUnits="userSpaceOnUse" x1="714.746" y1="-1263.7683" x2="753.6348" y2="-1263.7683" gradientTransform="matrix(-1 0 0 1 882.8753 1388)">
		<stop  offset="0" style="stop-color:#4E60B9"/>
		<stop  offset="0.1757" style="stop-color:#4C64BA"/>
		<stop  offset="0.3602" style="stop-color:#4671BD"/>
		<stop  offset="0.5486" style="stop-color:#3B86C1"/>
		<stop  offset="0.7398" style="stop-color:#2CA3C8"/>
		<stop  offset="0.9313" style="stop-color:#1AC9D0"/>
		<stop  offset="1" style="stop-color:#12D8D3"/>
	</linearGradient>
	<path class="st15" d="M132.2,133.6c-0.1,0-0.1,0.1-0.2,0.1c-1,0.5-2.2,0-2.6-1c-0.5-1,0-2.2,1-2.6l35.8-15.5L132.2,133.6z"/>
	
		<linearGradient id="SVGID_9_" gradientUnits="userSpaceOnUse" x1="640.2864" y1="-1265.127" x2="679.1752" y2="-1265.127" gradientTransform="matrix(-1 0 0 1 882.8753 1388)">
		<stop  offset="0" style="stop-color:#4E60B9"/>
		<stop  offset="0.1757" style="stop-color:#4C64BA"/>
		<stop  offset="0.3602" style="stop-color:#4671BD"/>
		<stop  offset="0.5486" style="stop-color:#3B86C1"/>
		<stop  offset="0.7398" style="stop-color:#2CA3C8"/>
		<stop  offset="0.9313" style="stop-color:#1AC9D0"/>
		<stop  offset="1" style="stop-color:#12D8D3"/>
	</linearGradient>
	<path class="st16" d="M206.6,132.2c-0.1,0-0.1,0.1-0.2,0.1c-1,0.5-2.2,0-2.6-1c-0.5-1,0-2.2,1-2.6l35.8-15.5L206.6,132.2z"/>
</g>
<g>
	<g class="st0">
		<g>
			<polygon class="st2" points="357.9,153.7 348.2,148.1 344.9,143.6 354.5,149.2 			"/>
		</g>
		<g>
			<polygon class="st1" points="359.3,134.2 369.5,129.1 376,132.8 370,144.3 357.9,153.7 354.5,149.2 			"/>
		</g>
		<polygon class="st3" points="366.4,127.2 359.8,123.5 349.7,128.6 344.9,143.6 354.5,149.2 359.3,134.2 369.5,129.1 376,132.8 		
			"/>
	</g>
</g>
<polygon class="st1" points="57.7,61 70.7,58 66.7,68 "/>
<polygon class="st1" points="493.8,65.8 506.8,62.7 502.8,72.7 "/>
<polygon class="st1" points="401.4,84.8 394.1,100.5 375.6,95.6 "/>
<polygon class="st1" points="430,73.7 418.2,76.8 413.5,66.8 "/>
<g>
	<g class="st0">
		<g>
			<polygon class="st1" points="147,57.3 122.4,62.1 98.1,19 126.4,13.7 			"/>
		</g>
		<g>
			<polygon class="st3" points="98.1,19 116.7,5.2 145.1,0 126.4,13.7 			"/>
		</g>
		<g>
			<polygon class="st2" points="126.4,13.7 145.1,0 165.7,43.7 147,57.3 			"/>
		</g>
	</g>
</g>
</svg>
