<?xml version="1.0" encoding="utf-8"?>
<!-- Generator: Adobe Illustrator 24.0.0, SVG Export Plug-In . SVG Version: 6.00 Build 0)  -->
<!DOCTYPE svg PUBLIC "-//W3C//DTD SVG 1.1//EN" "http://www.w3.org/Graphics/SVG/1.1/DTD/svg11.dtd" [
	<!ENTITY ns_extend "http://ns.adobe.com/Extensibility/1.0/">
	<!ENTITY ns_ai "http://ns.adobe.com/AdobeIllustrator/10.0/">
	<!ENTITY ns_graphs "http://ns.adobe.com/Graphs/1.0/">
	<!ENTITY ns_vars "http://ns.adobe.com/Variables/1.0/">
	<!ENTITY ns_imrep "http://ns.adobe.com/ImageReplacement/1.0/">
	<!ENTITY ns_sfw "http://ns.adobe.com/SaveForWeb/1.0/">
	<!ENTITY ns_custom "http://ns.adobe.com/GenericCustomNamespace/1.0/">
	<!ENTITY ns_adobe_xpath "http://ns.adobe.com/XPath/1.0/">
]>
<svg version="1.1" id="Layer_1" xmlns:x="&ns_extend;" xmlns:i="&ns_ai;" xmlns:graph="&ns_graphs;"
	 xmlns="http://www.w3.org/2000/svg" xmlns:xlink="http://www.w3.org/1999/xlink" x="0px" y="0px" width="300px" height="199.5px"
	 viewBox="0 0 300 199.5" style="enable-background:new 0 0 300 199.5;" xml:space="preserve">
<style type="text/css">
	.st0{enable-background:new    ;}
	.st1{fill:#7061EB;}
	.st2{fill:#AF9BFC;}
	.st3{fill:#5B56D6;}
	.st4{fill:url(#SVGID_1_);}
	.st5{fill:url(#SVGID_2_);}
	.st6{fill:#D7C4E7;}
	.st7{fill:url(#SVGID_3_);}
	.st8{fill:url(#SVGID_4_);}
	.st9{fill:#FAF0FA;}
	.st10{fill:url(#SVGID_5_);}
	.st11{fill:url(#SVGID_6_);}
	.st12{fill:#FFFFFF;}
	.st13{fill:url(#SVGID_7_);}
	.st14{fill:url(#SVGID_8_);}
	.st15{fill:url(#SVGID_9_);}
</style>
<metadata>
	<sfw  xmlns="&ns_sfw;">
		<slices></slices>
		<sliceSourceBounds  bottomLeftOrigin="true" height="199.5" width="240.1" x="0" y="0"></sliceSourceBounds>
	</sfw>
</metadata>
<g>
	<g class="st0">
		<g>
			<polygon class="st1" points="64.4,6.3 73.8,4.2 68.2,11.1 65.5,16.8 59.1,16.6 			"/>
		</g>
		<g>
			<polygon class="st2" points="64.4,6.3 56.7,1.9 66.1,0 73.8,4.2 			"/>
		</g>
		<g>
			<polygon class="st3" points="59.1,16.6 51.5,11.9 56.7,1.9 64.4,6.3 			"/>
		</g>
	</g>
</g>
<polygon class="st1" points="16,37.2 0,37.2 0,28.2 "/>
<g>
	<g>
		<g class="st0">
			<g>
				<g>
					
						<linearGradient id="SVGID_1_" gradientUnits="userSpaceOnUse" x1="145.7161" y1="252.5803" x2="127.4215" y2="297.9385" gradientTransform="matrix(1 0 0 1 0 -244.5372)">
						<stop  offset="0" style="stop-color:#FFA27D"/>
						<stop  offset="0.3649" style="stop-color:#FF977D"/>
						<stop  offset="1" style="stop-color:#FF797D"/>
					</linearGradient>
					<path class="st4" d="M159.6,21.2l-35.4,28.1c-3.1,2.4-7.5,1.9-10-1.1c-2.4-3.1-1.9-7.5,1.1-10c0.6-0.5,1.2-0.8,1.9-1.1
						L159.6,21.2z"/>
				</g>
			</g>
		</g>
	</g>
	
		<linearGradient id="SVGID_2_" gradientUnits="userSpaceOnUse" x1="2573.9856" y1="-1357.1891" x2="2597.9983" y2="-1385.8062" gradientTransform="matrix(-0.3741 0.9274 0.9274 0.3741 2360.0496 -1842.0402)">
		<stop  offset="0" style="stop-color:#FFA27D;stop-opacity:0"/>
		<stop  offset="0.3649" style="stop-color:#FF977D;stop-opacity:0.2919"/>
		<stop  offset="1" style="stop-color:#FF797D;stop-opacity:0.8"/>
	</linearGradient>
	<circle class="st5" cx="120.8" cy="43.1" r="18.7"/>
	<g>
		<g>
			<path class="st6" d="M93.9,81.5l-0.3-0.2l-0.4-0.2l-0.3-0.2l-0.6-0.5c-0.2-0.1-0.5-0.4-0.7-0.6c-0.3-0.2-0.4-0.3-0.6-0.5
				l-0.7-0.6L89.5,78c-0.6-0.5-0.8-0.8-1.4-1.5c-1-1.1-1.7-2.3-2.4-3.6c-0.7-1.4-1.2-2.9-1.4-4.6c-0.2-1.6-0.1-3.3,0.4-4.9
				c0.4-1.5,1.1-2.9,2-4.1c0.4-0.6,0.9-1.1,1.3-1.6c0.5-0.5,0.9-0.9,1.5-1.4c0.5-0.4,1-0.8,1.6-1.1l1.3-0.8l0.2-0.2l1.1-0.5
				c0.3-0.1,0.9-0.4,1.3-0.6l2.2-0.9l4.5-1.8l9-3.6c1.1-0.5,2.4,0.1,2.9,1.2c0.4,1,0,2.1-0.8,2.7l-8.1,5.3l-4,2.7l-2,1.3
				c-0.4,0.2-0.4,0.3-0.8,0.6L97,61.3l0.2-0.2l-1,0.9l-0.6,0.8c-0.1,0.2-0.3,0.5-0.5,0.7c-0.1,0.3-0.3,0.5-0.3,0.7
				c-0.4,1-0.2,1.7,0.1,2.1c0.2,0.4,0.9,1.2,1.7,1.7c0.1,0,0.6,0.4,0.8,0.5l0.3,0.2l0.4,0.3c0.2,0.1,0.5,0.3,0.6,0.4
				c0.2,0.1,0.3,0.1,0.5,0.2l0.6,0.3l0.3,0.2c0,0,0,0-0.1-0.1l0,0c3.2,1.7,4.4,5.6,2.7,8.8C101,82,97.1,83.2,93.9,81.5z"/>
		</g>
	</g>
	<g>
		<g class="st0">
			<g>
				<g>
					
						<linearGradient id="SVGID_3_" gradientUnits="userSpaceOnUse" x1="222.6963" y1="290.2919" x2="207.6868" y2="343.1288" gradientTransform="matrix(1 0 0 1 0 -244.5372)">
						<stop  offset="0" style="stop-color:#FFA27D"/>
						<stop  offset="0.3649" style="stop-color:#FF977D"/>
						<stop  offset="1" style="stop-color:#FF797D"/>
					</linearGradient>
					<path class="st7" d="M240.1,58l-38.4,36.2c-2.8,2.7-7.3,2.5-10-0.3s-2.5-7.3,0.3-10c0.5-0.4,1-0.8,1.5-1.1L240.1,58z"/>
				</g>
			</g>
		</g>
	</g>
	
		<linearGradient id="SVGID_4_" gradientUnits="userSpaceOnUse" x1="2356.4624" y1="-1285.3741" x2="2384.6243" y2="-1318.9362" gradientTransform="matrix(-0.2733 0.9619 0.9619 0.2733 2098.0125 -1836.0465)">
		<stop  offset="0" style="stop-color:#FFA27D;stop-opacity:0"/>
		<stop  offset="0.3649" style="stop-color:#FF977D;stop-opacity:0.2919"/>
		<stop  offset="1" style="stop-color:#FF797D;stop-opacity:0.8"/>
	</linearGradient>
	<circle class="st8" cx="197.6" cy="88.3" r="21.9"/>
	<g>
		<g>
			<g class="st0">
				<g>
					<path class="st9" d="M111,63c1.8-1,2.5-1.4,3.5-1.8c2.6-1.2,3-1.3,5.2-2c0.3-0.1,3.4-1.1,7.1-1.4c4.9-0.4,9.4,0.6,13.5,3
						c-2.5-1.5-8.2-0.2-14.7,3.6C119.7,61.2,114.6,60.9,111,63z"/>
				</g>
				<g>
					
						<linearGradient id="SVGID_5_" gradientUnits="userSpaceOnUse" x1="106.8733" y1="308.8177" x2="125.3238" y2="308.8177" gradientTransform="matrix(1 0 0 1 0 -244.5372)">
						<stop  offset="0" style="stop-color:#E3CEE4"/>
						<stop  offset="0.3749" style="stop-color:#E0CCE5"/>
						<stop  offset="0.632" style="stop-color:#D7C5E7"/>
						<stop  offset="0.8531" style="stop-color:#C8B9EA"/>
						<stop  offset="1" style="stop-color:#B9AEEE"/>
					</linearGradient>
					<path class="st10" d="M106.9,65.4l4-2.3c3.7-2.1,8.8-1.8,14.4,1.4l-4,2.3C115.7,63.5,110.6,63.2,106.9,65.4z"/>
				</g>
				<g>
					<path class="st9" d="M140.1,60.8c1.6,1,2.1,1.3,2.8,1.9c1.6,1.3,2.2,1.9,3.6,3.3c0.6,0.7,2.8,3.1,4.9,6.6c1.7,3,4.6,9,4.5,15.7
						c0,2.9-0.5,5-0.9,6.3c-0.3,0.8-0.6,2-1,2.7c-0.4,0.8-1,2.3-1.9,3.5c-1,1.4-1.2,1.8-2.2,3c-1.2,1.5-2.5,2.7-2.5,2.7
						c-1.6,1.5-2,1.9-4.3,3.5c0,0-1.4,1-3.5,2.2c3.6-2.1,5.9-6.6,5.9-13c0-12.9-9-28.5-20.2-35C131.9,60.6,137.6,59.4,140.1,60.8z"
						/>
				</g>
				<g>
					
						<linearGradient id="SVGID_6_" gradientUnits="userSpaceOnUse" x1="121.2732" y1="334.0872" x2="145.5002" y2="334.0872" gradientTransform="matrix(1 0 0 1 0 -244.5372)">
						<stop  offset="0" style="stop-color:#E3CEE4"/>
						<stop  offset="0.3749" style="stop-color:#E0CCE5"/>
						<stop  offset="0.632" style="stop-color:#D7C5E7"/>
						<stop  offset="0.8531" style="stop-color:#C8B9EA"/>
						<stop  offset="1" style="stop-color:#B9AEEE"/>
					</linearGradient>
					<path class="st11" d="M139.6,112.4l-4,2.3c3.6-2.1,5.9-6.6,5.9-13c0-12.9-9-28.5-20.2-35l4-2.3c11.2,6.5,20.2,22.1,20.2,35
						C145.5,105.8,143.3,110.3,139.6,112.4z"/>
				</g>
				<g>
					<path class="st12" d="M105.1,84.6c7.1,4.1,12.9,14.1,12.9,22.3s-5.8,11.5-13,7.4c-7.1-4.1-12.9-14.1-12.9-22.3
						C92.2,83.8,98,80.5,105.1,84.6z"/>
				</g>
				<g>
					<path class="st12" d="M135.6,114.7c-2.3,1.3-2.5,1.4-4.7,2.4c-1.3,0.6-3.5,1.3-3.5,1.3c-2.4,0.7-3.4,0.9-5.2,1.2
						c-0.8,0.1-2.6,0.3-3.6,0.3s-2.3,0-3.7-0.2c-1.1-0.2-2.3-0.3-4.1-0.9c-0.9-0.3-2.1-0.8-2.9-1.2c-2-1.1-2.1-1.1-4.1-2.6
						c-1.6-1.1-4.2-3.6-5.9-5.9c-0.6-0.8-1.6-2.2-2.7-4.1c-1-1.7-1.9-3.6-2.2-4.4c-0.6-1.5-1.1-2.8-1.5-4.7
						c-0.5-2.3-0.7-3.8-0.8-4.9c-0.1-0.9-0.3-4.3,0.8-7.9c1-3.4,2.8-6.6,5.5-9.7c1.2-1.4,2.8-3,4.1-4c2.7-2.2,3.9-2.9,5.9-4.1
						c3.7-2.1,8.8-1.8,14.4,1.4c-8.9,5.2-16.2,13.2-16.2,17.8c-7.1-4.1-13-0.8-13,7.4s5.8,18.2,12.9,22.3c7.1,4.1,13,0.8,13-7.4
						s-5.8-18.2-12.9-22.3c0-4.6,7.3-12.6,16.2-17.8c11.2,6.5,20.2,22.1,20.2,35C141.5,108.1,139.2,112.6,135.6,114.7z"/>
				</g>
			</g>
		</g>
	</g>
	<g>
		<path class="st12" d="M97,84.5c-3.7,2.2-7.4,4.3-11.1,6.5c-0.4,0.2-0.8,0.3-0.8,0.3L97,84.5C97,84.4,97,84.5,97,84.5z"/>
	</g>
	<g>
		<path class="st12" d="M108.2,116.3c3.7-2.2,7.4-4.3,11.1-6.5c-1.4,0.8-3.2,2.2-3.9,4.3l-9.2,5.3
			C106.6,117.5,107.6,116.7,108.2,116.3z"/>
	</g>
	<g>
		<path class="st12" d="M85.9,116.3c2.9,1.6,6.9,2.6,11.2,2.6c1.2,0,3.6-0.1,6.1-0.7c2.8-0.6,4.3-1.5,5.1-1.9
			c-0.7,0.4-1.6,1.3-2,3.2c-5.1,3-13.3,3-18.5,0c-2.1-1.2-3.4-2.8-3.7-4.4c0-0.1-0.1-0.3-0.1-0.4C84.2,115.1,84.9,115.7,85.9,116.3z
			"/>
	</g>
	
		<linearGradient id="SVGID_7_" gradientUnits="userSpaceOnUse" x1="80.0919" y1="352.9622" x2="120.9802" y2="352.9622" gradientTransform="matrix(1 0 0 1 0 -244.5372)">
		<stop  offset="0" style="stop-color:#E3CEE4"/>
		<stop  offset="0.3749" style="stop-color:#E0CCE5"/>
		<stop  offset="0.632" style="stop-color:#D7C5E7"/>
		<stop  offset="0.8531" style="stop-color:#C8B9EA"/>
		<stop  offset="1" style="stop-color:#B9AEEE"/>
	</linearGradient>
	<path class="st13" d="M109.1,105.1c-6.6,3.8-17.3,3.8-23.9,0c-3.3-1.9-5-4.5-5-7v10.8c0,2.5,1.7,5.1,5,7c6.6,3.8,17.3,3.8,23.9,0
		l9.6-5.6c1.4-0.8,2.3-2.4,2.3-4v-8.1L109.1,105.1z"/>
	<path class="st12" d="M120.1,97.8c-4.2-2.1-9.2-2-13.3,0.4l-0.5,0.3c-5.1,3-13.3,3-18.5,0c-2.9-1.7-4.1-3.9-3.8-6.1
		c0.4-0.6,1.4-1.1,1.7-1.4c-0.4,0.2-0.8,0.3-0.8,0.3c-6.6,3.8-6.6,10,0.1,13.9c6.6,3.8,17.3,3.8,23.9,0l12.1-7
		C120.9,98.2,120.6,98,120.1,97.8z"/>
	<g>
		<g>
			<path class="st6" d="M191.1,96l-10,7.8l-2.5,1.9l-0.3,0.2l-0.4,0.3l-0.8,0.5c-0.5,0.3-1,0.7-1.5,0.9c-1,0.6-2.1,1.1-3.3,1.6
				s-2.3,0.9-3.4,1.2c-4.6,1.4-9.3,1.9-14.2,1.7c-2.4-0.1-4.8-0.5-7.3-1.1c-0.7-0.2-1.2-0.3-1.8-0.5l-2-0.7l-0.7-0.3l-0.9-0.3
				l-0.8-0.3l-0.4-0.2l-0.2-0.1l-0.4-0.2c-3.1-1.8-4.2-5.8-2.4-8.9s5.8-4.2,8.9-2.4h-0.1l0.2,0.1l0.3,0.2l0.6,0.4l0.6,0.4l0.7,0.4
				l1,0.5c0.3,0.2,0.8,0.4,1.1,0.6c1.5,0.7,3.2,1.2,5,1.7c3.5,0.8,7.3,1,10.9,0.6c0.9-0.1,1.8-0.3,2.7-0.5c0.8-0.2,1.6-0.4,2.6-0.8
				c0.5-0.2,0.9-0.3,1.3-0.5l0.6-0.3l0.3-0.1l0.3-0.2l2.8-1.5l11.2-5.9c1.1-0.6,2.4-0.2,3,0.9C192.3,94.2,192,95.4,191.1,96z"/>
		</g>
	</g>
	<g>
		<g class="st0">
			<g>
				<path class="st12" d="M111.8,57.2L111.8,57.2L111.8,57.2z"/>
				
					<linearGradient id="SVGID_8_" gradientUnits="userSpaceOnUse" x1="120.15" y1="315.3548" x2="120.15" y2="297.3597" gradientTransform="matrix(1 0 0 1 0 -244.5372)">
					<stop  offset="0" style="stop-color:#FAF0FA"/>
					<stop  offset="0.3184" style="stop-color:#F7EDF9"/>
					<stop  offset="0.5367" style="stop-color:#EEE4F8"/>
					<stop  offset="0.7251" style="stop-color:#DFD5F5"/>
					<stop  offset="0.8954" style="stop-color:#CABFF1"/>
					<stop  offset="1" style="stop-color:#B9AEEE"/>
				</linearGradient>
				<path class="st14" d="M132.8,59.6c0-0.3-0.1-0.9-0.5-1.7c-0.4-0.9-1-1.5-1.5-2c-0.4-0.4-0.8-0.6-1.7-1.2l0,0
					c-0.7-0.4-2.5-1.3-4.9-1.6c-2.8-0.4-4.5,0-5.9,0.2c-0.2,0-2.5,0.5-4.5,1.9c-0.8,0.6-1.4,1.2-1.4,1.3c-0.5,0.6-0.5,0.7-1.1,1.7
					l0,0c-0.1,0.3-0.3,0.7-0.4,1c-0.1,0.2-0.2,0.4-0.2,0.5c-0.1,0.3-0.3,0.7-0.4,1s-0.3,0.7-0.4,1c-0.1,0.2-0.2,0.4-0.2,0.5
					c-0.1,0.3-0.3,0.7-0.4,1s-0.3,0.7-0.4,1c-0.1,0.2-0.2,0.4-0.2,0.5c-0.1,0.3-0.3,0.7-0.4,1c-0.1,0.2-0.1,0.4-0.2,0.5
					c-0.1,0.2-0.2,0.4-0.2,0.6c-0.1,0.2-0.1,0.4-0.2,0.5c-0.1,0.3-0.3,0.7-0.4,0.9c0-0.1,0.1-0.2,0.2-0.3c-0.2,0.4-0.3,0.8-0.3,1.1
					c0.1,1.2,0.5,1.9,2.3,1.7c1.7-0.2,3.3-0.5,5-0.7c3.4-0.5,6.7-1,10.1-1.5c0.5-0.1,1.1-0.2,1.5-0.3c2.2-0.5,6-2.1,7-6.1
					C132.9,61,132.8,60,132.8,59.6z"/>
				<path class="st12" d="M111.8,57.2L111.8,57.2L111.8,57.2z"/>
			</g>
			<path class="st12" d="M132.1,45.7c-0.2-0.4-0.6-1.1-1.3-1.8s-1.1-1-2-1.5l0,0l0,0c-2.9-1.7-6.6-2.1-10.2-1.3
				c-1.5,0.3-3.2,1.1-4.4,1.9c-0.8,0.6-1.3,1.1-1.5,1.4c-0.6,0.7-0.7,1-1.1,1.8l0,0l0,0c-0.1,0.2-0.2,0.5-0.3,0.7s-0.2,0.4-0.2,0.5
				c-0.1,0.3-0.3,0.7-0.4,1s-0.3,0.7-0.4,1c-0.1,0.2-0.2,0.4-0.2,0.5c-0.1,0.3-0.3,0.7-0.4,1s-0.3,0.7-0.4,1
				c-0.1,0.1-0.1,0.3-0.2,0.5c-0.1,0.3-0.3,0.7-0.4,1c-0.1,0.1-0.1,0.3-0.2,0.5s-0.2,0.5-0.3,0.8c-0.1,0.1-0.1,0.3-0.2,0.5
				c-0.1,0.3-0.3,0.7-0.4,0.9c0,0,0,0,0-0.1c-0.3,0.6-0.3,1-0.1,1.3c0.4,0.6,1.2,0.7,2.3,0.6c4.9-0.7,9.8-1.4,14.7-2.1
				c0.4-0.1,1-0.2,1.4-0.3c1.7-0.4,3.5-1.2,4.7-2.2c1.3-1.1,2.1-2.4,2.5-3.8C132.9,48.2,132.7,46.7,132.1,45.7z"/>
			<path class="st9" d="M119,45.5l0.7-1.8c0.4-0.9,2.5-1.3,3.7-0.6s0.6,1.9-1,2.1c-0.9,0.1-2,0.3-3.1,0.5c-0.1,0-0.3,0-0.4,0.1
				L119,45.5z"/>
		</g>
	</g>
	
		<linearGradient id="SVGID_9_" gradientUnits="userSpaceOnUse" x1="83.3343" y1="333.8497" x2="108.9343" y2="333.8497" gradientTransform="matrix(1 0 0 1 0 -244.5372)">
		<stop  offset="0" style="stop-color:#322E7A"/>
		<stop  offset="0.2606" style="stop-color:#373785"/>
		<stop  offset="0.7229" style="stop-color:#434FA4"/>
		<stop  offset="1" style="stop-color:#4C60B9"/>
	</linearGradient>
	<path class="st15" d="M109,95c0,7.1-25.6,7.1-25.6,0s5.7-16.7,12.8-16.7C103.3,78.3,109,87.9,109,95z"/>
	<path class="st9" d="M125.4,110.9c0.2-1.3,0.4-2.6,0.4-4c0-6.5-2.5-13.5-6.5-19.3c-2.6-3.7-1.8-8.8,1.8-11.4l0.1-0.1
		c7.1,6.1,12.6,17,12.6,25.6c0,3.7-1.1,5.7-2,6.3c-2.1,1.1-2.1,1.2-4,2C127.2,110.3,126.2,110.7,125.4,110.9z"/>
</g>
<g>
	<g class="st0">
		<g>
			<polygon class="st2" points="73.8,172.4 80.2,169 94.5,172.3 87.9,176 			"/>
		</g>
		<g>
			<polygon class="st1" points="91.6,182.9 96.2,189.5 89.5,188 73.8,172.4 87.9,176 			"/>
		</g>
		<polygon class="st3" points="87.9,176 91.6,182.9 96.2,189.5 102.6,185.4 98.1,179 94.5,172.3 		"/>
	</g>
</g>
<polygon class="st1" points="143.7,189.5 139,199.5 127.2,196.4 "/>
<g>
	<g class="st0">
		<g>
			<polygon class="st1" points="218.8,192.4 194.2,197.2 169.9,154.1 198.2,148.8 			"/>
		</g>
		<g>
			<polygon class="st2" points="169.9,154.1 188.5,140.3 216.9,135.1 198.2,148.8 			"/>
		</g>
		<g>
			<polygon class="st3" points="198.2,148.8 216.9,135.1 237.5,178.8 218.8,192.4 			"/>
		</g>
	</g>
</g>
</svg>
