<?xml version="1.0" encoding="utf-8"?>
<!-- Generator: Adobe Illustrator 24.0.0, SVG Export Plug-In . SVG Version: 6.00 Build 0)  -->
<!DOCTYPE svg PUBLIC "-//W3C//DTD SVG 1.1//EN" "http://www.w3.org/Graphics/SVG/1.1/DTD/svg11.dtd" [
	<!ENTITY ns_extend "http://ns.adobe.com/Extensibility/1.0/">
	<!ENTITY ns_ai "http://ns.adobe.com/AdobeIllustrator/10.0/">
	<!ENTITY ns_graphs "http://ns.adobe.com/Graphs/1.0/">
	<!ENTITY ns_vars "http://ns.adobe.com/Variables/1.0/">
	<!ENTITY ns_imrep "http://ns.adobe.com/ImageReplacement/1.0/">
	<!ENTITY ns_sfw "http://ns.adobe.com/SaveForWeb/1.0/">
	<!ENTITY ns_custom "http://ns.adobe.com/GenericCustomNamespace/1.0/">
	<!ENTITY ns_adobe_xpath "http://ns.adobe.com/XPath/1.0/">
]>
<svg version="1.1" id="Layer_1" xmlns:x="&ns_extend;" xmlns:i="&ns_ai;" xmlns:graph="&ns_graphs;"
	 xmlns="http://www.w3.org/2000/svg" xmlns:xlink="http://www.w3.org/1999/xlink" x="0px" y="0px" width="16px" height="15px"
	 viewBox="0 0 16 15" style="enable-background:new 0 0 16 15;" xml:space="preserve">
<style type="text/css">
	.st0{fill:#EDD83E;}
</style>
<metadata>
	<sfw  xmlns="&ns_sfw;">
		<slices></slices>
		<sliceSourceBounds  bottomLeftOrigin="true" height="13.5" width="15.9" x="2.1" y="3.3"></sliceSourceBounds>
	</sfw>
</metadata>
<g id="Group_289" transform="translate(-640 -310)">
	<g id="Group_263" transform="translate(495 508.155)">
		<path id="Path_107" class="st0" d="M145.4-186.4l6.3-10.2c0.5-0.8,1.5-1,2.3-0.6c0.2,0.1,0.4,0.3,0.6,0.6l6.3,10.2
			c0.5,0.8,0.2,1.8-0.6,2.3c-0.3,0.2-0.6,0.2-0.9,0.2h-12.5c-0.9,0-1.7-0.8-1.7-1.7C145.1-185.8,145.2-186.1,145.4-186.4z"/>
		<g id="Group_252">
			<path id="Path_108" d="M152-187.4c0-0.6,0.5-1,1-1c0.6,0,1,0.5,1,1c0,0.5-0.5,1-1,1C152.5-186.4,152-186.8,152-187.4
				C152-187.3,152-187.4,152-187.4z"/>
			<path id="Path_109" d="M152.4-189.4l-0.3-3.9h1.8l-0.2,3.9H152.4z"/>
		</g>
	</g>
</g>
</svg>
