<?xml version="1.0" encoding="utf-8"?>
<!-- Generator: Adobe Illustrator 24.2.1, SVG Export Plug-In . SVG Version: 6.00 Build 0)  -->
<svg version="1.1" id="Layer_1" xmlns="http://www.w3.org/2000/svg" xmlns:xlink="http://www.w3.org/1999/xlink" x="0px" y="0px"
	 viewBox="0 0 18.9 16.9" style="enable-background:new 0 0 18.9 16.9;" xml:space="preserve">
<style type="text/css">
	.st0{fill-rule:evenodd;clip-rule:evenodd;fill:#FFFFFF;}
</style>
<g>
	<path class="st0" d="M8.1,9.8C7.7,9.8,7.5,9.3,7.4,9c0.1,0,0.2,0,0.3,0c0.2,0,0.4,0.1,0.5,0.2C8.4,9.5,8.2,9.8,8.1,9.8 M10.9,9.8
		c0.4,0,0.6-0.5,0.7-0.8c-0.1,0-0.2,0-0.3,0c-0.2,0-0.4,0.1-0.5,0.2C10.6,9.5,10.7,9.8,10.9,9.8z M9.5,15.2L9.5,15.2L9.5,15.2
		c0.5-0.6,0.5-1.6,0-2.2C9,13.6,9,14.7,9.5,15.2z M9.5,0.5L9.5,0.5L9.5,0.5c0.6,0.4,1,0.8,1.4,1.3c1.2,1.7,2,4.5,1.8,6.6
		c0.6,0.3,1,0.7,1.4,1.2h0c0.5,0.8,0.7,2.5,0,3.4c-0.9-0.5-2.2-0.9-3.5-0.5l-0.3,0.1c0.7,0.9,0.7,2.2,0.1,3.1
		c-0.3,0.4-0.5,0.5-0.8,0.8c-0.3-0.3-0.5-0.5-0.8-0.8c-0.6-0.9-0.6-2.2,0.1-3.1l-0.3-0.1c-1.3-0.4-2.6,0-3.5,0.5
		c-0.7-0.9-0.5-2.6,0-3.4h0C5.3,9,5.8,8.6,6.4,8.4C6.1,6.3,6.9,3.5,8.1,1.8C8.5,1.3,8.9,0.9,9.5,0.5z M13.5,11.8
		c0.1-0.6,0-1.3-0.3-1.8c-0.2-0.3-0.4-0.6-0.8-0.7c-0.1,0.3-0.2,0.5-0.3,0.7c-0.4,0.7-1.4,0.9-1.9,0.4c-0.8-0.8-0.2-2.3,1.4-2.3
		l0.2,0c0.2-2.1-0.7-5.1-2.3-6.5C8,3.1,7,6.1,7.2,8.1l0.2,0C9,8.1,9.6,9.6,8.8,10.4C8.2,11,7.3,10.7,6.9,10C6.7,9.8,6.6,9.6,6.5,9.3
		C6.2,9.5,6,9.7,5.8,10c-0.3,0.5-0.4,1.2-0.3,1.8c1.4-0.5,2.6-0.5,4,0.1C10.9,11.3,12,11.3,13.5,11.8z"/>
</g>
</svg>
