<?xml version="1.0" encoding="utf-8"?>
<!-- Generator: Adobe Illustrator 25.0.1, SVG Export Plug-In . SVG Version: 6.00 Build 0)  -->
<svg version="1.1" id="Layer_1" xmlns="http://www.w3.org/2000/svg" xmlns:xlink="http://www.w3.org/1999/xlink" x="0px" y="0px"
	 viewBox="0 0 18.9 16.9" style="enable-background:new 0 0 18.9 16.9;" xml:space="preserve">
<style type="text/css">
	.st0{fill-rule:evenodd;clip-rule:evenodd;fill:#FFFFFF;}
	.st1{fill:#FFFFFF;}
</style>
<g>
	<g>
		<polygon class="st0" points="3.26,5.09 1.45,6.55 0.32,3.99 1.29,3.63 		"/>
	</g>
	<g>
		<polygon class="st0" points="3.26,11.02 1.45,9.56 0.32,12.12 1.29,12.48 		"/>
	</g>
	<g>
		<path class="st1" d="M9.5,13.37c-3.7,0-7.15-1.83-9.23-4.9c-0.11-0.17-0.11-0.39,0-0.56c2.08-3.07,5.53-4.9,9.23-4.9
			s7.15,1.83,9.23,4.9c0.11,0.17,0.11,0.39,0,0.56C16.65,11.54,13.2,13.37,9.5,13.37z M1.28,8.19c1.91,2.63,4.96,4.19,8.22,4.19
			c3.26,0,6.31-1.56,8.22-4.19C15.8,5.57,12.75,4.01,9.5,4.01C6.24,4.01,3.19,5.57,1.28,8.19z"/>
	</g>
	<g>
		<path class="st1" d="M9.5,9.84c1.51-0.1,3.01-0.25,4.48-0.53c1.46-0.28,2.93-0.65,4.24-1.33V8.4c-1.31-0.68-2.77-1.04-4.24-1.32
			C12.5,6.8,11,6.65,9.5,6.55c1.51-0.09,3.03-0.04,4.54,0.17c1.5,0.21,3,0.58,4.4,1.26c0.12,0.06,0.16,0.2,0.11,0.31
			c-0.02,0.05-0.06,0.09-0.11,0.11c-1.4,0.68-2.89,1.05-4.4,1.26C12.52,9.87,11,9.93,9.5,9.84z"/>
	</g>
	<g>
		<polygon class="st0" points="8.83,14.72 8.83,13.59 12.43,13.59 12.67,12.88 6.7,12.88 7.07,15.44 11.81,15.44 12.05,14.72 		"/>
	</g>
</g>
</svg>
