<svg enable-background="new 0 0 30 34" height="24" viewBox="0 0 24 24" width="24" xmlns="http://www.w3.org/2000/svg"><path d="m20.316344 14.526343c-.676738-1.127896-1.804634-2.48137-3.270898-3.722056l-.11279-.112791h.225579c.563949.112791 1.353475.22558 1.691844-.225579 0 0 .902317-1.2406849 1.015106-1.3534744.451159-.5639479-.112789-1.6918436-1.353475-2.9325288l-.225579-.2255791 1.466265-1.9174226-.563949-.4511582 1.579055-2.2557914-.563948-.33836864-1.691844 2.25579134-.563947-.4511583-1.353475 1.9174226c-1.240685-.789527-2.932529-1.3534747-3.496477-.5639477 0 0-.902316 1.3534747-.902316 1.3534747-.338369.4511582 0 1.2406852.338368 1.6918434l.11279.1127896h-.451158c-3.8348458-2.1430018-6.9929537-2.7069495-8.0080597-1.3534748 0 0-1.1278956 1.579054-1.1278956 1.579054-.6767374.9023164-.3383688 2.2557916.9023164 4.0604243.6767375 1.015107 1.579054 2.030213 2.7069496 3.045319l.1127896.11279h-.1127896c-.7895269-.11279-1.2406852-.11279-1.4662644.338368 0 0-.9023164 1.353475-.9023164 1.353475-.1127896.225579-.2255792.451158-.1127896.789527 0 .112789 0 .112789.1127896.225579l1.2406852 3.947635-1.1278956 1.466264.4511582.338369 1.0151061-1.466265 4.2860042-.112789c.338368 0 .676737-.11279.789526-.338369 0 0 .902317-1.240685 1.015107-1.353475.225579-.338368.225579-.902316-.225579-1.579053l-.11279-.112789.11279.112789c1.353474.676737 2.594159 1.240685 3.722056 1.579053 2.030212.563949 3.496475.451159 4.173213-.451158l1.015106-1.466264v-.11279s0 0 0-.11279c.789528-.563947.563948-1.804632-.338368-3.270896zm-3.947635-8.4592187 1.579054-2.3685809.676737.5639479-1.691844 2.2557913c-.112789.1127896-.225579.2255791-.338368.2255791-.11279 0-.225579 0-.225579-.1127895 0 0-.11279-.1127896-.11279-.1127896 0-.2255792 0-.3383688.11279-.4511583zm-3.045318-1.3534748c0-.1127895 0-.1127895 0 0 .338368-.3383686 1.353474-.2255791 2.706949.5639479l-.225579.3383687c-.225579.3383686-.338368.7895269-.112789 1.1278956.112789.1127896.225579.3383687.338368.3383687.338369.2255791.676737.2255791 1.015106.1127895.112789-.1127895.338369-.2255791.451159-.3383686l.225579-.3383687.225579.1127896c1.240684 1.2406852 1.466264 1.9174225 1.240684 2.1430017-.112789.1127895-.225579.1127895-.451158.1127895s-.451158 0-.789526-.1127895c-.451158-.1127896-1.353475-.4511583-2.368581-1.2406852-1.579054-1.2406853-2.368581-2.368581-2.255791-2.8197392zm-.902317 1.2406852.451158-.5639477v.1127895c.338369.7895269 1.240685 1.804633 2.481371 2.59416 1.127895.9023165 2.368581 1.3534747 3.270897 1.4662648h.112789l-.451158.5639477c-.112789.112789-.225579.112789-.451158.112789-.563947 0-1.691843-.3383682-3.158108-1.3534746-1.015106-.7895269-1.579054-1.4662644-1.917423-1.9174226-.338368-.4511582-.451158-.9023165-.338368-1.0151061zm.789527 8.6847973.338369.338369 1.804633 2.255791-.112789-.11279c-.902318-.338368-1.804634-.902316-2.81974-1.466264zm.338369-.563947.225579-.33837 4.173214 1.579054c.451158.676738.902316 1.240686 1.127895 1.804633.225579.451158.225579.676737.225579 1.015107-.11279 0-.225579 0-.338369 0-.563947 0-1.240684-.11279-2.030212-.33837-.112789 0-.225579-.112789-.451158-.112789zm.676737-.789528.789527-1.015105c.789527.676737 1.466264 1.353474 2.143001 2.030212l.112791.112789zm-1.015106.338369-.338369-.451158c-.11279-.11279-.338369-.11279-.451158 0-.11279.112789-.11279.225579 0 .338368l.451158.563949-.902316 1.240684c-.451158-.225579-.789527-.563947-1.127896-.789526s-.676737-.563948-1.1278954-.789528l.9023164-1.240684.676738.225579c.112789 0 .225579 0 .338368-.11279.11279-.112789 0-.338368-.112789-.451158l-.451158-.225579 2.48137-3.4964779c.338368.3383688.676737.5639479 1.015105.789527.451159.3383692.789528.5639482 1.240686.7895269zm-2.70695-2.143002-.225579.338368-.3383684-.112789-3.8348457-1.466265c-.1127896-.225579-.2255791-.3383682-.3383687-.4511577-.5639479-.9023169-1.0151061-1.5790543-1.1278956-2.2557916h.5639477c.6767375 0 1.579054.2255791 2.4813705.5639478zm-1.8046331-3.1581084.2255791.1127895c.9023171.3383688 1.804633.9023166 2.70695 1.4662647l-.789527 1.1278962zm.6767371 3.7220574.225579.112789.2255801.11279-.7895275 1.015105c-.789527-.676737-1.579054-1.353474-2.1430017-2.030212l-.1127896-.11279zm-4.849951-5.3011113c0-.1127895.1127896-.3383687.2255791-.4511583.6767374-1.015106 3.7220556-.6767373 8.0080589 1.9174226l-.789526 1.0151061c-2.594161-1.5790539-5.0755311-2.5941599-6.8801642-2.5941599-.1127896.1127895-.3383687.1127895-.5639478.1127895zm1.2406852 8.5720073c.2255791-.225579.9023165-.112789 1.6918434.225579l-1.015106 1.353475c-.4511583-.563947-.7895269-1.127896-.7895269-1.353475 0-.112789.1127895-.225579.1127895-.225579zm2.2557913.563948c1.0151061.338369 2.1430025 1.466264 2.3685815 1.579054l-1.1278965 1.579054-2.2557911-1.691844zm-2.0302122 5.30111-.6767373-2.143002.1127895.11279c.3383687.338368.7895269.789526 1.2406852 1.015106.4511583.338369.9023166.676737 1.4662644.902316l.1127895.11279zm4.6243727-.225579c-.11279.112789-.225579.112789-.451158.112789-.563949 0-1.6918443-.338368-3.1581086-1.353475-1.3534747-1.015105-2.0302122-1.917423-2.2557913-2.48137v-.11279c0-.112789 0-.225579 0-.338368l.4511582-.563948v.11279c.3383688.789526 1.2406853 1.804633 2.4813705 2.59416 1.1278957.902316 2.3685812 1.353475 3.2708972 1.466264h.112791zm1.015106-1.353475c-.112789.112789-.225579.112789-.451158.112789-.338369 0-.789527-.112789-1.3534749-.338368l1.0151059-1.353475c.676738.789527.902317 1.353475.789527 1.579054zm7.66969-.338369c-.225579.338369-.789527.451158-1.466264.451158-.563947 0-1.240685-.112789-2.030212-.338368-1.917423-.563948-4.060424-1.691844-6.203427-3.270897-2.1430014-1.579054-3.9476343-3.270898-5.07553-4.849952-1.0151061-1.4662647-1.3534747-2.7069503-.9023165-3.3836876l.3383686-.4511584v.1127897c.1127896.7895269.5639479 1.5790539 1.2406852 2.5941603 1.1278957 1.691843 3.0453183 3.496477 5.1883207 4.962741 2.143001 1.579054 4.511582 2.819739 6.429005 3.383688 1.127896.338368 2.030212.451158 2.819739.338368h.11279zm1.127896-1.579054c-.112789.112789-.225579.225579-.451158.338369s0-.451159-.225579-1.127896c-.676738-1.466264-2.255791-3.383687-4.286003-5.075531l.789526-1.015105c1.579054 1.353475 2.932528 2.819739 3.722056 4.060424.563948 1.240686.789527 2.255791.451158 2.819739z" fill="#fff" stroke-width="1.1279"/></svg>