<svg width="110" height="50" viewBox="0 0 110 50" fill="none" xmlns="http://www.w3.org/2000/svg">
<path d="M56.98 15.2353H60.8813V23.1471H69.2706V15.2353H73.172V34.5147H69.2706V26.5147H60.8813V34.5147H56.98V15.2353Z" fill="#0A0435"/>
<path d="M78.276 14.2647C79.5373 14.2647 80.52 15.2206 80.52 16.4559C80.52 17.6912 79.552 18.6471 78.276 18.6471C77 18.6471 76.032 17.6912 76.032 16.4559C76.032 15.2206 77 14.2647 78.276 14.2647ZM76.384 20.25H80.168V34.5147H76.384V20.25Z" fill="#0A0435"/>
<path d="M87.0906 26.0588V34.5147H83.3066V20.25H87.0906V22C88 20.7941 89.2613 19.9265 90.8893 19.9265C91.3733 19.9265 91.8573 20.0441 92.18 20.2353V24.1029C91.6813 23.9265 88.8653 22.7647 87.0906 26.0735V26.0588Z" fill="#0A0435"/>
<path d="M101.171 19.9265C105.703 19.9265 109.061 23.2206 109.061 27.397C109.061 31.5735 105.703 34.8676 101.171 34.8676C96.6387 34.8676 93.28 31.5735 93.28 27.397C93.28 23.2206 96.6534 19.9265 101.171 19.9265ZM101.171 31.5147C103.503 31.5147 105.292 29.7206 105.292 27.397C105.292 25.0735 103.503 23.2794 101.171 23.2794C98.8387 23.2794 97.064 25.0882 97.064 27.397C97.064 29.7059 98.8534 31.5147 101.171 31.5147Z" fill="#0A0435"/>
<path d="M42.6947 34.6765V15.3088C42.6947 14.5882 42.5041 13.8823 42.1667 13.2794C41.8147 12.6323 41.2721 12.0882 40.6121 11.7059L23.8921 2.0294C23.2467 1.66176 22.5281 1.47058 21.8094 1.47058C21.0907 1.47058 20.3721 1.66176 19.7267 2.0294L3.00674 11.7059C2.36141 12.0735 1.84807 12.6029 1.48141 13.2353C1.11474 13.8676 0.924072 14.5735 0.924072 15.3235V34.6912C0.924072 35.3382 1.07074 35.9706 1.36407 36.5441C1.71607 37.2647 2.28807 37.8824 3.00674 38.2941L19.7267 47.9706C20.3721 48.3382 21.0907 48.5294 21.8094 48.5294C22.5281 48.5294 23.2467 48.3382 23.8921 47.9706L40.6121 38.2941C41.2574 37.9265 41.7707 37.3971 42.1374 36.7647C42.5041 36.1323 42.6947 35.4265 42.6947 34.6765Z" fill="#42239B"/>
<path d="M23.3493 9.16176C23.7462 9.16176 24.0679 8.83914 24.0679 8.44117C24.0679 8.0432 23.7462 7.72058 23.3493 7.72058C22.9524 7.72058 22.6306 8.0432 22.6306 8.44117C22.6306 8.83914 22.9524 9.16176 23.3493 9.16176Z" fill="#6C52DD"/>
<path d="M17.8346 10.5C16.7052 10.5 15.7812 11.4265 15.7812 12.5588C15.7812 13.6912 16.7052 14.6176 17.8346 14.6176C18.9639 14.6176 19.8879 13.6912 19.8879 12.5588C19.8879 11.4265 18.9639 10.5 17.8346 10.5Z" fill="#6C52DD"/>
<path d="M9.85587 15.1912C10.2528 15.1912 10.5745 14.8686 10.5745 14.4706C10.5745 14.0726 10.2528 13.75 9.85587 13.75C9.45896 13.75 9.13721 14.0726 9.13721 14.4706C9.13721 14.8686 9.45896 15.1912 9.85587 15.1912Z" fill="#6C52DD"/>
<path d="M23.8625 35.6765C22.7919 35.6765 21.9119 36.5588 21.9119 37.6323C21.9119 38.7059 22.7919 39.5882 23.8625 39.5882C24.9332 39.5882 25.8132 38.7059 25.8132 37.6323C25.8132 36.5588 24.9332 35.6765 23.8625 35.6765Z" fill="#6C52DD"/>
<path d="M38.4558 27.353C39.2253 27.353 39.8492 26.7275 39.8492 25.9559C39.8492 25.1843 39.2253 24.5588 38.4558 24.5588C37.6863 24.5588 37.0625 25.1843 37.0625 25.9559C37.0625 26.7275 37.6863 27.353 38.4558 27.353Z" fill="#6C52DD"/>
<path d="M5.77859 21.9117C6.5481 21.9117 7.17192 21.2862 7.17192 20.5147C7.17192 19.7431 6.5481 19.1176 5.77859 19.1176C5.00907 19.1176 4.38525 19.7431 4.38525 20.5147C4.38525 21.2862 5.00907 21.9117 5.77859 21.9117Z" fill="#6C52DD"/>
<path d="M12.8333 39.3382C13.6028 39.3382 14.2266 38.7128 14.2266 37.9412C14.2266 37.1696 13.6028 36.5441 12.8333 36.5441C12.0638 36.5441 11.4399 37.1696 11.4399 37.9412C11.4399 38.7128 12.0638 39.3382 12.8333 39.3382Z" fill="#6C52DD"/>
<path d="M31.196 39.6029C31.5929 39.6029 31.9146 39.2803 31.9146 38.8823C31.9146 38.4844 31.5929 38.1617 31.196 38.1617C30.7991 38.1617 30.4773 38.4844 30.4773 38.8823C30.4773 39.2803 30.7991 39.6029 31.196 39.6029Z" fill="#6C52DD"/>
<path d="M38.7199 20.7353C39.1168 20.7353 39.4386 20.4127 39.4386 20.0147C39.4386 19.6167 39.1168 19.2941 38.7199 19.2941C38.323 19.2941 38.0012 19.6167 38.0012 20.0147C38.0012 20.4127 38.323 20.7353 38.7199 20.7353Z" fill="#6C52DD"/>
<path d="M30.0373 24.8088C27.896 24.8088 26.1067 26.4118 25.8427 28.5441V28.5735H23.848V24.6912H23.8627C24.684 24.4559 25.256 23.7059 25.256 22.8676C25.256 22.6323 25.212 22.397 25.124 22.1618C25.036 21.9265 26.796 20.4706 26.796 20.4706H26.8107C27.632 21.1029 28.6147 21.4265 29.656 21.4265C30.9173 21.4265 32.12 20.9265 33.0147 20.0294L33.352 19.6912L30.4627 16.7941L31.724 15.5294L31.0493 14.8529L29.788 16.1176L26.6347 12.9559L26.2973 13.2941C25.4027 14.1912 24.904 15.3823 24.904 16.6618C24.904 17.8235 25.3147 18.9265 26.0773 19.7941H26.092L24.5373 21.3823H24.5227C24.1853 21.1029 23.7893 20.9706 23.3787 20.9706C22.3373 20.9706 21.4867 21.8235 21.4867 22.8676C21.4867 23.7206 22.0587 24.4706 22.88 24.6912H22.8947V28.5882H20.7973V26.2647C20.7973 25.4706 20.152 24.8088 19.3453 24.8088H17.336C16.6907 24.8088 16.1627 24.2794 16.1627 23.6323V20.8382C16.1627 20.0441 15.5173 19.3823 14.7107 19.3823H12.6867C11.8947 19.3823 11.2347 20.0294 11.2347 20.8382V24.8823H11.2053C10.2227 25.0441 9.32801 25.5441 8.68267 26.3088C8.02267 27.0735 7.65601 28.0588 7.65601 29.0588C7.65601 31.397 9.54801 33.2941 11.88 33.2941C14.0213 33.2941 15.8107 31.6912 16.0747 29.5588V29.5294H25.828V29.5588C26.0773 31.6912 27.8813 33.2941 30.0227 33.2941C32.3547 33.2941 34.2467 31.397 34.2467 29.0588C34.2467 26.7206 32.3547 24.8235 30.0227 24.8235L30.0373 24.8088ZM26.6347 14.3382V14.3088L26.6787 14.3382L31.988 19.6618H31.9587C31.2987 20.1912 30.492 20.4706 29.6413 20.4706C28.6293 20.4706 27.676 20.0735 26.9427 19.3529C25.5933 18 25.4613 15.8529 26.6053 14.3382H26.6347ZM11.9093 32.3235C10.1053 32.3235 8.63867 30.8529 8.63867 29.0441C8.63867 27.2353 10.1053 25.7647 11.9093 25.7647C13.7133 25.7647 15.18 27.2353 15.18 29.0441C15.18 30.8529 13.7133 32.3235 11.9093 32.3235ZM19.8733 28.5735H16.104V28.5441C15.8693 26.5441 14.2413 24.9853 12.2467 24.8235H12.2173V20.8088C12.2173 20.5294 12.4373 20.3088 12.716 20.3088H14.74C15.0187 20.3088 15.2387 20.5294 15.2387 20.8088V23.6029C15.2387 24.7794 16.192 25.7206 17.3507 25.7206H19.36C19.6387 25.7206 19.8587 25.9412 19.8587 26.2206V28.5441L19.8733 28.5735ZM22.6013 22.8676C22.6013 22.4412 22.9533 22.0882 23.3787 22.0882C23.804 22.0882 24.156 22.4412 24.156 22.8676C24.156 23.2941 23.804 23.647 23.3787 23.647C22.9533 23.647 22.6013 23.2941 22.6013 22.8676ZM30.0373 32.3382C28.2333 32.3382 26.7667 30.8676 26.7667 29.0588C26.7667 27.25 28.2333 25.7794 30.0373 25.7794C31.8413 25.7794 33.308 27.25 33.308 29.0588C33.308 30.8676 31.8413 32.3382 30.0373 32.3382Z" fill="white"/>
</svg>
