<?xml version="1.0" encoding="utf-8"?>
<!-- Generator: Adobe Illustrator 24.2.1, SVG Export Plug-In . SVG Version: 6.00 Build 0)  -->
<svg version="1.1" id="Layer_1" xmlns="http://www.w3.org/2000/svg" xmlns:xlink="http://www.w3.org/1999/xlink" x="0px" y="0px"
	 viewBox="0 0 186 33" style="enable-background:new 0 0 186 33;" xml:space="preserve">
<style type="text/css">
	.st0{fill:#31CAFF;}
	.st1{fill:#FFFFFF;}
	.st2{fill:#1E40D1;}
	.st3{fill:#0536AD;}
	.st4{fill:#425BEA;}
</style>
<g>
	<path class="st0" d="M124.7,21.1c0-2.5,1.9-4.2,4.6-4.2c1.7,0,3.1,0.7,3.7,2.1l-1.8,1c-0.4-0.8-1.1-1.1-1.8-1.1
		c-1.2,0-2.1,0.8-2.1,2.3s0.9,2.3,2.1,2.3c0.7,0,1.4-0.3,1.8-1.1l1.8,1c-0.6,1.3-1.9,2.1-3.7,2.1C126.6,25.3,124.7,23.6,124.7,21.1z
		"/>
	<path class="st0" d="M133.6,21.1c0-2.5,1.9-4.2,4.5-4.2c2.6,0,4.5,1.7,4.5,4.2s-1.9,4.2-4.5,4.2C135.5,25.3,133.6,23.6,133.6,21.1z
		 M140.1,21.1c0-1.4-0.9-2.3-2.1-2.3c-1.2,0-2.1,0.9-2.1,2.3c0,1.4,0.9,2.3,2.1,2.3C139.2,23.4,140.1,22.5,140.1,21.1z"/>
	<path class="st0" d="M152.5,20.5v4.7h-2.4v-4.3c0-1.3-0.6-1.9-1.7-1.9c-1.1,0-2,0.7-2,2.2v4h-2.4V17h2.3v1c0.6-0.7,1.6-1.1,2.7-1.1
		C151,16.9,152.5,18,152.5,20.5z"/>
	<path class="st0" d="M153.8,24.4l0.8-1.7c0.7,0.5,1.8,0.8,2.8,0.8c1.1,0,1.5-0.3,1.5-0.7c0-1.3-4.9,0-4.9-3.2
		c0-1.6,1.4-2.6,3.8-2.6c1.1,0,2.4,0.3,3.1,0.7l-0.8,1.7c-0.8-0.5-1.6-0.6-2.4-0.6c-1.1,0-1.5,0.3-1.5,0.8c0,1.4,4.9,0,4.9,3.3
		c0,1.5-1.4,2.6-3.9,2.6C156,25.3,154.6,24.9,153.8,24.4z"/>
	<path class="st0" d="M162.1,21.1c0-2.5,1.9-4.2,4.5-4.2c2.6,0,4.5,1.7,4.5,4.2s-1.9,4.2-4.5,4.2C164,25.3,162.1,23.6,162.1,21.1z
		 M168.7,21.1c0-1.4-0.9-2.3-2.1-2.3c-1.2,0-2.1,0.9-2.1,2.3c0,1.4,0.9,2.3,2.1,2.3C167.8,23.4,168.7,22.5,168.7,21.1z"/>
	<path class="st0" d="M172.6,13.9h2.4v11.3h-2.4V13.9z"/>
	<path class="st0" d="M185.2,21.8H179c0.2,1,1.1,1.6,2.3,1.6c0.9,0,1.5-0.3,2.1-0.8l1.3,1.4c-0.8,0.9-1.9,1.3-3.4,1.3
		c-2.8,0-4.7-1.8-4.7-4.2c0-2.4,1.9-4.2,4.4-4.2c2.4,0,4.3,1.6,4.3,4.2C185.2,21.3,185.2,21.6,185.2,21.8z M179,20.4h4
		c-0.2-1-0.9-1.7-2-1.7C179.9,18.7,179.1,19.3,179,20.4z"/>
</g>
<g>
	<path class="st0" d="M16,3.2c-6.1,0-11.3,3.7-13.6,8.9v-9C3,2.9,3.4,2.3,3.4,1.7c0-0.8-0.7-1.5-1.5-1.5C1,0.2,0.3,0.9,0.3,1.7
		c0,0.6,0.4,1.2,0.9,1.4V18l0,0c0,8.2,6.6,14.8,14.8,14.8S30.9,26.2,30.9,18C30.9,9.8,24.2,3.2,16,3.2z"/>
	<g>
		<path class="st1" d="M50.9,20.7l-7-10l-0.1-0.1l0,0H41v14.7h2.5V14.7c0.4,0.6,7.4,10.5,7.5,10.6l0,0h2.5V10.6h-2.6V20.7z"/>
		<path class="st1" d="M60.3,14.3c-1.3,0-2.6,0.3-3.9,0.9l-0.2,0.1l0,0l0.8,1.8l0,0l0.3-0.1c0.7-0.3,1.2-0.5,1.6-0.6
			c0.4-0.1,0.9-0.1,1.4-0.1c0.8,0,1.4,0.2,1.7,0.5c0.3,0.3,0.5,0.8,0.5,1.6v0.1h-1.3c-1.7,0-3,0.3-4,0.9l0,0c-1,0.7-1.5,1.6-1.5,2.8
			c0,1,0.3,1.8,1,2.4c0.7,0.6,1.6,0.9,2.7,0.9c1.2,0,2.3-0.4,3.3-1.2c0,0.1,0.1,0.2,0.1,0.3l0,0c0,0.2,0.1,0.3,0.1,0.4l0.1,0.2l0,0
			h2v-6.8c0-1.4-0.4-2.5-1.1-3.1C63.1,14.6,61.9,14.3,60.3,14.3z M62.4,20.5v1.8c-0.3,0.4-0.7,0.6-1.2,0.9c-0.5,0.2-1,0.3-1.5,0.3
			c-0.5,0-1-0.1-1.2-0.3c-0.3-0.2-0.4-0.5-0.4-1c0-0.6,0.2-1,0.7-1.3c0.5-0.3,1.3-0.5,2.4-0.5H62.4z"/>
		<path class="st1" d="M82.9,14.3c-1.3,0-2.6,0.3-3.9,0.9l-0.2,0.1l0,0l0.8,1.8l0,0l0.3-0.1c0.7-0.3,1.2-0.5,1.6-0.6
			c0.4-0.1,0.9-0.1,1.4-0.1c0.8,0,1.4,0.2,1.7,0.5c0.3,0.3,0.5,0.8,0.5,1.6v0.1h-1.3c-1.7,0-3,0.3-4,0.9l0,0c-1,0.7-1.5,1.6-1.5,2.8
			c0,1,0.3,1.8,1,2.4c0.7,0.6,1.6,0.9,2.7,0.9c1.2,0,2.3-0.4,3.3-1.2c0,0.1,0.1,0.2,0.1,0.3l0,0c0,0.2,0.1,0.3,0.1,0.4l0.1,0.2h2
			v-6.8c0-1.4-0.4-2.5-1.1-3.1C85.6,14.6,84.4,14.3,82.9,14.3z M83.8,23.1c-0.5,0.2-1,0.3-1.5,0.3c-0.5,0-1-0.1-1.2-0.3
			c-0.3-0.2-0.4-0.5-0.4-1c0-0.6,0.2-1,0.7-1.3c0.5-0.3,1.3-0.5,2.4-0.5H85v1.8C84.6,22.6,84.2,22.9,83.8,23.1z"/>
		<path class="st1" d="M116.7,15.3c-0.7-0.7-1.9-1-3.4-1c-1.3,0-2.6,0.3-3.9,0.9l-0.2,0.1l0,0l0.8,1.8l0,0l0.3-0.1
			c0.7-0.3,1.2-0.5,1.6-0.6c0.4-0.1,0.9-0.1,1.4-0.1c0.8,0,1.4,0.2,1.7,0.5c0.3,0.3,0.5,0.8,0.5,1.6v0.1H114c-1.7,0-3,0.3-4,0.9l0,0
			c-1,0.7-1.5,1.6-1.5,2.8c0,1,0.3,1.8,1,2.4c0.7,0.6,1.6,0.9,2.7,0.9c1.2,0,2.3-0.4,3.3-1.2c0,0.1,0.1,0.2,0.1,0.3l0,0.1
			c0,0.2,0.1,0.3,0.1,0.3l0.1,0.2l0,0h2v-6.8C117.8,17,117.4,16,116.7,15.3z M114.1,23.1c-0.5,0.2-1,0.3-1.5,0.3
			c-0.5,0-1-0.1-1.2-0.3c-0.3-0.2-0.4-0.5-0.4-1c0-0.6,0.2-1,0.7-1.3c0.5-0.3,1.3-0.5,2.4-0.5h1.2v1.8
			C115,22.6,114.6,22.9,114.1,23.1z"/>
		<polygon class="st1" points="76.7,14.5 76.7,14.5 73.7,14.5 69.8,18.8 69.8,10.6 67.2,10.6 67.2,25.3 67.2,25.3 69.8,25.3 
			69.8,19.6 74.3,25.2 74.4,25.3 74.4,25.3 77.5,25.3 72.6,19.1 		"/>
		<path class="st1" d="M102.6,14.3c-1.5,0-2.8,0.5-3.7,1.6c-0.6-1-1.8-1.6-3.5-1.6c-1.3,0-2.5,0.4-3.4,1.3l-0.2-1.1l0,0h-2.2v10.8
			h2.6v-7.5c0.3-0.4,0.7-0.8,1.2-1c0.5-0.3,1-0.4,1.6-0.4c0.7,0,1.1,0.2,1.4,0.5c0.3,0.3,0.4,0.8,0.4,1.6v6.9h2.6v-7.1
			c0-0.2,0-0.4,0-0.5c0.3-0.4,0.7-0.8,1.2-1c0.5-0.3,1.1-0.4,1.6-0.4c0.6,0,1.1,0.2,1.4,0.5c0.3,0.3,0.4,0.8,0.4,1.6v6.9h2.6v-7.1
			c0-1.3-0.3-2.2-1-2.9C104.9,14.6,103.9,14.3,102.6,14.3z"/>
	</g>
	<path class="st2" d="M15,14.3c-0.7-2.9-1.7-6.6-1.7-6.6c-2.6,1.4-4.6,3.8-5.5,6.6H15z"/>
	<path class="st3" d="M11.7,14H13l-1.4-5.2c-0.4,0.3-0.8,0.7-1.2,1.1l1.1,4.1L11.7,14L11.7,14z"/>
	<path class="st4" d="M20.5,19.2V19c0-1.4-0.6-2.6-1.5-3.5c-0.9-0.9-2.1-1.5-3.5-1.5H12c-0.7-2.9-1.6-6.3-1.6-6.4
		c-3.7,2-6.2,5.9-6.2,10.3c0,6.5,5.3,11.8,11.8,11.8c6.1,0,11.1-4.7,11.7-10.7H20.5z"/>
	<circle class="st1" cx="15.2" cy="18.5" r="1.5"/>
	<path class="st3" d="M24.5,19.2c0,1.5,1.1,2.8,2.5,3.2c0.4-1,0.6-2.1,0.8-3.2H24.5z"/>
	<path class="st1" d="M26.9,16.2c-0.3,0-0.6-0.2-0.7-0.5c-0.5-2.2-1.7-4.2-3.4-5.6c-0.3-0.2-0.3-0.7-0.1-0.9C23,8.8,23.4,8.7,23.7,9
		c1.9,1.6,3.3,3.9,3.8,6.4c0.1,0.4-0.1,0.7-0.5,0.8C27,16.1,26.9,16.2,26.9,16.2z"/>
	<path class="st1" d="M20.2,8.3c-0.1,0-0.2,0-0.3,0c-0.9-0.3-1.8-0.6-2.7-0.7c-0.4,0-0.6-0.4-0.6-0.7c0-0.4,0.4-0.6,0.7-0.6
		c1,0.1,2.1,0.4,3.1,0.8c0.3,0.1,0.5,0.5,0.4,0.9C20.8,8.2,20.5,8.3,20.2,8.3z"/>
</g>
</svg>
