<?xml version="1.0" encoding="utf-8"?>
<!-- Generator: Adobe Illustrator 24.2.1, SVG Export Plug-In . SVG Version: 6.00 Build 0)  -->
<svg version="1.1" id="Layer_1" xmlns="http://www.w3.org/2000/svg" xmlns:xlink="http://www.w3.org/1999/xlink" x="0px" y="0px"
	 viewBox="0 0 31 33" style="enable-background:new 0 0 31 33;" xml:space="preserve">
<style type="text/css">
	.st0{fill:#31CAFF;}
	.st1{fill:#1E40D1;}
	.st2{fill:#0536AD;}
	.st3{fill:#425BEA;}
	.st4{fill:#FFFFFF;}
</style>
<g>
	<path class="st0" d="M15.9,3.2c-6.1,0-11.3,3.7-13.6,8.9v-9c0.6-0.2,1-0.8,1-1.4c0-0.8-0.7-1.5-1.5-1.5c-0.9,0-1.6,0.7-1.6,1.5
		c0,0.6,0.4,1.2,0.9,1.4V18l0,0c0,8.2,6.6,14.8,14.8,14.8S30.8,26.2,30.8,18S24.1,3.2,15.9,3.2z"/>
	<path class="st1" d="M14.9,14.3c-0.7-2.9-1.7-6.6-1.7-6.6c-2.6,1.4-4.6,3.8-5.5,6.6H14.9z"/>
	<path class="st2" d="M11.6,14h1.3l-1.4-5.2c-0.4,0.3-0.8,0.7-1.2,1.1l1.1,4.1H11.6L11.6,14z"/>
	<path class="st3" d="M20.4,19.2V19c0-1.4-0.6-2.6-1.5-3.5S16.8,14,15.4,14h-3.5c-0.7-2.9-1.6-6.3-1.6-6.4c-3.7,2-6.2,5.9-6.2,10.3
		c0,6.5,5.3,11.8,11.8,11.8C22,29.7,27,25,27.6,19h-7.2V19.2z"/>
	<circle class="st4" cx="15.1" cy="18.5" r="1.5"/>
	<path class="st2" d="M24.4,19.2c0,1.5,1.1,2.8,2.5,3.2c0.4-1,0.6-2.1,0.8-3.2H24.4z"/>
	<path class="st4" d="M26.8,16.2c-0.3,0-0.6-0.2-0.7-0.5c-0.5-2.2-1.7-4.2-3.4-5.6c-0.3-0.2-0.3-0.7-0.1-0.9c0.3-0.4,0.7-0.5,1-0.2
		c1.9,1.6,3.3,3.9,3.8,6.4c0.1,0.4-0.1,0.7-0.5,0.8C26.9,16.1,26.8,16.2,26.8,16.2z"/>
	<path class="st4" d="M20.1,8.3c-0.1,0-0.2,0-0.3,0C18.9,8,18,7.7,17.1,7.6c-0.4,0-0.6-0.4-0.6-0.7c0-0.4,0.4-0.6,0.7-0.6
		c1,0.1,2.1,0.4,3.1,0.8c0.3,0.1,0.5,0.5,0.4,0.9C20.7,8.2,20.4,8.3,20.1,8.3z"/>
</g>
</svg>
