<svg fill="none" height="50" viewBox="0 0 50 50" width="50" xmlns="http://www.w3.org/2000/svg"><path d="m47.826917 25.219741c0-1.478742-1.302677-2.757048-3.957973-3.834915-.826808-.325883-1.803774-.651594-2.906013-.927367-.100216-.401047-.200439-.777039-.325543-1.153031l.57609-.576431c.400877-.401047.701364-.927368.826638-1.478914.375821-1.854736-.676309-4.386291-2.855734-6.56691-2.530191-2.5315549-5.561309-3.4839773-7.415193-2.5065-.175383.100219-.325541.2256634-.47587.3509373l-.626369.5764304c-1.553055-.5513756-3.206501-.8522034-4.859946-.8772582-.150158 0-.275432 0-.42576 0-7.314973 0-13.577646 4.9628925-15.4565837 11.7554645-4.8347209 1.102752-7.2897824 2.656829-7.3148372 4.662064-.025038 2.055344 2.5302264 3.734696 7.6154949 4.962722.350766 1.002702.826636 1.93007 1.377842 2.857438.551035.927367.02506.05011.05011.07517.125273.225663.275602.451157.42593.651765l-3.8829786 3.885025c-.9018022.902313-.5512052 2.581665.7765277 3.91008.8268069.827148 1.7536639 1.25325 2.5552459 1.25325.501096 0 .951911-.175384 1.302679-.526321l3.882809-3.885025c2.455027 1.578963 5.285876 2.456221 8.266884 2.531556h.425932c6.838931 0 12.751007-4.336352 15.030651-10.452105 4.88483-1.102751 7.389967-2.681884 7.415023-4.687119zm-34.319935 6.592135 7.71585-7.72011c.47587.877428 1.152349 1.754687 1.978987 2.581835.826637.826978 1.728439 1.503798 2.605185 1.980009l-7.690624 7.66983c-1.828658-1.102751-3.431994-2.656829-4.609398-4.536619zm11.097733-6.542025c-2.254588-2.255782-2.705575-4.586899-2.029266-5.238494l7.866007-7.870439c.02506.125443.07517.250718.100216.375991.425932 1.40375 1.377843 2.882494 2.630412 4.160798 1.453006 1.45386 3.081226 2.406283 4.534234 2.75722l-7.840954 7.845214c-.676309.67682-2.981008.225663-5.235596-2.03029zm9.81994-15.3146069c1.077185.3258829 2.304699 1.1279769 3.331775 2.1555639 1.027076 1.027757 1.828658 2.255953 2.15437 3.333649.275603.852203.225493 1.579133-.100215 1.905016-.325543.325712-1.052131.375992-1.903823.100216-1.077189-.32588-2.304702-1.127974-3.331778-2.155561-1.027075-1.027756-1.828828-2.255782-2.15437-3.333649-.275603-.852203-.225493-1.579133.100216-1.904846.200268-.200608.500925-.2757724.876746-.2757724.300659 0 .651255.050109 1.027076.1753835zm-8.692645.2507179c1.15235.02506 2.25459.200439 3.331775.501267l-7.916118 7.920549c-.826808.827149-1.05213 2.080399-.726589 3.458923l-7.891062 7.895324c-.851692-1.904845-1.302678-3.985244-1.252568-6.090698.225493-7.744995 6.688604-13.9110281 14.454562-13.685365zm-21.1682213 14.462404c0-.551376 1.3527885-1.629242 4.9100556-2.55661-.075159.57643-.1252736 1.153031-.1503291 1.754516-.025057 1.203141.07517 2.381227.3006582 3.534088-4.1084735-1.127807-5.0603847-2.330947-5.0603847-2.731994zm6.9140973 15.565154c-.175384 0-.6262-.150328-1.127295-.676649-.5261508-.526321-.6763086-1.002703-.7013631-1.203141l3.6073771-3.609422c.57609.676819 1.202288 1.278305 1.853713 1.829851l-3.632432 3.634306zm27.982098-15.565154c-.200438 7.744995-6.613609 13.936082-14.379398 13.735474-1.778548-.05011-3.507157-.451157-5.085268-1.102922l7.840953-7.845214c.400706.100216.776527.125273 1.127295.125273.901801 0 1.703384-.275602 2.279644-.877257l7.790843-7.795105c.300658 1.228196.450816 2.481446.400877 3.759751zm1.603166 3.057877c.200438-.977478.350766-1.980181.375822-3.007767 0-.701875 0-1.403579-.07517-2.0804.651254.20061 1.252568.401048 1.803603.626711 2.15437.852203 2.705575 1.629073 2.705575 1.954954 0 .551376-1.327733 1.604188-4.784781 2.531556z" fill="#fff" stroke-width="1.70441"/></svg>