<svg viewBox="0 0 200 195.97" xmlns="http://www.w3.org/2000/svg" xmlns:xlink="http://www.w3.org/1999/xlink"><linearGradient id="a" gradientTransform="matrix(1 0 0 -1 262 -1479.78)" gradientUnits="userSpaceOnUse" x1="-261.98" x2="-62.02" y1="-1617.73" y2="-1617.73"><stop offset="0" stop-color="#4b5faa"/><stop offset="1" stop-color="#80d2e0"/></linearGradient><linearGradient id="b" gradientTransform="translate(262 288.5)" gradientUnits="userSpaceOnUse" x1="-226.9" x2="-167.28" y1="-193.28" y2="-193.28"><stop offset="0" stop-color="#e9e3e9"/><stop offset=".36" stop-color="#e7e0e7"/><stop offset=".67" stop-color="#e1d5e1"/><stop offset=".96" stop-color="#d7c3d8"/><stop offset="1" stop-color="#d5c0d6"/></linearGradient><linearGradient id="c" x1="-196.99" x2="-167.25" xlink:href="#b" y1="-170.29" y2="-170.29"/><linearGradient id="d" gradientTransform="translate(1205.75 288.5)" gradientUnits="userSpaceOnUse" x1="-1136.57" x2="-1136.57" y1="-257.44" y2="-265.72"><stop offset="0" stop-color="#d6c0d4"/><stop offset=".33" stop-color="#d3bed2"/><stop offset=".55" stop-color="#cbb6cd"/><stop offset=".73" stop-color="#bca8c5"/><stop offset=".89" stop-color="#a795b9"/><stop offset="1" stop-color="#9585ae"/></linearGradient><linearGradient id="e" gradientTransform="matrix(-1 -0 -0 1 7322.55 288.5)" gradientUnits="userSpaceOnUse" x1="7255.86" x2="7258.09" y1="-267.69" y2="-267.69"><stop offset="0" stop-color="#d6c0d4"/><stop offset=".23" stop-color="#d1bbd1"/><stop offset=".5" stop-color="#c3aec9"/><stop offset=".79" stop-color="#ab99bb"/><stop offset="1" stop-color="#9585ae"/></linearGradient><linearGradient id="f" x1="-193.29" x2="-133.68" xlink:href="#b" y1="-195.52" y2="-195.52"/><linearGradient id="g" x1="-163.52" x2="-133.71" xlink:href="#b" y1="-161.82" y2="-161.82"/><linearGradient id="h" x1="-159.64" x2="-100.02" xlink:href="#b" y1="-161.44" y2="-161.44"/><linearGradient id="i" x1="-129.8" x2="-99.99" xlink:href="#b" y1="-134.55" y2="-134.55"/><linearGradient id="j" x1="-1100.82" x2="-1100.82" xlink:href="#d" y1="-260.98" y2="-269.26"/><linearGradient id="k" x1="7220.37" x2="7221.48" xlink:href="#e" y1="-270.81" y2="-270.81"/><linearGradient id="l" gradientTransform="matrix(-1 -0 -0 1 241.7 288.5)" gradientUnits="userSpaceOnUse" x1="105.16" x2="119.93" y1="-223.04" y2="-223.04"><stop offset="0" stop-color="#ff797d"/><stop offset=".64" stop-color="#ff897d"/><stop offset="1" stop-color="#ff947d"/></linearGradient><linearGradient id="m" x1="96.42" x2="112.19" xlink:href="#l" y1="-218.4" y2="-218.4"/><linearGradient id="n" x1="89.09" x2="101.08" xlink:href="#l" y1="-217.93" y2="-217.93"/><linearGradient id="o" gradientTransform="matrix(-1 -0 -0 1 7363.52 288.5)" x1="7228.43" x2="7230.66" xlink:href="#e" y1="-237.9" y2="-237.9"/><path d="m170.45 96.89c39.2 22.6 39.4 59.2.4 82.1-38.8 22.6-102.1 22.6-141.3 0-39.2-22.6-39.4-59.2-.4-82.1 38.8-22.6 102.2-22.6 141.3 0z" fill="url(#a)"/><path d="m94.72 95.27-29.71 17.24-29.91-17.24 29.71-17.34z" fill="url(#b)"/><path d="m94.72 95.27v28.64l-29.71 17.24v-28.64z" fill="url(#c)"/><path d="m65.01 112.51v28.64l-29.91-17.24v-28.64z" fill="#2a3363"/><path d="m45.04 109.88v-2.05l7.99 4.68v1.85l-3.31 1.75c1.27.78 2.24 1.75 2.92 2.92s1.07 2.24 1.07 3.31c0 1.36-.49 2.24-1.46 2.44-.97.29-2.14-.1-3.7-.88-1.46-.88-2.92-2.14-4.38-3.99l.97-1.27c1.17 1.46 2.34 2.53 3.51 3.21.78.49 1.46.68 1.95.58s.78-.49.78-1.17-.29-1.46-.88-2.14c-.58-.78-1.36-1.46-2.44-2.05-.49-.29-.97-.49-1.46-.68v-1.75l3.21-1.85-4.77-2.92z" fill="#fff"/><path d="m71.92 12.08c1.27-.29 2.24.58 2.44 1.66.1.39 0 .88-.1 1.27-.29 1.75-.68 3.51-1.07 5.16" fill="#ff907e"/><path d="m73.97 90.79c6.04 3.51 6.04 9.16.1 12.66-6.04 3.51-15.78 3.51-21.82 0s-6.04-9.16-.1-12.66c6.04-3.41 15.78-3.41 21.82 0z" fill="#2a3363" opacity=".1"/><path d="m63.84 99.46 4.68-5.36c.88-.97 2.34-1.07 3.31-.19s1.07 2.34.19 3.31c-.1.19-.29.29-.49.39l-5.84 3.99c-.68.49-1.56.29-2.05-.39-.29-.49-.19-1.27.19-1.75z" fill="#ece8eb"/><path d="m55.65 94.78 5.65-4.09c1.07-.78 2.53-.49 3.31.58s.49 2.53-.58 3.31c-.19.1-.39.19-.58.29l-6.53 2.44c-.78.29-1.56-.1-1.85-.88-.19-.58 0-1.27.58-1.66z" fill="#ece8eb"/><path d="m73.09 74.91-.97 19.09c0 .88-.78 1.46-1.66 1.46-.78 0-1.46-.68-1.46-1.46l-.88-19.09c-.1-1.36.97-2.53 2.34-2.63s2.53.97 2.63 2.34z" fill="#d6c0d4"/><path d="m65.2 71.79-.97 19.09c0 .88-.78 1.46-1.66 1.46-.78 0-1.46-.68-1.46-1.46l-.88-19.09c-.1-1.36.97-2.53 2.34-2.63 1.36-.1 2.53.97 2.63 2.34q.1.19 0 .29z" fill="#d6c0d4"/><path d="m61.01 29.61c.88.88.78 2.34-.1 3.12l-2.82 2.63.68 10.52c0 .68-.49 1.27-1.17 1.46-.78.1-1.46-.39-1.56-1.17l-1.85-11.4-.1-.78.68-.78 3.02-3.6q.1-.1.19-.19c.78-.78 2.24-.68 3.02.19z" fill="#d6c0d4"/><path d="m55.85 31.46 3.8 3.21 10.03-9.35-2.53-.58c-2.82-.68-5.84.29-7.7 2.53z" fill="#4e60ab"/><path d="m68.51 53.28-3.02 19.09v-.29l-.68 4.68c-.19 1.27-1.27 2.05-2.53 1.85-1.07-.19-1.75-.97-1.95-1.95l-.58-4.77v-.29l1.46-19.29c.19-1.95 1.85-3.51 3.9-3.31 1.95.19 3.51 1.85 3.31 3.9.19.19.19.29.1.39z" fill="#80d1e0"/><path d="m75.33 56.21-1.17 11.98-.58 6.04-.1.78-.1.78-.19 1.36-.49 3.02c-.19 1.27-1.36 2.05-2.53 1.85-.97-.19-1.75-.97-1.85-1.95l-.39-3.02-.19-1.56c0-.29-.1-.49-.1-.78v-.78l.19-6.04.39-12.18c.1-1.95 1.75-3.6 3.7-3.51 1.95.1 3.6 1.75 3.51 3.7-.1.1-.1.19-.1.29z" fill="#80d1e0"/><path d="m75.82 52.6-1.17 9.16-13.74-1.95v-8.09z" fill="#80d1e0"/><path d="m61.11 51.92 8.09 4.09c3.12 1.56 6.82-.68 6.82-4.19v-16.95c0-3.6 2.44-5.26-.78-6.92l-8.18-2.92c-2.82-1.46-5.84 1.46-5.84 4.58l-.1 22.31z" fill="#4e60ab"/><path d="m81.37 37.31 1.85 3.6.39.68-.1.49-1.66 11.4c-.1.78-.78 1.27-1.56 1.17-.68-.1-1.17-.68-1.17-1.36l.39-11.59.29 1.17-2.24-3.31c-.68-.97-.39-2.44.58-3.12s2.44-.39 3.12.58c0 .1 0 .19.1.29z" fill="#d6c0d4"/><path d="m75.25 29.62h4.97v11.88h-4.97z" fill="#4e60ab" transform="matrix(.85599651 -.5169816 .5169816 .85599651 -7.19 45.31)"/><circle cx="57.41" cy="46.07" fill="#d6c0d4" r="2.73"/><path d="m72.12 23.96v-1.17h-5.65v2.82l-.19 1.46c-.1.58 0 1.27.29 1.85l.88 2.14 2.73-1.36c1.27-.58 2.05-1.85 1.95-3.21v-2.53z" fill="url(#d)"/><path d="m68.22 25.42c2.53 0 4.48-2.05 4.48-4.48v-3.8c0-2.53-2.05-4.48-4.48-4.48-2.53 0-4.48 2.05-4.48 4.48v3.8c0 2.44 1.95 4.48 4.48 4.48z" fill="#d6c0d4"/><path d="m72.41 20.26h.78c.58 0 1.17-.49 1.17-1.17 0-.58-.49-1.17-1.17-1.17h-.78z" fill="#d6c0d4"/><path d="m64.81 21.62 1.85-.49v-1.17h-.97l-1.17 1.17c-.19.29 0 .58.29.49z" fill="url(#e)"/><g fill="#2a3363"><circle cx="68.22" cy="19.48" r=".39"/><circle cx="65.1" cy="19.09" r=".39"/><path d="m67.15 18.21c.29-.29.58-.49.97-.58s.78-.1 1.17-.1c.39.1.78.19 1.07.39.29.19.58.39.78.68-.39 0-.68 0-1.07-.1-.29-.1-.58-.1-.88-.19-.29 0-.58-.1-.88-.1-.39.1-.78.1-1.17 0z"/><path d="m66.17 18.12c-.29-.1-.49-.1-.68-.19s-.39-.1-.58-.19-.39-.1-.58-.19-.39-.19-.68-.29c.39-.39.97-.49 1.46-.29.29.1.49.19.68.39.19.29.29.49.39.78z"/></g><circle cx="80.49" cy="53.38" fill="#d6c0d4" r="2.73"/><path d="m67.05 23.67h-.39l-.29-.1c-.1 0-.1-.1-.1-.19s.1-.1.19-.1l.29.1c.58.1 1.07-.1 1.46-.49q.1-.1.19 0t0 .19c-.39.39-.88.58-1.36.58z" fill="#2a3363"/><path d="m73.19 13.44c-1.36-2.53-3.99-3.12-5.84-2.92-1.66.19-4.87-.88-4.87-.88.19.68-.68 2.34 1.07 4.29.39.49 1.07.68 1.75.88 1.07.29 4.58.78 5.75.78l.68 5.16.68-.19.78-4.38v-2.73z" fill="#ff907e"/><path d="m128.32 93.03-29.71 17.24-29.9-17.24 29.71-17.34z" fill="url(#f)"/><path d="m128.32 93.03-.09 50.07-29.71 17.24.09-50.07z" fill="url(#g)"/><path d="m98.61 110.27-.09 50.07-29.91-17.24.1-50.07z" fill="#2a3363"/><path d="m76.5 116.31 8.47 4.87v23.18l-3.7-2.14v-19.68l-4.68-2.73-.1-3.51z" fill="#fff"/><path d="m161.98 127.06-29.71 17.24-29.91-17.24 29.71-17.24z" fill="url(#h)"/><path d="m161.98 127.06-.1 36.53-29.71 17.24.1-36.53z" fill="url(#i)"/><path d="m132.27 144.3-.1 36.53-29.91-17.24.1-36.53z" fill="#2a3363"/><path d="m117.71 153.33c.49-.39.68-.88.68-1.46 0-.68-.19-1.36-.68-2.05-.49-.68-1.07-1.27-1.85-1.75-1.27-.78-2.34-.68-3.21.1l-2.14-2.53c.68-.68 1.46-.97 2.34-1.07.88 0 1.95.29 3.21 1.07 1.27.78 2.53 1.85 3.51 3.31s1.46 2.82 1.46 4.29c0 .78-.19 1.46-.68 1.95-.39.49-1.17.97-2.34 1.56l-3.7 1.66 7.21 4.19v2.53l-10.81-6.23v-2.24l4.77-2.05c.97-.58 1.75-.97 2.24-1.27z" fill="#fff"/><circle cx="101.54" cy="9.45" fill="#2a3363" r="3.51"/><ellipse cx="106.02" cy="13.25" fill="#2a3363" rx="5.36" ry="6.82"/><circle cx="108.94" cy="18.41" fill="#2a3363" r="2.34"/><path d="m110.5 85.62c6.04 3.51 6.04 9.16.1 12.66-5.94 3.51-15.78 3.51-21.82 0s-6.04-9.16-.1-12.66c6.04-3.51 15.78-3.51 21.82 0z" fill="#2a3363" opacity=".1"/><path d="m99.68 93.22 4.68-5.36c.88-.97 2.34-1.07 3.31-.19s1.07 2.34.19 3.31c-.1.19-.29.29-.49.39l-5.84 3.99c-.68.49-1.56.29-2.05-.39-.29-.58-.29-1.27.19-1.75z" fill="#fff"/><path d="m90.92 88.45 6.23-4.09c1.07-.68 2.53-.39 3.31.68.68 1.07.39 2.53-.68 3.31-.19.1-.39.19-.49.29l-7.01 2.44c-.78.29-1.56-.1-1.85-.88-.39-.68-.1-1.36.49-1.75z" fill="#fff"/><path d="m100.46 26.3c.88-.88.88-2.24 0-3.12l-8.09-8.09-3.6-11.4c-.19-.68-.88-1.07-1.56-.97-.78.19-.49 1.85-.39 2.63l2.05 11.2.1.39.39.39 7.89 8.86.1.1c.78.88 2.24.88 3.12 0z" fill="#ee55ea"/><path d="m95.59 68.28 1.46-19.39c.19-2.05 1.95-3.6 3.99-3.41s3.6 1.95 3.41 3.99v.29l-3.02 19.09-.68 14.71c-.1 1.27-1.17 2.24-2.44 2.24-1.17-.1-2.14-1.07-2.24-2.24l-.49-15.1v-.19z" fill="#2a3363"/><path d="m111.28 52.7-1.75 16.95c-.1.68-.19 1.46-.19 2.14l-.1 2.14-.19 4.29-.39 8.47c-.1 1.27-1.17 2.24-2.44 2.24-1.17-.1-2.14-1.07-2.24-2.24l-.39-8.57-.19-4.29-.1-2.14v-2.14l.39-17.14c0-2.05 1.75-3.7 3.8-3.7s3.7 1.75 3.7 3.8c.1 0 .1.1.1.19z" fill="#2a3363"/><path d="m111.57 49.09-1.17 9.06-13.73-1.85v-8.08z" fill="#2a3363"/><path d="m97.93 36.24-1.07-7.31c0-2.34-.1-4.58 2.44-6.14 1.66-.97 3.8-1.17 5.65-.49l6.14 2.14c3.21 1.66.78 3.21.78 6.92l-1.36 7.7 1.36 9.35c0 3.51-3.7 5.75-6.82 4.19l-8.47-4.48 1.36-11.88z" fill="#ee55ea"/><path d="m109.82 25.33c.97-.58 2.24-.29 2.82.68 0 0 0 .1.1.1l6.43 11.49.49.88-.39.78-4.38 8.77c-.29.58-1.07.88-1.75.58-.58-.29-.88-.97-.58-1.66l3.31-8.28-6.62-10.42c-.68-.97-.39-2.24.58-2.92z" fill="#ee55ea"/><circle cx="87.8" cy="2.73" fill="#d6c0d4" r="2.53"/><path d="m107.87 20.46v-1.17h-5.65v2.82l-.19 1.46c-.1.58 0 1.27.29 1.85l.88 2.14 2.73-1.36c1.27-.58 2.05-1.85 1.95-3.21v-2.53z" fill="url(#j)"/><path d="m103.97 21.92c2.53 0 4.48-2.05 4.48-4.48v-3.8c0-2.53-2.05-4.48-4.48-4.48-2.53 0-4.48 2.05-4.48 4.48l.29 3.8c0 2.44 1.66 4.48 4.19 4.48z" fill="#d6c0d4"/><path d="m108.35 16.56h.68c.49 0 .97-.39.97-.97 0-.49-.39-.97-.97-.97h-.68v1.95z" fill="#d6c0d4"/><path d="m101.24 18.51.97-.19v-1.46h-.49l-.58 1.46c-.1.1 0 .29.1.19z" fill="url(#k)"/><circle cx="103.97" cy="15.97" fill="#2a3363" r=".39"/><circle cx="100.95" cy="15.49" fill="#2a3363" r=".39"/><path d="m103.19 14.71c.39-.39.97-.49 1.46-.39.29 0 .49.19.78.29.19.1.39.29.58.49-.29 0-.49 0-.78-.1-.19-.1-.39-.1-.68-.1-.19 0-.39-.1-.68-.1-.1-.1-.39-.1-.68-.1z" fill="#2a3363"/><path d="m101.54 14.42c-.19 0-.29-.1-.49-.1-.1 0-.29-.1-.39-.1s-.29-.1-.39-.1c-.1-.1-.29-.1-.49-.19.29-.29.68-.29.97-.19.19.1.29.19.49.29.19 0 .29.19.29.39z" fill="#2a3363"/><circle cx="111.57" cy="48.61" fill="#d6c0d4" r="2.53"/><path d="m102.8 20.16h-.39l-.29-.1c-.1 0-.1-.1-.1-.19s.1-.1.19-.1l.29.1c.58.1 1.07-.1 1.46-.49q.1-.1.19 0t0 .19c-.29.39-.78.58-1.36.58z" fill="#2a3363"/><path d="m108.35 11.1c-.29-1.27-1.27-2.14-2.34-2.63s-4.29 3.9-2.82 3.9c1.27 0 2.44-.78 3.41.39 1.07 1.27 1.27 1.85 1.07 3.6 1.07-.97.97-2.92 2.05-4.68 0-.1.1-.19.1-.29s0-.1-.1-.19c-.29-.39-.49-.78-.78-1.17-.39-.49.1-1.07-.29-1.46-1.07-.97-3.6-1.95-4.77-.97" fill="#2a3363"/><circle cx="103" cy="9.93" fill="#2a3363" r="2.44"/><path d="m142.55 120.01c6.04 3.51 6.04 9.16.1 12.66-6.04 3.51-15.78 3.51-21.82 0s-6.04-9.16-.1-12.66c6.04-3.51 15.78-3.51 21.82 0z" fill="#2a3363" opacity=".1"/><path d="m130.56 55.13-4.48 6.04-.29.39-.1.19-3.99 12.57c-.29.78.19 1.66.97 1.95.78.19 1.56-.19 1.85-.88l4.97-12.27-.29.58 6.62-7.6c.88-1.07.68-.29-.39-1.17-.88-.88-4.77.19-4.87.19z" fill="url(#l)"/><circle cx="122.67" cy="77.05" fill="#d6c0d4" r="2.73"/><path d="m132.32 130.63 3.6-6.23.19-3.99c.1-1.27 1.17-2.34 2.44-2.24s2.34 1.17 2.24 2.44v.29l-.68 4.29v.29c0 .29-.19.49-.29.68l-4.97 6.14c-.49.58-1.46.68-2.05.19-.68-.39-.88-1.17-.49-1.85z" fill="#fff"/><path d="m123.26 124.2 4.68-3.31-.39-4.19c-.1-1.27.78-2.44 2.14-2.53 1.27-.1 2.44.78 2.53 2.14v.29l-.19 5.26v.29c0 .68-.39 1.27-.97 1.56l-6.43 3.12c-.68.39-1.56.1-1.95-.68-.19-.78 0-1.56.58-1.95z" fill="#fff"/><path d="m137.19 83.19-3.9 20.46v-.39l-.97 12.18c-.1 1.27-1.27 2.34-2.53 2.14-1.27-.1-2.14-1.07-2.24-2.34l-.29-12.27v-.39l2.24-20.75c.19-2.14 2.14-3.7 4.29-3.41s3.7 2.14 3.41 4.29c.1.29 0 .39 0 .49z" fill="#2a3363"/><path d="m144.01 85.92-1.56 16.75-1.66 16.75c-.1 1.27-1.27 2.24-2.63 2.14-1.27-.1-2.14-1.17-2.14-2.34l-.1-8.47-.1-4.19v-2.14l.1-2.14.49-16.85c.1-2.14 1.85-3.8 3.99-3.8 2.14.1 3.8 1.85 3.8 3.99-.19.19-.19.29-.19.29z" fill="#2a3363"/><path d="m144.2 82.41-1.17 9.06-13.73-1.85v-8.09z" fill="#2a3363"/><path d="m135.63 54.26 7.99 3.51c3.21 1.66.78 3.21.78 6.92v17.05c0 3.51-3.7 5.75-6.82 4.19l-8.09-4.09v-23.87c0-3.12 3.31-5.16 6.14-3.7z" fill="url(#m)"/><path d="m141.77 58.15c1.17-.78 2.73-.39 3.51.68 0 .1.1.1.1.19l4.77 8.86.19.39v.29l2.24 13.05c.1.88-.39 1.66-1.27 1.75-.78.1-1.56-.39-1.75-1.17l-3.12-12.37-5.36-8.18c-.78-1.27-.49-2.82.68-3.51z" fill="url(#n)"/><path d="m136.6 55.13c2.53 0 4.48-2.05 4.48-4.48v-3.8c0-2.53-2.05-4.48-4.48-4.48-2.53 0-4.48 2.05-4.48 4.48v3.8c0 2.53 1.95 4.48 4.48 4.48z" fill="#d6c0d4"/><path d="m137.58 58.25h.29c1.46 0 2.73-1.17 2.73-2.73v-5.55h-5.65v5.55c-.1 1.46 1.17 2.73 2.63 2.73z" fill="#d6c0d4"/><path d="m134.56 51.34c-.1.39-.39.58-.78.58-.29.1-.68 0-.97-.1-.19-.1-.29-.19-.39-.29q-.1-.1-.19-.19c0-.1-.1-.1-.1-.19-.1-.19-.19-.49-.19-.88.39-.1.68 0 .88.1q.1 0 .19.1h.1c.1 0 .19.1.19.1.1.1.29.19.39.29.39.1.58.29.88.49z" fill="#2a3363"/><path d="m133.88 59.23 1.75 3.21 3.99-5.26z" fill="#d6c0d4"/><path d="m132.12 51.14.29 3.12-.39.88c-.68 1.46-.39 3.12.58 4.29.68.88 1.75 1.36 2.92 1.46h.49c1.66.1 3.12-.78 3.8-2.24l.78-1.56c.29-.49.39-1.07.39-1.66l.29-5.26-3.12 1.75c-2.14 1.07-4.48.78-6.04-.78z" fill="#2a3363"/><path d="m140.79 49.97h.78c.58 0 1.17-.49 1.17-1.17 0-.58-.49-1.17-1.17-1.17h-.78z" fill="#d6c0d4"/><path d="m134.46 51.14c.58 0 1.07 0 1.56-.1.49 0 .88-.1 1.36-.1.19 0 .39-.1.68-.1.1 0 .19 0 .29-.1.1 0 .29-.1.39-.1.49-.1 1.07-.1 1.56-.1-.39.49-.78.78-1.17 1.07-.1.1-.19.1-.29.19-.1.1-.29.1-.39.19-.1.1-.29.1-.39.1s-.29.1-.39.1c-.58.1-1.17 0-1.66-.19-.68-.1-1.17-.39-1.56-.88z" fill="#2a3363"/><path d="m133.19 51.43 1.85-.49v-1.17h-.97l-1.17 1.17c-.19.19 0 .49.29.49z" fill="url(#o)"/><circle cx="136.6" cy="49.19" fill="#2a3363" r=".39"/><circle cx="133.58" cy="48.8" fill="#2a3363" r=".39"/><path d="m136.12 47.93c.1-.19.1-.29.19-.39.1-.1.19-.19.29-.29l.1-.1h.19c.39.1.78.19 1.07.39.19.1.29.19.49.29s.29.29.49.49c-.19.1-.39.1-.58.1s-.39 0-.58-.1c-.39-.1-.68-.19-1.07-.39h.29c-.1 0-.29.1-.39.1-.19-.1-.29 0-.49-.1z" fill="#2a3363"/><path d="m134.27 47.73c-.19-.1-.39-.19-.49-.29-.19-.1-.29-.19-.49-.29l.29.1c-.19.1-.39.1-.58.1-.1 0-.19 0-.29-.1s-.19-.1-.29-.19c.1-.1.19-.19.29-.29s.19-.1.29-.19c.19-.1.39-.1.58 0l.29.1c.1.19.19.29.29.49 0 .19.1.39.1.58z" fill="#2a3363"/><circle cx="151.41" cy="84.07" fill="#d6c0d4" r="2.73"/><path d="m35.1 123.91-32.73 18.9c.97 9.16 5.75 18.22 14.32 26.2l48.32-27.96z" fill="#2a3363" opacity=".2"/><path d="m68.61 143.1-49.1 28.44c3.31 2.73 7.11 5.36 11.4 7.89 6.04 3.51 12.57 6.33 19.58 8.77l48.02-27.86-29.91-17.24z" fill="#2a3363" opacity=".2"/><path d="m102.22 162.19-46.37 27.67c15.29 4.48 32.05 6.53 48.71 6.04l27.57-16.46-29.91-17.24z" fill="#2a3363" opacity=".2"/></svg>