<svg viewBox="0 0 200 195.97" xmlns="http://www.w3.org/2000/svg" xmlns:xlink="http://www.w3.org/1999/xlink"><linearGradient id="a" gradientTransform="matrix(1 0 0 -1 262 -123.99)" gradientUnits="userSpaceOnUse" x1="-262" x2="-71" y1="-264.55" y2="-264.55"><stop offset="0" stop-color="#4b5faa"/><stop offset="1" stop-color="#80d2e0"/></linearGradient><linearGradient id="b" gradientUnits="userSpaceOnUse" x1="70.71" x2="122.11" y1="122.79" y2="122.79"><stop offset="0" stop-color="#ff947d"/><stop offset=".51" stop-color="#ff887d"/><stop offset="1" stop-color="#ff797d"/></linearGradient><linearGradient id="c" x1="53.54" x2="139.28" xlink:href="#b" y1="125.18" y2="125.18"/><linearGradient id="d" gradientTransform="matrix(.98820167 .15315831 -.15315831 .98820167 -176.52 -142.3)" gradientUnits="userSpaceOnUse" x1="285.07" x2="332.53" y1="202.05" y2="202.05"><stop offset="0" stop-color="#2a3363"/><stop offset=".22" stop-color="#2c3567"/><stop offset=".47" stop-color="#333e74"/><stop offset=".73" stop-color="#3e4c8b"/><stop offset="1" stop-color="#4e60aa"/></linearGradient><linearGradient id="e" x1="284.99" x2="332.53" xlink:href="#d" y1="198.81" y2="198.81"/><linearGradient id="f" x1="276.47" x2="341.16" xlink:href="#d" y1="188.53" y2="188.53"/><linearGradient id="g" x1="276.36" x2="341.16" xlink:href="#d" y1="184.11" y2="184.11"/><linearGradient id="h" gradientTransform="matrix(.98820167 .15315831 -.15315831 .98820167 -176.52 -142.3)" gradientUnits="userSpaceOnUse" x1="281.61" x2="335.91" y1="150.58" y2="150.58"><stop offset="0" stop-color="#aba0e0"/><stop offset=".01" stop-color="#afa3de"/><stop offset=".08" stop-color="#c0b0da"/><stop offset=".16" stop-color="#ccb9d8"/><stop offset=".27" stop-color="#d3bed6"/><stop offset=".58" stop-color="#d5c0d6"/></linearGradient><linearGradient id="i" gradientUnits="userSpaceOnUse" x1="117.42" x2="162.91" y1="58.83" y2="58.83"><stop offset="0" stop-color="#aba0e0"/><stop offset=".15" stop-color="#b9abdc"/><stop offset=".37" stop-color="#c9b7d8"/><stop offset=".63" stop-color="#d2bdd6"/><stop offset="1" stop-color="#d5c0d6"/></linearGradient><linearGradient id="j" x1="276.47" x2="341.16" xlink:href="#d" y1="131.5" y2="131.5"/><linearGradient id="k" x1="276.36" x2="341.16" xlink:href="#d" y1="127.08" y2="127.08"/><radialGradient id="l" cx="109.96" cy="25.26" gradientTransform="matrix(.98768834 .15643447 -.07821723 .49384417 3.33 -4.42)" gradientUnits="userSpaceOnUse" r="26.39"><stop offset=".42" stop-color="#d5c0d6"/><stop offset=".55" stop-color="#d9c6da"/><stop offset=".74" stop-color="#e6dae7"/><stop offset=".97" stop-color="#fbf9fb"/><stop offset="1" stop-color="#fff"/></radialGradient><linearGradient id="m" x1="285.07" x2="332.53" xlink:href="#d" y1="117.56" y2="117.56"/><linearGradient id="n" x1="284.99" x2="332.53" xlink:href="#d" y1="114.32" y2="114.32"/><linearGradient id="o" gradientTransform="matrix(.98820167 .15315831 -.15315831 .98820167 -176.52 -142.3)" x1="294.21" x2="323.31" xlink:href="#b" y1="105.07" y2="105.07"/><linearGradient id="p" gradientUnits="userSpaceOnUse" x1="136.41" x2="152.5" y1="96.94" y2="96.94"><stop offset="0" stop-color="#ff797d"/><stop offset=".05" stop-color="#ff7f7d"/><stop offset=".2" stop-color="#ff8b7d"/><stop offset=".41" stop-color="#ff927d"/><stop offset="1" stop-color="#ff947d"/></linearGradient><linearGradient id="q" x1="46.27" x2="59.86" xlink:href="#p" y1="92" y2="92"/><linearGradient id="r" x1="15.97" x2="48.23" xlink:href="#p" y1="105.47" y2="105.47"/><linearGradient id="s" x1="148.57" x2="177.43" xlink:href="#p" y1="123.43" y2="123.43"/><path d="m162.8 101.35c37.45 21.59 37.64 56.55.38 78.43-37.06 21.59-97.53 21.59-134.98 0-37.45-21.59-37.64-56.55-.38-78.43 37.06-21.59 97.63-21.59 134.98 0z" fill="url(#a)"/><path d="m130.56 158.91-73.05-32.56-53.21 30.59c4.47 8.36 12.44 16.22 23.91 22.83 9.97 5.75 21.57 9.95 33.93 12.63l68.43-33.5z" fill="#2a3363" opacity=".26"/><path d="m144.46 140.26v-.39c0-.24 0-.47-.01-.71l-.13-12.33-2.79-4.73-5.13 2.19c-1.73-1.5-3.75-2.93-6.04-4.25-18.72-10.81-48.98-10.81-67.58 0-1.23.72-2.38 1.46-3.45 2.23l-10.44.56s-.36 16.98 0 18.49c0 .03.05.06.11.09.76 6.47 5.43 12.82 13.99 17.77 18.72 10.81 48.98 10.81 67.58 0 9.01-5.24 13.64-12.05 13.88-18.92z" fill="#5b56d6"/><path d="m130.01 105.55c18.69 10.78 18.79 28.23.19 39.15-18.5 10.78-48.69 10.78-67.38 0s-18.79-28.23-.19-39.15c18.5-10.78 48.74-10.78 67.38 0z" fill="#fff"/><path d="m114.11 114c2.26 1.05 4.47 2.41 6.02 4.43 1.65 1.93 2.05 4.95.71 7.19-.13.3-.31.56-.5.82s-.35.54-.56.78c-.44.45-.83.98-1.34 1.36-.48.42-.97.84-1.5 1.18l-.79.54-.83.47c-2.21 1.26-4.6 2.16-7.04 2.85-4.9 1.3-10 1.86-15.08 1.63-2.54-.12-5.08-.44-7.58-.97-2.5-.54-4.98-1.27-7.35-2.35-2.32-1.14-4.62-2.6-6.28-4.84-.44-.53-.75-1.18-1.06-1.82-.23-.68-.49-1.36-.51-2.1-.14-1.45.2-2.96.93-4.15.15-.33.35-.6.56-.88.21-.27.41-.56.64-.8.49-.46.93-.99 1.48-1.36.52-.41 1.04-.82 1.61-1.14l.83-.51.86-.44c2.31-1.16 4.75-1.94 7.22-2.51 4.96-1.07 10.04-1.3 15.04-.9 2.5.16 4.99.53 7.43 1.1s4.84 1.34 7.1 2.43zm-.05.11c-2.26-1.05-4.66-1.79-7.09-2.34-2.43-.54-4.91-.88-7.41-1.02-4.98-.3-10.01.09-14.86 1.26-2.41.62-4.78 1.45-6.97 2.63l-.82.44-.78.51c-.54.32-1.02.71-1.49 1.11-.51.37-.89.86-1.33 1.29-.21.23-.37.49-.56.74s-.37.5-.49.78c-1.29 2.14-.95 4.98.64 6.89 1.49 1.99 3.66 3.35 5.89 4.42 2.26 1.05 4.65 1.8 7.08 2.34 2.43.55 4.91.89 7.4 1.03 4.97.32 10-.07 14.85-1.23 2.41-.62 4.78-1.44 6.98-2.61l.82-.44.78-.51c.54-.32 1.02-.71 1.5-1.11.51-.36.89-.86 1.34-1.29.21-.23.37-.49.56-.74s.37-.5.5-.78c1.3-2.15.97-5.01-.63-6.93-1.49-2-3.67-3.37-5.9-4.45z" fill="url(#b)"/><path d="m96.58 103.62c-4.22.04-8.44.39-12.6 1.13-4.15.76-8.22 1.94-12.09 3.57-1.94.81-3.81 1.76-5.59 2.86-1.78 1.09-3.48 2.3-4.99 3.69-1.51 1.38-2.88 2.93-3.85 4.66-1 1.71-1.56 3.62-1.53 5.5.04 1.88.68 3.71 1.71 5.33 1.03 1.63 2.4 3.07 3.94 4.34 3.08 2.55 6.76 4.39 10.56 5.83 3.8 1.47 7.8 2.42 11.84 3.09 4.05.66 8.16.96 12.27.94 4.11.01 8.22-.28 12.27-.94 4.04-.67 8.05-1.61 11.85-3.07 3.79-1.44 7.51-3.25 10.63-5.75 1.55-1.25 2.97-2.65 4.02-4.27 1.08-1.6 1.76-3.42 1.86-5.29.09-1.87-.42-3.79-1.37-5.52-.94-1.74-2.26-3.32-3.76-4.72-3.01-2.81-6.65-5-10.5-6.65-3.86-1.65-7.93-2.83-12.08-3.6-4.15-.74-8.37-1.09-12.6-1.13zm0-.25c8.46 0 17 1.28 24.89 4.45 3.93 1.59 7.71 3.65 10.91 6.46 1.6 1.4 3.05 3 4.13 4.85 1.09 1.84 1.76 3.96 1.73 6.12-.04 2.16-.75 4.27-1.89 6.08-1.11 1.84-2.6 3.4-4.21 4.79-3.25 2.76-7.05 4.8-10.98 6.39-7.9 3.16-16.45 4.45-24.92 4.48-8.47-.03-17.02-1.32-24.91-4.51-3.93-1.6-7.71-3.67-10.91-6.5-1.6-1.4-3.04-3.01-4.12-4.87-1.08-1.84-1.75-3.97-1.72-6.13.04-2.16.76-4.27 1.9-6.07 1.12-1.83 2.6-3.4 4.22-4.78 3.25-2.76 7.05-4.78 10.98-6.35 7.9-3.13 16.44-4.41 24.89-4.42z" fill="url(#c)"/><path d="m115.71 97.63c8.37 6.73 7.08 15.34-2.87 19.23s-24.8 1.59-33.16-5.14c-8.37-6.73-7.08-15.34 2.87-19.23s24.8-1.59 33.16 5.14z" fill="url(#d)"/><path d="m114.64 101.12 6.39-1.63 1.01 2.53-.95 6.6-7.01 1.34s-39.91-7.32-39.97-8.09 1.41-9.08 1.41-9.08l16.32 1.64 23.3 6.85-.49-.17z" fill="url(#e)"/><path d="m124.33 81.72c11.4 9.17 9.65 20.91-3.91 26.21s-33.8 2.16-45.21-7.01c-11.4-9.17-9.65-20.91 3.91-26.21s33.8-2.17 45.21 7.01z" fill="url(#f)"/><path d="m122.88 86.47 8.71-2.22 1.38 3.45-1.29 9-9.56 1.83s-54.4-9.98-54.48-11.03 1.92-12.37 1.92-12.37l22.24 2.24 31.76 9.33-.67-.23z" fill="url(#g)"/><path d="m125.73 72.01c11.39 9.15 9.64 20.83-3.93 26.21-13.5 5.29-33.69 2.16-45.08-6.99s-9.64-20.83 3.93-26.21c13.5-5.29 33.72-2.16 45.08 6.99z" fill="#ece2ec"/><path d="m136.43 31.63c1.84-21.41-48.29-29.18-53.43-8.75 0-.01 0-.03 0-.04l-8.45 53.51c-.82 14.15 20.27 20.7 32.28 20.28 7.44-.28 16.5-2.08 20.36-9.16.41-.84.7-1.74.85-2.66l8.45-53.51c-.02.11-.05.23-.07.34z" fill="url(#h)"/><path d="m151.01 47c2.37-1.99 5.11-3.46 7.9-4.73 6.89-2.99 13.86-5.81 20.96-8.24 19.89-9.2 29.33 18.64 8.03 23.51-9.32 2.88-18.65 6.31-28.39 7.37-10.06 1.58-16.25-11.29-8.5-17.91z" fill="#7061eb"/><path d="m155.48 44.69c5.25-1.59 11.27 1.53 12.71 6.91 1.73 5.31-1.64 11.13-6.85 12.78 4.62-2.28 7.52-7.49 5.92-12.5-1.38-5.06-6.66-7.93-11.77-7.18z" fill="#5b56d6"/><path d="m121.65 61.12c2.39-1.1 4.82-2.12 7.25-3.11s4.88-1.94 7.33-2.87 15.41-6.51 17.89-7.36c3.47-1.19 7.24.66 8.43 4.12 1.19 3.47-.66 7.24-4.12 8.43h-.02c-2.48.85-15.98 4.85-18.49 5.62-2.51.76-5.03 1.51-7.56 2.21s-5.07 1.38-7.64 1.97-5.14-1.01-5.73-3.59c-.52-2.25.64-4.49 2.66-5.41z" fill="url(#i)"/><path d="m133.36 51.11c-3.23 10.54-18.73 11.92-28.01 10.62-10.07-1.06-26.65-8.43-25.29-19.84l-4.2 26.1c-.63 3.99 1.38 8.4 6.18 12.26 10.94 8.57 31.47 11.47 43.09 2.92 2.08-1.63 3.65-3.9 4.18-6.5.04-.19 4.2-26.11 4.24-26.33-.04.26-.12.52-.19.77z" fill="#7061eb"/><path d="m133.07 25.36c11.4 9.17 9.65 20.91-3.91 26.21s-33.8 2.16-45.21-7.01c-11.4-9.17-9.65-20.91 3.91-26.21s33.8-2.17 45.21 7.01z" fill="url(#j)"/><path d="m131.61 30.11 8.71-2.22 1.38 3.45-1.29 9-9.56 1.83s-54.4-9.98-54.48-11.03 1.92-12.37 1.92-12.37l22.24 2.24 31.76 9.33-.67-.23z" fill="url(#k)"/><path d="m134.46 15.65c11.39 9.15 9.64 20.83-3.93 26.21-13.5 5.29-33.69 2.16-45.08-6.99s-9.64-20.83 3.93-26.21c13.5-5.29 33.72-2.16 45.08 6.99z" fill="url(#l)"/><path d="m128.65 14.14c8.37 6.73 7.08 15.34-2.87 19.23s-24.8 1.59-33.16-5.14c-8.37-6.73-7.08-15.34 2.87-19.23s24.8-1.59 33.16 5.14z" fill="url(#m)"/><path d="m127.58 17.63 6.39-1.63 1.01 2.53-.95 6.6-7.01 1.34s-39.91-7.32-39.97-8.09 1.41-9.08 1.41-9.08l16.32 1.64 23.3 6.85-.49-.17z" fill="url(#n)"/><path d="m129.67 7.01c8.35 6.71 7.07 15.28-2.88 19.23-9.9 3.88-24.71 1.59-33.07-5.13-8.35-6.71-7.07-15.28 2.88-19.23 9.9-3.88 24.74-1.58 33.07 5.13z" fill="#ece2ec"/><path d="m123.55 4.5c5.13 4.12 4.35 9.39-1.77 11.81-6.08 2.39-15.19.97-20.32-3.15s-4.35-9.39 1.77-11.81c6.08-2.39 15.2-.97 20.32 3.15z" fill="url(#o)"/><path d="m119.71 3.13c2.99 2.4 2.53 5.48-1.03 6.89-3.55 1.39-8.86.57-11.85-1.84-2.99-2.4-2.53-5.48 1.03-6.89 3.55-1.39 8.86-.57 11.85 1.84z" fill="none" stroke="#ece2ec" stroke-miterlimit="10" stroke-width=".82"/><path d="m136.98 100.71 13.48-11.19-10.53 14.01c-.68.91-1.97 1.09-2.88.41s-1.09-1.97-.41-2.88c.1-.13.21-.25.33-.35z" fill="url(#p)"/><path d="m56.07 99.66-7.76-16.5 11.24 14.35c.7.89.54 2.19-.35 2.89s-2.19.54-2.89-.35c-.09-.12-.18-.26-.24-.39z" fill="url(#q)"/><path d="m45.28 113.2-27.27-15.74 29.08 12.08c1.04.43 1.54 1.63 1.11 2.68-.43 1.04-1.63 1.54-2.68 1.11-.08-.03-.17-.08-.24-.12z" fill="url(#r)"/><path d="m150.16 123.22 25.23-3.66-24.32 7.64c-1.08.34-2.23-.26-2.57-1.34s.26-2.23 1.34-2.57c.1-.03.22-.06.32-.07z" fill="url(#s)"/><path d="m58.9 64.51-.95 1.34c-.72 1.02-2.12 1.57-4.01 1.41-3.81-.33-8.22-3.43-9.83-6.92-.81-1.76-.77-3.28-.03-4.31l.95-1.34c-.73 1.04-.78 2.56.03 4.31 1.62 3.49 6.02 6.59 9.83 6.92 1.89.16 3.29-.38 4.01-1.41z" fill="#ef9c40"/><path d="m58.87 60.2c1.62 3.49-.16 6.05-3.98 5.72-3.81-.33-8.22-3.43-9.83-6.92-1.62-3.49.16-6.05 3.98-5.72s8.22 3.43 9.83 6.92z" fill="#eeba4e"/><g fill="#ef9c40"><path d="m57.22 59.93c1.21 2.62-.12 4.54-2.98 4.29s-6.16-2.57-7.38-5.19.12-4.54 2.98-4.29 6.16 2.57 7.38 5.19zm-6.28 1.14c.5.31 1.19.29 1.46.13.17-.1.26-.27.26-.49.92.18 1.96-.04 2.47-.46.16-.13.26-.27.32-.47-.27-.24-.5-.41-.8-.58-.96-.55-2.29-.97-3.12-.94-.21-.24-.48-.43-.76-.57-.45-.23-1.21-.37-1.46-.12.27.27.56.62.73.98.06.13.11.27.13.4v.1c-.52-.31-1.05-.35-1.34-.14-.11.08-.15.16-.21.28.19.14.28.22.5.34.51.28 1.04.33 1.31.09l.09.11c.11.14.19.28.25.41.17.36.19.69.16.93"/><path d="m51.23 58.88s0 0 0 0c-.07-.14.1-.2.21-.23.02.04.03.07.04.1.03.08.04.15 0 .2-.07.06-.21 0-.24-.07z"/><path d="m51.94 59.95c.09.06.15.14.2.22.02.03.04.07.06.11-.15-.05-.38-.14-.45-.28-.03-.07.06-.11.19-.03z"/></g><path d="m52.4 61.19c-.27.16-.96.18-1.46-.13.04-.24 0-.57-.16-.93-.06-.13-.14-.27-.25-.41l-.09-.11c-.27.24-.8.19-1.31-.09-.22-.12-.31-.2-.5-.34.06-.12.1-.2.21-.28.28-.21.81-.16 1.33.14v-.1c-.02-.13-.07-.27-.13-.4-.17-.36-.46-.71-.73-.98.25-.24 1.01-.1 1.46.12.28.14.54.34.76.58.83-.02 2.16.39 3.12.94.3.17.54.34.8.56-.05.21-.15.35-.31.48-.51.42-1.55.63-2.47.46 0 .22-.1.38-.26.49zm-1.05-.27c.28.07.55.06.71-.04.1-.06.16-.15.18-.28-.13-.04-.26-.1-.38-.16-.22-.12-.42-.3-.5-.48-.05-.11-.06-.21 0-.29.19-.28.92 0 1.2.6 0 .01 0 .02.01.03l.03.08c.91.16 2.04-.1 2.36-.64-.87-.65-2.33-1.13-3.17-1.12l.04.08s.01.02.02.03c.28.61-.24.77-.72.43-.13-.1-.23-.21-.28-.32-.08-.18-.05-.34.08-.43.07-.05.16-.08.26-.1-.14-.14-.29-.25-.46-.33-.27-.14-.57-.2-.81-.17.23.28.4.53.51.77.12.26.18.52.18.79.26.3.45.56.57.82.11.24.17.48.19.74m-2.2-1.69c.32.19.79.26.92.07-.32-.22-.75-.23-.92-.09s.01.01.01.01m3.01 1.04s-.04-.07-.06-.11c-.05-.08-.11-.16-.2-.22-.13-.08-.22-.03-.19.03.07.14.3.23.45.28m-.75-1.6c-.11.03-.28.08-.21.23.03.07.17.13.24.07.05-.04.04-.12 0-.2-.01-.03-.03-.07-.04-.1" fill="#eeba4e"/><path d="m49.16 59.22c.17-.15.6-.14.92.09-.12.19-.6.11-.92-.07h-.01s0-.01 0-.01z" fill="#ef9c40"/><path d="m52.24 60.6c-.02.12-.08.22-.18.28-.16.1-.43.11-.71.04-.02-.26-.08-.5-.19-.74-.12-.26-.31-.53-.57-.82 0-.27-.05-.53-.18-.79-.11-.24-.28-.49-.51-.77.24-.02.54.04.81.17.17.08.32.2.46.33-.1.02-.19.06-.26.1-.13.09-.16.25-.08.43.05.11.14.22.28.32.48.34 1.01.18.72-.43 0-.01-.01-.02-.02-.03l-.04-.08c.84 0 2.31.48 3.17 1.12-.32.54-1.44.8-2.36.64l-.03-.08s0-.02-.01-.03c-.28-.61-1.01-.88-1.2-.6-.05.08-.05.18 0 .29.08.18.27.36.5.48.12.06.25.12.38.16z" fill="#ef9c40"/><path d="m33.24 117.31 1.73 2.08c1.31 1.58 1.59 4.02.53 6.95-2.14 5.9-8.92 11.56-15.13 12.64-3.13.54-5.52-.17-6.85-1.77l-1.73-2.08c1.33 1.6 3.72 2.32 6.85 1.77 6.21-1.08 12.99-6.74 15.13-12.64 1.06-2.93.79-5.37-.53-6.95z" fill="#ef9c40"/><path d="m26.39 115.54c6.21-1.08 9.51 2.82 7.37 8.72s-8.92 11.56-15.13 12.64-9.51-2.82-7.37-8.72 8.92-11.56 15.13-12.64z" fill="#eeba4e"/><path d="m25.27 118.03c4.66-.81 7.14 2.12 5.53 6.54-1.61 4.43-6.69 8.67-11.35 9.48s-7.14-2.12-5.53-6.54c1.61-4.43 6.69-8.67 11.35-9.48zm-.86 10.43c.7-.67.97-1.76.83-2.26-.09-.31-.31-.53-.66-.62.67-1.39.77-3.12.33-4.11-.14-.31-.32-.52-.61-.7-.5.32-.86.62-1.26 1.03-1.28 1.29-2.5 3.22-2.82 4.54-.47.24-.89.57-1.23.95-.55.61-1.1 1.76-.81 2.26.54-.32 1.22-.62 1.86-.74.24-.04.47-.06.69-.03l.15.04c-.7.7-1.01 1.52-.79 2.05.09.21.2.3.35.45.3-.24.47-.35.75-.64.66-.69.96-1.51.7-2.04l.21-.11c.27-.11.52-.18.76-.22.64-.11 1.17-.01 1.54.14" fill="#ef9c40"/><path d="m21.07 127.07s0 0 0 0c-.26.04-.27-.24-.27-.43.06 0 .12-.02.18-.02.14-.01.26 0 .31.1.07.13-.1.33-.21.35z" fill="#ef9c40"/><path d="m23.06 126.41c.13-.13.28-.19.43-.23.06-.02.13-.03.19-.04-.15.22-.38.54-.64.59-.12.02-.15-.14.03-.32z" fill="#ef9c40"/><path d="m25.23 126.2c.15.49-.12 1.59-.82 2.26-.37-.16-.9-.26-1.54-.14-.24.04-.5.11-.76.22l-.21.11c.26.53-.04 1.35-.7 2.04-.28.29-.45.4-.75.64-.16-.15-.27-.24-.35-.45-.22-.54.08-1.36.79-2.05l-.15-.04c-.22-.02-.46 0-.69.03-.64.11-1.32.42-1.86.74-.28-.5.27-1.64.81-2.26.34-.38.76-.72 1.23-.95.32-1.33 1.54-3.25 2.82-4.54.4-.4.76-.71 1.23-1.02.32.18.5.39.64.7.45.99.34 2.72-.33 4.11.35.1.57.32.66.62zm-.88 1.54c.23-.42.32-.84.23-1.14-.05-.18-.18-.32-.36-.4-.13.19-.26.37-.41.53-.28.3-.66.53-.97.58-.19.03-.36 0-.46-.12-.37-.42.38-1.46 1.46-1.65h.06.13c.63-1.39.71-3.28-.02-4.01-1.39 1.1-2.77 3.22-3.12 4.55l.14-.04s.04 0 .06-.01c1.08-.19 1.12.72.38 1.33-.21.17-.42.27-.62.3-.31.05-.57-.06-.65-.3-.04-.13-.06-.28-.06-.45-.27.16-.52.36-.72.59-.33.37-.55.82-.62 1.21.54-.25 1-.41 1.43-.48.47-.08.89-.06 1.32.06.58-.29 1.08-.48 1.55-.56.43-.07.83-.07 1.25.02m-3.59 2.74c.43-.42.75-1.14.5-1.42-.49.42-.69 1.09-.53 1.42s.02 0 .02 0m2.93-4.35c-.06.01-.13.03-.19.04-.14.04-.29.1-.43.23-.18.17-.14.33-.03.32.26-.04.49-.37.64-.59m-2.88.5c0 .19.01.47.27.43.12-.02.28-.22.21-.35-.05-.09-.17-.11-.31-.1-.06 0-.12.01-.18.02" fill="#eeba4e"/><path d="m20.74 130.49c-.16-.33.04-1 .53-1.42.24.27-.07 1-.5 1.42l-.02.02z" fill="#ef9c40"/><path d="m24.22 126.2c.19.08.31.22.36.4.09.3 0 .72-.23 1.14-.42-.08-.82-.09-1.25-.02-.47.08-.97.26-1.55.56-.43-.12-.86-.14-1.32-.06-.43.07-.89.24-1.43.48.07-.39.29-.83.62-1.21.2-.23.45-.43.72-.59 0 .17.01.32.06.45.08.24.34.36.65.3.19-.03.41-.13.62-.3.74-.61.71-1.52-.38-1.33-.02 0-.04 0-.06.01l-.14.04c.35-1.33 1.73-3.45 3.12-4.55.72.73.65 2.62.02 4h-.13s-.04.02-.06.02c-1.08.19-1.83 1.23-1.46 1.65.1.12.27.15.46.12.31-.05.69-.28.97-.58.15-.16.29-.34.41-.53z" fill="#ef9c40"/><path d="m180.88 92.67 1.23 2.25c.93 1.71.75 4.03-.78 6.57-3.07 5.1-10.41 9.13-16.39 9.01-3.01-.06-5.1-1.17-6.05-2.9l-1.23-2.25c.95 1.73 3.04 2.84 6.05 2.9 5.98.13 13.32-3.91 16.39-9.01 1.53-2.53 1.71-4.86.78-6.57z" fill="#ef9c40"/><path d="m174.83 89.77c5.98.13 8.34 4.36 5.27 9.47s-10.41 9.13-16.39 9.01c-5.98-.13-8.34-4.36-5.27-9.47 3.07-5.1 10.41-9.13 16.39-9.01z" fill="#eeba4e"/><path d="m173.33 91.89c4.49.1 6.26 3.28 3.95 7.1-2.3 3.83-7.81 6.85-12.3 6.76-4.49-.1-6.26-3.28-3.95-7.1 2.3-3.83 7.81-6.85 12.3-6.76zm-2.71 9.55c.78-.49 1.23-1.47 1.18-1.95-.03-.3-.19-.55-.5-.7.88-1.17 1.29-2.76 1.05-3.77-.07-.31-.2-.54-.44-.76-.52.21-.92.42-1.36.73-1.42.97-2.92 2.54-3.45 3.72-.48.14-.93.37-1.32.66-.62.47-1.34 1.44-1.17 1.95.56-.2 1.25-.36 1.87-.35.23 0 .45.03.65.1l.13.07c-.78.52-1.21 1.23-1.11 1.77.04.21.13.32.25.48.32-.17.5-.24.82-.46.74-.52 1.17-1.23 1.02-1.77l.21-.06c.27-.05.52-.07.75-.07.62.01 1.09.2 1.41.42" fill="#ef9c40"/><path d="m167.77 99.54s0 0 0 0c-.25 0-.21-.27-.17-.45.06 0 .12 0 .17.01.13.01.24.05.27.15.04.13-.15.29-.26.29z" fill="#ef9c40"/><path d="m169.75 99.29c.14-.09.3-.12.44-.13h.19c-.17.17-.45.43-.7.43-.11 0-.11-.16.08-.29z" fill="#ef9c40"/><path d="m171.8 99.49c.05.49-.4 1.46-1.18 1.95-.32-.21-.79-.4-1.41-.42-.23 0-.48.01-.75.07l-.21.06c.15.54-.28 1.25-1.02 1.77-.32.22-.49.29-.82.46-.12-.17-.21-.27-.25-.48-.1-.54.33-1.25 1.11-1.77l-.13-.07c-.2-.06-.42-.09-.65-.1-.62-.01-1.3.15-1.87.35-.17-.51.55-1.48 1.17-1.95.39-.29.84-.53 1.32-.66.54-1.18 2.03-2.75 3.45-3.72.45-.3.84-.52 1.33-.73.26.22.39.45.47.76.24 1-.18 2.6-1.05 3.77.31.15.47.4.5.7zm-1.1 1.27c.29-.35.45-.72.43-1.02-.02-.18-.1-.33-.26-.44-.15.15-.31.3-.48.42-.32.23-.71.37-1.01.37-.19 0-.34-.06-.41-.19-.27-.46.62-1.29 1.66-1.27h.06.12c.84-1.16 1.26-2.9.72-3.72-1.5.77-3.17 2.49-3.74 3.67h.14s.04 0 .06 0c1.04.02.91.87.11 1.31-.23.12-.44.17-.63.17-.3 0-.52-.16-.55-.4-.02-.13 0-.27.03-.43-.28.1-.55.24-.78.42-.38.29-.67.66-.8 1.01.55-.13 1.01-.2 1.42-.19.45 0 .84.11 1.22.29.59-.17 1.09-.25 1.54-.24.41 0 .79.09 1.16.24m-3.85 1.91c.48-.32.9-.93.73-1.23-.53.3-.84.89-.75 1.23s.02 0 .02 0m3.51-3.52c-.06 0-.12 0-.19 0-.14 0-.29.04-.44.13-.2.13-.19.29-.08.29.25 0 .53-.25.7-.43m-2.77-.05c-.04.18-.08.44.17.45.11 0 .3-.15.26-.29-.03-.1-.14-.13-.27-.15-.05 0-.11-.01-.17-.01" fill="#eeba4e"/><path d="m166.83 102.66c-.09-.34.22-.93.75-1.23.18.3-.25.91-.73 1.23h-.02s0 0 0 0z" fill="#ef9c40"/><path d="m170.86 99.3c.16.11.25.26.26.44.03.3-.14.67-.43 1.02-.37-.15-.75-.24-1.16-.24-.45 0-.95.07-1.54.24-.38-.19-.77-.29-1.22-.29-.41 0-.88.06-1.42.19.13-.35.42-.72.8-1.01.23-.17.5-.32.78-.42-.04.16-.05.3-.03.43.03.24.25.39.55.4.19 0 .4-.05.63-.17.81-.44.93-1.29-.11-1.31-.02 0-.04 0-.06 0h-.14c.57-1.17 2.24-2.89 3.74-3.66.54.81.13 2.56-.72 3.73h-.12s-.04-.01-.06-.02c-1.04-.02-1.93.81-1.66 1.27.07.13.23.19.41.19.3 0 .7-.13 1.01-.37.17-.13.33-.27.48-.42z" fill="#ef9c40"/></svg>