<svg viewBox="0 0 200 195.97" xmlns="http://www.w3.org/2000/svg" xmlns:xlink="http://www.w3.org/1999/xlink"><linearGradient id="a" gradientTransform="matrix(1 0 0 -1 262 -575.92)" gradientUnits="userSpaceOnUse" x1="-261.98" x2="-62.02" y1="-714.09" y2="-714.09"><stop offset="0" stop-color="#4b5faa"/><stop offset="1" stop-color="#80d2e0"/></linearGradient><linearGradient id="b" gradientTransform="translate(262 288.5)" gradientUnits="userSpaceOnUse" x1="-193.54" x2="-185.58" y1="-232.25" y2="-232.25"><stop offset="0" stop-color="#ff797d"/><stop offset=".3" stop-color="#ff7e7d"/><stop offset=".65" stop-color="#ff807d"/><stop offset="1" stop-color="#ff947d"/></linearGradient><linearGradient id="c" x1="-213.15" x2="-185.6" xlink:href="#b" y1="-257.75" y2="-257.75"/><linearGradient id="d" x1="-215.45" x2="-191.84" xlink:href="#b" y1="-255.85" y2="-255.85"/><linearGradient id="e" x1="-192.87" x2="-186" xlink:href="#b" y1="-272.2" y2="-272.2"/><linearGradient id="f" x1="-215.41" x2="-186.01" xlink:href="#b" y1="-280" y2="-280"/><linearGradient id="g" gradientUnits="userSpaceOnUse" x1="61.85" x2="143.38" y1="144.35" y2="144.35"><stop offset="0" stop-color="#7f72ca"/><stop offset=".06" stop-color="#6e66b3"/><stop offset=".14" stop-color="#595696"/><stop offset=".24" stop-color="#484980"/><stop offset=".35" stop-color="#3a3f7a"/><stop offset=".48" stop-color="#31386d"/><stop offset=".65" stop-color="#2c3465"/><stop offset="1" stop-color="#2a3363"/></linearGradient><linearGradient id="h" x1="-191.82" x2="-126.94" xlink:href="#b" y1="-171.94" y2="-171.94"/><linearGradient id="i" x1="-159.35" x2="-159.35" xlink:href="#b" y1="-168.62" y2="-234.49"/><linearGradient id="j" gradientTransform="matrix(-1 -0 -0 1 934.06 288.5)" gradientUnits="userSpaceOnUse" x1="795.11" x2="867.91" y1="-241.3" y2="-241.3"><stop offset="0" stop-color="#ff797d"/><stop offset="1" stop-color="#ff947d"/></linearGradient><linearGradient id="k" gradientUnits="userSpaceOnUse" x1="102.5" x2="102.5" y1="43.1" y2="2.09"><stop offset="0" stop-color="#7f72ca"/><stop offset="0" stop-color="#7f72c9"/><stop offset=".22" stop-color="#605ba0"/><stop offset=".44" stop-color="#494a80"/><stop offset=".64" stop-color="#383d76"/><stop offset=".83" stop-color="#2e3668"/><stop offset="1" stop-color="#2a3363"/></linearGradient><linearGradient id="l" gradientTransform="translate(262 288.5)" gradientUnits="userSpaceOnUse" x1="-138.69" x2="-120.13" y1="-209.75" y2="-209.75"><stop offset="0" stop-color="#ff947d"/><stop offset=".35" stop-color="#ff807d"/><stop offset=".7" stop-color="#ff7e7d"/><stop offset="1" stop-color="#ff797d"/></linearGradient><linearGradient id="m" x1="-138.69" x2="-115.47" xlink:href="#b" y1="-224.85" y2="-224.85"/><linearGradient id="n" x1="-125.35" x2="-108.6" xlink:href="#l" y1="-221.65" y2="-221.65"/><linearGradient id="o" x1="-138.05" x2="-108.65" xlink:href="#l" y1="-241.8" y2="-241.8"/><linearGradient id="p" gradientUnits="userSpaceOnUse" x1="69.7" x2="93.92" y1="61.42" y2="61.42"><stop offset="0" stop-color="#fff"/><stop offset=".52" stop-color="#f0eff0"/><stop offset=".71" stop-color="#ece8ec"/><stop offset=".84" stop-color="#e5dde6"/><stop offset=".95" stop-color="#dcccdc"/><stop offset="1" stop-color="#d5c0d6"/></linearGradient><path d="m170.45 97.12c39.2 22.6 39.4 59.2.4 82.1-38.8 22.6-102.1 22.6-141.3 0-39.2-22.6-39.4-59.2-.4-82.1 38.8-22.6 102.2-22.6 141.3 0z" fill="url(#a)"/><path d="m136.65 157.67-38.8-34.1-13.2-4.9-74.65 44.68c4.79 5.74 11.31 11.11 19.55 15.87 13.64 7.86 30.19 12.98 47.61 15.37l59.49-36.93z" fill="#2a3363" opacity=".2"/><path d="m69.55 57.4 6.9-4-1.1 1.7-6.9 4z" fill="url(#b)"/><path d="m71.95 48.1c-10-12.2-16.3-28-16.2-41.2v-2.9l-6.9 4v2.9c0 13.2 6.2 29 16.2 41.2l4.4 5.4 6.9-4z" fill="url(#c)"/><path d="m69.15 17v2.6l-20.3-11.7v2.9c0 13.2 6.2 29 16.2 41.2l4.4 5.4.6 4-6.2-7.7c-10.6-13.1-17.3-30-17.3-44.2v-5.6z" fill="url(#d)"/><path d="m69.15 17 6.8-4v2.6l-6.8 4z" fill="url(#e)"/><path d="m46.55 4 6.9-4 22.5 13-6.8 4z" fill="url(#f)"/><path d="m143.35 121.5v22.4c0 6-4 12-11.8 16.6-15.9 9.2-41.7 9.2-57.6 0-8-4.6-12-10.7-12-16.8v-22.4c0 6.1 4 12.2 12 16.8 15.9 9.2 41.7 9.2 57.6 0 7.9-4.6 11.8-10.6 11.8-16.6z" fill="url(#g)"/><path d="m131.35 104.7c15.9 9.2 16 24.2.2 33.4-15.9 9.2-41.7 9.2-57.6 0-16-9.2-16.1-24.2-.2-33.4 15.8-9.2 41.6-9.2 57.6 0z" fill="#2a3363"/><path d="m125.45 103.3c12.7 7.3 12.8 19.2.1 26.6-12.6 7.3-33.2 7.3-45.9 0s-12.8-19.2-.1-26.6 33.2-7.4 45.9 0z" fill="url(#h)"/><path d="m106.95 61 2.7 51.9c.2 3.9-2.8 7.2-6.6 7.4-3.9.2-7.2-2.8-7.4-6.6v-.7l2.7-51.9c.1-2.4 2.1-4.2 4.5-4.1 2.2 0 4 1.8 4.1 4z" fill="url(#i)"/><path d="m102.45 92.8c-1.2 0-2.7-.1-4.4-.2h-.1c-.9-.1-1.9-.2-2.9-.4-.6-.1-1.2-.2-1.8-.3-.2 0-.4-.1-.5-.1-.6-.2-1.3-.3-1.9-.5h-.1c-.1 0-.7-.2-1.5-.5-2.2-.7-3.8-1.5-5-2.2-1.3-.7-2.1-1.2-3.6-2.4-.4-.3-1.5-1.2-2.8-2.6-.3-.3-.5-.6-.8-.9-.2-.3-.5-.5-.7-.8-8.5-14.2-9.6-46.5-9.8-48.9-.1-1.2-.2-2.4-.2-3.4 0-.7-.1-1.5-.1-2.3-.1-1.7-.1-3.3-.1-4.7s.2-2.7.7-4 1.1-2.7 2-3.9 2-2.5 3.4-3.7c1.3-1.2 2.9-2.3 4.7-3.3 3.6-2 7.7-3.6 12-4.6 4.4-1 9-1.5 13.6-1.5s9.3.5 13.6 1.5c4.4 1 8.5 2.6 12 4.6 1.8 1 3.4 2.1 4.7 3.3s2.5 2.4 3.4 3.7 1.6 2.6 2 3.9.7 2.7.7 4c0 1.4-.1 3-.1 4.7 0 .8-.1 1.5-.1 2.3-.1 1.1-.1 2.2-.2 3.4-.2 2.4-1.4 34.7-9.8 48.9-.2.3-.5.6-.7.8-.3.3-.5.6-.8.9-1.3 1.4-2.4 2.3-2.8 2.6-1.5 1.1-2.3 1.7-3.6 2.4-1.1.6-2.8 1.4-5 2.2-.8.3-1.4.4-1.5.5h-.1c-.6.2-1.2.3-1.9.5-.2 0-.4.1-.5.1-.6.1-1.1.2-1.8.3-1 .2-2 .3-2.9.4h-.1c-1.7.2-3.2.2-4.4.2z" fill="url(#j)"/><path d="m102.75 43.1c-4.7 0-9.2-.5-13.6-1.5-4.5-1-8.5-2.6-11.9-4.6-1.7-1-3.3-2.1-4.6-3.3-1.3-1.1-2.4-2.3-3.3-3.6-.9-1.2-1.5-2.5-1.9-3.8s-.6-2.6-.6-3.9.2-2.6.6-3.8c.4-1.3 1.1-2.5 1.9-3.7.9-1.2 1.9-2.4 3.2-3.5s2.8-2.2 4.5-3.2c3.4-2 7.4-3.5 11.8-4.5 4.3-1 8.8-1.5 13.5-1.5s9.2.5 13.5 1.5c4.5 1 8.5 2.6 11.9 4.6 1.7 1 3.3 2.1 4.6 3.3 1.3 1.1 2.4 2.3 3.3 3.6.9 1.2 1.5 2.5 1.9 3.8s.6 2.6.6 3.9-.2 2.6-.6 3.8c-.4 1.3-1.1 2.5-1.9 3.7-.9 1.2-1.9 2.4-3.2 3.5s-2.8 2.2-4.5 3.2c-3.4 2-7.4 3.5-11.8 4.6-4.2.8-8.7 1.4-13.4 1.4z" fill="url(#k)"/><path d="m102.55 2.5c4.6 0 9.1.5 13.4 1.5 4.4 1 8.4 2.5 11.7 4.5 1.7 1 3.2 2.1 4.5 3.2s2.3 2.3 3.2 3.5c.8 1.2 1.5 2.4 1.9 3.7.4 1.2.6 2.5.6 3.7s-.2 2.5-.6 3.7-1 2.4-1.8 3.6-1.9 2.4-3.1 3.4c-1.3 1.1-2.8 2.2-4.4 3.2-3.4 2-7.3 3.5-11.7 4.5-4.3 1-8.8 1.5-13.4 1.5s-9.2-.5-13.4-1.5c-4.4-1-8.4-2.6-11.7-4.5-1.7-1-3.2-2.1-4.5-3.2s-2.3-2.3-3.2-3.5c-.8-1.2-1.5-2.4-1.9-3.7-.4-1.2-.6-2.5-.6-3.7s.2-2.5.6-3.7 1-2.4 1.9-3.6c.8-1.2 1.9-2.4 3.1-3.5 1.3-1.1 2.8-2.2 4.5-3.2 3.4-2 7.3-3.5 11.7-4.5 4-.8 8.5-1.4 13.2-1.4zm0-1s-.1 0 0 0c-4.6 0-9.3.5-13.6 1.5-4.4 1-8.4 2.6-12 4.6-1.8 1-3.3 2.1-4.6 3.3s-2.4 2.4-3.3 3.6c-.9 1.3-1.5 2.6-2 3.9-.4 1.3-.7 2.7-.7 4s.2 2.7.7 4c.4 1.3 1.1 2.6 2 3.9s2 2.5 3.3 3.7 2.9 2.3 4.7 3.3c3.5 2.1 7.6 3.6 12 4.6s9 1.5 13.7 1.5c4.6 0 9.3-.5 13.6-1.5 4.4-1 8.4-2.6 12-4.6 1.7-1 3.3-2.1 4.6-3.3s2.4-2.4 3.3-3.6c.9-1.3 1.5-2.5 2-3.9.4-1.3.7-2.6.7-4s-.2-2.7-.7-4c-.4-1.3-1.1-2.7-2-3.9-.9-1.3-2-2.5-3.4-3.7-1.3-1.2-2.9-2.3-4.7-3.3-3.6-2-7.7-3.6-12-4.6-4.4-.9-9-1.5-13.6-1.5z" fill="#ff807d"/><path d="m134.65 77.7-4.5.2-6.9 4 4.5-.2c2.7-.1 5.1-.9 7.2-2.1l6.9-4c-2.1 1.3-4.5 2-7.2 2.1z" fill="url(#l)"/><path d="m146.55 55.2v5.6c0 14.2-6.8 23.4-17.6 23.9l-4.5.3-1.1-3 4.5-.2c10.1-.6 16.4-9.1 16.5-22.3v-2.9l-20.3-11.7v-2.6z" fill="url(#m)"/><path d="m146.55 55.2v5.6c0 10.4-3.7 18.1-9.9 21.7l6.9-4c6.2-3.6 9.8-11.3 9.9-21.7v-5.6z" fill="url(#n)"/><path d="m153.35 51.2-22.5-13-6.9 3.9 22.6 13.1z" fill="url(#o)"/><path d="m81.05 48.1c.4-.7 1.1-.3 1.5.9l2.5 7.1c.4 1.2 1.6 2.6 2.6 3.2l5.2 3c1 .6 1.3 1.4.6 1.7l-3.9 1.8c-.7.3-1.2 1.5-1 2.6l.9 5.8c.2 1.1-.4 1.2-1.3.2l-4.7-5.2c-.9-1-2.4-1.9-3.3-1.9l-4.7-.2c-.9 0-1.5-.8-1.3-1.8l.9-4.7c.2-.9-.3-2.6-1-3.8l-3.9-6.3c-.7-1.2-.5-1.6.6-1l5.2 3c1 .6 2.2.5 2.6-.2z" fill="url(#p)"/></svg>