<svg viewBox="0 0 200 195.97" xmlns="http://www.w3.org/2000/svg" xmlns:xlink="http://www.w3.org/1999/xlink"><linearGradient id="a" gradientTransform="matrix(1 0 0 -1 262 -123.99)" gradientUnits="userSpaceOnUse" x1="-261.98" x2="-62.02" y1="-261.95" y2="-261.95"><stop offset="0" stop-color="#4b5faa"/><stop offset="1" stop-color="#80d2e0"/></linearGradient><linearGradient id="b" gradientUnits="userSpaceOnUse" x1="16.83" x2="57.63" y1="139.76" y2="139.76"><stop offset="0" stop-color="#ff957d"/><stop offset=".1" stop-color="#f6858d"/><stop offset=".27" stop-color="#f577af"/><stop offset=".45" stop-color="#f365ca"/><stop offset=".62" stop-color="#f359dd"/><stop offset=".81" stop-color="#f251e8"/><stop offset="1" stop-color="#f24fec"/></linearGradient><linearGradient id="c" x1="61.84" x2="-8.22" xlink:href="#b" y1="140.82" y2="113.56"/><linearGradient id="d" gradientUnits="userSpaceOnUse" x1="37.23" x2="37.23" y1="143.06" y2="102.03"><stop offset="0" stop-color="#ff957d" stop-opacity=".5"/><stop offset="1" stop-color="#f24fec"/></linearGradient><linearGradient id="e" gradientUnits="userSpaceOnUse" x1="149.55" x2="187.68" y1="35.94" y2="35.94"><stop offset="0" stop-color="#10cbc4"/><stop offset=".66" stop-color="#1da5be" stop-opacity=".8"/></linearGradient><linearGradient id="f" x1="168.68" x2="194.86" xlink:href="#e" y1="49.64" y2="49.64"/><linearGradient id="g" x1="142.35" x2="168.69" xlink:href="#e" y1="49.64" y2="49.64"/><linearGradient id="h" x1="173.67" x2="184.13" xlink:href="#e" y1="52.74" y2="69.45"/><linearGradient id="i" x1="147.88" x2="164.78" xlink:href="#e" y1="73.51" y2="56.07"/><path d="m170.45 96.92c39.2 22.6 39.4 59.2.4 82.1-38.8 22.6-102.1 22.6-141.3 0-39.2-22.6-39.4-59.2-.4-82.1 38.8-22.6 102.2-22.6 141.3 0z" fill="url(#a)"/><path d="m120.45 87.85c16.29 9.41 16.38 24.66.19 34.07s-42.53 9.41-58.82 0c-16.3-9.41-16.39-24.66-.19-34.07 16.19-9.41 42.53-9.41 58.82 0z" opacity=".11"/><path d="m133.49 93.45-.02 7.97c-.02 6.06-4 12.11-11.96 16.74-16.02 9.31-42.08 9.31-58.2 0-8.12-4.69-12.17-10.84-12.15-16.98l.02-7.97c-.02 6.14 4.04 12.29 12.15 16.98 16.12 9.31 42.18 9.31 58.2 0 7.96-4.63 11.94-10.68 11.96-16.74z" fill="#ef9c40"/><path d="m121.34 76.47c16.12 9.31 16.21 24.4.19 33.71s-42.08 9.31-58.2 0c-16.13-9.31-16.21-24.4-.19-33.71s42.08-9.31 58.21 0z" fill="#eeba4e"/><g fill="#ef9c40"><path d="m114.08 79.99c12.1 6.98 12.16 18.31.14 25.29-12.02 6.99-31.57 6.99-43.67 0-12.1-6.98-12.16-18.31-.14-25.29 12.02-6.99 31.57-6.99 43.67 0zm-21.72 22c2.86-.18 5.54-2.16 6.15-3.55.37-.87.3-1.79-.31-2.66 4.15-1.88 7.66-5.6 8.52-8.69.27-.97.26-1.78-.04-2.74-1.73-.22-3.14-.22-4.81-.06-5.33.51-11.76 2.56-14.98 4.96-1.51-.35-3.1-.39-4.6-.17-2.41.35-5.81 1.91-6.12 3.57 1.83.31 3.95.89 5.61 1.85.62.36 1.18.77 1.64 1.24l.26.39c-2.92.24-5.15 1.53-5.67 3.16-.21.65-.12 1.05-.05 1.69 1.14 0 1.72.1 2.91-.04 2.81-.31 5.03-1.6 5.44-3.29l.67.15c.81.26 1.52.59 2.15.94 1.66.96 2.68 2.19 3.22 3.24"/><path d="m87.45 92.52s-.01 0-.02 0c-.67-.39-.17-1.05.2-1.48.16.1.31.2.45.3.33.23.58.5.52.81-.09.42-.84.55-1.15.38z"/><path d="m93.21 94.8c.54-.04.99.11 1.39.29.18.08.35.17.52.26-.74.21-1.89.5-2.55.12 0 0-.01 0-.02 0-.3-.18-.07-.61.66-.67z"/></g><path d="m98.51 98.43c-.6 1.39-3.28 3.37-6.14 3.55-.54-1.06-1.56-2.28-3.22-3.24-.62-.36-1.34-.68-2.15-.94l-.67-.15c-.41 1.69-2.63 2.99-5.44 3.29-1.2.13-1.78.05-2.91.04-.07-.64-.16-1.04.05-1.69.52-1.63 2.76-2.92 5.67-3.16l-.26-.39c-.46-.47-1.02-.88-1.64-1.24-1.66-.96-3.78-1.55-5.61-1.85.3-1.66 3.71-3.22 6.11-3.57 1.5-.22 3.08-.18 4.6.17 3.23-2.41 9.65-4.46 14.98-4.96 1.67-.16 3.08-.16 4.72.02.38 1 .39 1.82.12 2.78-.86 3.09-4.38 6.82-8.52 8.69.61.88.68 1.79.31 2.66zm-4.91 1.81c1.31-.52 2.32-1.29 2.69-2.14.22-.52.21-1.06-.07-1.59-.65.19-1.3.34-1.95.42-1.21.16-2.49-.05-3.31-.52-.5-.29-.82-.68-.83-1.14-.04-1.65 3.62-2.6 6.44-.97.05.03.1.06.15.09l.32.22c4.05-1.93 7.8-6.07 7.54-9.1-5.23-.14-12.38 2.05-15.69 4.4l.38.18c.05.03.1.06.15.09 2.81 1.62 1.19 3.75-1.66 3.73-.8 0-1.47-.19-1.97-.48-.81-.47-1.18-1.21-.9-1.91.15-.38.39-.75.72-1.13-.92-.16-1.86-.16-2.75-.03-1.46.22-2.8.8-3.69 1.56 1.69.45 3.05.97 4.16 1.62 1.22.7 2.14 1.55 2.89 2.64 1.87.43 3.34.97 4.56 1.67 1.11.64 2.01 1.43 2.8 2.4m-13.31-.57c1.77-.15 3.85-1.18 3.82-2.26-1.9.03-3.63 1.17-3.89 2.23v.04s.07 0 .07 0m14.85-4.34c-.17-.09-.34-.18-.52-.26-.4-.19-.86-.33-1.39-.29-.73.05-.96.49-.66.67h.02c.66.38 1.81.09 2.55-.12m-7.49-4.32c-.37.43-.87 1.09-.2 1.48h.02c.31.17 1.06.04 1.15-.38.06-.31-.19-.58-.52-.81-.14-.1-.29-.2-.45-.3" fill="#eeba4e"/><path d="m80.2 99.64c.26-1.05 1.99-2.2 3.89-2.23.03 1.08-2.05 2.11-3.82 2.26h-.07s0-.04 0-.04z" fill="#ef9c40"/><path d="m96.22 96.51c.28.53.29 1.08.07 1.59-.37.85-1.37 1.63-2.69 2.14-.79-.98-1.69-1.76-2.8-2.4-1.22-.7-2.69-1.23-4.56-1.67-.75-1.08-1.68-1.93-2.89-2.64-1.11-.64-2.47-1.16-4.16-1.62.89-.76 2.23-1.35 3.69-1.56.89-.13 1.83-.13 2.75.03-.33.37-.57.75-.72 1.13-.28.7.09 1.44.9 1.91.5.29 1.18.47 1.97.48 2.85.02 4.48-2.11 1.66-3.73-.05-.03-.1-.06-.15-.09l-.38-.18c3.31-2.35 10.46-4.54 15.69-4.4.26 3.03-3.49 7.18-7.54 9.1l-.32-.22s-.1-.06-.15-.09c-2.81-1.62-6.47-.68-6.44.97.01.46.33.85.83 1.14.81.47 2.1.68 3.31.52.65-.09 1.3-.23 1.95-.42z" fill="#ef9c40"/><path d="m132.83 80.9-.02 7.97c-.02 6.06-4 12.11-11.96 16.74-16.02 9.31-42.08 9.31-58.2 0-8.12-4.69-12.17-10.84-12.15-16.98l.02-7.97c-.02 6.14 4.04 12.29 12.15 16.98 16.12 9.31 42.18 9.31 58.2 0 7.96-4.63 11.94-10.68 11.96-16.74z" fill="#ef9c40"/><path d="m120.68 63.93c16.12 9.31 16.21 24.4.19 33.71s-42.08 9.31-58.2 0c-16.13-9.31-16.21-24.4-.19-33.71s42.08-9.31 58.21 0z" fill="#eeba4e"/><path d="m113.43 67.44c12.1 6.98 12.16 18.31.14 25.29-12.02 6.99-31.57 6.99-43.67 0-12.1-6.98-12.16-18.31-.14-25.29 12.02-6.99 31.57-6.99 43.67 0zm-21.72 22c2.86-.18 5.54-2.16 6.15-3.55.37-.87.3-1.79-.31-2.66 4.15-1.88 7.66-5.6 8.52-8.69.27-.97.26-1.78-.04-2.74-1.73-.22-3.14-.22-4.81-.06-5.33.51-11.76 2.56-14.98 4.96-1.51-.35-3.1-.39-4.6-.17-2.41.35-5.81 1.91-6.12 3.57 1.83.31 3.95.89 5.61 1.85.62.36 1.18.77 1.64 1.24l.26.39c-2.92.24-5.15 1.53-5.67 3.16-.21.65-.12 1.05-.05 1.69 1.14 0 1.72.1 2.91-.04 2.81-.31 5.03-1.6 5.44-3.29l.67.15c.81.26 1.52.59 2.15.94 1.66.96 2.68 2.19 3.22 3.24" fill="#ef9c40"/><path d="m86.79 79.97s-.01 0-.02 0c-.67-.39-.17-1.05.2-1.48.16.1.31.2.45.3.33.23.58.5.52.81-.09.42-.84.55-1.15.38z" fill="#ef9c40"/><path d="m92.56 82.25c.54-.04.99.11 1.39.29.18.08.35.17.52.26-.74.21-1.89.5-2.55.12 0 0-.01 0-.02 0-.3-.18-.07-.61.66-.67z" fill="#ef9c40"/><path d="m97.86 85.89c-.6 1.39-3.28 3.37-6.14 3.55-.54-1.06-1.56-2.28-3.22-3.24-.62-.36-1.34-.68-2.15-.94l-.67-.15c-.41 1.69-2.63 2.99-5.44 3.29-1.2.13-1.78.05-2.91.04-.07-.64-.16-1.04.05-1.69.52-1.63 2.76-2.92 5.67-3.16l-.26-.39c-.46-.47-1.02-.88-1.64-1.24-1.66-.96-3.78-1.55-5.61-1.85.3-1.66 3.71-3.22 6.11-3.57 1.5-.22 3.08-.18 4.6.17 3.23-2.41 9.65-4.46 14.98-4.96 1.67-.16 3.08-.16 4.72.02.38 1 .39 1.82.12 2.78-.86 3.09-4.38 6.82-8.52 8.69.61.88.68 1.79.31 2.66zm-4.91 1.81c1.31-.52 2.32-1.29 2.69-2.14.22-.52.21-1.06-.07-1.59-.65.19-1.3.34-1.95.42-1.21.16-2.49-.05-3.31-.52-.5-.29-.82-.68-.83-1.14-.04-1.65 3.62-2.6 6.44-.97.05.03.1.06.15.09l.32.22c4.05-1.93 7.8-6.07 7.54-9.1-5.23-.14-12.38 2.05-15.69 4.4l.38.18c.05.03.1.06.15.09 2.81 1.62 1.19 3.75-1.66 3.73-.8 0-1.47-.19-1.97-.48-.81-.47-1.18-1.21-.9-1.91.15-.38.39-.75.72-1.13-.92-.16-1.86-.16-2.75-.03-1.46.22-2.8.8-3.69 1.56 1.69.45 3.05.97 4.16 1.62 1.22.7 2.14 1.55 2.89 2.64 1.87.43 3.34.97 4.56 1.67 1.11.64 2.01 1.43 2.8 2.4m-13.31-.58c1.77-.15 3.85-1.18 3.82-2.26-1.9.03-3.63 1.17-3.89 2.23v.04s.07 0 .07 0m14.84-4.34c-.17-.09-.34-.18-.52-.26-.4-.19-.86-.33-1.39-.29-.73.05-.96.49-.66.67h.02c.66.38 1.81.09 2.55-.12m-7.48-4.32c-.37.43-.87 1.09-.2 1.48h.02c.31.17 1.06.04 1.15-.38.06-.31-.19-.58-.52-.81-.14-.1-.29-.2-.45-.3" fill="#eeba4e"/><path d="m79.55 87.1c.26-1.05 1.99-2.2 3.89-2.23.03 1.08-2.05 2.11-3.82 2.26h-.07s0-.04 0-.04z" fill="#ef9c40"/><path d="m95.57 83.97c.28.53.29 1.08.07 1.59-.37.85-1.37 1.63-2.69 2.14-.79-.98-1.69-1.76-2.8-2.4-1.22-.7-2.69-1.23-4.56-1.67-.75-1.08-1.68-1.93-2.89-2.64-1.11-.64-2.47-1.16-4.16-1.62.89-.76 2.23-1.35 3.69-1.56.89-.13 1.83-.13 2.75.03-.33.37-.57.75-.72 1.13-.28.7.09 1.44.9 1.91.5.29 1.18.47 1.97.48 2.85.02 4.48-2.11 1.66-3.73-.05-.03-.1-.06-.15-.09l-.38-.18c3.31-2.35 10.46-4.54 15.69-4.4.26 3.03-3.49 7.18-7.54 9.1l-.32-.22s-.1-.06-.15-.09c-2.81-1.62-6.47-.68-6.44.97.01.46.33.85.83 1.14.81.47 2.1.68 3.31.52.65-.09 1.3-.23 1.95-.42z" fill="#ef9c40"/><path d="m129.64 67.75-.02 7.97c-.02 6.06-4 12.11-11.96 16.74-16.02 9.31-42.08 9.31-58.2 0-8.12-4.69-12.17-10.84-12.15-16.98l.02-7.97c-.02 6.14 4.04 12.29 12.15 16.98 16.12 9.31 42.18 9.31 58.2 0 7.96-4.63 11.94-10.68 11.96-16.74z" fill="#ef9c40"/><path d="m117.5 50.77c16.12 9.31 16.21 24.4.19 33.71s-42.08 9.31-58.2 0c-16.13-9.31-16.21-24.4-.19-33.71s42.08-9.31 58.21 0z" fill="#eeba4e"/><path d="m110.24 54.29c12.1 6.98 12.16 18.31.14 25.29-12.02 6.99-31.57 6.99-43.67 0-12.1-6.98-12.16-18.31-.14-25.29 12.02-6.99 31.57-6.99 43.67 0zm-21.72 22c2.86-.18 5.54-2.16 6.15-3.55.37-.87.3-1.79-.31-2.66 4.15-1.88 7.66-5.6 8.52-8.69.27-.97.26-1.78-.04-2.74-1.73-.22-3.14-.22-4.81-.06-5.33.51-11.76 2.56-14.98 4.96-1.51-.35-3.1-.39-4.6-.17-2.41.35-5.81 1.91-6.12 3.57 1.83.31 3.95.89 5.61 1.85.62.36 1.18.77 1.64 1.24l.26.39c-2.92.24-5.15 1.53-5.67 3.16-.21.65-.12 1.05-.05 1.69 1.14 0 1.72.1 2.91-.04 2.81-.31 5.03-1.6 5.44-3.29l.67.15c.81.26 1.52.59 2.15.94 1.66.96 2.68 2.19 3.22 3.24" fill="#ef9c40"/><path d="m83.6 66.81s-.01 0-.02 0c-.67-.39-.17-1.05.2-1.48.16.1.31.2.45.3.33.23.58.5.52.81-.09.42-.84.55-1.15.38z" fill="#ef9c40"/><path d="m89.37 69.1c.54-.04.99.11 1.39.29.18.08.35.17.52.26-.74.21-1.89.5-2.55.12 0 0-.01 0-.02 0-.3-.18-.07-.61.66-.67z" fill="#ef9c40"/><path d="m94.67 72.73c-.6 1.39-3.28 3.37-6.14 3.55-.54-1.06-1.56-2.28-3.22-3.24-.62-.36-1.34-.68-2.15-.94l-.67-.15c-.41 1.69-2.63 2.99-5.44 3.29-1.2.13-1.78.05-2.91.04-.07-.64-.16-1.04.05-1.69.52-1.63 2.76-2.92 5.67-3.16l-.26-.39c-.46-.47-1.02-.88-1.64-1.24-1.66-.96-3.78-1.55-5.61-1.85.3-1.66 3.71-3.22 6.11-3.57 1.5-.22 3.08-.18 4.6.17 3.23-2.41 9.65-4.46 14.98-4.96 1.67-.16 3.08-.16 4.72.02.38 1 .39 1.82.12 2.78-.86 3.09-4.38 6.82-8.52 8.69.61.88.68 1.79.31 2.66zm-4.91 1.81c1.31-.52 2.32-1.29 2.69-2.14.22-.52.21-1.06-.07-1.59-.65.19-1.3.34-1.95.42-1.21.16-2.49-.05-3.31-.52-.5-.29-.82-.68-.83-1.14-.04-1.65 3.62-2.6 6.44-.97l.15.09.32.22c4.05-1.93 7.8-6.07 7.54-9.1-5.23-.14-12.38 2.05-15.69 4.4l.38.18.15.09c2.81 1.62 1.19 3.75-1.66 3.73-.8 0-1.47-.19-1.97-.48-.81-.47-1.18-1.21-.9-1.91.15-.38.39-.75.72-1.13-.92-.16-1.86-.16-2.75-.03-1.46.22-2.8.8-3.69 1.56 1.69.45 3.05.97 4.16 1.62 1.22.7 2.14 1.55 2.89 2.64 1.87.43 3.34.97 4.56 1.67 1.11.64 2.01 1.43 2.8 2.4m-13.31-.57c1.77-.15 3.85-1.18 3.82-2.26-1.9.03-3.63 1.17-3.89 2.23v.04s.07 0 .07 0m14.84-4.34c-.17-.09-.34-.18-.52-.26-.4-.19-.86-.33-1.39-.29-.73.05-.96.49-.66.67h.02c.66.38 1.81.09 2.55-.12m-7.48-4.32c-.37.43-.87 1.09-.2 1.48h.02c.31.17 1.06.04 1.15-.38.06-.31-.19-.58-.52-.81-.14-.1-.29-.2-.45-.3" fill="#eeba4e"/><path d="m76.36 73.94c.26-1.05 1.99-2.2 3.89-2.23.03 1.08-2.05 2.11-3.82 2.26h-.07s0-.04 0-.04z" fill="#ef9c40"/><path d="m92.38 70.81c.28.53.29 1.08.07 1.59-.37.85-1.37 1.63-2.69 2.14-.79-.98-1.69-1.76-2.8-2.4-1.22-.7-2.69-1.23-4.56-1.67-.75-1.08-1.68-1.93-2.89-2.64-1.11-.64-2.47-1.16-4.16-1.62.89-.76 2.23-1.35 3.69-1.56.89-.13 1.83-.13 2.75.03-.33.37-.57.75-.72 1.13-.28.7.09 1.44.9 1.91.5.29 1.18.47 1.97.48 2.85.02 4.48-2.11 1.66-3.73-.05-.03-.1-.06-.15-.09l-.38-.18c3.31-2.35 10.46-4.54 15.69-4.4.26 3.03-3.49 7.18-7.54 9.1l-.32-.22s-.1-.06-.15-.09c-2.81-1.62-6.47-.68-6.44.97.01.46.33.85.83 1.14.81.47 2.1.68 3.31.52.65-.09 1.3-.23 1.95-.42z" fill="#ef9c40"/><path d="m132.83 55.18-.02 7.97c-.02 6.06-4 12.11-11.96 16.74-16.02 9.31-42.08 9.31-58.2 0-8.12-4.69-12.17-10.84-12.15-16.98l.02-7.97c-.02 6.14 4.04 12.29 12.15 16.98 16.12 9.31 42.18 9.31 58.2 0 7.96-4.63 11.94-10.68 11.96-16.74z" fill="#ef9c40"/><path d="m120.68 38.21c16.12 9.31 16.21 24.4.19 33.71s-42.08 9.31-58.2 0c-16.13-9.31-16.21-24.4-.19-33.71s42.08-9.31 58.21 0z" fill="#eeba4e"/><path d="m113.43 41.73c12.1 6.98 12.16 18.31.14 25.29-12.02 6.99-31.57 6.99-43.67 0-12.1-6.98-12.16-18.31-.14-25.29 12.02-6.99 31.57-6.99 43.67 0zm-21.72 21.99c2.86-.18 5.54-2.16 6.15-3.55.37-.87.3-1.79-.31-2.66 4.15-1.88 7.66-5.6 8.52-8.69.27-.97.26-1.78-.04-2.74-1.73-.22-3.14-.22-4.81-.06-5.33.51-11.76 2.56-14.98 4.96-1.51-.35-3.1-.39-4.6-.17-2.41.35-5.81 1.91-6.12 3.57 1.83.31 3.95.89 5.61 1.85.62.36 1.18.77 1.64 1.24l.26.39c-2.92.24-5.15 1.53-5.67 3.16-.21.65-.12 1.05-.05 1.69 1.14 0 1.72.1 2.91-.04 2.81-.31 5.03-1.6 5.44-3.29l.67.15c.81.26 1.52.59 2.15.94 1.66.96 2.68 2.19 3.22 3.24" fill="#ef9c40"/><path d="m86.79 54.25s-.01 0-.02 0c-.67-.39-.17-1.05.2-1.48.16.1.31.2.45.3.33.23.58.5.52.81-.09.42-.84.55-1.15.38z" fill="#ef9c40"/><path d="m92.56 56.53c.54-.04.99.11 1.39.29.18.08.35.17.52.26-.74.21-1.89.5-2.55.12 0 0-.01 0-.02 0-.3-.18-.07-.61.66-.67z" fill="#ef9c40"/><path d="m97.86 60.17c-.6 1.39-3.28 3.37-6.14 3.55-.54-1.06-1.56-2.28-3.22-3.24-.62-.36-1.34-.68-2.15-.94l-.67-.15c-.41 1.69-2.63 2.99-5.44 3.29-1.2.13-1.78.05-2.91.04-.07-.64-.16-1.04.05-1.69.52-1.63 2.76-2.92 5.67-3.16l-.26-.39c-.46-.47-1.02-.88-1.64-1.24-1.66-.96-3.78-1.55-5.61-1.85.3-1.66 3.71-3.22 6.11-3.57 1.5-.22 3.08-.18 4.6.17 3.23-2.41 9.65-4.46 14.98-4.96 1.67-.16 3.08-.16 4.72.02.38 1 .39 1.82.12 2.78-.86 3.09-4.38 6.82-8.52 8.69.61.88.68 1.79.31 2.66zm-4.91 1.81c1.31-.52 2.32-1.29 2.69-2.14.22-.52.21-1.06-.07-1.59-.65.19-1.3.34-1.95.42-1.21.16-2.49-.05-3.31-.52-.5-.29-.82-.68-.83-1.14-.04-1.65 3.62-2.6 6.44-.97.05.03.1.06.15.09l.32.22c4.05-1.93 7.8-6.07 7.54-9.1-5.23-.14-12.38 2.05-15.69 4.4l.38.18c.05.03.1.06.15.09 2.81 1.62 1.19 3.75-1.66 3.73-.8 0-1.47-.19-1.97-.48-.81-.47-1.18-1.21-.9-1.91.15-.38.39-.75.72-1.13-.92-.16-1.86-.16-2.75-.03-1.46.22-2.8.8-3.69 1.56 1.69.45 3.05.97 4.16 1.62 1.22.7 2.14 1.55 2.89 2.64 1.87.43 3.34.97 4.56 1.67 1.11.64 2.01 1.43 2.8 2.4m-13.31-.57c1.77-.15 3.85-1.18 3.82-2.26-1.9.03-3.63 1.17-3.89 2.23v.04s.07 0 .07 0m14.84-4.34c-.17-.09-.34-.18-.52-.26-.4-.19-.86-.33-1.39-.29-.73.05-.96.49-.66.67h.02c.66.38 1.81.09 2.55-.12m-7.48-4.33c-.37.43-.87 1.09-.2 1.48h.02c.31.17 1.06.04 1.15-.38.06-.31-.19-.58-.52-.81-.14-.1-.29-.2-.45-.3" fill="#eeba4e"/><path d="m79.55 61.38c.26-1.05 1.99-2.2 3.89-2.23.03 1.08-2.05 2.11-3.82 2.26h-.07s0-.04 0-.04z" fill="#ef9c40"/><path d="m95.57 58.25c.28.53.29 1.08.07 1.59-.37.85-1.37 1.63-2.69 2.14-.79-.98-1.69-1.76-2.8-2.4-1.22-.7-2.69-1.23-4.56-1.67-.75-1.08-1.68-1.93-2.89-2.64-1.11-.64-2.47-1.16-4.16-1.62.89-.76 2.23-1.35 3.69-1.56.89-.13 1.83-.13 2.75.03-.33.37-.57.75-.72 1.13-.28.7.09 1.44.9 1.91.5.29 1.18.47 1.97.48 2.85.02 4.48-2.11 1.66-3.73-.05-.03-.1-.06-.15-.09l-.38-.18c3.31-2.35 10.46-4.54 15.69-4.4.26 3.03-3.49 7.18-7.54 9.1l-.32-.22s-.1-.06-.15-.09c-2.81-1.62-6.47-.68-6.44.97.01.46.33.85.83 1.14.81.47 2.1.68 3.31.52.65-.09 1.3-.23 1.95-.42z" fill="#ef9c40"/><path d="m129.64 42.03-.02 7.97c-.02 6.06-4 12.11-11.96 16.74-16.02 9.31-42.08 9.31-58.2 0-8.12-4.69-12.17-10.84-12.15-16.98l.02-7.97c-.02 6.14 4.04 12.29 12.15 16.98 16.12 9.31 42.18 9.31 58.2 0 7.96-4.63 11.94-10.68 11.96-16.74z" fill="#ef9c40"/><path d="m117.5 25.05c16.12 9.31 16.21 24.4.19 33.71s-42.08 9.31-58.2 0c-16.13-9.31-16.21-24.4-.19-33.71s42.08-9.31 58.21 0z" fill="#eeba4e"/><path d="m110.24 28.57c12.1 6.98 12.16 18.31.14 25.29-12.02 6.99-31.57 6.99-43.67 0-12.1-6.98-12.16-18.31-.14-25.29 12.02-6.99 31.57-6.99 43.67 0zm-21.72 22c2.86-.18 5.54-2.16 6.15-3.55.37-.87.3-1.79-.31-2.66 4.15-1.88 7.66-5.6 8.52-8.69.27-.97.26-1.78-.04-2.74-1.73-.22-3.14-.22-4.81-.06-5.33.51-11.76 2.56-14.98 4.96-1.51-.35-3.1-.39-4.6-.17-2.41.35-5.81 1.91-6.12 3.57 1.83.31 3.95.89 5.61 1.85.62.36 1.18.77 1.64 1.24l.26.39c-2.92.24-5.15 1.53-5.67 3.16-.21.65-.12 1.05-.05 1.69 1.14 0 1.72.1 2.91-.04 2.81-.31 5.03-1.6 5.44-3.29l.67.15c.81.26 1.52.59 2.15.94 1.66.96 2.68 2.19 3.22 3.24" fill="#ef9c40"/><path d="m83.6 41.1s-.01 0-.02 0c-.67-.39-.17-1.05.2-1.48.16.1.31.2.45.3.33.23.58.5.52.81-.09.42-.84.55-1.15.38z" fill="#ef9c40"/><path d="m89.37 43.38c.54-.04.99.11 1.39.29.18.08.35.17.52.26-.74.21-1.89.5-2.55.12 0 0-.01 0-.02 0-.3-.18-.07-.61.66-.67z" fill="#ef9c40"/><path d="m94.67 47.01c-.6 1.39-3.28 3.37-6.14 3.55-.54-1.06-1.56-2.28-3.22-3.24-.62-.36-1.34-.68-2.15-.94l-.67-.15c-.41 1.69-2.63 2.99-5.44 3.29-1.2.13-1.78.05-2.91.04-.07-.64-.16-1.04.05-1.69.52-1.63 2.76-2.92 5.67-3.16l-.26-.39c-.46-.47-1.02-.88-1.64-1.24-1.66-.96-3.78-1.55-5.61-1.85.3-1.66 3.71-3.22 6.11-3.57 1.5-.22 3.08-.18 4.6.17 3.23-2.41 9.65-4.46 14.98-4.96 1.67-.16 3.08-.16 4.72.02.38 1 .39 1.82.12 2.78-.86 3.09-4.38 6.82-8.52 8.69.61.88.68 1.79.31 2.66zm-4.91 1.82c1.31-.52 2.32-1.29 2.69-2.14.22-.52.21-1.06-.07-1.59-.65.19-1.3.34-1.95.42-1.21.16-2.49-.05-3.31-.52-.5-.29-.82-.68-.83-1.14-.04-1.65 3.62-2.6 6.44-.97l.15.09.32.22c4.05-1.93 7.8-6.07 7.54-9.1-5.23-.14-12.38 2.05-15.69 4.4l.38.18c.05.03.1.06.15.09 2.81 1.62 1.19 3.75-1.66 3.73-.8 0-1.47-.19-1.97-.48-.81-.47-1.18-1.21-.9-1.91.15-.38.39-.75.72-1.13-.92-.16-1.86-.16-2.75-.03-1.46.22-2.8.8-3.69 1.56 1.69.45 3.05.97 4.16 1.62 1.22.7 2.14 1.55 2.89 2.64 1.87.43 3.34.97 4.56 1.67 1.11.64 2.01 1.43 2.8 2.4m-13.31-.58c1.77-.15 3.85-1.18 3.82-2.26-1.9.03-3.63 1.17-3.89 2.23v.04s.07 0 .07 0m14.84-4.34c-.17-.09-.34-.18-.52-.26-.4-.19-.86-.33-1.39-.29-.73.05-.96.49-.66.67h.02c.66.38 1.81.09 2.55-.12m-7.48-4.32c-.37.43-.87 1.09-.2 1.48h.02c.31.17 1.06.04 1.15-.38.06-.31-.19-.58-.52-.81-.14-.1-.29-.2-.45-.3" fill="#eeba4e"/><path d="m76.36 48.22c.26-1.05 1.99-2.2 3.89-2.23.03 1.08-2.05 2.11-3.82 2.26h-.07s0-.04 0-.04z" fill="#ef9c40"/><path d="m92.38 45.09c.28.53.29 1.08.07 1.59-.37.85-1.37 1.63-2.69 2.14-.79-.98-1.69-1.76-2.8-2.4-1.22-.7-2.69-1.23-4.56-1.67-.75-1.08-1.68-1.93-2.89-2.64-1.11-.64-2.47-1.16-4.16-1.62.89-.76 2.23-1.35 3.69-1.56.89-.13 1.83-.13 2.75.03-.33.37-.57.75-.72 1.13-.28.7.09 1.44.9 1.91.5.29 1.18.47 1.97.48 2.85.02 4.48-2.11 1.66-3.73-.05-.03-.1-.06-.15-.09l-.38-.18c3.31-2.35 10.46-4.54 15.69-4.4.26 3.03-3.49 7.18-7.54 9.1l-.32-.22s-.1-.06-.15-.09c-2.81-1.62-6.47-.68-6.44.97.01.46.33.85.83 1.14.81.47 2.1.68 3.31.52.65-.09 1.3-.23 1.95-.42z" fill="#ef9c40"/><path d="m131.24 27.67-.02 7.97c-.02 6.06-4 12.11-11.96 16.74-16.02 9.31-42.08 9.31-58.2 0-8.12-4.69-12.17-10.84-12.15-16.98l.02-7.97c-.02 6.14 4.04 12.29 12.15 16.98 16.12 9.31 42.18 9.31 58.2 0 7.96-4.63 11.94-10.68 11.96-16.74z" fill="#ef9c40"/><path d="m119.09 10.69c16.12 9.31 16.21 24.4.19 33.71s-42.08 9.31-58.2 0c-16.13-9.31-16.21-24.4-.19-33.71 16.02-9.31 42.08-9.31 58.21 0z" fill="#eeba4e"/><path d="m111.84 14.21c12.1 6.98 12.16 18.31.14 25.29-12.02 6.99-31.57 6.99-43.67 0-12.1-6.98-12.16-18.31-.14-25.29 12.02-6.99 31.57-6.99 43.67 0zm-21.72 22c2.86-.18 5.54-2.16 6.15-3.55.37-.87.3-1.79-.31-2.66 4.15-1.88 7.66-5.6 8.52-8.69.27-.97.26-1.78-.04-2.74-1.73-.22-3.14-.22-4.81-.06-5.33.51-11.76 2.56-14.98 4.96-1.51-.35-3.1-.39-4.6-.17-2.41.35-5.81 1.91-6.12 3.57 1.83.31 3.95.89 5.61 1.85.62.36 1.18.77 1.64 1.24l.26.39c-2.92.24-5.15 1.53-5.67 3.16-.21.65-.12 1.05-.05 1.69 1.14 0 1.72.1 2.91-.04 2.81-.31 5.03-1.6 5.44-3.29l.67.15c.81.26 1.52.59 2.15.94 1.66.96 2.68 2.19 3.22 3.24" fill="#ef9c40"/><path d="m85.2 26.73s-.01 0-.02 0c-.67-.39-.17-1.05.2-1.48.16.1.31.2.45.3.33.23.58.5.52.81-.09.42-.84.55-1.15.38z" fill="#ef9c40"/><path d="m90.96 29.02c.54-.04.99.11 1.39.29.18.08.35.17.52.26-.74.21-1.89.5-2.55.12 0 0-.01 0-.02 0-.3-.18-.07-.61.66-.67z" fill="#ef9c40"/><path d="m96.26 32.65c-.6 1.39-3.28 3.37-6.14 3.55-.54-1.06-1.56-2.28-3.22-3.24-.62-.36-1.34-.68-2.15-.94l-.67-.15c-.41 1.69-2.63 2.99-5.44 3.29-1.2.13-1.78.05-2.91.04-.07-.64-.16-1.04.05-1.69.52-1.63 2.76-2.92 5.67-3.16l-.26-.39c-.46-.47-1.02-.88-1.64-1.24-1.66-.96-3.78-1.55-5.61-1.85.3-1.66 3.71-3.22 6.11-3.57 1.5-.22 3.08-.18 4.6.17 3.23-2.41 9.65-4.46 14.98-4.96 1.67-.16 3.08-.16 4.72.02.38 1 .39 1.82.12 2.78-.86 3.09-4.38 6.82-8.52 8.69.61.88.68 1.79.31 2.66zm-4.91 1.81c1.31-.52 2.32-1.29 2.69-2.14.22-.52.21-1.06-.07-1.59-.65.19-1.3.34-1.95.42-1.21.16-2.49-.05-3.31-.52-.5-.29-.82-.68-.83-1.14-.04-1.65 3.62-2.6 6.44-.97.05.03.1.06.15.09l.32.22c4.05-1.93 7.8-6.07 7.54-9.1-5.23-.14-12.38 2.05-15.69 4.4l.38.18c.05.03.1.06.15.09 2.81 1.62 1.19 3.75-1.66 3.73-.8 0-1.47-.19-1.97-.48-.81-.47-1.18-1.21-.9-1.91.15-.38.39-.75.72-1.13-.92-.16-1.86-.16-2.75-.03-1.46.22-2.8.8-3.69 1.56 1.69.45 3.05.97 4.16 1.62 1.22.7 2.14 1.55 2.89 2.64 1.87.43 3.34.97 4.56 1.67 1.11.64 2.01 1.43 2.8 2.4m-13.31-.57c1.77-.15 3.85-1.18 3.82-2.26-1.9.03-3.63 1.17-3.89 2.23v.04s.07 0 .07 0m14.85-4.34c-.17-.09-.34-.18-.52-.26-.4-.19-.86-.33-1.39-.29-.73.05-.96.49-.66.67h.02c.66.38 1.81.09 2.55-.12m-7.49-4.32c-.37.43-.87 1.09-.2 1.48h.02c.31.17 1.06.04 1.15-.38.06-.31-.19-.58-.52-.81-.14-.1-.29-.2-.45-.3" fill="#eeba4e"/><path d="m77.96 33.86c.26-1.05 1.99-2.2 3.89-2.23.03 1.08-2.05 2.11-3.82 2.26h-.07s0-.04 0-.04z" fill="#ef9c40"/><path d="m93.98 30.73c.28.53.29 1.08.07 1.59-.37.85-1.37 1.63-2.69 2.14-.79-.98-1.69-1.76-2.8-2.4-1.22-.7-2.69-1.23-4.56-1.67-.75-1.08-1.68-1.93-2.89-2.64-1.11-.64-2.47-1.16-4.16-1.62.89-.76 2.23-1.35 3.69-1.56.89-.13 1.83-.13 2.75.03-.33.37-.57.75-.72 1.13-.28.7.09 1.44.9 1.91.5.29 1.18.47 1.97.48 2.85.02 4.48-2.11 1.66-3.73-.05-.03-.1-.06-.15-.09l-.38-.18c3.31-2.35 10.46-4.54 15.69-4.4.26 3.03-3.49 7.18-7.54 9.1l-.32-.22s-.1-.06-.15-.09c-2.81-1.62-6.47-.68-6.44.97.01.46.33.85.83 1.14.81.47 2.1.68 3.31.52.65-.09 1.3-.23 1.95-.42z" fill="#ef9c40"/><path d="m150.86 136.72c16.29 9.41 16.38 24.66.19 34.07s-42.53 9.41-58.82 0c-16.3-9.41-16.39-24.66-.19-34.07 16.19-9.41 42.53-9.41 58.82 0z" opacity=".11"/><path d="m163.9 142.32-.02 7.97c-.02 6.06-4 12.11-11.96 16.74-16.02 9.31-42.08 9.31-58.2 0-8.12-4.69-12.17-10.84-12.15-16.98l.02-7.97c-.02 6.14 4.04 12.29 12.15 16.98 16.12 9.31 42.18 9.31 58.2 0 7.96-4.63 11.94-10.68 11.96-16.74z" fill="#ef9c40"/><path d="m151.75 125.34c16.12 9.31 16.21 24.4.19 33.71s-42.08 9.31-58.2 0c-16.13-9.31-16.21-24.4-.19-33.71s42.08-9.31 58.21 0z" fill="#eeba4e"/><path d="m144.49 128.86c12.1 6.98 12.16 18.31.14 25.29-12.02 6.99-31.57 6.99-43.67 0-12.1-6.98-12.16-18.31-.14-25.29 12.02-6.99 31.57-6.99 43.67 0zm-21.72 22c2.86-.18 5.54-2.16 6.15-3.55.37-.87.3-1.79-.31-2.66 4.15-1.88 7.66-5.6 8.52-8.69.27-.97.26-1.78-.04-2.74-1.73-.22-3.14-.22-4.81-.06-5.33.51-11.76 2.56-14.98 4.96-1.51-.35-3.1-.39-4.6-.17-2.41.35-5.81 1.91-6.12 3.57 1.83.31 3.95.89 5.61 1.85.62.36 1.18.77 1.64 1.24l.26.39c-2.92.24-5.15 1.53-5.67 3.16-.21.65-.12 1.05-.05 1.69 1.14 0 1.72.1 2.91-.04 2.81-.31 5.03-1.6 5.44-3.29l.67.15c.81.26 1.52.59 2.15.94 1.66.96 2.68 2.19 3.22 3.24" fill="#ef9c40"/><path d="m117.86 141.38s-.01 0-.02 0c-.67-.39-.17-1.05.2-1.48.16.1.31.2.45.3.33.23.58.5.52.81-.09.42-.84.55-1.15.38z" fill="#ef9c40"/><path d="m123.62 143.66c.54-.04.99.11 1.39.29.18.08.35.17.52.26-.74.21-1.89.5-2.55.12 0 0-.01 0-.02 0-.3-.18-.07-.61.66-.67z" fill="#ef9c40"/><path d="m128.92 147.3c-.6 1.39-3.28 3.37-6.14 3.55-.54-1.06-1.56-2.28-3.22-3.24-.62-.36-1.34-.68-2.15-.94l-.67-.15c-.41 1.69-2.63 2.99-5.44 3.29-1.2.13-1.78.05-2.91.04-.07-.64-.16-1.04.05-1.69.52-1.63 2.76-2.92 5.67-3.16l-.26-.39c-.46-.47-1.02-.88-1.64-1.24-1.66-.96-3.78-1.55-5.61-1.85.3-1.66 3.71-3.22 6.11-3.57 1.5-.22 3.08-.18 4.6.17 3.23-2.41 9.65-4.46 14.98-4.96 1.67-.16 3.08-.16 4.72.02.38 1 .39 1.82.12 2.78-.86 3.09-4.38 6.82-8.52 8.69.61.88.68 1.79.31 2.66zm-4.91 1.81c1.31-.52 2.32-1.29 2.69-2.14.22-.52.21-1.06-.07-1.59-.65.19-1.3.34-1.95.42-1.21.16-2.49-.05-3.31-.52-.5-.29-.82-.68-.83-1.14-.04-1.65 3.62-2.6 6.44-.97l.15.09.32.22c4.05-1.93 7.8-6.07 7.54-9.1-5.23-.14-12.38 2.05-15.69 4.4l.38.18c.05.03.1.06.15.09 2.81 1.62 1.19 3.75-1.66 3.73-.8 0-1.47-.19-1.97-.48-.81-.47-1.18-1.21-.9-1.91.15-.38.39-.75.72-1.13-.92-.16-1.86-.16-2.75-.03-1.46.22-2.8.8-3.69 1.56 1.69.45 3.05.97 4.16 1.62 1.22.7 2.14 1.55 2.89 2.64 1.87.43 3.34.97 4.56 1.67 1.11.64 2.01 1.43 2.8 2.4m-13.31-.57c1.77-.15 3.85-1.18 3.82-2.26-1.9.03-3.63 1.17-3.89 2.23v.04s.07 0 .07 0m14.85-4.34c-.17-.09-.34-.18-.52-.26-.4-.19-.86-.33-1.39-.29-.73.05-.96.49-.66.67h.02c.66.38 1.81.09 2.55-.12m-7.49-4.32c-.37.43-.87 1.09-.2 1.48h.02c.31.17 1.06.04 1.15-.38.06-.31-.19-.58-.52-.81-.14-.1-.29-.2-.45-.3" fill="#eeba4e"/><path d="m110.61 148.51c.26-1.05 1.99-2.2 3.89-2.23.03 1.08-2.05 2.11-3.82 2.26h-.07s0-.04 0-.04z" fill="#ef9c40"/><path d="m126.63 145.38c.28.53.29 1.08.07 1.59-.37.85-1.37 1.63-2.69 2.14-.79-.98-1.69-1.76-2.8-2.4-1.22-.7-2.69-1.23-4.56-1.67-.75-1.08-1.68-1.93-2.89-2.64-1.11-.64-2.47-1.16-4.16-1.62.89-.76 2.23-1.35 3.69-1.56.89-.13 1.83-.13 2.75.03-.33.37-.57.75-.72 1.13-.28.7.09 1.44.9 1.91.5.29 1.18.47 1.97.48 2.85.02 4.48-2.11 1.66-3.73-.05-.03-.1-.06-.15-.09l-.38-.18c3.31-2.35 10.46-4.54 15.69-4.4.26 3.03-3.49 7.18-7.54 9.1l-.32-.22s-.1-.06-.15-.09c-2.81-1.62-6.47-.68-6.44.97.01.46.33.85.83 1.14.81.47 2.1.68 3.31.52.65-.09 1.3-.23 1.95-.42z" fill="#ef9c40"/><path d="m163.25 129.77-.02 7.97c-.02 6.06-4 12.11-11.96 16.74-16.02 9.31-42.08 9.31-58.2 0-8.12-4.69-12.17-10.84-12.15-16.98l.02-7.97c-.02 6.14 4.04 12.29 12.15 16.98 16.12 9.31 42.18 9.31 58.2 0 7.96-4.63 11.94-10.68 11.96-16.74z" fill="#ef9c40"/><path d="m151.1 112.79c16.12 9.31 16.21 24.4.19 33.71s-42.08 9.31-58.2 0c-16.13-9.31-16.21-24.4-.19-33.71s42.08-9.31 58.21 0z" fill="#eeba4e"/><path d="m143.84 116.31c12.1 6.98 12.16 18.31.14 25.29-12.02 6.99-31.57 6.99-43.67 0-12.1-6.98-12.16-18.31-.14-25.29 12.02-6.99 31.57-6.99 43.67 0zm-21.72 22c2.86-.18 5.54-2.16 6.15-3.55.37-.87.3-1.79-.31-2.66 4.15-1.88 7.66-5.6 8.52-8.69.27-.97.26-1.78-.04-2.74-1.73-.22-3.14-.22-4.81-.06-5.33.51-11.76 2.56-14.98 4.96-1.51-.35-3.1-.39-4.6-.17-2.41.35-5.81 1.91-6.12 3.57 1.83.31 3.95.89 5.61 1.85.62.36 1.18.77 1.64 1.24l.26.39c-2.92.24-5.15 1.53-5.67 3.16-.21.65-.12 1.05-.05 1.69 1.14 0 1.72.1 2.91-.04 2.81-.31 5.03-1.6 5.44-3.29l.67.15c.81.26 1.52.59 2.15.94 1.66.96 2.68 2.19 3.22 3.24" fill="#ef9c40"/><path d="m117.21 128.84s-.01 0-.02 0c-.67-.39-.17-1.05.2-1.48.16.1.31.2.45.3.33.23.58.5.52.81-.09.42-.84.55-1.15.38z" fill="#ef9c40"/><path d="m122.97 131.12c.54-.04.99.11 1.39.29.18.08.35.17.52.26-.74.21-1.89.5-2.55.12 0 0-.01 0-.02 0-.3-.18-.07-.61.66-.67z" fill="#ef9c40"/><path d="m128.27 134.75c-.6 1.39-3.28 3.37-6.14 3.55-.54-1.06-1.56-2.28-3.22-3.24-.62-.36-1.34-.68-2.15-.94l-.67-.15c-.41 1.69-2.63 2.99-5.44 3.29-1.2.13-1.78.05-2.91.04-.07-.64-.16-1.04.05-1.69.52-1.63 2.76-2.92 5.67-3.16l-.26-.39c-.46-.47-1.02-.88-1.64-1.24-1.66-.96-3.78-1.55-5.61-1.85.3-1.66 3.71-3.22 6.11-3.57 1.5-.22 3.08-.18 4.6.17 3.23-2.41 9.65-4.46 14.98-4.96 1.67-.16 3.08-.16 4.72.02.38 1 .39 1.82.12 2.78-.86 3.09-4.38 6.82-8.52 8.69.61.88.68 1.79.31 2.66zm-4.91 1.82c1.31-.52 2.32-1.29 2.69-2.14.22-.52.21-1.06-.07-1.59-.65.19-1.3.34-1.95.42-1.21.16-2.49-.05-3.31-.52-.5-.29-.82-.68-.83-1.14-.04-1.65 3.62-2.6 6.44-.97.05.03.1.06.15.09l.32.22c4.05-1.93 7.8-6.07 7.54-9.1-5.23-.14-12.38 2.05-15.69 4.4l.38.18.15.09c2.81 1.62 1.19 3.75-1.66 3.73-.8 0-1.47-.19-1.97-.48-.81-.47-1.18-1.21-.9-1.91.15-.38.39-.75.72-1.13-.92-.16-1.86-.16-2.75-.03-1.46.22-2.8.8-3.69 1.56 1.69.45 3.05.97 4.16 1.62 1.22.7 2.14 1.55 2.89 2.64 1.87.43 3.34.97 4.56 1.67 1.11.64 2.01 1.43 2.8 2.4m-13.31-.58c1.77-.15 3.85-1.18 3.82-2.26-1.9.03-3.63 1.17-3.89 2.23v.04s.07 0 .07 0m14.85-4.34c-.17-.09-.34-.18-.52-.26-.4-.19-.86-.33-1.39-.29-.73.05-.96.49-.66.67h.02c.66.38 1.81.09 2.55-.12m-7.49-4.32c-.37.43-.87 1.09-.2 1.48h.02c.31.17 1.06.04 1.15-.38.06-.31-.19-.58-.52-.81-.14-.1-.29-.2-.45-.3" fill="#eeba4e"/><path d="m109.96 135.96c.26-1.05 1.99-2.2 3.89-2.23.03 1.08-2.05 2.11-3.82 2.26h-.07s0-.04 0-.04z" fill="#ef9c40"/><path d="m125.98 132.83c.28.53.29 1.08.07 1.59-.37.85-1.37 1.63-2.69 2.14-.79-.98-1.69-1.76-2.8-2.4-1.22-.7-2.69-1.23-4.56-1.67-.75-1.08-1.68-1.93-2.89-2.64-1.11-.64-2.47-1.16-4.16-1.62.89-.76 2.23-1.35 3.69-1.56.89-.13 1.83-.13 2.75.03-.33.37-.57.75-.72 1.13-.28.7.09 1.44.9 1.91.5.29 1.18.47 1.97.48 2.85.02 4.48-2.11 1.66-3.73-.05-.03-.1-.06-.15-.09l-.38-.18c3.31-2.35 10.46-4.54 15.69-4.4.26 3.03-3.49 7.18-7.54 9.1l-.32-.22s-.1-.06-.15-.09c-2.81-1.62-6.47-.68-6.44.97.01.46.33.85.83 1.14.81.47 2.1.68 3.31.52.65-.09 1.3-.23 1.95-.42z" fill="#ef9c40"/><path d="m160.06 116.62-.02 7.97c-.02 6.06-4 12.11-11.96 16.74-16.02 9.31-42.08 9.31-58.2 0-8.12-4.69-12.17-10.84-12.15-16.98l.02-7.97c-.02 6.14 4.04 12.29 12.15 16.98 16.12 9.31 42.18 9.31 58.2 0 7.96-4.63 11.94-10.68 11.96-16.74z" fill="#ef9c40"/><path d="m147.91 99.64c16.12 9.31 16.21 24.4.19 33.71s-42.08 9.31-58.2 0c-16.13-9.31-16.21-24.4-.19-33.71s42.08-9.31 58.21 0z" fill="#eeba4e"/><path d="m140.65 103.16c12.1 6.98 12.16 18.31.14 25.29-12.02 6.99-31.57 6.99-43.67 0-12.1-6.98-12.16-18.31-.14-25.29 12.02-6.99 31.57-6.99 43.67 0zm-21.72 21.99c2.86-.18 5.54-2.16 6.15-3.55.37-.87.3-1.79-.31-2.66 4.15-1.88 7.66-5.6 8.52-8.69.27-.97.26-1.78-.04-2.74-1.73-.22-3.14-.22-4.81-.06-5.33.51-11.76 2.56-14.98 4.96-1.51-.35-3.1-.39-4.6-.17-2.41.35-5.81 1.91-6.12 3.57 1.83.31 3.95.89 5.61 1.85.62.36 1.18.77 1.64 1.24l.26.39c-2.92.24-5.15 1.53-5.67 3.16-.21.65-.12 1.05-.05 1.69 1.14 0 1.72.1 2.91-.04 2.81-.31 5.03-1.6 5.44-3.29l.67.15c.81.26 1.52.59 2.15.94 1.66.96 2.68 2.19 3.22 3.24" fill="#ef9c40"/><path d="m114.02 115.68s-.01 0-.02 0c-.67-.39-.17-1.05.2-1.48.16.1.31.2.45.3.33.23.58.5.52.81-.09.42-.84.55-1.15.38z" fill="#ef9c40"/><path d="m119.78 117.96c.54-.04.99.11 1.39.29.18.08.35.17.52.26-.74.21-1.89.5-2.55.12 0 0-.01 0-.02 0-.3-.18-.07-.61.66-.67z" fill="#ef9c40"/><path d="m125.08 121.6c-.6 1.39-3.28 3.37-6.14 3.55-.54-1.06-1.56-2.28-3.22-3.24-.62-.36-1.34-.68-2.15-.94l-.67-.15c-.41 1.69-2.63 2.99-5.44 3.29-1.2.13-1.78.05-2.91.04-.07-.64-.16-1.04.05-1.69.52-1.63 2.76-2.92 5.67-3.16l-.26-.39c-.46-.47-1.02-.88-1.64-1.24-1.66-.96-3.78-1.55-5.61-1.85.3-1.66 3.71-3.22 6.11-3.57 1.5-.22 3.08-.18 4.6.17 3.23-2.41 9.65-4.46 14.98-4.96 1.67-.16 3.08-.16 4.72.02.38 1 .39 1.82.12 2.78-.86 3.09-4.38 6.82-8.52 8.69.61.88.68 1.79.31 2.66zm-4.91 1.81c1.31-.52 2.32-1.29 2.69-2.14.22-.52.21-1.06-.07-1.59-.65.19-1.3.34-1.95.42-1.21.16-2.49-.05-3.31-.52-.5-.29-.82-.68-.83-1.14-.04-1.65 3.62-2.6 6.44-.97.05.03.1.06.15.09l.32.22c4.05-1.93 7.8-6.07 7.54-9.1-5.23-.14-12.38 2.05-15.69 4.4l.38.18c.05.03.1.06.15.09 2.81 1.62 1.19 3.75-1.66 3.73-.8 0-1.47-.19-1.97-.48-.81-.47-1.18-1.21-.9-1.91.15-.38.39-.75.72-1.13-.92-.16-1.86-.16-2.75-.03-1.46.22-2.8.8-3.69 1.56 1.69.45 3.05.97 4.16 1.62 1.22.7 2.14 1.55 2.89 2.64 1.87.43 3.34.97 4.56 1.67 1.11.64 2.01 1.43 2.8 2.4m-13.31-.57c1.77-.15 3.85-1.18 3.82-2.26-1.9.03-3.63 1.17-3.89 2.23v.04s.07 0 .07 0m14.85-4.34c-.17-.09-.34-.18-.52-.26-.4-.19-.86-.33-1.39-.29-.73.05-.96.49-.66.67h.02c.66.38 1.81.09 2.55-.12m-7.49-4.32c-.37.43-.87 1.09-.2 1.48h.02c.31.17 1.06.04 1.15-.38.06-.31-.19-.58-.52-.81-.14-.1-.29-.2-.45-.3" fill="#eeba4e"/><path d="m106.77 122.81c.26-1.05 1.99-2.2 3.89-2.23.03 1.08-2.05 2.11-3.82 2.26h-.07s0-.04 0-.04z" fill="#ef9c40"/><path d="m122.79 119.68c.28.53.29 1.08.07 1.59-.37.85-1.37 1.63-2.69 2.14-.79-.98-1.69-1.76-2.8-2.4-1.22-.7-2.69-1.23-4.56-1.67-.75-1.08-1.68-1.93-2.89-2.64-1.11-.64-2.47-1.16-4.16-1.62.89-.76 2.23-1.35 3.69-1.56.89-.13 1.83-.13 2.75.03-.33.37-.57.75-.72 1.13-.28.7.09 1.44.9 1.91.5.29 1.18.47 1.97.48 2.85.02 4.48-2.11 1.66-3.73-.05-.03-.1-.06-.15-.09l-.38-.18c3.31-2.35 10.46-4.54 15.69-4.4.26 3.03-3.49 7.18-7.54 9.1l-.32-.22s-.1-.06-.15-.09c-2.81-1.62-6.47-.68-6.44.97.01.46.33.85.83 1.14.81.47 2.1.68 3.31.52.65-.09 1.3-.23 1.95-.42z" fill="#ef9c40"/><path d="m57.63 131.25-20.34 28.85-20.46-28.85 20.33-11.82z" fill="url(#b)"/><path d="m57.63 131.25-20.34 11.81-20.46-11.81 20.33-11.82z" fill="url(#c)"/><path d="m57.63 131.25-20.34 11.81-20.46-11.81 20.33-29.22z" fill="url(#d)"/><path d="m187.68 35.94-19 7.05-19.13-7.05 19-7.06z" fill="url(#e)"/><path d="m187.68 35.94 7.18 12.21-26.17 15.2-.01-20.36z" fill="url(#f)"/><path d="m168.68 42.99.01 20.36-26.34-15.2 7.2-12.21z" fill="url(#g)"/><path d="m194.86 48.15-26.21 35 .04-19.8z" fill="url(#h)"/><path d="m168.69 63.35-.04 19.8-26.3-35z" fill="url(#i)"/></svg>