<svg viewBox="0 0 200 195.97" xmlns="http://www.w3.org/2000/svg" xmlns:xlink="http://www.w3.org/1999/xlink"><linearGradient id="a" gradientUnits="userSpaceOnUse" x1=".02" x2="199.98" y1="137.96" y2="137.96"><stop offset="0" stop-color="#4b5faa"/><stop offset="1" stop-color="#80d2e0"/></linearGradient><linearGradient id="b" gradientTransform="matrix(1 0 0 -1 1758.43 372.71)" gradientUnits="userSpaceOnUse" x1="-1609.81" x2="-1609.81" y1="307.87" y2="319.94"><stop offset="0" stop-color="#d6c0d4"/><stop offset=".33" stop-color="#d3bed2"/><stop offset=".55" stop-color="#cbb6cd"/><stop offset=".73" stop-color="#bca8c5"/><stop offset=".89" stop-color="#a795b9"/><stop offset="1" stop-color="#9585ae"/></linearGradient><linearGradient id="c" gradientTransform="matrix(-1 -0 0 -1 6783.23 372.71)" gradientUnits="userSpaceOnUse" x1="6638.62" x2="6640.24" y1="322.14" y2="322.14"><stop offset="0" stop-color="#d6c0d4"/><stop offset=".23" stop-color="#d1bbd1"/><stop offset=".5" stop-color="#c3aec9"/><stop offset=".79" stop-color="#ab99bb"/><stop offset="1" stop-color="#9585ae"/></linearGradient><linearGradient id="d" gradientTransform="matrix(1 0 0 -1 1629 372.71)" gradientUnits="userSpaceOnUse" x1="-1578.31" x2="-1555.35" y1="327.65" y2="327.65"><stop offset="0" stop-color="#ff797d"/><stop offset=".64" stop-color="#ff897d"/><stop offset="1" stop-color="#ff947d"/></linearGradient><linearGradient id="e" gradientTransform="matrix(1 0 0 -1 1629 372.71)" x1="-1566.52" x2="-1566.52" xlink:href="#b" y1="341.56" y2="353.63"/><linearGradient id="f" gradientTransform="matrix(-1 -0 0 -1 6653.79 372.71)" x1="6594.95" x2="6598.21" xlink:href="#c" y1="356.39" y2="356.39"/><linearGradient id="g" gradientUnits="userSpaceOnUse" x1="53.83" x2="113.91" y1="119.07" y2="119.07"><stop offset="0" stop-color="#e9e3e9"/><stop offset=".36" stop-color="#e7e0e7"/><stop offset=".67" stop-color="#e1d5e1"/><stop offset=".96" stop-color="#d7c3d8"/><stop offset="1" stop-color="#d5c0d6"/></linearGradient><linearGradient id="h" gradientUnits="userSpaceOnUse" x1="53.76" x2="107.22" y1="122.55" y2="122.55"><stop offset="0" stop-color="#ff797d"/><stop offset=".3" stop-color="#ff7e7d"/><stop offset=".65" stop-color="#ff807d"/><stop offset="1" stop-color="#ff947d"/></linearGradient><linearGradient id="i" gradientUnits="userSpaceOnUse" x1="53.76" x2="107.22" y1="138.44" y2="138.44"><stop offset="0" stop-color="#ec4fe6"/><stop offset="1" stop-color="#ff8cda"/></linearGradient><linearGradient id="j" x1="39.68" x2="142.21" xlink:href="#i" y1="118.2" y2="118.2"/><path d="m170.45 96.92c39.2 22.6 39.4 59.2.4 82.1-38.8 22.6-102.1 22.6-141.3 0-39.2-22.6-39.4-59.2-.4-82.1 38.8-22.6 102.2-22.6 141.3 0z" fill="url(#a)"/><path d="m156.74 149.46c8.8 5.1 8.8 13.3.1 18.4s-23 5.1-31.8 0-8.8-13.3-.1-18.4 23-5.1 31.8 0z" fill="#2a3363" opacity=".2"/><path d="m144.75 59.38c-.06 1.7-1.34 3.03-3.04 2.96h-.2s-19.13-1.2-19.13-1.2l-1.4-.07-.62-1.09-2.26-7.55c-.52-.89-.24-2 .65-2.51.79-.52 1.9-.24 2.41.55l2.52 5.75 18.01.23c1.7-.14 3.03 1.24 3.06 2.94z" fill="#4e60ab"/><circle cx="118.65" cy="49.92" fill="#d6c0d4" r="3.7"/><path d="m145.34 37.36c.7-.6 1.7-.9 2.6-1.1 2.1-.4 4.4-.2 6 1 .6.5 1.1 1.1 1.5 1.8 1.8 3 1.9 6.6 2.2 10.1.3 3.4.8 6.8 1.9 10.1.1.2.1.4.3.5.1.1.3.1.5.2.8.1 1.6.2 2.3.3-.1.3-.4.4-.7.4-1.4.2-2.8-.1-4.1-.7-.9-.4-6.5-2.2-7.2-2.9-.6-.7-1-1.5-1.4-2.4-.8-1.7-1.7-3.4-2.7-5-1.5-2.5 1.6-3.6.7-6.4-.8-2.4-1-4-.5-6.4" fill="#10ccc5"/><path d="m140.94 160.46 6.8-7.8c1.3-1.4 3.4-1.6 4.9-.3 1.4 1.3 1.6 3.4.3 4.9-.2.2-.4.4-.7.6l-8.5 5.8c-1 .7-2.3.4-3-.6-.5-.9-.4-1.9.2-2.6z" fill="#2a3363"/><path d="m128.14 153.56 9.1-6c1.6-1 3.7-.6 4.8 1s.6 3.7-1 4.8c-.2.2-.5.3-.8.4l-10.3 3.6c-1.1.4-2.3-.2-2.7-1.3-.3-1 .1-2 .9-2.5z" fill="#2a3363"/><path d="m154.34 128.66-1.5 23.8c-.1 1.2-1.1 2.2-2.4 2.1-1.1-.1-2-1-2.1-2.1l-1.3-23.8c-.1-2 1.4-3.7 3.4-3.8s3.7 1.4 3.8 3.4c.1.1.1.3.1.4z" fill="#d6c0d4"/><path d="m142.94 124.16-1.5 23.8c-.1 1.2-1.1 2.2-2.4 2.1-1.1-.1-2-1-2.1-2.1l-1.3-23.8c-.1-2 1.4-3.7 3.4-3.8s3.7 1.4 3.8 3.4c.1.1.1.3.1.4z" fill="#d6c0d4"/><path d="m148.74 97.26-5.6 27.7c-.4 2.1-2.5 3.4-4.6 3-1.9-.4-3.1-2.1-3.1-3.9l.8-28.3c.1-3.5 3-6.2 6.5-6.1s6.2 3 6.1 6.5c0 .4 0 .8-.1 1.1z" fill="#80d1e0"/><path d="m158.64 101.56-4.1 27.4c-.3 2.1-2.3 3.6-4.4 3.2-1.9-.3-3.2-1.9-3.3-3.7l-.7-27.7c-.1-3.5 2.6-6.4 6.1-6.4 3.5-.1 6.4 2.6 6.4 6.1.1.3 0 .7 0 1.1z" fill="#80d1e0"/><path d="m158.34 96.26-1.8 13.2-20-2.7v-11.8z" fill="#80d1e0"/><path d="m136.44 94.86 12.1 6.4c4.5 2.3 9.9-1 9.9-6.1l-2-13.6 2-11.2c0-5.3 3.6-7.6-1.1-10l-8.9-3.1c-2.7-1-5.7-.7-8.2.8-3.7 2.2-3.5 5.4-3.5 8.9l1.6 10.7z" fill="#4e60ab"/><path d="m155.74 61.66c1.4-.9 3.3-.5 4.2.9l.1.1 9.3 16.8.7 1.2-.5 1.1-6.4 12.8c-.5.9-1.6 1.3-2.5.8-.9-.4-1.2-1.5-.9-2.3l4.8-12.1-9.6-15.2c-1-1.3-.6-3.2.8-4.1z" fill="#4e60ab"/><path d="m152.84 54.56v-1.7h-8.2v4.2l-.3 2.1c-.1.9 0 1.8.4 2.7l1.3 3.1 4-1.9c1.8-.9 2.9-2.7 2.9-4.7z" fill="url(#b)"/><path d="m147.24 56.66c3.6 0 6.6-2.9 6.6-6.6v-5.6c0-3.6-2.9-6.6-6.6-6.6-3.6 0-6.6 2.9-6.6 6.6l.4 5.6c0 3.7 2.6 6.6 6.2 6.6z" fill="#d6c0d4"/><path d="m153.54 48.86h1c.8 0 1.4-.6 1.4-1.4 0-.8-.6-1.4-1.4-1.4h-1z" fill="#d6c0d4"/><path d="m143.24 51.76 1.4-.3v-2.1h-.7l-.9 2.1c-.1.1 0 .4.2.3z" fill="url(#c)"/><g fill="#2a3363"><circle cx="147.24" cy="47.96" r=".6"/><circle cx="142.74" cy="47.36" r=".6"/><path d="m146.14 46.26c.5-.6 1.4-.8 2.1-.6.4.1.8.2 1.1.4s.6.4.8.7c-.4 0-.7-.1-1.1-.1-.3-.1-.6-.2-.9-.2s-.6-.1-.9-.1c-.4-.1-.7-.1-1.1-.1z"/><path d="m143.64 45.76c-.3-.1-.5-.1-.7-.2s-.4-.1-.6-.2-.4-.1-.5-.2l-.6-.3c.4-.4 1-.4 1.5-.3.2.1.5.2.6.4.1.3.3.5.3.8z"/></g><circle cx="160.74" cy="95.56" fill="#d6c0d4" r="3.7"/><path d="m145.54 54.16c-.2 0-.4 0-.5-.1l-.4-.1c-.1 0-.2-.1-.2-.2s.1-.2.2-.2l.4.1c.8.2 1.6-.1 2.1-.7.1-.1.2-.1.3 0s.1.2 0 .3c-.4.5-1.1.9-1.9.9z" fill="#2a3363"/><path d="m153.64 40.96c-.4-1.8-1.8-3.1-3.3-3.8s-.5-1.7-3.8-2.5c-3.7-.9-5.2.7-6.5 2-1.7 1.8-.8 4.3-.4 4.8 1.9 2.2 4.7 1 6.7 1 1.8 0 3.3-.2 4.8.9 2 1.5 1.7 4.3 1.3 7 1.6-1.4 1.6-5.9 3.2-8.5.1-.1.1-.2.1-.4 0-.1-.1-.2-.1-.3-.4-.6-.7-1.1-1.1-1.7-.5-.8.2-1.5-.5-2.1-1.6-1.4-5.3-2.8-7-1.5" fill="#10ccc5"/><path d="m69.4 118.21c8.8 5.1 8.8 13.3.1 18.4s-23 5.1-31.8 0-8.8-13.3-.1-18.4 23-5.1 31.8 0z" fill="#2a3363" opacity=".2"/><path d="m69.5 9.01c0 1.5-.3 6.6-.4 6.9-.1.6-.5 1-.9 1.4-1.1 1-2.2 2-3.4 2.9l2-7.9z" fill="#ff907e"/><path d="m54.7 130.81 6.8-7.8c1.3-1.4 3.4-1.6 4.9-.3 1.4 1.3 1.6 3.4.3 4.9-.2.2-.4.4-.7.6l-8.5 5.8c-1 .7-2.3.4-3-.6-.5-.9-.4-1.9.2-2.6z" fill="#2a3363"/><path d="m42.7 123.91 8.3-5.9c1.6-1.1 3.7-.8 4.8.8s.8 3.7-.8 4.8c-.2.2-.5.3-.8.4l-9.5 3.6c-1.1.4-2.3-.1-2.7-1.2-.4-.9 0-1.9.7-2.5z" fill="#2a3363"/><path d="m68.1 95.01-1.5 27.8c-.1 1.2-1.1 2.2-2.3 2.1s-2.1-1-2.1-2.1l-1.3-27.9c-.1-2 1.5-3.7 3.5-3.8s3.7 1.5 3.8 3.5c0 .1 0 .2-.1.4z" fill="#d6c0d4"/><path d="m56.7 90.51-1.5 27.8c-.1 1.2-1.1 2.2-2.3 2.1s-2.1-1-2.1-2.1l-1.3-27.9c-.1-2 1.5-3.7 3.5-3.8s3.7 1.5 3.8 3.5c-.1.1-.1.3-.1.4z" fill="#d6c0d4"/><path d="m24.2 37.81c.1-1 1-1.8 2-1.8l15.3-.1 3.7-4.3c1.2-1.4 3.2-1.5 4.6-.4 1.4 1.2 1.5 3.2.4 4.6l-.2.2-4.9 4.7-1.1 1-1.2-.1-16.7-1.7c-1.2 0-2-1-1.9-2.1z" fill="#d6c0d4"/><path d="m42.83 27.6h15v7.3h-15z" fill="#ff807d" transform="matrix(.72405149 -.68974593 .68974593 .72405149 -7.67 43.34)"/><path d="m61.6 63.51-4.4 27.8v-.4l-1 6.9c-.3 1.8-1.9 3-3.7 2.8-1.5-.2-2.6-1.4-2.8-2.8l-.8-6.9v-.4l2.2-28.2c.2-2.9 2.7-5.1 5.6-4.8 2.9.2 5.1 2.7 4.8 5.6.1.1.1.2.1.4z" fill="#2a3363"/><path d="m71.4 67.71-1.6 17.5-.8 8.7-.1 1.1-.2 1.1-.3 2.2-.7 4.3c-.3 1.8-2 3-3.7 2.7-1.5-.2-2.5-1.4-2.7-2.8l-.6-4.5-.3-2.2c0-.4-.1-.7-.1-1.1v-1.1l.3-8.8.5-17.7c.1-2.9 2.5-5.2 5.4-5.1s5.2 2.5 5.1 5.4c-.1.1-.2.2-.2.3z" fill="#2a3363"/><path d="m72.1 62.51-1.7 13.3-20-2.8v-11.7z" fill="#2a3363"/><path d="m50.7 61.51 11.7 6c4.5 2.3 9.9-1 9.9-6.1v-24.8c0-5.3 3.6-7.6-1.1-10l-12-4.2c-4.1-2.1-8.6 2.1-8.6 6.7v32.4z" fill="url(#d)"/><path d="m75.5 39.01c1.5-1 3.5-.6 4.5.9.1.1.1.2.2.3l2.7 5.2.5 1-.1.8-2.4 16.7c-.2 1.1-1.2 1.8-2.2 1.7s-1.7-1-1.7-2l.5-15.7-2.8-4.2c-1-1.7-.7-3.7.8-4.7z" fill="#d6c0d4"/><path d="m71.21 29.01h7.3v17.2h-7.3z" fill="#ff907e" transform="matrix(.85599651 -.5169816 .5169816 .85599651 -8.66 44.12)"/><circle cx="26.1" cy="38.01" fill="#d6c0d4" r="4"/><path d="m66.7 20.81v-1.7h-8.2v4.2l-.3 2.1c-.1.9 0 1.8.4 2.7l1.3 3.1 4-1.9c1.8-.9 2.9-2.7 2.9-4.7z" fill="url(#e)"/><path d="m61 23.01c3.6 0 6.6-2.9 6.6-6.6v-5.6c0-3.6-2.9-6.6-6.6-6.6-3.6 0-6.6 2.9-6.6 6.6v5.6c.1 3.6 3 6.6 6.6 6.6z" fill="#d6c0d4"/><path d="m67.2 15.41h1.2c.9 0 1.7-.7 1.7-1.7 0-.9-.7-1.7-1.7-1.7h-1.2z" fill="#d6c0d4"/><path d="m56.1 17.51 2.7-.7v-1.7h-1.4l-1.8 1.7c-.2.3.1.8.5.7z" fill="url(#f)"/><circle cx="61.1" cy="14.31" fill="#2a3363" r=".6"/><circle cx="56.6" cy="13.71" fill="#2a3363" r=".6"/><path d="m59.6 12.51c.4-.4.9-.7 1.4-.8.5-.2 1.1-.2 1.6-.1s1.1.3 1.5.6.8.6 1.2 1c-.6 0-1.1-.1-1.5-.2-.5-.1-.9-.2-1.3-.3s-.9-.1-1.3-.2z" fill="#2a3363"/><path d="m58 12.31c-.4-.1-.7-.2-1-.3s-.6-.2-.8-.3c-.3-.1-.5-.2-.8-.3s-.6-.2-.9-.4c.6-.6 1.4-.6 2.1-.4.4.1.7.3.9.6.3.3.5.7.5 1.1z" fill="#2a3363"/><circle cx="79" cy="63.61" fill="#d6c0d4" r="4"/><path d="m59.4 20.41c-.2 0-.4 0-.5-.1l-.4-.1c-.1 0-.2-.1-.2-.2s.1-.2.2-.2l.4.1c.8.2 1.6-.1 2.1-.7.1-.1.2-.1.3 0s.1.2 0 .3c-.5.6-1.2.9-1.9.9z" fill="#2a3363"/><path d="m53.6 4.51c.6 2.2 2.6 3.7 4.7 4.4s4 .6 6.3.3c.3 0 .5-.1.8.1.2.1.3.4.3.6.4 1.6.6 3.6.5 5.3.2-.5 1.1.2 1.1-1.8 0-.5.2-.5.5-.8.6-.7 1.7-1.4 1.8-2.3s.3-2.6-.1-3.4c-.4-.9-1.6-1.6-2.3-2.4-3.5-4.3-9.1-3.6-10.3-1.7-.3.4-1.9.6-1.6 1" fill="#ff907e"/><path d="m110.82 165.66c4.18 2.41 4.2 6.33.04 8.75s-10.91 2.41-15.1 0l-34.59-19.97c-4.18-2.41-4.2-6.33-.05-8.74s10.92-2.42 15.1 0l34.59 19.97z" fill="#242c55" opacity=".2"/><path d="m102.81 102.01c-.6-.35-1.19-.73-1.77-1.14-7.35-5.17-12.74-14.6-13.84-15.24-1.2-.69-7.33 3.13-15.58-1.63-4.34-2.51-8.26-6-11.08-9.63l-6.7 6.7 3.04 10.01 3.6 1.54-.02 8.25c-.02 6.73 1.36 13.89 3.82 20.94 2.83 8.14 7.1 16.12 12.33 23.13 3.16 4.24 5.13 14.86 8.89 18.2 15.39 4.08 28.29-12.26 28.34-31.45l.02-7.98.05-18.53c-2.84.36-6.76-.68-11.1-3.18z" fill="url(#g)"/><path d="m96.11 108.71c-.6-.35-1.19-.73-1.77-1.14-7.35-5.17-12.74-14.6-13.84-15.24-1.2-.69-7.33 3.13-15.58-1.63-4.34-2.51-8.26-6-11.08-9.63l-.08 26.5c-.02 6.73 1.36 13.89 3.82 20.94.35 1.02.73 2.03 1.13 3.04 1.99 5.05 4.52 10.01 7.47 14.66 1.18 1.86 2.43 3.67 3.73 5.43 3.16 4.24 6.67 8.12 10.43 11.47 15.39 4.08 26.75-5.53 26.8-24.72l.02-7.98.05-18.53c-2.84.36-6.76-.68-11.1-3.18z" fill="url(#h)"/><path d="m54.12 113.73c.55 4.86 1.73 9.85 3.45 14.79.35 1.02.73 2.03 1.13 3.04 1.99 5.05 4.52 10.01 7.47 14.66 1.18 1.86 2.43 3.67 3.73 5.43 3.16 4.24 6.67 8.12 10.43 11.47.05.01.1.02.15.04v-34.22l-26.36-15.2z" fill="url(#i)"/><path d="m80.49 92.32c-1.21-.68-7.34 3.12-15.57-1.63-4.34-2.51-8.26-6-11.08-9.63l-.08 26.5c0 2.02.13 4.08.36 6.15l26.36 15.2v-36.6z" fill="#fff"/><path d="m106.76 144.07-26.27-15.15v34.22c13.71 3.56 24.19-3.77 26.27-19.07z" fill="#fff"/><path d="m106.76 144.07c.24-1.79.38-3.68.38-5.68l.02-7.98.05-18.53c-2.84.36-6.76-.68-11.1-3.18-.6-.35-1.19-.73-1.77-1.14-7.35-5.17-12.74-14.6-13.84-15.24v36.6l26.27 15.15z" fill="url(#j)"/></svg>