<svg viewBox="0 0 200 195.97" xmlns="http://www.w3.org/2000/svg" xmlns:xlink="http://www.w3.org/1999/xlink"><linearGradient id="a" gradientTransform="matrix(1 0 0 -1 262 -575.92)" gradientUnits="userSpaceOnUse" x1="-262.26" x2="-62.31" y1="-713.89" y2="-713.89"><stop offset="0" stop-color="#4b5faa"/><stop offset="1" stop-color="#80d2e0"/></linearGradient><clipPath id="b"><path d="m156.8 156.26-44.91 26.1-72.94-42.11 44.92-26.1z"/></clipPath><clipPath id="c"><path d="m156.95 102.43-44.91 26.1-72.93-42.11 44.91-26.1z"/></clipPath><clipPath id="d"><path d="m39.11 86.42 44.91-26.1-.15 53.83-44.92 26.1z"/></clipPath><linearGradient id="e" gradientUnits="userSpaceOnUse" x1="38.95" x2="84.02" y1="100.28" y2="100.28"><stop offset="0" stop-color="#7f72ca"/><stop offset=".04" stop-color="#7067b8"/><stop offset=".1" stop-color="#5a579e"/><stop offset=".18" stop-color="#484988"/><stop offset=".28" stop-color="#3a3f77"/><stop offset=".39" stop-color="#31386b"/><stop offset=".55" stop-color="#2b3464"/><stop offset="1" stop-color="#2a3363"/></linearGradient><clipPath id="f"><path d="m84.02 60.32 72.93 42.11-.15 53.83-72.93-42.11z"/></clipPath><linearGradient id="g" gradientUnits="userSpaceOnUse" x1="120.41" x2="120.41" y1="156.26" y2="60.32"><stop offset=".55" stop-color="#2a3363"/><stop offset=".75" stop-color="#2b3464"/><stop offset=".82" stop-color="#31386b"/><stop offset=".87" stop-color="#3a3f77"/><stop offset=".92" stop-color="#484988"/><stop offset=".95" stop-color="#5a579e"/><stop offset=".98" stop-color="#7067b8"/><stop offset="1" stop-color="#7f72ca"/></linearGradient><clipPath id="h"><path d="m83.87 6.17c13.03-7.52 23.62-1.48 23.66 13.48s-10.48 33.19-23.51 40.71z"/></clipPath><clipPath id="i"><path d="m156.8 121.14-44.91 26.11-72.94-42.11 44.92-26.1z"/></clipPath><linearGradient id="j" x1="83.87" x2="180.25" xlink:href="#e" y1="52.78" y2="52.78"/><clipPath id="k"><path d="m111.96 128.53v53.83l-73.01-42.11.16-53.83z"/></clipPath><linearGradient id="l" gradientUnits="userSpaceOnUse" x1="43.72" x2="107.2" y1="134.39" y2="134.39"><stop offset="0" stop-color="#7f72ca"/><stop offset=".06" stop-color="#6e66b3"/><stop offset=".14" stop-color="#595696"/><stop offset=".24" stop-color="#484980"/><stop offset=".35" stop-color="#3a3f7a"/><stop offset=".48" stop-color="#31386d"/><stop offset=".65" stop-color="#2c3465"/><stop offset="1" stop-color="#2a3363"/></linearGradient><linearGradient id="m" gradientUnits="userSpaceOnUse" x1="111.96" x2="156.95" y1="142.39" y2="142.39"><stop offset="0" stop-color="#2a3363"/><stop offset="1" stop-color="#7f72ca"/></linearGradient><clipPath id="n"><path d="m156.95 102.43-.15 53.83-44.84 26.1v-53.83z"/></clipPath><linearGradient id="o" gradientUnits="userSpaceOnUse" x1="116.73" x2="152.17" y1="142.39" y2="142.39"><stop offset="0" stop-color="#2a3363"/><stop offset=".43" stop-color="#2b3464"/><stop offset=".6" stop-color="#31386b"/><stop offset=".72" stop-color="#3b3f77"/><stop offset=".81" stop-color="#494a88"/><stop offset=".89" stop-color="#5b579f"/><stop offset=".97" stop-color="#7168ba"/><stop offset="1" stop-color="#7f72ca"/></linearGradient><clipPath id="p"><path d="m120.49 145.34 27.94-16.21"/></clipPath><clipPath id="q"><path d="m120.49 156.25 27.94-16.22"/></clipPath><clipPath id="r"><path d="m103.14 144.83-55.83-32.39"/></clipPath><clipPath id="s"><path d="m103.14 157.39-55.83-32.39"/></clipPath><linearGradient id="t" x1="71.79" x2="75.3" xlink:href="#e" y1="121.88" y2="121.88"/><linearGradient id="u" gradientUnits="userSpaceOnUse" x1="85.61" x2="85.61" y1="60.36" y2="4.46"><stop offset="0" stop-color="#2a3363"/><stop offset=".18" stop-color="#30376a"/><stop offset=".64" stop-color="#3e407a"/><stop offset="1" stop-color="#434480"/></linearGradient><linearGradient id="v" x1="83.87" x2="180.25" xlink:href="#l" y1="32.43" y2="32.43"/><linearGradient id="w" x1="156.59" x2="180.25" xlink:href="#o" y1="73.91" y2="73.91"/><clipPath id="x"><path d="m156.59 48.43c13.03-7.52 23.62-1.48 23.66 13.48s-10.48 33.19-23.51 40.71z"/></clipPath><linearGradient id="y" gradientUnits="userSpaceOnUse" x1="161.36" x2="175.49" y1="71.44" y2="71.44"><stop offset="0" stop-color="#2a3363"/><stop offset=".36" stop-color="#2e3568"/><stop offset=".81" stop-color="#393d77"/><stop offset="1" stop-color="#404280"/></linearGradient><linearGradient id="z" gradientTransform="matrix(-1 -0 -0 1 -2987.27 0)" gradientUnits="userSpaceOnUse" x1="-3132.17" x2="-3116.76" y1="122.71" y2="35.32"><stop offset="0" stop-color="#7f72ca"/><stop offset="0" stop-color="#eeba4e" stop-opacity=".77"/><stop offset=".01" stop-color="#eeba4e" stop-opacity=".73"/><stop offset=".07" stop-color="#eeba4e" stop-opacity=".56"/><stop offset=".14" stop-color="#eeba4e" stop-opacity=".41"/><stop offset=".21" stop-color="#eeba4e" stop-opacity=".28"/><stop offset=".29" stop-color="#eeba4e" stop-opacity=".18"/><stop offset=".38" stop-color="#eeba4e" stop-opacity=".1"/><stop offset=".48" stop-color="#eeba4e" stop-opacity=".04"/><stop offset=".61" stop-color="#eeba4e" stop-opacity="0"/><stop offset=".85" stop-color="#eeba4e" stop-opacity="0"/></linearGradient><linearGradient id="A" gradientTransform="matrix(-1 -0 -0 1 -2987.27 0)" gradientUnits="userSpaceOnUse" x1="-3127.56" x2="-3115.85" y1="140.35" y2="116.34"><stop offset="0" stop-color="#eeba4e" stop-opacity="0"/><stop offset=".43" stop-color="#eeba4e" stop-opacity="0"/><stop offset=".59" stop-color="#eeba4e" stop-opacity=".04"/><stop offset=".7" stop-color="#eeba4e" stop-opacity=".09"/><stop offset=".79" stop-color="#eeba4e" stop-opacity=".16"/><stop offset=".87" stop-color="#eeba4e" stop-opacity=".25"/><stop offset=".94" stop-color="#eeba4e" stop-opacity=".36"/><stop offset="1" stop-color="#eeba4e" stop-opacity=".49"/><stop offset="1" stop-color="#eeba4e" stop-opacity=".5"/></linearGradient><linearGradient id="B" gradientUnits="userSpaceOnUse" x1="63.64" x2="87.43" y1="157.73" y2="111.04"><stop offset="0" stop-color="#eeba4e" stop-opacity="0"/><stop offset=".52" stop-color="#eeba4e" stop-opacity="0"/><stop offset=".71" stop-color="#eeba4e" stop-opacity=".04"/><stop offset=".84" stop-color="#eeba4e" stop-opacity=".09"/><stop offset=".95" stop-color="#eeba4e" stop-opacity=".16"/><stop offset="1" stop-color="#eeba4e" stop-opacity=".2"/></linearGradient><clipPath id="C"><path d="m111.96 128.53v53.83l-73.01-42.11.16-53.83z"/></clipPath><linearGradient id="D" x1="63.68" x2="87.39" xlink:href="#B" y1="156.68" y2="112.09"/><linearGradient id="E" gradientUnits="userSpaceOnUse" x1="89.14" x2="34.05" y1="108.84" y2="13.43"><stop offset="0" stop-color="#eeba4e" stop-opacity="0"/><stop offset=".17" stop-color="#eeba4e" stop-opacity=".16"/><stop offset=".31" stop-color="#eeba4e" stop-opacity=".26"/><stop offset=".4" stop-color="#eeba4e" stop-opacity=".3"/><stop offset=".47" stop-color="#eeba4e" stop-opacity=".21"/><stop offset=".58" stop-color="#eeba4e" stop-opacity=".12"/><stop offset=".69" stop-color="#eeba4e" stop-opacity=".05"/><stop offset=".82" stop-color="#eeba4e" stop-opacity=".01"/><stop offset="1" stop-color="#eeba4e" stop-opacity="0"/></linearGradient><linearGradient id="F" gradientUnits="userSpaceOnUse" x1="159.37" x2="177.47" y1="19.15" y2="19.15"><stop offset="0" stop-color="#ff797d"/><stop offset="1" stop-color="#ff947d"/></linearGradient><linearGradient id="G" x1="28.51" x2="31.51" xlink:href="#F" y1="16.42" y2="16.42"/><linearGradient id="H" x1="22.1" x2="37.92" xlink:href="#F" y1="16.96" y2="16.96"/><path d="m170.16 96.92c39.2 22.6 39.4 59.2.4 82.1-38.8 22.6-102.1 22.6-141.3 0-39.2-22.6-39.4-59.2-.4-82.1 38.8-22.6 102.2-22.6 141.3 0z" fill="url(#a)"/><path d="m29.26 179.02c17.63 10.16 40.13 15.74 63.09 16.76l32.21-20.66-35.49-43.73c-.54-.47-1.15-.84-1.82-1.09l-16.72-6.23c-1.64-.61-3.46-.46-4.98.42l-54.7 31.73c-1.74 1.01-2.78 2.81-2.89 4.72 4.91 6.56 12.01 12.71 21.3 18.07z" fill="#2a3363" opacity=".2"/><path d="m156.8 156.26-44.91 26.1-72.94-42.11 44.92-26.1z" fill="#2a3363"/><g clip-path="url(#b)"><path d="m156.8 156.26-44.91 26.1-72.94-42.11 44.92-26.1z" fill="#2a3363"/></g><path d="m156.95 102.43-44.91 26.1-72.93-42.11 44.91-26.1z" fill="#2a3363"/><g clip-path="url(#c)"><path d="m156.95 102.43-44.91 26.1-72.93-42.11 44.91-26.1z" fill="#2a3363"/></g><g clip-path="url(#d)"><path d="m39.11 86.42 44.91-26.1-.15 53.83-44.92 26.1z" fill="url(#e)"/></g><path d="m84.02 60.32 72.93 42.11-.15 53.83-72.93-42.11z" fill="#2a3363"/><g clip-path="url(#f)"><path d="m84.02 60.32 72.93 42.11-.15 53.83-72.93-42.11z" fill="url(#g)"/></g><g clip-path="url(#h)"><path d="m83.87 6.17c13.03-7.52 23.62-1.48 23.66 13.48s-10.48 33.19-23.51 40.71z" fill="#2a3363"/></g><path d="m156.8 121.14-44.91 26.11-72.94-42.11 44.92-26.1z" fill="#eeba4e"/><g clip-path="url(#i)"><path d="m156.8 121.14-44.91 26.11-72.94-42.11 44.92-26.1z" fill="#eeba4e"/></g><path d="m180.22 60.54c0-.14-.02-.28-.03-.42-.02-.3-.04-.6-.06-.9-.02-.18-.04-.35-.06-.53-.03-.25-.05-.5-.09-.74-.03-.18-.06-.35-.09-.53-.04-.23-.07-.46-.12-.68-.04-.17-.08-.34-.12-.51-.05-.22-.09-.43-.15-.64-.04-.17-.1-.33-.14-.5-.06-.2-.11-.41-.18-.6-.05-.17-.12-.33-.17-.49-.07-.19-.13-.37-.2-.55-.06-.16-.13-.31-.2-.47-.07-.17-.14-.35-.22-.52-.07-.15-.15-.29-.22-.44-.08-.16-.16-.33-.25-.49-.08-.14-.16-.28-.25-.41-.09-.15-.18-.31-.27-.45-.09-.13-.18-.26-.27-.39-.1-.14-.19-.28-.3-.42-.09-.12-.19-.24-.29-.36-.11-.13-.21-.26-.32-.39-.1-.11-.21-.22-.31-.33-.11-.12-.23-.24-.34-.36-.11-.1-.22-.2-.33-.3-.12-.11-.24-.22-.37-.32-.12-.09-.24-.18-.36-.27-.13-.1-.25-.2-.38-.29-.12-.08-.25-.16-.38-.24-.12-.08-.24-.16-.36-.23-21.82-12.68-50.91-29.58-72.72-42.26.12.07.24.15.36.23-4.31-2.73-10.4-2.48-17.14 1.41l23.66 13.75c-.08 14.91-10.55 32.97-23.5 40.45l72.72 42.26c13.03-7.52 23.55-25.75 23.51-40.71 0-.47-.01-.92-.03-1.37z" fill="url(#j)"/><path d="m111.96 128.53-8.21-4.75v53.84l8.21 4.74 6.76-3.94v-53.81z" fill="#434480"/><g clip-path="url(#k)"><path d="m43.72 137.5.12-42.84 63.36 36.61v42.84z" fill="url(#l)"/><path d="m48.58 102.89 53.86 31.13v31.85l-53.95-31.12zm-9.47-16.47-.15 53.83 73.01 42.11v-53.83z" fill="#434480"/></g><path d="m156.95 102.43-.15 53.83-44.84 26.1v-53.83z" fill="url(#m)"/><g clip-path="url(#n)"><path d="m116.73 131.27 35.44-20.56-.12 42.8-35.32 20.57z" fill="url(#o)"/><path d="m147.38 118.99-.09 31.78-25.81 15.02v-31.78zm9.57-16.56-44.99 26.1v53.83l44.84-26.1z" fill="#434480"/></g><g opacity=".33"><g clip-path="url(#p)"><path d="m120.49 145.34 27.94-16.21" fill="none" stroke="#fff" stroke-miterlimit="10" stroke-width="2"/></g><path d="m120.49 145.34 27.94-16.21" fill="none" stroke="#fff" stroke-miterlimit="10" stroke-width="2"/></g><g opacity=".33"><g clip-path="url(#q)"><path d="m120.49 156.25 27.94-16.22" fill="none" stroke="#fff" stroke-miterlimit="10" stroke-width="2"/></g><path d="m120.49 156.25 27.94-16.22" fill="none" stroke="#fff" stroke-miterlimit="10" stroke-width="2"/></g><g opacity=".11"><g clip-path="url(#r)"><path d="m107.48 146.55-63.73-36.98" fill="none" opacity=".11" stroke="#fff" stroke-miterlimit="10" stroke-width=".95"/></g><path d="m103.14 144.83-55.83-32.39" fill="none" stroke="#fff" stroke-miterlimit="10" stroke-width="2"/></g><g opacity=".11"><g clip-path="url(#s)"><path d="m107.48 160.88-63.73-36.97" fill="none" opacity=".11" stroke="#fff" stroke-miterlimit="10" stroke-width=".95"/></g><path d="m103.14 157.39-55.83-32.39" fill="none" stroke="#fff" stroke-miterlimit="10" stroke-width="2"/></g><path d="m73.65 110.11v48.12" fill="none" stroke="#434480" stroke-miterlimit="10" stroke-width="9.52"/><path d="m82.52 116.32-.06 20.51-17.85-10.31.06-20.51z" fill="#434480"/><path d="m79.85 117.83-.04 14.41-12.54-7.24.04-14.41z" fill="#eeba4e"/><path d="m73.57 117.66c.9.52 1.62 1.77 1.62 2.8 0 .68-.32 1.09-.79 1.14l.91 4.72-3.51-2.03.93-3.66c-.47-.6-.78-1.37-.78-2.05 0-1.03.73-1.45 1.63-.93z" fill="url(#t)"/><g fill="#434480"><path d="m111.97 128.56-.04 14.41-4.7-2.72c-4.85-2.8-7.83-7.98-7.81-13.57l.02-5.36 12.54 7.24z"/><path d="m111.96 167.95-.04 14.41-12.54-7.24.02-5.49c.01-3.97 4.31-6.45 7.75-4.46z"/><path d="m111.98 167.95.04 14.41 12.54-7.24-.02-5.49c-.01-3.97-4.31-6.45-7.75-4.46z"/><path d="m51.53 141.44-.02 5.99-12.54-7.24.04-14.41 5.25 3.03c4.51 2.6 7.28 7.42 7.27 12.63z"/><path d="m51.69 93.65v4.58c-.03 4.37-4.76 7.1-8.55 4.91l-4.03-2.33.04-14.41 12.54 7.24z"/></g><path d="m107.35 133.74-1.8.76-1.8-2.84 1.8-.76z" fill="#eeba4e"/><path d="m107.35 173.14-1.8.76-1.8-2.84 1.8-.76z" fill="#eeba4e"/><path d="m46.06 98.46-1.8.76-1.8-2.84 1.8-.76z" fill="#eeba4e"/><path d="m45.62 137.42-1.8.76-1.8-2.84 1.8-.77z" fill="#eeba4e"/><path d="m144.37 109.65v2.49c.02 5.31 5.77 8.61 10.37 5.96l2.22-1.28-.04-14.41-12.54 7.24z" fill="#434480"/><path d="m144.15 157.92.02 5.6 12.54-7.24-.04-14.41-4.91 2.84c-4.72 2.72-7.62 7.77-7.6 13.21z" fill="#434480"/><path d="m111.98 128.55.04 14.41 5.01-2.89c4.66-2.69 7.52-7.67 7.51-13.05l-.02-5.71z" fill="#434480"/><path d="m83.87 6.17.15 54.19c1.13-.65 2.24-1.39 3.33-2.19v-53.71c-1.14.46-2.3 1.03-3.48 1.71z" fill="url(#u)"/><path d="m180.25 61.92c-.02-7.46-2.66-12.7-6.92-15.15.01 0 .03.01.04.02l-72.72-42.26s-.03-.01-.04-.02c-.14-.08-.28-.15-.43-.22-.13-.07-.26-.14-.4-.21s-.29-.13-.44-.19c-.14-.06-.27-.12-.42-.17-.15-.06-.31-.1-.46-.15-.14-.05-.29-.1-.43-.14-.16-.05-.32-.08-.48-.12-.15-.04-.29-.08-.44-.11-.16-.03-.33-.06-.5-.08-.15-.02-.3-.05-.46-.07-.17-.02-.35-.03-.52-.05-.16-.01-.31-.03-.47-.04-.18 0-.36 0-.53 0-.16 0-.32 0-.49 0-.18 0-.37.02-.55.03-.17 0-.33.01-.5.03-.19.02-.38.05-.57.07-.17.02-.34.04-.51.06-.2.03-.39.07-.59.11-.17.03-.34.06-.51.1-.2.04-.41.1-.62.15-.17.04-.34.08-.51.13-.21.06-.43.13-.65.2-.17.05-.33.1-.5.16-.22.08-.45.16-.67.25-.17.06-.33.12-.5.19-.23.09-.46.2-.69.3-.16.07-.33.14-.49.21-.26.12-.52.25-.77.38-.14.07-.28.13-.43.21-.4.21-.81.43-1.22.67l72.72 42.26c.08-.05.16-.08.24-.13l23.42 13.61z" fill="url(#v)"/><path d="m156.59 48.43c13.03-7.52 23.62-1.48 23.66 13.48s-10.48 33.19-23.51 40.71z" fill="url(#w)"/><g clip-path="url(#x)"><path d="m161.36 51.34c2.08-.91 4.05-1.38 5.81-1.38 7.48 0 8.31 8.37 8.32 11.97.03 10.34-5.91 22.87-14.01 31l-.12-41.58z" fill="url(#y)"/><path d="m167.17 45.2c-3.18 0-6.78 1.04-10.58 3.23l.15 54.19c13.03-7.52 23.55-25.75 23.51-40.71-.03-10.6-5.35-16.72-13.08-16.72z" fill="#434480"/></g><path d="m122.53 28.78v8.18c-.02 1.93-2.1 3.13-3.77 2.16-1.41-.81-2.27-2.31-2.27-3.94l.02-9.88z" fill="#ef9c40"/><path d="m128.53 25.3-6.01 3.49-6.03-3.48 6-3.49z" fill="#eeba4e"/><path d="m120 37.07c0 .7-.57.95-1.28.54s-1.28-1.31-1.28-2.01.57-.95 1.28-.54c.7.41 1.28 1.31 1.28 2.01z" fill="#2a3363"/><path d="m197.88 23.26-126.65 81.53 40.95 23.7 44.38-25.77s4.69-2.26 10.5-8.5c2.21-2.38 9.59-12.16 18.83-24.66 4.17-5.65 8.72-11.85 13.34-18.17l-1.34-28.12z" fill="url(#z)"/><path d="m156.95 102.5.08 22.46-45.12 29.23.05-25.66z" fill="url(#A)"/><path d="m111.96 128.53v53.83l-73.01-42.11.16-53.83z" fill="url(#B)"/><g clip-path="url(#C)"><path d="m111.96 128.53v53.83l-73.01-42.11.16-53.83z" fill="url(#D)"/></g><path d="m83.46 112.12-44.35-25.7-27.48-18.54.67-41.88 72.78-17.48.15 54.15 21.12 12.41s2.48 4.76 3.86 6.13c1.29 1.29 13.51 4.07 13.51 4.07l-40.26 26.83z" fill="url(#E)"/><path d="m120.11 92.77c9.83 5.68 9.88 14.88.12 20.56-9.77 5.68-25.66 5.68-35.49 0s-9.89-14.88-.12-20.56 25.66-5.68 35.49 0z" opacity=".11"/><path d="m127.98 96.14v4.81c-.02 3.66-2.43 7.31-7.23 10.1-9.67 5.62-25.39 5.62-35.12 0-4.9-2.83-7.34-6.54-7.33-10.24v-4.81c0 3.7 2.45 7.42 7.35 10.24 9.73 5.62 25.45 5.62 35.12 0 4.8-2.79 7.21-6.44 7.22-10.1z" fill="#ef9c40"/><path d="m120.65 85.9c9.73 5.62 9.78 14.72.11 20.34s-25.39 5.62-35.12 0-9.78-14.72-.12-20.34c9.67-5.62 25.39-5.62 35.12 0z" fill="#eeba4e"/><path d="m116.27 88.03c7.3 4.21 7.34 11.05.09 15.26s-19.05 4.21-26.35 0-7.34-11.05-.09-15.26 19.05-4.21 26.35 0zm-13.11 13.27c1.72-.11 3.34-1.3 3.71-2.14.23-.52.18-1.08-.19-1.61 2.5-1.13 4.62-3.38 5.14-5.25.16-.58.16-1.08-.03-1.65-1.04-.13-1.89-.13-2.9-.04-3.22.31-7.09 1.54-9.04 3-.91-.21-1.87-.24-2.77-.1-1.45.21-3.51 1.15-3.69 2.15 1.1.19 2.38.54 3.39 1.12.38.22.71.47.99.75l.16.23c-1.76.15-3.11.93-3.42 1.91-.13.39-.07.64-.03 1.02.69 0 1.04.06 1.76-.02 1.69-.19 3.03-.97 3.28-1.99l.4.09c.49.16.92.35 1.3.57 1 .58 1.62 1.32 1.94 1.96" fill="#ef9c40"/><path d="m100.2 95.58s0 0 0 0c-.4-.23-.1-.63.12-.89.1.06.19.12.27.18.2.14.35.3.31.49-.05.26-.51.33-.69.23z" fill="#ef9c40"/><path d="m103.67 96.96c.32-.02.6.07.84.18.11.05.21.1.31.16-.44.13-1.14.3-1.54.07-.18-.11-.04-.37.4-.4z" fill="#ef9c40"/><path d="m106.87 99.15c-.36.84-1.98 2.04-3.71 2.14-.32-.64-.94-1.38-1.94-1.96-.38-.22-.81-.41-1.3-.57l-.4-.09c-.25 1.02-1.59 1.8-3.28 1.99-.72.08-1.07.03-1.76.02-.04-.38-.09-.63.03-1.02.31-.98 1.66-1.76 3.42-1.91l-.16-.23c-.28-.28-.61-.53-.99-.75-1-.58-2.28-.93-3.39-1.12.18-1 2.24-1.94 3.69-2.15.9-.13 1.86-.11 2.77.1 1.95-1.45 5.82-2.69 9.04-3 1.01-.1 1.86-.1 2.85 0 .23.6.24 1.1.07 1.68-.52 1.86-2.64 4.11-5.14 5.25.37.53.41 1.08.19 1.61zm-2.96 1.1c.79-.31 1.4-.78 1.62-1.29.13-.31.13-.64-.04-.96-.39.12-.78.2-1.17.26-.73.1-1.51-.03-1.99-.31-.3-.17-.5-.41-.5-.69-.02-.99 2.19-1.57 3.88-.59.03.02.06.04.09.05l.19.13c2.44-1.16 4.7-3.66 4.55-5.49-3.16-.08-7.47 1.23-9.47 2.65l.23.11s.06.03.09.05c1.7.98.72 2.26-1 2.25-.48 0-.89-.11-1.19-.29-.49-.28-.71-.73-.54-1.15.09-.23.24-.45.44-.68-.55-.1-1.12-.1-1.66-.02-.88.13-1.69.48-2.23.94 1.02.27 1.84.59 2.51.97.73.42 1.29.94 1.75 1.59 1.13.26 2.02.58 2.75 1.01.67.39 1.21.86 1.69 1.45m-8.04-.34c1.07-.09 2.33-.71 2.31-1.37-1.15.02-2.19.71-2.35 1.34v.02s.04 0 .04 0m8.96-2.6c-.1-.05-.2-.11-.31-.16-.24-.11-.52-.2-.84-.18-.44.03-.58.3-.4.4.4.23 1.09.06 1.54-.07m-4.51-2.6c-.22.26-.52.66-.12.89.19.1.64.02.69-.23.04-.19-.11-.35-.31-.49-.08-.06-.18-.12-.27-.18" fill="#eeba4e"/><path d="m95.83 99.88c.16-.64 1.2-1.33 2.35-1.34.02.65-1.24 1.28-2.31 1.37h-.04s0-.02 0-.02z" fill="#ef9c40"/><path d="m105.49 97.99c.17.32.17.65.04.96-.22.51-.83.98-1.62 1.29-.48-.59-1.02-1.06-1.69-1.45-.73-.42-1.62-.75-2.75-1.01-.45-.65-1.01-1.17-1.75-1.59-.67-.39-1.49-.7-2.51-.97.54-.46 1.35-.81 2.23-.94.53-.08 1.1-.08 1.66.02-.2.23-.35.45-.44.68-.17.42.05.87.54 1.15.3.17.71.29 1.19.29 1.72.01 2.7-1.27 1-2.25-.03-.02-.06-.03-.09-.05l-.23-.11c2-1.42 6.31-2.74 9.47-2.65.15 1.83-2.11 4.33-4.55 5.49l-.19-.13s-.06-.04-.09-.05c-1.7-.98-3.91-.41-3.88.59 0 .28.2.51.5.69.49.28 1.27.41 1.99.31.39-.05.78-.14 1.17-.26z" fill="#ef9c40"/><path d="m127.58 88.57v4.81c-.02 3.66-2.43 7.31-7.23 10.1-9.67 5.62-25.39 5.62-35.12 0-4.9-2.83-7.34-6.54-7.33-10.24v-4.81c0 3.7 2.45 7.42 7.35 10.24 9.73 5.62 25.45 5.62 35.12 0 4.8-2.79 7.21-6.44 7.22-10.1z" fill="#ef9c40"/><path d="m120.25 78.33c9.73 5.62 9.78 14.72.11 20.34s-25.39 5.62-35.12 0-9.78-14.72-.12-20.34c9.67-5.62 25.39-5.62 35.12 0z" fill="#eeba4e"/><path d="m115.88 80.46c7.3 4.21 7.34 11.05.09 15.26s-19.05 4.21-26.35 0-7.34-11.05-.09-15.26 19.05-4.21 26.35 0zm-13.11 13.27c1.72-.11 3.34-1.3 3.71-2.14.23-.52.18-1.08-.19-1.61 2.5-1.13 4.62-3.38 5.14-5.25.16-.58.16-1.08-.03-1.65-1.04-.13-1.89-.13-2.9-.04-3.22.31-7.09 1.54-9.04 3-.91-.21-1.87-.24-2.77-.1-1.45.21-3.51 1.15-3.69 2.15 1.1.19 2.38.54 3.39 1.12.38.22.71.47.99.75l.16.23c-1.76.15-3.11.93-3.42 1.91-.13.39-.07.64-.03 1.02.69 0 1.04.06 1.76-.02 1.69-.19 3.03-.97 3.28-1.99l.4.09c.49.16.92.35 1.3.57 1 .58 1.62 1.32 1.94 1.96" fill="#ef9c40"/><path d="m99.8 88.01s0 0 0 0c-.4-.23-.1-.63.12-.89.1.06.19.12.27.18.2.14.35.3.31.49-.05.26-.51.33-.69.23z" fill="#ef9c40"/><path d="m103.28 89.39c.32-.02.6.07.84.18.11.05.21.1.31.16-.44.13-1.14.3-1.54.07-.18-.11-.04-.37.4-.4z" fill="#ef9c40"/><path d="m106.48 91.58c-.36.84-1.98 2.04-3.71 2.14-.32-.64-.94-1.38-1.94-1.96-.38-.22-.81-.41-1.3-.57l-.4-.09c-.25 1.02-1.59 1.8-3.28 1.99-.72.08-1.07.03-1.76.02-.04-.38-.09-.63.03-1.02.31-.98 1.66-1.76 3.42-1.91l-.16-.23c-.28-.28-.61-.53-.99-.75-1-.58-2.28-.93-3.39-1.12.18-1 2.24-1.94 3.69-2.15.9-.13 1.86-.11 2.77.1 1.95-1.45 5.82-2.69 9.04-3 1.01-.1 1.86-.1 2.85 0 .23.6.24 1.1.07 1.68-.52 1.86-2.64 4.11-5.14 5.25.37.53.41 1.08.19 1.61zm-2.96 1.1c.79-.31 1.4-.78 1.62-1.29.13-.31.13-.64-.04-.96-.39.12-.78.2-1.17.26-.73.1-1.51-.03-1.99-.31-.3-.17-.5-.41-.5-.69-.02-.99 2.19-1.57 3.88-.59.03.02.06.04.09.05l.19.13c2.44-1.16 4.7-3.66 4.55-5.49-3.16-.08-7.47 1.23-9.47 2.65l.23.11s.06.03.09.05c1.7.98.72 2.26-1 2.25-.48 0-.89-.11-1.19-.29-.49-.28-.71-.73-.54-1.15.09-.23.24-.45.44-.68-.55-.1-1.12-.1-1.66-.02-.88.13-1.69.48-2.23.94 1.02.27 1.84.59 2.51.97.73.42 1.29.94 1.75 1.59 1.13.26 2.02.58 2.75 1.01.67.39 1.21.86 1.69 1.45m-8.05-.33c1.07-.09 2.33-.71 2.31-1.37-1.15.02-2.19.71-2.35 1.34v.02s.04 0 .04 0m8.96-2.61c-.1-.05-.2-.11-.31-.16-.24-.11-.52-.2-.84-.18-.44.03-.58.3-.4.4.4.23 1.09.06 1.54-.07m-4.5-2.6c-.22.26-.52.66-.12.89.19.1.64.02.69-.23.04-.19-.11-.35-.31-.49-.08-.06-.18-.12-.27-.18" fill="#eeba4e"/><path d="m95.43 92.31c.16-.64 1.2-1.33 2.35-1.34.02.65-1.24 1.28-2.31 1.37h-.04s0-.02 0-.02z" fill="#ef9c40"/><path d="m105.1 90.42c.17.32.17.65.04.96-.22.51-.83.98-1.62 1.29-.48-.59-1.02-1.06-1.69-1.45-.73-.42-1.62-.75-2.75-1.01-.45-.65-1.01-1.17-1.75-1.59-.67-.39-1.49-.7-2.51-.97.54-.46 1.35-.81 2.23-.94.53-.08 1.1-.08 1.66.02-.2.23-.35.45-.44.68-.17.42.05.87.54 1.15.3.17.71.29 1.19.29 1.72.01 2.7-1.27 1-2.25-.03-.02-.06-.03-.09-.05l-.23-.11c2-1.42 6.31-2.74 9.47-2.65.15 1.83-2.11 4.33-4.55 5.49l-.19-.13s-.06-.04-.09-.05c-1.7-.98-3.91-.41-3.88.59 0 .28.2.51.5.69.49.28 1.27.41 1.99.31.39-.05.78-.14 1.17-.26z" fill="#ef9c40"/><path d="m125.66 80.64v4.81c-.02 3.66-2.43 7.31-7.23 10.1-9.67 5.62-25.39 5.62-35.12 0-4.9-2.83-7.34-6.54-7.33-10.24v-4.81c0 3.7 2.45 7.42 7.35 10.24 9.73 5.62 25.45 5.62 35.12 0 4.8-2.79 7.21-6.44 7.22-10.1z" fill="#ef9c40"/><path d="m118.33 70.4c9.73 5.62 9.78 14.72.11 20.34s-25.39 5.62-35.12 0-9.78-14.72-.12-20.34c9.67-5.62 25.39-5.62 35.12 0z" fill="#eeba4e"/><path d="m113.95 72.52c7.3 4.21 7.34 11.05.09 15.26s-19.05 4.21-26.35 0-7.34-11.05-.09-15.26 19.05-4.21 26.35 0zm-13.1 13.27c1.72-.11 3.34-1.3 3.71-2.14.23-.52.18-1.08-.19-1.61 2.5-1.13 4.62-3.38 5.14-5.25.16-.58.16-1.08-.03-1.65-1.04-.13-1.89-.13-2.9-.04-3.22.31-7.09 1.54-9.04 3-.91-.21-1.87-.24-2.77-.1-1.45.21-3.51 1.15-3.69 2.15 1.1.19 2.38.54 3.39 1.12.38.22.71.47.99.75l.16.23c-1.76.15-3.11.93-3.42 1.91-.13.39-.07.64-.03 1.02.69 0 1.04.06 1.76-.02 1.69-.19 3.03-.97 3.28-1.99l.4.09c.49.16.92.35 1.3.57 1 .58 1.62 1.32 1.94 1.96" fill="#ef9c40"/><path d="m97.88 80.08s0 0 0 0c-.4-.23-.1-.63.12-.89.1.06.19.12.27.18.2.14.35.3.31.49-.05.26-.51.33-.69.23z" fill="#ef9c40"/><path d="m101.36 81.45c.32-.02.6.07.84.18.11.05.21.1.31.16-.44.13-1.14.3-1.54.07-.18-.11-.04-.37.4-.4z" fill="#ef9c40"/><path d="m104.55 83.65c-.36.84-1.98 2.04-3.71 2.14-.32-.64-.94-1.38-1.94-1.96-.38-.22-.81-.41-1.3-.57l-.4-.09c-.25 1.02-1.59 1.8-3.28 1.99-.72.08-1.07.03-1.76.02-.04-.38-.09-.63.03-1.02.31-.98 1.66-1.76 3.42-1.91l-.16-.23c-.28-.28-.61-.53-.99-.75-1-.58-2.28-.93-3.39-1.12.18-1 2.24-1.94 3.69-2.15.9-.13 1.86-.11 2.77.1 1.95-1.45 5.82-2.69 9.04-3 1.01-.1 1.86-.1 2.85 0 .23.6.24 1.1.07 1.68-.52 1.86-2.64 4.11-5.14 5.25.37.53.41 1.08.19 1.61zm-2.96 1.09c.79-.31 1.4-.78 1.62-1.29.13-.31.13-.64-.04-.96-.39.12-.78.2-1.17.26-.73.1-1.51-.03-1.99-.31-.3-.17-.5-.41-.5-.69-.02-.99 2.19-1.57 3.88-.59.03.02.06.04.09.05l.19.13c2.44-1.16 4.7-3.66 4.55-5.49-3.16-.08-7.47 1.23-9.47 2.65l.23.11s.06.03.09.05c1.7.98.72 2.26-1 2.25-.48 0-.89-.11-1.19-.29-.49-.28-.71-.73-.54-1.15.09-.23.24-.45.44-.68-.55-.1-1.12-.1-1.66-.02-.88.13-1.69.48-2.23.94 1.02.27 1.84.59 2.51.97.73.42 1.29.94 1.75 1.59 1.13.26 2.02.58 2.75 1.01.67.39 1.21.86 1.69 1.45m-8.04-.33c1.07-.09 2.33-.71 2.31-1.37-1.15.02-2.19.71-2.35 1.34v.02s.04 0 .04 0m8.96-2.6c-.1-.05-.2-.11-.31-.16-.24-.11-.52-.2-.84-.18-.44.03-.58.3-.4.4.4.23 1.09.06 1.54-.07m-4.51-2.6c-.22.26-.52.66-.12.89.19.1.64.02.69-.23.04-.19-.11-.35-.31-.49-.08-.06-.18-.12-.27-.18" fill="#eeba4e"/><path d="m93.51 84.38c.16-.64 1.2-1.33 2.35-1.34.02.65-1.24 1.28-2.31 1.37h-.04s0-.02 0-.02z" fill="#ef9c40"/><path d="m103.17 82.49c.17.32.17.65.04.96-.22.51-.83.98-1.62 1.29-.48-.59-1.02-1.06-1.69-1.45-.73-.42-1.62-.75-2.75-1.01-.45-.65-1.01-1.17-1.75-1.59-.67-.39-1.49-.7-2.51-.97.54-.46 1.35-.81 2.23-.94.53-.08 1.1-.08 1.66.02-.2.23-.35.45-.44.68-.17.42.05.87.54 1.15.3.17.71.29 1.19.29 1.72.01 2.7-1.27 1-2.25-.03-.02-.06-.03-.09-.05l-.23-.11c2-1.42 6.31-2.74 9.47-2.65.15 1.83-2.11 4.33-4.55 5.49l-.19-.13s-.06-.04-.09-.05c-1.7-.98-3.91-.41-3.88.59 0 .28.2.51.5.69.49.28 1.27.41 1.99.31.39-.05.78-.14 1.17-.26z" fill="#ef9c40"/><path d="m127.58 73.06v4.81c-.02 3.66-2.43 7.31-7.23 10.1-9.67 5.62-25.39 5.62-35.12 0-4.9-2.83-7.34-6.54-7.33-10.24v-4.81c0 3.7 2.45 7.42 7.35 10.24 9.73 5.62 25.45 5.62 35.12 0 4.8-2.79 7.21-6.44 7.22-10.1z" fill="#ef9c40"/><path d="m120.25 62.82c9.73 5.62 9.78 14.72.11 20.34s-25.39 5.62-35.12 0-9.78-14.72-.12-20.34c9.67-5.62 25.39-5.62 35.12 0z" fill="#eeba4e"/><path d="m115.88 64.94c7.3 4.21 7.34 11.05.09 15.26s-19.05 4.21-26.35 0-7.34-11.05-.09-15.26 19.05-4.21 26.35 0zm-13.11 13.27c1.72-.11 3.34-1.3 3.71-2.14.23-.52.18-1.08-.19-1.61 2.5-1.13 4.62-3.38 5.14-5.25.16-.58.16-1.08-.03-1.65-1.04-.13-1.89-.13-2.9-.04-3.22.31-7.09 1.54-9.04 3-.91-.21-1.87-.24-2.77-.1-1.45.21-3.51 1.15-3.69 2.15 1.1.19 2.38.54 3.39 1.12.38.22.71.47.99.75l.16.23c-1.76.15-3.11.93-3.42 1.91-.13.39-.07.64-.03 1.02.69 0 1.04.06 1.76-.02 1.69-.19 3.03-.97 3.28-1.99l.4.09c.49.16.92.35 1.3.57 1 .58 1.62 1.32 1.94 1.96" fill="#ef9c40"/><path d="m99.8 72.5s0 0 0 0c-.4-.23-.1-.63.12-.89.1.06.19.12.27.18.2.14.35.3.31.49-.05.26-.51.33-.69.23z" fill="#ef9c40"/><path d="m103.28 73.87c.32-.02.6.07.84.18.11.05.21.1.31.16-.44.13-1.14.3-1.54.07-.18-.11-.04-.37.4-.4z" fill="#ef9c40"/><path d="m106.48 76.07c-.36.84-1.98 2.04-3.71 2.14-.32-.64-.94-1.38-1.94-1.96-.38-.22-.81-.41-1.3-.57l-.4-.09c-.25 1.02-1.59 1.8-3.28 1.99-.72.08-1.07.03-1.76.02-.04-.38-.09-.63.03-1.02.31-.98 1.66-1.76 3.42-1.91l-.16-.23c-.28-.28-.61-.53-.99-.75-1-.58-2.28-.93-3.39-1.12.18-1 2.24-1.94 3.69-2.15.9-.13 1.86-.11 2.77.1 1.95-1.45 5.82-2.69 9.04-3 1.01-.1 1.86-.1 2.85 0 .23.6.24 1.1.07 1.68-.52 1.86-2.64 4.11-5.14 5.25.37.53.41 1.08.19 1.61zm-2.96 1.09c.79-.31 1.4-.78 1.62-1.29.13-.31.13-.64-.04-.96-.39.12-.78.2-1.17.26-.73.1-1.51-.03-1.99-.31-.3-.17-.5-.41-.5-.69-.02-.99 2.19-1.57 3.88-.59.03.02.06.04.09.05l.19.13c2.44-1.16 4.7-3.66 4.55-5.49-3.16-.08-7.47 1.23-9.47 2.65l.23.11s.06.03.09.05c1.7.98.72 2.26-1 2.25-.48 0-.89-.11-1.19-.29-.49-.28-.71-.73-.54-1.15.09-.23.24-.45.44-.68-.55-.1-1.12-.1-1.66-.02-.88.13-1.69.48-2.23.94 1.02.27 1.84.59 2.51.97.73.42 1.29.94 1.75 1.59 1.13.26 2.02.58 2.75 1.01.67.39 1.21.86 1.69 1.45m-8.05-.33c1.07-.09 2.33-.71 2.31-1.37-1.15.02-2.19.71-2.35 1.34v.02s.04 0 .04 0m8.96-2.6c-.1-.05-.2-.11-.31-.16-.24-.11-.52-.2-.84-.18-.44.03-.58.3-.4.4.4.23 1.09.06 1.54-.07m-4.5-2.6c-.22.26-.52.66-.12.89.19.1.64.02.69-.23.04-.19-.11-.35-.31-.49-.08-.06-.18-.12-.27-.18" fill="#eeba4e"/><path d="m95.43 76.8c.16-.64 1.2-1.33 2.35-1.34.02.65-1.24 1.28-2.31 1.37h-.04s0-.02 0-.02z" fill="#ef9c40"/><path d="m105.1 74.91c.17.32.17.65.04.96-.22.51-.83.98-1.62 1.29-.48-.59-1.02-1.06-1.69-1.45-.73-.42-1.62-.75-2.75-1.01-.45-.65-1.01-1.17-1.75-1.59-.67-.39-1.49-.7-2.51-.97.54-.46 1.35-.81 2.23-.94.53-.08 1.1-.08 1.66.02-.2.23-.35.45-.44.68-.17.42.05.87.54 1.15.3.17.71.29 1.19.29 1.72.01 2.7-1.27 1-2.25-.03-.02-.06-.03-.09-.05l-.23-.11c2-1.42 6.31-2.74 9.47-2.65.15 1.83-2.11 4.33-4.55 5.49l-.19-.13s-.06-.04-.09-.05c-1.7-.98-3.91-.41-3.88.59 0 .28.2.51.5.69.49.28 1.27.41 1.99.31.39-.05.78-.14 1.17-.26z" fill="#ef9c40"/><path d="m125.66 65.12v4.81c-.02 3.66-2.43 7.31-7.23 10.1-9.67 5.62-25.39 5.62-35.12 0-4.9-2.83-7.34-6.54-7.33-10.24v-4.81c0 3.7 2.45 7.42 7.35 10.24 9.73 5.62 25.45 5.62 35.12 0 4.8-2.79 7.21-6.44 7.22-10.1z" fill="#ef9c40"/><path d="m118.33 54.88c9.73 5.62 9.78 14.72.11 20.34s-25.39 5.62-35.12 0-9.78-14.72-.12-20.34c9.67-5.62 25.39-5.62 35.12 0z" fill="#eeba4e"/><path d="m113.95 57c7.3 4.21 7.34 11.05.09 15.26s-19.05 4.21-26.35 0-7.34-11.05-.09-15.26 19.05-4.21 26.35 0zm-13.1 13.27c1.72-.11 3.34-1.3 3.71-2.14.23-.52.18-1.08-.19-1.61 2.5-1.13 4.62-3.38 5.14-5.25.16-.58.16-1.08-.03-1.65-1.04-.13-1.89-.13-2.9-.04-3.22.31-7.09 1.54-9.04 3-.91-.21-1.87-.24-2.77-.1-1.45.21-3.51 1.15-3.69 2.15 1.1.19 2.38.54 3.39 1.12.38.22.71.47.99.75l.16.23c-1.76.15-3.11.93-3.42 1.91-.13.39-.07.64-.03 1.02.69 0 1.04.06 1.76-.02 1.69-.19 3.03-.97 3.28-1.99l.4.09c.49.16.92.35 1.3.57 1 .58 1.62 1.32 1.94 1.96" fill="#ef9c40"/><path d="m97.88 64.56s0 0 0 0c-.4-.23-.1-.63.12-.89.1.06.19.12.27.18.2.14.35.3.31.49-.05.26-.51.33-.69.23z" fill="#ef9c40"/><path d="m101.36 65.94c.32-.02.6.07.84.18.11.05.21.1.31.16-.44.13-1.14.3-1.54.07-.18-.11-.04-.37.4-.4z" fill="#ef9c40"/><path d="m104.55 68.13c-.36.84-1.98 2.04-3.71 2.14-.32-.64-.94-1.38-1.94-1.96-.38-.22-.81-.41-1.3-.57l-.4-.09c-.25 1.02-1.59 1.8-3.28 1.99-.72.08-1.07.03-1.76.02-.04-.38-.09-.63.03-1.02.31-.98 1.66-1.76 3.42-1.91l-.16-.23c-.28-.28-.61-.53-.99-.75-1-.58-2.28-.93-3.39-1.12.18-1 2.24-1.94 3.69-2.15.9-.13 1.86-.11 2.77.1 1.95-1.45 5.82-2.69 9.04-3 1.01-.1 1.86-.1 2.85 0 .23.6.24 1.1.07 1.68-.52 1.86-2.64 4.11-5.14 5.25.37.53.41 1.08.19 1.61zm-2.96 1.09c.79-.31 1.4-.78 1.62-1.29.13-.31.13-.64-.04-.96-.39.12-.78.2-1.17.26-.73.1-1.51-.03-1.99-.31-.3-.17-.5-.41-.5-.69-.02-.99 2.19-1.57 3.88-.59.03.02.06.04.09.05l.19.13c2.44-1.16 4.7-3.66 4.55-5.49-3.16-.08-7.47 1.23-9.47 2.65l.23.11s.06.03.09.05c1.7.98.72 2.26-1 2.25-.48 0-.89-.11-1.19-.29-.49-.28-.71-.73-.54-1.15.09-.23.24-.45.44-.68-.55-.1-1.12-.1-1.66-.02-.88.13-1.69.48-2.23.94 1.02.27 1.84.59 2.51.97.73.42 1.29.94 1.75 1.59 1.13.26 2.02.58 2.75 1.01.67.39 1.21.86 1.69 1.45m-8.04-.33c1.07-.09 2.33-.71 2.31-1.37-1.15.02-2.19.71-2.35 1.34v.02s.04 0 .04 0m8.96-2.6c-.1-.05-.2-.11-.31-.16-.24-.11-.52-.2-.84-.18-.44.03-.58.3-.4.4.4.23 1.09.06 1.54-.07m-4.51-2.6c-.22.26-.52.66-.12.89.19.1.64.02.69-.23.04-.19-.11-.35-.31-.49-.08-.06-.18-.12-.27-.18" fill="#eeba4e"/><path d="m93.51 68.86c.16-.64 1.2-1.33 2.35-1.34.02.65-1.24 1.28-2.31 1.37h-.04s0-.02 0-.02z" fill="#ef9c40"/><path d="m103.17 66.97c.17.32.17.65.04.96-.22.51-.83.98-1.62 1.29-.48-.59-1.02-1.06-1.69-1.45-.73-.42-1.62-.75-2.75-1.01-.45-.65-1.01-1.17-1.75-1.59-.67-.39-1.49-.7-2.51-.97.54-.46 1.35-.81 2.23-.94.53-.08 1.1-.08 1.66.02-.2.23-.35.45-.44.68-.17.42.05.87.54 1.15.3.17.71.29 1.19.29 1.72.01 2.7-1.27 1-2.25-.03-.02-.06-.03-.09-.05l-.23-.11c2-1.42 6.31-2.74 9.47-2.65.15 1.83-2.11 4.33-4.55 5.49l-.19-.13s-.06-.04-.09-.05c-1.7-.98-3.91-.41-3.88.59 0 .28.2.51.5.69.49.28 1.27.41 1.99.31.39-.05.78-.14 1.17-.26z" fill="#ef9c40"/><path d="m52.75 54.49c-.82-2.04-4.98-8.6-6.54-10.32-.2-.22-.2-.5 0-.49 1.56.08 5.72-1.68 6.54-2.77.1-.14.38.02.49.28.82 2.04 4.98 8.6 6.54 10.32.2.22.2.5 0 .49-1.56-.08-5.72 1.68-6.54 2.77-.1.14-.38-.02-.49-.28z" fill="#ee55ea"/><path d="m170.91 23.07 6.56 1.31-6.56-6.28-2.49-8-2.49 5.12-6.56-1.3 6.56 6.28 2.49 8z" fill="url(#F)"/><path d="m154.61 90c0 2.31-1.87 3.1-4.18 1.76-2.31-1.33-4.18-4.28-4.18-6.59s1.87-3.1 4.18-1.76 4.18 4.28 4.18 6.59z" fill="none" stroke="#fff" stroke-miterlimit="10" stroke-width="3"/><path d="m30.01 4.46c.62 1.99.94 3.99 1.18 5.98.22 1.99.32 3.99.32 5.98s-.1 3.99-.32 5.98c-.23 1.99-.55 3.99-1.18 5.98-.62-1.99-.95-3.99-1.18-5.98-.22-1.99-.32-3.99-.32-5.98s.1-3.99.32-5.98c.23-1.99.55-3.99 1.18-5.98z" fill="url(#G)"/><path d="m37.17 21.09c-1.5-.15-2.86-.56-4.17-1.05-1.3-.5-2.55-1.1-3.74-1.79s-2.34-1.46-3.42-2.34c-1.08-.89-2.11-1.86-2.99-3.09 1.51.15 2.86.56 4.17 1.05 1.3.5 2.55 1.1 3.74 1.79s2.33 1.47 3.42 2.35c1.08.89 2.11 1.86 2.99 3.08z" fill="url(#H)"/></svg>