<svg viewBox="0 0 200 195.97" xmlns="http://www.w3.org/2000/svg" xmlns:xlink="http://www.w3.org/1999/xlink"><linearGradient id="a" gradientUnits="userSpaceOnUse" x1="0" x2="200" y1="137.95" y2="137.95"><stop offset="0" stop-color="#4b5faa"/><stop offset="1" stop-color="#80d2e0"/></linearGradient><linearGradient id="b" gradientUnits="userSpaceOnUse" x1="99.88" x2="99.88" y1="170.13" y2="62.01"><stop offset="0" stop-color="#2a3363"/><stop offset=".18" stop-color="#2d3567"/><stop offset=".39" stop-color="#383d74"/><stop offset=".6" stop-color="#4b4b8b"/><stop offset=".82" stop-color="#645eaa"/><stop offset="1" stop-color="#7f72ca"/></linearGradient><linearGradient id="c" gradientUnits="userSpaceOnUse" x1="84.48" x2="115.29" y1="54.47" y2="54.47"><stop offset="0" stop-color="#d6c0d4"/><stop offset=".33" stop-color="#d3bed2"/><stop offset=".55" stop-color="#cbb6cd"/><stop offset=".73" stop-color="#bca8c5"/><stop offset=".89" stop-color="#a795b9"/><stop offset="1" stop-color="#9585ae"/></linearGradient><linearGradient id="d" gradientUnits="userSpaceOnUse" x1="97.41" x2="97.41" y1="146.5" y2="90.66"><stop offset="0" stop-color="#41447e"/><stop offset="1" stop-color="#2a3363"/></linearGradient><linearGradient id="e" gradientUnits="userSpaceOnUse" x1="54.8" x2="80.71" y1="39.26" y2="39.26"><stop offset="0" stop-color="#eeba4e"/><stop offset=".64" stop-color="#ff897d"/><stop offset="1" stop-color="#ff947d"/></linearGradient><linearGradient id="f" x1="68.36" x2="90.96" xlink:href="#e" y1="20.57" y2="20.57"/><linearGradient id="g" x1="95.47" x2="104.57" xlink:href="#e" y1="12.87" y2="12.87"/><linearGradient id="h" x1="109.08" x2="130.78" xlink:href="#e" y1="21.04" y2="21.04"/><linearGradient id="i" x1="122.41" x2="144.23" xlink:href="#e" y1="39.26" y2="39.26"/><path d="m170.47 96.89c39.21 22.61 39.41 59.21.4 82.12-38.81 22.61-102.13 22.61-141.33 0-39.21-22.61-39.41-59.21-.4-82.12 38.81-22.61 102.23-22.61 141.33 0z" fill="url(#a)"/><path d="m123.76 144.7c14.66 8.45 14.74 22.14.15 30.71-14.51 8.45-38.19 8.45-52.85 0s-14.74-22.14-.15-30.71c14.51-8.45 38.23-8.45 52.85 0z" fill="#2a3363" opacity=".2"/><path d="m130.42 62.72c-3.39 23.15-58.8 22.37-60.73-.71l-.36 90.41c1.03 14.57 23.43 18.98 35.88 17.4 8.74-1.04 18.73-4 23.49-12 .83-1.52 1.32-3.23 1.39-4.96.12-.35.28-90.34.36-90.68 0 .18-.01.36-.02.53z" fill="url(#b)"/><path d="m121.47 49.65c11.9 6.87 11.96 18.01.14 24.89s-31.06 6.87-42.96 0-11.96-18.01-.14-24.88c11.83-6.87 31.06-6.87 42.96 0z" fill="#ece2ec" stroke="#a697b8" stroke-miterlimit="10" stroke-width="1.82"/><path d="m115.28 41.39c-1.97 11.68-29.34 11.52-30.75-.36l-.05 17.91c.51 7.34 11.77 9.58 18.05 8.82 4.87-.59 11.17-2.42 12.61-7.72.06-.34.1-.68.1-1.02l.05-17.91c0 .09 0 .18-.01.27z" fill="url(#c)"/><path d="m110.75 34.78c6.02 3.48 6.06 9.12.07 12.6s-15.73 3.48-21.75 0c-6.03-3.48-6.06-9.12-.07-12.6s15.73-3.48 21.75 0z" fill="#ece2ec" stroke="#a99abb" stroke-miterlimit="10" stroke-width="1.82"/><path d="m130.42 109.7c-3.39 23.15-58.8 22.37-60.73-.71l-.36 43.43c1.03 14.57 23.43 18.98 35.88 17.4 8.74-1.04 18.73-4 23.49-12 .83-1.52 1.32-3.23 1.39-4.96.12-.35.28-43.35.36-43.69 0 .18-.01.36-.02.53z" fill="#2a3363"/><path d="m97.36 146.5c-.14 0-.27 0-.41-.01h-.17c-4.15-.24-7.39-3.67-7.37-7.82l.23-40.22c.01-4.29 3.52-7.78 7.81-7.78h.44c4.16.12 7.54 3.63 7.53 7.83l-.23 40.23c-.01 4.29-3.52 7.78-7.83 7.78z" fill="url(#d)"/><path d="m97.45 91.57h.23.19c3.67.11 6.65 3.21 6.64 6.91l-.23 40.24c-.01 3.79-3.11 6.87-6.92 6.87-.12 0-.24 0-.36 0h-.17c-3.66-.21-6.52-3.24-6.51-6.91l.23-40.23c.01-3.79 3.11-6.87 6.9-6.87m0-1.83c-4.79 0-8.71 3.86-8.72 8.68l-.23 40.23c-.01 4.63 3.6 8.47 8.23 8.73h.18c.15 0 .3.01.45.01 4.78 0 8.72-3.85 8.74-8.69l.23-40.23c.01-4.7-3.71-8.6-8.41-8.73-.06 0-.12 0-.18 0-.1 0-.19 0-.29 0z" fill="#5a579b"/><path d="m97.41 99.78v37.61" fill="none" stroke="#736cbb" stroke-linecap="round" stroke-miterlimit="10" stroke-width="10.92"/><path d="m97.41 116.38v21.01" fill="none" stroke="#ff907e" stroke-linecap="round" stroke-miterlimit="10" stroke-width="10.92"/><path d="m59.35 37.39 16.81-2.68c2.51-.4 4.87 1.31 5.27 3.82s-1.31 4.87-3.82 5.27c-.49.08-.99.07-1.45 0l-16.81-2.68c-1.03-.16-1.74-1.14-1.57-2.17.13-.83.79-1.45 1.57-1.57z" fill="url(#e)"/><path d="m83.19 28.87-11.61-15.4c-.63-.83-.46-2.02.37-2.65.69-.52 1.62-.49 2.27 0l15.4 11.61c2.03 1.53 2.43 4.41.9 6.43-1.53 2.03-4.41 2.43-6.43.9-.34-.26-.65-.58-.9-.9z" fill="url(#f)"/><path d="m101.89 1.37 2.68 19.41c.35 2.51-1.41 4.83-3.92 5.18s-4.83-1.41-5.18-3.92c-.06-.42-.05-.86 0-1.26l2.68-19.41c.14-1.03 1.1-1.76 2.13-1.61.86.12 1.5.8 1.61 1.61z" fill="url(#g)"/><path d="m110.42 22.43 14.5-10.71c.84-.62 2.02-.44 2.65.4.51.68.48 1.6 0 2.25l-10.71 14.5c-1.51 2.04-4.39 2.48-6.43.97s-2.48-4.39-.97-6.43c.28-.37.61-.7.97-.97z" fill="url(#h)"/><path d="m139.69 41.13-12.73 2.68c-2.51.53-4.98-1.08-5.51-3.59s1.08-4.98 3.59-5.51c.64-.14 1.31-.12 1.91 0l12.73 2.68c1.03.22 1.69 1.23 1.48 2.26-.16.76-.76 1.32-1.48 1.48z" fill="url(#i)"/></svg>