<svg viewBox="0 0 200 195.97" xmlns="http://www.w3.org/2000/svg" xmlns:xlink="http://www.w3.org/1999/xlink"><linearGradient id="a" gradientTransform="matrix(1 0 0 -1 262 -123.99)" gradientUnits="userSpaceOnUse" x1="-262" x2="-62" y1="-261.94" y2="-261.94"><stop offset="0" stop-color="#4b5faa"/><stop offset="1" stop-color="#80d2e0"/></linearGradient><linearGradient id="b" gradientTransform="matrix(1 0 0 -1 262 1728.5)" gradientUnits="userSpaceOnUse" x1="-194.66" x2="-133.46" y1="1598.37" y2="1598.37"><stop offset="0" stop-color="#7f72ca"/><stop offset=".06" stop-color="#6e66b3"/><stop offset=".14" stop-color="#595696"/><stop offset=".24" stop-color="#484980"/><stop offset=".35" stop-color="#3a3f7a"/><stop offset=".48" stop-color="#31386d"/><stop offset=".65" stop-color="#2c3465"/><stop offset="1" stop-color="#2a3363"/></linearGradient><linearGradient id="c" gradientUnits="userSpaceOnUse" x1="120.27" x2="85.09" y1="96.59" y2="119.65"><stop offset="0" stop-color="#ff797d"/><stop offset=".3" stop-color="#ff7e7d"/><stop offset=".65" stop-color="#ff807d"/><stop offset="1" stop-color="#ff947d"/></linearGradient><linearGradient id="d" x1="97.33" x2="97.72" xlink:href="#c" y1="78.71" y2="93.09"/><linearGradient id="e" gradientTransform="matrix(-1 -0 0 -1 2875.35 1728.5)" gradientUnits="userSpaceOnUse" x1="2744.47" x2="2810.44" y1="1687.18" y2="1687.18"><stop offset="0" stop-color="#ff797d"/><stop offset="1" stop-color="#ff947d"/></linearGradient><linearGradient id="f" gradientUnits="userSpaceOnUse" x1="96.66" x2="98.57" y1="53.49" y2="1.32"><stop offset="0" stop-color="#7f72ca"/><stop offset="0" stop-color="#7f72c9"/><stop offset=".22" stop-color="#605ba0"/><stop offset=".44" stop-color="#494a80"/><stop offset=".64" stop-color="#383d76"/><stop offset=".83" stop-color="#2e3668"/><stop offset="1" stop-color="#2a3363"/></linearGradient><linearGradient id="g" x1="117.97" x2="157.65" xlink:href="#e" y1="50.26" y2="50.26"/><linearGradient id="h" gradientUnits="userSpaceOnUse" x1="77.89" x2="38.2" y1="50.26" y2="50.26"><stop offset="0" stop-color="#ff947d"/><stop offset="1" stop-color="#ff797d"/></linearGradient><linearGradient id="i" gradientUnits="userSpaceOnUse" x1="82.91" x2="113.01" y1="56.8" y2="56.8"><stop offset="0" stop-color="#fff"/><stop offset=".52" stop-color="#f0eff0"/><stop offset=".71" stop-color="#ece8ec"/><stop offset=".84" stop-color="#e5dde6"/><stop offset=".95" stop-color="#dcccdc"/><stop offset="1" stop-color="#d5c0d6"/></linearGradient><linearGradient id="j" gradientUnits="userSpaceOnUse" x1="141.4" x2="164.19" y1="45.52" y2="65.86"><stop offset="0" stop-color="#7f72ca"/><stop offset="0" stop-color="#4e60ab"/><stop offset="1" stop-color="#2a3363"/></linearGradient><linearGradient id="k" x1="157.37" x2="180.73" xlink:href="#j" y1="74.91" y2="74.91"/><linearGradient id="l" x1="168.14" x2="193.39" xlink:href="#j" y1="83.19" y2="63.82"/><linearGradient id="m" gradientTransform="matrix(1 0 0 -1 1758.43 1728.5)" gradientUnits="userSpaceOnUse" x1="-1588.86" x2="-1588.86" y1="1668.12" y2="1680.21"><stop offset="0" stop-color="#d6c0d4"/><stop offset=".33" stop-color="#d3bed2"/><stop offset=".55" stop-color="#cbb6cd"/><stop offset=".73" stop-color="#bca8c5"/><stop offset=".89" stop-color="#a795b9"/><stop offset="1" stop-color="#9585ae"/></linearGradient><linearGradient id="n" gradientTransform="matrix(-1 -0 0 -1 8163.23 1728.5)" gradientUnits="userSpaceOnUse" x1="7997.68" x2="7999.3" y1="1682.42" y2="1682.42"><stop offset="0" stop-color="#d6c0d4"/><stop offset=".23" stop-color="#d1bbd1"/><stop offset=".5" stop-color="#c3aec9"/><stop offset=".79" stop-color="#ab99bb"/><stop offset="1" stop-color="#9585ae"/></linearGradient><linearGradient id="o" gradientTransform="matrix(-.68974593 -.72405149 -.72405149 .68974593 -7506.8 -4202.77)" gradientUnits="userSpaceOnUse" x1="-8296.95" x2="-8281.02" y1="-2523.23" y2="-2523.23"><stop offset="0" stop-color="#30769f"/><stop offset=".36" stop-color="#229aaf"/><stop offset=".78" stop-color="#15bebe"/><stop offset="1" stop-color="#10ccc5"/></linearGradient><linearGradient id="p" gradientTransform="matrix(-1 -0 -0 1 -6737.36 0)" x1="-6778.04" x2="-6746.15" xlink:href="#o" y1="67.98" y2="67.98"/><linearGradient id="q" gradientTransform="matrix(-1 -0 0 -1 -8366.36 1728.5)" x1="-8395.13" x2="-8395.13" xlink:href="#m" y1="1674.46" y2="1686.55"/><linearGradient id="r" gradientTransform="matrix(1 0 0 -1 -14771.15 1728.5)" x1="14803.57" x2="14806.83" xlink:href="#n" y1="1689.32" y2="1689.32"/><path d="m170.42 96.92c39.28 22.64 39.48 59.21.4 82.06-38.88 22.64-102.1 22.64-141.27 0-39.18-22.64-39.48-59.21-.4-82.06 38.77-22.64 102.3-22.64 141.27 0z" fill="url(#a)"/><path d="m121.01 120.41c12.76 7.37 12.83 19.34.13 26.73-12.7 7.4-33.37 7.4-46.17 0s-12.86-19.37-.16-26.73c12.73-7.4 33.4-7.4 46.2 0z" fill="#2a3363" opacity=".13"/><path d="m128.54 114.95-.03 12.91c0 4.49-2.97 9.01-8.89 12.43-11.9 6.93-31.26 6.93-43.24 0-6.04-3.48-9.04-8.06-9.04-12.61l.03-12.91c0 4.55 3 9.13 9.04 12.61 11.96 6.9 31.32 6.9 43.24 0 5.92-3.42 8.86-7.94 8.89-12.43z" fill="url(#b)"/><path d="m119.53 102.34c11.96 6.9 12.01 18.11.12 25.04-11.9 6.93-31.26 6.93-43.24 0s-12.04-18.14-.15-25.04c11.93-6.93 31.29-6.93 43.27 0z" fill="#2a3363"/><path d="m115.1 101.27c9.55 5.5 9.58 14.42.12 19.93-9.49 5.5-24.89 5.5-34.44 0s-9.58-14.42-.09-19.96c9.46-5.47 24.89-5.47 34.41.03z" fill="url(#c)"/><path d="m101.82 53.87 2.44 46.98c.12 2.24-.24 6.33-6.93 6.08-6.7-.25-5.63-6.08-5.63-6.08l2.44-46.98c.11-2.12 1.94-3.77 4.06-3.66 1.94.11 3.52 1.72 3.62 3.66z" fill="url(#d)"/><path d="m97.83 82.65c-1.11 0-2.44-.07-3.95-.22h-.07c-.83-.07-1.69-.22-2.62-.36-.57-.11-1.08-.22-1.61-.32-.14-.04-.32-.07-.5-.11-.57-.14-1.15-.29-1.69-.43-.04 0-.07 0-.11-.04-1.64-.43-4.92-1.77-5.85-2.37-2.22-1.29-3.45-2.05-5.78-4.49-.45-.49-.95-1-1.36-1.54-8.94-17.56-8.37-41.55-9.19-49.42-2.54-17.43 19-23.35 32.88-23.35 12.11-.01 31.96 4.78 32.98 19.13-.04 1.26-.07 2.69-.11 4.23-.04.68-.04 1.4-.07 2.05-.66 5.42-.65 31.73-9.12 47.37-.42.59-.88 1-1.36 1.54-1.18 1.26-2.15 2.05-2.51 2.33-2.94 2.09-4.05 2.79-7.75 4.09-.72.25-1.26.39-1.36.43-.04 0-.07 0-.11.04-.54.14-1.11.29-1.69.43-1.49.33-3.26.68-4.74.79h-.07c-1.66.19-2.98.22-4.23.22z" fill="url(#e)"/><path d="m98.04 36.18c-3.88 0-7.63-.42-11.22-1.27-3.69-.88-7.01-2.15-9.85-3.78-1.44-.82-2.71-1.73-3.82-2.71-1.08-.95-1.99-1.96-2.74-3-.72-1.01-1.27-2.09-1.63-3.16-.36-1.08-.55-2.19-.52-3.26 0-1.08.2-2.19.55-3.23.36-1.08.91-2.12 1.6-3.13.72-1.04 1.63-2.02 2.67-2.97 1.08-.95 2.35-1.86 3.78-2.67 2.84-1.63 6.13-2.9 9.79-3.78 3.56-.85 7.31-1.27 11.16-1.27s7.63.42 11.19 1.27c3.69.85 7.01 2.12 9.85 3.78 1.44.82 2.74 1.73 3.85 2.71 1.08.95 1.99 1.96 2.74 3 .72 1.01 1.27 2.09 1.63 3.2.36 1.08.55 2.19.52 3.29 0 1.08-.2 2.15-.55 3.23-.36 1.08-.91 2.12-1.6 3.13-.72 1.04-1.63 2.02-2.67 2.94-1.08.95-2.35 1.86-3.75 2.67-2.84 1.63-6.13 2.94-9.82 3.78-3.52.82-7.27 1.24-11.16 1.24z" fill="url(#f)"/><path d="m97.83.39c4.23 0 8.36.47 12.27 1.36 4.06.93 7.68 2.33 10.8 4.13 1.58.9 2.98 1.9 4.2 2.98 1.18 1.04 2.19 2.12 2.98 3.27.79 1.11 1.36 2.3 1.76 3.48.39 1.18.57 2.37.57 3.55s-.22 2.33-.57 3.48c-.39 1.15-.97 2.3-1.72 3.41-.79 1.11-1.76 2.19-2.91 3.23-1.18 1.04-2.55 2.01-4.09 2.91-3.09 1.79-6.71 3.19-10.77 4.16-3.91.93-8.04 1.4-12.27 1.4s-8.36-.47-12.31-1.4c-4.06-.93-7.68-2.33-10.8-4.16-1.58-.9-2.98-1.9-4.2-2.98-1.18-1.04-2.19-2.12-2.98-3.27-.79-1.11-1.36-2.26-1.76-3.45-.39-1.15-.57-2.37-.57-3.52s.22-2.37.57-3.52c.39-1.15.97-2.33 1.76-3.41.79-1.11 1.76-2.23 2.94-3.23 1.18-1.04 2.58-2.05 4.13-2.94 3.09-1.79 6.71-3.19 10.73-4.13 3.88-.9 8-1.36 12.24-1.36m0-.34c-4.2 0-8.4.47-12.35 1.4s-7.64 2.33-10.84 4.16c-1.58.93-2.98 1.9-4.16 2.98-1.18 1.04-2.19 2.15-2.98 3.3s-1.4 2.3-1.79 3.52c-.39 1.18-.61 2.4-.61 3.62s.22 2.44.61 3.66 1 2.4 1.83 3.55c.79 1.15 1.83 2.26 3.01 3.34 1.22 1.08 2.62 2.08 4.23 3.01 3.23 1.87 6.93 3.27 10.87 4.2s8.18 1.4 12.38 1.4c4.2 0 8.4-.47 12.35-1.4s7.64-2.33 10.84-4.2c1.58-.93 2.98-1.9 4.16-2.94s2.19-2.15 2.98-3.27c.79-1.15 1.4-2.3 1.79-3.48s.61-2.4.61-3.59-.18-2.44-.61-3.66c-.39-1.22-1-2.4-1.83-3.55s-1.83-2.26-3.05-3.34-2.62-2.08-4.27-3.01c-3.23-1.87-6.93-3.23-10.87-4.16-3.91-1.08-8.11-1.54-12.31-1.54z" fill="#ff807d"/><path d="m130.15 32.42c1.09.04 2.42-.1 3.79-.33 1.38-.23 2.82-.55 4.29-.9 2.97-.69 5.96-1.56 9.46-2.1.88-.13 1.81-.23 2.86-.24.53 0 1.07.01 1.7.1l.23.03.12.02.36.08c.49.11.94.3 1.35.55.8.49 1.32 1.13 1.62 1.62.62 1.03.75 1.77.88 2.43.11.66.13 1.21.14 1.75 0 1.06-.11 2-.25 2.91-.62 3.59-1.82 6.75-3.29 9.79-2.98 6.02-7.24 11.36-12.52 15.48-5.27 4.13-11.57 6.87-18.05 8.03-1.34.24-2.62-.65-2.86-1.99-.23-1.29.6-2.54 1.87-2.83 5.7-1.33 10.99-3.98 15.34-7.75 4.35-3.75 7.8-8.56 10.07-13.8 1.12-2.6 1.98-5.38 2.27-7.94.07-.63.09-1.24.07-1.74-.02-.24-.04-.47-.08-.57-.02-.1-.09-.13.11.24.1.16.35.51.82.79.25.15.52.26.81.34.07.02.15.03.22.04h-.02-.06c-.15-.01-.39 0-.63.01-.51.03-1.13.13-1.77.26-2.63.55-5.58 1.55-8.62 2.44-1.53.45-3.1.9-4.77 1.28-1.67.37-3.43.69-5.45.75h-.03c-2.42.07-4.43-1.83-4.5-4.25s1.84-4.43 4.25-4.5h.28z" fill="url(#g)"/><path d="m65.71 41.18c-2.03-.06-3.78-.38-5.45-.75-1.67-.38-3.24-.82-4.77-1.28-3.04-.9-5.99-1.9-8.62-2.44-.65-.13-1.27-.23-1.77-.26-.25-.02-.48-.02-.63-.01h-.06s-.03 0-.02 0c.07 0 .15-.02.22-.04.29-.08.57-.19.81-.34.47-.28.72-.64.82-.79.2-.37.13-.35.11-.24-.03.1-.06.33-.08.57-.03.5 0 1.11.07 1.74.3 2.56 1.15 5.34 2.27 7.94 2.27 5.24 5.72 10.05 10.07 13.8 4.35 3.77 9.64 6.42 15.34 7.75 1.32.31 2.15 1.63 1.84 2.96-.3 1.28-1.55 2.09-2.83 1.87-6.48-1.16-12.78-3.91-18.05-8.03-5.28-4.12-9.54-9.46-12.52-15.48-1.48-3.04-2.68-6.19-3.29-9.79-.15-.91-.25-1.85-.25-2.91 0-.54.03-1.09.14-1.75.13-.66.26-1.4.88-2.43.3-.49.82-1.13 1.62-1.62.42-.25.86-.44 1.35-.55l.36-.08.12-.02.23-.03c.62-.09 1.17-.1 1.7-.1 1.05.01 1.97.11 2.86.24 3.49.54 6.49 1.41 9.46 2.1 1.47.35 2.91.67 4.29.9 1.37.23 2.71.37 3.79.33 2.42-.08 4.44 1.81 4.53 4.22.08 2.42-1.81 4.44-4.22 4.53-.09 0-.18 0-.26 0h-.04z" fill="url(#h)"/><path d="m99.15 43.34 2.09 5.54c.71 1.89 2.48 3.17 4.5 3.27l5.92.27c1.2.06 1.69 1.57.75 2.32l-4.63 3.7c-1.58 1.26-2.25 3.34-1.72 5.29l1.57 5.71c.32 1.16-.97 2.1-1.98 1.44l-4.95-3.26c-1.69-1.11-3.87-1.11-5.56 0l-4.95 3.26c-1.01.66-2.29-.27-1.98-1.44l1.57-5.71c.53-1.95-.14-4.02-1.72-5.29l-4.63-3.7c-.94-.75-.45-2.27.75-2.32l5.92-.27c2.02-.09 3.78-1.38 4.5-3.27l2.09-5.54c.42-1.13 2.02-1.13 2.44 0z" fill="url(#i)"/><path d="m177.71 145.16c8.82 5.11 8.82 13.33.1 18.44s-23.04 5.11-31.86 0-8.82-13.33-.1-18.44 23.04-5.11 31.86 0z" fill="#2a3363" opacity=".2"/><path d="m165.69 56.4c-.06 1.7-1.34 3.03-3.05 2.97h-.2s-19.17-1.2-19.17-1.2l-1.4-.07-.62-1.09-2.26-7.57c-.52-.89-.24-2 .65-2.52.79-.52 1.9-.24 2.42.55l2.52 5.76 18.04.23c1.7-.14 3.03 1.24 3.07 2.94z" fill="url(#j)"/><circle cx="141.67" cy="46.11" fill="#d6c0d4" r="3.71"/><path d="m166.29 32.85c.7-.6 1.7-.9 2.61-1.1 2.1-.4 4.41-.2 6.01 1 .6.5 1.1 1.1 1.5 1.8 1.8 3.01 1.9 6.61 2.2 10.12.3 3.41.8 6.81 1.9 10.12.1.2.1.4.3.5.1.1.3.1.5.2.8.1 1.6.2 2.3.3-.1.3-.4.4-.7.4-1.4.2-2.81-.1-4.11-.7-.9-.4-6.51-2.2-7.21-2.91-.6-.7-1-1.5-1.4-2.4-.8-1.7-1.7-3.41-2.71-5.01-1.5-2.5 1.6-3.61.7-6.41-.8-2.4-1-4.01-.5-6.41" fill="#10ccc5"/><path d="m161.88 156.18 6.81-7.82c1.3-1.4 3.41-1.6 4.91-.3 1.4 1.3 1.6 3.41.3 4.91-.2.2-.4.4-.7.6l-8.52 5.81c-1 .7-2.3.4-3.01-.6-.5-.9-.4-1.9.2-2.61z" fill="#2a3363"/><path d="m149.05 149.27 9.12-6.01c1.6-1 3.71-.6 4.81 1s.6 3.71-1 4.81c-.2.2-.5.3-.8.4l-10.32 3.61c-1.1.4-2.3-.2-2.71-1.3-.3-1 .1-2 .9-2.5z" fill="#2a3363"/><path d="m175.3 124.32-1.5 23.85c-.1 1.2-1.1 2.2-2.4 2.1-1.1-.1-2-1-2.1-2.1l-1.3-23.85c-.1-2 1.4-3.71 3.41-3.81 2-.1 3.71 1.4 3.81 3.41.1.1.1.3.1.4z" fill="#d6c0d4"/><path d="m163.88 119.81-1.5 23.85c-.1 1.2-1.1 2.2-2.4 2.1-1.1-.1-2-1-2.1-2.1l-1.3-23.85c-.1-2 1.4-3.71 3.41-3.81 2-.1 3.71 1.4 3.81 3.41.1.1.1.3.1.4z" fill="#d6c0d4"/><path d="m169.69 92.86-5.61 27.75c-.4 2.1-2.5 3.41-4.61 3.01-1.9-.4-3.11-2.1-3.11-3.91l.8-28.35c.1-3.51 3.01-6.21 6.51-6.11 3.51.1 6.21 3.01 6.11 6.51 0 .4 0 .8-.1 1.1z" fill="#80d1e0"/><path d="m179.61 97.17-4.11 27.45c-.3 2.1-2.3 3.61-4.41 3.21-1.9-.3-3.21-1.9-3.31-3.71l-.7-27.75c-.1-3.51 2.61-6.41 6.11-6.41 3.51-.1 6.41 2.61 6.41 6.11.1.3 0 .7 0 1.1z" fill="#80d1e0"/><path d="m179.31 91.86-1.8 13.23-20.04-2.71v-11.82z" fill="#80d1e0"/><path d="m157.37 90.46 12.12 6.41c4.51 2.3 9.92-1 9.92-6.11l-2-13.63 2-11.22c0-5.31 3.61-7.61-1.1-10.02l-8.92-3.11c-2.71-1-5.71-.7-8.22.8-3.71 2.2-3.51 5.41-3.51 8.92l1.6 10.72-1.9 17.23z" fill="url(#k)"/><path d="m176.71 57.19c1.4-.9 3.31-.5 4.21.9l.1.1 9.32 16.83.7 1.2-.5 1.1-6.41 12.82c-.5.9-1.6 1.3-2.5.8-.9-.4-1.2-1.5-.9-2.3l4.81-12.12-9.62-15.23c-1-1.3-.6-3.21.8-4.11z" fill="url(#l)"/><path d="m173.8 50.08v-1.7h-8.22v4.21l-.3 2.1c-.1.9 0 1.8.4 2.71l1.3 3.11 4.01-1.9c1.8-.9 2.91-2.71 2.91-4.71l-.1-3.81z" fill="url(#m)"/><path d="m168.19 52.18c3.61 0 6.61-2.91 6.61-6.61v-5.61c0-3.61-2.91-6.61-6.61-6.61-3.61 0-6.61 2.91-6.61 6.61l.4 5.61c0 3.71 2.61 6.61 6.21 6.61z" fill="#d6c0d4"/><path d="m174.5 44.37h1c.8 0 1.4-.6 1.4-1.4 0-.8-.6-1.4-1.4-1.4h-1v2.81z" fill="#d6c0d4"/><path d="m164.18 47.27 1.4-.3v-2.1h-.7l-.9 2.1c-.1.1 0 .4.2.3z" fill="url(#n)"/><g fill="#2a3363"><circle cx="168.19" cy="43.47" r=".6"/><circle cx="163.68" cy="42.87" r=".6"/><path d="m167.09 41.76c.5-.6 1.4-.8 2.1-.6.4.1.8.2 1.1.4s.6.4.8.7c-.4 0-.7-.1-1.1-.1-.3-.1-.6-.2-.9-.2s-.6-.1-.9-.1c-.4-.1-.7-.1-1.1-.1z"/><path d="m164.58 41.26c-.3-.1-.5-.1-.7-.2s-.4-.1-.6-.2-.4-.1-.5-.2l-.6-.3c.4-.4 1-.4 1.5-.3.2.1.5.2.6.4.1.3.3.5.3.8z"/></g><circle cx="181.72" cy="91.16" fill="#d6c0d4" r="3.71"/><path d="m166.49 49.68c-.2 0-.4 0-.5-.1l-.4-.1c-.1 0-.2-.1-.2-.2s.1-.2.2-.2l.4.1c.8.2 1.6-.1 2.1-.7.1-.1.2-.1.3 0s.1.2 0 .3c-.4.5-1.1.9-1.9.9z" fill="#2a3363"/><path d="m174.6 36.45c-.4-1.8-1.8-3.11-3.31-3.81-1.5-.7-.5-1.7-3.81-2.5-3.71-.9-5.21.7-6.51 2-1.7 1.8-.8 4.31-.4 4.81 1.9 2.2 4.71 1 6.71 1 1.8 0 3.31-.2 4.81.9 2 1.5 1.7 4.31 1.3 7.01 1.6-1.4 1.6-5.91 3.21-8.52.1-.1.1-.2.1-.4 0-.1-.1-.2-.1-.3-.4-.6-.7-1.1-1.1-1.7-.5-.8.2-1.5-.5-2.1-1.6-1.4-5.31-2.81-7.01-1.5" fill="#10ccc5"/><path d="m21.84 141.27c-8.82 5.11-8.82 13.33-.1 18.44s23.04 5.11 31.86 0 8.82-13.33.1-18.44-23.04-5.11-31.86 0z" fill="#2a3363" opacity=".2"/><path d="m21.74 31.86c0 1.5.3 6.61.4 6.91.1.6.5 1 .9 1.4 1.1 1 2.2 2 3.41 2.91l-2-7.92-2.71-3.31z" fill="#ff907e"/><path d="m36.57 153.9-6.81-7.82c-1.3-1.4-3.41-1.6-4.91-.3-1.4 1.3-1.6 3.41-.3 4.91.2.2.4.4.7.6l8.52 5.81c1 .7 2.3.4 3.01-.6.5-.9.4-1.9-.2-2.61z" fill="#2a3363"/><path d="m48.59 146.98-8.32-5.91c-1.6-1.1-3.71-.8-4.81.8s-.8 3.71.8 4.81c.2.2.5.3.8.4l9.52 3.61c1.1.4 2.3-.1 2.71-1.2.4-.9 0-1.9-.7-2.5z" fill="#2a3363"/><path d="m23.14 118.03 1.5 27.85c.1 1.2 1.1 2.2 2.3 2.1s2.1-1 2.1-2.1l1.3-27.95c.1-2-1.5-3.71-3.51-3.81-2-.1-3.71 1.5-3.81 3.51 0 .1 0 .2.1.4z" fill="#d6c0d4"/><path d="m34.56 113.52 1.5 27.85c.1 1.2 1.1 2.2 2.3 2.1s2.1-1 2.1-2.1l1.3-27.95c.1-2-1.5-3.71-3.51-3.81-2-.1-3.71 1.5-3.81 3.51.1.1.1.3.1.4z" fill="#d6c0d4"/><path d="m55.62 78.16c.48-.88.2-2.05-.63-2.62l-12.58-8.76-.62-5.65c-.2-1.84-1.79-3.05-3.57-2.94-1.84.2-3.05 1.79-2.94 3.57l.05.28 1.38 6.66.34 1.45 1.05.6 14.76 8.07c.99.68 2.22.31 2.76-.66z" fill="#d6c0d4"/><path d="m34.11 50.41h7.31v15.03h-7.31z" fill="url(#o)" transform="matrix(.97850899 -.20620419 .20620419 .97850899 -11.14 9.04)"/><path d="m29.65 86.47 4.41 27.85v-.4s1 6.91 1 6.91c.3 1.8 1.9 3.01 3.71 2.81 1.5-.2 2.61-1.4 2.81-2.81l.8-6.91v-.4s-2.2-28.25-2.2-28.25c-.2-2.91-2.71-5.11-5.61-4.81-2.91.2-5.11 2.71-4.81 5.61-.1.1-.1.2-.1.4z" fill="#2a3363"/><path d="m19.84 90.67 1.6 17.53.8 8.72.1 1.1.2 1.1.3 2.2.7 4.31c.3 1.8 2 3.01 3.71 2.71 1.5-.2 2.5-1.4 2.71-2.81l.6-4.51.3-2.2c0-.4.1-.7.1-1.1v-1.1s-.3-8.82-.3-8.82l-.5-17.73c-.1-2.91-2.5-5.21-5.41-5.11s-5.21 2.5-5.11 5.41c.1.1.2.2.2.3z" fill="#2a3363"/><path d="m19.13 85.46 1.71 13.33 20.04-2.81v-11.72z" fill="#2a3363"/><path d="m15.73 61.92c-1.5-1-3.51-.6-4.51.9-.1.1-.1.2-.2.3l-2.71 5.21-.5 1 .1.8 2.4 16.73c.2 1.1 1.2 1.8 2.2 1.7s1.7-1 1.7-2l-.5-15.73 2.81-4.21c1-1.7.7-3.71-.8-4.71z" fill="#d6c0d4"/><path d="m8.79 66s5.66-12.46 10.3-16.12c3.05-2.41 12.97-4.6 12.97-4.6 4.11-2.1 8.62 2.1 8.62 6.71v32.46s-.1 0-.1 0l-11.72 6.01c-4.51 2.3-9.92-1-9.92-6.11v-21.02s-3.89 6.43-3.89 6.43l-6.26-3.78z" fill="url(#p)"/><circle cx="53.94" cy="77.25" fill="#d6c0d4" r="4.01"/><path d="m24.54 43.68v-1.7s8.22 0 8.22 0v4.21s.3 2.1.3 2.1c.1.9 0 1.8-.4 2.71l-1.3 3.11-4.01-1.9c-1.8-.9-2.91-2.71-2.91-4.71l.1-3.81z" fill="url(#q)"/><path d="m30.26 45.89c-3.61 0-6.61-2.91-6.61-6.61v-5.61c0-3.61 2.91-6.61 6.61-6.61 3.61 0 6.61 2.91 6.61 6.61v5.61c-.1 3.61-3.01 6.61-6.61 6.61z" fill="#d6c0d4"/><path d="m24.04 38.27h-1.2c-.9 0-1.7-.7-1.7-1.7 0-.9.7-1.7 1.7-1.7h1.2s0 3.41 0 3.41z" fill="#d6c0d4"/><path d="m35.16 40.38-2.71-.7v-1.7s1.4 0 1.4 0l1.8 1.7c.2.3-.1.8-.5.7z" fill="url(#r)"/><path d="m30.16 36.57c-.33 0-.6.27-.6.6s.27.6.6.6.6-.27.6-.6-.27-.6-.6-.6z" fill="#2a3363"/><path d="m34.66 35.97c-.33 0-.6.27-.6.6s.27.6.6.6.6-.27.6-.6-.27-.6-.6-.6z" fill="#2a3363"/><path d="m31.66 35.37c-.4-.4-.9-.7-1.4-.8-.5-.2-1.1-.2-1.6-.1s-1.1.3-1.5.6-.8.6-1.2 1c.6 0 1.1-.1 1.5-.2.5-.1.9-.2 1.3-.3s.9-.1 1.3-.2z" fill="#2a3363"/><path d="m33.26 35.17c.4-.1.7-.2 1-.3s.6-.2.8-.3c.3-.1.5-.2.8-.3s.6-.2.9-.4c-.6-.6-1.4-.6-2.1-.4-.4.1-.7.3-.9.6-.3.3-.5.7-.5 1.1z" fill="#2a3363"/><circle cx="12.22" cy="86.57" fill="#d6c0d4" r="4.01"/><path d="m31.86 43.28c.2 0 .4 0 .5-.1l.4-.1c.1 0 .2-.1.2-.2s-.1-.2-.2-.2l-.4.1c-.8.2-1.6-.1-2.1-.7-.1-.1-.2-.1-.3 0s-.1.2 0 .3c.5.6 1.2.9 1.9.9z" fill="#2a3363"/><path d="m37.67 27.35c-.6 2.2-2.61 3.71-4.71 4.41s-4.01.6-6.31.3c-.3 0-.5-.1-.8.1-.2.1-.3.4-.3.6-.4 1.6-.6 3.61-.5 5.31-.2-.5-1.1.2-1.1-1.8 0-.5-.2-.5-.5-.8-.6-.7-1.7-1.4-1.8-2.3s-.3-2.61.1-3.41c.4-.9 1.6-1.6 2.3-2.4 3.51-4.31 9.12-3.61 10.32-1.7.3.4 1.9.6 1.6 1" fill="#ff907e"/></svg>