<svg viewBox="0 0 200 195.97" xmlns="http://www.w3.org/2000/svg" xmlns:xlink="http://www.w3.org/1999/xlink"><linearGradient id="a" gradientTransform="matrix(1 0 0 -1 262 -575.92)" gradientUnits="userSpaceOnUse" x1="-262" x2="-62" y1="-713.87" y2="-713.87"><stop offset="0" stop-color="#4b5faa"/><stop offset="1" stop-color="#80d2e0"/></linearGradient><linearGradient id="b" gradientUnits="userSpaceOnUse" x1="93.59" x2="158.07" y1="81.46" y2="81.46"><stop offset="0" stop-color="#2a3363"/><stop offset=".18" stop-color="#2d3567"/><stop offset=".39" stop-color="#383d74"/><stop offset=".6" stop-color="#4b4b8b"/><stop offset=".82" stop-color="#645eaa"/><stop offset="1" stop-color="#7f72ca"/></linearGradient><linearGradient id="c" gradientUnits="userSpaceOnUse" x1="114.55" x2="133.88" y1="78.26" y2="78.26"><stop offset="0" stop-color="#ff797d"/><stop offset=".64" stop-color="#ff897d"/><stop offset="1" stop-color="#ff947d"/></linearGradient><linearGradient id="d" gradientUnits="userSpaceOnUse" x1="36.43" x2="133.58" y1="103.09" y2="103.09"><stop offset="0" stop-color="#eeba4e" stop-opacity="0"/><stop offset=".18" stop-color="#eeba4e" stop-opacity=".01"/><stop offset=".34" stop-color="#eeba4e" stop-opacity=".06"/><stop offset=".48" stop-color="#eeba4e" stop-opacity=".13"/><stop offset=".62" stop-color="#eeba4e" stop-opacity=".23"/><stop offset=".76" stop-color="#eeba4e" stop-opacity=".37"/><stop offset=".89" stop-color="#eeba4e" stop-opacity=".53"/><stop offset="1" stop-color="#eeba4e" stop-opacity=".7"/></linearGradient><linearGradient id="e" gradientUnits="userSpaceOnUse" x1="57.26" x2="104.01" y1="188.5" y2="107.54"><stop offset="0" stop-color="#7f72ca" stop-opacity="0"/><stop offset=".21" stop-color="#7b6fc6" stop-opacity=".04"/><stop offset=".41" stop-color="#7168ba" stop-opacity=".15"/><stop offset=".6" stop-color="#615ca6" stop-opacity=".35"/><stop offset=".79" stop-color="#4a4b8a" stop-opacity=".62"/><stop offset=".98" stop-color="#2c3566" stop-opacity=".97"/><stop offset="1" stop-color="#2a3363"/></linearGradient><path d="m170.47 96.89c39.21 22.61 39.41 59.21.4 82.12-38.81 22.61-102.13 22.61-141.33 0-39.21-22.61-39.41-59.21-.4-82.12 38.81-22.61 102.23-22.61 141.33 0z" fill="url(#a)"/><path d="m126.01 28c-17.76-10.26-32.21-2.02-32.27 18.39l-.16 55.82 64.32 37.14.16-55.82c.06-20.41-14.29-45.27-32.05-55.53z" fill="url(#b)"/><path d="m174.29 72.64c-.55-13.54-6.19-26.51-14.07-37.38-8.37-10.95-21.03-22.81-35.87-20.77-3.93.29-17.62 9.54-21.22 11.28 5.47-3.2 12.28-2.48 17.96-.17 17.75 7.82 29.69 25.64 34.99 43.83 3.74 9.51 1.25 59.23 1.84 69.93l16.24-9.44c-.02-1.46.2-55.92.14-57.27z" fill="#2a3363"/><path d="m112.84 93.5 2.43-19.03c-2.88-3.86-4.56-8.31-4.56-12.17 0-5.55 3.57-9.43 8.69-9.43 2.17 0 4.44.68 6.75 2.01 6.5 3.75 11.59 11.91 11.59 18.57 0 3.87-1.67 6.89-4.4 8.38l2.8 25.1-23.28-13.44z" fill="none" stroke="#2a3363" stroke-miterlimit="10" stroke-width="4.61"/><path d="m133.88 73.45c0-5.34-4.33-12.16-9.66-15.24-5.34-3.08-9.66-1.25-9.66 4.08 0 3.54 1.9 7.73 4.74 11.05l-2.31 18.1 14.47 8.36-2.31-20.77c2.84-.05 4.74-2.04 4.74-5.58z" fill="url(#c)"/><path d="m133.58 73.42c0-5.34-4.33-12.16-9.66-15.24-2.4-1.39-4.6-1.78-6.29-1.3l-.06-.2-73.28 7.82.04.12c-4.78.71-7.89 4.53-7.89 10.88 0 6.98 3.75 15.24 9.35 21.79l-4.56 35.7 28.55 16.48 61.39-49.72-2.31-20.77c2.84-.05 4.74-2.04 4.74-5.58z" fill="url(#d)"/><path d="m94.78 102.26-90.99 52.57c7.08 5.83 15.2 11.45 24.36 16.86 12.91 7.5 26.86 13.53 41.85 18.74l88.7-51.32z" fill="url(#e)" opacity=".2"/><g fill="#ef9c40"><path d="m101.82 100.01c-.04-.39-.2-.67-.43-.8l-3.74-2.17c.24.14.4.41.43.8l.79 10.34c0 .06.03.1.08.13l3.74 2.17s-.08-.07-.08-.13z"/><path d="m104.28 80.76s-.01 0-.02-.01c-.05-.03-.11-.06-.16-.08-.06-.02-.11-.04-.17-.06-.02 0-.05-.01-.07-.02-.01 0-.02 0-.03 0-.03 0-.05-.01-.08-.02-.06-.01-.13-.02-.19-.02-.07 0-.13 0-.2 0-.08 0-.16.01-.24.02-.09.01-.19.03-.28.06 0 0 0 0-.01 0s-.02 0-.04.01c-.11.03-.21.07-.32.11-.08.03-.16.07-.24.11-7.62 3.82-16.66 9.11-23.93 13.31-2.99 1.72-5.74 3.33-7.99 4.63-1.96 1.14-3.53 2.06-4.5 2.62-.23.13-.43.24-.59.34-1.77 1-3.53 2.01-5.3 3.03-1.53.88-3.06 1.77-4.59 2.67l3.74 2.17c1.53-.9 3.06-1.79 4.59-2.67 1.77-1.02 3.53-2.03 5.3-3.03.16-.09.36-.2.59-.34.97-.56 2.54-1.48 4.5-2.62 2.24-1.3 5-2.91 7.99-4.63 8.33-4.81 18.41-10.54 23.93-13.31.19-.1.38-.17.56-.22.01 0 .03 0 .04-.01.19-.05.37-.08.54-.09.17 0 .32 0 .47.04h.03c.15.04.29.09.42.16l-3.74-2.17z"/><path d="m86.37 106.41c-.05-.5-.25-.86-.56-1.04l-3.74-2.17c.31.18.51.53.56 1.04l1.21 12.62c0 .06.04.11.08.14l3.74 2.17s-.08-.07-.08-.14z"/><path d="m50.27 119c-.02-.14-.03-.29-.06-.42-.03-.17-.08-.32-.12-.47-.03-.12-.06-.25-.1-.37-.05-.15-.12-.29-.18-.43-.05-.1-.09-.22-.14-.31-.07-.14-.16-.26-.24-.38-.05-.08-.1-.17-.16-.25-.1-.13-.21-.24-.32-.35-.06-.06-.1-.12-.16-.17-.18-.15-.36-.29-.56-.41l-3.74-2.17c.2.12.39.25.56.41.06.05.11.11.16.17.11.11.23.22.33.35.06.08.11.17.16.25.08.12.17.25.24.38.05.1.09.21.14.31.06.14.13.28.18.43.04.12.07.24.1.36.04.16.09.31.12.48.03.13.04.28.06.42.02.17.05.34.06.53v.47.57c0 .17-.03.34-.04.52-.02.25-.04.49-.08.75-.06.41-.15.82-.25 1.24-.02.07-.03.13-.05.2-.11.41-.24.81-.38 1.22-.02.05-.04.1-.06.15-.15.41-.32.82-.51 1.23-.02.04-.04.08-.05.12-.2.42-.41.83-.65 1.24-.01.02-.02.05-.04.07-.24.41-.49.81-.76 1.2-.02.02-.03.05-.05.07-.25.36-.51.7-.78 1.03-.06.07-.12.14-.18.22-.27.32-.56.63-.85.92-.02.02-.04.05-.07.07-.34.33-.68.64-1.04.93-.48.39-.96.71-1.43.98-.31.18-.61.32-.9.45-.09.04-.19.08-.28.11-.18.07-.35.13-.53.18-.11.03-.21.06-.32.09-.1.02-.2.05-.3.06-.13.02-.26.04-.38.06-.07 0-.15.02-.22.02-.16.01-.32.01-.47 0-.03 0-.07 0-.1 0-.18-.01-.36-.03-.54-.07-.04 0-.09-.02-.13-.03-.14-.03-.27-.07-.4-.12-.04-.01-.08-.03-.12-.04-.17-.07-.33-.14-.48-.23l3.74 2.17s.03.02.04.02c.12.07.24.13.37.18.02 0 .05.02.07.02.04.02.08.03.13.04.06.02.13.05.19.07.07.02.14.03.21.05.04.01.09.02.13.03.02 0 .05.01.07.02.14.02.29.04.44.05h.03.1.36c.04 0 .08 0 .12-.01.07 0 .14-.01.21-.02.07 0 .14 0 .21-.02.06 0 .12-.03.18-.04.1-.02.2-.04.3-.06.05-.01.11-.02.16-.03s.11-.04.16-.06c.17-.05.35-.11.53-.18.06-.02.12-.04.18-.06.03-.01.07-.04.1-.05.3-.13.6-.27.9-.45.47-.27.95-.6 1.43-.98.35-.28.7-.59 1.03-.92 0 0 0 0 .01-.01.02-.02.05-.05.07-.07.24-.24.48-.49.71-.75.05-.06.09-.11.14-.17.06-.07.12-.14.18-.21l.27-.33c.17-.21.33-.43.48-.66 0-.01.02-.03.03-.04.01-.02.03-.04.04-.07.12-.17.24-.35.35-.53.13-.2.26-.41.38-.62 0-.02.02-.03.03-.05s.03-.05.04-.07c.1-.17.19-.33.28-.5.11-.21.21-.41.32-.62.02-.04.03-.08.05-.11.02-.04.04-.08.05-.12.06-.13.13-.27.18-.4.09-.22.18-.43.27-.65.02-.06.04-.12.06-.17s.04-.1.06-.15c.04-.12.09-.23.13-.35.08-.24.15-.48.22-.73.01-.05.02-.09.04-.14.02-.07.03-.14.05-.2.04-.16.08-.31.12-.47.05-.26.1-.51.14-.77.01-.09.03-.19.04-.28.02-.16.02-.31.04-.47.01-.17.03-.35.04-.52 0-.2 0-.38 0-.57 0-.16 0-.32-.01-.47-.01-.18-.04-.35-.06-.52z"/><path d="m51.05 101.73c-.27-.15-.55-.29-.84-.41-.05-.02-.11-.04-.16-.06-.09-.04-.19-.07-.28-.1-.15-.05-.29-.11-.44-.15-.16-.05-.32-.07-.48-.11-.1-.02-.19-.05-.29-.07-.05-.01-.11-.03-.16-.04-.33-.06-.66-.1-1.01-.12-.02 0-.05 0-.07 0-.08 0-.16 0-.24 0-.26 0-.52-.02-.79 0-.09 0-.19.02-.28.03-.16.01-.33.03-.5.05-.16.02-.31.02-.46.05-.14.02-.28.06-.42.09-.22.04-.45.09-.67.14-.12.03-.24.04-.36.08-.29.08-.59.17-.89.27-.02 0-.04.01-.06.02-.33.11-.67.24-1.01.38-.14.06-.29.13-.43.2-.13.06-.27.12-.4.18-.51.24-1.02.5-1.53.8-.4.23-.81.48-1.22.75-.45.29-.89.61-1.33.94-.13.1-.26.2-.39.3-.32.25-.63.51-.95.77-.13.11-.26.22-.39.34-.39.34-.77.69-1.14 1.06-.04.04-.07.07-.11.1 0 0-.01.01-.02.02-.03.03-.05.06-.08.08-.53.52-1.04 1.07-1.54 1.64-.06.07-.13.14-.2.21-.12.13-.22.28-.34.41-.25.3-.5.6-.74.9-.09.12-.19.22-.28.34-.11.14-.21.29-.32.43-.18.24-.36.48-.54.73-.09.12-.18.24-.27.37-.12.18-.24.36-.36.54-.14.21-.28.42-.42.63-.06.1-.13.19-.2.29-.16.26-.32.52-.48.78-.1.17-.21.33-.31.5-.03.05-.06.1-.09.15-.27.47-.54.94-.79 1.42 0 0 0 .02-.01.03-.03.06-.06.12-.09.18-.21.41-.42.81-.62 1.22-.04.08-.07.16-.11.24-.08.18-.17.36-.25.54-.1.23-.21.45-.31.68-.07.15-.12.31-.19.46-.08.2-.17.41-.25.61-.06.14-.12.29-.18.43-.09.23-.16.45-.25.68-.08.21-.16.42-.23.64-.03.09-.06.17-.09.26-.09.28-.17.56-.26.84-.07.23-.15.46-.21.69-.01.05-.03.11-.05.16-.07.24-.12.49-.18.73-.08.33-.17.66-.24.99-.01.06-.03.11-.04.17-.03.14-.04.29-.07.43-.1.52-.19 1.04-.27 1.55-.02.11-.04.22-.06.34-.04.33-.08.67-.11 1-.36 4.04.27 7.32 1.62 9.7.81 1.43 1.88 2.53 3.16 3.27l3.74 2.17c-3.41-1.98-5.35-6.5-4.78-12.97.04-.44.1-.89.17-1.33.07-.52.16-1.03.27-1.55.04-.2.07-.4.11-.59.07-.33.16-.66.24-1 .07-.29.14-.59.23-.88.07-.23.14-.46.21-.69.11-.36.22-.73.35-1.09.07-.21.15-.43.23-.64.13-.37.27-.74.42-1.11.08-.21.17-.41.25-.61.16-.38.33-.76.5-1.14.08-.18.16-.36.25-.55.23-.49.48-.98.73-1.46l.09-.18c.29-.54.59-1.08.9-1.6.1-.17.21-.34.31-.51.22-.36.44-.72.67-1.07.14-.21.28-.42.42-.63.21-.3.42-.61.63-.9.18-.25.36-.49.54-.73.2-.26.39-.52.6-.77.24-.31.49-.61.74-.91.18-.21.36-.42.54-.63.5-.56 1.01-1.11 1.53-1.63.04-.03.07-.07.1-.11.03-.03.07-.06.1-.1.38-.37.76-.72 1.15-1.06.13-.11.26-.22.39-.34.31-.27.63-.52.95-.77.13-.1.26-.2.39-.3.44-.33.88-.65 1.33-.94.41-.27.82-.52 1.22-.76.52-.3 1.03-.56 1.53-.8.14-.06.27-.12.41-.18.49-.22.97-.42 1.44-.58.02 0 .04-.01.06-.02.42-.14.84-.25 1.25-.35.23-.06.45-.1.68-.14.3-.06.59-.1.89-.14.17-.02.34-.04.5-.05.36-.03.72-.03 1.07-.02h.25c.42.02.83.08 1.23.16.1.02.2.05.29.07.31.07.62.16.92.26.09.03.19.06.28.1.38.15.75.32 1.1.52l-3.74-2.17s-.06-.03-.09-.05z"/></g><path d="m105.96 83.04c1.78-.89 3.13.12 2.99 2.27-.48 7.44-2.29 22-2.38 22.77-.04.48-.93 1.2-1.86 1.74-1.01.58-2.07.95-2.1.55l-.79-10.34c-.08-.85-.73-1.15-1.51-.7l-5.2 3c-1 .58-1.84 1.92-1.99 3.83l-.63 9.96c-.04.45-1.49 1.57-2.8 2.33-1.08.62-2.07 1.01-2.11.6l-1.21-12.62c-.1-1.1-.95-1.48-1.96-.9-1.39.85-2.72 1.66-4.04 2.44-4.42 2.64-6.97 4.28-11.39 6.83-2 1.18-3.99 2.34-5.99 3.49-1.3.75-2.6 1.5-3.9 2.24-2.02 9.14-8.4 18.63-15.98 23.01-9.87 5.7-17.75.42-16.67-11.81.86-9.59 7.4-20.61 15.33-25.84.41-.27.82-.52 1.22-.75 7.59-4.38 14-2.26 16.06 4.51 1.53-.9 3.06-1.79 4.59-2.67 1.77-1.02 3.53-2.03 5.3-3.03.16-.09.36-.2.59-.34.97-.56 2.54-1.48 4.5-2.62 2.24-1.3 5-2.91 7.99-4.63 8.33-4.81 18.41-10.54 23.93-13.31zm-55.74 38.79c.88-5.85-2.69-8.48-7.18-5.89-.47.27-.95.6-1.43.98-2.86 2.29-5.17 6.27-5.71 9.89-.87 5.84 2.7 8.48 7.18 5.89.47-.27.95-.6 1.43-.98 2.87-2.29 5.18-6.29 5.71-9.89" fill="#eeba4e"/><path d="m108 129.31c2.84 1.64 2.86 4.29.04 5.93l-65.79 38.23c-2.82 1.64-7.41 1.64-10.25 0s-2.85-4.3-.03-5.94l65.79-38.23c2.82-1.64 7.4-1.64 10.24 0z" fill="#242c55" opacity=".16"/></svg>