<svg viewBox="0 0 200 195.97" xmlns="http://www.w3.org/2000/svg" xmlns:xlink="http://www.w3.org/1999/xlink"><linearGradient id="a" gradientTransform="matrix(1 0 0 -1 262 -123.99)" gradientUnits="userSpaceOnUse" x1="-261.98" x2="-62.02" y1="-261.95" y2="-261.95"><stop offset="0" stop-color="#4b5faa"/><stop offset="1" stop-color="#80d2e0"/></linearGradient><linearGradient id="b" gradientUnits="userSpaceOnUse" x1="90.28" x2="144.16" y1="79.4" y2="79.4"><stop offset="0" stop-color="#ec4fe6"/><stop offset="1" stop-color="#ff8cda"/></linearGradient><linearGradient id="c" x1="75.98" x2="179.32" xlink:href="#b" y1="59.12" y2="59.12"/><linearGradient id="d" gradientUnits="userSpaceOnUse" x1="26.42" x2="84.05" y1="131.09" y2="131.09"><stop offset="0" stop-color="#30769f"/><stop offset="1" stop-color="#10ccc5"/></linearGradient><linearGradient id="e" x1="46.12" x2="54.12" xlink:href="#d" y1="22.86" y2="22.86"/><linearGradient id="f" gradientUnits="userSpaceOnUse" x1="55.29" x2="55.29" y1="80.56" y2="65.91"><stop offset="0" stop-color="#d6c0d4"/><stop offset=".33" stop-color="#d3bed2"/><stop offset=".55" stop-color="#cbb6cd"/><stop offset=".73" stop-color="#bca8c5"/><stop offset=".89" stop-color="#a795b9"/><stop offset="1" stop-color="#9585ae"/></linearGradient><linearGradient id="g" gradientUnits="userSpaceOnUse" x1="62.37" x2="66.46" y1="73.25" y2="73.25"><stop offset="0" stop-color="#9585ae"/><stop offset=".11" stop-color="#a795b9"/><stop offset=".27" stop-color="#bca8c5"/><stop offset=".45" stop-color="#cbb6cd"/><stop offset=".67" stop-color="#d3bed2"/><stop offset="1" stop-color="#d6c0d4"/></linearGradient><linearGradient id="h" gradientTransform="matrix(.92835614 -.37169192 .37169192 .92835614 925.75 -1345.03)" gradientUnits="userSpaceOnUse" x1="-1347.35" x2="-1332.99" y1="967.92" y2="967.92"><stop offset="0" stop-color="#7f72d0"/><stop offset="0" stop-color="#7f72cf"/><stop offset=".22" stop-color="#605ba6"/><stop offset=".44" stop-color="#494a85"/><stop offset=".64" stop-color="#383d76"/><stop offset=".83" stop-color="#2e3668"/><stop offset="1" stop-color="#2a3363"/></linearGradient><linearGradient id="i" x1="11.84" x2="68.07" xlink:href="#d" y1="124.93" y2="110.2"/><linearGradient id="j" x1="55.29" x2="55.29" xlink:href="#g" y1="153.42" y2="73.24"/><linearGradient id="k" gradientTransform="matrix(-1 -0 -0 1 -6516.67 0)" x1="-6717.25" x2="-6708.45" xlink:href="#h" y1="101.92" y2="113.27"/><linearGradient id="l" gradientTransform="matrix(-1 -0 -0 1 -6516.67 0)" x1="-6678.86" x2="-6666.52" xlink:href="#h" y1="127.02" y2="127.02"/><linearGradient id="m" gradientTransform="matrix(-1 -0 -0 1 -6516.67 0)" x1="-6700.44" x2="-6693.96" xlink:href="#h" y1="130.94" y2="121.22"/><linearGradient id="n" gradientTransform="matrix(-1 -0 -0 1 -6516.67 0)" x1="-6697.66" x2="-6683.68" xlink:href="#h" y1="136.45" y2="136.45"/><clipPath id="o"><path d="m162.18 128.08c1.38.86 2.8 1.71 4.24 2.55l-59.85 38.3-16.99 1.99 3.45-9.86 65.83-34.69c1.38.76 2.59 1.38 3.33 1.72zm-31.81 20.2c8.65-4.99 17.01-10.15 25.08-15.48-8.68 4.42-17.11 8.99-25.28 13.71-8.69 5.02-17.1 10.2-25.21 15.55 8.72-4.45 17.2-9.04 25.41-13.79"/></clipPath><linearGradient id="p" gradientTransform="matrix(-1 -0 -0 1 -6516.67 0)" gradientUnits="userSpaceOnUse" x1="-6683.09" x2="-6606.24" y1="148.64" y2="148.64"><stop offset="0" stop-color="#fff"/><stop offset=".31" stop-color="#efeeef"/><stop offset=".58" stop-color="#e9e3e9"/><stop offset=".82" stop-color="#dfd1e0"/><stop offset="1" stop-color="#d5c0d6"/></linearGradient><linearGradient id="q" gradientTransform="matrix(-1 -0 -0 1 -6516.67 0)" x1="-6683.1" x2="-6606.24" xlink:href="#f" y1="153.82" y2="153.82"/><path d="m170.45 96.92c39.2 22.6 39.4 59.2.4 82.1-38.8 22.6-102.1 22.6-141.3 0-39.2-22.6-39.4-59.2-.4-82.1 38.8-22.6 102.2-22.6 141.3 0z" fill="url(#a)"/><path d="m143.83 107.52c3.91 2.26 3.93 5.92.05 8.18s-10.21 2.26-14.12 0l-32.32-18.66c-3.91-2.26-3.93-5.92-.05-8.18s10.2-2.26 14.12 0z" fill="#242c55" opacity=".2"/><path d="m139.72 42.69c-.61-.35-1.2-.74-1.79-1.15-7.4-5.21-12.84-14.71-13.95-15.36-1.21-.7-7.39 3.15-15.7-1.65-4.37-2.53-8.33-6.05-11.17-9.7l-6.75 6.75 3.07 10.09 3.63 1.56-.02 8.32c-.02 6.78 1.37 14 3.85 21.11 2.86 8.2 7.16 16.24 12.43 23.31 3.19 4.27 5.17 14.97 8.96 18.34 15.51 4.11 28.51-12.36 28.56-31.7l.02-8.04.05-18.67c-2.86.36-6.82-.68-11.19-3.21z" fill="#ef9c40"/><path d="m90.65 54.5c.56 4.9 1.74 9.92 3.48 14.9.36 1.02.74 2.05 1.14 3.07 2.01 5.09 4.55 10.08 7.53 14.77 1.19 1.88 2.45 3.7 3.76 5.47 3.19 4.27 6.72 8.19 10.51 11.56.05.01.1.02.15.04v-34.49z" fill="url(#b)"/><path d="m117.11 33.04c-1.22-.68-7.4 3.15-15.69-1.64-4.37-2.53-8.33-6.05-11.17-9.7l-.08 26.71c0 2.03.13 4.11.37 6.2l26.57 15.32z" fill="#fff"/><path d="m143.58 85.2-26.47-15.26v34.49c13.82 3.59 24.38-3.8 26.47-19.22z" fill="#fff"/><path d="m143.58 85.2c.25-1.8.38-3.71.39-5.72l.02-8.04.05-18.67c-2.86.36-6.82-.68-11.19-3.21-.61-.35-1.2-.74-1.79-1.15-7.4-5.21-12.84-14.71-13.95-15.36v36.89z" fill="url(#c)"/><path d="m94.85 32.27c1.42 1.08 2.9 2.06 4.41 2.93 3.51 2.03 7.22 3.06 11.01 3.06 2.03 0 3.75-.29 5.03-.55.12.16.24.32.35.48 2.66 3.63 7.11 9.72 12.92 13.8.74.52 1.44.97 2.13 1.37 3.1 1.79 6.12 2.98 8.92 3.53l-.04 14.41-.02 8.04c-.04 13.36-5.91 21.33-15.7 21.33-1.46 0-3.01-.18-4.6-.53-3.21-2.96-6.26-6.36-9.07-10.14-1.24-1.66-2.44-3.41-3.57-5.19-2.84-4.48-5.24-9.19-7.14-14.01-.38-.95-.74-1.93-1.07-2.9-2.37-6.79-3.61-13.57-3.59-19.6l.05-16.04m-4.51-10.67-.08 26.71c-.02 6.78 1.37 14 3.85 21.11.36 1.02.74 2.05 1.14 3.07 2.01 5.09 4.55 10.08 7.53 14.77 1.19 1.88 2.45 3.7 3.76 5.47 3.19 4.27 6.72 8.19 10.51 11.56 2.37.63 4.64.93 6.79.93 11.95 0 20.18-9.45 20.23-25.84l.02-8.04.05-18.67c-.36.05-.75.07-1.15.07-2.73 0-6.23-1.07-10.04-3.28-.61-.35-1.2-.74-1.79-1.15-7.4-5.21-12.84-14.71-13.95-15.36-.11-.06-.25-.09-.43-.09-1.06 0-3.36.89-6.52.89-2.46 0-5.43-.54-8.75-2.45-4.37-2.53-8.33-6.05-11.17-9.7z" fill="#eeba4e"/><path d="m73.83 134.34c10.31 5.95 10.36 15.57.11 21.6-10.21 5.95-26.86 5.95-37.17 0s-10.36-15.57-.11-21.6c10.21-5.95 26.88-5.95 37.17 0z" fill="#2a3363" opacity=".2"/><path d="m83.67 122.78c.42 1.11.51 2.43.17 4.05-2.31 10.73-9.59 20.2-20.39 23.38-2.64.78-5.39 1.17-8.14 1.17-4.13 0-8.23-.93-11.97-2.67-10.5-4.89-16.59-15.17-16.85-26.58-.04-1.89-.35-4.19.95-5.75 1.73-2.07 5.67-2.77 8.12-3.45 6.76-1.9 13.88-2.54 20.86-1.83 6.56.67 19.96-1.39 25.89 1.5 3.6 1.75.22 7.14 1.36 10.19z" fill="url(#d)"/><circle cx="50.12" cy="22.86" fill="url(#e)" r="4"/><g fill="none" stroke-miterlimit="10"><path d="m66.41 38.09v10.33" stroke="#5dc9c4" stroke-linecap="round" stroke-width="4"/><path d="m61.25 43.25h10.33" stroke="#5dc9c4" stroke-linecap="round" stroke-width="4"/><path d="m64.41 73.24v.02c0 1.35-.88 2.7-2.64 3.73-3.54 2.05-9.31 2.05-12.9 0-1.8-1.04-2.7-2.37-2.7-3.75s.88-2.7 2.66-3.73c3.54-2.07 9.31-2.07 12.9 0 1.78 1.02 2.68 2.37 2.68 3.73z" stroke="url(#f)" stroke-width="4.09"/><path d="m64.41 73.26v-.02" stroke="url(#g)" stroke-width="4.09"/></g><path d="m45.28 41.95c.4 1 .15 2.25-.84 3.51-1.99 2.53-6.21 4.22-9.42 3.77-1.62-.24-2.67-.94-3.07-1.95s-.15-2.23.85-3.5c1.98-2.55 6.2-4.24 9.42-3.77 1.6.23 2.65.95 3.05 1.94z" fill="#2a3363"/><path d="m45.28 41.97v-.02" fill="#2a3363"/><path d="m36.11 57.68c.4 1 1.45 1.71 3.07 1.95 3.22.45 7.43-1.24 9.42-3.77.99-1.26 1.23-2.51.84-3.49l-4.16-10.39c.4.99.15 2.23-.84 3.49-1.99 2.53-6.21 4.22-9.42 3.77-1.62-.24-2.67-.94-3.07-1.95z" fill="url(#h)"/><path d="m75.34 105.78c4.61 1.92 11.21 11.13.11 15.43-5.52 2.12-10.19.23-17.46.23-7.28 0-17.16 1.9-22.74-.23-11.15-4.25-11.21-11.13-.11-15.43 20.16-5.19 35.59-1.92 40.2 0z" fill="url(#i)"/><path d="m84.09 122.57c0 15.91-12.88 28.8-28.78 28.8s-28.8-12.9-28.8-28.8c0-12.69 8.25-23.5 19.67-27.31v-22.03c0 1.37.9 2.7 2.7 3.75 3.58 2.05 9.36 2.05 12.9 0 1.76-1.02 2.64-2.37 2.64-3.73v22.01c11.44 3.81 19.67 14.6 19.67 27.31z" fill="none" stroke="url(#j)" stroke-miterlimit="10" stroke-width="4.09"/><path d="m192.14 127.03c-1.54-.89-4.03-.89-5.56 0-.87.51-1.23 1.2-1.11 1.85-2.99 1.32-5.96 2.65-8.9 4-3.44 1.58-6.86 3.17-10.2 4.82-2.25-1.16-4.57-2.28-6.99-3.33-1.16-.48-2.32-.97-3.56-1.4-1.58-.55-3.56-.38-4.81.34-.22.13-.42.28-.59.44-.86.82-.72 1.82.2 2.54 1.93 1.51 5.44 3.62 8.23 5.15l-65.83 34.69-3.45 9.86 16.99-1.99 59.85-38.3c1.87 1.08 3.8 2.13 5.8 3.14 1.2.59 2.39 1.18 3.67 1.72 1.43.61 3.09.38 4.12-.21.93-.54 1.34-1.38.55-2.19-2.27-2.24-4.86-4.36-7.65-6.38 5.26-3.57 10.31-7.25 15.23-10.98 1.37.27 2.94.09 4.02-.54 1.53-.9 1.53-2.34-.02-3.23z" fill="#2a3363" opacity=".2"/><circle cx="190.59" cy="114.8" fill="url(#k)" r="7"/><path d="m162.7 130.56c1.22-.62 2.45-1.24 3.69-1.85l-.02-6.09c-1.24.61-2.47 1.22-3.69 1.85 0 1.83.01 4.26.02 6.09z" fill="#2a3363"/><path d="m149.84 119.86.02 6.09c0 .48.27.96.77 1.35 1.93 1.51 5.44 3.62 8.23 5.15 1.38.76 2.59 1.38 3.33 1.72l-.02-6.09c-.74-.33-1.94-.96-3.33-1.72-2.79-1.54-6.3-3.65-8.23-5.15-.5-.39-.77-.87-.77-1.35z" fill="url(#l)"/><path d="m172.92 132.8c5.7-3.87 11.15-7.86 16.47-11.91l-.02-6.09c-5.31 4.05-10.77 8.04-16.47 11.91-.98.67-1.97 1.33-2.96 1.98l.02 6.09c1-.66 1.98-1.32 2.96-1.98z" fill="url(#m)"/><path d="m162.68 124.47.02 6.09 7.26 4.22-.02-6.08z" fill="#2a3363"/><path d="m162.68 124.47 7.26 4.22c1-.66 1.98-1.32 2.96-1.98 5.7-3.87 11.15-7.86 16.47-11.91-.56-.15-1.09-.36-1.55-.63s-.83-.58-1.1-.91c-3.42 1.5-6.79 3.02-10.15 4.56-3.44 1.58-6.86 3.17-10.2 4.82-1.24.61-2.47 1.22-3.69 1.85z" fill="#2a3363"/><path d="m104.95 162.06.02 6.09c8.11-5.35 16.52-10.53 25.21-15.55 8.17-4.72 16.6-9.29 25.28-13.71l-.02-6.09c-8.68 4.42-17.11 8.99-25.28 13.71-8.69 5.02-17.1 10.2-25.21 15.55z" fill="#bfbfbf"/><path d="m104.95 162.06.02 6.09c8.72-4.45 17.2-9.04 25.41-13.79 8.65-4.99 17.01-10.15 25.08-15.48l-.02-6.09c-8.07 5.33-16.43 10.48-25.08 15.48-8.22 4.74-16.69 9.34-25.41 13.79z" fill="#aa98bb"/><path d="m166.43 136.72c.2.11.4.23.6.34 0-2.03-.01-4.06-.02-6.09-.2-.11-.4-.23-.6-.34-1.44-.83-2.85-1.68-4.24-2.55l.02 6.09c1.38.86 2.8 1.71 4.24 2.55z" fill="#2a3363"/><path d="m180.02 141.37c.59-.34.97-.81.97-1.3l-.02-6.09c0 .5-.38.96-.97 1.3-1.02.59-2.69.81-4.12.21-1.28-.54-2.47-1.13-3.67-1.72-1.79-.9-3.52-1.83-5.2-2.8 0 2.03.01 4.06.02 6.09 1.68.96 3.41 1.9 5.2 2.8 1.2.59 2.39 1.18 3.67 1.72 1.43.6 3.09.38 4.12-.21z" fill="url(#n)"/><path d="m162.18 128.08c1.38.86 2.8 1.71 4.24 2.55l-59.85 38.3-16.99 1.99 3.45-9.86 65.83-34.69c1.38.76 2.59 1.38 3.33 1.72zm-31.81 20.2c8.65-4.99 17.01-10.15 25.08-15.48-8.68 4.42-17.11 8.99-25.28 13.71-8.69 5.02-17.1 10.2-25.21 15.55 8.72-4.45 17.2-9.04 25.41-13.79" fill="#bfbfbf"/><g clip-path="url(#o)"><path d="m106.56 168.93 59.85-38.3-.54-.31-.53-.32-.54-.31-.53-.32-.53-.32-.52-.32-.52-.32-.52-.33-.3-.13-.34-.17-.38-.19-.41-.2-.44-.23-.46-.25-.49-.26-.51-.28-65.83 34.68-3.45 9.87z" fill="url(#p)"/></g><path d="m151.01 118.24c-.22.13-.42.28-.59.44-.86.82-.72 1.82.2 2.54 1.93 1.51 5.44 3.62 8.23 5.15 1.38.76 2.59 1.38 3.33 1.72 1.38.86 2.8 1.71 4.24 2.55 1.87 1.08 3.8 2.13 5.8 3.14 1.2.59 2.39 1.18 3.67 1.72 1.43.6 3.09.38 4.12-.21.93-.54 1.34-1.38.55-2.19-2.27-2.24-4.86-4.36-7.65-6.38-.98.67-1.97 1.33-2.96 1.98l-7.26-4.22c1.22-.62 2.45-1.24 3.69-1.85-2.25-1.16-4.57-2.28-6.99-3.33-1.16-.48-2.32-.97-3.56-1.4-1.58-.55-3.56-.38-4.81.34z" fill="#2a3363"/><path d="m130.17 146.51c-8.69 5.02-17.1 10.2-25.21 15.55 8.72-4.45 17.2-9.04 25.41-13.79 8.65-4.99 17.01-10.15 25.08-15.48-8.68 4.42-17.11 8.99-25.28 13.71z" fill="#aa98bb"/><path d="m106.56 168.93 59.85-38.3.02 6.09-59.85 38.29-16.99 1.99-.02-6.08z" fill="url(#q)"/></svg>