<svg viewBox="0 0 200 195.97" xmlns="http://www.w3.org/2000/svg" xmlns:xlink="http://www.w3.org/1999/xlink"><linearGradient id="a" gradientTransform="matrix(1 0 0 -1 262 -123.99)" gradientUnits="userSpaceOnUse" x1="-262" x2="-62" y1="-261.94" y2="-261.94"><stop offset="0" stop-color="#4b5faa"/><stop offset="1" stop-color="#80d2e0"/></linearGradient><linearGradient id="b" gradientUnits="userSpaceOnUse" x1="101.25" x2="101.25" y1="144.33" y2="62.92"><stop offset="0" stop-color="#e6e0e6"/><stop offset=".36" stop-color="#e4dde4"/><stop offset=".67" stop-color="#ded2de"/><stop offset=".96" stop-color="#d4c0d5"/><stop offset="1" stop-color="#d2bdd3"/></linearGradient><linearGradient id="c" gradientUnits="userSpaceOnUse" x1="30.55" x2="171.53" y1="134.24" y2="134.24"><stop offset="0" stop-color="#d2bdd3"/><stop offset=".12" stop-color="#e0d2e1"/><stop offset=".26" stop-color="#eee6ee"/><stop offset=".43" stop-color="#f7f4f7"/><stop offset=".63" stop-color="#fdfcfd"/><stop offset="1" stop-color="#fff"/></linearGradient><linearGradient id="d" xlink:href="#b" y1="116.4" y2="34.98"/><linearGradient id="e" xlink:href="#c" y1="106.3" y2="106.3"/><linearGradient id="f" gradientUnits="userSpaceOnUse" x1="101.26" x2="101.26" y1="81.64" y2="2.89"><stop offset="0" stop-color="#4d27a6"/><stop offset="1" stop-color="#9f66ff"/></linearGradient><linearGradient id="g" x1="30.27" x2="171.82" xlink:href="#c" y1="73" y2="73"/><path d="m170.47 96.89c39.21 22.61 39.41 59.21.4 82.12-38.81 22.61-102.13 22.61-141.33 0-39.21-22.61-39.41-59.21-.4-82.12 38.81-22.61 102.23-22.61 141.33 0z" fill="url(#a)"/><g opacity=".5"><path d="m164.45 93.8c9.39 5.42 9.44 14.22.11 19.65l-46.14 26.81c-9.34 5.43-24.53 5.42-33.92 0l-46.44-26.81c-9.4-5.43-9.46-14.22-.12-19.65l46.14-26.81c9.33-5.42 24.53-5.42 33.93 0z" fill="url(#b)"/><path d="m171.47 104.4c-.35 4.05-3.58 7.08-6.91 9.05 0 0-46.14 26.81-46.14 26.81-4.89 2.76-10.58 3.95-16.17 4.05-6.1.09-12.39-1.03-17.75-4.05 0 0-46.44-26.81-46.44-26.81-4.74-2.73-7.1-6.32-7.09-9.9l-.43 20.59c-.01 3.58 2.36 7.17 7.09 9.9 3.53 1.69 50.16 29.89 52.6 29.38 9.09 2.52 19.4 2.02 27.76-2.57 0 0 46.14-26.81 46.14-26.81 1.8-1.09 3.51-2.37 4.81-4.02 1.1-1.48 1.98-3.17 2.09-5.03.37-.64.28-20.58.48-21.29 0 .23-.04.47-.06.7z" fill="url(#c)"/></g><g opacity=".75"><path d="m164.45 65.87c9.39 5.42 9.44 14.22.11 19.65l-46.14 26.81c-9.34 5.43-24.53 5.42-33.92 0l-46.44-26.81c-9.4-5.43-9.46-14.22-.12-19.65l46.14-26.81c9.33-5.42 24.53-5.42 33.93 0z" fill="url(#d)"/><path d="m171.47 76.46c-.35 4.05-3.58 7.08-6.91 9.05 0 0-46.14 26.81-46.14 26.81-4.89 2.76-10.58 3.95-16.17 4.05-6.1.09-12.39-1.03-17.75-4.05 0 0-46.44-26.81-46.44-26.81-4.74-2.73-7.1-6.32-7.09-9.9l-.43 20.59c-.01 3.58 2.36 7.17 7.09 9.9 3.53 1.69 50.16 29.89 52.6 29.38 9.09 2.52 19.4 2.02 27.76-2.57 0 0 46.14-26.81 46.14-26.81 1.8-1.09 3.51-2.37 4.81-4.02 1.1-1.48 1.98-3.17 2.09-5.03.37-.64.28-20.58.48-21.29 0 .23-.04.47-.06.7z" fill="url(#e)"/></g><path d="m101.49 81.64c-6.17 0-11.96-1.38-16.3-3.89l-46.62-26.92c-4.1-2.37-6.37-5.43-6.37-8.61 0-3.15 2.22-6.18 6.25-8.53l46.32-26.92c4.31-2.5 10.08-3.88 16.25-3.88s11.97 1.38 16.32 3.89l46.62 26.92c4.09 2.36 6.35 5.42 6.36 8.6 0 3.16-2.21 6.19-6.25 8.53l-46.32 26.92c-4.31 2.5-10.08 3.88-16.25 3.88z" fill="url(#f)"/><path d="m101.02 1.39v3c5.92 0 11.45 1.31 15.57 3.69l46.62 26.92c3.56 2.06 5.6 4.72 5.61 7.3 0 2.6-1.95 5.17-5.5 7.23l-46.32 26.92c-4.08 2.37-9.59 3.68-15.5 3.68s-11.44-1.31-15.55-3.68l-46.62-26.92c-3.57-2.06-5.62-4.73-5.62-7.31 0-2.6 1.95-5.16 5.51-7.23l46.32-26.92c4.08-2.37 9.58-3.68 15.49-3.68v-3m-.01 0c-6.16 0-12.32 1.36-17 4.08l-46.32 26.92c-9.38 5.45-9.32 14.28.12 19.73l46.62 26.92c4.72 2.72 10.89 4.09 17.05 4.09s12.32-1.36 17-4.09l46.32-26.92c9.37-5.45 9.32-14.28-.11-19.73l-46.62-26.91c-4.72-2.73-10.9-4.09-17.07-4.09z" fill="#fff"/><path d="m171.76 43.04c-.35 4.07-3.59 7.11-6.94 9.09 0 0-46.32 26.92-46.32 26.92-4.91 2.77-10.63 3.96-16.24 4.07-6.13.09-12.44-1.04-17.82-4.07 0 0-46.62-26.92-46.62-26.92-4.75-2.75-7.13-6.35-7.12-9.94l-.43 20.67c-.01 3.6 2.37 7.2 7.12 9.94 3.54 1.69 50.36 30.01 52.82 29.5 9.12 2.53 19.48 2.03 27.87-2.58 0 0 46.32-26.92 46.32-26.92 1.81-1.09 3.52-2.38 4.83-4.04 1.1-1.49 1.98-3.19 2.1-5.05.37-.64.28-20.66.49-21.38 0 .24-.04.47-.06.71z" fill="url(#g)"/><path d="m111.29 50.2c-1.13 2.61-6.15 6.32-11.5 6.65-1.01-1.98-2.91-4.27-6.03-6.07-1.17-.67-2.5-1.28-4.02-1.77l-1.25-.28c-.77 3.17-4.93 5.59-10.19 6.17-2.25.24-3.33.09-5.46.06-.14-1.19-.3-1.95.09-3.16.98-3.05 5.16-5.46 10.62-5.92l-.5-.72c-.86-.88-1.9-1.65-3.07-2.32-3.12-1.8-7.08-2.9-10.5-3.47.56-3.1 6.94-6.02 11.44-6.69 2.81-.41 5.78-.33 8.61.32 6.04-4.51 18.07-8.35 28.05-9.29 3.12-.3 5.76-.3 8.84.02.72 1.88.73 3.41.23 5.21-1.6 5.78-8.19 12.77-15.96 16.28 1.13 1.64 1.28 3.36.57 4.99zm-9.19 3.39c2.46-.97 4.34-2.43 5.03-4.01.42-.97.4-1.99-.12-2.98-1.21.36-2.43.63-3.65.79-2.26.3-4.67-.09-6.19-.96-.94-.54-1.54-1.27-1.56-2.14-.07-3.09 6.78-4.87 12.06-1.82.09.05.18.11.27.16l.59.41c7.58-3.6 14.6-11.37 14.11-17.04-9.8-.26-23.17 3.83-29.37 8.23l.71.34c.1.05.19.1.28.16 5.28 3.05 2.23 7.03-3.1 6.99-1.49 0-2.76-.35-3.7-.9-1.52-.88-2.2-2.27-1.68-3.58.28-.71.73-1.41 1.36-2.12-1.72-.3-3.48-.31-5.15-.06-2.73.41-5.24 1.5-6.9 2.93 3.16.85 5.71 1.82 7.79 3.02 2.28 1.31 4.01 2.91 5.42 4.94 3.5.81 6.26 1.81 8.54 3.12 2.09 1.2 3.77 2.67 5.25 4.51m-24.96-1.05c3.32-.28 7.22-2.21 7.16-4.23-3.56.05-6.8 2.19-7.28 4.17v.07s.12 0 .12 0m13.79-16.21c-.68.8-1.62 2.05-.37 2.77 0 0 .02.01.03.02.57.32 1.98.07 2.15-.72.12-.58-.36-1.08-.96-1.51-.26-.19-.55-.37-.85-.56m14.02 8.1c-.31-.17-.64-.34-.96-.49-.75-.35-1.61-.62-2.61-.55-1.37.1-1.79.91-1.23 1.25 0 0 .02.01.03.02 1.25.72 3.39.17 4.78-.22" fill="#fff"/></svg>