<svg viewBox="0 0 200 195.97" xmlns="http://www.w3.org/2000/svg" xmlns:xlink="http://www.w3.org/1999/xlink"><linearGradient id="a" gradientTransform="matrix(1 0 0 -1 262 -1479.78)" gradientUnits="userSpaceOnUse" x1="-262" x2="-62" y1="-1617.73" y2="-1617.73"><stop offset="0" stop-color="#4b5faa"/><stop offset="1" stop-color="#80d2e0"/></linearGradient><linearGradient id="b" gradientUnits="userSpaceOnUse" x1="22.93" x2="179.36" y1="138.93" y2="138.93"><stop offset="0" stop-color="#d2bdd3"/><stop offset=".12" stop-color="#e0d2e1"/><stop offset=".26" stop-color="#eee6ee"/><stop offset=".43" stop-color="#f7f4f7"/><stop offset=".63" stop-color="#fdfcfd"/><stop offset="1" stop-color="#fff"/></linearGradient><clipPath id="c"><path d="m179.36 135.3-84.22 48.95-72.21-41.69 84.22-48.94z"/></clipPath><linearGradient id="d" gradientUnits="userSpaceOnUse" x1="136.78" x2="-14.12" y1="104.99" y2="248.71"><stop offset="0" stop-color="#e0cce1"/><stop offset=".38" stop-color="#ddcae2"/><stop offset=".64" stop-color="#d4c3e4"/><stop offset=".86" stop-color="#c5b7e8"/><stop offset="1" stop-color="#b7acec"/></linearGradient><linearGradient id="e" gradientUnits="userSpaceOnUse" x1="73.76" x2="54.06" y1="116.37" y2="87.04"><stop offset="0" stop-color="#2a3363"/><stop offset=".18" stop-color="#2d3567"/><stop offset=".39" stop-color="#383d74"/><stop offset=".6" stop-color="#4b4b8b"/><stop offset=".82" stop-color="#645eaa"/><stop offset="1" stop-color="#7f72ca"/></linearGradient><linearGradient id="f" x1="134.59" x2="160.97" xlink:href="#e" y1="112.31" y2="74.48"/><linearGradient id="g" gradientUnits="userSpaceOnUse" x1="125.51" x2="125.51" y1="95.99" y2="48.96"><stop offset="0" stop-color="#e9e3e9"/><stop offset=".36" stop-color="#e7e0e7"/><stop offset=".67" stop-color="#e1d5e1"/><stop offset=".96" stop-color="#d7c3d8"/><stop offset="1" stop-color="#d5c0d6"/></linearGradient><linearGradient id="h" x1="109.98" x2="151.24" xlink:href="#b" y1="136.69" y2="28.12"/><linearGradient id="i" x1="125.67" x2="162.05" xlink:href="#g" y1="85.05" y2="85.05"/><linearGradient id="j" gradientUnits="userSpaceOnUse" x1="92.27" x2="158.75" y1="58.13" y2="58.13"><stop offset="0" stop-color="#eeecee"/><stop offset=".32" stop-color="#ece9ec"/><stop offset=".6" stop-color="#e6dee6"/><stop offset=".86" stop-color="#dcccdd"/><stop offset="1" stop-color="#d5c0d6"/></linearGradient><linearGradient id="k" x1="128.42" x2="122.24" xlink:href="#a" y1="28.67" y2="95.3"/><linearGradient id="l" x1="106.59" x2="107.35" xlink:href="#b" y1="138.6" y2="84.76"/><linearGradient id="m" x1="107.13" x2="115.09" xlink:href="#d" y1="66.02" y2="152.64"/><linearGradient id="n" gradientUnits="userSpaceOnUse" x1="36.31" x2="89.4" y1="150.74" y2="123.3"><stop offset=".27" stop-color="#d2bdd3"/><stop offset=".34" stop-color="#dacadb"/><stop offset=".48" stop-color="#eae1eb"/><stop offset=".63" stop-color="#f6f2f6"/><stop offset=".79" stop-color="#fcfbfc"/><stop offset="1" stop-color="#fff"/></linearGradient><linearGradient id="o" x1="89.76" x2="104.2" xlink:href="#d" y1="81.69" y2="158.6"/><linearGradient id="p" x1="95.14" x2="179.44" xlink:href="#e" y1="145.14" y2="145.14"/><linearGradient id="q" x1="35.03" x2="104.25" xlink:href="#e" y1="165.02" y2="118.23"/><linearGradient id="r" gradientTransform="matrix(.94517712 -.32655812 .32655812 .94517712 163.79 -1591.19)" gradientUnits="userSpaceOnUse" x1="-551.82" x2="-551.82" y1="1578.96" y2="1554.48"><stop offset="0" stop-color="#2a3363"/><stop offset=".36" stop-color="#2b3465"/><stop offset=".54" stop-color="#32386c"/><stop offset=".67" stop-color="#3c4079"/><stop offset=".79" stop-color="#4b4c8c"/><stop offset=".89" stop-color="#5f5aa4"/><stop offset=".98" stop-color="#776cc1"/><stop offset="1" stop-color="#7f72ca"/></linearGradient><linearGradient id="s" x1="-575.92" x2="-542.93" xlink:href="#r" y1="1549.67" y2="1549.67"/><linearGradient id="t" gradientTransform="matrix(.94517712 -.32655812 .32655812 .94517712 163.79 -1591.19)" x1="-551.16" x2="-551.16" xlink:href="#e" y1="1567.15" y2="1549.67"/><linearGradient id="u" gradientTransform="matrix(.94517712 -.32655812 .32655812 .94517712 163.79 -1591.19)" gradientUnits="userSpaceOnUse" x1="-569.15" x2="-548.52" y1="1559.16" y2="1559.16"><stop offset="0" stop-color="#ff947d"/><stop offset=".44" stop-color="#ff347d"/><stop offset=".57" stop-color="#ff477d"/><stop offset=".85" stop-color="#ff6b7d"/><stop offset="1" stop-color="#ff797d"/></linearGradient><linearGradient id="v" gradientTransform="matrix(.94517712 -.32655812 .32655812 .94517712 163.79 -1591.19)" gradientUnits="userSpaceOnUse" x1="-568.77" x2="-549.5" y1="1559.51" y2="1559.51"><stop offset="0" stop-color="#ff947d"/><stop offset=".27" stop-color="#ff597d"/><stop offset=".44" stop-color="#ff347d"/><stop offset=".65" stop-color="#ff547d"/><stop offset=".87" stop-color="#ff6f7d"/><stop offset="1" stop-color="#ff797d"/></linearGradient><linearGradient id="w" gradientUnits="userSpaceOnUse" x1="123.64" x2="140.85" y1="56.1" y2="48.64"><stop offset="0" stop-color="#ff947d"/><stop offset=".51" stop-color="#ff887d"/><stop offset="1" stop-color="#ff797d"/></linearGradient><linearGradient id="x" x1="136.41" x2="154.24" xlink:href="#w" y1="51.52" y2="44.44"/><linearGradient id="y" gradientTransform="matrix(.94517712 -.32655812 .32655812 .94517712 163.79 -1591.19)" x1="-562.2" x2="-555.48" xlink:href="#w" y1="1548.59" y2="1548.59"/><linearGradient id="z" gradientUnits="userSpaceOnUse" x1="102.95" x2="97.92" y1="46.04" y2="38.86"><stop offset="0" stop-color="#ef9c40"/><stop offset="1" stop-color="#eeba4e"/></linearGradient><linearGradient id="A" x1="106.38" x2="97.67" xlink:href="#z" y1="21.22" y2="8.79"/><linearGradient id="B" x1="125.89" x2="93.71" xlink:href="#z" y1="45.75" y2="-.16"/><linearGradient id="C" x1="96.46" x2="102.91" xlink:href="#z" y1="8.5" y2="22.08"/><linearGradient id="D" gradientTransform="translate(0 -175.89)" gradientUnits="userSpaceOnUse" x1="102.62" x2="105.36" y1="181.87" y2="179.13"><stop offset="0" stop-color="#d0bcd1"/><stop offset="1" stop-color="#fff"/></linearGradient><linearGradient id="E" x1="78.73" x2="81.47" xlink:href="#D" y1="229.69" y2="226.95"/><linearGradient id="F" x1="168.26" x2="171" xlink:href="#D" y1="223.48" y2="220.74"/><linearGradient id="G" x1="145.66" x2="152.47" xlink:href="#D" y1="205.15" y2="198.34"/><path d="m170.47 96.89c39.21 22.61 39.41 59.21.4 82.12-38.81 22.61-102.13 22.61-141.33 0-39.21-22.61-39.41-59.21-.4-82.12 38.81-22.61 102.23-22.61 141.33 0z" fill="url(#a)"/><path d="m77.88 194.48 96.57-55.75-71.03-40.11-99.09 55.05c.23.86.51 1.72.81 2.58 4.79 8.32 12.92 16.14 24.4 22.76 13.83 7.97 30.65 13.12 48.34 15.47z" fill="#2a3363" opacity=".19"/><path d="m179.36 135.3-84.22 48.95-72.21-41.69 84.22-48.94z" fill="url(#b)"/><g clip-path="url(#c)"><path d="m179.36 135.3-84.22 48.95-28.47-16.44-43.74-25.25 84.22-48.94z" fill="url(#d)"/></g><path d="m23.01 113.28 84.23-48.94-.09 29.28-84.22 48.94z" fill="url(#e)"/><path d="m107.24 64.34 72.2 41.69-.08 29.27-72.21-41.68z" fill="url(#f)"/><path d="m125.48 95.99-33.21-47.03 66.48 38.38z" fill="none"/><path d="m125.48 95.99-33.21-47.03 66.48 38.38z" fill="url(#g)"/><path d="m92.27 48.96 33.21 47.03 33.27-8.65-.16 55.76-66.48-38.38z" fill="url(#h)"/><path d="m162.05 85.42-33.08-58.43-3.3 1.92 33.08 58.43-.16 55.76 3.3-1.91z" fill="url(#i)"/><path d="m92.27 48.96 33.4-20.05 33.08 58.43z" fill="url(#j)"/><path d="m152.4 59.77-.12 26.51-.05 2.74-26.7 6.94-26.71-37.83.05-2.68.12-26.51z" fill="url(#k)"/><path d="m74.19 67.55-.14 50.58 65.69 37.92.15-50.57z" fill="url(#l)"/><path d="m139.89 105.48c-10.48 2.91-22.11 5.43-32.79 7.63 0 0-.86.18-.86.18l-.55-.73c-10.97-14.57-21.85-29.51-31.49-45.01 11.98 13.76 23.07 28.55 33.78 43.31 0 0-1.41-.55-1.41-.55 10.76-1.85 22.49-3.71 33.32-4.83z" fill="#eadfe9"/><path d="m77.94 65.37-3.75 2.18 65.7 37.93-.15 50.57 3.75-2.17.14-50.58z" fill="url(#m)"/><path d="m57.9 79.56-18.13 56.98 66.2 38.22 18.13-56.98z" fill="url(#n)"/><path d="m124.1 117.78c-13.85 4.14-27.89 7.54-41.98 10.72 0 0-1.1.25-1.1.25-2.22-4.27-4.35-8.59-6.49-12.91-5.86-11.95-11.56-23.97-16.63-36.28 6.86 11.41 13.12 23.15 19.22 34.98 2.02 3.95 4.04 7.89 5.99 11.87l-1.63-.78c14.13-3.01 28.31-5.81 42.61-7.85z" fill="#eadfe9"/><path d="m61.75 79.32-3.85.24 66.2 38.22-18.13 56.98 3.85-.25 18.13-56.98z" fill="url(#o)"/><path d="m179.44 106.03-.08 29.27-84.22 48.95.08-29.28z" fill="url(#p)"/><path d="m71.35 141.19-.01 10.74-24.55-14.17.02-10.74-23.8-13.74-.08 29.28 72.21 41.69.08-29.28z" fill="url(#q)"/><path d="m133.07 48.97c1.26.97 1.1 3.34-.26 3.94l-6.23 2.72c-1.79.78-3.12 2.69-3.52 5.07l-1.39 8.26c0 .05-.02.1-.03.15-.11.37-.13.42-.15.46-.24.42-.26.45-.29.48-.31.3-.34.32-.37.34-.26.14-.29.15-.33.17-.39.08-.42.08-.46.08-.39-.05-.43-.07-.46-.08-.38-.2-.41-.22-.45-.25-.43-.48-.46-.52-.49-.56l-4.1-6.83c-.18-.3-.39-.59-.6-.85-.09-.1-.17-.21-.26-.3-.05-.05-.09-.1-.14-.14-.09-.09-.19-.18-.28-.27-.05-.04-.1-.08-.15-.13-.09-.08-.19-.15-.28-.22-.16-.12-.32-.22-.48-.32-.8-.46-1.67-.69-2.56-.64-.06 0-.12 0-.18.01l-6.6.65s-.08 0-.12 0c-.55-.11-.59-.13-.62-.14-.36-.24-.39-.27-.42-.3-.29-.35-.31-.38-.34-.42-.21-.43-.23-.47-.24-.51-.09-.35-.1-.39-.11-.44-.04-.51-.04-.55-.03-.6.08-.51.09-.56.1-.6.14-.36.16-.4.18-.45l3.69-6.93c1.06-2 1.24-4.57.47-6.83l-2.69-7.86c-.59-1.72.64-3.48 2.03-2.92l6.38 2.53c1.84.73 3.81.22 5.23-1.37l4.94-5.5s.07-.07.1-.11c.45-.44 1-.52 1.48-.33.07.03.15.06.22.11.04.02.07.04.11.07.48.33.86.95.93 1.74 0 .06 0 .11.01.17l.26 8.5c.07 2.45 1.11 4.7 2.76 5.99z" fill="#2a3363" opacity=".1"/><path d="m159.99 75.64-3.82-11.19.97-1.13-2.57-7.5-18.76-3.63-12.42 14.4 2.57 7.5 1.52.29 3.82 11.17 7.84 1.52c.15.03.31.06.46.09l.1.02c.34.07.6.12.62.12l8.25 1.6 6-6.95 1.62-1.88 3.81-4.42z" fill="#2a3363" opacity=".1"/><path d="m156.91 55.79-11.43 13.25-17.26-3.34 11.43-13.25z" fill="#242c55"/><path d="m156.91 55.79 5.08 14.85-11.43 13.25-5.08-14.85z" fill="url(#r)"/><path d="m145.48 69.04 5.08 14.85-17.27-3.34-5.07-14.85z" fill="#2a3363"/><path d="m156.57 50.82-12.42 14.4-18.76-3.63 12.42-14.4z" fill="url(#s)"/><path d="m156.57 50.82 2.57 7.5-12.42 14.39-2.57-7.49z" fill="url(#t)"/><path d="m144.15 65.22 2.57 7.49-18.76-3.62-2.57-7.5z" fill="#2a3363"/><path d="m132.8 53.01-2.29 2.66c3.05.98 7.83 1.48 10.95 2.19 2.78.63 5.57 1.18 8.37 1.68.19.5.37 1.01.56 1.51 2.22 5.9 3.8 10.08 6.17 15.89l1.62-1.88c-.37-1.77-3.81-13.24-5.61-18.69-6.59-1.41-13.05-2.84-19.78-3.36z" fill="url(#u)"/><path d="m145.95 48.77c-2.37 2.15-3.34 3.84-5.51 6.18-2.41 2.6-4.73 5.29-6.99 8.02 1.34 3.7 5.21 15.68 6.79 18.92 0 0 2.06.4 2.06.4-2.19-7.04-3.25-11.8-4.73-18.53 4.04-4.54 8.14-9.39 11.55-14.38l-3.18-.61z" fill="url(#v)"/><path d="m141.35 55.47c-2.85 1.52-6.07 2.36-9.43 2.66-1.7.11-3.44.15-5.42-.53-.96-.36-2.11-1.01-2.87-2.29-.39-.62-.58-1.35-.68-2.03-.04-.55-.13-1.05-.06-1.68.07-1.18.83-2.65 2.08-3.55 1.25-.89 2.6-1.06 3.68-1.03 1.1.04 2.06.28 2.97.6.45.16.89.35 1.33.56l1.1.59c2.89 1.6 5.67 3.44 8.06 5.82l-1.54 1.77c-2.45-1.76-5.25-3.08-8.11-4.16l-1.08-.39c-.3-.09-.61-.17-.92-.23-.62-.12-1.24-.16-1.73-.09-.5.06-.78.26-.79.35-.03.08.04.16-.1.55-.1.15-.12.45-.19.69-.02.11-.09.18-.09.26-.05.16.14.53.6.86.92.67 2.4 1.12 3.86 1.38 1.48.27 3.04.37 4.61.36 1.57 0 3.15-.1 4.71-.46z" fill="url(#w)"/><path d="m140.64 56.31c1.42-.75 2.68-1.71 3.87-2.73 1.19-1.01 2.3-2.12 3.25-3.29.94-1.15 1.76-2.46 2.02-3.56.13-.54.04-.95-.11-1.04-.05-.06-.15-.07-.24-.14-.21-.14-.42-.35-.6-.4-.36-.2-.36-.31-.43-.35-.07-.07-.41-.03-.83.25-.42.27-.86.71-1.25 1.2-.2.25-.37.51-.54.78l-.56 1c-1.46 2.69-2.72 5.52-3.42 8.45l-2.32-.33c.25-3.36 1.15-6.58 2.3-9.68l.45-1.16c.19-.44.4-.88.64-1.29.48-.83 1.05-1.64 1.85-2.39.79-.73 1.92-1.48 3.46-1.62 1.53-.13 3.07.48 3.89 1.32.47.43.73.87 1.06 1.31.37.58.71 1.25.81 1.98.26 1.46-.18 2.7-.67 3.61-1.04 1.81-2.39 2.92-3.75 3.95-2.74 1.97-5.72 3.43-8.87 4.15z" fill="url(#x)"/><path d="m144.38 53.97c.61 1.75-.58 3.19-2.33 3.79s-3.41.15-4.02-1.6.45-3.31 2.2-3.91 3.54-.04 4.15 1.72z" fill="url(#y)"/><path d="m102.8 43.78c-.06 0-.12 0-.18.01l-6.6.65s-.04 0-.06 0l4.29-.23s.04 0 .06 0l6.6-.65c.06 0 .12 0 .18-.01s0 0 0 0z" fill="url(#z)"/><path d="m109.53 19.01c-.31-.05-.63-.14-.93-.26l-6.38-2.53s-.03-.01-.05-.02c-.03-.01-.06-.02-.09-.03-.03 0-.06-.02-.09-.02-.02 0-.05 0-.07-.01 0 0 0 0-.01 0 0 0-.01 0-.02 0-.03 0-.06 0-.1-.01-.04 0-.08 0-.11 0-.02 0-.04 0-.06 0l-4.29.23c.09 0 .19 0 .29.02h.01c.1.02.2.04.29.08l6.38 2.53s.08.03.12.05c.09.03.18.06.27.09.1.03.19.05.29.08.08.02.17.03.25.05h.02.03c.11.02.22.03.33.04.12 0 .24.01.36.01h.23l4.29-.23c-.31.02-.63 0-.94-.05h-.02z" fill="url(#A)"/><path d="m131.22 34.29c0-.06 0-.11-.01-.17 0-.04-.01-.08-.02-.12 0-.01 0-.03 0-.04 0-.02 0-.04 0-.07 0-.04-.03-.07-.03-.1-.04-.19-.1-.38-.19-.55-.02-.03-.02-.08-.04-.11-.03-.06-.07-.12-.11-.18-.01-.02-.03-.04-.04-.06 0 0 0-.01-.01-.02-.01-.02-.02-.03-.04-.05-.03-.03-.05-.07-.08-.1s-.05-.06-.08-.09-.05-.05-.08-.08c-.03-.02-.05-.05-.08-.07-.01-.01-.03-.02-.04-.03l-5.74-4.46c-.21-.16-.4-.34-.59-.53-.19-.19-.36-.39-.52-.6 0 0 0 0 0-.01-.14-.18-.26-.37-.38-.56-.05-.08-.1-.16-.14-.24-.06-.1-.11-.21-.17-.32-.18-.35-.34-.71-.48-1.09-.13-.38-.23-.78-.3-1.19-.02-.13-.05-.25-.07-.38-.01-.09-.03-.19-.04-.28-.03-.26-.05-.51-.06-.78l-.26-8.5s0 0 0 0c0-.06 0-.11 0-.17 0 0 0 0 0-.01 0-.08-.02-.15-.03-.22 0-.04-.03-.06-.03-.1-.05-.23-.12-.45-.22-.65 0-.01 0-.03-.01-.04 0 0 0-.01-.01-.02 0 0 0-.01-.01-.02-.03-.05-.05-.1-.08-.14s-.06-.09-.09-.13c-.03-.03-.05-.07-.08-.1 0 0 0 0-.01-.01-.02-.02-.04-.04-.06-.07-.03-.03-.05-.05-.08-.07s-.05-.04-.08-.07c-.03-.02-.05-.04-.08-.06-.01-.01-.03-.02-.04-.03-.01 0-.02-.01-.03-.02-.02-.02-.05-.03-.07-.04s-.05-.03-.08-.05c-.03-.01-.05-.03-.08-.04-.02 0-.04-.02-.06-.02 0 0-.02 0-.03-.01-.03-.01-.06-.02-.08-.03-.03 0-.06-.02-.09-.02s-.06-.01-.09-.02c-.03 0-.07 0-.1-.01-.04 0-.07 0-.11 0-.02 0-.05 0-.07 0l-4.29.23c.19-.01.39.02.57.09.07.03.15.06.22.11.04.02.07.04.11.07.12.08.23.18.34.3.1.11.19.24.27.38 0 0 0 .01.01.02 0 .02.01.04.02.05.1.19.17.41.22.65.02.11.05.22.06.33 0 .06 0 .11.01.17l.26 8.5v.03c0 .18.02.37.04.55 0 .07.02.13.03.19.01.09.02.19.04.28.01.08.02.16.03.23 0 .05.03.1.04.15.08.41.17.81.3 1.19s.3.75.48 1.09c.02.04.04.09.06.13.03.06.07.12.11.18.05.08.09.16.14.24.03.05.06.11.1.16.09.14.19.27.29.4.09.11.18.22.27.33.08.09.17.18.25.27.08.08.17.16.25.24.08.07.16.14.25.21.03.02.06.05.09.07l5.74 4.46c.15.12.29.26.4.42 0 0 0 .01.01.02.07.11.13.23.18.35.08.18.15.36.19.55.01.06.03.11.04.17v.04c.03.19.03.38.02.57-.01.2-.05.39-.1.57-.05.18-.13.36-.22.51-.09.16-.2.3-.33.42 0 0 0 0-.01.01-.13.12-.28.22-.45.3l-6.23 2.72c-.24.1-.47.23-.69.37-.07.05-.14.1-.21.15-.14.1-.29.21-.42.33-.02.02-.05.03-.07.05-.14.13-.27.26-.4.4-.1.12-.2.24-.3.36-.05.07-.1.14-.15.21-.02.02-.03.04-.05.06-.01.02-.03.03-.04.05-.07.1-.14.21-.2.32-.05.09-.11.19-.16.28v.02.01c-.05.1-.1.2-.15.31-.05.1-.09.2-.14.31-.01.03-.03.07-.04.1 0 .02-.02.04-.02.06-.02.05-.04.1-.06.15-.04.1-.07.21-.11.31-.03.1-.07.21-.1.32-.03.1-.06.21-.08.31-.03.11-.05.22-.07.34-.01.07-.03.14-.04.21l-1.39 8.26c0 .05-.02.1-.03.15-.03.09-.05.16-.06.21 0 .02-.01.03-.02.05 0 .03-.02.05-.02.07 0 .03-.02.05-.02.07v.02.01c0 .01 0 .02-.01.03-.07.12-.12.21-.16.27-.01.02-.02.03-.03.04-.03.05-.05.09-.07.11 0 0 0 .01-.01.02v.01s-.01.02-.02.02c-.07.07-.13.12-.17.16-.02.01-.03.02-.04.04-.03.02-.05.05-.07.06-.02.02-.04.03-.05.04 0 0-.01.01-.02.02s-.02.02-.03.02c-.26.14-.29.15-.33.17-.08.02-.15.03-.2.04-.16.03-.21.04-.24.04l4.29-.23s.11-.01.44-.08c.03-.01.07-.03.33-.17 0 0 .02-.01.03-.02 0 0 .01-.01.02-.02s.03-.02.05-.04h.01c.01-.01.03-.03.05-.05.01-.01.02-.02.04-.04.05-.04.1-.1.17-.16 0 0 0 0 0-.01 0 0 0 0 0-.01s0-.01 0-.02c.01-.02.04-.06.07-.11 0 0 0 0 .01-.02 0 0 .01-.02.01-.02.04-.07.09-.15.16-.27 0 0 0 0 0-.01 0 0 0-.01 0-.02s0-.01 0-.02c0-.02.01-.04.02-.06 0 0 0 0 0-.01 0-.02.01-.05.02-.07 0-.01 0-.02.01-.04.02-.06.04-.12.06-.21 0-.03.01-.06.02-.09 0-.02 0-.04.01-.06l1.39-8.26c.05-.3.11-.58.19-.86.07-.27.16-.53.26-.78 0-.02.02-.04.02-.06.1-.25.21-.49.34-.73 0 0 0-.01 0-.02.12-.23.26-.45.4-.65.02-.02.03-.04.05-.07.14-.2.29-.4.45-.58.15-.16.31-.31.47-.46.13-.12.28-.23.42-.33.07-.05.14-.11.21-.16.22-.14.45-.27.69-.37l6.23-2.72c.16-.07.3-.16.43-.28 0 0 .01-.01.02-.02 0 0 0 0 .01-.01.03-.03.07-.06.1-.1.03-.03.06-.07.09-.11.02-.03.05-.07.07-.1s.04-.06.06-.1c0 0 0-.01 0-.02.01-.02.03-.05.04-.07.02-.03.03-.06.05-.09.01-.03.03-.06.04-.09s.03-.06.04-.09.02-.06.03-.1c0-.02.01-.04.02-.07v-.02c0-.03.02-.07.03-.1 0-.04.02-.07.02-.11s.01-.07.02-.11c0-.04.01-.08.02-.12 0-.04 0-.08.01-.12s0-.09 0-.14 0-.1 0-.15z" fill="url(#B)"/><path d="m126.07 32.69c1.26.97 1.1 3.34-.26 3.94l-6.23 2.72c-1.79.78-3.12 2.69-3.52 5.07l-1.39 8.26c0 .05-.02.1-.03.15-.11.37-.13.42-.15.46-.24.42-.26.45-.29.48-.31.3-.34.32-.37.34-.26.14-.29.15-.33.17-.39.08-.42.08-.46.08-.39-.05-.43-.07-.46-.08-.38-.2-.41-.22-.45-.25-.43-.48-.46-.52-.49-.56l-4.1-6.83c-.18-.3-.39-.59-.6-.85-.09-.1-.17-.21-.26-.3-.05-.05-.09-.1-.14-.14-.09-.09-.19-.18-.28-.27-.05-.04-.1-.08-.15-.13-.09-.08-.19-.15-.28-.22-.16-.12-.32-.22-.48-.32-.8-.46-1.67-.69-2.56-.64-.06 0-.12 0-.18.01l-6.6.65s-.08 0-.12 0c-.55-.11-.59-.13-.62-.14-.36-.24-.39-.27-.42-.3-.29-.35-.31-.38-.34-.42-.21-.43-.23-.47-.24-.51-.09-.35-.1-.39-.11-.44-.04-.51-.04-.55-.03-.6.08-.51.09-.56.1-.6.14-.36.16-.4.18-.45l3.69-6.93c1.06-2 1.24-4.57.47-6.83l-2.69-7.86c-.59-1.72.64-3.48 2.03-2.92l6.38 2.53c1.84.73 3.81.22 5.23-1.37l4.94-5.5s.07-.07.1-.11c.45-.44 1-.52 1.48-.33.07.03.15.06.22.11.04.02.07.04.11.07.48.33.86.95.93 1.74 0 .06 0 .11.01.17l.26 8.5c.07 2.45 1.11 4.7 2.76 5.99z" fill="url(#C)"/><path d="m106.71 4.58c-1.48 0-2.7 1.22-2.7 2.7 0-1.48-1.22-2.7-2.7-2.7 1.48 0 2.7-1.22 2.7-2.7 0 1.48 1.22 2.7 2.7 2.7z" fill="url(#D)"/><path d="m82.82 52.4c-1.48 0-2.7 1.22-2.7 2.7 0-1.48-1.22-2.7-2.7-2.7 1.48 0 2.7-1.22 2.7-2.7 0 1.48 1.22 2.7 2.7 2.7z" fill="url(#E)"/><path d="m172.36 46.19c-1.48 0-2.7 1.22-2.7 2.7 0-1.48-1.22-2.7-2.7-2.7 1.48 0 2.7-1.22 2.7-2.7 0 1.48 1.22 2.7 2.7 2.7z" fill="url(#F)"/><path d="m155.83 25.79c-3.67 0-6.7 3.03-6.7 6.7 0-3.67-3.03-6.7-6.7-6.7 3.67 0 6.7-3.03 6.7-6.7 0 3.67 3.03 6.7 6.7 6.7z" fill="url(#G)"/></svg>