<svg viewBox="0 0 200 195.97" xmlns="http://www.w3.org/2000/svg" xmlns:xlink="http://www.w3.org/1999/xlink"><linearGradient id="a" gradientTransform="matrix(1 0 0 -1 262 -123.99)" gradientUnits="userSpaceOnUse" x1="-262" x2="-62" y1="-261.94" y2="-261.94"><stop offset="0" stop-color="#4b5faa"/><stop offset="1" stop-color="#80d2e0"/></linearGradient><linearGradient id="b" gradientTransform="matrix(-1 -0 -0 1 1134.01 0)" gradientUnits="userSpaceOnUse" x1="963.02" x2="1019.16" y1="87.13" y2="87.13"><stop offset="0" stop-color="#d2bdd3"/><stop offset=".12" stop-color="#e0d2e1"/><stop offset=".26" stop-color="#eee6ee"/><stop offset=".43" stop-color="#f7f4f7"/><stop offset=".63" stop-color="#fdfcfd"/><stop offset="1" stop-color="#fff"/></linearGradient><linearGradient id="c" gradientTransform="matrix(-1 -0 0 -1 872.01 -123.99)" gradientUnits="userSpaceOnUse" x1="702.45" x2="755.73" y1="-167.37" y2="-167.37"><stop offset="0" stop-color="#30769f"/><stop offset=".36" stop-color="#229aaf"/><stop offset=".78" stop-color="#15bebe"/><stop offset="1" stop-color="#10ccc5"/></linearGradient><linearGradient id="d" gradientUnits="userSpaceOnUse" x1="154.39" x2="174.99" y1="4.3" y2="-1.16"><stop offset="0" stop-color="#ef9c40"/><stop offset="1" stop-color="#eeba4e"/></linearGradient><linearGradient id="e" gradientUnits="userSpaceOnUse" x1="163.43" x2="184.03" y1="38.37" y2="32.91"><stop offset=".78" stop-color="#ef9c40"/><stop offset="1" stop-color="#eeba4e"/></linearGradient><linearGradient id="f" x1="157.35" x2="177.94" xlink:href="#d" y1="15.44" y2="9.98"/><linearGradient id="g" x1="123.18" x2="158.97" xlink:href="#d" y1="27.74" y2="27.74"/><linearGradient id="h" x1="1008.95" x2="1065.1" xlink:href="#b" y1="120.89" y2="120.89"/><linearGradient id="i" gradientTransform="matrix(-1 -0 0 -1 872.01 -123.99)" gradientUnits="userSpaceOnUse" x1="748.39" x2="801.66" y1="-212.81" y2="-212.81"><stop offset="0" stop-color="#ff797d"/><stop offset="1" stop-color="#ff947d"/></linearGradient><linearGradient id="j" gradientTransform="translate(-81.59)" x1="110.19" x2="166.33" xlink:href="#b" y1="153.2" y2="153.2"/><linearGradient id="k" gradientTransform="matrix(1 0 0 -1 180.41 -123.99)" x1="-150.38" x2="-97.1" xlink:href="#a" y1="-256.79" y2="-256.79"/><path d="m170.47 96.89c39.21 22.61 39.41 59.21.4 82.12-38.81 22.61-102.13 22.61-141.33 0-39.21-22.61-39.41-59.21-.4-82.12 38.81-22.61 102.23-22.61 141.33 0z" fill="url(#a)"/><path d="m122.79 109.16c-11.21 6.46-11.26 16.92-.11 23.47 11.09 6.46 29.18 6.46 40.39 0s11.26-16.92.11-23.47c-11.09-6.46-29.21-6.46-40.39 0z" fill="#2a3363" opacity=".2"/><path d="m171 43.39v71.77s-.05 0-.05 0c-.24 3.99-2.97 7.93-8.24 10.97-11.01 6.35-28.78 6.35-39.67 0-5.22-3.06-7.9-7-8.13-10.97h-.05v-71.77s56.14 0 56.14 0z" fill="url(#b)"/><path d="m142.83 58.24c-7.25 0-14.02-1.62-19.07-4.56-4.83-2.83-7.48-6.49-7.47-10.3.02-3.82 2.7-7.46 7.57-10.27 5.1-2.95 11.9-4.57 19.15-4.57s14.03 1.62 19.08 4.56c4.83 2.83 7.48 6.49 7.47 10.3-.02 3.82-2.7 7.46-7.57 10.27-5.11 2.95-11.92 4.57-19.16 4.57z" fill="url(#c)"/><path d="m143.01 29.97c7 0 13.53 1.55 18.35 4.36 4.37 2.57 6.78 5.79 6.76 9.06-.01 3.28-2.45 6.49-6.86 9.03-4.89 2.82-11.45 4.38-18.45 4.38s-13.51-1.55-18.34-4.36c-4.37-2.57-6.78-5.79-6.76-9.06.01-3.28 2.45-6.49 6.86-9.03 4.88-2.82 11.43-4.37 18.43-4.37m.01-2.88c-7.18 0-14.38 1.59-19.87 4.76-11.01 6.35-11.06 16.62-.11 23.05 5.45 3.17 12.61 4.76 19.8 4.76s14.38-1.59 19.88-4.76c11.01-6.35 11.06-16.62.11-23.05-5.45-3.17-12.62-4.76-19.81-4.76z" fill="#fff"/><path d="m159.6 46.81c2.46 1.42 2.47 3.72.03 5.14s-6.41 1.42-8.87 0l-22.6-13.05c-2.46-1.42-2.48-3.72-.04-5.14s6.42-1.42 8.88 0z" fill="#242c55" opacity=".2"/><path d="m138.83 10.69-8.57-4.59c-.42-.23-.77-.23-1.02-.09l-5.61 3.26c.25-.15.6-.14 1.02.09l8.57 4.59c1 .54 1.93.59 2.61.19l5.61-3.26c-.68.4-1.61.35-2.61-.19z" fill="url(#d)"/><path d="m155.88 34.82c-.38-1.77 0-3.2.98-3.77l-5.61 3.26c-.97.57-1.36 2-.98 3.77l2.33 10.84c.16.77-.02 1.28-.38 1.49l5.61-3.26c.36-.21.54-.72.38-1.49z" fill="url(#e)"/><path d="m163.12 25.07-8.57-5.31c-1.57-.97-2.94-2.92-3.48-4.92l-2.92-10.95c-.24-.91-.83-1.63-1.43-1.97-.39-.23-.79-.29-1.08-.12l-5.61 3.26c.29-.17.69-.11 1.08.12.59.34 1.18 1.07 1.43 1.97l2.92 10.95c.53 2 1.9 3.95 3.48 4.92l8.57 5.31c1.34.83 1.93 3.03 1.03 3.56l5.61-3.26c.91-.53.32-2.73-1.03-3.56z" fill="url(#f)"/><path d="m141.12 5.18c.59.34 1.18 1.07 1.43 1.97l2.92 10.95c.53 2 1.9 3.95 3.48 4.92l8.57 5.31c1.41.87 1.99 3.27.87 3.63l-6.77 2.19c-1.24.4-1.77 1.95-1.35 3.93l2.33 10.84c.29 1.38-.54 1.93-1.47 1.39-.28-.16-.57-.42-.84-.79l-7.1-9.61c-.65-.88-1.4-1.56-2.15-2-.75-.43-1.5-.62-2.15-.49l-7.13 1.39c-.27.05-.57-.02-.85-.19-.94-.54-1.76-2.05-1.46-3.08l2.38-8.12c.44-1.48-.08-3.64-1.31-5.47l-6.74-9.98c-1.11-1.65-.52-3.37.89-2.61l8.57 4.59c1.57.84 2.95.49 3.49-.9l2.97-7.55c.25-.63.84-.67 1.43-.32z" fill="url(#g)"/><path d="m76.85 130.42c-11.21 6.46-11.26 16.92-.11 23.47 11.09 6.46 29.18 6.46 40.39 0s11.26-16.92.11-23.47c-11.09-6.46-29.21-6.46-40.39 0z" fill="#2a3363" opacity=".2"/><path d="m125.06 88.82v48.42s-.05 0-.05 0c-.24 3.99-2.97 7.93-8.24 10.97-11.01 6.35-28.78 6.35-39.67 0-5.22-3.06-7.9-7-8.13-10.97h-.05v-48.42s56.14 0 56.14 0z" fill="url(#h)"/><path d="m96.89 103.67c-7.25 0-14.02-1.62-19.07-4.56-4.83-2.83-7.48-6.5-7.47-10.3.02-3.82 2.7-7.46 7.57-10.27 5.1-2.95 11.9-4.57 19.15-4.57s14.03 1.62 19.08 4.56c4.83 2.83 7.48 6.5 7.47 10.3-.02 3.82-2.7 7.46-7.57 10.27-5.11 2.95-11.92 4.57-19.16 4.57z" fill="url(#i)"/><g fill="#fff"><path d="m97.08 75.4c7 0 13.53 1.55 18.35 4.36 4.37 2.57 6.78 5.79 6.76 9.06-.01 3.28-2.45 6.49-6.86 9.03-4.89 2.82-11.45 4.38-18.45 4.38s-13.51-1.55-18.34-4.36c-4.37-2.57-6.78-5.79-6.76-9.06.01-3.28 2.45-6.49 6.86-9.03 4.88-2.82 11.43-4.37 18.43-4.37m.01-2.87c-7.18 0-14.38 1.59-19.87 4.76-11.01 6.35-11.06 16.62-.11 23.05 5.45 3.17 12.61 4.76 19.8 4.76s14.38-1.59 19.88-4.76c11.01-6.35 11.06-16.62.11-23.05-5.45-3.17-12.62-4.76-19.81-4.76z"/><path d="m100.16 84.37.01 2-12.51 7.27-3.47-2 12.51-7.27z"/><path d="m105.04 81.53.05 8.96h-4.9l-.02-4.12-.01-2h-3.46-7.1l-.01-2.84z"/></g><path d="m75.22 150.86c11.21 6.46 11.26 16.92.11 23.47-11.09 6.46-29.18 6.46-40.39 0s-11.26-16.92-.11-23.47c11.09-6.46 29.21-6.46 40.39 0z" fill="#2a3363" opacity=".2"/><path d="m28.6 132.8v25.07h.05c.24 3.99 2.97 7.93 8.24 10.97 11.01 6.35 28.78 6.35 39.67 0 5.22-3.06 7.9-7 8.13-10.97h.05v-25.07z" fill="url(#j)"/><path d="m56.77 147.65c-7.25 0-14.05-1.62-19.16-4.57-4.87-2.81-7.56-6.45-7.57-10.27-.02-3.81 2.64-7.47 7.47-10.31 5.05-2.94 11.83-4.56 19.08-4.56s14.06 1.62 19.15 4.57c4.87 2.81 7.56 6.45 7.57 10.27.02 3.81-2.64 7.47-7.47 10.31-5.05 2.94-11.82 4.56-19.07 4.56z" fill="url(#k)"/><path d="m56.59 119.38c7.01 0 13.55 1.55 18.44 4.38 4.41 2.54 6.84 5.75 6.86 9.03.01 3.28-2.39 6.5-6.75 9.06-4.84 2.82-11.36 4.37-18.35 4.37s-13.55-1.55-18.45-4.38c-4.41-2.54-6.84-5.75-6.86-9.03-.01-3.28 2.39-6.5 6.75-9.06 4.84-2.82 11.36-4.37 18.36-4.37m0-2.86c-7.18 0-14.36 1.59-19.81 4.76-10.95 6.43-10.89 16.71.11 23.05 5.5 3.17 12.7 4.76 19.88 4.76s14.35-1.59 19.8-4.76c10.95-6.43 10.89-16.71-.11-23.05-5.49-3.17-12.68-4.76-19.87-4.76z" fill="#fff"/><path d="m59.75 128.35.02 2.01-12.51 7.27-3.48-2.01 12.51-7.27z" fill="#fff"/><path d="m64.64 125.51.04 8.96h-4.89l-.02-4.11-.02-2.01h-3.46-7.09l-.02-2.83z" fill="#fff"/></svg>