<svg viewBox="0 0 200 195.97" xmlns="http://www.w3.org/2000/svg" xmlns:xlink="http://www.w3.org/1999/xlink"><linearGradient id="a" gradientTransform="matrix(1 0 0 -1 262 -123.99)" gradientUnits="userSpaceOnUse" x1="-261.98" x2="-62.02" y1="-261.95" y2="-261.95"><stop offset="0" stop-color="#4b5faa"/><stop offset="1" stop-color="#80d2e0"/></linearGradient><linearGradient id="b" gradientUnits="userSpaceOnUse" x1="15.63" x2="137.58" y1="74.16" y2="128.68"><stop offset="0" stop-color="#30769f"/><stop offset=".36" stop-color="#229aaf"/><stop offset=".78" stop-color="#15bebe"/><stop offset="1" stop-color="#10ccc5"/></linearGradient><linearGradient id="c" x1="121.59" x2="103.57" xlink:href="#b" y1="91.8" y2="134.57"/><linearGradient id="d" gradientUnits="userSpaceOnUse" x1="39.65" x2="173.32" y1="144.38" y2="144.38"><stop offset="0" stop-color="#fff"/><stop offset=".31" stop-color="#efeeef"/><stop offset=".58" stop-color="#e9e3e9"/><stop offset=".82" stop-color="#dfd1e0"/><stop offset="1" stop-color="#d5c0d6"/></linearGradient><linearGradient id="e" gradientUnits="userSpaceOnUse" x1="-24.78" x2="127.61" y1="81.44" y2="83.13"><stop offset="0" stop-color="#ff797d"/><stop offset=".3" stop-color="#ff7e7d"/><stop offset=".65" stop-color="#ff807d"/><stop offset="1" stop-color="#ff947d"/></linearGradient><linearGradient id="f" x1="113.15" x2="105.36" xlink:href="#e" y1="-6.62" y2="125.95"/><linearGradient id="g" xlink:href="#d" y1="112.77" y2="112.77"/><linearGradient id="h" gradientUnits="userSpaceOnUse" x1="143.55" x2="80.66" y1="77.54" y2="74.38"><stop offset="0" stop-color="#7f72d0"/><stop offset="0" stop-color="#7f72cf"/><stop offset=".22" stop-color="#605ba6"/><stop offset=".44" stop-color="#494a85"/><stop offset=".64" stop-color="#383d76"/><stop offset=".83" stop-color="#2e3668"/><stop offset="1" stop-color="#2a3363"/></linearGradient><linearGradient id="i" x1="143.32" x2="80.17" xlink:href="#d" y1="71.44" y2="68.26"/><linearGradient id="j" x1="31.76" x2="147.49" xlink:href="#d" y1="45.55" y2="45.55"/><linearGradient id="k" x1="79.94" x2="195.72" xlink:href="#d" y1="73.09" y2="73.09"/><path d="m170.45 96.92c39.2 22.6 39.4 59.2.4 82.1-38.8 22.6-102.1 22.6-141.3 0-39.2-22.6-39.4-59.2-.4-82.1 38.8-22.6 102.2-22.6 141.3 0z" fill="url(#a)"/><path d="m179.37 134.64-86.16 50.07-60.85-35.4 81.34-47.27z" opacity=".11"/><path d="m176.02 107.58-81.87 47.58-58.44-33.74 81.87-47.58z" fill="url(#b)"/><path d="m94.15 155.16-58.44-33.74-.06 20.86c0 2.23 1.18 4.28 3.11 5.4l55.32 31.94 84.65-49.19-5.4-3.61v-13.03l2.68-1.64v-4.56s-81.86 47.58-81.86 47.58z" fill="url(#c)"/><path d="m173.32 113.77-79.17 46.01-51.94-29.99c-1.12-.65-2.53.16-2.53 1.46l-.03 10.48c0 1.14.6 2.19 1.59 2.76l52.84 30.5 79.25-46.06v-15.16z" fill="url(#d)"/><path d="m171.78 105.9-78.62 45.29-54.61-31.67 78.62-45.28z" opacity=".11"/><path d="m176.02 75.97-81.87 47.57-58.44-33.73 81.87-47.58z" fill="url(#e)"/><path d="m94.15 123.54-58.44-33.74-.06 20.86c0 2.23 1.18 4.28 3.11 5.4l55.32 31.94 84.65-49.19-5.4-3.61v-13.03l2.68-1.64v-4.56s-81.86 47.58-81.86 47.58z" fill="url(#f)"/><path d="m173.32 82.16-79.17 46.01-51.94-29.99c-1.12-.65-2.53.16-2.53 1.46l-.03 10.48c0 1.14.6 2.19 1.59 2.76l52.84 30.5 79.25-46.06v-15.16z" fill="url(#g)"/><path d="m140.45 95.34-16.76-9.68c-3.87-2.23-7.48-2.54-10.12-1.01l-3.45 2c-2.6-6.09-7.02-11.43-11.86-14.22l-16.76-9.68-36.47 21.19v.13s0 0 0 0v2.43s16.76 9.68 16.76 9.68c5.29 3.05 20.48 11.4 20.48 11.4 1.55.23 3.22.83 4.95 1.83l16.76 9.68 36.47-21.19v-.13s0-2.29 0-2.29v-.13z" opacity=".11"/><path d="m164.79 66.49c-6.52-3.77-12.65-4.55-17.37-2.5-4.71-7.58-10.88-13.94-17.46-17.74l-30.92-17.85-67.28 39.1v.24s30.92 17.85 30.92 17.85c6.5 3.75 12.6 10.02 17.27 17.5.03 0 .06-.02.09-.03.45-.14 2.7-.78 5.26-.81 2.86-.03 7.87 1.06 12.22 3.57l30.92 17.85 67.28-39.1v-.24s-30.92-17.85-30.92-17.85z" fill="url(#h)"/><path d="m164.79 60.4c-6.52-3.77-12.65-4.55-17.37-2.5-4.71-7.58-10.88-13.94-17.46-17.74l-30.92-17.85-67.28 24.99v14.1s0 .24 0 .24l30.92 17.85c6.5 3.75 12.6 10.02 17.27 17.5.03 0 .06-.02.09-.03.45-.14 2.7-.78 5.26-.81 2.86-.03 7.87 1.06 12.22 3.57l30.92 17.85 67.28-39.1v-.24s0-14.1 0-14.1l-30.92-3.76z" fill="url(#i)"/><path d="m129.96 26.06-30.92-17.85-67.28 39.09v.24s30.92 17.85 30.92 17.85c6.5 3.76 12.6 10.02 17.27 17.5 12.53-3.92 69.81-35.36 67.48-39.11-4.71-7.58-10.88-13.94-17.46-17.74z" fill="url(#j)" stroke="#58c9c5" stroke-miterlimit="10" stroke-width=".25"/><path d="m164.79 46.3c-7.13-4.12-13.8-4.68-18.66-1.86l-66.19 38.46s2.49-.81 5.35-.83c2.86-.03 7.87 1.06 12.22 3.57l30.92 17.85 67.28-39.1v-.24s-30.92-17.85-30.92-17.85z" fill="url(#k)"/><path d="m149.08 50.19 20.64 11.92-20.51 11.92-20.64-11.92zm.12 23.01 19.1-11.1-19.22-11.1-19.1 11.1z" fill="#7c73cd"/><path d="m150.23 82.4-.7.41-28.18-16.27.7-.41z" fill="#7c73cd"/><path d="m142.38 86.96-.71.41-28.17-16.27.7-.41z" fill="#7c73cd"/><path d="m134.52 91.53-.71.41-28.17-16.27.7-.41z" fill="#7c73cd"/><g fill="#58c9c5"><path d="m127.69 38.76-.7.41-30.01-17.33.71-.4z"/><path d="m119.16 43.71-.7.41-30-17.32.7-.41z"/><path d="m110.64 48.67-.71.4-30-17.32.71-.41z"/><path d="m102.11 53.62-.7.41-30-17.32.7-.41z"/><path d="m93.59 58.57-.71.42-30-17.32.71-.42z"/><path d="m85.06 63.53-.71.41-30-17.32.71-.41z"/></g></svg>