<svg viewBox="0 0 200 195.97" xmlns="http://www.w3.org/2000/svg" xmlns:xlink="http://www.w3.org/1999/xlink"><linearGradient id="a" gradientTransform="matrix(1 0 0 -1 262 -575.92)" gradientUnits="userSpaceOnUse" x1="-259.35" x2="-63.21" y1="-714.59" y2="-714.59"><stop offset="0" stop-color="#4b5faa"/><stop offset="1" stop-color="#80d2e0"/></linearGradient><linearGradient id="b" gradientTransform="matrix(1 0 0 -1 262 -658.59)" gradientUnits="userSpaceOnUse" x1="-208.28" x2="-104.1" y1="-696.54" y2="-696.54"><stop offset="0" stop-color="#eeecee"/><stop offset=".32" stop-color="#ece9ec"/><stop offset=".6" stop-color="#e6dee6"/><stop offset=".86" stop-color="#dcccdd"/><stop offset="1" stop-color="#d5c0d6"/></linearGradient><linearGradient id="c" gradientTransform="matrix(.99592921 .575 -.00381656 1.00238598 0 3851.97)" gradientUnits="userSpaceOnUse" x1="74.96" x2="74.96" y1="-3780.02" y2="-3811.67"><stop offset="0" stop-color="#ff797d"/><stop offset="1" stop-color="#ff947d"/></linearGradient><linearGradient id="d" gradientTransform="matrix(.99592921 .575 -.00381656 1.00238598 0 3851.97)" gradientUnits="userSpaceOnUse" x1="95.03" x2="95.03" y1="-3780.24" y2="-3845.09"><stop offset="0" stop-color="#ec4fe6"/><stop offset="1" stop-color="#ff8cda"/></linearGradient><linearGradient id="e" gradientTransform="matrix(.99592921 .575 -.00381656 1.00238598 0 3851.97)" gradientUnits="userSpaceOnUse" x1="115.08" x2="115.08" y1="-3780.86" y2="-3829.89"><stop offset="0" stop-color="#30769f"/><stop offset=".36" stop-color="#229aaf"/><stop offset=".78" stop-color="#15bebe"/><stop offset="1" stop-color="#10ccc5"/></linearGradient><linearGradient id="f" gradientTransform="matrix(.99592921 .575 -.00381656 1.00238598 0 3918.2)" x1="135.07" x2="135.07" xlink:href="#a" y1="-3846" y2="-3868.58"/><clipPath id="g"><path d="m145.42 29.32c16.01 9.25 28.96 31.67 28.91 50.07s-13.08 25.83-29.1 16.58c-16.03-9.25-28.96-31.67-28.91-50.07s13.07-25.83 29.1-16.58z"/></clipPath><linearGradient id="h" gradientUnits="userSpaceOnUse" x1="144.21" x2="144.21" y1="85.17" y2="67.6"><stop offset="0" stop-color="#d6c0d4"/><stop offset=".33" stop-color="#d3bed2"/><stop offset=".55" stop-color="#cbb6cd"/><stop offset=".73" stop-color="#bca8c5"/><stop offset=".89" stop-color="#a795b9"/><stop offset="1" stop-color="#9585ae"/></linearGradient><linearGradient id="i" gradientTransform="matrix(-1 -0 -0 1 7415.23 288.5)" gradientUnits="userSpaceOnUse" x1="7276.88" x2="7279.23" y1="-224.09" y2="-224.09"><stop offset="0" stop-color="#d6c0d4"/><stop offset=".23" stop-color="#d1bbd1"/><stop offset=".5" stop-color="#c3aec9"/><stop offset=".79" stop-color="#ab99bb"/><stop offset="1" stop-color="#9585ae"/></linearGradient><path d="m169.83 98.4c38.45 22.17 38.65 58.07.39 80.54-38.06 22.17-100.15 22.17-138.61 0-38.45-22.17-38.65-58.07-.39-80.54 38.06-22.17 100.25-22.17 138.61 0z" fill="url(#a)"/><path d="m71.25 105.36-67.98 39.44c2.35 12.46 11.77 24.52 28.35 34.14 25.11 14.42 60.23 19.52 92.21 15.11l32.6-18.17-3.65-5.13-58.87-56.94-22.66-8.44z" fill="#2a3363" opacity=".2"/><path d="m53.72 16.18 103.98 59.15-1.28 100.55-102.02-60.13-.69-99.57z" fill="#2a3363"/><path d="m151.32 52.86c.98.49 1.77 1.28 2.55 2.06s1.47 1.77 2.06 2.75c.69.98 1.18 2.06 1.47 3.24s.49 2.26.49 3.24l-.1 11.08-104.07-59.05v-10.79c0-.98.2-1.96.49-2.55.29-.69.78-1.28 1.28-1.57.59-.39 1.28-.59 2.06-.59s1.57.29 2.45.78l91.33 51.4z" fill="url(#b)"/><g fill="#7c71c7"><path d="m73.24 16.37c.29.2.69.49.98.69.29.29.49.69.78.98s.29.78.49 1.18.2.78.2 1.18c0 .29 0 .69-.2.98s-.29.49-.49.69-.49.2-.78.2-.69-.2-.98-.29c-.29-.2-.69-.49-.98-.69-.29-.29-.49-.69-.78-.98-.2-.29-.29-.78-.49-1.18-.2-.29-.2-.78-.2-1.18 0-.29 0-.69.2-.98s.29-.49.49-.69.49-.2.78-.2c.39 0 .69 0 .98.29z"/><path d="m64.02 10.98c.29.2.69.49.98.69.29.29.49.69.78.98.2.29.29.78.49 1.18.2.29.2.78.2 1.18 0 .29 0 .69-.2.98s-.29.49-.49.69-.49.2-.78.2-.69-.2-.98-.29c-.29-.2-.69-.49-.98-.69-.29-.29-.49-.69-.78-.98-.2-.29-.29-.78-.49-1.18-.2-.29-.2-.78-.2-1.18 0-.29 0-.69.2-.98s.29-.49.49-.69.49-.2.78-.2c.39 0 .69.2.98.29z"/><path d="m82.66 21.57c.29.2.69.49.98.69.29.29.49.69.78.98.2.29.29.78.49 1.18.2.29.2.78.2 1.18 0 .29 0 .69-.2.98s-.29.49-.49.69c-.2-.1-.49-.1-.78-.1s-.69-.2-.98-.29-.69-.49-.98-.69c-.29-.29-.49-.69-.78-.98-.2-.29-.29-.78-.49-1.18-.2-.29-.2-.78-.2-1.18s0-.69.2-.98.29-.49.49-.69.49-.2.78-.2c.29.2.59.39.98.59z"/></g><g style="opacity:.22;fill:none;stroke:#7c71c7;stroke-linecap:round;stroke-width:3.36;stroke-miterlimit:10"><path d="m64.63 33.18.54 78.13 80.59 47.5v-78.79"/><path d="m65.17 72.07 80.59 47.5"/><path d="m65.17 52.45 80.59 47.5"/><path d="m65.17 91.69 80.59 47.5"/><path d="m145.76 80.02-81.13-46.84"/><path d="m105.54 135.59v-78.79"/><path d="m84.94 123.7v-78.79"/><path d="m126.14 147.48v-78.79"/></g><path d="m80.21 118.25-10.49-6.05v-31.65l10.49 6.05z" fill="url(#c)"/><path d="m100.27 129.62-10.48-6.05v-64.86l10.48 6.05z" fill="url(#d)"/><path d="m120.32 140.58-10.48-6.05v-49.04l10.48 6.06z" fill="url(#e)"/><path d="m140.31 153.21-10.48-6.05v-22.58l10.48 6.05z" fill="url(#f)"/><path d="m145.42 29.32c16.01 9.25 28.96 31.67 28.91 50.07s-13.08 25.83-29.1 16.58c-16.03-9.25-28.96-31.67-28.91-50.07s13.07-25.83 29.1-16.58z" fill="#ece2ec" stroke="#a99abb" stroke-miterlimit="10" stroke-width="1.68"/><g clip-path="url(#g)"><path d="m139.41 45.08c1.06-.85 2.45-1.28 3.83-1.6 2.98-.64 6.39-.32 8.73 1.49.96.75 1.6 1.6 2.24 2.56 2.66 4.36 2.77 9.69 3.19 14.69.43 5 1.28 10.01 2.77 14.8.11.21.21.53.43.75.21.11.53.21.75.21 1.17.11 2.24.21 3.41.43-.11.43-.64.53-1.06.64-2.02.21-4.15-.21-6.07-.96-1.28-.53-9.58-3.19-10.43-4.15s-1.49-2.24-2.02-3.41c-1.17-2.45-2.45-4.9-3.83-7.35-2.24-3.73 2.34-5.32.96-9.37-1.17-3.41-1.49-5.75-.85-9.37" fill="#10ccc5"/><path d="m174.43 106.51-13.63-24.38c0-.11-.11-.11-.11-.21-.15-.24-.33-.46-.52-.67-.48-.91-1.42-1.77-3.1-2.63l-12.88-4.58c-3.94-1.38-8.3-1.06-11.92 1.06-5.32 3.19-5.11 7.88-5.11 12.88l.59 3.94-.49 15.01-8.41 3.51c-1.17.75-1.49 2.24-.85 3.51.75 1.38 2.45 1.81 3.73 1.06l6.64-1.85-1.85 15.69 17.67 9.26c6.6 3.41 14.48-1.38 14.48-8.84l-2.98-19.8 2.7-14.77 8.9 14.03-6.92 17.57c-.53 1.28 0 2.77 1.28 3.41 1.28.75 2.98.21 3.62-1.17l9.37-18.63.74-1.6-.96-1.81z" fill="#4e60ab"/><path d="m150.37 70.1v-2.56h-11.92v6.07l-.43 3.09c-.21 1.28 0 2.66.53 3.94l1.92 4.47 5.86-2.77c2.66-1.28 4.26-3.94 4.15-6.92z" fill="url(#h)"/><path d="m142.18 73.19c5.32 0 9.58-4.26 9.58-9.58v-8.09c0-5.32-4.26-9.58-9.58-9.58-5.32 0-9.58 4.26-9.58 9.58l.64 8.09c-.11 5.32 3.62 9.58 8.94 9.58z" fill="#d6c0d4"/><path d="m151.33 61.9h1.49c1.17 0 2.02-.96 2.02-2.02 0-1.17-.96-2.02-2.02-2.02h-1.49v4.05z" fill="#d6c0d4"/><path d="m136.32 66.16 2.02-.53v-2.98h-.96l-1.28 2.98c-.21.21-.11.53.21.53z" fill="url(#i)"/><g fill="#2a3363"><circle cx="142.18" cy="60.63" r=".96"/><circle cx="135.68" cy="59.67" r=".96"/><path d="m140.58 58.07c.75-.85 2.02-1.06 3.09-.96.53.11 1.06.32 1.6.64.43.32.85.64 1.17 1.06-.53 0-1.06-.11-1.6-.21-.53-.11-.96-.21-1.38-.32-.43-.11-.96-.11-1.38-.21-.43 0-.96 0-1.49 0z"/><path d="m136.96 57.33c-.43-.11-.75-.21-.96-.21-.32-.11-.53-.21-.85-.21-.21-.11-.53-.21-.75-.32-.32-.11-.53-.21-.96-.43.53-.53 1.38-.64 2.13-.43.32.11.64.32.96.64.21.21.32.64.43.96z"/><path d="m139.73 69.57c-.21 0-.53 0-.75-.11l-.64-.11c-.11 0-.21-.21-.21-.32s.21-.21.32-.21l.64.11c1.17.21 2.34-.21 3.09-1.06.11-.11.32-.11.43 0s.11.32 0 .43c-.75.75-1.81 1.28-2.87 1.28z"/></g><path d="m151.55 50.41c-.64-2.56-2.66-4.58-4.9-5.54s-.75-2.45-5.64-3.62c-5.32-1.28-7.56 1.06-9.37 2.98-2.56 2.66-1.17 6.28-.64 6.92 2.77 3.19 6.81 1.49 9.79 1.49 2.56 0 4.79-.32 7.03 1.28 2.87 2.13 2.45 6.28 1.92 10.11 2.34-2.02 2.34-8.62 4.58-12.35.11-.21.21-.32.21-.53 0-.11-.11-.32-.21-.43-.53-.85-1.06-1.6-1.6-2.45-.75-1.06.32-2.24-.64-3.09-2.34-2.13-7.67-4.05-10.22-2.13" fill="#10ccc5"/></g><path d="m145.42 29.32c16.01 9.25 28.96 31.67 28.91 50.07s-13.08 25.83-29.1 16.58c-16.03-9.25-28.96-31.67-28.91-50.07s13.07-25.83 29.1-16.58z" fill="none" stroke="#2a3363" stroke-miterlimit="10" stroke-width="5.05"/></svg>