<svg viewBox="0 0 200 195.97" xmlns="http://www.w3.org/2000/svg" xmlns:xlink="http://www.w3.org/1999/xlink"><linearGradient id="a" gradientTransform="matrix(1 0 0 -1 262 -123.99)" gradientUnits="userSpaceOnUse" x1="-261.98" x2="-62.02" y1="-261.95" y2="-261.95"><stop offset="0" stop-color="#4b5faa"/><stop offset="1" stop-color="#80d2e0"/></linearGradient><linearGradient id="b" gradientUnits="userSpaceOnUse" x1="39.67" x2="61.19" y1="170.06" y2="133.81"><stop offset="0" stop-color="#ff797d"/><stop offset=".64" stop-color="#ff897d"/><stop offset="1" stop-color="#ff947d"/></linearGradient><linearGradient id="c" x1="61.72" x2="91.55" xlink:href="#b" y1="122.13" y2="199.92"/><path d="m170.45 96.92c39.2 22.6 39.4 59.2.4 82.1-38.8 22.6-102.1 22.6-141.3 0-39.2-22.6-39.4-59.2-.4-82.1 38.8-22.6 102.2-22.6 141.3 0z" fill="url(#a)"/><path d="m94.19 139.41c10.24 5.91 18.52 20.25 18.49 32.02-.03 11.78-8.37 16.53-18.61 10.61l-72.85-42.06c-10.24-5.91-18.52-20.25-18.49-32.03.03-11.77 8.37-16.52 18.61-10.6z" fill="url(#b)"/><path d="m101.83 134.97-72.85-42.06c-5.15-2.98-9.82-3.25-13.2-1.29l-7.64 4.44c3.37-1.96 8.04-1.68 13.2 1.29l72.85 42.06c10.24 5.91 18.52 20.25 18.49 32.02-.02 5.85-2.08 9.97-5.41 11.9l7.64-4.44c3.33-1.94 5.4-6.05 5.41-11.9.03-11.77-8.24-26.11-18.49-32.02z" fill="url(#c)"/><g fill="#fff"><path d="m17.7 126.03v-17.79l11.99 6.92v3.1l-8.23-4.75v4.24l7.61 4.39v3.1l-7.61-4.39v4.25l8.26 4.77v3.1z"/><path d="m35.9 118.75 4.3 16 .17.1 4.31-11.03 4.17 2.41-6.13 14.25-4.85-2.8-6.14-21.34 4.18 2.41z"/><path d="m50.98 145.25v-17.79l11.99 6.92v3.1l-8.23-4.75v4.24l7.61 4.39v3.1l-7.61-4.39v4.25l8.26 4.77v3.1z"/><path d="m80.85 144.7v17.79l-3.25-1.88-7.74-15.67-.13-.08v11.2l-3.76-2.17v-17.79l3.3 1.91 7.68 15.62.16.09v-11.19l3.74 2.16z"/><path d="m83.27 149.2v-3.1l14.61 8.44v3.1l-5.45-3.14v14.69l-3.72-2.15v-14.69l-5.45-3.15z"/></g><path d="m78.5.98 87.09 49.54-1.07 111.69-85.44-50.36-.58-110.87z" fill="#2a3363"/><path d="m78.5 74.81 86.67 51.09" fill="none" stroke="#7c71c7" stroke-miterlimit="10" stroke-width=".79"/><path d="m78.68 37.87 86.31 50.88" fill="none" stroke="#7c71c7" stroke-miterlimit="10" stroke-width=".79"/><path d="m108.25 38.55 37.79 22.27" fill="none" stroke="#ee55ea" stroke-linecap="round" stroke-miterlimit="10" stroke-width="1.57"/><path d="m107.46 73.18 45.86 27.03" fill="none" stroke="#10ccc5" stroke-linecap="round" stroke-miterlimit="10" stroke-width="1.57"/><path d="m108.25 111.2 37.79 22.27" fill="none" stroke="#ff797d" stroke-linecap="round" stroke-miterlimit="10" stroke-width="1.57"/><path d="m102.42 26.57-4.39 5.18c-.73-2.11-2.24-4.15-3.99-5.16l2.75-3.27z" fill="#ee55ea"/><path d="m91.31 20.16 2.72 6.41c-1.76-.99-3.28-.71-4.01.56l-4.35-10.23 5.64 3.25z" fill="#ee55ea"/><path d="m98.03 31.75c.29.86.46 1.73.46 2.55 0 2.83-2.01 3.98-4.48 2.56s-4.46-4.88-4.45-7.72c0-.82.17-1.5.47-2.01.73-1.27 2.25-1.56 4-.55 1.77 1.02 3.28 3.06 4 5.17zm-3.44 2.81.02-5.49-1.53-.19v.79s.78.13.78.13v4.34s.73.43.73.43" fill="#fff"/><path d="m94.6 29.07-.01 5.49-.74-.43.01-4.33-.79-.14.01-.78z" fill="#ee55ea"/><path d="m98.02 68.94c.3.86.46 1.73.46 2.55 0 2.83-2.01 3.97-4.48 2.55s-4.46-4.88-4.45-7.71c0-.82.17-1.5.47-2.02.73-1.26 2.25-1.55 4-.55 1.77 1.02 3.28 3.05 4 5.17zm-2.55 2.48-1.72-.99c.58-.45.69-.53 1.24-.95.3-.22.51-.58.51-1.11 0-.97-.67-2.01-1.5-2.49-.77-.45-1.39-.23-1.53.62l.71.59c.06-.47.4-.6.81-.37.44.25.78.78.78 1.24 0 .29-.14.48-.33.63l-1.94 1.55v.41s2.96 1.71 2.96 1.71v-.84" fill="#fff"/><path d="m94 65.88c.84.48 1.5 1.52 1.5 2.49 0 .53-.21.88-.51 1.11-.54.41-.65.5-1.24.95l1.72.99v.84s-2.96-1.71-2.96-1.71v-.41s1.94-1.55 1.94-1.55c.19-.15.33-.35.33-.63 0-.46-.34-.98-.78-1.24-.4-.23-.75-.1-.81.37l-.71-.59c.14-.85.76-1.06 1.53-.62z" fill="#10ccc5"/><path d="m91.31 57.35 2.72 6.41c-1.76-.99-3.28-.7-4.01.56l-4.35-10.22z" fill="#10ccc5"/><path d="m102.42 63.76-4.39 5.18c-.73-2.11-2.24-4.15-3.99-5.16l2.75-3.27z" fill="#10ccc5"/><path d="m98.02 106.12c.3.86.46 1.73.46 2.55 0 2.84-2.01 3.98-4.48 2.56s-4.46-4.88-4.45-7.72c0-.82.17-1.5.47-2.01.73-1.26 2.25-1.55 4-.55 1.77 1.02 3.28 3.06 4.01 5.17zm-4.13 2.49c.94.54 1.65.36 1.65-.65 0-.58-.27-1.37-.76-1.86.34-.04.58-.31.58-.74 0-.78-.54-1.77-1.33-2.27-.04-.02-.07-.05-.11-.07-.55-.32-1.04-.29-1.29.05l.57.8c.16-.18.37-.21.65-.05 0 0 .01 0 .02.01.11.06.22.14.33.25.33.34.38.69.35.91-.04.24-.23.49-.6.27l-.54-.31v.79s.53.31.53.31c.57.33.85.98.85 1.41 0 .47-.28.66-.89.32-.33-.19-.76-.76-.89-1.17l-.65.02c.24.76.8 1.56 1.54 1.99" fill="#fff"/><path d="m93.93 103.02s.07.04.11.07c.79.5 1.33 1.5 1.33 2.27 0 .43-.24.7-.58.74.48.49.76 1.28.76 1.86 0 1.01-.71 1.19-1.65.65-.74-.43-1.3-1.23-1.54-1.99l.65-.02c.13.42.56.98.89 1.17.61.35.89.15.89-.32 0-.42-.28-1.08-.83-1.4l-.54-.31v-.79s.53.31.53.31c.39.22.57-.03.61-.26.03-.23-.02-.57-.35-.91-.1-.11-.22-.18-.33-.25 0 0-.01 0-.02-.01-.28-.16-.49-.12-.65.05l-.57-.8c.25-.34.74-.37 1.29-.05z" fill="#ff797d"/><path d="m102.42 100.94-4.39 5.18c-.73-2.11-2.24-4.15-3.99-5.16v-.03s2.75-3.25 2.75-3.25l5.63 3.25z" fill="#ff797d"/><path d="m91.31 94.53 2.72 6.41v.02c-1.76-1-3.28-.72-4.01.55l-4.35-10.23z" fill="#ff797d"/></svg>